G04*
G04 #@! TF.GenerationSoftware,Altium Limited,Altium Designer,21.6.1 (37)*
G04*
G04 Layer_Color=65535*
%FSLAX44Y44*%
%MOMM*%
G71*
G04*
G04 #@! TF.SameCoordinates,E758BAB5-E73B-4707-80CC-DB64F6B6F8F5*
G04*
G04*
G04 #@! TF.FilePolarity,Positive*
G04*
G01*
G75*
%ADD10C,0.2000*%
%ADD11C,0.1000*%
%ADD12C,0.5080*%
%ADD13C,0.4000*%
%ADD14C,0.2500*%
%ADD15C,0.1270*%
%ADD16C,0.1524*%
%ADD17C,0.1500*%
%ADD18C,0.2032*%
%ADD19R,2.1000X20.5000*%
G36*
X81177Y655678D02*
X82390D01*
Y655273D01*
X83604D01*
Y654869D01*
X84413D01*
Y654464D01*
X85627D01*
Y654060D01*
X86436D01*
Y653655D01*
X87245D01*
Y653251D01*
X88054D01*
Y652846D01*
X89268D01*
Y652441D01*
X90077D01*
Y652037D01*
X91291D01*
Y651632D01*
X92100D01*
Y651228D01*
X92909D01*
Y650823D01*
X93718D01*
Y650419D01*
X94932D01*
Y650014D01*
X95741D01*
Y649610D01*
X96954D01*
Y649205D01*
X97764D01*
Y648800D01*
X98573D01*
Y648396D01*
X99382D01*
Y647991D01*
X100596D01*
Y647587D01*
X101405D01*
Y647182D01*
X101809D01*
Y646778D01*
X102214D01*
Y646373D01*
X102618D01*
Y645968D01*
X103023D01*
Y645564D01*
Y645159D01*
X103427D01*
Y644755D01*
Y644350D01*
Y643946D01*
X130937D01*
Y643541D01*
Y643137D01*
Y642732D01*
X130128D01*
Y642327D01*
X129319D01*
Y641923D01*
X128105D01*
Y641518D01*
X126082D01*
Y641114D01*
X123655D01*
Y640709D01*
X121228D01*
Y640305D01*
X117587D01*
Y639900D01*
X113946D01*
Y639496D01*
X109091D01*
Y639091D01*
X103023D01*
Y638686D01*
Y638282D01*
X102618D01*
Y637877D01*
Y637473D01*
Y637068D01*
Y636664D01*
X102214D01*
Y636259D01*
Y635855D01*
X123655D01*
Y635450D01*
Y635046D01*
Y634641D01*
X123251D01*
Y634236D01*
X122441D01*
Y633832D01*
X121228D01*
Y633427D01*
X119205D01*
Y633023D01*
X117182D01*
Y632618D01*
X114755D01*
Y632214D01*
X111518D01*
Y631809D01*
X107878D01*
Y631404D01*
X103023D01*
Y631000D01*
X101000D01*
Y630595D01*
X100596D01*
Y630191D01*
Y629786D01*
Y629382D01*
Y628977D01*
X100191D01*
Y628573D01*
Y628168D01*
Y627764D01*
X116373D01*
Y627359D01*
Y626954D01*
Y626550D01*
Y626145D01*
X115564D01*
Y625741D01*
X114350D01*
Y625336D01*
X113137D01*
Y624932D01*
X110709D01*
Y624527D01*
X108282D01*
Y624123D01*
X105450D01*
Y623718D01*
X102214D01*
Y623313D01*
X98573D01*
Y622909D01*
X98168D01*
Y622504D01*
X97764D01*
Y622100D01*
X97359D01*
Y621695D01*
X96954D01*
Y621291D01*
X96550D01*
Y620886D01*
X95741D01*
Y620481D01*
X95336D01*
Y620077D01*
X94123D01*
Y619672D01*
X92909D01*
Y619268D01*
X92100D01*
Y618863D01*
X90886D01*
Y618459D01*
X90077D01*
Y618054D01*
X88863D01*
Y617650D01*
X87650D01*
Y617245D01*
X86841D01*
Y616841D01*
X85627D01*
Y616436D01*
X84818D01*
Y616031D01*
X83604D01*
Y615627D01*
X82390D01*
Y615222D01*
X80368D01*
Y614818D01*
X78749D01*
Y615222D01*
X76322D01*
Y615627D01*
X75513D01*
Y616031D01*
X74299D01*
Y616436D01*
X73086D01*
Y616841D01*
X72277D01*
Y617245D01*
X71063D01*
Y617650D01*
X70254D01*
Y618054D01*
X69040D01*
Y618459D01*
X67826D01*
Y618863D01*
X67017D01*
Y619268D01*
X65804D01*
Y619672D01*
X64590D01*
Y620077D01*
X63781D01*
Y620481D01*
X62972D01*
Y620886D01*
X62567D01*
Y621291D01*
X61758D01*
Y621695D01*
X61354D01*
Y622100D01*
X60949D01*
Y622504D01*
Y622909D01*
X60545D01*
Y623313D01*
X56904D01*
Y623718D01*
X53667D01*
Y624123D01*
X50431D01*
Y624527D01*
X48003D01*
Y624932D01*
X45981D01*
Y625336D01*
X44362D01*
Y625741D01*
X43149D01*
Y626145D01*
X42744D01*
Y626550D01*
X42340D01*
Y626954D01*
Y627359D01*
X42744D01*
Y627764D01*
X58926D01*
Y628168D01*
X58522D01*
Y628573D01*
Y628977D01*
Y629382D01*
X58117D01*
Y629786D01*
Y630191D01*
Y630595D01*
Y631000D01*
X55690D01*
Y631404D01*
X51240D01*
Y631809D01*
X47599D01*
Y632214D01*
X44362D01*
Y632618D01*
X41935D01*
Y633023D01*
X39508D01*
Y633427D01*
X37889D01*
Y633832D01*
X36271D01*
Y634236D01*
X35462D01*
Y634641D01*
Y635046D01*
X35057D01*
Y635450D01*
Y635855D01*
X56499D01*
Y636259D01*
Y636664D01*
Y637068D01*
Y637473D01*
X56094D01*
Y637877D01*
Y638282D01*
Y638686D01*
X55690D01*
Y639091D01*
X49622D01*
Y639496D01*
X45171D01*
Y639900D01*
X41126D01*
Y640305D01*
X37889D01*
Y640709D01*
X35057D01*
Y641114D01*
X32630D01*
Y641518D01*
X31012D01*
Y641923D01*
X29394D01*
Y642327D01*
X28585D01*
Y642732D01*
X28180D01*
Y643137D01*
Y643541D01*
Y643946D01*
X55285D01*
Y644350D01*
Y644755D01*
X55690D01*
Y645159D01*
Y645564D01*
X56094D01*
Y645968D01*
Y646373D01*
X56499D01*
Y646778D01*
X56904D01*
Y647182D01*
X57713D01*
Y647587D01*
X58522D01*
Y647991D01*
X59331D01*
Y648396D01*
X60140D01*
Y648800D01*
X61354D01*
Y649205D01*
X62163D01*
Y649610D01*
X62972D01*
Y650014D01*
X64186D01*
Y650419D01*
X64995D01*
Y650823D01*
X65804D01*
Y651228D01*
X67017D01*
Y651632D01*
X67826D01*
Y652037D01*
X68636D01*
Y652441D01*
X69849D01*
Y652846D01*
X70658D01*
Y653251D01*
X71467D01*
Y653655D01*
X72681D01*
Y654060D01*
X73490D01*
Y654464D01*
X74299D01*
Y654869D01*
X75513D01*
Y655273D01*
X76322D01*
Y655678D01*
X77940D01*
Y656082D01*
X81177D01*
Y655678D01*
D02*
G37*
G36*
X125143Y604548D02*
X125357D01*
Y604334D01*
X125570D01*
Y604121D01*
X125784D01*
Y603908D01*
Y603694D01*
Y603481D01*
X125997D01*
Y603268D01*
Y603054D01*
Y602841D01*
X126210D01*
Y602627D01*
Y602414D01*
Y602201D01*
Y601987D01*
X126424D01*
Y601774D01*
Y601561D01*
Y601347D01*
Y601134D01*
X126637D01*
Y600920D01*
Y600707D01*
Y600494D01*
Y600280D01*
X126850D01*
Y600067D01*
Y599854D01*
Y599640D01*
Y599427D01*
X127064D01*
Y599213D01*
Y599000D01*
Y598787D01*
Y598573D01*
X127277D01*
Y598360D01*
Y598147D01*
Y597933D01*
X127491D01*
Y597720D01*
Y597506D01*
Y597293D01*
Y597080D01*
X127704D01*
Y596866D01*
Y596653D01*
Y596440D01*
Y596226D01*
X127917D01*
Y596013D01*
Y595799D01*
Y595586D01*
Y595373D01*
X128131D01*
Y595159D01*
Y594946D01*
Y594733D01*
Y594519D01*
X128344D01*
Y594306D01*
Y594092D01*
Y593879D01*
Y593666D01*
X125997D01*
Y593879D01*
X125784D01*
Y594092D01*
Y594306D01*
Y594519D01*
X125570D01*
Y594733D01*
Y594946D01*
Y595159D01*
Y595373D01*
X125357D01*
Y595586D01*
Y595799D01*
Y596013D01*
Y596226D01*
X125143D01*
Y596440D01*
Y596653D01*
Y596866D01*
Y597080D01*
X124930D01*
Y597293D01*
Y597506D01*
Y597720D01*
Y597933D01*
X124717D01*
Y598147D01*
Y598360D01*
Y598573D01*
Y598787D01*
X124503D01*
Y599000D01*
Y599213D01*
Y599427D01*
Y599640D01*
X124290D01*
Y599427D01*
X124076D01*
Y599213D01*
Y599000D01*
X123863D01*
Y598787D01*
Y598573D01*
X123650D01*
Y598360D01*
Y598147D01*
Y597933D01*
X123436D01*
Y597720D01*
Y597506D01*
X123223D01*
Y597293D01*
Y597080D01*
Y596866D01*
X123010D01*
Y596653D01*
Y596440D01*
X122796D01*
Y596226D01*
Y596013D01*
X122583D01*
Y595799D01*
Y595586D01*
Y595373D01*
X122369D01*
Y595159D01*
Y594946D01*
X122156D01*
Y594733D01*
Y594519D01*
Y594306D01*
X121943D01*
Y594092D01*
X121729D01*
Y593879D01*
X121516D01*
Y593666D01*
X121303D01*
Y593452D01*
X120449D01*
Y593666D01*
X120022D01*
Y593879D01*
X119809D01*
Y594092D01*
X119596D01*
Y594306D01*
Y594519D01*
X119382D01*
Y594733D01*
Y594946D01*
Y595159D01*
X119169D01*
Y595373D01*
Y595586D01*
X118955D01*
Y595799D01*
Y596013D01*
X118742D01*
Y596226D01*
Y596440D01*
Y596653D01*
X118529D01*
Y596866D01*
Y597080D01*
X118315D01*
Y597293D01*
Y597506D01*
Y597720D01*
X118102D01*
Y597933D01*
Y598147D01*
X117889D01*
Y598360D01*
Y598573D01*
Y598787D01*
X117675D01*
Y599000D01*
Y599213D01*
X117462D01*
Y599427D01*
Y599640D01*
X117248D01*
Y599427D01*
Y599213D01*
X117035D01*
Y599000D01*
Y598787D01*
Y598573D01*
Y598360D01*
X116822D01*
Y598147D01*
Y597933D01*
Y597720D01*
Y597506D01*
X116608D01*
Y597293D01*
Y597080D01*
Y596866D01*
Y596653D01*
X116395D01*
Y596440D01*
Y596226D01*
Y596013D01*
Y595799D01*
X116182D01*
Y595586D01*
Y595373D01*
Y595159D01*
X115968D01*
Y594946D01*
Y594733D01*
Y594519D01*
Y594306D01*
X115755D01*
Y594092D01*
Y593879D01*
Y593666D01*
X113194D01*
Y593879D01*
Y594092D01*
X113408D01*
Y594306D01*
Y594519D01*
Y594733D01*
Y594946D01*
X113621D01*
Y595159D01*
Y595373D01*
Y595586D01*
Y595799D01*
X113834D01*
Y596013D01*
Y596226D01*
Y596440D01*
Y596653D01*
X114048D01*
Y596866D01*
Y597080D01*
Y597293D01*
Y597506D01*
X114261D01*
Y597720D01*
Y597933D01*
Y598147D01*
X114475D01*
Y598360D01*
Y598573D01*
Y598787D01*
Y599000D01*
X114688D01*
Y599213D01*
Y599427D01*
Y599640D01*
Y599854D01*
X114901D01*
Y600067D01*
Y600280D01*
Y600494D01*
Y600707D01*
X115115D01*
Y600920D01*
Y601134D01*
Y601347D01*
Y601561D01*
X115328D01*
Y601774D01*
Y601987D01*
Y602201D01*
Y602414D01*
X115541D01*
Y602627D01*
Y602841D01*
Y603054D01*
X115755D01*
Y603268D01*
Y603481D01*
Y603694D01*
Y603908D01*
X115968D01*
Y604121D01*
Y604334D01*
X116182D01*
Y604548D01*
X116608D01*
Y604761D01*
X117462D01*
Y604548D01*
X117889D01*
Y604334D01*
X118102D01*
Y604121D01*
Y603908D01*
X118315D01*
Y603694D01*
Y603481D01*
X118529D01*
Y603268D01*
Y603054D01*
X118742D01*
Y602841D01*
Y602627D01*
Y602414D01*
X118955D01*
Y602201D01*
Y601987D01*
X119169D01*
Y601774D01*
Y601561D01*
X119382D01*
Y601347D01*
Y601134D01*
Y600920D01*
X119596D01*
Y600707D01*
Y600494D01*
X119809D01*
Y600280D01*
Y600067D01*
Y599854D01*
X120022D01*
Y599640D01*
Y599427D01*
X120236D01*
Y599213D01*
Y599000D01*
X120449D01*
Y598787D01*
Y598573D01*
Y598360D01*
X120662D01*
Y598147D01*
Y597933D01*
X121089D01*
Y598147D01*
Y598360D01*
X121303D01*
Y598573D01*
Y598787D01*
Y599000D01*
X121516D01*
Y599213D01*
Y599427D01*
X121729D01*
Y599640D01*
Y599854D01*
Y600067D01*
X121943D01*
Y600280D01*
Y600494D01*
X122156D01*
Y600707D01*
Y600920D01*
Y601134D01*
X122369D01*
Y601347D01*
Y601561D01*
X122583D01*
Y601774D01*
Y601987D01*
X122796D01*
Y602201D01*
Y602414D01*
Y602627D01*
X123010D01*
Y602841D01*
Y603054D01*
X123223D01*
Y603268D01*
Y603481D01*
X123436D01*
Y603694D01*
Y603908D01*
Y604121D01*
X123650D01*
Y604334D01*
X123863D01*
Y604548D01*
X124290D01*
Y604761D01*
X125143D01*
Y604548D01*
D02*
G37*
G36*
X106793Y604334D02*
Y604121D01*
Y603908D01*
Y603694D01*
Y603481D01*
Y603268D01*
Y603054D01*
Y602841D01*
Y602627D01*
Y602414D01*
Y602201D01*
Y601987D01*
Y601774D01*
Y601561D01*
Y601347D01*
Y601134D01*
Y600920D01*
Y600707D01*
Y600494D01*
Y600280D01*
Y600067D01*
Y599854D01*
Y599640D01*
Y599427D01*
Y599213D01*
Y599000D01*
Y598787D01*
Y598573D01*
Y598360D01*
Y598147D01*
Y597933D01*
Y597720D01*
Y597506D01*
Y597293D01*
X106580D01*
Y597080D01*
Y596866D01*
Y596653D01*
Y596440D01*
X106366D01*
Y596226D01*
Y596013D01*
Y595799D01*
X106153D01*
Y595586D01*
Y595373D01*
X105940D01*
Y595159D01*
X105726D01*
Y594946D01*
X105513D01*
Y594733D01*
X105299D01*
Y594519D01*
X105086D01*
Y594306D01*
X104659D01*
Y594092D01*
X104233D01*
Y593879D01*
X103592D01*
Y593666D01*
X102312D01*
Y593452D01*
X99965D01*
Y593666D01*
X98685D01*
Y593879D01*
X98045D01*
Y594092D01*
X97618D01*
Y594306D01*
X97191D01*
Y594519D01*
X96978D01*
Y594733D01*
X96764D01*
Y594946D01*
X96551D01*
Y595159D01*
X96338D01*
Y595373D01*
X96124D01*
Y595586D01*
Y595799D01*
X95911D01*
Y596013D01*
Y596226D01*
Y596440D01*
X95697D01*
Y596653D01*
Y596866D01*
Y597080D01*
Y597293D01*
X95484D01*
Y597506D01*
Y597720D01*
Y597933D01*
Y598147D01*
Y598360D01*
Y598573D01*
Y598787D01*
Y599000D01*
Y599213D01*
Y599427D01*
Y599640D01*
Y599854D01*
Y600067D01*
Y600280D01*
Y600494D01*
Y600707D01*
Y600920D01*
Y601134D01*
Y601347D01*
Y601561D01*
Y601774D01*
Y601987D01*
Y602201D01*
Y602414D01*
Y602627D01*
Y602841D01*
Y603054D01*
Y603268D01*
Y603481D01*
Y603694D01*
Y603908D01*
Y604121D01*
Y604334D01*
Y604548D01*
X98045D01*
Y604334D01*
Y604121D01*
Y603908D01*
Y603694D01*
Y603481D01*
Y603268D01*
Y603054D01*
Y602841D01*
Y602627D01*
Y602414D01*
Y602201D01*
Y601987D01*
Y601774D01*
Y601561D01*
Y601347D01*
Y601134D01*
Y600920D01*
Y600707D01*
Y600494D01*
Y600280D01*
Y600067D01*
Y599854D01*
Y599640D01*
Y599427D01*
Y599213D01*
Y599000D01*
Y598787D01*
Y598573D01*
Y598360D01*
Y598147D01*
Y597933D01*
Y597720D01*
X98258D01*
Y597506D01*
Y597293D01*
Y597080D01*
X98471D01*
Y596866D01*
X98685D01*
Y596653D01*
X98898D01*
Y596440D01*
X99325D01*
Y596226D01*
X100605D01*
Y596013D01*
X101672D01*
Y596226D01*
X102952D01*
Y596440D01*
X103592D01*
Y596653D01*
X103806D01*
Y596866D01*
X104019D01*
Y597080D01*
Y597293D01*
X104233D01*
Y597506D01*
Y597720D01*
Y597933D01*
Y598147D01*
Y598360D01*
Y598573D01*
Y598787D01*
Y599000D01*
Y599213D01*
Y599427D01*
Y599640D01*
Y599854D01*
Y600067D01*
Y600280D01*
Y600494D01*
Y600707D01*
Y600920D01*
Y601134D01*
Y601347D01*
Y601561D01*
Y601774D01*
Y601987D01*
Y602201D01*
Y602414D01*
Y602627D01*
Y602841D01*
Y603054D01*
Y603268D01*
Y603481D01*
Y603694D01*
Y603908D01*
Y604121D01*
Y604334D01*
Y604548D01*
X106793D01*
Y604334D01*
D02*
G37*
G36*
X88016D02*
Y604121D01*
Y603908D01*
Y603694D01*
Y603481D01*
Y603268D01*
Y603054D01*
Y602841D01*
Y602627D01*
Y602414D01*
Y602201D01*
Y601987D01*
Y601774D01*
Y601561D01*
Y601347D01*
Y601134D01*
Y600920D01*
Y600707D01*
Y600494D01*
Y600280D01*
Y600067D01*
Y599854D01*
Y599640D01*
Y599427D01*
Y599213D01*
Y599000D01*
Y598787D01*
Y598573D01*
Y598360D01*
Y598147D01*
Y597933D01*
Y597720D01*
Y597506D01*
Y597293D01*
Y597080D01*
Y596866D01*
Y596653D01*
Y596440D01*
Y596226D01*
Y596013D01*
Y595799D01*
Y595586D01*
Y595373D01*
Y595159D01*
Y594946D01*
Y594733D01*
Y594519D01*
Y594306D01*
Y594092D01*
Y593879D01*
Y593666D01*
X85455D01*
Y593879D01*
Y594092D01*
Y594306D01*
Y594519D01*
Y594733D01*
Y594946D01*
Y595159D01*
Y595373D01*
Y595586D01*
Y595799D01*
Y596013D01*
Y596226D01*
Y596440D01*
Y596653D01*
Y596866D01*
Y597080D01*
Y597293D01*
Y597506D01*
Y597720D01*
Y597933D01*
Y598147D01*
Y598360D01*
Y598573D01*
Y598787D01*
Y599000D01*
Y599213D01*
Y599427D01*
Y599640D01*
Y599854D01*
Y600067D01*
Y600280D01*
Y600494D01*
Y600707D01*
Y600920D01*
Y601134D01*
Y601347D01*
Y601561D01*
Y601774D01*
Y601987D01*
Y602201D01*
Y602414D01*
Y602627D01*
Y602841D01*
Y603054D01*
Y603268D01*
Y603481D01*
Y603694D01*
Y603908D01*
Y604121D01*
Y604334D01*
Y604548D01*
X88016D01*
Y604334D01*
D02*
G37*
G36*
X78627D02*
Y604121D01*
Y603908D01*
Y603694D01*
Y603481D01*
Y603268D01*
Y603054D01*
Y602841D01*
Y602627D01*
Y602414D01*
Y602201D01*
Y601987D01*
X75000D01*
Y601774D01*
Y601561D01*
Y601347D01*
Y601134D01*
Y600920D01*
Y600707D01*
Y600494D01*
Y600280D01*
Y600067D01*
Y599854D01*
Y599640D01*
Y599427D01*
Y599213D01*
Y599000D01*
Y598787D01*
Y598573D01*
Y598360D01*
Y598147D01*
Y597933D01*
Y597720D01*
Y597506D01*
Y597293D01*
Y597080D01*
Y596866D01*
Y596653D01*
Y596440D01*
Y596226D01*
Y596013D01*
Y595799D01*
Y595586D01*
Y595373D01*
Y595159D01*
Y594946D01*
Y594733D01*
Y594519D01*
Y594306D01*
Y594092D01*
Y593879D01*
Y593666D01*
X72439D01*
Y593879D01*
Y594092D01*
Y594306D01*
Y594519D01*
Y594733D01*
Y594946D01*
Y595159D01*
Y595373D01*
Y595586D01*
Y595799D01*
Y596013D01*
Y596226D01*
Y596440D01*
Y596653D01*
Y596866D01*
Y597080D01*
Y597293D01*
Y597506D01*
Y597720D01*
Y597933D01*
Y598147D01*
Y598360D01*
Y598573D01*
Y598787D01*
Y599000D01*
Y599213D01*
Y599427D01*
Y599640D01*
Y599854D01*
Y600067D01*
Y600280D01*
Y600494D01*
Y600707D01*
Y600920D01*
Y601134D01*
Y601347D01*
Y601561D01*
Y601774D01*
Y601987D01*
X68812D01*
Y602201D01*
Y602414D01*
Y602627D01*
Y602841D01*
Y603054D01*
Y603268D01*
Y603481D01*
Y603694D01*
Y603908D01*
Y604121D01*
Y604334D01*
Y604548D01*
X78627D01*
Y604334D01*
D02*
G37*
G36*
X57930Y604548D02*
X58143D01*
Y604334D01*
X58357D01*
Y604121D01*
X58570D01*
Y603908D01*
X58783D01*
Y603694D01*
Y603481D01*
X58997D01*
Y603268D01*
Y603054D01*
X59210D01*
Y602841D01*
Y602627D01*
X59423D01*
Y602414D01*
X59637D01*
Y602201D01*
Y601987D01*
X59850D01*
Y601774D01*
Y601561D01*
X60064D01*
Y601347D01*
Y601134D01*
X60277D01*
Y600920D01*
X60490D01*
Y600707D01*
Y600494D01*
X60704D01*
Y600280D01*
Y600067D01*
X60917D01*
Y599854D01*
Y599640D01*
X61130D01*
Y599427D01*
X61344D01*
Y599213D01*
Y599000D01*
X61557D01*
Y598787D01*
Y598573D01*
X61771D01*
Y598360D01*
X61984D01*
Y598147D01*
Y597933D01*
X62197D01*
Y597720D01*
Y597506D01*
X62411D01*
Y597293D01*
Y597080D01*
X62624D01*
Y596866D01*
X62838D01*
Y596653D01*
Y596440D01*
X63051D01*
Y596226D01*
Y596013D01*
X63264D01*
Y595799D01*
Y595586D01*
X63478D01*
Y595373D01*
X63691D01*
Y595159D01*
Y594946D01*
X63904D01*
Y594733D01*
Y594519D01*
X64118D01*
Y594306D01*
Y594092D01*
X64331D01*
Y593879D01*
Y593666D01*
X61344D01*
Y593879D01*
Y594092D01*
X61130D01*
Y594306D01*
Y594519D01*
X60917D01*
Y594733D01*
Y594946D01*
X60704D01*
Y595159D01*
X60490D01*
Y595373D01*
Y595586D01*
X60277D01*
Y595799D01*
Y596013D01*
X60064D01*
Y596226D01*
X56223D01*
Y596440D01*
Y596653D01*
X56436D01*
Y596866D01*
Y597080D01*
X56650D01*
Y597293D01*
Y597506D01*
X56863D01*
Y597720D01*
Y597933D01*
X57076D01*
Y598147D01*
X57290D01*
Y598360D01*
X57503D01*
Y598573D01*
X58570D01*
Y598787D01*
Y599000D01*
X58357D01*
Y599213D01*
Y599427D01*
X58143D01*
Y599640D01*
Y599854D01*
X57930D01*
Y600067D01*
X57716D01*
Y600280D01*
Y600494D01*
X57503D01*
Y600707D01*
Y600920D01*
X57290D01*
Y600707D01*
X57076D01*
Y600494D01*
Y600280D01*
X56863D01*
Y600067D01*
Y599854D01*
X56650D01*
Y599640D01*
Y599427D01*
X56436D01*
Y599213D01*
X56223D01*
Y599000D01*
Y598787D01*
X56009D01*
Y598573D01*
Y598360D01*
X55796D01*
Y598147D01*
Y597933D01*
X55583D01*
Y597720D01*
X55369D01*
Y597506D01*
Y597293D01*
X55156D01*
Y597080D01*
Y596866D01*
X54943D01*
Y596653D01*
Y596440D01*
X54729D01*
Y596226D01*
Y596013D01*
X54516D01*
Y595799D01*
X54303D01*
Y595586D01*
Y595373D01*
X54089D01*
Y595159D01*
Y594946D01*
X53876D01*
Y594733D01*
Y594519D01*
X53662D01*
Y594306D01*
X53449D01*
Y594092D01*
Y593879D01*
X53236D01*
Y593666D01*
X50462D01*
Y593879D01*
Y594092D01*
X50675D01*
Y594306D01*
Y594519D01*
X50889D01*
Y594733D01*
Y594946D01*
X51102D01*
Y595159D01*
X51315D01*
Y595373D01*
Y595586D01*
X51529D01*
Y595799D01*
Y596013D01*
X51742D01*
Y596226D01*
X51955D01*
Y596440D01*
Y596653D01*
X52169D01*
Y596866D01*
Y597080D01*
X52382D01*
Y597293D01*
Y597506D01*
X52596D01*
Y597720D01*
X52809D01*
Y597933D01*
Y598147D01*
X53022D01*
Y598360D01*
Y598573D01*
X53236D01*
Y598787D01*
Y599000D01*
X53449D01*
Y599213D01*
X53662D01*
Y599427D01*
Y599640D01*
X53876D01*
Y599854D01*
Y600067D01*
X54089D01*
Y600280D01*
Y600494D01*
X54303D01*
Y600707D01*
X54516D01*
Y600920D01*
Y601134D01*
X54729D01*
Y601347D01*
Y601561D01*
X54943D01*
Y601774D01*
Y601987D01*
X55156D01*
Y602201D01*
X55369D01*
Y602414D01*
Y602627D01*
X55583D01*
Y602841D01*
Y603054D01*
X55796D01*
Y603268D01*
Y603481D01*
X56009D01*
Y603694D01*
X56223D01*
Y603908D01*
Y604121D01*
X56436D01*
Y604334D01*
X56650D01*
Y604548D01*
X57076D01*
Y604761D01*
X57930D01*
Y604548D01*
D02*
G37*
G36*
X37659Y604334D02*
Y604121D01*
Y603908D01*
Y603694D01*
Y603481D01*
Y603268D01*
Y603054D01*
Y602841D01*
Y602627D01*
Y602414D01*
Y602201D01*
Y601987D01*
Y601774D01*
Y601561D01*
Y601347D01*
Y601134D01*
Y600920D01*
Y600707D01*
Y600494D01*
Y600280D01*
Y600067D01*
Y599854D01*
Y599640D01*
Y599427D01*
Y599213D01*
Y599000D01*
Y598787D01*
Y598573D01*
Y598360D01*
Y598147D01*
Y597933D01*
Y597720D01*
Y597506D01*
Y597293D01*
Y597080D01*
Y596866D01*
Y596653D01*
Y596440D01*
Y596226D01*
X44060D01*
Y596013D01*
Y595799D01*
Y595586D01*
Y595373D01*
Y595159D01*
Y594946D01*
Y594733D01*
Y594519D01*
Y594306D01*
Y594092D01*
Y593879D01*
Y593666D01*
X35099D01*
Y593879D01*
Y594092D01*
Y594306D01*
Y594519D01*
Y594733D01*
Y594946D01*
Y595159D01*
Y595373D01*
Y595586D01*
Y595799D01*
Y596013D01*
Y596226D01*
Y596440D01*
Y596653D01*
Y596866D01*
Y597080D01*
Y597293D01*
Y597506D01*
Y597720D01*
Y597933D01*
Y598147D01*
Y598360D01*
Y598573D01*
Y598787D01*
Y599000D01*
Y599213D01*
Y599427D01*
Y599640D01*
Y599854D01*
Y600067D01*
Y600280D01*
Y600494D01*
Y600707D01*
Y600920D01*
Y601134D01*
Y601347D01*
Y601561D01*
Y601774D01*
Y601987D01*
Y602201D01*
Y602414D01*
Y602627D01*
Y602841D01*
Y603054D01*
Y603268D01*
Y603481D01*
Y603694D01*
Y603908D01*
Y604121D01*
Y604334D01*
Y604548D01*
X37659D01*
Y604334D01*
D02*
G37*
%LPC*%
G36*
X80772Y652037D02*
X78345D01*
Y651632D01*
X77131D01*
Y651228D01*
X76322D01*
Y650823D01*
X75108D01*
Y650419D01*
X74299D01*
Y650014D01*
X73490D01*
Y649610D01*
X72277D01*
Y649205D01*
X71467D01*
Y648800D01*
X70658D01*
Y648396D01*
X69445D01*
Y647991D01*
X68636D01*
Y647587D01*
X67826D01*
Y647182D01*
X66613D01*
Y646778D01*
X65804D01*
Y646373D01*
X64995D01*
Y645968D01*
X63781D01*
Y645564D01*
X62972D01*
Y645159D01*
X62163D01*
Y644755D01*
X60949D01*
Y644350D01*
X60140D01*
Y643946D01*
X59331D01*
Y643541D01*
Y643137D01*
X58926D01*
Y642732D01*
Y642327D01*
Y641923D01*
X59331D01*
Y641518D01*
Y641114D01*
Y640709D01*
Y640305D01*
X59735D01*
Y639900D01*
Y639496D01*
Y639091D01*
Y638686D01*
X60140D01*
Y638282D01*
Y637877D01*
Y637473D01*
X60545D01*
Y637068D01*
Y636664D01*
Y636259D01*
Y635855D01*
X60949D01*
Y635450D01*
Y635046D01*
Y634641D01*
Y634236D01*
X61354D01*
Y633832D01*
Y633427D01*
Y633023D01*
Y632618D01*
X61758D01*
Y632214D01*
Y631809D01*
Y631404D01*
Y631000D01*
X62163D01*
Y630595D01*
Y630191D01*
Y629786D01*
Y629382D01*
X62567D01*
Y628977D01*
Y628573D01*
Y628168D01*
X62972D01*
Y627764D01*
Y627359D01*
Y626954D01*
Y626550D01*
X63376D01*
Y626145D01*
Y625741D01*
X63781D01*
Y625336D01*
Y624932D01*
X64186D01*
Y624527D01*
X64590D01*
Y624123D01*
X65399D01*
Y623718D01*
X66613D01*
Y623313D01*
X67826D01*
Y622909D01*
X68636D01*
Y622504D01*
X69849D01*
Y622100D01*
X70658D01*
Y621695D01*
X71872D01*
Y621291D01*
X73086D01*
Y620886D01*
X73895D01*
Y620481D01*
X75108D01*
Y620077D01*
X75918D01*
Y619672D01*
X77131D01*
Y619268D01*
X81581D01*
Y619672D01*
X82795D01*
Y620077D01*
X84009D01*
Y620481D01*
X84818D01*
Y620886D01*
X86032D01*
Y621291D01*
X86841D01*
Y621695D01*
X88054D01*
Y622100D01*
X89268D01*
Y622504D01*
X90077D01*
Y622909D01*
X91291D01*
Y623313D01*
X92100D01*
Y623718D01*
X93314D01*
Y624123D01*
X94123D01*
Y624527D01*
X94527D01*
Y624932D01*
X94932D01*
Y625336D01*
X95336D01*
Y625741D01*
Y626145D01*
X95741D01*
Y626550D01*
Y626954D01*
Y627359D01*
X96145D01*
Y627764D01*
Y628168D01*
Y628573D01*
Y628977D01*
X96550D01*
Y629382D01*
Y629786D01*
Y630191D01*
Y630595D01*
X96954D01*
Y631000D01*
Y631404D01*
Y631809D01*
Y632214D01*
X97359D01*
Y632618D01*
Y633023D01*
Y633427D01*
Y633832D01*
X97764D01*
Y634236D01*
Y634641D01*
Y635046D01*
X98168D01*
Y635450D01*
Y635855D01*
Y636259D01*
Y636664D01*
X98573D01*
Y637068D01*
Y637473D01*
Y637877D01*
Y638282D01*
X98977D01*
Y638686D01*
Y639091D01*
Y639496D01*
Y639900D01*
X99382D01*
Y640305D01*
Y640709D01*
Y641114D01*
Y641518D01*
X99786D01*
Y641923D01*
Y642327D01*
Y642732D01*
Y643137D01*
Y643541D01*
X99382D01*
Y643946D01*
X98573D01*
Y644350D01*
X97764D01*
Y644755D01*
X96954D01*
Y645159D01*
X96145D01*
Y645564D01*
X94932D01*
Y645968D01*
X94123D01*
Y646373D01*
X92909D01*
Y646778D01*
X92100D01*
Y647182D01*
X91291D01*
Y647587D01*
X90482D01*
Y647991D01*
X89268D01*
Y648396D01*
X88459D01*
Y648800D01*
X87245D01*
Y649205D01*
X86436D01*
Y649610D01*
X85627D01*
Y650014D01*
X84818D01*
Y650419D01*
X83604D01*
Y650823D01*
X82795D01*
Y651228D01*
X81581D01*
Y651632D01*
X80772D01*
Y652037D01*
D02*
G37*
%LPD*%
D10*
X133180Y107000D02*
G03*
X133180Y107000I-1000J0D01*
G01*
X146846Y242984D02*
G03*
X146846Y242984I-500J0D01*
G01*
X132000Y174000D02*
G03*
X132000Y172000I0J-1000D01*
G01*
D02*
G03*
X132000Y174000I0J1000D01*
G01*
X88479Y143905D02*
Y149906D01*
X187933Y82481D02*
X229974D01*
X187933Y46440D02*
X229974D01*
X198400Y132800D02*
X236100D01*
X214772D02*
X236100D01*
Y213200D01*
X198400D02*
X236100D01*
X91250Y52000D02*
X98750D01*
X79000Y19250D02*
Y42750D01*
X91250Y10000D02*
X98750D01*
X111000Y19250D02*
Y42750D01*
X104000Y183620D02*
X110000D01*
Y154380D02*
Y183620D01*
X104000Y154380D02*
X110000D01*
X104000D02*
Y183620D01*
X88500Y185000D02*
X100500D01*
X72250Y196000D02*
Y210750D01*
X22000Y192500D02*
X72000D01*
X22000Y155500D02*
Y192500D01*
Y155500D02*
X72000D01*
Y192500D01*
X187979Y92979D02*
X230021D01*
X187979Y129021D02*
X230021D01*
X157000Y19250D02*
Y42750D01*
X137250Y10000D02*
X144750D01*
X125000Y19250D02*
Y42750D01*
X137250Y52000D02*
X144750D01*
D11*
X130692Y270914D02*
G03*
X131692Y270914I500J0D01*
G01*
D02*
G03*
X130692Y270914I-500J0D01*
G01*
X167000Y556000D02*
Y564000D01*
X151000D02*
X167000D01*
X151000Y556000D02*
Y564000D01*
Y556000D02*
X167000D01*
X158000Y538000D02*
Y546000D01*
X142000D02*
X158000D01*
X142000Y538000D02*
Y546000D01*
Y538000D02*
X158000D01*
X48000Y460000D02*
Y468000D01*
Y460000D02*
X64000D01*
Y468000D01*
X48000D02*
X64000D01*
X111000Y557000D02*
X119000D01*
X111000Y541000D02*
Y557000D01*
Y541000D02*
X119000D01*
Y557000D01*
X147000Y161000D02*
X151000D01*
X147000Y177000D02*
X151000D01*
D12*
X11520Y284678D02*
G03*
X11532Y284428I-2528J-250D01*
G01*
D13*
X75250Y409000D02*
G03*
X75250Y409000I-1500J0D01*
G01*
D14*
X166650Y160000D02*
G03*
X166650Y160000I-1250J0D01*
G01*
X107000Y61000D02*
G03*
X107000Y61000I-1250J0D01*
G01*
X153000D02*
G03*
X153000Y61000I-1250J0D01*
G01*
D15*
X93950Y135750D02*
Y139000D01*
X120950D01*
Y135750D02*
Y139000D01*
X93950Y99000D02*
Y102250D01*
Y99000D02*
X120950D01*
Y102250D01*
X149346Y239134D02*
X175346D01*
X149346Y266834D02*
X175346D01*
X26380Y490760D02*
Y521240D01*
X41620D01*
Y490760D02*
Y521240D01*
X26380Y490760D02*
X41620D01*
X190886Y567114D02*
X232034D01*
Y564828D02*
Y567114D01*
X190886Y521140D02*
Y567114D01*
Y521140D02*
X232034D01*
Y564828D01*
X37000Y69800D02*
X39000D01*
X37000Y84200D02*
X39000D01*
D16*
X79664Y276910D02*
X89810D01*
X17674D02*
X27820D01*
X89810D02*
Y310946D01*
X17674D02*
X89810D01*
X17674Y276910D02*
Y310946D01*
X33746Y476018D02*
Y488718D01*
X27396Y478558D02*
X40096D01*
X27396Y486178D02*
X33746Y478558D01*
X28666Y486178D02*
X33746Y478558D01*
X29936Y486178D02*
X33746Y478558D01*
X31206Y486178D02*
X33746Y478558D01*
X32476Y486178D02*
X33746Y478558D01*
X40096Y486178D01*
X33746Y478558D02*
X38826Y486178D01*
X33746Y478558D02*
X37556Y486178D01*
X33746Y478558D02*
X36286Y486178D01*
X33746Y478558D02*
X35016Y486178D01*
X27396D02*
X40096D01*
X185766Y18865D02*
Y24652D01*
X168240Y18865D02*
Y24652D01*
X131814Y144890D02*
X127582D01*
Y141716D01*
X129698D01*
X127582D01*
Y138542D01*
X133930Y144890D02*
Y138542D01*
X138162D01*
X144510Y144890D02*
X142394Y143832D01*
X140278Y141716D01*
Y139600D01*
X141336Y138542D01*
X143452D01*
X144510Y139600D01*
Y140658D01*
X143452Y141716D01*
X140278D01*
X102354Y148653D02*
Y143363D01*
X103412Y142305D01*
X105528D01*
X106586Y143363D01*
Y148653D01*
X108702Y147595D02*
X109760Y148653D01*
X111876D01*
X112934Y147595D01*
Y146537D01*
X111876Y145479D01*
X110818D01*
X111876D01*
X112934Y144421D01*
Y143363D01*
X111876Y142305D01*
X109760D01*
X108702Y143363D01*
X102208Y306946D02*
X97976D01*
Y303772D01*
X100092D01*
X97976D01*
Y300598D01*
X104324Y306946D02*
Y300598D01*
X108556D01*
X110672Y305888D02*
X111730Y306946D01*
X113846D01*
X114904Y305888D01*
Y304830D01*
X113846Y303772D01*
X114904Y302714D01*
Y301656D01*
X113846Y300598D01*
X111730D01*
X110672Y301656D01*
Y302714D01*
X111730Y303772D01*
X110672Y304830D01*
Y305888D01*
X111730Y303772D02*
X113846D01*
X126517Y307570D02*
X122285D01*
Y304396D01*
X124401D01*
X122285D01*
Y301222D01*
X128632Y307570D02*
Y301222D01*
X132865D01*
X134980Y307570D02*
X139212D01*
Y306512D01*
X134980Y302280D01*
Y301222D01*
X109211Y257615D02*
Y261847D01*
X111327Y263963D01*
X113443Y261847D01*
Y257615D01*
Y260789D01*
X109211D01*
X119791Y262905D02*
X118733Y263963D01*
X116617D01*
X115559Y262905D01*
Y258673D01*
X116617Y257615D01*
X118733D01*
X119791Y258673D01*
X121907Y257615D02*
X124023D01*
X122965D01*
Y263963D01*
X121907Y262905D01*
X54042Y307223D02*
Y301933D01*
X55100Y300875D01*
X57216D01*
X58274Y301933D01*
Y307223D01*
X64622Y300875D02*
X60389D01*
X64622Y305107D01*
Y306165D01*
X63563Y307223D01*
X61448D01*
X60389Y306165D01*
X142232Y643290D02*
X141174Y644348D01*
X139058D01*
X138000Y643290D01*
Y639058D01*
X139058Y638000D01*
X141174D01*
X142232Y639058D01*
X145406Y638000D02*
X147522D01*
X148580Y639058D01*
Y641174D01*
X147522Y642232D01*
X145406D01*
X144348Y641174D01*
Y639058D01*
X145406Y638000D01*
X150696Y635884D02*
Y642232D01*
X153870D01*
X154928Y641174D01*
Y639058D01*
X153870Y638000D01*
X150696D01*
X157044Y642232D02*
Y639058D01*
X158102Y638000D01*
X161276D01*
Y636942D01*
X160218Y635884D01*
X159160D01*
X161276Y638000D02*
Y642232D01*
X163392D02*
Y638000D01*
Y640116D01*
X164450Y641174D01*
X165508Y642232D01*
X166566D01*
X169740Y638000D02*
X171856D01*
X170798D01*
Y642232D01*
X169740D01*
X177146Y635884D02*
X178204D01*
X179262Y636942D01*
Y642232D01*
X176088D01*
X175030Y641174D01*
Y639058D01*
X176088Y638000D01*
X179262D01*
X181378Y644348D02*
Y638000D01*
Y641174D01*
X182436Y642232D01*
X184552D01*
X185610Y641174D01*
Y638000D01*
X188783Y643290D02*
Y642232D01*
X187726D01*
X189841D01*
X188783D01*
Y639058D01*
X189841Y638000D01*
X203595D02*
X199363D01*
X203595Y642232D01*
Y643290D01*
X202537Y644348D01*
X200421D01*
X199363Y643290D01*
X205711D02*
X206769Y644348D01*
X208885D01*
X209943Y643290D01*
Y639058D01*
X208885Y638000D01*
X206769D01*
X205711Y639058D01*
Y643290D01*
X216291Y638000D02*
X212059D01*
X216291Y642232D01*
Y643290D01*
X215233Y644348D01*
X213117D01*
X212059Y643290D01*
X218407Y638000D02*
X220523D01*
X219465D01*
Y644348D01*
X218407Y643290D01*
X169461Y229312D02*
X167345D01*
X168403D01*
Y235660D01*
X169461D01*
X167345D01*
X159939Y230370D02*
X160997Y229312D01*
X163113D01*
X164171Y230370D01*
Y234602D01*
X163113Y235660D01*
X160997D01*
X159939Y234602D01*
X157823Y235660D02*
X155708D01*
X156765D01*
Y229312D01*
X157823Y230370D01*
X204841Y67426D02*
X203783Y68484D01*
X201667D01*
X200609Y67426D01*
Y63194D01*
X201667Y62136D01*
X203783D01*
X204841Y63194D01*
X206957Y62136D02*
X209073D01*
X208015D01*
Y68484D01*
X206957Y67426D01*
X216479Y68484D02*
X214363Y67426D01*
X212247Y65310D01*
Y63194D01*
X213305Y62136D01*
X215421D01*
X216479Y63194D01*
Y64252D01*
X215421Y65310D01*
X212247D01*
X76556Y110867D02*
Y117215D01*
X79730D01*
X80788Y116157D01*
Y114041D01*
X79730Y112983D01*
X76556D01*
X78672D02*
X80788Y110867D01*
X87136D02*
X82904D01*
X87136Y115099D01*
Y116157D01*
X86078Y117215D01*
X83962D01*
X82904Y116157D01*
X173768Y550174D02*
X169536D01*
Y547000D01*
X171652D01*
X169536D01*
Y543826D01*
X175884Y550174D02*
Y543826D01*
X180116D01*
X185406D02*
Y550174D01*
X182232Y547000D01*
X186464D01*
X138297Y566814D02*
X137239Y567872D01*
X135123D01*
X134065Y566814D01*
Y562582D01*
X135123Y561524D01*
X137239D01*
X138297Y562582D01*
X140413Y561524D02*
X142529D01*
X141471D01*
Y567872D01*
X140413Y566814D01*
X149935Y567872D02*
X145703D01*
Y564698D01*
X147819Y565756D01*
X148877D01*
X149935Y564698D01*
Y562582D01*
X148877Y561524D01*
X146761D01*
X145703Y562582D01*
X127297Y543116D02*
X126239Y544174D01*
X124123D01*
X123065Y543116D01*
Y538884D01*
X124123Y537826D01*
X126239D01*
X127297Y538884D01*
X129413Y537826D02*
X131529D01*
X130471D01*
Y544174D01*
X129413Y543116D01*
X137877Y537826D02*
Y544174D01*
X134703Y541000D01*
X138935D01*
X59455Y60943D02*
Y67291D01*
X62629D01*
X63687Y66233D01*
Y64117D01*
X62629Y63059D01*
X59455D01*
X61571D02*
X63687Y60943D01*
X70035Y67291D02*
X67919D01*
X68977D01*
Y62001D01*
X67919Y60943D01*
X66861D01*
X65803Y62001D01*
X72151Y60943D02*
X74267D01*
X73209D01*
Y67291D01*
X72151Y66233D01*
X74836Y567872D02*
X70604D01*
Y564698D01*
X72720D01*
X70604D01*
Y561524D01*
X76952Y567872D02*
Y561524D01*
X81184D01*
X83300Y566814D02*
X84358Y567872D01*
X86474D01*
X87532Y566814D01*
Y565756D01*
X86474Y564698D01*
X85416D01*
X86474D01*
X87532Y563640D01*
Y562582D01*
X86474Y561524D01*
X84358D01*
X83300Y562582D01*
X205756Y237872D02*
X201524D01*
Y234698D01*
X203640D01*
X201524D01*
Y231524D01*
X207872Y237872D02*
Y231524D01*
X212104D01*
X218452Y237872D02*
X214220D01*
Y234698D01*
X216336Y235756D01*
X217394D01*
X218452Y234698D01*
Y232582D01*
X217394Y231524D01*
X215278D01*
X214220Y232582D01*
X34179Y361067D02*
X29947D01*
Y357893D01*
X32063D01*
X29947D01*
Y354719D01*
X36295Y361067D02*
Y354719D01*
X40527D01*
X46875D02*
X42643D01*
X46875Y358951D01*
Y360009D01*
X45817Y361067D01*
X43701D01*
X42643Y360009D01*
X32507Y361822D02*
X28275D01*
Y358648D01*
X30391D01*
X28275D01*
Y355474D01*
X34623Y361822D02*
Y355474D01*
X38855D01*
X40971D02*
X43087D01*
X42029D01*
Y361822D01*
X40971Y360764D01*
X82026Y165072D02*
X80968Y166130D01*
X78852D01*
X77794Y165072D01*
Y160840D01*
X78852Y159782D01*
X80968D01*
X82026Y160840D01*
X87316Y159782D02*
Y166130D01*
X84142Y162956D01*
X88374D01*
X147854Y138877D02*
Y145225D01*
X151028D01*
X152086Y144167D01*
Y142051D01*
X151028Y140993D01*
X147854D01*
X149970D02*
X152086Y138877D01*
X154202Y144167D02*
X155260Y145225D01*
X157376D01*
X158434Y144167D01*
Y143109D01*
X157376Y142051D01*
X156318D01*
X157376D01*
X158434Y140993D01*
Y139935D01*
X157376Y138877D01*
X155260D01*
X154202Y139935D01*
X195716Y27423D02*
X191484D01*
Y24249D01*
X193600D01*
X191484D01*
Y21075D01*
X197832D02*
X199948D01*
X198890D01*
Y27423D01*
X197832Y26365D01*
X204756Y114814D02*
X203698Y115872D01*
X201582D01*
X200524Y114814D01*
Y110582D01*
X201582Y109524D01*
X203698D01*
X204756Y110582D01*
X206872Y109524D02*
X208988D01*
X207930D01*
Y115872D01*
X206872Y114814D01*
X212162Y115872D02*
X216394D01*
Y114814D01*
X212162Y110582D01*
Y109524D01*
X10600Y245763D02*
X9542Y246821D01*
X7426D01*
X6368Y245763D01*
Y241531D01*
X7426Y240473D01*
X9542D01*
X10600Y241531D01*
X16947Y240473D02*
X12716D01*
X16947Y244705D01*
Y245763D01*
X15890Y246821D01*
X13773D01*
X12716Y245763D01*
X23296Y240473D02*
X19064D01*
X23296Y244705D01*
Y245763D01*
X22238Y246821D01*
X20122D01*
X19064Y245763D01*
X30364Y58784D02*
Y65132D01*
X33538D01*
X34596Y64074D01*
Y61958D01*
X33538Y60900D01*
X30364D01*
X32480D02*
X34596Y58784D01*
X36712D02*
X38828D01*
X37770D01*
Y65132D01*
X36712Y64074D01*
X46234Y58784D02*
X42002D01*
X46234Y63016D01*
Y64074D01*
X45176Y65132D01*
X43060D01*
X42002Y64074D01*
X51556Y240162D02*
Y246510D01*
X54730D01*
X55788Y245452D01*
Y243336D01*
X54730Y242278D01*
X51556D01*
X53672D02*
X55788Y240162D01*
X57904Y245452D02*
X58962Y246510D01*
X61078D01*
X62136Y245452D01*
Y244394D01*
X61078Y243336D01*
X62136Y242278D01*
Y241220D01*
X61078Y240162D01*
X58962D01*
X57904Y241220D01*
Y242278D01*
X58962Y243336D01*
X57904Y244394D01*
Y245452D01*
X58962Y243336D02*
X61078D01*
X9172Y94312D02*
Y100660D01*
X12346D01*
X13404Y99602D01*
Y97486D01*
X12346Y96428D01*
X9172D01*
X11288D02*
X13404Y94312D01*
X15520D02*
X17636D01*
X16578D01*
Y100660D01*
X15520Y99602D01*
X20810D02*
X21868Y100660D01*
X23984D01*
X25042Y99602D01*
Y98544D01*
X23984Y97486D01*
X22926D01*
X23984D01*
X25042Y96428D01*
Y95370D01*
X23984Y94312D01*
X21868D01*
X20810Y95370D01*
X47816Y93689D02*
Y100037D01*
X50990D01*
X52048Y98979D01*
Y96863D01*
X50990Y95805D01*
X47816D01*
X49932D02*
X52048Y93689D01*
X54164D02*
X56280D01*
X55222D01*
Y100037D01*
X54164Y98979D01*
X59454Y93689D02*
X61570D01*
X60512D01*
Y100037D01*
X59454Y98979D01*
X40648Y256056D02*
Y262404D01*
X43822D01*
X44880Y261346D01*
Y259230D01*
X43822Y258172D01*
X40648D01*
X42765D02*
X44880Y256056D01*
X46996D02*
X49112D01*
X48054D01*
Y262404D01*
X46996Y261346D01*
X52286D02*
X53344Y262404D01*
X55460D01*
X56518Y261346D01*
Y257114D01*
X55460Y256056D01*
X53344D01*
X52286Y257114D01*
Y261346D01*
X28183Y240473D02*
Y246821D01*
X31357D01*
X32415Y245763D01*
Y243647D01*
X31357Y242589D01*
X28183D01*
X30299D02*
X32415Y240473D01*
X34531Y241531D02*
X35589Y240473D01*
X37705D01*
X38763Y241531D01*
Y245763D01*
X37705Y246821D01*
X35589D01*
X34531Y245763D01*
Y244705D01*
X35589Y243647D01*
X38763D01*
X67450Y240473D02*
Y246821D01*
X70624D01*
X71682Y245763D01*
Y243647D01*
X70624Y242589D01*
X67450D01*
X69566D02*
X71682Y240473D01*
X73798Y246821D02*
X78030D01*
Y245763D01*
X73798Y241531D01*
Y240473D01*
X38065Y180174D02*
X40181D01*
X39123D01*
Y173826D01*
X38065D01*
X40181D01*
X47587Y179116D02*
X46529Y180174D01*
X44413D01*
X43355Y179116D01*
Y174884D01*
X44413Y173826D01*
X46529D01*
X47587Y174884D01*
X49703Y179116D02*
X50761Y180174D01*
X52877D01*
X53935Y179116D01*
Y178058D01*
X52877Y177000D01*
X51819D01*
X52877D01*
X53935Y175942D01*
Y174884D01*
X52877Y173826D01*
X50761D01*
X49703Y174884D01*
X6237Y115496D02*
X5179Y116554D01*
X3063D01*
X2005Y115496D01*
Y111264D01*
X3063Y110206D01*
X5179D01*
X6237Y111264D01*
X12585Y110206D02*
X8353D01*
X12585Y114438D01*
Y115496D01*
X11526Y116554D01*
X9410D01*
X8353Y115496D01*
X18932Y116554D02*
X16816Y115496D01*
X14700Y113380D01*
Y111264D01*
X15758Y110206D01*
X17874D01*
X18932Y111264D01*
Y112322D01*
X17874Y113380D01*
X14700D01*
X7795Y209924D02*
X6737Y210982D01*
X4621D01*
X3563Y209924D01*
Y205692D01*
X4621Y204634D01*
X6737D01*
X7795Y205692D01*
X14143Y204634D02*
X9911D01*
X14143Y208866D01*
Y209924D01*
X13085Y210982D01*
X10969D01*
X9911Y209924D01*
X20491Y210982D02*
X16259D01*
Y207808D01*
X18375Y208866D01*
X19433D01*
X20491Y207808D01*
Y205692D01*
X19433Y204634D01*
X17317D01*
X16259Y205692D01*
X53295Y127962D02*
X52237Y129020D01*
X50121D01*
X49063Y127962D01*
Y123730D01*
X50121Y122672D01*
X52237D01*
X53295Y123730D01*
X59643Y122672D02*
X55411D01*
X59643Y126904D01*
Y127962D01*
X58585Y129020D01*
X56469D01*
X55411Y127962D01*
X64933Y122672D02*
Y129020D01*
X61759Y125846D01*
X65991D01*
X59528Y114249D02*
X58470Y115307D01*
X56354D01*
X55296Y114249D01*
Y110017D01*
X56354Y108959D01*
X58470D01*
X59528Y110017D01*
X65876Y108959D02*
X61644D01*
X65876Y113191D01*
Y114249D01*
X64818Y115307D01*
X62702D01*
X61644Y114249D01*
X67992D02*
X69050Y115307D01*
X71166D01*
X72224Y114249D01*
Y113191D01*
X71166Y112133D01*
X70108D01*
X71166D01*
X72224Y111075D01*
Y110017D01*
X71166Y108959D01*
X69050D01*
X67992Y110017D01*
X153168Y231189D02*
X154226Y232247D01*
Y234363D01*
X153168Y235421D01*
X148936D01*
X147878Y234363D01*
Y232247D01*
X148936Y231189D01*
X147878Y224841D02*
Y229073D01*
X152110Y224841D01*
X153168D01*
X154226Y225899D01*
Y228015D01*
X153168Y229073D01*
X161124Y283162D02*
X160067Y284219D01*
X157950D01*
X156892Y283162D01*
Y278930D01*
X157950Y277872D01*
X160067D01*
X161124Y278930D01*
X167472Y277872D02*
X163240D01*
X167472Y282104D01*
Y283162D01*
X166414Y284219D01*
X164298D01*
X163240Y283162D01*
X169588Y277872D02*
X171704D01*
X170646D01*
Y284219D01*
X169588Y283162D01*
X85083Y267891D02*
X84025Y268949D01*
X81909D01*
X80851Y267891D01*
Y263659D01*
X81909Y262601D01*
X84025D01*
X85083Y263659D01*
X91431Y262601D02*
X87199D01*
X91431Y266833D01*
Y267891D01*
X90373Y268949D01*
X88257D01*
X87199Y267891D01*
X93547D02*
X94605Y268949D01*
X96721D01*
X97779Y267891D01*
Y263659D01*
X96721Y262601D01*
X94605D01*
X93547Y263659D01*
Y267891D01*
X85214Y195088D02*
X87330D01*
X86272D01*
Y188740D01*
X85214D01*
X87330D01*
X94736Y194030D02*
X93678Y195088D01*
X91562D01*
X90504Y194030D01*
Y189798D01*
X91562Y188740D01*
X93678D01*
X94736Y189798D01*
X101084Y188740D02*
X96852D01*
X101084Y192972D01*
Y194030D01*
X100026Y195088D01*
X97910D01*
X96852Y194030D01*
X141000Y183000D02*
Y189348D01*
X144174D01*
X145232Y188290D01*
Y186174D01*
X144174Y185116D01*
X141000D01*
X143116D02*
X145232Y183000D01*
X147348D02*
Y189348D01*
X151580Y183000D01*
Y189348D01*
X153696Y183000D02*
X155812D01*
X154754D01*
Y189348D01*
X153696Y188290D01*
X81936Y65556D02*
Y71904D01*
X85110D01*
X86168Y70846D01*
Y68730D01*
X85110Y67672D01*
X81936D01*
X84052D02*
X86168Y65556D01*
X92516Y71904D02*
X88284D01*
Y65556D01*
X92516D01*
X88284Y68730D02*
X90400D01*
X98864Y70846D02*
X97806Y71904D01*
X95690D01*
X94632Y70846D01*
Y69788D01*
X95690Y68730D01*
X97806D01*
X98864Y67672D01*
Y66614D01*
X97806Y65556D01*
X95690D01*
X94632Y66614D01*
X105211Y71904D02*
X100980D01*
Y65556D01*
X105211D01*
X100980Y68730D02*
X103096D01*
X107327Y71904D02*
X111559D01*
X109444D01*
Y65556D01*
X180232Y225348D02*
X178116D01*
X179174D01*
Y220058D01*
X178116Y219000D01*
X177058D01*
X176000Y220058D01*
X182348Y219000D02*
X184464D01*
X183406D01*
Y225348D01*
X182348Y224290D01*
X202232Y516540D02*
X201174Y517598D01*
X199058D01*
X198000Y516540D01*
Y512308D01*
X199058Y511250D01*
X201174D01*
X202232Y512308D01*
X207522Y517598D02*
X205406D01*
X204348Y516540D01*
Y512308D01*
X205406Y511250D01*
X207522D01*
X208580Y512308D01*
Y516540D01*
X207522Y517598D01*
X210696Y511250D02*
Y517598D01*
X214928Y511250D01*
Y517598D01*
X217044Y511250D02*
Y517598D01*
X221276Y511250D01*
Y517598D01*
X223392Y511250D02*
X225508D01*
X224450D01*
Y517598D01*
X223392Y516540D01*
X80710Y15232D02*
X79652Y14174D01*
Y12058D01*
X80710Y11000D01*
X84942D01*
X86000Y12058D01*
Y14174D01*
X84942Y15232D01*
X86000Y17348D02*
Y19464D01*
Y18406D01*
X79652D01*
X80710Y17348D01*
X84942Y22638D02*
X86000Y23696D01*
Y25812D01*
X84942Y26870D01*
X80710D01*
X79652Y25812D01*
Y23696D01*
X80710Y22638D01*
X81768D01*
X82826Y23696D01*
Y26870D01*
X166628Y88422D02*
X165571Y89480D01*
X163454D01*
X162397Y88422D01*
Y84190D01*
X163454Y83132D01*
X165571D01*
X166628Y84190D01*
X168745Y83132D02*
X170861D01*
X169802D01*
Y89480D01*
X168745Y88422D01*
X174034D02*
X175092Y89480D01*
X177208D01*
X178266Y88422D01*
Y87364D01*
X177208Y86306D01*
X178266Y85248D01*
Y84190D01*
X177208Y83132D01*
X175092D01*
X174034Y84190D01*
Y85248D01*
X175092Y86306D01*
X174034Y87364D01*
Y88422D01*
X175092Y86306D02*
X177208D01*
X134889Y378982D02*
X133831Y380040D01*
X131715D01*
X130657Y378982D01*
Y374751D01*
X131715Y373693D01*
X133831D01*
X134889Y374751D01*
X137005Y373693D02*
X139121D01*
X138063D01*
Y380040D01*
X137005Y378982D01*
X142295Y373693D02*
X144411D01*
X143353D01*
Y380040D01*
X142295Y378982D01*
X154847D02*
X153789Y380040D01*
X151673D01*
X150615Y378982D01*
Y374751D01*
X151673Y373693D01*
X153789D01*
X154847Y374751D01*
X156963Y373693D02*
X159079D01*
X158020D01*
Y380040D01*
X156963Y378982D01*
X162253D02*
X163311Y380040D01*
X165427D01*
X166485Y378982D01*
Y374751D01*
X165427Y373693D01*
X163311D01*
X162253Y374751D01*
Y378982D01*
X176920D02*
X175862Y380040D01*
X173746D01*
X172688Y378982D01*
Y374751D01*
X173746Y373693D01*
X175862D01*
X176920Y374751D01*
X179036D02*
X180094Y373693D01*
X182210D01*
X183268Y374751D01*
Y378982D01*
X182210Y380040D01*
X180094D01*
X179036Y378982D01*
Y377924D01*
X180094Y376866D01*
X183268D01*
X131520Y71607D02*
Y65259D01*
X134694D01*
X135752Y66317D01*
Y67375D01*
X134694Y68433D01*
X131520D01*
X134694D01*
X135752Y69491D01*
Y70549D01*
X134694Y71607D01*
X131520D01*
X141042D02*
X138926D01*
X137868Y70549D01*
Y66317D01*
X138926Y65259D01*
X141042D01*
X142100Y66317D01*
Y70549D01*
X141042Y71607D01*
X147390D02*
X145274D01*
X144216Y70549D01*
Y66317D01*
X145274Y65259D01*
X147390D01*
X148448Y66317D01*
Y70549D01*
X147390Y71607D01*
X150564D02*
X154796D01*
X152680D01*
Y65259D01*
X105000Y503348D02*
Y498058D01*
X106058Y497000D01*
X108174D01*
X109232Y498058D01*
Y503348D01*
X111348Y497000D02*
X113464D01*
X112406D01*
Y503348D01*
X111348Y502290D01*
X54564Y561524D02*
Y567872D01*
X57738D01*
X58796Y566814D01*
Y564698D01*
X57738Y563640D01*
X54564D01*
X56680D02*
X58796Y561524D01*
X64086D02*
Y567872D01*
X60912Y564698D01*
X65144D01*
X51524Y448524D02*
Y454872D01*
X54698D01*
X55756Y453814D01*
Y451698D01*
X54698Y450640D01*
X51524D01*
X53640D02*
X55756Y448524D01*
X62104Y454872D02*
X59988Y453814D01*
X57872Y451698D01*
Y449582D01*
X58930Y448524D01*
X61046D01*
X62104Y449582D01*
Y450640D01*
X61046Y451698D01*
X57872D01*
X38524Y561524D02*
Y567872D01*
X41698D01*
X42756Y566814D01*
Y564698D01*
X41698Y563640D01*
X38524D01*
X40640D02*
X42756Y561524D01*
X49104Y567872D02*
X44872D01*
Y564698D01*
X46988Y565756D01*
X48046D01*
X49104Y564698D01*
Y562582D01*
X48046Y561524D01*
X45930D01*
X44872Y562582D01*
X33732Y469127D02*
Y475475D01*
X36906D01*
X37964Y474417D01*
Y472301D01*
X36906Y471243D01*
X33732D01*
X35847D02*
X37964Y469127D01*
X40079D02*
X42195D01*
X41137D01*
Y475475D01*
X40079Y474417D01*
X43704Y507886D02*
Y501538D01*
X46878D01*
X47936Y502596D01*
Y506828D01*
X46878Y507886D01*
X43704D01*
X50052Y501538D02*
X52168D01*
X51110D01*
Y507886D01*
X50052Y506828D01*
X97224Y566814D02*
X96166Y567872D01*
X94050D01*
X92992Y566814D01*
Y562582D01*
X94050Y561524D01*
X96166D01*
X97224Y562582D01*
X99340Y561524D02*
X101456D01*
X100398D01*
Y567872D01*
X99340Y566814D01*
X104630D02*
X105688Y567872D01*
X107804D01*
X108862Y566814D01*
Y565756D01*
X107804Y564698D01*
X106746D01*
X107804D01*
X108862Y563640D01*
Y562582D01*
X107804Y561524D01*
X105688D01*
X104630Y562582D01*
X118554Y566814D02*
X117496Y567872D01*
X115380D01*
X114322Y566814D01*
Y562582D01*
X115380Y561524D01*
X117496D01*
X118554Y562582D01*
X120670Y561524D02*
X122786D01*
X121728D01*
Y567872D01*
X120670Y566814D01*
X130192Y561524D02*
X125960D01*
X130192Y565756D01*
Y566814D01*
X129134Y567872D01*
X127018D01*
X125960Y566814D01*
X67747Y323410D02*
X66689Y324468D01*
X64573D01*
X63515Y323410D01*
Y319178D01*
X64573Y318120D01*
X66689D01*
X67747Y319178D01*
X69863Y318120D02*
X71979D01*
X70921D01*
Y324468D01*
X69863Y323410D01*
X189060Y249443D02*
X190118Y248385D01*
X192234D01*
X193292Y249443D01*
Y253675D01*
X192234Y254733D01*
X190118D01*
X189060Y253675D01*
X186944Y249443D02*
X185886Y248385D01*
X183770D01*
X182712Y249443D01*
Y250501D01*
X183770Y251559D01*
X184828D01*
X183770D01*
X182712Y252617D01*
Y253675D01*
X183770Y254733D01*
X185886D01*
X186944Y253675D01*
X101094Y378237D02*
X100036Y379295D01*
X97920D01*
X96862Y378237D01*
Y374005D01*
X97920Y372947D01*
X100036D01*
X101094Y374005D01*
X103210Y379295D02*
X107442D01*
Y378237D01*
X103210Y374005D01*
Y372947D01*
X118116Y378425D02*
X117058Y379483D01*
X114942D01*
X113884Y378425D01*
Y374193D01*
X114942Y373135D01*
X117058D01*
X118116Y374193D01*
X120232Y378425D02*
X121290Y379483D01*
X123406D01*
X124464Y378425D01*
Y377367D01*
X123406Y376309D01*
X124464Y375251D01*
Y374193D01*
X123406Y373135D01*
X121290D01*
X120232Y374193D01*
Y375251D01*
X121290Y376309D01*
X120232Y377367D01*
Y378425D01*
X121290Y376309D02*
X123406D01*
X84539Y376814D02*
X83481Y377872D01*
X81365D01*
X80307Y376814D01*
Y372582D01*
X81365Y371524D01*
X83481D01*
X84539Y372582D01*
X90887Y377872D02*
X88771Y376814D01*
X86655Y374698D01*
Y372582D01*
X87713Y371524D01*
X89829D01*
X90887Y372582D01*
Y373640D01*
X89829Y374698D01*
X86655D01*
X67756Y376814D02*
X66698Y377872D01*
X64582D01*
X63524Y376814D01*
Y372582D01*
X64582Y371524D01*
X66698D01*
X67756Y372582D01*
X74104Y377872D02*
X69872D01*
Y374698D01*
X71988Y375756D01*
X73046D01*
X74104Y374698D01*
Y372582D01*
X73046Y371524D01*
X70930D01*
X69872Y372582D01*
D17*
X29839Y229260D02*
X33839D01*
X74000Y551000D02*
X78000D01*
X61000D02*
X65000D01*
X39000Y482000D02*
Y486000D01*
X30000Y98500D02*
X34000D01*
X39500Y98250D02*
X43500D01*
X145000Y391169D02*
X149000D01*
X102771Y390423D02*
X106771D01*
X69000Y389000D02*
X73000D01*
X11000Y196000D02*
X15000D01*
X169579Y94402D02*
Y98402D01*
X100106Y550390D02*
X104106D01*
X135000Y391169D02*
X139000D01*
X51191Y319074D02*
Y323074D01*
X28000Y112000D02*
Y116000D01*
X37000Y124000D02*
Y128000D01*
X46000Y112000D02*
Y116000D01*
X20000Y229000D02*
X24000D01*
X144115Y278422D02*
Y282422D01*
X92961Y274174D02*
Y278174D01*
X66000Y19000D02*
X70000D01*
X159235Y230420D02*
X163235D01*
X187381Y241046D02*
Y245046D01*
X126000Y390919D02*
X130000D01*
X112010Y390611D02*
X116010D01*
X78000Y389000D02*
X82000D01*
D18*
X67000Y402000D02*
Y532000D01*
X187000D01*
Y402000D02*
Y532000D01*
X67000Y402000D02*
X187000D01*
D19*
X11500Y431500D02*
D03*
M02*
