G04*
G04 #@! TF.GenerationSoftware,Altium Limited,Altium Designer,21.6.1 (37)*
G04*
G04 Layer_Color=16711935*
%FSLAX44Y44*%
%MOMM*%
G71*
G04*
G04 #@! TF.SameCoordinates,92C9E3DA-2EC7-41D8-9103-AA549F60DB15*
G04*
G04*
G04 #@! TF.FilePolarity,Positive*
G04*
G01*
G75*
%ADD10C,0.2540*%
%ADD14C,0.2000*%
%ADD15C,0.1000*%
%ADD18C,0.2032*%
G36*
X247242Y300814D02*
X247289D01*
X247348Y300809D01*
X247412Y300803D01*
X247477Y300797D01*
X247624Y300774D01*
X247782Y300738D01*
X247934Y300691D01*
X248081Y300627D01*
X248087D01*
X248099Y300615D01*
X248116Y300603D01*
X248140Y300592D01*
X248204Y300545D01*
X248281Y300480D01*
X248369Y300398D01*
X248451Y300304D01*
X248533Y300187D01*
X248597Y300058D01*
Y300052D01*
X248603Y300040D01*
X248609Y300017D01*
X248621Y299987D01*
X248633Y299952D01*
X248644Y299905D01*
X248662Y299852D01*
X248674Y299788D01*
X248685Y299717D01*
X248703Y299641D01*
X248715Y299559D01*
X248727Y299471D01*
X248738Y299371D01*
X248744Y299265D01*
X248750Y299154D01*
Y299037D01*
Y296690D01*
X248210D01*
Y299037D01*
Y299043D01*
Y299060D01*
Y299090D01*
Y299125D01*
X248204Y299166D01*
Y299219D01*
X248199Y299330D01*
X248187Y299459D01*
X248169Y299588D01*
X248146Y299711D01*
X248134Y299764D01*
X248116Y299817D01*
X248111Y299829D01*
X248099Y299858D01*
X248069Y299899D01*
X248034Y299958D01*
X247993Y300017D01*
X247934Y300081D01*
X247864Y300146D01*
X247782Y300198D01*
X247770Y300204D01*
X247741Y300222D01*
X247688Y300240D01*
X247618Y300263D01*
X247535Y300292D01*
X247430Y300310D01*
X247318Y300327D01*
X247195Y300333D01*
X247136D01*
X247101Y300327D01*
X247048D01*
X246996Y300322D01*
X246867Y300298D01*
X246726Y300269D01*
X246591Y300222D01*
X246462Y300157D01*
X246403Y300116D01*
X246350Y300069D01*
X246344Y300063D01*
X246339Y300058D01*
X246327Y300040D01*
X246309Y300017D01*
X246292Y299981D01*
X246268Y299946D01*
X246245Y299893D01*
X246221Y299841D01*
X246198Y299776D01*
X246180Y299700D01*
X246157Y299612D01*
X246139Y299518D01*
X246121Y299412D01*
X246110Y299301D01*
X246098Y299172D01*
Y299037D01*
Y296690D01*
X245558D01*
Y299037D01*
Y299043D01*
Y299066D01*
Y299095D01*
Y299137D01*
X245564Y299189D01*
Y299248D01*
X245570Y299318D01*
X245576Y299389D01*
X245593Y299547D01*
X245617Y299711D01*
X245652Y299870D01*
X245676Y299946D01*
X245699Y300017D01*
Y300022D01*
X245705Y300034D01*
X245717Y300052D01*
X245728Y300075D01*
X245763Y300140D01*
X245816Y300222D01*
X245887Y300316D01*
X245969Y300410D01*
X246075Y300509D01*
X246203Y300597D01*
X246209D01*
X246221Y300609D01*
X246239Y300615D01*
X246268Y300633D01*
X246303Y300650D01*
X246350Y300668D01*
X246397Y300686D01*
X246456Y300709D01*
X246520Y300732D01*
X246591Y300750D01*
X246667Y300768D01*
X246755Y300785D01*
X246843Y300797D01*
X246937Y300809D01*
X247148Y300820D01*
X247201D01*
X247242Y300814D01*
D02*
G37*
G36*
X243487Y297576D02*
X243493Y297582D01*
X243522Y297605D01*
X243557Y297640D01*
X243616Y297681D01*
X243681Y297734D01*
X243763Y297793D01*
X243857Y297857D01*
X243962Y297922D01*
X243968D01*
X243974Y297928D01*
X244009Y297951D01*
X244068Y297981D01*
X244138Y298016D01*
X244220Y298057D01*
X244308Y298098D01*
X244396Y298139D01*
X244484Y298174D01*
Y297693D01*
X244478D01*
X244467Y297681D01*
X244443Y297675D01*
X244414Y297658D01*
X244379Y297640D01*
X244338Y297617D01*
X244238Y297558D01*
X244121Y297494D01*
X244003Y297411D01*
X243880Y297318D01*
X243757Y297218D01*
X243751Y297212D01*
X243745Y297206D01*
X243727Y297188D01*
X243704Y297171D01*
X243651Y297112D01*
X243581Y297042D01*
X243510Y296960D01*
X243434Y296866D01*
X243370Y296772D01*
X243311Y296672D01*
X242988D01*
Y300750D01*
X243487D01*
Y297576D01*
D02*
G37*
G36*
X206539Y531205D02*
X210118D01*
Y530665D01*
X206539D01*
Y529327D01*
X206057D01*
Y532543D01*
X206539D01*
Y531205D01*
D02*
G37*
G36*
X208205Y528934D02*
X208258D01*
X208322Y528928D01*
X208393Y528917D01*
X208469Y528911D01*
X208639Y528881D01*
X208827Y528834D01*
X209015Y528770D01*
X209109Y528735D01*
X209202Y528688D01*
X209208D01*
X209226Y528676D01*
X209249Y528664D01*
X209284Y528641D01*
X209326Y528617D01*
X209367Y528588D01*
X209478Y528506D01*
X209596Y528406D01*
X209719Y528289D01*
X209836Y528148D01*
X209942Y527984D01*
Y527978D01*
X209953Y527966D01*
X209965Y527937D01*
X209983Y527901D01*
X210000Y527860D01*
X210018Y527813D01*
X210041Y527755D01*
X210065Y527690D01*
X210088Y527620D01*
X210112Y527544D01*
X210147Y527373D01*
X210176Y527192D01*
X210188Y526998D01*
Y526939D01*
X210182Y526904D01*
Y526851D01*
X210170Y526792D01*
X210165Y526728D01*
X210153Y526652D01*
X210118Y526493D01*
X210071Y526323D01*
X210000Y526147D01*
X209959Y526059D01*
X209912Y525971D01*
X209907Y525965D01*
X209901Y525953D01*
X209883Y525930D01*
X209860Y525895D01*
X209836Y525860D01*
X209801Y525819D01*
X209713Y525719D01*
X209607Y525607D01*
X209478Y525490D01*
X209331Y525384D01*
X209161Y525285D01*
X209155D01*
X209138Y525273D01*
X209114Y525261D01*
X209079Y525249D01*
X209032Y525232D01*
X208979Y525214D01*
X208921Y525191D01*
X208856Y525173D01*
X208780Y525150D01*
X208704Y525126D01*
X208528Y525091D01*
X208346Y525067D01*
X208146Y525056D01*
X208140D01*
X208134D01*
X208099D01*
X208046Y525062D01*
X207976D01*
X207894Y525073D01*
X207794Y525085D01*
X207683Y525103D01*
X207565Y525126D01*
X207442Y525150D01*
X207313Y525185D01*
X207184Y525232D01*
X207049Y525285D01*
X206920Y525343D01*
X206791Y525420D01*
X206674Y525502D01*
X206562Y525596D01*
X206556Y525602D01*
X206539Y525619D01*
X206509Y525654D01*
X206474Y525695D01*
X206427Y525748D01*
X206380Y525813D01*
X206327Y525889D01*
X206275Y525977D01*
X206222Y526071D01*
X206169Y526176D01*
X206122Y526294D01*
X206075Y526417D01*
X206040Y526552D01*
X206010Y526693D01*
X205993Y526839D01*
X205987Y526998D01*
Y527051D01*
X205993Y527092D01*
Y527145D01*
X205999Y527197D01*
X206010Y527268D01*
X206022Y527338D01*
X206052Y527491D01*
X206098Y527667D01*
X206169Y527837D01*
X206210Y527925D01*
X206257Y528013D01*
X206263Y528019D01*
X206269Y528031D01*
X206286Y528054D01*
X206304Y528089D01*
X206333Y528124D01*
X206368Y528171D01*
X206451Y528271D01*
X206556Y528377D01*
X206685Y528494D01*
X206838Y528606D01*
X207008Y528699D01*
X207014D01*
X207031Y528711D01*
X207055Y528723D01*
X207090Y528735D01*
X207137Y528758D01*
X207190Y528776D01*
X207254Y528799D01*
X207325Y528823D01*
X207401Y528840D01*
X207483Y528864D01*
X207577Y528887D01*
X207671Y528905D01*
X207876Y528928D01*
X208099Y528940D01*
X208105D01*
X208129D01*
X208158D01*
X208205Y528934D01*
D02*
G37*
G36*
Y524522D02*
X208258D01*
X208322Y524516D01*
X208393Y524504D01*
X208469Y524498D01*
X208639Y524469D01*
X208827Y524422D01*
X209015Y524358D01*
X209109Y524322D01*
X209202Y524275D01*
X209208D01*
X209226Y524264D01*
X209249Y524252D01*
X209284Y524229D01*
X209326Y524205D01*
X209367Y524176D01*
X209478Y524094D01*
X209596Y523994D01*
X209719Y523876D01*
X209836Y523736D01*
X209942Y523571D01*
Y523565D01*
X209953Y523554D01*
X209965Y523524D01*
X209983Y523489D01*
X210000Y523448D01*
X210018Y523401D01*
X210041Y523343D01*
X210065Y523278D01*
X210088Y523208D01*
X210112Y523131D01*
X210147Y522961D01*
X210176Y522779D01*
X210188Y522586D01*
Y522527D01*
X210182Y522492D01*
Y522439D01*
X210170Y522380D01*
X210165Y522316D01*
X210153Y522239D01*
X210118Y522081D01*
X210071Y521911D01*
X210000Y521735D01*
X209959Y521647D01*
X209912Y521559D01*
X209907Y521553D01*
X209901Y521541D01*
X209883Y521518D01*
X209860Y521483D01*
X209836Y521447D01*
X209801Y521406D01*
X209713Y521306D01*
X209607Y521195D01*
X209478Y521078D01*
X209331Y520972D01*
X209161Y520872D01*
X209155D01*
X209138Y520861D01*
X209114Y520849D01*
X209079Y520837D01*
X209032Y520820D01*
X208979Y520802D01*
X208921Y520779D01*
X208856Y520761D01*
X208780Y520737D01*
X208704Y520714D01*
X208528Y520679D01*
X208346Y520655D01*
X208146Y520644D01*
X208140D01*
X208134D01*
X208099D01*
X208046Y520649D01*
X207976D01*
X207894Y520661D01*
X207794Y520673D01*
X207683Y520690D01*
X207565Y520714D01*
X207442Y520737D01*
X207313Y520773D01*
X207184Y520820D01*
X207049Y520872D01*
X206920Y520931D01*
X206791Y521007D01*
X206674Y521089D01*
X206562Y521183D01*
X206556Y521189D01*
X206539Y521207D01*
X206509Y521242D01*
X206474Y521283D01*
X206427Y521336D01*
X206380Y521400D01*
X206327Y521477D01*
X206275Y521565D01*
X206222Y521659D01*
X206169Y521764D01*
X206122Y521881D01*
X206075Y522005D01*
X206040Y522140D01*
X206010Y522281D01*
X205993Y522427D01*
X205987Y522586D01*
Y522638D01*
X205993Y522679D01*
Y522732D01*
X205999Y522785D01*
X206010Y522855D01*
X206022Y522926D01*
X206052Y523078D01*
X206098Y523255D01*
X206169Y523425D01*
X206210Y523513D01*
X206257Y523601D01*
X206263Y523606D01*
X206269Y523618D01*
X206286Y523642D01*
X206304Y523677D01*
X206333Y523712D01*
X206368Y523759D01*
X206451Y523859D01*
X206556Y523965D01*
X206685Y524082D01*
X206838Y524193D01*
X207008Y524287D01*
X207014D01*
X207031Y524299D01*
X207055Y524311D01*
X207090Y524322D01*
X207137Y524346D01*
X207190Y524363D01*
X207254Y524387D01*
X207325Y524410D01*
X207401Y524428D01*
X207483Y524451D01*
X207577Y524475D01*
X207671Y524492D01*
X207876Y524516D01*
X208099Y524528D01*
X208105D01*
X208129D01*
X208158D01*
X208205Y524522D01*
D02*
G37*
G36*
X209044Y520063D02*
X209114Y520051D01*
X209196Y520039D01*
X209284Y520016D01*
X209378Y519986D01*
X209472Y519945D01*
X209484Y519939D01*
X209513Y519922D01*
X209554Y519898D01*
X209613Y519863D01*
X209672Y519816D01*
X209736Y519769D01*
X209801Y519711D01*
X209854Y519646D01*
X209860Y519640D01*
X209877Y519617D01*
X209901Y519576D01*
X209924Y519523D01*
X209959Y519458D01*
X209995Y519382D01*
X210024Y519300D01*
X210053Y519200D01*
Y519188D01*
X210065Y519153D01*
X210071Y519095D01*
X210082Y519018D01*
X210094Y518924D01*
X210106Y518813D01*
X210112Y518690D01*
X210118Y518549D01*
Y517000D01*
X206057D01*
Y518596D01*
X206063Y518637D01*
Y518684D01*
X206075Y518789D01*
X206087Y518907D01*
X206110Y519030D01*
X206140Y519153D01*
X206181Y519265D01*
Y519271D01*
X206187Y519276D01*
X206204Y519312D01*
X206234Y519364D01*
X206275Y519423D01*
X206327Y519493D01*
X206392Y519570D01*
X206474Y519640D01*
X206562Y519705D01*
X206574Y519711D01*
X206609Y519728D01*
X206656Y519757D01*
X206726Y519787D01*
X206808Y519816D01*
X206896Y519846D01*
X206996Y519863D01*
X207096Y519869D01*
X207108D01*
X207137D01*
X207190Y519863D01*
X207254Y519851D01*
X207331Y519834D01*
X207413Y519804D01*
X207495Y519769D01*
X207583Y519722D01*
X207595Y519716D01*
X207618Y519699D01*
X207665Y519664D01*
X207712Y519617D01*
X207771Y519558D01*
X207835Y519488D01*
X207894Y519400D01*
X207953Y519300D01*
Y519306D01*
X207959Y519318D01*
X207964Y519335D01*
X207976Y519358D01*
X208000Y519429D01*
X208041Y519511D01*
X208093Y519599D01*
X208158Y519699D01*
X208234Y519787D01*
X208328Y519869D01*
X208340Y519875D01*
X208375Y519898D01*
X208428Y519934D01*
X208498Y519969D01*
X208592Y520004D01*
X208692Y520039D01*
X208809Y520063D01*
X208938Y520069D01*
X208944D01*
X208950D01*
X208985D01*
X209044Y520063D01*
D02*
G37*
G36*
X123539Y534015D02*
X127118D01*
Y533475D01*
X123539D01*
Y532138D01*
X123057D01*
Y535353D01*
X123539D01*
Y534015D01*
D02*
G37*
G36*
X127118Y528664D02*
X123057D01*
Y531604D01*
X123539D01*
Y529204D01*
X124777D01*
Y531451D01*
X125258D01*
Y529204D01*
X126636D01*
Y531698D01*
X127118D01*
Y528664D01*
D02*
G37*
G36*
X126097Y527907D02*
X126179Y527896D01*
X126273Y527872D01*
X126372Y527843D01*
X126478Y527796D01*
X126590Y527731D01*
X126595D01*
X126601Y527725D01*
X126636Y527696D01*
X126689Y527655D01*
X126748Y527596D01*
X126818Y527520D01*
X126895Y527426D01*
X126965Y527321D01*
X127030Y527197D01*
Y527192D01*
X127036Y527180D01*
X127041Y527162D01*
X127053Y527139D01*
X127065Y527104D01*
X127082Y527062D01*
X127106Y526969D01*
X127135Y526857D01*
X127165Y526722D01*
X127182Y526576D01*
X127188Y526417D01*
Y526323D01*
X127182Y526276D01*
Y526223D01*
X127176Y526165D01*
X127170Y526094D01*
X127147Y525948D01*
X127123Y525795D01*
X127082Y525643D01*
X127030Y525496D01*
Y525490D01*
X127024Y525478D01*
X127012Y525461D01*
X127000Y525437D01*
X126965Y525367D01*
X126912Y525285D01*
X126842Y525191D01*
X126760Y525091D01*
X126660Y524997D01*
X126549Y524909D01*
X126543D01*
X126531Y524897D01*
X126513Y524892D01*
X126490Y524874D01*
X126461Y524862D01*
X126425Y524845D01*
X126337Y524804D01*
X126226Y524762D01*
X126103Y524727D01*
X125962Y524704D01*
X125815Y524692D01*
X125768Y525197D01*
X125774D01*
X125780D01*
X125798Y525202D01*
X125821D01*
X125874Y525214D01*
X125950Y525232D01*
X126026Y525255D01*
X126114Y525279D01*
X126196Y525320D01*
X126273Y525361D01*
X126279Y525367D01*
X126302Y525384D01*
X126343Y525414D01*
X126384Y525461D01*
X126437Y525519D01*
X126490Y525584D01*
X126543Y525672D01*
X126590Y525766D01*
Y525772D01*
X126595Y525778D01*
X126601Y525795D01*
X126607Y525813D01*
X126625Y525871D01*
X126648Y525948D01*
X126672Y526041D01*
X126689Y526147D01*
X126701Y526264D01*
X126707Y526394D01*
Y526446D01*
X126701Y526505D01*
X126695Y526576D01*
X126684Y526658D01*
X126672Y526752D01*
X126648Y526845D01*
X126619Y526933D01*
X126613Y526945D01*
X126601Y526974D01*
X126578Y527015D01*
X126554Y527068D01*
X126513Y527121D01*
X126472Y527180D01*
X126425Y527239D01*
X126367Y527285D01*
X126361Y527291D01*
X126337Y527303D01*
X126308Y527321D01*
X126261Y527344D01*
X126214Y527368D01*
X126155Y527385D01*
X126091Y527397D01*
X126020Y527403D01*
X126015D01*
X125985D01*
X125950Y527397D01*
X125903Y527391D01*
X125856Y527373D01*
X125798Y527356D01*
X125739Y527327D01*
X125686Y527285D01*
X125680Y527280D01*
X125662Y527262D01*
X125639Y527239D01*
X125604Y527197D01*
X125569Y527150D01*
X125528Y527086D01*
X125486Y527010D01*
X125451Y526922D01*
X125445Y526916D01*
X125440Y526886D01*
X125422Y526839D01*
X125416Y526810D01*
X125404Y526769D01*
X125387Y526728D01*
X125375Y526675D01*
X125357Y526617D01*
X125340Y526546D01*
X125322Y526476D01*
X125299Y526394D01*
X125275Y526300D01*
X125252Y526200D01*
Y526194D01*
X125246Y526176D01*
X125240Y526147D01*
X125228Y526112D01*
X125217Y526065D01*
X125205Y526012D01*
X125170Y525895D01*
X125129Y525766D01*
X125087Y525631D01*
X125047Y525513D01*
X125023Y525461D01*
X125000Y525414D01*
Y525408D01*
X124994Y525402D01*
X124970Y525367D01*
X124941Y525314D01*
X124894Y525255D01*
X124841Y525185D01*
X124777Y525115D01*
X124700Y525044D01*
X124618Y524985D01*
X124606Y524980D01*
X124577Y524962D01*
X124530Y524938D01*
X124472Y524915D01*
X124395Y524892D01*
X124307Y524868D01*
X124213Y524850D01*
X124114Y524845D01*
X124108D01*
X124102D01*
X124084D01*
X124061D01*
X124002Y524856D01*
X123926Y524868D01*
X123838Y524886D01*
X123738Y524915D01*
X123638Y524956D01*
X123539Y525015D01*
X123533D01*
X123527Y525021D01*
X123492Y525050D01*
X123445Y525091D01*
X123386Y525144D01*
X123321Y525214D01*
X123251Y525302D01*
X123187Y525408D01*
X123128Y525525D01*
Y525531D01*
X123122Y525543D01*
X123116Y525560D01*
X123104Y525584D01*
X123093Y525613D01*
X123081Y525654D01*
X123057Y525742D01*
X123034Y525854D01*
X123011Y525983D01*
X122993Y526118D01*
X122987Y526270D01*
Y526347D01*
X122993Y526388D01*
Y526429D01*
X123005Y526540D01*
X123022Y526664D01*
X123052Y526792D01*
X123087Y526933D01*
X123134Y527062D01*
Y527068D01*
X123140Y527080D01*
X123151Y527098D01*
X123163Y527121D01*
X123192Y527180D01*
X123245Y527256D01*
X123304Y527344D01*
X123380Y527432D01*
X123468Y527514D01*
X123568Y527590D01*
X123574D01*
X123580Y527596D01*
X123597Y527608D01*
X123615Y527620D01*
X123673Y527649D01*
X123750Y527684D01*
X123844Y527725D01*
X123955Y527755D01*
X124073Y527784D01*
X124202Y527796D01*
X124243Y527280D01*
X124237D01*
X124225D01*
X124207Y527274D01*
X124178Y527268D01*
X124114Y527250D01*
X124025Y527227D01*
X123932Y527192D01*
X123838Y527139D01*
X123750Y527074D01*
X123668Y526992D01*
X123662Y526980D01*
X123638Y526951D01*
X123603Y526892D01*
X123568Y526816D01*
X123533Y526716D01*
X123497Y526599D01*
X123474Y526452D01*
X123468Y526288D01*
Y526206D01*
X123474Y526171D01*
X123480Y526124D01*
X123492Y526018D01*
X123515Y525901D01*
X123544Y525783D01*
X123591Y525672D01*
X123621Y525625D01*
X123650Y525578D01*
X123656Y525566D01*
X123679Y525543D01*
X123720Y525508D01*
X123767Y525472D01*
X123832Y525431D01*
X123902Y525396D01*
X123984Y525373D01*
X124078Y525361D01*
X124090D01*
X124114D01*
X124155Y525367D01*
X124202Y525378D01*
X124260Y525396D01*
X124319Y525425D01*
X124378Y525461D01*
X124436Y525513D01*
X124442Y525519D01*
X124460Y525549D01*
X124477Y525572D01*
X124489Y525596D01*
X124507Y525631D01*
X124530Y525672D01*
X124548Y525725D01*
X124571Y525783D01*
X124595Y525848D01*
X124624Y525924D01*
X124648Y526006D01*
X124677Y526100D01*
X124700Y526206D01*
X124730Y526323D01*
Y526329D01*
X124735Y526353D01*
X124741Y526388D01*
X124753Y526429D01*
X124765Y526482D01*
X124782Y526546D01*
X124800Y526611D01*
X124818Y526681D01*
X124859Y526834D01*
X124900Y526980D01*
X124923Y527051D01*
X124947Y527115D01*
X124964Y527174D01*
X124988Y527221D01*
Y527227D01*
X124994Y527239D01*
X125005Y527256D01*
X125017Y527280D01*
X125052Y527344D01*
X125099Y527420D01*
X125164Y527508D01*
X125234Y527596D01*
X125316Y527678D01*
X125404Y527749D01*
X125416Y527755D01*
X125445Y527778D01*
X125498Y527802D01*
X125569Y527837D01*
X125651Y527866D01*
X125751Y527896D01*
X125862Y527913D01*
X125979Y527919D01*
X125985D01*
X125991D01*
X126009D01*
X126032D01*
X126097Y527907D01*
D02*
G37*
G36*
X127118Y521095D02*
X123057D01*
Y524035D01*
X123539D01*
Y521635D01*
X124777D01*
Y523882D01*
X125258D01*
Y521635D01*
X126636D01*
Y524129D01*
X127118D01*
Y521095D01*
D02*
G37*
G36*
Y519898D02*
X126273Y519364D01*
X126267D01*
X126255Y519353D01*
X126237Y519341D01*
X126214Y519323D01*
X126150Y519282D01*
X126067Y519230D01*
X125979Y519165D01*
X125885Y519100D01*
X125798Y519036D01*
X125715Y518977D01*
X125709Y518971D01*
X125686Y518954D01*
X125651Y518924D01*
X125610Y518883D01*
X125522Y518795D01*
X125481Y518748D01*
X125445Y518701D01*
X125440Y518695D01*
X125434Y518684D01*
X125422Y518660D01*
X125404Y518625D01*
X125387Y518590D01*
X125369Y518549D01*
X125340Y518455D01*
Y518449D01*
X125334Y518437D01*
Y518414D01*
X125328Y518385D01*
X125322Y518344D01*
Y518297D01*
X125316Y518232D01*
Y517540D01*
X127118D01*
Y517000D01*
X123057D01*
Y518883D01*
X123063Y518930D01*
Y518983D01*
X123069Y519106D01*
X123087Y519235D01*
X123104Y519376D01*
X123134Y519505D01*
X123151Y519570D01*
X123169Y519623D01*
Y519628D01*
X123175Y519634D01*
X123192Y519669D01*
X123216Y519722D01*
X123257Y519787D01*
X123310Y519857D01*
X123380Y519934D01*
X123462Y520004D01*
X123556Y520074D01*
X123562D01*
X123568Y520080D01*
X123603Y520104D01*
X123662Y520127D01*
X123738Y520162D01*
X123826Y520192D01*
X123932Y520221D01*
X124043Y520239D01*
X124166Y520244D01*
X124172D01*
X124184D01*
X124207D01*
X124237Y520239D01*
X124278D01*
X124319Y520233D01*
X124419Y520209D01*
X124536Y520174D01*
X124659Y520127D01*
X124782Y520057D01*
X124841Y520010D01*
X124900Y519963D01*
X124906Y519957D01*
X124911Y519951D01*
X124929Y519934D01*
X124947Y519910D01*
X124970Y519881D01*
X124994Y519846D01*
X125023Y519799D01*
X125058Y519752D01*
X125087Y519693D01*
X125117Y519628D01*
X125152Y519558D01*
X125181Y519482D01*
X125205Y519394D01*
X125234Y519306D01*
X125252Y519206D01*
X125269Y519100D01*
X125275Y519112D01*
X125287Y519136D01*
X125310Y519171D01*
X125334Y519218D01*
X125399Y519323D01*
X125440Y519376D01*
X125475Y519423D01*
X125486Y519435D01*
X125516Y519464D01*
X125563Y519511D01*
X125622Y519570D01*
X125704Y519634D01*
X125792Y519711D01*
X125897Y519787D01*
X126015Y519869D01*
X127118Y520567D01*
Y519898D01*
D02*
G37*
%LPC*%
G36*
X208093Y528388D02*
X208088D01*
X208070D01*
X208046D01*
X208011D01*
X207970Y528383D01*
X207917D01*
X207865Y528377D01*
X207800Y528365D01*
X207665Y528347D01*
X207524Y528318D01*
X207372Y528277D01*
X207231Y528218D01*
X207225D01*
X207213Y528213D01*
X207196Y528201D01*
X207172Y528189D01*
X207102Y528148D01*
X207020Y528095D01*
X206926Y528025D01*
X206832Y527937D01*
X206738Y527837D01*
X206656Y527725D01*
Y527720D01*
X206644Y527714D01*
X206638Y527696D01*
X206621Y527667D01*
X206609Y527637D01*
X206591Y527602D01*
X206550Y527514D01*
X206515Y527409D01*
X206480Y527285D01*
X206456Y527145D01*
X206451Y526998D01*
Y526945D01*
X206456Y526904D01*
X206462Y526851D01*
X206474Y526798D01*
X206486Y526734D01*
X206497Y526664D01*
X206544Y526511D01*
X206580Y526429D01*
X206615Y526347D01*
X206662Y526259D01*
X206715Y526176D01*
X206773Y526094D01*
X206844Y526018D01*
X206849Y526012D01*
X206861Y526000D01*
X206885Y525983D01*
X206920Y525953D01*
X206961Y525924D01*
X207014Y525889D01*
X207078Y525854D01*
X207155Y525813D01*
X207237Y525778D01*
X207337Y525736D01*
X207442Y525701D01*
X207560Y525672D01*
X207689Y525643D01*
X207835Y525625D01*
X207988Y525613D01*
X208152Y525607D01*
X208158D01*
X208181D01*
X208223D01*
X208275Y525613D01*
X208334Y525619D01*
X208404Y525631D01*
X208487Y525643D01*
X208569Y525654D01*
X208757Y525701D01*
X208850Y525736D01*
X208950Y525772D01*
X209044Y525819D01*
X209138Y525871D01*
X209226Y525930D01*
X209308Y526000D01*
X209314Y526006D01*
X209326Y526018D01*
X209349Y526041D01*
X209373Y526071D01*
X209408Y526112D01*
X209443Y526159D01*
X209478Y526212D01*
X209519Y526270D01*
X209560Y526341D01*
X209596Y526417D01*
X209631Y526499D01*
X209666Y526587D01*
X209689Y526681D01*
X209713Y526775D01*
X209725Y526881D01*
X209730Y526992D01*
Y527021D01*
X209725Y527051D01*
Y527092D01*
X209719Y527145D01*
X209707Y527203D01*
X209695Y527274D01*
X209678Y527344D01*
X209654Y527426D01*
X209625Y527503D01*
X209596Y527590D01*
X209554Y527673D01*
X209502Y527755D01*
X209449Y527837D01*
X209384Y527919D01*
X209308Y527995D01*
X209302Y528001D01*
X209290Y528013D01*
X209261Y528031D01*
X209226Y528060D01*
X209185Y528089D01*
X209132Y528119D01*
X209067Y528154D01*
X208997Y528195D01*
X208915Y528230D01*
X208821Y528265D01*
X208721Y528295D01*
X208616Y528330D01*
X208498Y528353D01*
X208369Y528371D01*
X208234Y528383D01*
X208093Y528388D01*
D02*
G37*
G36*
Y523976D02*
X208088D01*
X208070D01*
X208046D01*
X208011D01*
X207970Y523970D01*
X207917D01*
X207865Y523965D01*
X207800Y523953D01*
X207665Y523935D01*
X207524Y523906D01*
X207372Y523865D01*
X207231Y523806D01*
X207225D01*
X207213Y523800D01*
X207196Y523788D01*
X207172Y523777D01*
X207102Y523736D01*
X207020Y523683D01*
X206926Y523612D01*
X206832Y523524D01*
X206738Y523425D01*
X206656Y523313D01*
Y523307D01*
X206644Y523301D01*
X206638Y523284D01*
X206621Y523255D01*
X206609Y523225D01*
X206591Y523190D01*
X206550Y523102D01*
X206515Y522996D01*
X206480Y522873D01*
X206456Y522732D01*
X206451Y522586D01*
Y522533D01*
X206456Y522492D01*
X206462Y522439D01*
X206474Y522386D01*
X206486Y522322D01*
X206497Y522251D01*
X206544Y522099D01*
X206580Y522016D01*
X206615Y521934D01*
X206662Y521846D01*
X206715Y521764D01*
X206773Y521682D01*
X206844Y521606D01*
X206849Y521600D01*
X206861Y521588D01*
X206885Y521571D01*
X206920Y521541D01*
X206961Y521512D01*
X207014Y521477D01*
X207078Y521441D01*
X207155Y521400D01*
X207237Y521365D01*
X207337Y521324D01*
X207442Y521289D01*
X207560Y521260D01*
X207689Y521230D01*
X207835Y521213D01*
X207988Y521201D01*
X208152Y521195D01*
X208158D01*
X208181D01*
X208223D01*
X208275Y521201D01*
X208334Y521207D01*
X208404Y521218D01*
X208487Y521230D01*
X208569Y521242D01*
X208757Y521289D01*
X208850Y521324D01*
X208950Y521359D01*
X209044Y521406D01*
X209138Y521459D01*
X209226Y521518D01*
X209308Y521588D01*
X209314Y521594D01*
X209326Y521606D01*
X209349Y521629D01*
X209373Y521659D01*
X209408Y521700D01*
X209443Y521747D01*
X209478Y521799D01*
X209519Y521858D01*
X209560Y521928D01*
X209596Y522005D01*
X209631Y522087D01*
X209666Y522175D01*
X209689Y522269D01*
X209713Y522363D01*
X209725Y522468D01*
X209730Y522580D01*
Y522609D01*
X209725Y522638D01*
Y522679D01*
X209719Y522732D01*
X209707Y522791D01*
X209695Y522861D01*
X209678Y522932D01*
X209654Y523014D01*
X209625Y523090D01*
X209596Y523178D01*
X209554Y523260D01*
X209502Y523343D01*
X209449Y523425D01*
X209384Y523507D01*
X209308Y523583D01*
X209302Y523589D01*
X209290Y523601D01*
X209261Y523618D01*
X209226Y523648D01*
X209185Y523677D01*
X209132Y523706D01*
X209067Y523741D01*
X208997Y523783D01*
X208915Y523818D01*
X208821Y523853D01*
X208721Y523882D01*
X208616Y523918D01*
X208498Y523941D01*
X208369Y523959D01*
X208234Y523970D01*
X208093Y523976D01*
D02*
G37*
G36*
X208938Y519517D02*
X208927D01*
X208903D01*
X208856Y519511D01*
X208803Y519499D01*
X208745Y519488D01*
X208680Y519464D01*
X208616Y519435D01*
X208551Y519394D01*
X208545Y519388D01*
X208522Y519370D01*
X208492Y519347D01*
X208457Y519312D01*
X208416Y519265D01*
X208375Y519206D01*
X208340Y519142D01*
X208311Y519065D01*
X208305Y519053D01*
X208299Y519030D01*
X208287Y518977D01*
X208275Y518913D01*
X208264Y518830D01*
X208252Y518731D01*
X208240Y518607D01*
Y517540D01*
X209637D01*
Y518695D01*
X209631Y518819D01*
X209625Y518872D01*
X209619Y518918D01*
Y518924D01*
X209613Y518948D01*
X209607Y518983D01*
X209596Y519024D01*
X209560Y519124D01*
X209513Y519224D01*
X209508Y519230D01*
X209496Y519247D01*
X209478Y519271D01*
X209455Y519300D01*
X209419Y519329D01*
X209384Y519370D01*
X209337Y519400D01*
X209284Y519435D01*
X209279Y519441D01*
X209261Y519447D01*
X209226Y519458D01*
X209185Y519476D01*
X209138Y519493D01*
X209079Y519505D01*
X209009Y519511D01*
X208938Y519517D01*
D02*
G37*
G36*
X207160Y519341D02*
X207149D01*
X207125D01*
X207090Y519335D01*
X207043Y519329D01*
X206985Y519318D01*
X206926Y519300D01*
X206867Y519276D01*
X206808Y519241D01*
X206803Y519235D01*
X206785Y519224D01*
X206756Y519200D01*
X206726Y519171D01*
X206691Y519130D01*
X206656Y519083D01*
X206621Y519024D01*
X206597Y518960D01*
Y518954D01*
X206586Y518924D01*
X206580Y518883D01*
X206568Y518819D01*
X206556Y518731D01*
X206550Y518631D01*
X206539Y518502D01*
Y517540D01*
X207759D01*
Y518537D01*
X207753Y518613D01*
X207747Y518695D01*
X207741Y518778D01*
X207730Y518860D01*
X207718Y518924D01*
X207712Y518936D01*
X207706Y518960D01*
X207689Y518995D01*
X207665Y519042D01*
X207642Y519089D01*
X207606Y519142D01*
X207560Y519194D01*
X207513Y519235D01*
X207507Y519241D01*
X207489Y519253D01*
X207454Y519271D01*
X207413Y519288D01*
X207366Y519306D01*
X207307Y519323D01*
X207237Y519335D01*
X207160Y519341D01*
D02*
G37*
G36*
X124172Y519693D02*
X124166D01*
X124160D01*
X124125Y519687D01*
X124073Y519681D01*
X124002Y519669D01*
X123932Y519640D01*
X123849Y519605D01*
X123773Y519552D01*
X123697Y519482D01*
X123691Y519470D01*
X123668Y519441D01*
X123638Y519394D01*
X123603Y519318D01*
X123568Y519230D01*
X123539Y519112D01*
X123515Y518977D01*
X123509Y518819D01*
Y517540D01*
X124853D01*
Y518748D01*
X124847Y518819D01*
X124841Y518901D01*
X124835Y518995D01*
X124824Y519089D01*
X124806Y519183D01*
X124782Y519265D01*
X124777Y519276D01*
X124765Y519300D01*
X124747Y519335D01*
X124724Y519382D01*
X124689Y519435D01*
X124648Y519488D01*
X124595Y519540D01*
X124536Y519581D01*
X124530Y519587D01*
X124507Y519599D01*
X124472Y519617D01*
X124424Y519640D01*
X124372Y519658D01*
X124313Y519675D01*
X124243Y519687D01*
X124172Y519693D01*
D02*
G37*
%LPD*%
D10*
X254099Y237000D02*
G03*
X254099Y237000I-5099J0D01*
G01*
D14*
X195000Y490000D02*
Y544000D01*
X229000D01*
Y490000D02*
Y544000D01*
X195000Y490000D02*
X229000D01*
X112000D02*
Y544000D01*
X146000D01*
Y490000D02*
Y544000D01*
X112000Y490000D02*
X146000D01*
D15*
X278250Y345750D02*
X295750D01*
X278250Y336250D02*
X295750D01*
X278250D02*
Y345750D01*
X295750Y336250D02*
Y345750D01*
X296750Y238250D02*
Y247750D01*
X279250Y238250D02*
Y247750D01*
Y238250D02*
X296750D01*
X279250Y247750D02*
X296750D01*
X295750Y285250D02*
Y294750D01*
X278250Y285250D02*
Y294750D01*
Y285250D02*
X295750D01*
X278250Y294750D02*
X295750D01*
D18*
X136000Y220000D02*
X266000D01*
X136000D02*
Y340000D01*
X266000D01*
Y220000D02*
Y340000D01*
M02*
