G04*
G04 #@! TF.GenerationSoftware,Altium Limited,Altium Designer,21.6.1 (37)*
G04*
G04 Layer_Physical_Order=1*
G04 Layer_Color=255*
%FSLAX44Y44*%
%MOMM*%
G71*
G04*
G04 #@! TF.SameCoordinates,B851BBA7-0067-4132-B97B-CCB3C962BE8E*
G04*
G04*
G04 #@! TF.FilePolarity,Positive*
G04*
G01*
G75*
%ADD12C,0.5080*%
%ADD18C,0.2032*%
%ADD19C,0.2540*%
%ADD21R,0.6500X0.6500*%
%ADD22R,0.6000X0.5400*%
G04:AMPARAMS|DCode=23|XSize=0.91mm|YSize=0.32mm|CornerRadius=0.08mm|HoleSize=0mm|Usage=FLASHONLY|Rotation=180.000|XOffset=0mm|YOffset=0mm|HoleType=Round|Shape=RoundedRectangle|*
%AMROUNDEDRECTD23*
21,1,0.9100,0.1600,0,0,180.0*
21,1,0.7500,0.3200,0,0,180.0*
1,1,0.1600,-0.3750,0.0800*
1,1,0.1600,0.3750,0.0800*
1,1,0.1600,0.3750,-0.0800*
1,1,0.1600,-0.3750,-0.0800*
%
%ADD23ROUNDEDRECTD23*%
%ADD24R,0.5400X0.6000*%
%ADD25R,0.8000X1.0000*%
%ADD26R,0.4100X0.2800*%
%ADD27R,0.2800X0.4100*%
G04:AMPARAMS|DCode=28|XSize=0.76mm|YSize=0.6604mm|CornerRadius=0.0825mm|HoleSize=0mm|Usage=FLASHONLY|Rotation=90.000|XOffset=0mm|YOffset=0mm|HoleType=Round|Shape=RoundedRectangle|*
%AMROUNDEDRECTD28*
21,1,0.7600,0.4953,0,0,90.0*
21,1,0.5949,0.6604,0,0,90.0*
1,1,0.1651,0.2477,0.2975*
1,1,0.1651,0.2477,-0.2975*
1,1,0.1651,-0.2477,-0.2975*
1,1,0.1651,-0.2477,0.2975*
%
%ADD28ROUNDEDRECTD28*%
%ADD29R,0.7112X1.7780*%
G04:AMPARAMS|DCode=30|XSize=0.49mm|YSize=0.45mm|CornerRadius=0.0563mm|HoleSize=0mm|Usage=FLASHONLY|Rotation=180.000|XOffset=0mm|YOffset=0mm|HoleType=Round|Shape=RoundedRectangle|*
%AMROUNDEDRECTD30*
21,1,0.4900,0.3375,0,0,180.0*
21,1,0.3775,0.4500,0,0,180.0*
1,1,0.1125,-0.1888,0.1688*
1,1,0.1125,0.1888,0.1688*
1,1,0.1125,0.1888,-0.1688*
1,1,0.1125,-0.1888,-0.1688*
%
%ADD30ROUNDEDRECTD30*%
%ADD31R,1.9029X2.8042*%
%ADD32R,0.5400X0.5400*%
G04:AMPARAMS|DCode=33|XSize=0.55mm|YSize=0.5mm|CornerRadius=0.0625mm|HoleSize=0mm|Usage=FLASHONLY|Rotation=180.000|XOffset=0mm|YOffset=0mm|HoleType=Round|Shape=RoundedRectangle|*
%AMROUNDEDRECTD33*
21,1,0.5500,0.3750,0,0,180.0*
21,1,0.4250,0.5000,0,0,180.0*
1,1,0.1250,-0.2125,0.1875*
1,1,0.1250,0.2125,0.1875*
1,1,0.1250,0.2125,-0.1875*
1,1,0.1250,-0.2125,-0.1875*
%
%ADD33ROUNDEDRECTD33*%
G04:AMPARAMS|DCode=34|XSize=0.55mm|YSize=0.5mm|CornerRadius=0.0625mm|HoleSize=0mm|Usage=FLASHONLY|Rotation=90.000|XOffset=0mm|YOffset=0mm|HoleType=Round|Shape=RoundedRectangle|*
%AMROUNDEDRECTD34*
21,1,0.5500,0.3750,0,0,90.0*
21,1,0.4250,0.5000,0,0,90.0*
1,1,0.1250,0.1875,0.2125*
1,1,0.1250,0.1875,-0.2125*
1,1,0.1250,-0.1875,-0.2125*
1,1,0.1250,-0.1875,0.2125*
%
%ADD34ROUNDEDRECTD34*%
%ADD35R,0.4500X0.5000*%
%ADD36R,0.5400X0.5400*%
%ADD37R,0.8890X1.0160*%
G04:AMPARAMS|DCode=38|XSize=1.5mm|YSize=1.5mm|CornerRadius=0.075mm|HoleSize=0mm|Usage=FLASHONLY|Rotation=180.000|XOffset=0mm|YOffset=0mm|HoleType=Round|Shape=RoundedRectangle|*
%AMROUNDEDRECTD38*
21,1,1.5000,1.3500,0,0,180.0*
21,1,1.3500,1.5000,0,0,180.0*
1,1,0.1500,-0.6750,0.6750*
1,1,0.1500,0.6750,0.6750*
1,1,0.1500,0.6750,-0.6750*
1,1,0.1500,-0.6750,-0.6750*
%
%ADD38ROUNDEDRECTD38*%
G04:AMPARAMS|DCode=39|XSize=0.5mm|YSize=0.8mm|CornerRadius=0.1mm|HoleSize=0mm|Usage=FLASHONLY|Rotation=270.000|XOffset=0mm|YOffset=0mm|HoleType=Round|Shape=RoundedRectangle|*
%AMROUNDEDRECTD39*
21,1,0.5000,0.6000,0,0,270.0*
21,1,0.3000,0.8000,0,0,270.0*
1,1,0.2000,-0.3000,-0.1500*
1,1,0.2000,-0.3000,0.1500*
1,1,0.2000,0.3000,0.1500*
1,1,0.2000,0.3000,-0.1500*
%
%ADD39ROUNDEDRECTD39*%
G04:AMPARAMS|DCode=40|XSize=0.5mm|YSize=0.8mm|CornerRadius=0.1mm|HoleSize=0mm|Usage=FLASHONLY|Rotation=180.000|XOffset=0mm|YOffset=0mm|HoleType=Round|Shape=RoundedRectangle|*
%AMROUNDEDRECTD40*
21,1,0.5000,0.6000,0,0,180.0*
21,1,0.3000,0.8000,0,0,180.0*
1,1,0.2000,-0.1500,0.3000*
1,1,0.2000,0.1500,0.3000*
1,1,0.2000,0.1500,-0.3000*
1,1,0.2000,-0.1500,-0.3000*
%
%ADD40ROUNDEDRECTD40*%
%ADD41R,2.1999X1.0500*%
%ADD42R,1.0500X1.0000*%
%ADD43R,1.7500X0.4000*%
%ADD44R,2.5000X1.4250*%
%ADD45R,0.6500X1.0500*%
%ADD46R,0.8000X0.4500*%
%ADD47R,1.2000X0.6000*%
%ADD48R,0.4500X1.4750*%
%ADD49R,1.0400X1.4700*%
%ADD50R,1.4986X0.9906*%
%ADD51R,1.4600X2.0000*%
%ADD91R,1.2000X2.4000*%
%ADD92C,0.9000*%
%ADD93C,0.8890*%
%ADD94C,0.2958*%
%ADD95C,0.9000*%
%ADD96C,0.7620*%
%ADD97C,0.3810*%
%ADD98C,1.0160*%
%ADD99C,2.3700*%
%ADD100C,1.7550*%
%ADD101O,1.7000X1.2000*%
%ADD102O,1.4000X1.0000*%
%ADD103C,0.4064*%
%ADD104C,0.4572*%
%ADD105C,1.2700*%
%ADD106C,5.1200*%
G36*
X237626Y1374D02*
X113079D01*
X112048Y1952D01*
X112048Y2645D01*
Y8980D01*
X105750D01*
X99452D01*
Y2645D01*
X99452Y1952D01*
X98421Y1374D01*
X1374D01*
Y564000D01*
X65464D01*
X66063Y562880D01*
X65933Y562685D01*
X65652Y561274D01*
X65492Y560913D01*
X64485Y560084D01*
X60875D01*
X59838Y559878D01*
X58959Y559291D01*
X58372Y558412D01*
X58166Y557375D01*
Y553625D01*
X58372Y552588D01*
X58959Y551710D01*
Y550689D01*
X58187Y549608D01*
X56998Y549371D01*
X56805Y549242D01*
X56000Y549403D01*
X54315Y549067D01*
X52887Y548113D01*
X51933Y546685D01*
X51597Y545000D01*
X51933Y543315D01*
X52887Y541887D01*
X54315Y540933D01*
X56000Y540597D01*
X57685Y540933D01*
X59113Y541887D01*
X59183Y541992D01*
X59838Y542122D01*
X60875Y541916D01*
X61689D01*
X78409Y525196D01*
Y520500D01*
X78644Y519317D01*
X79314Y518314D01*
X80317Y517644D01*
X81500Y517409D01*
X84500D01*
X85683Y517644D01*
X86686Y518314D01*
X87314D01*
X88317Y517644D01*
X89500Y517409D01*
X92500D01*
X93683Y517644D01*
X94064Y517899D01*
X95000Y518210D01*
X95936Y517899D01*
X96317Y517644D01*
X97500Y517409D01*
X100500D01*
X101683Y517644D01*
X102686Y518314D01*
X103314D01*
X104317Y517644D01*
X105500Y517409D01*
X108500D01*
X109683Y517644D01*
X110686Y518314D01*
X111314D01*
X112317Y517644D01*
X113500Y517409D01*
X116500D01*
X117683Y517644D01*
X118064Y517899D01*
X119000Y518210D01*
X119936Y517899D01*
X120317Y517644D01*
X121500Y517409D01*
X124500D01*
X125683Y517644D01*
X126686Y518314D01*
X127314D01*
X128317Y517644D01*
X129500Y517409D01*
X132500D01*
X133683Y517644D01*
X134064Y517899D01*
X135000Y518210D01*
X135936Y517899D01*
X136317Y517644D01*
X137500Y517409D01*
X140500D01*
X141683Y517644D01*
X142064Y517899D01*
X143000Y518210D01*
X143936Y517899D01*
X144317Y517644D01*
X145500Y517409D01*
X148500D01*
X149683Y517644D01*
X150275Y518040D01*
X150582Y517582D01*
X151921Y516687D01*
X153500Y516373D01*
X153730D01*
Y523500D01*
Y530627D01*
X153500D01*
X151921Y530313D01*
X150582Y529418D01*
X150275Y528960D01*
X149683Y529356D01*
X148500Y529591D01*
X145500D01*
X144317Y529356D01*
X143936Y529101D01*
X143000Y528790D01*
X142064Y529101D01*
X141683Y529356D01*
X140500Y529591D01*
X137500D01*
X136317Y529356D01*
X135936Y529101D01*
X135000Y528790D01*
X134064Y529101D01*
X133683Y529356D01*
X132500Y529591D01*
X129500D01*
X128317Y529356D01*
X127314Y528686D01*
X126686D01*
X125683Y529356D01*
X124500Y529591D01*
X121500D01*
X120317Y529356D01*
X119637Y528902D01*
X118556Y529309D01*
X118367Y529464D01*
Y540018D01*
X119732D01*
Y547502D01*
X120748D01*
Y551980D01*
X109252D01*
Y548687D01*
X107999D01*
X106841Y549957D01*
X106880Y550367D01*
X107691Y551582D01*
X107976Y553015D01*
Y553620D01*
X102106D01*
Y554890D01*
X100836D01*
Y560510D01*
X99981D01*
X98548Y560225D01*
X97333Y559413D01*
X96522Y558198D01*
X96302Y557095D01*
X95032Y557220D01*
Y559812D01*
X95032D01*
X94335Y560661D01*
X94403Y561000D01*
X94067Y562685D01*
X93937Y562880D01*
X94536Y564000D01*
X149002D01*
Y561270D01*
X154750D01*
Y560000D01*
X156020D01*
Y554252D01*
X157968D01*
Y546732D01*
X151498D01*
Y547748D01*
X147020D01*
Y542000D01*
Y536252D01*
X151498D01*
Y537268D01*
X157968D01*
Y537188D01*
X158338D01*
Y531551D01*
X157068Y530514D01*
X156500Y530627D01*
X156270D01*
Y523500D01*
Y516373D01*
X156500D01*
X158080Y516687D01*
X159418Y517582D01*
X159725Y518040D01*
X160317Y517644D01*
X161500Y517409D01*
X164500D01*
X165683Y517644D01*
X166276Y518040D01*
X166582Y517582D01*
X167921Y516687D01*
X169500Y516373D01*
X169730D01*
Y523500D01*
Y530627D01*
X169500D01*
X168932Y530514D01*
X167662Y531551D01*
Y537188D01*
X168032D01*
Y537298D01*
X191468D01*
Y536968D01*
X199953D01*
Y530520D01*
X212730D01*
Y537548D01*
X206032D01*
Y550452D01*
X212730D01*
Y557480D01*
X199953D01*
Y551032D01*
X191468D01*
Y546622D01*
X168032D01*
Y555339D01*
X172938D01*
X174426Y555634D01*
X174722Y555693D01*
X176235Y556704D01*
X179869Y560338D01*
X182345D01*
X183706Y559294D01*
X185295Y558636D01*
X187000Y558412D01*
X188705Y558636D01*
X190294Y559294D01*
X191659Y560341D01*
X192706Y561706D01*
X193364Y563295D01*
X193457Y564000D01*
X199953D01*
Y560020D01*
X228048D01*
Y564000D01*
X237626D01*
Y1374D01*
D02*
G37*
%LPC*%
G36*
X104231Y560510D02*
X103376D01*
Y556160D01*
X107976D01*
Y556765D01*
X107691Y558198D01*
X106879Y559413D01*
X105665Y560225D01*
X104231Y560510D01*
D02*
G37*
G36*
X120748Y558998D02*
X116270D01*
Y554520D01*
X120748D01*
Y558998D01*
D02*
G37*
G36*
X113730D02*
X109252D01*
Y554520D01*
X113730D01*
Y558998D01*
D02*
G37*
G36*
X153480Y558730D02*
X149002D01*
Y554252D01*
X153480D01*
Y558730D01*
D02*
G37*
G36*
X228048Y557480D02*
X215270D01*
Y550452D01*
X228048D01*
Y557480D01*
D02*
G37*
G36*
X144480Y547748D02*
X140002D01*
Y543270D01*
X144480D01*
Y547748D01*
D02*
G37*
G36*
Y540730D02*
X140002D01*
Y536252D01*
X144480D01*
Y540730D01*
D02*
G37*
G36*
X228048Y537548D02*
X215270D01*
Y530520D01*
X228048D01*
Y537548D01*
D02*
G37*
G36*
X172500Y530627D02*
X172270D01*
Y524770D01*
X176627D01*
Y526500D01*
X176313Y528079D01*
X175418Y529418D01*
X174079Y530313D01*
X172500Y530627D01*
D02*
G37*
G36*
X228048Y527980D02*
X215270D01*
Y520952D01*
X228048D01*
Y527980D01*
D02*
G37*
G36*
X212730D02*
X199953D01*
Y520952D01*
X212730D01*
Y527980D01*
D02*
G37*
G36*
X176627Y522230D02*
X172270D01*
Y516373D01*
X172500D01*
X174079Y516687D01*
X175418Y517582D01*
X176313Y518921D01*
X176627Y520500D01*
Y522230D01*
D02*
G37*
G36*
X40477Y520224D02*
X27523D01*
Y506000D01*
Y491776D01*
X31133D01*
Y488324D01*
X30709Y488041D01*
X30122Y487162D01*
X29916Y486125D01*
Y481875D01*
X30122Y480838D01*
X30709Y479959D01*
X31588Y479372D01*
X32625Y479166D01*
X36375D01*
X37412Y479372D01*
X38977Y479227D01*
X40192Y478415D01*
X41625Y478130D01*
X42230D01*
Y484000D01*
Y489870D01*
X41625D01*
X40192Y489585D01*
X39137Y488880D01*
X38463Y489062D01*
X37867Y489398D01*
Y491776D01*
X40477D01*
Y506000D01*
Y508883D01*
X69036D01*
X69191Y508694D01*
X69545Y507755D01*
X69399Y507314D01*
X69144Y506933D01*
X68909Y505750D01*
Y502750D01*
X69144Y501567D01*
X69399Y501186D01*
X69710Y500250D01*
X69399Y499314D01*
X69207Y499027D01*
X60518D01*
X59577Y499655D01*
X57892Y499991D01*
X56208Y499655D01*
X54779Y498701D01*
X53825Y497273D01*
X53490Y495588D01*
X53825Y493903D01*
X54779Y492475D01*
X56208Y491521D01*
X57892Y491185D01*
X59577Y491521D01*
X61006Y492475D01*
X61230Y492811D01*
X67841D01*
X68523Y491541D01*
X68308Y491217D01*
X64417D01*
X63228Y490980D01*
X62219Y490307D01*
X61029Y489117D01*
X60355Y488108D01*
X60119Y486919D01*
Y484005D01*
X60113Y484001D01*
X59159Y482573D01*
X58824Y480888D01*
X59159Y479203D01*
X60113Y477775D01*
X61542Y476820D01*
X63226Y476485D01*
X64911Y476820D01*
X66340Y477775D01*
X67294Y479203D01*
X67629Y480888D01*
X67294Y482573D01*
X66520Y483732D01*
X66844Y484681D01*
X67082Y485002D01*
X68909D01*
X69604Y483931D01*
X69399Y483314D01*
X69144Y482933D01*
X68909Y481750D01*
Y478750D01*
X69144Y477567D01*
X69399Y477186D01*
X69710Y476250D01*
X69399Y475314D01*
X69144Y474933D01*
X68909Y473750D01*
Y470750D01*
X69144Y469567D01*
X69399Y469186D01*
X69671Y468368D01*
X69039Y467233D01*
X64532D01*
Y468532D01*
X57048D01*
Y469548D01*
X53020D01*
Y464000D01*
Y458452D01*
X54398D01*
X54884Y457279D01*
X52948Y455342D01*
X51571D01*
X50862Y455816D01*
X49177Y456151D01*
X47492Y455816D01*
X46064Y454862D01*
X45109Y453434D01*
X44774Y451749D01*
X45109Y450064D01*
X46064Y448636D01*
X47492Y447681D01*
X49177Y447346D01*
X50862Y447681D01*
X52290Y448636D01*
X52618Y449127D01*
X54235D01*
X55424Y449364D01*
X56432Y450037D01*
X62323Y455928D01*
X62996Y456936D01*
X63233Y458125D01*
Y459468D01*
X64532D01*
Y461017D01*
X67787D01*
X68466Y459747D01*
X68187Y459329D01*
X67873Y457750D01*
Y457520D01*
X75000D01*
X82127D01*
Y457750D01*
X81813Y459329D01*
X80919Y460668D01*
X80460Y460975D01*
X80856Y461567D01*
X81091Y462750D01*
Y465750D01*
X80856Y466933D01*
X80601Y467314D01*
X80290Y468250D01*
X80601Y469186D01*
X80856Y469567D01*
X81091Y470750D01*
Y473750D01*
X80856Y474933D01*
X80601Y475314D01*
X80290Y476250D01*
X80601Y477186D01*
X80856Y477567D01*
X81091Y478750D01*
Y481750D01*
X80856Y482933D01*
X80601Y483314D01*
X80290Y484250D01*
X80601Y485186D01*
X80856Y485567D01*
X81091Y486750D01*
Y489750D01*
X80856Y490933D01*
X80601Y491314D01*
X80290Y492250D01*
X80601Y493186D01*
X80856Y493567D01*
X81091Y494750D01*
Y497750D01*
X80856Y498933D01*
X80601Y499314D01*
X80290Y500250D01*
X80601Y501186D01*
X80856Y501567D01*
X81091Y502750D01*
Y505750D01*
X80856Y506933D01*
X80601Y507314D01*
X80290Y508250D01*
X80601Y509186D01*
X80856Y509567D01*
X81091Y510750D01*
Y513750D01*
X80856Y514933D01*
X80186Y515936D01*
X79183Y516606D01*
X78000Y516842D01*
X72000D01*
X70817Y516606D01*
X69814Y515936D01*
X69601Y515617D01*
X40477D01*
Y520224D01*
D02*
G37*
G36*
X108750Y502622D02*
X103270D01*
Y493270D01*
X112622D01*
Y498750D01*
X112328Y500232D01*
X111488Y501488D01*
X110232Y502328D01*
X108750Y502622D01*
D02*
G37*
G36*
X158750D02*
X153270D01*
Y493270D01*
X162622D01*
Y498750D01*
X162328Y500232D01*
X161488Y501488D01*
X160232Y502328D01*
X158750Y502622D01*
D02*
G37*
G36*
X133750D02*
X128270D01*
Y493270D01*
X137622D01*
Y498750D01*
X137328Y500232D01*
X136488Y501488D01*
X135232Y502328D01*
X133750Y502622D01*
D02*
G37*
G36*
X150730D02*
X145250D01*
X143768Y502328D01*
X142512Y501488D01*
X141672Y500232D01*
X141378Y498750D01*
Y493270D01*
X150730D01*
Y502622D01*
D02*
G37*
G36*
X125730D02*
X120250D01*
X118768Y502328D01*
X117512Y501488D01*
X116672Y500232D01*
X116378Y498750D01*
Y493270D01*
X125730D01*
Y502622D01*
D02*
G37*
G36*
X100730D02*
X95250D01*
X93768Y502328D01*
X92512Y501488D01*
X91672Y500232D01*
X91378Y498750D01*
Y493270D01*
X100730D01*
Y502622D01*
D02*
G37*
G36*
X45375Y489870D02*
X44770D01*
Y485270D01*
X49120D01*
Y486125D01*
X48835Y487558D01*
X48023Y488773D01*
X46808Y489585D01*
X45375Y489870D01*
D02*
G37*
G36*
X162622Y490730D02*
X153270D01*
Y481378D01*
X158750D01*
X160232Y481673D01*
X161488Y482512D01*
X162328Y483768D01*
X162622Y485250D01*
Y490730D01*
D02*
G37*
G36*
X150730D02*
X141378D01*
Y485250D01*
X141672Y483768D01*
X142512Y482512D01*
X143768Y481673D01*
X145250Y481378D01*
X150730D01*
Y490730D01*
D02*
G37*
G36*
X137622D02*
X128270D01*
Y481378D01*
X133750D01*
X135232Y481673D01*
X136488Y482512D01*
X137328Y483768D01*
X137622Y485250D01*
Y490730D01*
D02*
G37*
G36*
X125730D02*
X116378D01*
Y485250D01*
X116672Y483768D01*
X117512Y482512D01*
X118768Y481673D01*
X120250Y481378D01*
X125730D01*
Y490730D01*
D02*
G37*
G36*
X112622D02*
X103270D01*
Y481378D01*
X108750D01*
X110232Y481673D01*
X111488Y482512D01*
X112328Y483768D01*
X112622Y485250D01*
Y490730D01*
D02*
G37*
G36*
X100730D02*
X91378D01*
Y485250D01*
X91672Y483768D01*
X92512Y482512D01*
X93768Y481673D01*
X95250Y481378D01*
X100730D01*
Y490730D01*
D02*
G37*
G36*
X49120Y482730D02*
X44770D01*
Y478130D01*
X45375D01*
X46808Y478415D01*
X48023Y479227D01*
X48835Y480442D01*
X49120Y481875D01*
Y482730D01*
D02*
G37*
G36*
X108750Y477622D02*
X103270D01*
Y468270D01*
X112622D01*
Y473750D01*
X112328Y475232D01*
X111488Y476488D01*
X110232Y477328D01*
X108750Y477622D01*
D02*
G37*
G36*
X158750D02*
X153270D01*
Y468270D01*
X162622D01*
Y473750D01*
X162328Y475232D01*
X161488Y476488D01*
X160232Y477328D01*
X158750Y477622D01*
D02*
G37*
G36*
X133750D02*
X128270D01*
Y468270D01*
X137622D01*
Y473750D01*
X137328Y475232D01*
X136488Y476488D01*
X135232Y477328D01*
X133750Y477622D01*
D02*
G37*
G36*
X150730D02*
X145250D01*
X143768Y477328D01*
X142512Y476488D01*
X141672Y475232D01*
X141378Y473750D01*
Y468270D01*
X150730D01*
Y477622D01*
D02*
G37*
G36*
X125730D02*
X120250D01*
X118768Y477328D01*
X117512Y476488D01*
X116672Y475232D01*
X116378Y473750D01*
Y468270D01*
X125730D01*
Y477622D01*
D02*
G37*
G36*
X100730D02*
X95250D01*
X93768Y477328D01*
X92512Y476488D01*
X91672Y475232D01*
X91378Y473750D01*
Y468270D01*
X100730D01*
Y477622D01*
D02*
G37*
G36*
X50480Y469548D02*
X46452D01*
Y465270D01*
X50480D01*
Y469548D01*
D02*
G37*
G36*
Y462730D02*
X46452D01*
Y458452D01*
X50480D01*
Y462730D01*
D02*
G37*
G36*
X162622Y465730D02*
X153270D01*
Y456378D01*
X158750D01*
X160232Y456673D01*
X161488Y457512D01*
X162328Y458768D01*
X162622Y460250D01*
Y465730D01*
D02*
G37*
G36*
X150730D02*
X141378D01*
Y460250D01*
X141672Y458768D01*
X142512Y457512D01*
X143768Y456673D01*
X145250Y456378D01*
X150730D01*
Y465730D01*
D02*
G37*
G36*
X137622D02*
X128270D01*
Y456378D01*
X133750D01*
X135232Y456673D01*
X136488Y457512D01*
X137328Y458768D01*
X137622Y460250D01*
Y465730D01*
D02*
G37*
G36*
X125730D02*
X116378D01*
Y460250D01*
X116672Y458768D01*
X117512Y457512D01*
X118768Y456673D01*
X120250Y456378D01*
X125730D01*
Y465730D01*
D02*
G37*
G36*
X112622D02*
X103270D01*
Y456378D01*
X108750D01*
X110232Y456673D01*
X111488Y457512D01*
X112328Y458768D01*
X112622Y460250D01*
Y465730D01*
D02*
G37*
G36*
X100730D02*
X91378D01*
Y460250D01*
X91672Y458768D01*
X92512Y457512D01*
X93768Y456673D01*
X95250Y456378D01*
X100730D01*
Y465730D01*
D02*
G37*
G36*
X108750Y452622D02*
X103270D01*
Y443270D01*
X112622D01*
Y448750D01*
X112328Y450232D01*
X111488Y451488D01*
X110232Y452328D01*
X108750Y452622D01*
D02*
G37*
G36*
X158750D02*
X153270D01*
Y443270D01*
X162622D01*
Y448750D01*
X162328Y450232D01*
X161488Y451488D01*
X160232Y452328D01*
X158750Y452622D01*
D02*
G37*
G36*
X133750D02*
X128270D01*
Y443270D01*
X137622D01*
Y448750D01*
X137328Y450232D01*
X136488Y451488D01*
X135232Y452328D01*
X133750Y452622D01*
D02*
G37*
G36*
X150730D02*
X145250D01*
X143768Y452328D01*
X142512Y451488D01*
X141672Y450232D01*
X141378Y448750D01*
Y443270D01*
X150730D01*
Y452622D01*
D02*
G37*
G36*
X125730D02*
X120250D01*
X118768Y452328D01*
X117512Y451488D01*
X116672Y450232D01*
X116378Y448750D01*
Y443270D01*
X125730D01*
Y452622D01*
D02*
G37*
G36*
X100730D02*
X95250D01*
X93768Y452328D01*
X92512Y451488D01*
X91672Y450232D01*
X91378Y448750D01*
Y443270D01*
X100730D01*
Y452622D01*
D02*
G37*
G36*
X182000Y515592D02*
X176000D01*
X174817Y515356D01*
X173814Y514686D01*
X173144Y513683D01*
X172909Y512500D01*
Y509500D01*
X173144Y508317D01*
X173399Y507936D01*
X173710Y507000D01*
X173399Y506064D01*
X173144Y505683D01*
X172909Y504500D01*
Y501500D01*
X173144Y500317D01*
X173814Y499314D01*
Y498686D01*
X173144Y497683D01*
X172909Y496500D01*
Y493500D01*
X173144Y492317D01*
X173399Y491936D01*
X173710Y491000D01*
X173399Y490064D01*
X173144Y489683D01*
X172909Y488500D01*
Y485500D01*
X173144Y484317D01*
X173399Y483936D01*
X173710Y483000D01*
X173399Y482064D01*
X173144Y481683D01*
X172909Y480500D01*
Y477500D01*
X173144Y476317D01*
X173399Y475936D01*
X173710Y475000D01*
X173399Y474064D01*
X173144Y473683D01*
X172909Y472500D01*
Y469500D01*
X173144Y468317D01*
X173399Y467936D01*
X173710Y467000D01*
X173399Y466064D01*
X173144Y465683D01*
X172909Y464500D01*
Y461500D01*
X173144Y460317D01*
X173399Y459936D01*
X173710Y459000D01*
X173399Y458064D01*
X173144Y457683D01*
X172909Y456500D01*
Y453500D01*
X173144Y452317D01*
X173399Y451936D01*
X173710Y451000D01*
X173399Y450064D01*
X173144Y449683D01*
X172909Y448500D01*
Y445500D01*
X173144Y444317D01*
X173814Y443314D01*
Y442686D01*
X173144Y441683D01*
X172909Y440500D01*
Y437500D01*
X173144Y436317D01*
X173399Y435936D01*
X173710Y435000D01*
X173399Y434064D01*
X173144Y433683D01*
X172909Y432500D01*
Y429500D01*
X173144Y428317D01*
X173399Y427936D01*
X173710Y427000D01*
X173399Y426064D01*
X173144Y425683D01*
X172909Y424500D01*
Y421500D01*
X173144Y420317D01*
X173814Y419314D01*
X174817Y418644D01*
X176000Y418409D01*
X182000D01*
X183183Y418644D01*
X184186Y419314D01*
X184856Y420317D01*
X185091Y421500D01*
Y424500D01*
X184856Y425683D01*
X184601Y426064D01*
X184290Y427000D01*
X184601Y427936D01*
X184856Y428317D01*
X185091Y429500D01*
Y432500D01*
X184856Y433683D01*
X184601Y434064D01*
X184455Y434505D01*
X184809Y435444D01*
X184964Y435633D01*
X194201D01*
X194687Y435309D01*
X196273Y434993D01*
X197858Y435309D01*
X199203Y436207D01*
X200101Y437551D01*
X200416Y439137D01*
X200101Y440723D01*
X199203Y442067D01*
X198826Y442319D01*
Y443846D01*
X199203Y444098D01*
X200101Y445443D01*
X200416Y447028D01*
X200101Y448614D01*
X199203Y449958D01*
X198603Y450359D01*
Y451886D01*
X199203Y452287D01*
X200101Y453631D01*
X200416Y455217D01*
X200101Y456803D01*
X199203Y458147D01*
X199345Y459580D01*
X199572Y459732D01*
X200471Y461076D01*
X200786Y462662D01*
X200471Y464247D01*
X199572Y465592D01*
X198953Y466006D01*
X198912Y466134D01*
X199039Y467475D01*
X199930Y468070D01*
X200828Y469414D01*
X201144Y471000D01*
X200828Y472586D01*
X199930Y473930D01*
X198586Y474828D01*
X197000Y475144D01*
X195414Y474828D01*
X194724Y474367D01*
X184964D01*
X184809Y474556D01*
X184455Y475495D01*
X184601Y475936D01*
X184856Y476317D01*
X185091Y477500D01*
Y480500D01*
X184856Y481683D01*
X184601Y482064D01*
X184290Y483000D01*
X184601Y483936D01*
X184856Y484317D01*
X185091Y485500D01*
Y488500D01*
X184856Y489683D01*
X184601Y490064D01*
X184290Y491000D01*
X184601Y491936D01*
X184856Y492317D01*
X185091Y493500D01*
Y496500D01*
X184856Y497683D01*
X184601Y498064D01*
X184290Y499000D01*
X184601Y499936D01*
X184856Y500317D01*
X185091Y501500D01*
Y504500D01*
X184856Y505683D01*
X184601Y506064D01*
X184290Y507000D01*
X184601Y507936D01*
X184856Y508317D01*
X185091Y509500D01*
Y512500D01*
X184856Y513683D01*
X184186Y514686D01*
X183183Y515356D01*
X182000Y515592D01*
D02*
G37*
G36*
X162622Y440730D02*
X153270D01*
Y431378D01*
X158750D01*
X160232Y431673D01*
X161488Y432512D01*
X162328Y433768D01*
X162622Y435250D01*
Y440730D01*
D02*
G37*
G36*
X150730D02*
X141378D01*
Y435250D01*
X141672Y433768D01*
X142512Y432512D01*
X143768Y431673D01*
X145250Y431378D01*
X150730D01*
Y440730D01*
D02*
G37*
G36*
X137622D02*
X128270D01*
Y431378D01*
X133750D01*
X135232Y431673D01*
X136488Y432512D01*
X137328Y433768D01*
X137622Y435250D01*
Y440730D01*
D02*
G37*
G36*
X125730D02*
X116378D01*
Y435250D01*
X116672Y433768D01*
X117512Y432512D01*
X118768Y431673D01*
X120250Y431378D01*
X125730D01*
Y440730D01*
D02*
G37*
G36*
X112622D02*
X103270D01*
Y431378D01*
X108750D01*
X110232Y431673D01*
X111488Y432512D01*
X112328Y433768D01*
X112622Y435250D01*
Y440730D01*
D02*
G37*
G36*
X100730D02*
X91378D01*
Y435250D01*
X91672Y433768D01*
X92512Y432512D01*
X93768Y431673D01*
X95250Y431378D01*
X100730D01*
Y440730D01*
D02*
G37*
G36*
X82127Y454980D02*
X75000D01*
X67873D01*
Y454750D01*
X68187Y453171D01*
X69082Y451832D01*
X69540Y451525D01*
X69144Y450933D01*
X68909Y449750D01*
Y446750D01*
X69144Y445567D01*
X69399Y445186D01*
X69710Y444250D01*
X69399Y443314D01*
X69144Y442933D01*
X68909Y441750D01*
Y438750D01*
X69144Y437567D01*
X69399Y437186D01*
X69710Y436250D01*
X69399Y435314D01*
X69144Y434933D01*
X68909Y433750D01*
Y430750D01*
X69144Y429567D01*
X69399Y429186D01*
X69710Y428250D01*
X69399Y427314D01*
X69144Y426933D01*
X68909Y425750D01*
Y422750D01*
X69144Y421567D01*
X69592Y420896D01*
X69567Y420770D01*
X69567Y420770D01*
X65488Y416691D01*
X64150Y417149D01*
X63490Y418136D01*
X62347Y419279D01*
X62067Y420685D01*
X61113Y422113D01*
X59685Y423068D01*
X58000Y423403D01*
X56315Y423068D01*
X54887Y422113D01*
X53933Y420685D01*
X53597Y419000D01*
X53933Y417315D01*
X54134Y417015D01*
X53535Y415894D01*
X51901D01*
X50709Y416691D01*
X49024Y417026D01*
X47339Y416691D01*
X45911Y415736D01*
X44957Y414308D01*
X44622Y412623D01*
X44957Y410938D01*
X45911Y409510D01*
X47339Y408556D01*
X49024Y408221D01*
X50709Y408556D01*
X50977Y408735D01*
X53929D01*
X58094Y404570D01*
X59255Y403794D01*
X60625Y403522D01*
X60625Y403522D01*
X68018D01*
X68019Y403522D01*
X69389Y403794D01*
X70550Y404570D01*
X75648Y409669D01*
X78409D01*
Y407500D01*
X78644Y406317D01*
X79314Y405314D01*
X80317Y404644D01*
X81500Y404409D01*
X84500D01*
X85683Y404644D01*
X86686Y405314D01*
X87314D01*
X88317Y404644D01*
X89500Y404409D01*
X92500D01*
X93683Y404644D01*
X94149Y404955D01*
X94925Y404152D01*
X94551Y402976D01*
X89625D01*
X88337Y402719D01*
X87244Y401990D01*
X83137Y397883D01*
X82125Y398084D01*
X77875D01*
X76838Y397878D01*
X75960Y397291D01*
X75040Y397291D01*
X74162Y397878D01*
X73125Y398084D01*
X68875D01*
X67838Y397878D01*
X67352Y397553D01*
X66940Y397828D01*
X65355Y398144D01*
X63769Y397828D01*
X62425Y396930D01*
X61526Y395586D01*
X61211Y394000D01*
X61526Y392414D01*
X62425Y391070D01*
X63769Y390172D01*
X65355Y389856D01*
X65365Y389859D01*
X66005Y388691D01*
X65415Y387808D01*
X65130Y386375D01*
Y385770D01*
X71000D01*
Y384500D01*
X72270D01*
Y378880D01*
X73125D01*
X74558Y379165D01*
X75500Y379795D01*
X76442Y379165D01*
X77875Y378880D01*
X78730D01*
Y384500D01*
X80000D01*
Y385770D01*
X85870D01*
Y386375D01*
X85585Y387808D01*
X84773Y389023D01*
X84713Y389262D01*
X84762Y389867D01*
X84909Y390460D01*
X85897Y391119D01*
X91020Y396242D01*
X95061D01*
X95587Y394972D01*
X94943Y394008D01*
X94628Y392422D01*
X94943Y390837D01*
X95841Y389492D01*
X97186Y388594D01*
X98771Y388279D01*
X98887Y387193D01*
X104771D01*
Y385923D01*
X106041D01*
Y380303D01*
X106896D01*
X108329Y380588D01*
X109532Y381391D01*
X110452Y380776D01*
X111885Y380491D01*
X112740D01*
Y386111D01*
X114010D01*
Y387381D01*
X119880D01*
Y387986D01*
X119595Y389419D01*
X118784Y390634D01*
X118638Y392199D01*
X118844Y393236D01*
Y395990D01*
X120114Y396375D01*
X120619Y395620D01*
X123283Y392956D01*
X123372Y392507D01*
X123227Y390942D01*
X122415Y389727D01*
X122130Y388294D01*
Y387689D01*
X128000D01*
Y386419D01*
X129270D01*
Y380799D01*
X130125D01*
X131558Y381084D01*
X132687Y381838D01*
X133442Y381334D01*
X134875Y381049D01*
X135730D01*
Y386668D01*
X138270D01*
Y381049D01*
X139125D01*
X140558Y381334D01*
X141773Y382145D01*
X142227D01*
X143442Y381334D01*
X144875Y381049D01*
X145730D01*
Y386668D01*
X147000D01*
Y387938D01*
X152870D01*
Y388544D01*
X152625Y389775D01*
X153068Y390463D01*
X153498Y390896D01*
X153840Y390828D01*
X155525Y391163D01*
X156953Y392118D01*
X157907Y393546D01*
X158243Y395231D01*
X157907Y396916D01*
X156953Y398344D01*
X155525Y399298D01*
X153840Y399633D01*
X152155Y399298D01*
X151459Y398833D01*
X151041Y399459D01*
X150162Y400046D01*
X149125Y400252D01*
X144875D01*
X143838Y400046D01*
X142959Y399459D01*
X142676Y399035D01*
X141324D01*
X141041Y399459D01*
X140162Y400046D01*
X139125Y400252D01*
X134875D01*
X133838Y400046D01*
X133265Y399663D01*
X132752Y399473D01*
X131524Y399554D01*
X131162Y399796D01*
X130125Y400003D01*
X126367D01*
Y403198D01*
X127637Y403877D01*
X127921Y403687D01*
X129500Y403373D01*
X129730D01*
Y410500D01*
Y417627D01*
X129500D01*
X127921Y417313D01*
X126582Y416418D01*
X126276Y415960D01*
X125683Y416356D01*
X124500Y416591D01*
X121500D01*
X120317Y416356D01*
X119936Y416101D01*
X119000Y415790D01*
X118064Y416101D01*
X117683Y416356D01*
X116500Y416591D01*
X113500D01*
X112317Y416356D01*
X111936Y416101D01*
X111000Y415790D01*
X110064Y416101D01*
X109683Y416356D01*
X108500Y416591D01*
X105500D01*
X104317Y416356D01*
X103725Y415960D01*
X103419Y416418D01*
X102079Y417313D01*
X100500Y417627D01*
X100270D01*
Y410500D01*
X97730D01*
Y417627D01*
X97500D01*
X95921Y417313D01*
X94582Y416418D01*
X94276Y415960D01*
X93683Y416356D01*
X92500Y416591D01*
X92348D01*
X92319Y416739D01*
X91543Y417900D01*
X91543Y417900D01*
X88672Y420770D01*
X87511Y421546D01*
X86141Y421819D01*
X86141Y421819D01*
X82275D01*
X81781Y423089D01*
X85042Y426350D01*
X85043Y426350D01*
X85819Y427511D01*
X86091Y428881D01*
X86091Y428882D01*
Y443619D01*
X86091Y443619D01*
X85819Y444989D01*
X85043Y446150D01*
X85042Y446150D01*
X81432Y449761D01*
X81037Y450025D01*
X80856Y450933D01*
X80460Y451525D01*
X80919Y451832D01*
X81813Y453171D01*
X82127Y454750D01*
Y454980D01*
D02*
G37*
G36*
X132500Y417627D02*
X132270D01*
Y410500D01*
Y403373D01*
X132500D01*
X134080Y403687D01*
X135419Y404582D01*
X135725Y405040D01*
X136317Y404644D01*
X137500Y404409D01*
X140500D01*
X141683Y404644D01*
X142686Y405314D01*
X143314D01*
X144317Y404644D01*
X145500Y404409D01*
X148500D01*
X149683Y404644D01*
X150686Y405314D01*
X151314D01*
X152317Y404644D01*
X153500Y404409D01*
X156500D01*
X157683Y404644D01*
X158686Y405314D01*
X159314D01*
X160317Y404644D01*
X161500Y404409D01*
X164500D01*
X165683Y404644D01*
X166686Y405314D01*
X167314D01*
X168317Y404644D01*
X169500Y404409D01*
X172500D01*
X173683Y404644D01*
X174686Y405314D01*
X175356Y406317D01*
X175591Y407500D01*
Y413500D01*
X175356Y414683D01*
X174686Y415686D01*
X173683Y416356D01*
X172500Y416591D01*
X169500D01*
X168317Y416356D01*
X167314Y415686D01*
X166686D01*
X165683Y416356D01*
X164500Y416591D01*
X161500D01*
X160317Y416356D01*
X159314Y415686D01*
X158686D01*
X157683Y416356D01*
X156500Y416591D01*
X153500D01*
X152317Y416356D01*
X151314Y415686D01*
X150686D01*
X149683Y416356D01*
X148500Y416591D01*
X145500D01*
X144317Y416356D01*
X143314Y415686D01*
X142686D01*
X141683Y416356D01*
X140500Y416591D01*
X137500D01*
X136317Y416356D01*
X135725Y415960D01*
X135419Y416418D01*
X134080Y417313D01*
X132500Y417627D01*
D02*
G37*
G36*
X152870Y385398D02*
X148270D01*
Y381049D01*
X149125D01*
X150558Y381334D01*
X151773Y382145D01*
X152585Y383360D01*
X152870Y384794D01*
Y385398D01*
D02*
G37*
G36*
X126730Y385149D02*
X122130D01*
Y384544D01*
X122415Y383110D01*
X123227Y381895D01*
X124442Y381084D01*
X125875Y380799D01*
X126730D01*
Y385149D01*
D02*
G37*
G36*
X119880Y384841D02*
X115280D01*
Y380491D01*
X116135D01*
X117569Y380776D01*
X118783Y381588D01*
X119595Y382803D01*
X119880Y384236D01*
Y384841D01*
D02*
G37*
G36*
X103501Y384653D02*
X98901D01*
Y384048D01*
X99186Y382614D01*
X99998Y381399D01*
X101213Y380588D01*
X102646Y380303D01*
X103501D01*
Y384653D01*
D02*
G37*
G36*
X85870Y383230D02*
X81270D01*
Y378880D01*
X82125D01*
X83558Y379165D01*
X84773Y379977D01*
X85585Y381192D01*
X85870Y382625D01*
Y383230D01*
D02*
G37*
G36*
X69730Y383230D02*
X65130D01*
Y382625D01*
X65415Y381192D01*
X66227Y379977D01*
X67442Y379165D01*
X68875Y378880D01*
X69730D01*
Y383230D01*
D02*
G37*
G36*
X119367Y378100D02*
X115031Y377759D01*
X110802Y376744D01*
X106783Y375079D01*
X103075Y372807D01*
X99768Y369982D01*
X96943Y366675D01*
X94670Y362966D01*
X93006Y358948D01*
X91991Y354719D01*
X91649Y350383D01*
X91991Y346047D01*
X93006Y341818D01*
X94670Y337799D01*
X96943Y334091D01*
X99768Y330784D01*
X103075Y327959D01*
X106783Y325686D01*
X110802Y324022D01*
X115031Y323007D01*
X119367Y322665D01*
X123703Y323007D01*
X127932Y324022D01*
X131950Y325686D01*
X135659Y327959D01*
X138966Y330784D01*
X141791Y334091D01*
X144063Y337799D01*
X145728Y341818D01*
X146743Y346047D01*
X147084Y350383D01*
X146743Y354719D01*
X145728Y358948D01*
X144063Y362966D01*
X141791Y366675D01*
X138966Y369982D01*
X135659Y372807D01*
X131950Y375079D01*
X127932Y376744D01*
X123703Y377759D01*
X119367Y378100D01*
D02*
G37*
G36*
X37907Y369846D02*
X36321Y369530D01*
X34977Y368632D01*
X34079Y367288D01*
X33763Y365702D01*
X34079Y364116D01*
X34248Y363862D01*
Y361821D01*
X32948Y360520D01*
X32218Y359428D01*
X31962Y358139D01*
Y354212D01*
X30077D01*
Y344748D01*
Y335348D01*
X31534D01*
Y294690D01*
X29104D01*
Y272846D01*
X35519D01*
X39169Y269196D01*
X40262Y268466D01*
X41550Y268209D01*
X43199D01*
X49388Y262021D01*
X48762Y260850D01*
X47931Y261016D01*
X46346Y260700D01*
X45001Y259802D01*
X44103Y258458D01*
X43788Y256872D01*
X44050Y255552D01*
X43565Y254655D01*
X43247Y254282D01*
X42718D01*
Y243718D01*
Y238479D01*
X38883Y234644D01*
X37709Y235130D01*
Y235635D01*
X37424Y237068D01*
X36612Y238283D01*
X35397Y239095D01*
X33964Y239380D01*
X33109D01*
Y233760D01*
X30569D01*
Y239380D01*
X29714D01*
X28281Y239095D01*
X27066Y238283D01*
X25800Y238673D01*
X25558Y238835D01*
X24125Y239120D01*
X23270D01*
Y233500D01*
X22000D01*
Y232230D01*
X16130D01*
Y231625D01*
X16415Y230192D01*
X17227Y228977D01*
X17372Y227412D01*
X17166Y226375D01*
Y225367D01*
X14276D01*
X13586Y225828D01*
X12000Y226144D01*
X10414Y225828D01*
X9070Y224930D01*
X8172Y223586D01*
X7856Y222000D01*
X8172Y220414D01*
X9070Y219070D01*
X10414Y218172D01*
X12000Y217856D01*
X13586Y218172D01*
X14276Y218633D01*
X20856D01*
X25528Y213960D01*
X25042Y212787D01*
X23218D01*
Y206117D01*
X13000D01*
X11712Y205860D01*
X10619Y205131D01*
X10544Y205018D01*
X9838Y204878D01*
X8959Y204291D01*
X8372Y203412D01*
X8166Y202375D01*
Y198625D01*
X8372Y197588D01*
X8227Y196023D01*
X7415Y194808D01*
X7130Y193375D01*
Y192770D01*
X18870D01*
Y193375D01*
X18585Y194808D01*
X17773Y196023D01*
X17628Y197588D01*
X17834Y198625D01*
Y199383D01*
X23218D01*
Y193973D01*
X25081D01*
Y192637D01*
X25338Y191349D01*
X26067Y190257D01*
X32574Y183750D01*
X33666Y183021D01*
X34954Y182764D01*
X60224D01*
X60710Y181591D01*
X57619Y178500D01*
X56890Y177408D01*
X56633Y176119D01*
Y154027D01*
X32798D01*
Y155043D01*
X28770D01*
Y144620D01*
X27500D01*
D01*
X28770D01*
Y134197D01*
X30633D01*
Y132616D01*
X30119Y132102D01*
X29390Y131010D01*
X29272Y130416D01*
X28709Y130041D01*
X28122Y129162D01*
X27916Y128125D01*
Y123875D01*
X28122Y122838D01*
X28709Y121959D01*
X28883Y121843D01*
Y119609D01*
X28861Y119588D01*
X27613Y119047D01*
X26808Y119585D01*
X25375Y119870D01*
X24770D01*
Y114000D01*
Y108130D01*
X25375D01*
X26808Y108415D01*
X27468Y108856D01*
X28650Y108393D01*
X28683Y108214D01*
X28677Y107548D01*
X28621Y107232D01*
X27959Y106791D01*
X27372Y105912D01*
X27166Y104875D01*
Y101125D01*
X27372Y100088D01*
X27959Y99209D01*
Y97791D01*
X27372Y96912D01*
X27166Y95875D01*
Y92125D01*
X27372Y91088D01*
X27959Y90209D01*
X28633Y89759D01*
Y86382D01*
X21368D01*
Y67618D01*
X29240D01*
X46401Y50457D01*
X47913Y49446D01*
X49697Y49091D01*
X51978D01*
X52039Y48626D01*
X53128Y45997D01*
X54860Y43740D01*
X57118Y42008D01*
X59747Y40919D01*
X62568Y40547D01*
X65389Y40919D01*
X68018Y42008D01*
X70276Y43740D01*
X72008Y45997D01*
X73097Y48626D01*
X73468Y51448D01*
X73097Y54269D01*
X72008Y56898D01*
X70276Y59155D01*
X68018Y60887D01*
X65389Y61976D01*
X62568Y62348D01*
X59747Y61976D01*
X57118Y60887D01*
X54860Y59155D01*
X54292Y58414D01*
X51628D01*
X43598Y66445D01*
X44084Y67618D01*
X54632D01*
Y70762D01*
X65804D01*
Y84826D01*
X54632D01*
Y86382D01*
X45845D01*
X45514Y86713D01*
Y89942D01*
X45541Y89959D01*
X46128Y90838D01*
X46334Y91875D01*
Y95625D01*
X46128Y96662D01*
X45541Y97541D01*
Y98959D01*
X46128Y99838D01*
X46334Y100875D01*
Y104625D01*
X46128Y105662D01*
X45541Y106540D01*
X44867Y106991D01*
Y108603D01*
X45463Y108938D01*
X46137Y109120D01*
X47192Y108415D01*
X48625Y108130D01*
X49230D01*
Y114000D01*
Y119870D01*
X48625D01*
X47192Y119585D01*
X46137Y118880D01*
X45463Y119062D01*
X44867Y119397D01*
Y121676D01*
X45291Y121959D01*
X45878Y122838D01*
X46084Y123875D01*
Y128125D01*
X45878Y129162D01*
X45291Y130041D01*
X44786Y130378D01*
X44610Y131260D01*
X43881Y132352D01*
X43867Y132366D01*
Y135213D01*
X56633D01*
Y121434D01*
X56890Y120145D01*
X57619Y119053D01*
X72053Y104619D01*
X73145Y103890D01*
X74434Y103633D01*
X89894D01*
X90045Y103532D01*
X91150Y103313D01*
X98650D01*
X99755Y103532D01*
X100383Y103952D01*
X106180D01*
Y119000D01*
Y134048D01*
X100383D01*
X99755Y134468D01*
X98650Y134688D01*
X98267D01*
Y141080D01*
X99070Y141239D01*
X100015Y141871D01*
X100647Y142816D01*
X100869Y143931D01*
Y149880D01*
X100647Y150995D01*
X100015Y151940D01*
X99070Y152572D01*
X97955Y152794D01*
X93566D01*
X93210Y153198D01*
X93784Y154468D01*
X102532D01*
Y159024D01*
X103324Y159181D01*
X104486Y159958D01*
X106175Y161647D01*
X107000Y161883D01*
X107825Y161647D01*
X109514Y159958D01*
X109514Y159958D01*
X110676Y159181D01*
X111468Y159024D01*
Y154468D01*
X127532D01*
Y156420D01*
X134006D01*
X134347Y155804D01*
X134444Y155185D01*
X134064Y154931D01*
X133109Y153503D01*
X132774Y151818D01*
X133109Y150133D01*
X134064Y148705D01*
X135492Y147751D01*
X137177Y147415D01*
X138862Y147751D01*
X140290Y148705D01*
X141244Y150133D01*
X141580Y151818D01*
X141578Y151824D01*
X142646Y152892D01*
X167000D01*
X168228Y151842D01*
Y134000D01*
X168386Y133207D01*
X168835Y132535D01*
X169507Y132086D01*
X170300Y131928D01*
X184900D01*
X185693Y132086D01*
X186150Y132392D01*
X186607Y132086D01*
X187400Y131928D01*
X194400D01*
X195193Y132086D01*
X195865Y132535D01*
X196314Y133207D01*
X196472Y134000D01*
Y137178D01*
X214900D01*
X214953Y137189D01*
X215006Y137181D01*
X215396Y137201D01*
X215451Y137215D01*
X215507Y137210D01*
X215887Y137250D01*
X216026Y137293D01*
X216171Y137300D01*
X216350Y137344D01*
X216400Y137368D01*
X216454Y137373D01*
X216636Y137429D01*
X216636Y137429D01*
X216996Y137539D01*
X217149Y137621D01*
X217316Y137667D01*
X217696Y137857D01*
X217760Y137906D01*
X217836Y137934D01*
X218186Y138144D01*
X218266Y138216D01*
X218363Y138263D01*
X218683Y138503D01*
X218732Y138558D01*
X218797Y138594D01*
X219097Y138854D01*
X219187Y138970D01*
X219302Y139059D01*
X219572Y139369D01*
X219608Y139431D01*
X219662Y139479D01*
X219911Y139809D01*
X219976Y139942D01*
X220071Y140054D01*
X220271Y140414D01*
X220289Y140468D01*
X220323Y140514D01*
X220503Y140884D01*
X220542Y141031D01*
X220615Y141164D01*
X220745Y141574D01*
X220758Y141694D01*
X220804Y141806D01*
X220864Y142116D01*
X220864Y142176D01*
X220883Y142233D01*
X220933Y142603D01*
X220928Y142687D01*
X220949Y142768D01*
X220969Y143138D01*
X220961Y143194D01*
X220972Y143250D01*
Y148250D01*
X220962Y148298D01*
X220970Y148346D01*
X220950Y148776D01*
X220922Y148887D01*
X220927Y149001D01*
X220862Y149416D01*
X220824Y149518D01*
X220817Y149627D01*
X220712Y150022D01*
X220663Y150123D01*
X220644Y150234D01*
X220494Y150624D01*
X220426Y150731D01*
X220390Y150852D01*
X220220Y151172D01*
X220195Y151203D01*
X220182Y151240D01*
X220002Y151550D01*
X219919Y151644D01*
X219864Y151757D01*
X219619Y152082D01*
X219511Y152179D01*
X219430Y152300D01*
X219165Y152565D01*
X219133Y152587D01*
X219110Y152618D01*
X218856Y152853D01*
Y154218D01*
X224932D01*
Y172532D01*
X224932D01*
Y173468D01*
X224932D01*
Y191782D01*
X219165D01*
X218768Y192608D01*
X218707Y193046D01*
X218830Y193122D01*
X219110Y193382D01*
X219133Y193413D01*
X219165Y193435D01*
X219430Y193700D01*
X219511Y193821D01*
X219619Y193918D01*
X219864Y194243D01*
X219919Y194356D01*
X220002Y194450D01*
X220182Y194760D01*
X220194Y194797D01*
X220220Y194828D01*
X220390Y195148D01*
X220426Y195269D01*
X220494Y195376D01*
X220644Y195766D01*
X220663Y195877D01*
X220712Y195978D01*
X220817Y196373D01*
X220824Y196482D01*
X220862Y196584D01*
X220927Y196999D01*
X220922Y197113D01*
X220950Y197224D01*
X220970Y197654D01*
X220962Y197702D01*
X220972Y197750D01*
Y202750D01*
X220961Y202806D01*
X220969Y202862D01*
X220949Y203232D01*
X220928Y203313D01*
X220933Y203398D01*
X220883Y203768D01*
X220864Y203824D01*
X220864Y203884D01*
X220804Y204194D01*
X220758Y204306D01*
X220745Y204426D01*
X220615Y204836D01*
X220542Y204969D01*
X220503Y205116D01*
X220323Y205486D01*
X220289Y205532D01*
X220271Y205586D01*
X220071Y205946D01*
X219976Y206059D01*
X219911Y206191D01*
X219661Y206521D01*
X219608Y206569D01*
X219572Y206631D01*
X219302Y206941D01*
X219187Y207030D01*
X219097Y207146D01*
X218797Y207406D01*
X218732Y207442D01*
X218683Y207498D01*
X218363Y207738D01*
X218266Y207784D01*
X218186Y207857D01*
X217836Y208067D01*
X217760Y208094D01*
X217696Y208143D01*
X217316Y208333D01*
X217149Y208379D01*
X216996Y208461D01*
X216636Y208571D01*
X216454Y208627D01*
X216400Y208632D01*
X216350Y208656D01*
X216171Y208700D01*
X216026Y208707D01*
X215887Y208750D01*
X215507Y208790D01*
X215451Y208785D01*
X215396Y208799D01*
X215006Y208819D01*
X214953Y208811D01*
X214900Y208822D01*
X213082D01*
X212596Y209995D01*
X217271Y214669D01*
X218001Y215762D01*
X218240Y216968D01*
X221052D01*
Y227032D01*
X212668D01*
Y228048D01*
X208190D01*
Y222000D01*
X206920D01*
Y220730D01*
X201172D01*
Y215952D01*
X207371D01*
X207857Y214779D01*
X205519Y212441D01*
X204790Y211348D01*
X204533Y210060D01*
Y208822D01*
X196472D01*
Y212000D01*
X196314Y212793D01*
X195865Y213465D01*
X195193Y213914D01*
X194400Y214072D01*
X187400D01*
X186607Y213914D01*
X186150Y213609D01*
X185693Y213914D01*
X184900Y214072D01*
X170300D01*
X169507Y213914D01*
X168835Y213465D01*
X168386Y212793D01*
X168228Y212000D01*
Y192000D01*
X168386Y191207D01*
X168418Y191159D01*
X168868Y190032D01*
X168868Y190032D01*
X168868Y190032D01*
Y181968D01*
Y176367D01*
X163032D01*
Y177282D01*
X150968D01*
Y168718D01*
Y160718D01*
X163032D01*
Y162560D01*
X167369D01*
X167895Y161290D01*
X165713Y159108D01*
X141359D01*
X140170Y158871D01*
X139598Y158489D01*
X138788Y159476D01*
X140031Y160718D01*
X147032D01*
Y168718D01*
Y177282D01*
X140031D01*
X136781Y180531D01*
X135620Y181307D01*
X134250Y181580D01*
X134250Y181580D01*
X127532D01*
Y183532D01*
X111468D01*
Y178976D01*
X110676Y178818D01*
X109514Y178043D01*
X109514Y178042D01*
X107825Y176353D01*
X107000Y176117D01*
X106175Y176353D01*
X104486Y178043D01*
X103324Y178818D01*
X102532Y178976D01*
Y183532D01*
X86468D01*
Y181791D01*
X85098D01*
X84685Y182068D01*
X83000Y182403D01*
X81315Y182068D01*
X79887Y181113D01*
X78933Y179685D01*
X78597Y178000D01*
X78933Y176315D01*
X79887Y174887D01*
X81315Y173932D01*
X83000Y173597D01*
X84182Y173832D01*
X85452Y173034D01*
Y170270D01*
X94500D01*
Y167730D01*
X85452D01*
Y164082D01*
X85285Y163861D01*
X84182Y163167D01*
X83000Y163403D01*
X81315Y163067D01*
X79887Y162113D01*
X78933Y160685D01*
X78597Y159000D01*
X78933Y157315D01*
X79887Y155887D01*
X81065Y155099D01*
X80847Y153829D01*
X79002D01*
X77491Y153529D01*
X76210Y152673D01*
X75354Y151391D01*
X75053Y149880D01*
Y148175D01*
X81479D01*
Y145635D01*
X75053D01*
Y143931D01*
X75354Y142420D01*
X76210Y141138D01*
X76959Y140638D01*
X76957Y140289D01*
X76887Y140167D01*
X75682Y139347D01*
X74754Y139531D01*
X73169Y139216D01*
X72052Y138470D01*
X71221Y138731D01*
X70782Y139032D01*
Y154027D01*
X69867D01*
Y174759D01*
X87366Y192258D01*
X88096Y193351D01*
X88352Y194639D01*
Y229256D01*
X107157Y248061D01*
X137953D01*
X139242Y248318D01*
X140334Y249047D01*
X144154Y252867D01*
X147193D01*
X148148Y251597D01*
X148113Y251421D01*
Y248046D01*
X148210Y247561D01*
X148155Y247524D01*
X147358Y246330D01*
X147077Y244921D01*
Y244504D01*
X152646D01*
Y243234D01*
X153916D01*
Y237865D01*
X154534D01*
X155351Y238028D01*
X156426Y237105D01*
X156452Y237050D01*
X156401Y236795D01*
Y233045D01*
X156607Y232008D01*
X156462Y230443D01*
X155650Y229228D01*
X155365Y227795D01*
Y227190D01*
X161235D01*
X167105D01*
Y227795D01*
X166820Y229228D01*
X166688Y229425D01*
X167496Y230299D01*
X167589Y230364D01*
X169246Y230034D01*
X170931Y230369D01*
X172359Y231324D01*
X173313Y232752D01*
X173648Y234437D01*
X173313Y236122D01*
X172359Y237550D01*
X172237Y237631D01*
X172623Y238901D01*
X173934D01*
X174946Y239102D01*
X175804Y239676D01*
X175869Y239773D01*
X178577D01*
X179090Y239006D01*
X179958Y238426D01*
Y236373D01*
X179788Y236118D01*
X179473Y234533D01*
X179788Y232947D01*
X180686Y231603D01*
X182030Y230704D01*
X183616Y230389D01*
X185202Y230704D01*
X186546Y231603D01*
X187444Y232947D01*
X187760Y234533D01*
X187444Y236118D01*
X187227Y236444D01*
X187315Y236774D01*
X188573Y237461D01*
X190006Y237176D01*
X190611D01*
Y243046D01*
X191881D01*
D01*
X190611D01*
Y248916D01*
X190006D01*
X188573Y248631D01*
X187358Y247819D01*
X186241Y247715D01*
X185017Y248592D01*
Y249169D01*
X184761Y250458D01*
X184031Y251550D01*
X177915Y257666D01*
X176823Y258396D01*
X176569Y258447D01*
X176394Y258853D01*
X176378Y258934D01*
X176324Y259014D01*
X176077Y259584D01*
X176378Y260034D01*
X176579Y261046D01*
Y264421D01*
X176378Y265434D01*
X175804Y266292D01*
X174946Y266865D01*
X173934Y267067D01*
X170159D01*
X169146Y266865D01*
X168288Y266292D01*
X167715Y265434D01*
X167513Y264421D01*
Y261046D01*
X167715Y260034D01*
X168082Y259484D01*
X167715Y258934D01*
X167513Y257921D01*
Y254546D01*
X167610Y254061D01*
X167556Y254024D01*
X166758Y252830D01*
X166477Y251421D01*
Y251004D01*
X172046D01*
Y248464D01*
X166477D01*
Y248046D01*
X166758Y246638D01*
X167556Y245443D01*
X167610Y245407D01*
X167513Y244921D01*
Y241546D01*
X167715Y240534D01*
X168130Y239912D01*
X167931Y238970D01*
X167711Y238534D01*
X167561Y238504D01*
X166874Y238045D01*
X165720D01*
X165276Y238711D01*
X164602Y239161D01*
Y243685D01*
X164345Y244973D01*
X163616Y246066D01*
X158515Y251166D01*
X157423Y251896D01*
X157349Y251911D01*
X156822Y252984D01*
X157349Y254057D01*
X157423Y254071D01*
X158515Y254801D01*
X160779Y257065D01*
X161509Y258157D01*
X161765Y259446D01*
Y266022D01*
Y286668D01*
X161509Y287956D01*
X160779Y289048D01*
X135150Y314677D01*
X134058Y315407D01*
X132769Y315663D01*
X76159D01*
Y328700D01*
X75903Y329989D01*
X75173Y331081D01*
X63209Y343045D01*
X62116Y343775D01*
X60828Y344031D01*
X48918D01*
Y354796D01*
X47356D01*
Y357938D01*
X47920Y358782D01*
X48236Y360368D01*
X47920Y361954D01*
X47022Y363298D01*
X45678Y364196D01*
X44092Y364512D01*
X43068Y364308D01*
X42011Y365198D01*
X41968Y365285D01*
X42050Y365702D01*
X41735Y367288D01*
X40837Y368632D01*
X39492Y369530D01*
X37907Y369846D01*
D02*
G37*
G36*
X193756Y248916D02*
X193151D01*
Y244316D01*
X197501D01*
Y245171D01*
X197216Y246604D01*
X196404Y247819D01*
X195189Y248631D01*
X193756Y248916D01*
D02*
G37*
G36*
X151376Y241964D02*
X147077D01*
Y241546D01*
X147358Y240138D01*
X148155Y238943D01*
X149350Y238145D01*
X150759Y237865D01*
X151376D01*
Y241964D01*
D02*
G37*
G36*
X197501Y241776D02*
X193151D01*
Y237176D01*
X193756D01*
X195189Y237461D01*
X196404Y238273D01*
X197216Y239488D01*
X197501Y240921D01*
Y241776D01*
D02*
G37*
G36*
X20730Y239120D02*
X19875D01*
X18442Y238835D01*
X17227Y238023D01*
X16415Y236808D01*
X16130Y235375D01*
Y234770D01*
X20730D01*
Y239120D01*
D02*
G37*
G36*
X205650Y228048D02*
X201172D01*
Y223270D01*
X205650D01*
Y228048D01*
D02*
G37*
G36*
X167105Y224650D02*
X162505D01*
Y220300D01*
X163360D01*
X164793Y220585D01*
X166008Y221397D01*
X166820Y222612D01*
X167105Y224045D01*
Y224650D01*
D02*
G37*
G36*
X159965D02*
X155365D01*
Y224045D01*
X155650Y222612D01*
X156462Y221397D01*
X157677Y220585D01*
X159110Y220300D01*
X159965D01*
Y224650D01*
D02*
G37*
G36*
X119367Y243100D02*
X115031Y242759D01*
X110802Y241744D01*
X106783Y240079D01*
X103075Y237807D01*
X99768Y234982D01*
X96943Y231675D01*
X94670Y227966D01*
X93006Y223948D01*
X91991Y219719D01*
X91649Y215383D01*
X91991Y211047D01*
X93006Y206818D01*
X94670Y202799D01*
X96943Y199091D01*
X99768Y195784D01*
X103075Y192959D01*
X106783Y190686D01*
X110802Y189022D01*
X115031Y188007D01*
X119367Y187665D01*
X123703Y188007D01*
X127932Y189022D01*
X131950Y190686D01*
X135659Y192959D01*
X138966Y195784D01*
X141791Y199091D01*
X144063Y202799D01*
X145728Y206818D01*
X146743Y211047D01*
X147084Y215383D01*
X146743Y219719D01*
X145728Y223948D01*
X144063Y227966D01*
X141791Y231675D01*
X138966Y234982D01*
X135659Y237807D01*
X131950Y240079D01*
X127932Y241744D01*
X123703Y242759D01*
X119367Y243100D01*
D02*
G37*
G36*
X18870Y190230D02*
X14270D01*
Y185880D01*
X15125D01*
X16558Y186165D01*
X17773Y186977D01*
X18585Y188192D01*
X18870Y189625D01*
Y190230D01*
D02*
G37*
G36*
X11730D02*
X7130D01*
Y189625D01*
X7415Y188192D01*
X8227Y186977D01*
X9442Y186165D01*
X10875Y185880D01*
X11730D01*
Y190230D01*
D02*
G37*
G36*
X26230Y155043D02*
X22202D01*
Y145890D01*
X26230D01*
Y155043D01*
D02*
G37*
G36*
Y143350D02*
X22202D01*
Y134197D01*
X26230D01*
Y143350D01*
D02*
G37*
G36*
X136460Y139929D02*
X134874Y139614D01*
X133530Y138715D01*
X132631Y137371D01*
X132316Y135785D01*
X132413Y135296D01*
X131608Y134315D01*
X131458D01*
Y122367D01*
X127342D01*
X126525Y123637D01*
X126637Y124200D01*
Y125800D01*
X126418Y126905D01*
X126351Y127005D01*
X125869Y128000D01*
X126351Y128995D01*
X126418Y129095D01*
X126637Y130200D01*
Y131800D01*
X126418Y132905D01*
X125792Y133842D01*
X124855Y134468D01*
X123750Y134688D01*
X116250D01*
X115145Y134468D01*
X114517Y134048D01*
X108720D01*
Y119000D01*
Y103952D01*
X113124D01*
X113476Y103426D01*
X114749Y102575D01*
X116250Y102277D01*
X118730D01*
Y107000D01*
X120000D01*
Y108270D01*
X128275D01*
X128794Y108675D01*
X129184Y108597D01*
X130869Y108933D01*
X131336Y109244D01*
X140008D01*
X141296Y109501D01*
X142388Y110231D01*
X142663Y110642D01*
X146828Y114807D01*
X152631D01*
Y126722D01*
X155617D01*
X162195Y120144D01*
Y118720D01*
X160626Y117516D01*
X159282Y115765D01*
X158438Y113726D01*
X158150Y111538D01*
X158438Y109350D01*
X159282Y107311D01*
X160484Y105744D01*
Y99747D01*
X148244Y87506D01*
X147233Y85994D01*
X146878Y84210D01*
X147088Y83154D01*
Y69750D01*
X147088Y69750D01*
Y59032D01*
X146468D01*
Y44468D01*
X148383D01*
Y17532D01*
X146468D01*
Y2968D01*
X157032D01*
Y17532D01*
X155117D01*
Y44468D01*
X157032D01*
Y59032D01*
X156412D01*
Y69750D01*
X156412Y69750D01*
Y82489D01*
X165490Y91568D01*
X166954D01*
X167991Y91774D01*
X169556Y91629D01*
X170771Y90817D01*
X172204Y90532D01*
X172809D01*
Y96402D01*
Y102272D01*
X172204D01*
X171082Y102049D01*
X170054Y102775D01*
X170078Y103904D01*
X170831Y104216D01*
X172582Y105560D01*
X173592Y106876D01*
X185947D01*
Y94947D01*
X192832D01*
Y80513D01*
X185901D01*
Y58863D01*
X184631Y58432D01*
X184076Y59155D01*
X181818Y60887D01*
X179189Y61976D01*
X176368Y62348D01*
X173547Y61976D01*
X170918Y60887D01*
X168660Y59155D01*
X166928Y56898D01*
X165839Y54269D01*
X165468Y51448D01*
X165839Y48626D01*
X166928Y45997D01*
X168660Y43740D01*
X170918Y42008D01*
X171917Y41594D01*
Y39665D01*
X167478D01*
Y25695D01*
X185946D01*
Y23832D01*
X179935Y17821D01*
X167478D01*
Y3851D01*
X186528D01*
Y11229D01*
X193904Y18605D01*
X194914Y20117D01*
X195269Y21901D01*
Y48408D01*
X207897D01*
Y47392D01*
X219190D01*
Y64461D01*
Y81529D01*
X207897D01*
Y80513D01*
X202155D01*
Y94947D01*
X207943D01*
Y93931D01*
X219236D01*
Y111000D01*
Y128069D01*
X207943D01*
Y127053D01*
X185947D01*
Y116199D01*
X173592D01*
X172582Y117516D01*
X170831Y118859D01*
X168929Y119647D01*
Y121538D01*
X168672Y122827D01*
X167943Y123919D01*
X159392Y132470D01*
X158300Y133199D01*
X157011Y133456D01*
X152631D01*
Y135371D01*
X142067D01*
X142067Y135371D01*
X142067D01*
X141789Y135343D01*
X140603Y135785D01*
X140288Y137371D01*
X139389Y138715D01*
X138045Y139614D01*
X136460Y139929D01*
D02*
G37*
G36*
X52375Y119870D02*
X51770D01*
Y115270D01*
X56120D01*
Y116125D01*
X55835Y117558D01*
X55023Y118773D01*
X53808Y119585D01*
X52375Y119870D01*
D02*
G37*
G36*
X22230D02*
X21625D01*
X20192Y119585D01*
X18977Y118773D01*
X18165Y117558D01*
X17880Y116125D01*
Y115270D01*
X22230D01*
Y119870D01*
D02*
G37*
G36*
X233069Y128069D02*
X221776D01*
Y112270D01*
X233069D01*
Y128069D01*
D02*
G37*
G36*
X56120Y112730D02*
X51770D01*
Y108130D01*
X52375D01*
X53808Y108415D01*
X55023Y109227D01*
X55835Y110442D01*
X56120Y111875D01*
Y112730D01*
D02*
G37*
G36*
X22230D02*
X17880D01*
Y111875D01*
X18165Y110442D01*
X18977Y109227D01*
X20192Y108415D01*
X21625Y108130D01*
X22230D01*
Y112730D01*
D02*
G37*
G36*
X127580Y105730D02*
X121270D01*
Y102277D01*
X123750D01*
X125251Y102575D01*
X126524Y103426D01*
X127375Y104699D01*
X127580Y105730D01*
D02*
G37*
G36*
X175954Y102272D02*
X175349D01*
Y97672D01*
X179699D01*
Y98527D01*
X179414Y99960D01*
X178602Y101175D01*
X177387Y101987D01*
X175954Y102272D01*
D02*
G37*
G36*
X233069Y109730D02*
X221776D01*
Y93931D01*
X233069D01*
Y109730D01*
D02*
G37*
G36*
X179699Y95132D02*
X175349D01*
Y90532D01*
X175954D01*
X177387Y90817D01*
X178602Y91629D01*
X179414Y92844D01*
X179699Y94277D01*
Y95132D01*
D02*
G37*
G36*
X81819Y85842D02*
X76041D01*
Y79064D01*
X81819D01*
Y85842D01*
D02*
G37*
G36*
X73502D02*
X67724D01*
Y79064D01*
X73502D01*
Y85842D01*
D02*
G37*
G36*
Y76524D02*
X67724D01*
Y69746D01*
X73502D01*
Y76524D01*
D02*
G37*
G36*
X233022Y81529D02*
X221730D01*
Y65731D01*
X233022D01*
Y81529D01*
D02*
G37*
G36*
X112048Y60048D02*
X107020D01*
Y53020D01*
X112048D01*
Y60048D01*
D02*
G37*
G36*
X104480D02*
X99452D01*
Y53020D01*
X104480D01*
Y60048D01*
D02*
G37*
G36*
X233022Y63191D02*
X221730D01*
Y47392D01*
X233022D01*
Y63191D01*
D02*
G37*
G36*
X112048Y50480D02*
X107020D01*
Y43452D01*
X112048D01*
Y50480D01*
D02*
G37*
G36*
X104480D02*
X99452D01*
Y43452D01*
X104480D01*
Y50480D01*
D02*
G37*
G36*
X70125Y29120D02*
X69270D01*
Y24770D01*
X73870D01*
Y25375D01*
X73585Y26808D01*
X72773Y28023D01*
X71558Y28835D01*
X70125Y29120D01*
D02*
G37*
G36*
X66730D02*
X65875D01*
X64442Y28835D01*
X63227Y28023D01*
X62415Y26808D01*
X62130Y25375D01*
Y24770D01*
X66730D01*
Y29120D01*
D02*
G37*
G36*
X81819Y76524D02*
X76041D01*
Y69746D01*
X80659D01*
X81045Y69746D01*
X81306Y68886D01*
X80720Y67863D01*
X79933Y66685D01*
X79597Y65000D01*
X79933Y63315D01*
X80887Y61887D01*
X80892Y61883D01*
Y59032D01*
X78968D01*
Y44468D01*
X81142D01*
Y17532D01*
X78968D01*
Y13358D01*
X73787D01*
X72834Y14311D01*
Y16375D01*
X72628Y17412D01*
X72773Y18977D01*
X73585Y20192D01*
X73870Y21625D01*
Y22230D01*
X62130D01*
Y21625D01*
X62415Y20192D01*
X63227Y18977D01*
X63372Y17412D01*
X63166Y16375D01*
Y12625D01*
X63372Y11588D01*
X63959Y10710D01*
X64838Y10122D01*
X65875Y9916D01*
X68439D01*
X70303Y8052D01*
X71311Y7379D01*
X72500Y7142D01*
X78968D01*
Y2968D01*
X89532D01*
Y17532D01*
X87358D01*
Y44468D01*
X89532D01*
Y59032D01*
X87108D01*
Y61883D01*
X87113Y61887D01*
X88068Y63315D01*
X88403Y65000D01*
X88068Y66685D01*
X87113Y68113D01*
X85685Y69068D01*
X84000Y69403D01*
X83652Y69333D01*
X82423Y69579D01*
X82423Y69579D01*
X82423D01*
X81833Y70134D01*
X81820Y70165D01*
X81819Y70653D01*
X81820D01*
X81819Y70696D01*
Y76524D01*
D02*
G37*
G36*
X112048Y18548D02*
X107020D01*
Y11520D01*
X112048D01*
Y18548D01*
D02*
G37*
G36*
X104480D02*
X99452D01*
Y11520D01*
X104480D01*
Y18548D01*
D02*
G37*
G36*
X130559Y91053D02*
X128874Y90718D01*
X127446Y89764D01*
X126491Y88336D01*
X126156Y86651D01*
X126491Y84966D01*
X127446Y83538D01*
X127451Y83534D01*
Y59032D01*
X124968D01*
Y44468D01*
X126883D01*
Y17532D01*
X124968D01*
Y2968D01*
X135532D01*
Y17532D01*
X133617D01*
Y44468D01*
X135532D01*
Y59032D01*
X133666D01*
Y83534D01*
X133672Y83538D01*
X134626Y84966D01*
X134961Y86651D01*
X134626Y88336D01*
X133672Y89764D01*
X132243Y90718D01*
X130559Y91053D01*
D02*
G37*
%LPD*%
G36*
X69425Y327306D02*
Y312297D01*
Y295588D01*
X68527Y294690D01*
X67309Y294690D01*
X66696Y295706D01*
X66591Y295706D01*
X61362D01*
Y283768D01*
Y271830D01*
X66696Y271830D01*
X67309Y272846D01*
X67966Y272846D01*
X78380D01*
Y294690D01*
X76159D01*
Y308930D01*
X131375D01*
X140309Y299996D01*
X140104Y298405D01*
X140045Y298366D01*
X137767D01*
Y299951D01*
X118903D01*
Y299582D01*
X109079D01*
X108999Y299624D01*
X108135Y300852D01*
X108310Y301733D01*
X107995Y303319D01*
X107097Y304663D01*
X105752Y305561D01*
X104167Y305877D01*
X102581Y305561D01*
X101237Y304663D01*
X100338Y303319D01*
X100023Y301733D01*
X100338Y300147D01*
X100457Y299582D01*
X100457D01*
X100457Y299582D01*
Y289518D01*
X104152D01*
X104537Y288248D01*
X104411Y288164D01*
X100604Y284357D01*
X99349Y284574D01*
X99214Y284763D01*
X98278Y286164D01*
X96850Y287119D01*
X95165Y287454D01*
X93480Y287119D01*
X92052Y286164D01*
X91098Y284736D01*
X90763Y283051D01*
X91098Y281367D01*
X91627Y280574D01*
Y277066D01*
X91469Y276960D01*
X90881Y276081D01*
X90675Y275044D01*
Y271294D01*
X90881Y270258D01*
X90736Y268692D01*
X89924Y267477D01*
X89639Y266044D01*
Y265439D01*
X95509D01*
Y264169D01*
X96779D01*
Y258549D01*
X97634D01*
X98599Y258741D01*
X99225Y257571D01*
X81588Y239934D01*
X80933Y239998D01*
X49258Y271673D01*
X49744Y272846D01*
X52875Y272846D01*
X53488Y271830D01*
X53593Y271830D01*
X58822D01*
Y283768D01*
Y295706D01*
X53488Y295706D01*
X52875Y294690D01*
X52218Y294690D01*
X50408D01*
Y315326D01*
X51678Y315960D01*
X52383Y315489D01*
X53816Y315204D01*
X54421D01*
Y321074D01*
Y326944D01*
X53816D01*
X52383Y326659D01*
X52254Y326573D01*
X52078Y326656D01*
X51225Y327413D01*
X51475Y328672D01*
X51160Y330258D01*
X50262Y331602D01*
X48917Y332500D01*
X47332Y332816D01*
X45746Y332500D01*
X44402Y331602D01*
X43504Y330258D01*
X43188Y328672D01*
X43504Y327087D01*
X43674Y326832D01*
Y325631D01*
X42901Y325115D01*
X42313Y324236D01*
X42107Y323199D01*
Y318949D01*
X42313Y317913D01*
X42901Y317034D01*
X43675Y316516D01*
Y294690D01*
X41804D01*
Y278995D01*
X40534Y278316D01*
X40280Y278486D01*
Y294690D01*
X38267D01*
Y335348D01*
X40141D01*
Y335932D01*
X48918D01*
Y337298D01*
X59434D01*
X69425Y327306D01*
D02*
G37*
G36*
X194400Y206750D02*
X214900D01*
X215290Y206730D01*
X215670Y206690D01*
X215849Y206646D01*
X216030Y206590D01*
X216390Y206480D01*
X216770Y206290D01*
X217120Y206080D01*
X217440Y205840D01*
X217740Y205580D01*
X218010Y205270D01*
X218260Y204940D01*
X218460Y204580D01*
X218640Y204210D01*
X218770Y203800D01*
X218830Y203490D01*
X218880Y203120D01*
X218900Y202750D01*
Y197750D01*
X218880Y197320D01*
X218815Y196905D01*
X218710Y196510D01*
X218560Y196120D01*
X218390Y195800D01*
X218210Y195490D01*
X217965Y195165D01*
X217700Y194900D01*
X217420Y194640D01*
X217120Y194430D01*
X216770Y194210D01*
X216410Y194050D01*
X216090Y193930D01*
X215920Y193880D01*
X215750Y193840D01*
X215550Y193800D01*
X215340Y193760D01*
X215120Y193750D01*
X187400D01*
Y212000D01*
X194400D01*
Y206750D01*
D02*
G37*
G36*
X215340Y152240D02*
X215550Y152200D01*
X215750Y152160D01*
X215920Y152120D01*
X216090Y152070D01*
X216410Y151950D01*
X216770Y151790D01*
X217120Y151570D01*
X217420Y151360D01*
X217700Y151100D01*
X217965Y150835D01*
X218210Y150510D01*
X218390Y150200D01*
X218560Y149880D01*
X218710Y149490D01*
X218815Y149095D01*
X218880Y148680D01*
X218900Y148250D01*
Y143250D01*
X218880Y142880D01*
X218830Y142510D01*
X218770Y142200D01*
X218640Y141790D01*
X218460Y141420D01*
X218260Y141060D01*
X218010Y140730D01*
X217740Y140420D01*
X217440Y140160D01*
X217120Y139920D01*
X216770Y139710D01*
X216390Y139520D01*
X216030Y139410D01*
X215849Y139355D01*
X215670Y139310D01*
X215290Y139270D01*
X214900Y139250D01*
X194400D01*
Y134000D01*
X187400D01*
Y152250D01*
X215120D01*
X215340Y152240D01*
D02*
G37*
%LPC*%
G36*
X57566Y326944D02*
X56961D01*
Y322344D01*
X61311D01*
Y323199D01*
X61026Y324632D01*
X60214Y325847D01*
X58999Y326659D01*
X57566Y326944D01*
D02*
G37*
G36*
X61311Y319804D02*
X56961D01*
Y315204D01*
X57566D01*
X58999Y315489D01*
X60214Y316301D01*
X61026Y317516D01*
X61311Y318949D01*
Y319804D01*
D02*
G37*
G36*
X94239Y262899D02*
X89639D01*
Y262294D01*
X89924Y260861D01*
X90736Y259646D01*
X91951Y258834D01*
X93384Y258549D01*
X94239D01*
Y262899D01*
D02*
G37*
%LPD*%
D12*
X163000Y541960D02*
X196710D01*
X190608Y21901D02*
Y56651D01*
X179785Y11078D02*
X190608Y21901D01*
X165146Y110080D02*
X166604Y111538D01*
X196956D01*
X165146Y97816D02*
Y110080D01*
X151750Y69750D02*
Y83750D01*
Y69750D02*
X151750Y69750D01*
X47400Y77000D02*
X58977D01*
X49697Y53753D02*
X60263D01*
X28600Y74850D02*
X49697Y53753D01*
X60263D02*
X62568Y51448D01*
X28600Y74850D02*
Y77000D01*
X151540Y84210D02*
X165146Y97816D01*
X196956Y111538D02*
X197494Y111000D01*
X176579Y33104D02*
X177003Y32680D01*
X176267Y50783D02*
X176579Y50471D01*
Y33104D02*
Y50471D01*
X151750Y51750D02*
Y69750D01*
X163090Y551320D02*
X163250Y551480D01*
X163000Y551320D02*
X163090D01*
X163250Y551480D02*
Y560000D01*
X196710Y541960D02*
X198750Y544000D01*
X154290Y541960D02*
X163000D01*
Y523500D02*
Y541920D01*
X163000Y541920D02*
X163000Y541920D01*
X154250Y542000D02*
X154290Y541960D01*
X177938Y565000D02*
X187000D01*
X163250Y560000D02*
X172938D01*
X177938Y565000D01*
X197494Y63000D02*
Y111000D01*
X163000Y523500D02*
X163000Y523500D01*
D18*
X49177Y451749D02*
X49663Y452235D01*
X54235D01*
X60125Y458125D01*
X58224Y495919D02*
X74669D01*
X57892Y495588D02*
X58224Y495919D01*
X63226Y486919D02*
X64417Y488109D01*
X74859D02*
X75000Y488250D01*
X64417Y488109D02*
X74859D01*
X74669Y495919D02*
X75000Y496250D01*
X63226Y480888D02*
Y486919D01*
X130559Y52059D02*
Y86651D01*
X130250Y51750D02*
X130559Y52059D01*
X137177Y151818D02*
X141359Y156000D01*
X167000D01*
X171000Y160000D01*
X120000Y113000D02*
X129184D01*
X84000Y52000D02*
Y65000D01*
X60125Y458125D02*
Y463875D01*
X56687Y545000D02*
X58187Y546500D01*
X56000Y545000D02*
X56687D01*
X58187Y546500D02*
X62250D01*
X76046Y539138D02*
X76092Y539092D01*
X99000Y523500D02*
Y535936D01*
X76046Y539138D02*
Y546454D01*
X76250Y546500D02*
X91000Y531750D01*
Y523500D02*
Y531750D01*
X70000Y556245D02*
X70746Y555500D01*
X70000Y556245D02*
Y561000D01*
X76000Y546500D02*
X76046Y546454D01*
X63734Y544266D02*
Y545016D01*
Y544266D02*
X83000Y525000D01*
X62250Y546500D02*
X63734Y545016D01*
X83000Y523500D02*
Y525000D01*
X76000Y546500D02*
X76250D01*
X212025Y186000D02*
X215400Y182625D01*
X207900Y186000D02*
X212025D01*
X184650D02*
X207900D01*
X68250Y14500D02*
X72500Y10250D01*
X68000Y14500D02*
X68250D01*
X72500Y10250D02*
X84250D01*
X60125Y463875D02*
X60375Y464125D01*
X74875D01*
X75000Y464250D01*
X84250Y10250D02*
Y51750D01*
X84000Y52000D02*
X84250Y51750D01*
X182600Y197250D02*
X183666Y196184D01*
Y186984D02*
X184650Y186000D01*
X171000Y160000D02*
X184650D01*
D19*
X109912Y285784D02*
X110042Y285914D01*
X106792Y285784D02*
X109912D01*
X100905Y278315D02*
Y279896D01*
X95759Y273169D02*
X100905Y278315D01*
X95509Y273169D02*
X95759D01*
X106239Y276597D02*
X106530Y276305D01*
X106943D01*
X107204Y276044D01*
X109912D01*
X100905Y279896D02*
X106792Y285784D01*
X98682Y270247D02*
X98957Y269971D01*
X95759Y273169D02*
X98682Y270247D01*
X99643Y269971D02*
X103403Y266212D01*
X98957Y269971D02*
X99643D01*
X94994Y282880D02*
X95165Y283051D01*
X94994Y274925D02*
Y282880D01*
X103403Y266212D02*
X113460D01*
X187000Y607046D02*
X191124Y611171D01*
X76624Y113000D02*
X94900D01*
X66500Y123124D02*
Y141164D01*
Y123124D02*
X76624Y113000D01*
X41550Y271576D02*
X44594D01*
X34692Y278434D02*
X41550Y271576D01*
X34692Y278434D02*
Y283768D01*
X44594Y271576D02*
X78552Y237618D01*
Y232137D02*
X103929Y257513D01*
X78552Y194671D02*
Y232137D01*
X103929Y257513D02*
X128900D01*
X78552Y232137D02*
Y235336D01*
Y237618D01*
X60000Y121434D02*
Y144620D01*
Y176119D01*
X148522Y287975D02*
X148568Y287928D01*
Y280469D02*
X148615Y280422D01*
X148568Y280469D02*
Y287928D01*
X132769Y312297D02*
X158398Y286668D01*
X72792Y283768D02*
Y312297D01*
Y328700D01*
Y312297D02*
X132769D01*
X35329Y358139D02*
X37615Y360426D01*
Y365410D02*
X37907Y365702D01*
X37615Y360426D02*
Y365410D01*
X60828Y340664D02*
X72792Y328700D01*
X43886Y340664D02*
X60828D01*
X34900Y283977D02*
Y339872D01*
X35109Y340080D01*
X34692Y283768D02*
X34900Y283977D01*
X158398Y266022D02*
Y286668D01*
Y259446D02*
Y266022D01*
X84985Y230650D02*
X105763Y251428D01*
X84985Y194639D02*
Y230650D01*
X105763Y251428D02*
X137953D01*
X142759Y256234D01*
X66500Y176154D02*
X84985Y194639D01*
X60000Y176119D02*
X78552Y194671D01*
X130818Y263139D02*
X131110Y262847D01*
X142793Y262734D02*
X152646D01*
X120822Y265592D02*
X128900Y257513D01*
X137573D02*
X142793Y262734D01*
X128900Y257513D02*
X137573D01*
X126992Y270914D02*
X130818Y267087D01*
Y263139D02*
Y267087D01*
X142759Y256234D02*
X152646D01*
X183325Y234824D02*
X183616Y234533D01*
X182881Y243046D02*
X183325Y242602D01*
Y234824D02*
Y242602D01*
X161235Y234920D02*
X161477Y234678D01*
X169004D01*
X169246Y234437D01*
X153594Y248786D02*
X156134D01*
X152646Y249734D02*
X153594Y248786D01*
X161235Y234920D02*
Y243685D01*
X156134Y248786D02*
X161235Y243685D01*
X182787Y243140D02*
X182881Y243046D01*
X181651Y244276D02*
X182787Y243140D01*
X175534Y255286D02*
X181651Y249169D01*
Y244276D02*
Y249169D01*
X172046Y256234D02*
X172994Y255286D01*
X175534D01*
X172046Y243234D02*
X172140Y243140D01*
X182787D01*
X172046Y256234D02*
Y262734D01*
X35329Y349700D02*
Y358139D01*
X65605Y393750D02*
X70750D01*
X65355Y394000D02*
X65605Y393750D01*
X43989Y360265D02*
X44092Y360368D01*
X43989Y350167D02*
Y360265D01*
X43886Y350064D02*
X43989Y350167D01*
X35109Y349480D02*
X35329Y349700D01*
X196473Y462831D02*
X196642Y462662D01*
X179000Y463000D02*
X179169Y462831D01*
X196473D01*
X179000Y439000D02*
X196136D01*
X196273Y439137D01*
X179014Y447014D02*
X196259D01*
X196273Y447028D01*
X179000Y447000D02*
X179014Y447014D01*
X196056Y455000D02*
X196273Y455217D01*
X179000Y455000D02*
X196056D01*
X165562Y112580D02*
Y121538D01*
Y112580D02*
X166604Y111538D01*
X80910Y124497D02*
X81103Y124690D01*
X74951Y135191D02*
X82985D01*
X74754Y135387D02*
X74951Y135191D01*
X81103Y124690D02*
X94590D01*
X82985Y135191D02*
X83182Y134994D01*
X179000Y471000D02*
X197000D01*
X197000Y471000D01*
X51128Y225203D02*
X57929D01*
X47856Y228063D02*
X48268D01*
X51128Y225203D01*
X57929D02*
X59596Y223536D01*
X50589Y217476D02*
X53500Y214565D01*
X47970Y217476D02*
X50589D01*
X47678Y217767D02*
X47970Y217476D01*
X115562Y268314D02*
Y270134D01*
X113460Y266212D02*
X115562Y268314D01*
X47040Y321279D02*
Y328381D01*
X47332Y328672D01*
X120822Y265592D02*
Y270134D01*
X120692Y270264D02*
X120822Y270134D01*
X126342Y275914D02*
X134570D01*
X136113Y274370D01*
X150050D01*
X158398Y266022D01*
X156134Y257182D02*
X158398Y259446D01*
X153594Y257182D02*
X156134D01*
X152646Y256234D02*
X153594Y257182D01*
X66500Y144620D02*
Y176154D01*
X60000Y121434D02*
X74434Y107000D01*
X58977Y77000D02*
X59772Y77794D01*
X109912Y276044D02*
X110042Y275914D01*
Y280914D01*
X126472Y286044D02*
X130575D01*
X126342Y285914D02*
X126472Y286044D01*
X130575D02*
X132209Y287678D01*
X132622D01*
X115562Y270134D02*
X115692Y270264D01*
X35287Y227958D02*
X36958D01*
X48000Y239000D01*
X31839Y224760D02*
X32089D01*
X35287Y227958D01*
X40500Y203380D02*
Y216349D01*
X32089Y224760D02*
X40500Y216349D01*
X31118Y214057D02*
X33052Y212123D01*
Y204328D02*
Y212123D01*
X30193Y214057D02*
X31118D01*
X22000Y222250D02*
X30193Y214057D01*
X53500Y203380D02*
Y214565D01*
X71957Y232957D02*
Y233043D01*
X68850Y231020D02*
X70020D01*
X71957Y232957D01*
X64782Y226952D02*
X68850Y231020D01*
X64782Y219185D02*
Y226952D01*
X62183Y216585D02*
X64782Y219185D01*
X62020Y216585D02*
X62183D01*
X60000Y214565D02*
X62020Y216585D01*
X60000Y203380D02*
Y214565D01*
X72000Y211876D02*
X72052Y211824D01*
X72000Y211876D02*
Y223000D01*
X60089Y233043D02*
X71957D01*
X60045Y233087D02*
X60089Y233043D01*
X120000Y125000D02*
Y131000D01*
X157011Y130089D02*
X165562Y121538D01*
X147349Y130089D02*
X157011D01*
X90564Y149948D02*
X94900Y145612D01*
X89473Y149948D02*
X90564D01*
X94900Y131000D02*
Y145612D01*
X89084Y150337D02*
X89473Y149948D01*
X96000Y145000D02*
X97178Y146179D01*
X136475Y129598D02*
Y135770D01*
Y129598D02*
X136490Y129583D01*
X136460Y135785D02*
X136475Y135770D01*
X140008Y112611D02*
Y112748D01*
X147349Y120089D01*
X47042Y320871D02*
X47245Y321074D01*
X47040Y321279D02*
X47245Y321074D01*
X47042Y285174D02*
Y320871D01*
Y285174D02*
X47245Y284970D01*
X139253Y280784D02*
X139298Y280739D01*
X126342Y280914D02*
X126472Y280784D01*
X139253D01*
X138982Y288176D02*
X139298Y287860D01*
Y280739D02*
Y287860D01*
X47931Y256872D02*
X48000Y256803D01*
Y251778D02*
Y256803D01*
X104458Y295281D02*
Y301441D01*
X104167Y301733D02*
X104458Y301441D01*
Y295281D02*
X105190Y294550D01*
X63546Y186131D02*
X72052Y194637D01*
X34954Y186131D02*
X63546D01*
X72052Y194637D02*
Y211824D01*
X74434Y107000D02*
X94900D01*
X71000Y384500D02*
X80000D01*
X80000Y384500D01*
X71000Y384500D02*
X71000Y384500D01*
X137000Y386669D02*
X147000D01*
X128125Y386544D02*
X136875D01*
X137000Y386669D01*
X128000Y386419D02*
X128125Y386544D01*
X104771Y385923D02*
X104866Y386017D01*
X113916D01*
X114010Y386111D01*
X120000Y119000D02*
X136803D01*
X153621Y395450D02*
X153840Y395231D01*
X147000Y395668D02*
X147219Y395450D01*
X153621D01*
X137000Y395668D02*
X147000D01*
X105694Y394000D02*
X114500D01*
X104771Y394922D02*
X105694Y394000D01*
X153290Y395231D02*
X153840D01*
X126791Y394209D02*
X126812Y394188D01*
X130672D01*
X136875Y395544D02*
X137000Y395668D01*
X128000Y395419D02*
X128125Y395544D01*
X136875D01*
X123000Y398000D02*
X126666Y394334D01*
X98771Y392422D02*
X99184D01*
X100454Y393693D01*
X103771Y394173D02*
Y394922D01*
X100454Y393693D02*
X103291D01*
X103771Y394173D01*
X120692Y291701D02*
X122180Y293189D01*
X122205D02*
X123635Y294619D01*
X120692Y286564D02*
Y291701D01*
X122180Y293189D02*
X122205D01*
X123635Y294619D02*
Y294919D01*
X114590Y294550D02*
X115562Y293578D01*
Y286694D02*
X115692Y286564D01*
X115562Y286694D02*
Y293578D01*
X142362Y294999D02*
X142442Y295080D01*
X133034Y294919D02*
X133115Y294999D01*
X142362D01*
X129573Y112611D02*
X140008D01*
X129184Y113000D02*
X129573Y112611D01*
X94590Y124690D02*
X94900Y125000D01*
X179027Y147323D02*
X206327D01*
X177600Y148750D02*
X179027Y147323D01*
X206327D02*
X207900Y145750D01*
X206327Y198677D02*
X207900Y200250D01*
X177600Y197250D02*
X179027Y198677D01*
X206327D01*
X90000Y555080D02*
Y561000D01*
X70746Y555500D02*
X76000D01*
X62000D02*
X70746D01*
X102676Y545320D02*
X114430D01*
X102106Y545890D02*
X102676Y545320D01*
X114430D02*
X115000Y544750D01*
X90105Y545785D02*
X102001D01*
X102106Y545890D01*
X90000Y545680D02*
X90105Y545785D01*
X89790Y555290D02*
X90000Y555080D01*
X32000Y80400D02*
Y94000D01*
X28600Y77000D02*
X32000Y80400D01*
X207900Y185125D02*
Y186000D01*
Y185125D02*
X210400Y182625D01*
X207900Y210060D02*
X214890Y217050D01*
Y220570D01*
X207900Y200250D02*
Y210060D01*
X214890Y220570D02*
X216320Y222000D01*
X71000Y393500D02*
X80000D01*
X70750Y393750D02*
X71000Y393500D01*
X32500Y126000D02*
Y129721D01*
X32250Y103250D02*
Y108500D01*
Y125750D01*
X32500Y126000D01*
X41500Y114000D02*
X41500Y114000D01*
Y102750D02*
Y114000D01*
Y102750D02*
X41750Y102500D01*
X41500Y114000D02*
Y120000D01*
X32000Y103000D02*
X32250Y103250D01*
X80000Y393500D02*
X83516D01*
X104802Y405718D02*
Y406802D01*
X98693Y399609D02*
X104802Y405718D01*
X89625Y399609D02*
X98693D01*
X83516Y393500D02*
X89625Y399609D01*
X80000Y393500D02*
X80000Y393500D01*
X107000Y409000D02*
Y410500D01*
X104802Y406802D02*
X107000Y409000D01*
X114500Y394000D02*
Y410000D01*
X115000Y410500D01*
X123000Y398000D02*
Y410500D01*
X124230Y409270D01*
X179000Y455000D02*
X179000Y455000D01*
X34000Y498888D02*
X34500Y498388D01*
Y484000D02*
Y498388D01*
X34862Y512250D02*
X75000D01*
X34000Y513112D02*
X34862Y512250D01*
X40500Y130971D02*
Y144620D01*
X41500Y120000D02*
Y129972D01*
X40500Y130971D02*
X41500Y129972D01*
X33839Y141000D02*
Y144459D01*
X34000Y131222D02*
Y140838D01*
X33839Y141000D02*
X34000Y140838D01*
X32500Y129721D02*
X34000Y131222D01*
X151500Y84000D02*
X151750Y83750D01*
X33839Y144459D02*
X34000Y144620D01*
X33052Y202328D02*
Y203380D01*
Y204328D02*
X34000Y203380D01*
X12000Y222000D02*
X21750D01*
X22000Y222250D01*
X28448Y192637D02*
X34954Y186131D01*
X27500Y201380D02*
X28448Y200432D01*
Y192637D02*
Y200432D01*
X13000Y202750D02*
X26520D01*
X46052Y192637D02*
Y200432D01*
X44118Y190703D02*
X46052Y192637D01*
X36882Y190703D02*
X44118D01*
X34948Y192637D02*
X36882Y190703D01*
X34948Y192637D02*
Y200432D01*
X46052Y200432D02*
X47000Y201380D01*
X33052Y202328D02*
X34948Y200432D01*
X83000Y167000D02*
X83192D01*
X85192Y169000D01*
X94500D01*
X94500Y169000D01*
X115000Y523500D02*
Y544750D01*
X173500Y167125D02*
X180250D01*
X172302Y165927D02*
X173500Y167125D01*
X212900Y160875D02*
X215400Y163375D01*
X157927Y165927D02*
X172302D01*
X157000Y165000D02*
X157927Y165927D01*
X119500Y169000D02*
X131000D01*
X151750Y10250D02*
Y51750D01*
X130250Y10250D02*
Y51750D01*
X157000Y173000D02*
X157000Y173000D01*
X184650D01*
D21*
X257998Y22998D02*
D03*
Y32998D02*
D03*
X83182Y124994D02*
D03*
Y134994D02*
D03*
X147349Y130089D02*
D03*
Y120089D02*
D03*
X72000Y233000D02*
D03*
Y223000D02*
D03*
X48000Y239000D02*
D03*
Y249000D02*
D03*
X57651Y233223D02*
D03*
Y223223D02*
D03*
D22*
X136490Y120183D02*
D03*
Y129583D02*
D03*
X163000Y551320D02*
D03*
Y541920D02*
D03*
X35109Y340080D02*
D03*
Y349480D02*
D03*
X43886Y340664D02*
D03*
Y350064D02*
D03*
X90000Y545680D02*
D03*
Y555080D02*
D03*
D23*
X120000Y131000D02*
D03*
X94900D02*
D03*
Y107000D02*
D03*
Y113000D02*
D03*
Y119000D02*
D03*
Y125000D02*
D03*
X120000D02*
D03*
Y119000D02*
D03*
Y113000D02*
D03*
Y107000D02*
D03*
D24*
X114590Y294550D02*
D03*
X105190D02*
D03*
X123635Y294919D02*
D03*
X133034D02*
D03*
X216320Y222000D02*
D03*
X206920D02*
D03*
D25*
X59772Y77794D02*
D03*
X74772D02*
D03*
D26*
X126342Y270914D02*
D03*
Y275914D02*
D03*
Y280914D02*
D03*
Y285914D02*
D03*
X110042D02*
D03*
Y280914D02*
D03*
Y275914D02*
D03*
Y270914D02*
D03*
D27*
X120692Y286564D02*
D03*
X115692D02*
D03*
Y270264D02*
D03*
X120692D02*
D03*
D28*
X81479Y146905D02*
D03*
X95479D02*
D03*
D29*
X34692Y283768D02*
D03*
X47392D02*
D03*
X60092D02*
D03*
X72792D02*
D03*
D30*
X172046Y262734D02*
D03*
Y243234D02*
D03*
Y249734D02*
D03*
Y256234D02*
D03*
X152646Y262734D02*
D03*
Y243234D02*
D03*
Y249734D02*
D03*
Y256234D02*
D03*
D31*
X220460Y64461D02*
D03*
X197447D02*
D03*
X197494Y111000D02*
D03*
X220506D02*
D03*
D32*
X163250Y560000D02*
D03*
X154750D02*
D03*
X154250Y542000D02*
D03*
X145750D02*
D03*
D33*
X31839Y233760D02*
D03*
Y224760D02*
D03*
X76000Y555500D02*
D03*
Y546500D02*
D03*
X63000Y555500D02*
D03*
Y546500D02*
D03*
X32000Y103000D02*
D03*
Y94000D02*
D03*
X41500Y102750D02*
D03*
Y93750D02*
D03*
X147000Y395668D02*
D03*
Y386669D02*
D03*
X104771Y394922D02*
D03*
Y385923D02*
D03*
X71000Y393500D02*
D03*
Y384500D02*
D03*
X13000Y191500D02*
D03*
Y200500D02*
D03*
X102106Y554890D02*
D03*
Y545890D02*
D03*
X137000Y395668D02*
D03*
Y386669D02*
D03*
X22000Y224500D02*
D03*
Y233500D02*
D03*
X95509Y273169D02*
D03*
Y264169D02*
D03*
X68000Y14500D02*
D03*
Y23500D02*
D03*
X161235Y234920D02*
D03*
Y225920D02*
D03*
X128000Y395419D02*
D03*
Y386419D02*
D03*
X114010Y395111D02*
D03*
Y386111D02*
D03*
X80000Y393500D02*
D03*
Y384500D02*
D03*
D34*
X43500Y484000D02*
D03*
X34500D02*
D03*
X174079Y96402D02*
D03*
X165079D02*
D03*
X46691Y321074D02*
D03*
X55691D02*
D03*
X32500Y114000D02*
D03*
X23500D02*
D03*
X41500Y126000D02*
D03*
X32500D02*
D03*
X50500Y114000D02*
D03*
X41500D02*
D03*
X139615Y280422D02*
D03*
X148615D02*
D03*
X182881Y243046D02*
D03*
X191881D02*
D03*
D35*
X60250Y464000D02*
D03*
X51750D02*
D03*
D36*
X115000Y553250D02*
D03*
Y544750D02*
D03*
D37*
X34000Y513112D02*
D03*
Y498888D02*
D03*
D38*
X152000Y492000D02*
D03*
Y467000D02*
D03*
Y442000D02*
D03*
X127000Y492000D02*
D03*
Y467000D02*
D03*
Y442000D02*
D03*
X102000Y492000D02*
D03*
Y467000D02*
D03*
Y442000D02*
D03*
D39*
X75000Y512250D02*
D03*
Y504250D02*
D03*
Y496250D02*
D03*
Y488250D02*
D03*
Y480250D02*
D03*
Y472250D02*
D03*
Y464250D02*
D03*
Y456250D02*
D03*
Y448250D02*
D03*
Y440250D02*
D03*
Y432250D02*
D03*
Y424250D02*
D03*
X179000Y423000D02*
D03*
Y431000D02*
D03*
Y439000D02*
D03*
Y447000D02*
D03*
Y455000D02*
D03*
Y463000D02*
D03*
Y471000D02*
D03*
Y479000D02*
D03*
Y487000D02*
D03*
Y495000D02*
D03*
Y503000D02*
D03*
Y511000D02*
D03*
D40*
X83000Y523500D02*
D03*
X91000D02*
D03*
X99000D02*
D03*
X107000D02*
D03*
X115000D02*
D03*
X123000D02*
D03*
X131000D02*
D03*
X139000D02*
D03*
X147000D02*
D03*
X155000D02*
D03*
X163000D02*
D03*
X171000D02*
D03*
Y410500D02*
D03*
X163000D02*
D03*
X155000D02*
D03*
X147000D02*
D03*
X139000D02*
D03*
X131000D02*
D03*
X123000D02*
D03*
X115000D02*
D03*
X107000D02*
D03*
X99000D02*
D03*
X91000D02*
D03*
X83000D02*
D03*
D41*
X214000Y558750D02*
D03*
Y529250D02*
D03*
D42*
X198750Y544000D02*
D03*
D43*
X179650Y173000D02*
D03*
Y166500D02*
D03*
Y160000D02*
D03*
Y179500D02*
D03*
Y186000D02*
D03*
D44*
X210400Y163375D02*
D03*
Y182625D02*
D03*
D45*
X84250Y10250D02*
D03*
Y51750D02*
D03*
X105750Y10250D02*
D03*
Y51750D02*
D03*
X151750D02*
D03*
Y10250D02*
D03*
X130250Y51750D02*
D03*
Y10250D02*
D03*
D46*
X141000Y173000D02*
D03*
Y165000D02*
D03*
X157000D02*
D03*
Y173000D02*
D03*
D47*
X94500Y178500D02*
D03*
Y169000D02*
D03*
Y159500D02*
D03*
X119500D02*
D03*
Y169000D02*
D03*
Y178500D02*
D03*
D48*
X66500Y144620D02*
D03*
X60000D02*
D03*
X53500D02*
D03*
X47000D02*
D03*
X40500D02*
D03*
X34000D02*
D03*
X27500D02*
D03*
Y203380D02*
D03*
X34000D02*
D03*
X40500D02*
D03*
X47000D02*
D03*
X53500D02*
D03*
X60000D02*
D03*
X66500D02*
D03*
D49*
X47400Y77000D02*
D03*
X28600D02*
D03*
D50*
X177003Y10836D02*
D03*
Y32680D02*
D03*
D51*
X177600Y202000D02*
D03*
Y144000D02*
D03*
D91*
X107450Y119000D02*
D03*
D92*
X187000Y611171D02*
Y653000D01*
Y607046D02*
Y611171D01*
Y565000D02*
Y607046D01*
D93*
X191124Y611171D02*
X212627D01*
D94*
X49024Y412623D02*
X49333Y412314D01*
X55412D01*
X60625Y407102D02*
X68019D01*
X60959Y413825D02*
X62692Y412092D01*
X58000Y418563D02*
Y419000D01*
X72099Y418239D02*
X86141D01*
X65952Y412092D02*
X72099Y418239D01*
X58000Y418563D02*
X60959Y415605D01*
X55412Y412314D02*
X60625Y407102D01*
X68019D02*
X74166Y413249D01*
X62692Y412092D02*
X65952D01*
X60959Y413825D02*
Y415605D01*
X74166Y413249D02*
X80246D01*
X83000Y410500D02*
Y412000D01*
X89011Y413989D02*
X91000Y412000D01*
X89011Y413989D02*
Y415369D01*
X91000Y410500D02*
Y412000D01*
X80474Y413021D02*
X81979D01*
X80246Y413249D02*
X80474Y413021D01*
X81979D02*
X83000Y412000D01*
X86141Y418239D02*
X89011Y415369D01*
X84212Y178212D02*
X94212D01*
X84000Y178000D02*
X84212Y178212D01*
X83000Y178000D02*
X84000D01*
X94212Y178212D02*
X94500Y178500D01*
X116000Y160000D02*
X134250D01*
X116000Y178000D02*
X134250D01*
X105744Y166505D02*
X108256D01*
X139250Y165000D02*
X141000D01*
X104011Y164772D02*
X105744Y166505D01*
X109989Y164546D02*
X112046Y162489D01*
X134250Y160000D02*
X139250Y165000D01*
X108256Y166505D02*
X109989Y164772D01*
Y164546D02*
Y164772D01*
X112046Y162489D02*
X113511D01*
X116000Y160000D01*
X104011Y164546D02*
Y164772D01*
X101954Y162489D02*
X104011Y164546D01*
X100489Y162489D02*
X101954D01*
X97500Y159500D02*
X100489Y162489D01*
X94500Y159500D02*
X97500D01*
X94250Y159250D02*
X94500Y159500D01*
X84250Y159250D02*
X94250D01*
X83000Y159000D02*
X84000D01*
X84250Y159250D01*
X97500Y178500D02*
X100489Y175511D01*
X94500Y178500D02*
X97500D01*
X113511Y175511D02*
X116000Y178000D01*
X100489Y175511D02*
X101954D01*
X112046D02*
X113511D01*
X134250Y178000D02*
X139250Y173000D01*
X109989Y173454D02*
X112046Y175511D01*
X109989Y173228D02*
Y173454D01*
X139250Y173000D02*
X141000D01*
X108256Y171495D02*
X109989Y173228D01*
X104011D02*
X105744Y171495D01*
X108256D01*
X101954Y175511D02*
X104011Y173454D01*
Y173228D02*
Y173454D01*
X75000Y424250D02*
X76021Y425271D01*
X78901D02*
X82511Y428881D01*
X78901Y447229D02*
X82511Y443619D01*
X76021Y425271D02*
X78901D01*
X76021Y447229D02*
X78901D01*
X75000Y448250D02*
X76021Y447229D01*
X82511Y428881D02*
Y443619D01*
X75000Y432250D02*
Y440250D01*
D95*
X168556Y583000D02*
Y653000D01*
X150111Y583000D02*
Y653000D01*
X131667Y583000D02*
Y653000D01*
X113222Y583000D02*
Y653000D01*
X94778Y583000D02*
Y653000D01*
X76333Y583000D02*
Y653000D01*
X57889Y583000D02*
Y653000D01*
X39444Y583000D02*
Y653000D01*
X21444Y583000D02*
Y653000D01*
D96*
X212900Y145750D02*
Y160875D01*
X207900Y186000D02*
Y200250D01*
X215400Y163375D02*
Y182625D01*
D97*
X41500Y85050D02*
Y93750D01*
Y85050D02*
X47400Y79150D01*
Y77000D02*
Y79150D01*
D98*
X212627Y611171D02*
D03*
D99*
X119468Y216047D02*
D03*
Y351048D02*
D03*
D100*
X62568Y51448D02*
D03*
X176368D02*
D03*
D101*
X207900Y200250D02*
D03*
Y145750D02*
D03*
D102*
X177600Y197250D02*
D03*
Y148750D02*
D03*
D103*
X106239Y276597D02*
D03*
X148522Y287975D02*
D03*
X37907Y365702D02*
D03*
X131110Y262847D02*
D03*
X65355Y394000D02*
D03*
X44092Y360368D02*
D03*
X196642Y462662D02*
D03*
X196273Y439137D02*
D03*
Y447028D02*
D03*
Y455217D02*
D03*
X183616Y234533D02*
D03*
X80910Y124497D02*
D03*
X74754Y135387D02*
D03*
X197000Y471000D02*
D03*
X47856Y228063D02*
D03*
X47678Y217767D02*
D03*
X66722Y327227D02*
D03*
X47332Y328672D02*
D03*
X47931Y256872D02*
D03*
X104167Y301733D02*
D03*
X136460Y135785D02*
D03*
X98771Y392422D02*
D03*
X142442Y295080D02*
D03*
X132622Y287678D02*
D03*
X187000Y653000D02*
D03*
X168556Y583000D02*
D03*
Y653000D02*
D03*
X150111Y583000D02*
D03*
Y653000D02*
D03*
X131667Y583000D02*
D03*
Y653000D02*
D03*
X113222Y583000D02*
D03*
Y653000D02*
D03*
X94778Y583000D02*
D03*
Y653000D02*
D03*
X76333Y583000D02*
D03*
Y653000D02*
D03*
X57889Y583000D02*
D03*
Y653000D02*
D03*
X39444Y583000D02*
D03*
Y653000D02*
D03*
X21000Y583000D02*
D03*
X76092Y539092D02*
D03*
X99000Y535936D02*
D03*
X33000Y525253D02*
D03*
X12000Y222000D02*
D03*
X83000Y167000D02*
D03*
D104*
X95165Y283051D02*
D03*
X49024Y412623D02*
D03*
X224860Y507000D02*
D03*
X217240Y491760D02*
D03*
X224860Y476520D02*
D03*
X217240Y461280D02*
D03*
X224860Y446040D02*
D03*
X217240Y430800D02*
D03*
X224860Y415560D02*
D03*
X217240Y400320D02*
D03*
X224860Y385080D02*
D03*
X217240Y369840D02*
D03*
X224860Y354600D02*
D03*
X217240Y339360D02*
D03*
X224860Y324120D02*
D03*
X217240Y308880D02*
D03*
X224860Y293640D02*
D03*
X217240Y278400D02*
D03*
X224860Y263160D02*
D03*
X217240Y247920D02*
D03*
X224860Y232680D02*
D03*
Y202200D02*
D03*
Y141240D02*
D03*
X217240Y34560D02*
D03*
X224860Y19320D02*
D03*
X209620Y507000D02*
D03*
X202000Y491760D02*
D03*
X209620Y476520D02*
D03*
Y19320D02*
D03*
X186760Y552720D02*
D03*
Y522240D02*
D03*
X194380Y507000D02*
D03*
X186760Y400320D02*
D03*
Y369840D02*
D03*
Y339360D02*
D03*
Y308880D02*
D03*
Y278400D02*
D03*
X171520Y552720D02*
D03*
X179140Y415560D02*
D03*
X171520Y400320D02*
D03*
X179140Y385080D02*
D03*
X171520Y369840D02*
D03*
X179140Y354600D02*
D03*
X171520Y339360D02*
D03*
X179140Y324120D02*
D03*
X171520Y308880D02*
D03*
X179140Y293640D02*
D03*
X171520Y278400D02*
D03*
X179140Y263160D02*
D03*
X171520Y126000D02*
D03*
X179140Y80280D02*
D03*
X171520Y65040D02*
D03*
X163900Y507000D02*
D03*
Y80280D02*
D03*
Y19320D02*
D03*
X141040Y552720D02*
D03*
X148660Y507000D02*
D03*
X141040Y186960D02*
D03*
Y95520D02*
D03*
Y34560D02*
D03*
X125800Y552720D02*
D03*
X133420Y537480D02*
D03*
Y507000D02*
D03*
X125800Y95520D02*
D03*
X118180Y507000D02*
D03*
X110560Y95520D02*
D03*
Y34560D02*
D03*
X118180Y19320D02*
D03*
X102940Y507000D02*
D03*
X95320Y369840D02*
D03*
Y95520D02*
D03*
Y34560D02*
D03*
X87700Y507000D02*
D03*
X80080Y369840D02*
D03*
X87700Y293640D02*
D03*
X64840Y34560D02*
D03*
X57220Y354600D02*
D03*
X49600Y156480D02*
D03*
Y126000D02*
D03*
Y65040D02*
D03*
Y34560D02*
D03*
X57220Y19320D02*
D03*
X41980Y537480D02*
D03*
X34360Y461280D02*
D03*
X41980Y263160D02*
D03*
X34360Y247920D02*
D03*
X41980Y171720D02*
D03*
Y49800D02*
D03*
X34360Y34560D02*
D03*
X41980Y19320D02*
D03*
X19120Y552720D02*
D03*
X26740Y476520D02*
D03*
Y446040D02*
D03*
Y324120D02*
D03*
X19120Y278400D02*
D03*
Y247920D02*
D03*
Y156480D02*
D03*
Y126000D02*
D03*
Y95520D02*
D03*
Y65040D02*
D03*
X26740Y49800D02*
D03*
X19120Y34560D02*
D03*
X26740Y19320D02*
D03*
X11500Y537480D02*
D03*
Y293640D02*
D03*
Y263160D02*
D03*
Y232680D02*
D03*
Y110760D02*
D03*
Y80280D02*
D03*
Y49800D02*
D03*
Y19320D02*
D03*
X49177Y451749D02*
D03*
X57892Y495588D02*
D03*
X58000Y419000D02*
D03*
X63226Y480888D02*
D03*
X130559Y86651D02*
D03*
X151750Y69750D02*
D03*
X137177Y151818D02*
D03*
X89084Y150337D02*
D03*
X138982Y288176D02*
D03*
X169246Y234437D02*
D03*
X83000Y178000D02*
D03*
X153840Y395231D02*
D03*
X129184Y113000D02*
D03*
X84000Y65000D02*
D03*
X56000Y545000D02*
D03*
X90000Y561000D02*
D03*
X70000D02*
D03*
X83000Y159000D02*
D03*
X131000Y169000D02*
D03*
D105*
X166604Y111538D02*
D03*
D106*
X119367Y350383D02*
D03*
Y215383D02*
D03*
M02*
