M48
;Layer_Color=9474304
;FILE_FORMAT=4:4
METRIC,LZ
;TYPE=PLATED
T1F00S00C0.3048
T4F00S00C0.7112
T5F00S00C0.7620
T6F00S00C1.1700
T7F00S00C3.1000
;TYPE=NON_PLATED
T8F00S00C2.3700
%
T01
X000115Y0001932
X0002674
X0004198
X0005722
X0006484Y0003456
X000496
X0003436
X0001912
X0002674Y000498
X0004198
X000496Y0006504
X0001912
X000115Y0008028
X0001912Y0009552
X000115Y0011076
X0001912Y00126
X000496
Y0015648
X0004198Y0017172
X0001912Y0015648
X00083Y00159
Y00167
X00089084Y00150337
X00074754Y00135387
X0008091Y00124497
X0009532Y0009552
X0011056
X001258
X00130559Y00086651
X0014104Y0009552
X00129184Y00113
X0013646Y00135785
X00137177Y00151818
X00131Y00169
X0017152Y00126
X0017914Y0008028
X001639
X0015175Y0006975
X0017152Y0006504
X001639Y0001932
X0014104Y0003456
X0011056
X0009532
X0011818Y0001932
X00084Y00065
X000115Y000498
X0021724Y0003456
X0022486Y0001932
X0020962
X0022486Y0014124
Y002022
Y0023268
X0021724Y0024792
X0022486Y0026316
X0021724Y002784
X0022486Y0029364
X0021724Y0030888
X0022486Y0032412
X0021724Y0033936
X0022486Y003546
X0021724Y0036984
X0022486Y0038508
X0021724Y0040032
X0022486Y0041556
X0021724Y004308
X0022486Y0044604
X0021724Y0046128
X00196642Y00462662
X00196273Y00455217
Y00447028
Y00439137
X00197Y00471
X0020962Y0047652
X0022486
X0021724Y0049176
X00202
X0020962Y00507
X0022486
X0019438
X0018676Y0052224
Y0055272
X0017152
X0014104
X001258
X0013342Y0053748
Y00507
X0014866
X001639
X0011818
X0010294
X000877
X00099Y00535936
X00076092Y00539092
X00056Y00545
X0004198Y0053748
X00033Y00525253
X000115Y0053748
X0001912Y0055272
X0007Y00561
X0009
X00057892Y00495588
X00063226Y00480888
X0002674Y0047652
X0003436Y0046128
X0002674Y0044604
X00049177Y00451749
X00049024Y00412623
X00058Y00419
X00065355Y00394
X00098771Y00392422
X0009532Y0036984
X0008008
X0005722Y003546
X00044092Y00360368
X00037907Y00365702
X00047332Y00328672
X00066722Y00327227
X0002674Y0032412
X000115Y0029364
X0001912Y002784
X000115Y0026316
X0001912Y0024792
X0003436
X00047931Y00256872
X0004198Y0026316
X00047856Y00228063
X00047678Y00217767
X00012Y00222
X000115Y0023268
X00083Y00178
X0014104Y0018696
X00169246Y00234437
X00183616Y00234533
X0017914Y0026316
X0018676Y002784
X0017152
X0017914Y0029364
X0018676Y0030888
X0017152
X0017914Y0032412
X0018676Y0033936
X0017152
X0017914Y003546
X0018676Y0036984
X0017152
X0017914Y0038508
X0018676Y0040032
X0017152
X0015384Y00395231
X0017914Y0041556
X00142442Y0029508
X00138982Y00288176
X00132622Y00287678
X00148522Y00287975
X0013111Y00262847
X00106239Y00276597
X00095165Y00283051
X000877Y0029364
X00104167Y00301733
X00113222Y00583
X00131667
X00150111
X00168556
Y00653
X00187
X00150111
X00131667
X00113222
X00094778
X00076333
X00057889
X00039444
Y00583
X00057889
X00076333
X00094778
X00021
T04
X00166604Y00111538
T05
X00212627Y00611171
T06
X00062568Y00051448
X00176368
T07
X00119367Y00215383
Y00350383
T08
X00119468Y00216047
Y00351048
M30
