G04*
G04 #@! TF.GenerationSoftware,Altium Limited,Altium Designer,21.6.1 (37)*
G04*
G04 Layer_Color=16711935*
%FSLAX44Y44*%
%MOMM*%
G71*
G04*
G04 #@! TF.SameCoordinates,95F62E22-250C-47DA-B756-0B2C72E373F4*
G04*
G04*
G04 #@! TF.FilePolarity,Positive*
G04*
G01*
G75*
%ADD10C,0.2000*%
%ADD11C,0.1000*%
%ADD16C,0.1524*%
%ADD18C,0.2032*%
%ADD91C,0.2540*%
D10*
X185433Y47940D02*
Y80981D01*
Y47940D02*
X232474D01*
Y80981D01*
X185433D02*
X232474D01*
X78000Y58000D02*
X112000D01*
X78000Y4000D02*
Y58000D01*
Y4000D02*
X112000D01*
Y58000D01*
X185479Y127521D02*
X232521D01*
Y94479D02*
Y127521D01*
X185479Y94479D02*
X232521D01*
X185479D02*
Y127521D01*
X158000Y4000D02*
Y58000D01*
X124000Y4000D02*
X158000D01*
X124000D02*
Y58000D01*
X158000D01*
D11*
X79729Y142156D02*
X97229D01*
X79729Y151656D02*
X97229D01*
Y142156D02*
Y151656D01*
X79729Y142156D02*
Y151656D01*
X78750Y545750D02*
Y556250D01*
X73250Y545750D02*
Y556250D01*
X78750D01*
X73250Y545750D02*
X78750D01*
X65750D02*
Y556250D01*
X60250Y545750D02*
Y556250D01*
X65750D01*
X60250Y545750D02*
X65750D01*
X33750Y481250D02*
X44250D01*
X33750Y486750D02*
X44250D01*
Y481250D02*
Y486750D01*
X33750Y481250D02*
Y486750D01*
X150000Y385668D02*
Y396669D01*
X144000Y385668D02*
Y396669D01*
X150000D01*
X144000Y385668D02*
X150000D01*
X107771Y384922D02*
Y395923D01*
X101771Y384922D02*
Y395923D01*
X107771D01*
X101771Y384922D02*
X107771D01*
X74000Y383500D02*
Y394500D01*
X68000Y383500D02*
Y394500D01*
X74000D01*
X68000Y383500D02*
X74000D01*
X10000Y190500D02*
Y201500D01*
X16000Y190500D02*
Y201500D01*
X10000Y190500D02*
X16000D01*
X10000Y201500D02*
X16000D01*
X164079Y93402D02*
X175079D01*
X164079Y99402D02*
X175079D01*
Y93402D02*
Y99402D01*
X164079Y93402D02*
Y99402D01*
X105106Y544890D02*
Y555890D01*
X99106Y544890D02*
Y555890D01*
X105106D01*
X99106Y544890D02*
X105106D01*
X140000Y385668D02*
Y396669D01*
X134000Y385668D02*
Y396669D01*
X140000D01*
X134000Y385668D02*
X140000D01*
X45691Y324074D02*
X56691D01*
X45691Y318074D02*
X56691D01*
X45691D02*
Y324074D01*
X56691Y318074D02*
Y324074D01*
X22500Y111000D02*
X33500D01*
X22500Y117000D02*
X33500D01*
Y111000D02*
Y117000D01*
X22500Y111000D02*
Y117000D01*
X31500Y123000D02*
X42500D01*
X31500Y129000D02*
X42500D01*
Y123000D02*
Y129000D01*
X31500Y123000D02*
Y129000D01*
X40500Y111000D02*
X51500D01*
X40500Y117000D02*
X51500D01*
Y111000D02*
Y117000D01*
X40500Y111000D02*
Y117000D01*
X19000Y223500D02*
Y234500D01*
X25000Y223500D02*
Y234500D01*
X19000Y223500D02*
X25000D01*
X19000Y234500D02*
X25000D01*
X138615Y283422D02*
X149615D01*
X138615Y277422D02*
X149615D01*
X138615D02*
Y283422D01*
X149615Y277422D02*
Y283422D01*
X98509Y263169D02*
Y274169D01*
X92509Y263169D02*
Y274169D01*
X98509D01*
X92509Y263169D02*
X98509D01*
X65000Y13500D02*
Y24500D01*
X71000Y13500D02*
Y24500D01*
X65000Y13500D02*
X71000D01*
X65000Y24500D02*
X71000D01*
X164235Y224920D02*
Y235920D01*
X158235Y224920D02*
Y235920D01*
X164235D01*
X158235Y224920D02*
X164235D01*
X181881Y246046D02*
X192881D01*
X181881Y240046D02*
X192881D01*
X181881D02*
Y246046D01*
X192881Y240046D02*
Y246046D01*
X131000Y385419D02*
Y396419D01*
X125000Y385419D02*
Y396419D01*
X131000D01*
X125000Y385419D02*
X131000D01*
X117010Y385111D02*
Y396111D01*
X111010Y385111D02*
Y396111D01*
X117010D01*
X111010Y385111D02*
X117010D01*
X83000Y383500D02*
Y394500D01*
X77000Y383500D02*
Y394500D01*
X83000D01*
X77000Y383500D02*
X83000D01*
D16*
X214709Y71274D02*
X213651Y72333D01*
X211535D01*
X210477Y71274D01*
Y67042D01*
X211535Y65985D01*
X213651D01*
X214709Y67042D01*
X216825Y65985D02*
X218941D01*
X217883D01*
Y72333D01*
X216825Y71274D01*
X226347Y72333D02*
X224231Y71274D01*
X222115Y69159D01*
Y67042D01*
X223173Y65985D01*
X225289D01*
X226347Y67042D01*
Y68101D01*
X225289Y69159D01*
X222115D01*
X141402Y419250D02*
X146692D01*
X147750Y420308D01*
Y422424D01*
X146692Y423482D01*
X141402D01*
X147750Y425598D02*
Y427714D01*
Y426656D01*
X141402D01*
X142460Y425598D01*
X96882Y31000D02*
X103230D01*
Y27826D01*
X102172Y26768D01*
X100056D01*
X98998Y27826D01*
Y31000D01*
Y28884D02*
X96882Y26768D01*
X103230Y20420D02*
Y24652D01*
X96882D01*
Y20420D01*
X100056Y24652D02*
Y22536D01*
X102172Y14072D02*
X103230Y15130D01*
Y17246D01*
X102172Y18304D01*
X101114D01*
X100056Y17246D01*
Y15130D01*
X98998Y14072D01*
X97940D01*
X96882Y15130D01*
Y17246D01*
X97940Y18304D01*
X103230Y7724D02*
Y11956D01*
X96882D01*
Y7724D01*
X100056Y11956D02*
Y9840D01*
X103230Y5608D02*
Y1376D01*
Y3492D01*
X96882D01*
Y-740D02*
Y-2855D01*
Y-1798D01*
X103230D01*
X102172Y-740D01*
X214756Y117814D02*
X213698Y118872D01*
X211582D01*
X210524Y117814D01*
Y113582D01*
X211582Y112524D01*
X213698D01*
X214756Y113582D01*
X216872Y112524D02*
X218988D01*
X217930D01*
Y118872D01*
X216872Y117814D01*
X222162Y118872D02*
X226394D01*
Y117814D01*
X222162Y113582D01*
Y112524D01*
X149230Y31000D02*
X142882D01*
Y27826D01*
X143940Y26768D01*
X144998D01*
X146056Y27826D01*
Y31000D01*
Y27826D01*
X147114Y26768D01*
X148172D01*
X149230Y27826D01*
Y31000D01*
Y21478D02*
Y23594D01*
X148172Y24652D01*
X143940D01*
X142882Y23594D01*
Y21478D01*
X143940Y20420D01*
X148172D01*
X149230Y21478D01*
Y15130D02*
Y17246D01*
X148172Y18304D01*
X143940D01*
X142882Y17246D01*
Y15130D01*
X143940Y14072D01*
X148172D01*
X149230Y15130D01*
Y11956D02*
Y7724D01*
Y9840D01*
X142882D01*
Y5608D02*
Y3492D01*
Y4550D01*
X149230D01*
X148172Y5608D01*
D18*
X67000Y402000D02*
X187000D01*
Y532000D01*
X67000D02*
X187000D01*
X67000Y402000D02*
Y532000D01*
D91*
X89099Y419000D02*
G03*
X89099Y419000I-5099J0D01*
G01*
M02*
