M48
;Layer_Color=9474304
;FILE_FORMAT=4:4
METRIC,LZ
;TYPE=PLATED
T1F00S00C0.3048
T4F00S00C0.7620
T5F00S00C1.0000
T6F00S00C1.3000
T7F00S00C1.9500
T8F00S00C3.0480
T9F00S00C3.0500
;TYPE=NON_PLATED
%
T01
X00100355Y00051355
X00151Y00055
X00137Y0007
X0024Y00058
Y00051
X00240284Y00028448
X00239944Y00020742
X0044773Y00196248
X0043773Y00232248
X0045573Y00250248
X00486156Y00352552
X0048641Y00413004
X00446Y00455
X00279807Y00446964
X00268Y00444
X00253Y0045
X00245
X00239239Y00445442
X00228571Y00441571
X00247Y00415036
X00256559Y00413582
X0028Y00353
X00319Y00355
X00309Y00298
X00341Y00295
X00379
X00386Y00318
X00318Y0024
X00281Y0023
X00228392Y00211
X00217327
X00206
X00191487Y00214339
X00184303Y00214125
X00173635
X0016299Y00212412
X00147488Y00218
X00108Y00219
X00107Y00174
X00115
X00125Y00173
X00096204Y00173986
X0011Y00106136
X00127Y0011773
X00193Y00094
X00218Y00111
X002Y00146
X00239Y00148
X00338544Y00134269
X00354Y00135
X0033Y00099932
X00307Y00089
Y0007508
X00374Y00183
X00128946Y00258818
X00186998Y00344998
X00197666Y00347
X00206Y00346
X00216
X00223Y00476
X00156Y0047
X00189Y00548
T04
X00463446Y00325628
Y00351028
X00336446Y00376428
Y00325628
T05
X0027178Y00543306
X0029718
X0032258
X0034798
T06
X00301282Y00494538
X00351282
T07
X0017Y0003245
Y0010865
X0017Y0044735
Y0052355
T08
X002513Y003815
T09
X002513Y001815
M30
