G04*
G04 #@! TF.GenerationSoftware,Altium Limited,Altium Designer,21.6.1 (37)*
G04*
G04 Layer_Physical_Order=1*
G04 Layer_Color=255*
%FSLAX44Y44*%
%MOMM*%
G71*
G04*
G04 #@! TF.SameCoordinates,4F178BE9-AC55-4CEC-B3A2-6D2310684F74*
G04*
G04*
G04 #@! TF.FilePolarity,Positive*
G04*
G01*
G75*
%ADD13C,0.2540*%
%ADD16C,0.5080*%
%ADD17C,0.2032*%
%ADD20R,0.4000X1.7500*%
%ADD21R,1.4250X2.5000*%
G04:AMPARAMS|DCode=22|XSize=0.5mm|YSize=0.8mm|CornerRadius=0.1mm|HoleSize=0mm|Usage=FLASHONLY|Rotation=270.000|XOffset=0mm|YOffset=0mm|HoleType=Round|Shape=RoundedRectangle|*
%AMROUNDEDRECTD22*
21,1,0.5000,0.6000,0,0,270.0*
21,1,0.3000,0.8000,0,0,270.0*
1,1,0.2000,-0.3000,-0.1500*
1,1,0.2000,-0.3000,0.1500*
1,1,0.2000,0.3000,0.1500*
1,1,0.2000,0.3000,-0.1500*
%
%ADD22ROUNDEDRECTD22*%
G04:AMPARAMS|DCode=23|XSize=0.5mm|YSize=0.8mm|CornerRadius=0.1mm|HoleSize=0mm|Usage=FLASHONLY|Rotation=0.000|XOffset=0mm|YOffset=0mm|HoleType=Round|Shape=RoundedRectangle|*
%AMROUNDEDRECTD23*
21,1,0.5000,0.6000,0,0,0.0*
21,1,0.3000,0.8000,0,0,0.0*
1,1,0.2000,0.1500,-0.3000*
1,1,0.2000,-0.1500,-0.3000*
1,1,0.2000,-0.1500,0.3000*
1,1,0.2000,0.1500,0.3000*
%
%ADD23ROUNDEDRECTD23*%
G04:AMPARAMS|DCode=24|XSize=1.5mm|YSize=1.5mm|CornerRadius=0.075mm|HoleSize=0mm|Usage=FLASHONLY|Rotation=270.000|XOffset=0mm|YOffset=0mm|HoleType=Round|Shape=RoundedRectangle|*
%AMROUNDEDRECTD24*
21,1,1.5000,1.3500,0,0,270.0*
21,1,1.3500,1.5000,0,0,270.0*
1,1,0.1500,-0.6750,-0.6750*
1,1,0.1500,-0.6750,0.6750*
1,1,0.1500,0.6750,0.6750*
1,1,0.1500,0.6750,-0.6750*
%
%ADD24ROUNDEDRECTD24*%
%ADD25R,1.0500X1.0500*%
%ADD26R,0.7112X1.7780*%
%ADD27R,1.1500X0.6000*%
%ADD28R,0.8890X1.0160*%
G04:AMPARAMS|DCode=29|XSize=0.76mm|YSize=0.6604mm|CornerRadius=0.0825mm|HoleSize=0mm|Usage=FLASHONLY|Rotation=270.000|XOffset=0mm|YOffset=0mm|HoleType=Round|Shape=RoundedRectangle|*
%AMROUNDEDRECTD29*
21,1,0.7600,0.4953,0,0,270.0*
21,1,0.5949,0.6604,0,0,270.0*
1,1,0.1651,-0.2477,-0.2975*
1,1,0.1651,-0.2477,0.2975*
1,1,0.1651,0.2477,0.2975*
1,1,0.1651,0.2477,-0.2975*
%
%ADD29ROUNDEDRECTD29*%
%ADD30R,0.6096X1.7272*%
%ADD31R,0.7112X1.7272*%
%ADD32R,1.2700X0.3556*%
%ADD33R,0.4000X0.9000*%
%ADD34R,0.8000X0.7556*%
%ADD35R,0.7556X0.8000*%
%ADD36R,0.7874X0.3556*%
%ADD37R,1.0500X1.0500*%
%ADD38R,0.6000X0.8500*%
%ADD39R,0.4500X0.8000*%
%ADD40R,0.6000X1.2000*%
%ADD41R,0.2800X0.4100*%
%ADD42R,0.4100X0.2800*%
%ADD43R,0.9398X0.9652*%
%ADD44R,0.6500X1.0500*%
%ADD45R,1.0500X2.1999*%
%ADD46R,1.0000X1.0500*%
%ADD47R,0.9652X0.9398*%
%ADD48R,1.2000X2.2000*%
%ADD49R,0.7000X0.5000*%
%ADD50R,0.8500X0.6000*%
%ADD51R,0.5000X0.7000*%
%ADD52R,0.8000X0.9000*%
%ADD53R,2.0000X1.4600*%
%ADD97C,0.3810*%
%ADD98O,1.2000X1.7000*%
%ADD99O,1.0000X1.4000*%
%ADD100C,1.5240*%
%ADD101R,2.5000X2.5000*%
%ADD102C,2.5000*%
%ADD103C,1.5000*%
%ADD104R,1.5000X1.5000*%
%ADD105C,2.9500*%
%ADD106C,4.5720*%
%ADD107C,0.4064*%
G36*
X397283Y561381D02*
X401044Y559824D01*
X404428Y557562D01*
X407307Y554684D01*
X409568Y551299D01*
X411126Y547539D01*
X411920Y543546D01*
Y541511D01*
X411921Y541508D01*
X411920Y541504D01*
X412003Y538116D01*
X412008Y538106D01*
X412005Y538096D01*
X412669Y531351D01*
X412676Y531338D01*
X412673Y531324D01*
X413995Y524677D01*
X414003Y524665D01*
X414002Y524651D01*
X415969Y518166D01*
X415978Y518154D01*
Y518140D01*
X418572Y511879D01*
X418582Y511869D01*
X418583Y511854D01*
X421778Y505877D01*
X421789Y505868D01*
X421792Y505854D01*
X425557Y500219D01*
X425569Y500211D01*
X425573Y500197D01*
X429873Y494958D01*
X429885Y494952D01*
X429891Y494938D01*
X434683Y490146D01*
X434696Y490141D01*
X434703Y490128D01*
X439942Y485829D01*
X439955Y485824D01*
X439963Y485812D01*
X445598Y482047D01*
X445613Y482044D01*
X445622Y482033D01*
X451599Y478839D01*
X451613Y478837D01*
X451623Y478827D01*
X457884Y476233D01*
X457899D01*
X457910Y476224D01*
X464395Y474257D01*
X464410Y474258D01*
X464422Y474250D01*
X471069Y472928D01*
X471083Y472931D01*
X471095Y472924D01*
X477840Y472260D01*
X477850Y472263D01*
X477860Y472259D01*
X481249Y472176D01*
X481252Y472177D01*
X481255Y472176D01*
X483291Y472176D01*
X487283Y471381D01*
X491044Y469824D01*
X494428Y467562D01*
X497307Y464684D01*
X499568Y461299D01*
X501126Y457539D01*
X501920Y453546D01*
Y451511D01*
X501920Y206511D01*
Y204476D01*
X501126Y200483D01*
X499568Y196723D01*
X497307Y193338D01*
X494428Y190460D01*
X491044Y188199D01*
X487283Y186641D01*
X483291Y185847D01*
X481256D01*
X481252Y185845D01*
X481249Y185847D01*
X477615Y185757D01*
X477605Y185753D01*
X477595Y185756D01*
X470362Y185044D01*
X470349Y185037D01*
X470335Y185040D01*
X463207Y183622D01*
X463195Y183614D01*
X463181Y183615D01*
X456226Y181506D01*
X456214Y181496D01*
X456200D01*
X449485Y178715D01*
X449475Y178705D01*
X449461Y178704D01*
X443051Y175278D01*
X443042Y175266D01*
X443028Y175264D01*
X436985Y171226D01*
X436977Y171214D01*
X436963Y171210D01*
X431345Y166599D01*
X431338Y166586D01*
X431325Y166581D01*
X426186Y161442D01*
X426180Y161428D01*
X426168Y161422D01*
X421557Y155803D01*
X421553Y155790D01*
X421541Y155782D01*
X417503Y149739D01*
X417500Y149725D01*
X417489Y149715D01*
X414063Y143306D01*
X414062Y143291D01*
X414052Y143281D01*
X411270Y136567D01*
Y136552D01*
X411261Y136541D01*
X409151Y129586D01*
X409153Y129572D01*
X409145Y129560D01*
X407727Y122432D01*
X407730Y122418D01*
X407723Y122405D01*
X407010Y115172D01*
X407014Y115162D01*
X407009Y115152D01*
X406920Y111518D01*
X406921Y111515D01*
X406920Y111511D01*
X406920Y21511D01*
Y19476D01*
X406126Y15483D01*
X404568Y11723D01*
X402307Y8338D01*
X399428Y5460D01*
X396044Y3198D01*
X392283Y1641D01*
X388291Y847D01*
X386255Y847D01*
X109220D01*
X105228Y1641D01*
X101467Y3198D01*
X98083Y5460D01*
X95204Y8338D01*
X92943Y11723D01*
X91385Y15483D01*
X90591Y19476D01*
X90591Y21511D01*
X90590Y21514D01*
X90591Y21518D01*
X90508Y24906D01*
X90503Y24916D01*
X90507Y24927D01*
X89842Y31671D01*
X89836Y31684D01*
X89838Y31698D01*
X88516Y38345D01*
X88508Y38357D01*
X88510Y38371D01*
X86542Y44857D01*
X86533Y44868D01*
Y44882D01*
X83940Y51143D01*
X83929Y51154D01*
X83928Y51168D01*
X80733Y57145D01*
X80722Y57154D01*
X80719Y57168D01*
X76954Y62803D01*
X76942Y62811D01*
X76938Y62825D01*
X72639Y68064D01*
X72626Y68071D01*
X72621Y68084D01*
X67828Y72876D01*
X67815Y72881D01*
X67808Y72894D01*
X62569Y77194D01*
X62556Y77198D01*
X62548Y77210D01*
X56912Y80975D01*
X56898Y80978D01*
X56889Y80989D01*
X50912Y84184D01*
X50898Y84185D01*
X50888Y84195D01*
X44627Y86789D01*
X44612D01*
X44601Y86798D01*
X38116Y88765D01*
X38101Y88764D01*
X38090Y88772D01*
X31442Y90094D01*
X31428Y90091D01*
X31416Y90098D01*
X24671Y90762D01*
X24661Y90759D01*
X24651Y90763D01*
X21262Y90847D01*
X21259Y90845D01*
X21256Y90847D01*
X19220Y90847D01*
X15228Y91641D01*
X11467Y93198D01*
X8083Y95460D01*
X5204Y98338D01*
X4891Y98808D01*
X5489Y99928D01*
X89000D01*
X89793Y100086D01*
X90465Y100535D01*
X90914Y101207D01*
X91072Y102000D01*
Y168446D01*
X92342Y168571D01*
X92376Y168400D01*
X93274Y167056D01*
X94618Y166158D01*
X95891Y165905D01*
X96603Y165049D01*
X96797Y164665D01*
X96659Y164282D01*
X92968D01*
Y149718D01*
X93275D01*
X94468Y149532D01*
Y133468D01*
X104532D01*
Y148283D01*
X105802Y149253D01*
X105960Y149210D01*
Y149210D01*
X113468D01*
Y133468D01*
X123532D01*
Y149532D01*
X121540D01*
Y155730D01*
X113750D01*
Y158270D01*
X121558D01*
X122522Y159061D01*
X122971Y158972D01*
X124557Y159287D01*
X125901Y160185D01*
X126799Y161530D01*
X127114Y163115D01*
X126799Y164701D01*
X126722Y164816D01*
X127486Y165959D01*
X128000Y165856D01*
X129586Y166172D01*
X130930Y167070D01*
X131828Y168414D01*
X132144Y170000D01*
X131828Y171586D01*
X131108Y172664D01*
Y175649D01*
X134731D01*
Y189365D01*
X121269D01*
Y189365D01*
X108269D01*
Y188112D01*
X107032Y188032D01*
Y188032D01*
X94968D01*
Y176412D01*
X97633D01*
Y174846D01*
X96652Y174041D01*
X96204Y174130D01*
X94618Y173814D01*
X93274Y172916D01*
X92376Y171572D01*
X92342Y171401D01*
X91072Y171526D01*
Y311338D01*
X103468D01*
Y308718D01*
X113532D01*
Y321282D01*
X111867D01*
Y327371D01*
X112765Y328269D01*
X113067Y328269D01*
X114127Y327761D01*
X114425Y327761D01*
X120223D01*
Y335000D01*
Y342239D01*
X114425D01*
X114127Y342239D01*
X113067Y341731D01*
X112857Y341731D01*
X99649D01*
Y328269D01*
X105133D01*
Y321282D01*
X103468D01*
Y320662D01*
X91072D01*
Y337000D01*
X90914Y337793D01*
X90465Y338465D01*
X89793Y338914D01*
X89000Y339072D01*
X591D01*
Y358546D01*
X1385Y362539D01*
X2943Y366299D01*
X5204Y369684D01*
X8083Y372562D01*
X11467Y374824D01*
X15228Y376381D01*
X19220Y377175D01*
X21256D01*
X21259Y377177D01*
X21262Y377176D01*
X24896Y377265D01*
X24906Y377269D01*
X24917Y377266D01*
X32149Y377978D01*
X32162Y377985D01*
X32176Y377982D01*
X39304Y379400D01*
X39316Y379408D01*
X39331Y379407D01*
X46286Y381517D01*
X46297Y381526D01*
X46311D01*
X53026Y384307D01*
X53036Y384317D01*
X53050Y384319D01*
X59460Y387745D01*
X59469Y387756D01*
X59483Y387759D01*
X65526Y391796D01*
X65534Y391808D01*
X65548Y391813D01*
X71166Y396423D01*
X71173Y396436D01*
X71186Y396441D01*
X76325Y401581D01*
X76331Y401594D01*
X76343Y401601D01*
X80954Y407219D01*
X80958Y407233D01*
X80970Y407240D01*
X85008Y413284D01*
X85011Y413298D01*
X85022Y413307D01*
X88448Y419716D01*
X88449Y419731D01*
X88460Y419741D01*
X91241Y426456D01*
Y426470D01*
X91250Y426481D01*
X93360Y433436D01*
X93358Y433450D01*
X93366Y433462D01*
X94784Y440591D01*
X94781Y440605D01*
X94788Y440617D01*
X95501Y447850D01*
X95497Y447860D01*
X95502Y447870D01*
X95591Y451504D01*
X95590Y451508D01*
X95591Y451511D01*
X95591Y541511D01*
Y543546D01*
X96385Y547539D01*
X97943Y551299D01*
X100204Y554684D01*
X103083Y557562D01*
X106467Y559824D01*
X110228Y561381D01*
X114220Y562176D01*
X393291D01*
X397283Y561381D01*
D02*
G37*
%LPC*%
G36*
X376440Y548040D02*
X367670D01*
Y539270D01*
X376440D01*
Y548040D01*
D02*
G37*
G36*
X365130D02*
X356360D01*
Y539270D01*
X365130D01*
Y548040D01*
D02*
G37*
G36*
X124040Y545540D02*
X119520D01*
Y539020D01*
X124040D01*
Y545540D01*
D02*
G37*
G36*
X116980D02*
X112460D01*
Y539020D01*
X116980D01*
Y545540D01*
D02*
G37*
G36*
X124040Y536480D02*
X119520D01*
Y529960D01*
X124040D01*
Y536480D01*
D02*
G37*
G36*
X116980D02*
X112460D01*
Y529960D01*
X116980D01*
Y536480D01*
D02*
G37*
G36*
X341000Y547614D02*
X338512Y547287D01*
X336193Y546326D01*
X334202Y544798D01*
X332674Y542807D01*
X331713Y540488D01*
X331386Y538000D01*
X331713Y535512D01*
X332674Y533193D01*
X334202Y531202D01*
X336193Y529674D01*
X338512Y528713D01*
X341000Y528386D01*
X343488Y528713D01*
X345807Y529674D01*
X347798Y531202D01*
X349326Y533193D01*
X350287Y535512D01*
X350614Y538000D01*
X350287Y540488D01*
X349326Y542807D01*
X347798Y544798D01*
X345807Y546326D01*
X343488Y547287D01*
X341000Y547614D01*
D02*
G37*
G36*
X315600D02*
X313112Y547287D01*
X310793Y546326D01*
X308802Y544798D01*
X307274Y542807D01*
X306313Y540488D01*
X305986Y538000D01*
X306313Y535512D01*
X307274Y533193D01*
X308802Y531202D01*
X310793Y529674D01*
X313112Y528713D01*
X315600Y528386D01*
X318088Y528713D01*
X320407Y529674D01*
X322398Y531202D01*
X323926Y533193D01*
X324887Y535512D01*
X325214Y538000D01*
X324887Y540488D01*
X323926Y542807D01*
X322398Y544798D01*
X320407Y546326D01*
X318088Y547287D01*
X315600Y547614D01*
D02*
G37*
G36*
X290200D02*
X287712Y547287D01*
X285393Y546326D01*
X283402Y544798D01*
X281874Y542807D01*
X280913Y540488D01*
X280586Y538000D01*
X280913Y535512D01*
X281874Y533193D01*
X283402Y531202D01*
X285393Y529674D01*
X287712Y528713D01*
X290200Y528386D01*
X292688Y528713D01*
X295007Y529674D01*
X296998Y531202D01*
X298526Y533193D01*
X299487Y535512D01*
X299814Y538000D01*
X299487Y540488D01*
X298526Y542807D01*
X296998Y544798D01*
X295007Y546326D01*
X292688Y547287D01*
X290200Y547614D01*
D02*
G37*
G36*
X376440Y536730D02*
X367670D01*
Y527960D01*
X376440D01*
Y536730D01*
D02*
G37*
G36*
X365130D02*
X356360D01*
Y527960D01*
X365130D01*
Y536730D01*
D02*
G37*
G36*
X171270Y540799D02*
Y524820D01*
X187249D01*
X187040Y526939D01*
X186051Y530199D01*
X184446Y533202D01*
X182285Y535835D01*
X179652Y537996D01*
X176649Y539601D01*
X173390Y540590D01*
X171270Y540799D01*
D02*
G37*
G36*
X168730Y540799D02*
X166611Y540590D01*
X163352Y539601D01*
X160348Y537996D01*
X157715Y535835D01*
X155555Y533202D01*
X153949Y530199D01*
X152960Y526939D01*
X152752Y524820D01*
X168730D01*
Y540799D01*
D02*
G37*
G36*
Y522280D02*
X152752D01*
X152960Y520161D01*
X153949Y516901D01*
X155555Y513898D01*
X157715Y511265D01*
X160348Y509104D01*
X160970Y508772D01*
X160661Y507540D01*
X158270D01*
Y501020D01*
X164790D01*
Y505997D01*
X165810Y506753D01*
X166611Y506510D01*
X168730Y506301D01*
Y522280D01*
D02*
G37*
G36*
X187249D02*
X171270D01*
Y506301D01*
X173390Y506510D01*
X176649Y507499D01*
X179652Y509104D01*
X182285Y511265D01*
X184446Y513898D01*
X186051Y516901D01*
X187040Y520161D01*
X187249Y522280D01*
D02*
G37*
G36*
X155730Y507540D02*
X149210D01*
Y501020D01*
X155730D01*
Y507540D01*
D02*
G37*
G36*
X248790Y505040D02*
X243270D01*
Y500770D01*
X248790D01*
Y505040D01*
D02*
G37*
G36*
X240730D02*
X235210D01*
Y500770D01*
X240730D01*
Y505040D01*
D02*
G37*
G36*
X124040Y504040D02*
X119520D01*
Y497520D01*
X124040D01*
Y504040D01*
D02*
G37*
G36*
X116980D02*
X112460D01*
Y497520D01*
X116980D01*
Y504040D01*
D02*
G37*
G36*
X248790Y498230D02*
X243270D01*
Y493960D01*
X248790D01*
Y498230D01*
D02*
G37*
G36*
X240730D02*
X235210D01*
Y493960D01*
X240730D01*
Y498230D01*
D02*
G37*
G36*
X189000Y552144D02*
X187414Y551828D01*
X186070Y550930D01*
X185172Y549586D01*
X184856Y548000D01*
X185172Y546414D01*
X186070Y545070D01*
X187414Y544172D01*
X189000Y543856D01*
X190586Y544172D01*
X190840Y544342D01*
X191897D01*
X195968Y540271D01*
Y530468D01*
X197883D01*
Y503532D01*
X195968D01*
Y488968D01*
X206532D01*
Y503532D01*
X204617D01*
Y530468D01*
X206532D01*
Y545032D01*
X200729D01*
X195672Y550089D01*
X194580Y550819D01*
X193292Y551075D01*
X191713D01*
X190586Y551828D01*
X189000Y552144D01*
D02*
G37*
G36*
X124040Y494980D02*
X119520D01*
Y488460D01*
X124040D01*
Y494980D01*
D02*
G37*
G36*
X116980D02*
X112460D01*
Y488460D01*
X116980D01*
Y494980D01*
D02*
G37*
G36*
X228032Y545032D02*
X217468D01*
Y530468D01*
X219642D01*
Y503532D01*
X217468D01*
Y488968D01*
X219892D01*
Y478664D01*
X219172Y477586D01*
X218856Y476000D01*
X219172Y474414D01*
X220070Y473070D01*
X221414Y472172D01*
X223000Y471856D01*
X224586Y472172D01*
X225930Y473070D01*
X226828Y474414D01*
X227144Y476000D01*
X226828Y477586D01*
X226108Y478664D01*
Y486838D01*
X227281Y487324D01*
X230303Y484302D01*
X231311Y483629D01*
X232500Y483392D01*
X235718D01*
Y481468D01*
X248282D01*
Y491532D01*
X235718D01*
Y489608D01*
X233787D01*
X229181Y494213D01*
X228173Y494887D01*
X228032Y494915D01*
Y503532D01*
X225858D01*
Y530468D01*
X228032D01*
Y545032D01*
D02*
G37*
G36*
X145032D02*
X134468D01*
Y530468D01*
X136642D01*
Y503532D01*
X134468D01*
Y488968D01*
X140637D01*
X145553Y484053D01*
X146561Y483379D01*
X147750Y483142D01*
X149718D01*
Y478968D01*
X153892D01*
Y473479D01*
X153070Y472930D01*
X152172Y471586D01*
X151856Y470000D01*
X152172Y468414D01*
X153070Y467070D01*
X154414Y466172D01*
X156000Y465856D01*
X157586Y466172D01*
X158930Y467070D01*
X159828Y468414D01*
X160144Y470000D01*
X159972Y470865D01*
X160108Y471550D01*
Y478968D01*
X164282D01*
Y491960D01*
X164790D01*
Y498480D01*
X157000D01*
X149210D01*
Y491960D01*
X149718D01*
Y490473D01*
X148448Y489947D01*
X145032Y493363D01*
Y503532D01*
X142858D01*
Y530468D01*
X145032D01*
Y545032D01*
D02*
G37*
G36*
X474480Y463790D02*
X467960D01*
Y463282D01*
X454968D01*
Y458367D01*
X448276D01*
X447586Y458828D01*
X446000Y459144D01*
X444414Y458828D01*
X443070Y457930D01*
X442172Y456586D01*
X441856Y455000D01*
X442172Y453414D01*
X443070Y452070D01*
X444414Y451172D01*
X446000Y450856D01*
X447586Y451172D01*
X448276Y451633D01*
X454968D01*
Y448718D01*
X458883D01*
Y445532D01*
X454718D01*
Y435468D01*
X470282D01*
Y445532D01*
X465617D01*
Y448718D01*
X467960D01*
Y448210D01*
X474480D01*
Y456000D01*
Y463790D01*
D02*
G37*
G36*
X483540D02*
X477020D01*
Y457270D01*
X483540D01*
Y463790D01*
D02*
G37*
G36*
X241221Y473364D02*
X239635Y473049D01*
X238291Y472151D01*
X237393Y470806D01*
X237077Y469221D01*
X237127Y468972D01*
X236054Y467900D01*
X235381Y466891D01*
X235144Y465702D01*
Y455505D01*
X235032Y454282D01*
X233621Y454282D01*
X230561Y457342D01*
X230399Y458156D01*
X229501Y459501D01*
X228156Y460399D01*
X226571Y460714D01*
X224985Y460399D01*
X223641Y459501D01*
X222743Y458156D01*
X222427Y456571D01*
X222573Y455839D01*
X221486Y454790D01*
X215520D01*
Y447000D01*
Y439210D01*
X222040D01*
Y439718D01*
X235032D01*
Y442983D01*
X238760D01*
Y442620D01*
X243350D01*
Y441350D01*
X244620D01*
Y437410D01*
X245568D01*
Y436618D01*
X245633D01*
Y434656D01*
X243902Y432925D01*
X243414Y432828D01*
X242070Y431930D01*
X241172Y430586D01*
X240856Y429000D01*
X241172Y427414D01*
X242070Y426070D01*
X243414Y425172D01*
X245000Y424856D01*
X246586Y425172D01*
X247930Y426070D01*
X248828Y427414D01*
X248859Y427568D01*
X249280Y427778D01*
X250715Y427074D01*
X250731Y426997D01*
X251629Y425653D01*
X252973Y424754D01*
X254559Y424439D01*
X256145Y424754D01*
X257489Y425653D01*
X258387Y426997D01*
X258703Y428582D01*
X258387Y430168D01*
X257489Y431512D01*
X257367Y431594D01*
Y436618D01*
X257432D01*
Y437918D01*
X263732D01*
Y437983D01*
X269080D01*
X270368Y438240D01*
X271461Y438969D01*
X278209Y445718D01*
X286440D01*
Y445210D01*
X292960D01*
Y453000D01*
Y460790D01*
X286440D01*
Y460282D01*
X284367D01*
Y466724D01*
X284828Y467414D01*
X285144Y469000D01*
X284828Y470586D01*
X283930Y471930D01*
X282586Y472828D01*
X281000Y473144D01*
X279414Y472828D01*
X278070Y471930D01*
X277172Y470586D01*
X276856Y469000D01*
X277172Y467414D01*
X277633Y466724D01*
Y462517D01*
X276460Y462031D01*
X271777Y466715D01*
X270684Y467444D01*
X269396Y467701D01*
X259514D01*
X258853Y467569D01*
X257935Y467896D01*
X257543Y468505D01*
X257328Y469586D01*
X256430Y470930D01*
X255086Y471828D01*
X253500Y472144D01*
X251914Y471828D01*
X250570Y470930D01*
X249672Y469586D01*
X249419Y468314D01*
X246803Y465698D01*
X246129Y464689D01*
X245892Y463500D01*
Y461082D01*
X245568D01*
Y460290D01*
X244620D01*
Y456350D01*
X242080D01*
Y460290D01*
X241360D01*
Y464415D01*
X242221Y465276D01*
X242806Y465392D01*
X244151Y466291D01*
X245049Y467635D01*
X245364Y469221D01*
X245049Y470806D01*
X244151Y472151D01*
X242806Y473049D01*
X241221Y473364D01*
D02*
G37*
G36*
X302020Y460790D02*
X295500D01*
Y454270D01*
X302020D01*
Y460790D01*
D02*
G37*
G36*
X171270Y464599D02*
Y448620D01*
X187249D01*
X187040Y450739D01*
X186051Y453999D01*
X184446Y457002D01*
X182285Y459635D01*
X179652Y461796D01*
X176649Y463401D01*
X173390Y464390D01*
X171270Y464599D01*
D02*
G37*
G36*
X168730Y464599D02*
X166611Y464390D01*
X163352Y463401D01*
X160348Y461796D01*
X157715Y459635D01*
X155555Y457002D01*
X153949Y453999D01*
X152960Y450739D01*
X152752Y448620D01*
X168730D01*
Y464599D01*
D02*
G37*
G36*
X212980Y454790D02*
X206460D01*
Y448270D01*
X212980D01*
Y454790D01*
D02*
G37*
G36*
X483540Y454730D02*
X477020D01*
Y448210D01*
X483540D01*
Y454730D01*
D02*
G37*
G36*
X405732Y468776D02*
X337668D01*
X336479Y468539D01*
X335471Y467865D01*
X286757Y419152D01*
X236991D01*
X235802Y418915D01*
X234794Y418242D01*
X156286Y339734D01*
X155613Y338726D01*
X155486Y338089D01*
X154317Y337856D01*
X153314Y337186D01*
X152644Y336183D01*
X152409Y335000D01*
Y329000D01*
X152644Y327817D01*
X153314Y326814D01*
X154317Y326144D01*
X155500Y325909D01*
X158500D01*
X159683Y326144D01*
X160686Y326814D01*
X161314D01*
X162317Y326144D01*
X163500Y325909D01*
X166500D01*
X167683Y326144D01*
X168686Y326814D01*
X169314D01*
X170317Y326144D01*
X171500Y325909D01*
X174500D01*
X175683Y326144D01*
X176686Y326814D01*
X177314D01*
X178317Y326144D01*
X179500Y325909D01*
X182500D01*
X183683Y326144D01*
X184064Y326399D01*
X185000Y326710D01*
X185936Y326399D01*
X186317Y326144D01*
X187500Y325909D01*
X190500D01*
X191683Y326144D01*
X192064Y326399D01*
X193000Y326710D01*
X193936Y326399D01*
X194317Y326144D01*
X195500Y325909D01*
X198500D01*
X199683Y326144D01*
X200064Y326399D01*
X201000Y326710D01*
X201936Y326399D01*
X202317Y326144D01*
X203500Y325909D01*
X206500D01*
X207683Y326144D01*
X208064Y326399D01*
X209000Y326710D01*
X209936Y326399D01*
X210317Y326144D01*
X211500Y325909D01*
X214500D01*
X215683Y326144D01*
X216064Y326399D01*
X217000Y326710D01*
X217936Y326399D01*
X218317Y326144D01*
X219500Y325909D01*
X222500D01*
X223683Y326144D01*
X224064Y326399D01*
X225000Y326710D01*
X225936Y326399D01*
X226317Y326144D01*
X227500Y325909D01*
X230500D01*
X231683Y326144D01*
X232064Y326399D01*
X233000Y326710D01*
X233936Y326399D01*
X234317Y326144D01*
X235500Y325909D01*
X238500D01*
X239683Y326144D01*
X240064Y326399D01*
X241000Y326710D01*
X241936Y326399D01*
X242317Y326144D01*
X243500Y325909D01*
X246500D01*
X247683Y326144D01*
X248686Y326814D01*
X249356Y327817D01*
X249591Y329000D01*
Y335000D01*
X249356Y336183D01*
X248686Y337186D01*
X247683Y337856D01*
X246500Y338091D01*
X243500D01*
X242317Y337856D01*
X241936Y337601D01*
X241000Y337290D01*
X240064Y337601D01*
X239683Y337856D01*
X238500Y338091D01*
X235500D01*
X234317Y337856D01*
X233936Y337601D01*
X233000Y337290D01*
X232064Y337601D01*
X231683Y337856D01*
X230500Y338091D01*
X227500D01*
X226317Y337856D01*
X225936Y337601D01*
X225000Y337290D01*
X224064Y337601D01*
X223683Y337856D01*
X222500Y338091D01*
X219500D01*
X218317Y337856D01*
X217936Y337601D01*
X217000Y337290D01*
X216064Y337601D01*
X215683Y337856D01*
X214500Y338091D01*
X211500D01*
X210317Y337856D01*
X209936Y337601D01*
X209000Y337290D01*
X208064Y337601D01*
X207683Y337856D01*
X206500Y338091D01*
X203500D01*
X202317Y337856D01*
X201936Y337601D01*
X201000Y337290D01*
X200064Y337601D01*
X199683Y337856D01*
X198500Y338091D01*
X195500D01*
X195269Y338045D01*
X194643Y339216D01*
X198437Y343010D01*
X199252Y343172D01*
X200596Y344070D01*
X201494Y345414D01*
X201810Y347000D01*
X201494Y348586D01*
X200596Y349930D01*
X199252Y350828D01*
X197666Y351144D01*
X196080Y350828D01*
X194736Y349930D01*
X194039Y348886D01*
X193696Y348801D01*
X192970D01*
X192627Y348886D01*
X191930Y349930D01*
X190586Y350828D01*
X190247Y350896D01*
X189829Y352274D01*
X226154Y388598D01*
X227243Y387945D01*
X226768Y386380D01*
X226288Y381500D01*
X226768Y376620D01*
X228192Y371928D01*
X230503Y367604D01*
X233613Y363814D01*
X237404Y360703D01*
X241728Y358391D01*
X246420Y356968D01*
X251300Y356488D01*
X256180Y356968D01*
X260872Y358391D01*
X265196Y360703D01*
X268986Y363814D01*
X272097Y367604D01*
X274408Y371928D01*
X275832Y376620D01*
X276313Y381500D01*
X275832Y386380D01*
X274408Y391072D01*
X272097Y395396D01*
X268986Y399187D01*
X265196Y402297D01*
X263753Y403068D01*
X264062Y404300D01*
X291621D01*
X292810Y404537D01*
X293819Y405210D01*
X307000Y418392D01*
X454718D01*
Y416468D01*
X470282D01*
Y426532D01*
X454718D01*
Y424608D01*
X309135D01*
X308649Y425781D01*
X334501Y451633D01*
X381947D01*
X382569Y450132D01*
X384116Y448116D01*
X386132Y446569D01*
X388480Y445596D01*
X391000Y445265D01*
X393520Y445596D01*
X395868Y446569D01*
X397884Y448116D01*
X399431Y450132D01*
X400404Y452480D01*
X400735Y455000D01*
X400404Y457520D01*
X399431Y459868D01*
X398339Y461290D01*
X398966Y462560D01*
X404445D01*
X407725Y459280D01*
X406996Y457520D01*
X406665Y455000D01*
X406996Y452480D01*
X407969Y450132D01*
X409516Y448116D01*
X411532Y446569D01*
X413880Y445596D01*
X416400Y445265D01*
X418920Y445596D01*
X421268Y446569D01*
X423284Y448116D01*
X424831Y450132D01*
X425804Y452480D01*
X426135Y455000D01*
X425804Y457520D01*
X424831Y459868D01*
X423284Y461884D01*
X421268Y463431D01*
X418920Y464404D01*
X416400Y464735D01*
X413880Y464404D01*
X412120Y463675D01*
X407929Y467865D01*
X406921Y468539D01*
X405732Y468776D01*
D02*
G37*
G36*
X302020Y451730D02*
X295500D01*
Y445210D01*
X302020D01*
Y451730D01*
D02*
G37*
G36*
X212980Y445730D02*
X206460D01*
Y439210D01*
X212980D01*
Y445730D01*
D02*
G37*
G36*
X242080Y440080D02*
X238760D01*
Y437410D01*
X242080D01*
Y440080D01*
D02*
G37*
G36*
X495790Y436540D02*
X488770D01*
Y432270D01*
X495790D01*
Y436540D01*
D02*
G37*
G36*
X486230D02*
X479210D01*
Y432270D01*
X486230D01*
Y436540D01*
D02*
G37*
G36*
X168730Y446080D02*
X152752D01*
X152960Y443961D01*
X153949Y440701D01*
X155555Y437698D01*
X157715Y435065D01*
X160348Y432904D01*
X163352Y431299D01*
X166611Y430310D01*
X168730Y430102D01*
Y446080D01*
D02*
G37*
G36*
X187249D02*
X171270D01*
Y430101D01*
X173390Y430310D01*
X176649Y431299D01*
X179652Y432904D01*
X182285Y435065D01*
X184446Y437698D01*
X186051Y440701D01*
X187040Y443961D01*
X187249Y446080D01*
D02*
G37*
G36*
X495790Y429730D02*
X488770D01*
Y425460D01*
X495790D01*
Y429730D01*
D02*
G37*
G36*
X486230D02*
X479210D01*
Y425460D01*
X486230D01*
Y429730D01*
D02*
G37*
G36*
X130540Y393540D02*
X124020D01*
Y381270D01*
X130540D01*
Y393540D01*
D02*
G37*
G36*
X101040D02*
X94520D01*
Y381270D01*
X101040D01*
Y393540D01*
D02*
G37*
G36*
X121480D02*
X114960D01*
Y381270D01*
X121480D01*
Y393540D01*
D02*
G37*
G36*
X91980D02*
X85460D01*
Y381270D01*
X91980D01*
Y393540D01*
D02*
G37*
G36*
X122750Y380000D02*
D01*
Y378730D01*
X114960D01*
Y372032D01*
X101040D01*
Y378730D01*
X94520D01*
Y366460D01*
X100968D01*
Y357468D01*
X115032D01*
Y361383D01*
X122856D01*
X131633Y352606D01*
Y322916D01*
X131890Y321628D01*
X132552Y320637D01*
X132412Y320034D01*
X132135Y319367D01*
X126532D01*
Y321282D01*
X116468D01*
Y308718D01*
X118133D01*
Y301731D01*
X114933Y301731D01*
X113873Y302239D01*
X113575Y302239D01*
X107777D01*
Y295000D01*
Y287761D01*
X113575D01*
X113873Y287761D01*
X114933Y288269D01*
X115143Y288269D01*
X128351D01*
Y301731D01*
X124867D01*
Y308718D01*
X126532D01*
Y312633D01*
X137809D01*
X138488Y311363D01*
X138165Y310881D01*
X137891Y309500D01*
Y309270D01*
X144500D01*
X151109D01*
Y309500D01*
X150835Y310881D01*
X150052Y312052D01*
X150356Y313317D01*
X150591Y314500D01*
Y317500D01*
X150356Y318683D01*
X150052Y319948D01*
X150835Y321119D01*
X151109Y322500D01*
Y322730D01*
X144500D01*
Y324000D01*
X143230D01*
Y329109D01*
X141500D01*
X140119Y328835D01*
X139637Y328512D01*
X138367Y329191D01*
Y354000D01*
X138110Y355288D01*
X137381Y356381D01*
X128474Y365287D01*
X128960Y366460D01*
X130540D01*
Y378730D01*
X122750D01*
Y380000D01*
D02*
G37*
G36*
X91980Y378730D02*
X85460D01*
Y366460D01*
X91980D01*
Y378730D01*
D02*
G37*
G36*
X320270Y359409D02*
Y356270D01*
X323409D01*
X323307Y356784D01*
X322296Y358296D01*
X320784Y359307D01*
X320270Y359409D01*
D02*
G37*
G36*
X317730D02*
X317216Y359307D01*
X315704Y358296D01*
X314693Y356784D01*
X314591Y356270D01*
X317730D01*
Y359409D01*
D02*
G37*
G36*
X323409Y353730D02*
X320270D01*
Y350591D01*
X320784Y350693D01*
X322296Y351704D01*
X323307Y353216D01*
X323409Y353730D01*
D02*
G37*
G36*
X317730D02*
X314591D01*
X314693Y353216D01*
X315704Y351704D01*
X317216Y350693D01*
X317730Y350591D01*
Y353730D01*
D02*
G37*
G36*
X296476Y347406D02*
X295270D01*
Y342270D01*
X299908D01*
Y343974D01*
X299647Y345288D01*
X298903Y346401D01*
X297790Y347145D01*
X296476Y347406D01*
D02*
G37*
G36*
X292730D02*
X291523D01*
X290210Y347145D01*
X289097Y346401D01*
X288353Y345288D01*
X288092Y343974D01*
Y342270D01*
X292730D01*
Y347406D01*
D02*
G37*
G36*
X122763Y342239D02*
Y336270D01*
X128859D01*
Y342239D01*
X122763D01*
D02*
G37*
G36*
X299908Y339730D02*
X295270D01*
Y334594D01*
X296476D01*
X297790Y334855D01*
X298903Y335599D01*
X299647Y336712D01*
X299908Y338026D01*
Y339730D01*
D02*
G37*
G36*
X292730D02*
X288092D01*
Y338026D01*
X288353Y336712D01*
X289097Y335599D01*
X290210Y334855D01*
X291523Y334594D01*
X292730D01*
Y339730D01*
D02*
G37*
G36*
X417670Y338080D02*
Y329270D01*
X426480D01*
X426298Y330652D01*
X425275Y333124D01*
X423646Y335246D01*
X421524Y336875D01*
X419052Y337898D01*
X417670Y338080D01*
D02*
G37*
G36*
X415130Y338080D02*
X413748Y337898D01*
X411276Y336875D01*
X409154Y335246D01*
X407525Y333124D01*
X406502Y330652D01*
X406320Y329270D01*
X415130D01*
Y338080D01*
D02*
G37*
G36*
X495540Y334096D02*
X490270D01*
Y329048D01*
X495540D01*
Y334096D01*
D02*
G37*
G36*
X487730D02*
X482460D01*
Y329048D01*
X487730D01*
Y334096D01*
D02*
G37*
G36*
X128859Y333730D02*
X122763D01*
Y327761D01*
X128859D01*
Y333730D01*
D02*
G37*
G36*
X301540Y332790D02*
X295020D01*
Y326270D01*
X301540D01*
Y332790D01*
D02*
G37*
G36*
X147500Y329109D02*
X145770D01*
Y325270D01*
X151109D01*
Y325500D01*
X150835Y326881D01*
X150052Y328052D01*
X148881Y328835D01*
X147500Y329109D01*
D02*
G37*
G36*
X495540Y326508D02*
X490270D01*
Y321460D01*
X495540D01*
Y326508D01*
D02*
G37*
G36*
X487730D02*
X482460D01*
Y321460D01*
X487730D01*
Y326508D01*
D02*
G37*
G36*
X365600Y337735D02*
X363080Y337404D01*
X360732Y336431D01*
X358716Y334884D01*
X357169Y332868D01*
X356196Y330520D01*
X355865Y328000D01*
X356196Y325480D01*
X357169Y323132D01*
X358716Y321116D01*
X360732Y319569D01*
X363080Y318596D01*
X365600Y318265D01*
X368120Y318596D01*
X370468Y319569D01*
X372484Y321116D01*
X374031Y323132D01*
X375004Y325480D01*
X375335Y328000D01*
X375004Y330520D01*
X374031Y332868D01*
X372484Y334884D01*
X370468Y336431D01*
X368120Y337404D01*
X365600Y337735D01*
D02*
G37*
G36*
X426480Y326730D02*
X417670D01*
Y317920D01*
X419052Y318102D01*
X421524Y319125D01*
X423646Y320754D01*
X425275Y322876D01*
X426298Y325348D01*
X426480Y326730D01*
D02*
G37*
G36*
X415130D02*
X406320D01*
X406502Y325348D01*
X407525Y322876D01*
X409154Y320754D01*
X411276Y319125D01*
X413748Y318102D01*
X415130Y317920D01*
Y326730D01*
D02*
G37*
G36*
X301540Y323730D02*
X295020D01*
Y317210D01*
X301540D01*
Y323730D01*
D02*
G37*
G36*
X386000Y322144D02*
X384414Y321828D01*
X383215Y321027D01*
X382170Y320819D01*
X381078Y320089D01*
X373271Y312282D01*
X365040D01*
Y312790D01*
X358520D01*
Y305000D01*
Y297210D01*
X365040D01*
Y297718D01*
X367383D01*
Y290266D01*
X366199Y289082D01*
X361016D01*
X360806Y289082D01*
X359746Y289590D01*
X359702Y289590D01*
X354920D01*
Y278160D01*
Y266730D01*
X359702D01*
X359746Y266730D01*
X360806Y267238D01*
X361016Y267238D01*
X367408D01*
X367894Y266065D01*
X355802Y253974D01*
X355129Y252965D01*
X354892Y251776D01*
Y239859D01*
X353622Y239333D01*
X344058Y248898D01*
Y267238D01*
X346284D01*
X346494Y267238D01*
X347554Y266730D01*
X347598Y266730D01*
X352380D01*
Y278160D01*
Y289590D01*
X347598D01*
X347554Y289590D01*
X346494Y289082D01*
X346284Y289082D01*
X344108D01*
Y303336D01*
X344828Y304414D01*
X345144Y306000D01*
X344828Y307586D01*
X343930Y308930D01*
X342586Y309828D01*
X341000Y310144D01*
X339414Y309828D01*
X338070Y308930D01*
X337172Y307586D01*
X336856Y306000D01*
X337172Y304414D01*
X337892Y303336D01*
Y289082D01*
X335362D01*
Y267238D01*
X337842D01*
Y247610D01*
X338079Y246421D01*
X338753Y245413D01*
X349190Y234975D01*
Y206585D01*
X343686Y201081D01*
X342414Y200828D01*
X341070Y199930D01*
X340172Y198586D01*
X339856Y197000D01*
X340172Y195414D01*
X340892Y194336D01*
Y179206D01*
X339796Y178171D01*
X339658Y178137D01*
X338282D01*
Y186032D01*
X333367D01*
Y193724D01*
X333828Y194414D01*
X334144Y196000D01*
X333828Y197586D01*
X332930Y198930D01*
X331586Y199828D01*
X330000Y200144D01*
X328414Y199828D01*
X327070Y198930D01*
X326172Y197586D01*
X325856Y196000D01*
X326172Y194414D01*
X326633Y193724D01*
Y186032D01*
X323718D01*
Y173040D01*
X323210D01*
Y166520D01*
X331000D01*
X338790D01*
Y169319D01*
X339963Y169806D01*
X342399Y167369D01*
X343492Y166640D01*
X344780Y166383D01*
X346050D01*
Y164520D01*
X363830D01*
Y167568D01*
X363322D01*
Y178940D01*
Y186560D01*
X358048D01*
Y192103D01*
X359000Y193055D01*
X359586Y193172D01*
X360930Y194070D01*
X361828Y195414D01*
X362144Y197000D01*
X361828Y198586D01*
X361108Y199664D01*
Y250489D01*
X377857Y267238D01*
X384638D01*
Y289082D01*
X382158D01*
Y296763D01*
X386314Y300919D01*
X387586Y301172D01*
X388930Y302070D01*
X389828Y303414D01*
X390144Y305000D01*
X389828Y306586D01*
X388930Y307930D01*
X387586Y308828D01*
X386000Y309144D01*
X384414Y308828D01*
X383070Y307930D01*
X382172Y306586D01*
X381919Y305314D01*
X379205Y302600D01*
X378032Y303086D01*
Y307521D01*
X384638Y314127D01*
X386000Y313856D01*
X387586Y314172D01*
X388930Y315070D01*
X389828Y316414D01*
X390144Y318000D01*
X389828Y319586D01*
X388930Y320930D01*
X387586Y321828D01*
X386000Y322144D01*
D02*
G37*
G36*
X301540Y315790D02*
X295020D01*
Y309270D01*
X301540D01*
Y315790D01*
D02*
G37*
G36*
X477080Y323332D02*
X466920D01*
Y301996D01*
X468633D01*
Y295807D01*
X468890Y294518D01*
X469619Y293426D01*
X470800Y292246D01*
X470314Y291072D01*
X464191D01*
Y288024D01*
X470668D01*
Y285484D01*
X464191D01*
Y282436D01*
Y281524D01*
X470668D01*
Y278984D01*
X464191D01*
Y275936D01*
X464699D01*
Y269944D01*
X476637D01*
Y271344D01*
X477441Y271882D01*
X480287Y274728D01*
X481017Y275820D01*
X481273Y277109D01*
Y289900D01*
X481017Y291189D01*
X480287Y292281D01*
X475367Y297201D01*
Y301996D01*
X477080D01*
Y308855D01*
X482968D01*
Y306412D01*
X495032D01*
Y318032D01*
X482968D01*
Y315589D01*
X477080D01*
Y323332D01*
D02*
G37*
G36*
X232750Y315104D02*
X227270D01*
Y306270D01*
X236105D01*
Y311750D01*
X235849Y313034D01*
X235122Y314122D01*
X234034Y314849D01*
X232750Y315104D01*
D02*
G37*
G36*
X207750D02*
X202270D01*
Y306270D01*
X211105D01*
Y311750D01*
X210849Y313034D01*
X210122Y314122D01*
X209034Y314849D01*
X207750Y315104D01*
D02*
G37*
G36*
X182750D02*
X177270D01*
Y306270D01*
X186105D01*
Y311750D01*
X185849Y313034D01*
X185122Y314122D01*
X184034Y314849D01*
X182750Y315104D01*
D02*
G37*
G36*
X224730D02*
X219250D01*
X217966Y314849D01*
X216878Y314122D01*
X216151Y313034D01*
X215896Y311750D01*
Y306270D01*
X224730D01*
Y315104D01*
D02*
G37*
G36*
X199730D02*
X194250D01*
X192966Y314849D01*
X191878Y314122D01*
X191151Y313034D01*
X190896Y311750D01*
Y306270D01*
X199730D01*
Y315104D01*
D02*
G37*
G36*
X174730D02*
X169250D01*
X167966Y314849D01*
X166878Y314122D01*
X166151Y313034D01*
X165896Y311750D01*
Y306270D01*
X174730D01*
Y315104D01*
D02*
G37*
G36*
X355980Y312790D02*
X349460D01*
Y306270D01*
X355980D01*
Y312790D01*
D02*
G37*
G36*
Y303730D02*
X349460D01*
Y297210D01*
X355980D01*
Y303730D01*
D02*
G37*
G36*
X105237Y302239D02*
X99141D01*
Y296270D01*
X105237D01*
Y302239D01*
D02*
G37*
G36*
X236105Y303730D02*
X227270D01*
Y294895D01*
X232750D01*
X234034Y295151D01*
X235122Y295878D01*
X235849Y296966D01*
X236105Y298250D01*
Y303730D01*
D02*
G37*
G36*
X224730D02*
X215896D01*
Y298250D01*
X216151Y296966D01*
X216878Y295878D01*
X217966Y295151D01*
X219250Y294895D01*
X224730D01*
Y303730D01*
D02*
G37*
G36*
X211105D02*
X202270D01*
Y294895D01*
X207750D01*
X209034Y295151D01*
X210122Y295878D01*
X210849Y296966D01*
X211105Y298250D01*
Y303730D01*
D02*
G37*
G36*
X199730D02*
X190896D01*
Y298250D01*
X191151Y296966D01*
X191878Y295878D01*
X192966Y295151D01*
X194250Y294895D01*
X199730D01*
Y303730D01*
D02*
G37*
G36*
X186105D02*
X177270D01*
Y294895D01*
X182750D01*
X184034Y295151D01*
X185122Y295878D01*
X185849Y296966D01*
X186105Y298250D01*
Y303730D01*
D02*
G37*
G36*
X174730D02*
X165896D01*
Y298250D01*
X166151Y296966D01*
X166878Y295878D01*
X167966Y295151D01*
X169250Y294895D01*
X174730D01*
Y303730D01*
D02*
G37*
G36*
X462588Y323332D02*
X451412D01*
Y301996D01*
X453633D01*
Y300276D01*
X453172Y299586D01*
X452856Y298000D01*
X453172Y296414D01*
X454070Y295070D01*
X455414Y294172D01*
X457000Y293856D01*
X458586Y294172D01*
X459930Y295070D01*
X460828Y296414D01*
X461144Y298000D01*
X460828Y299586D01*
X460367Y300276D01*
Y301996D01*
X462588D01*
Y323332D01*
D02*
G37*
G36*
X105237Y293730D02*
X99141D01*
Y287761D01*
X105237D01*
Y293730D01*
D02*
G37*
G36*
X280000Y357144D02*
X278414Y356828D01*
X277070Y355930D01*
X276172Y354586D01*
X275856Y353000D01*
X276172Y351414D01*
X276633Y350724D01*
Y346711D01*
X276409Y346666D01*
X275463Y346035D01*
X274832Y345089D01*
X274610Y343974D01*
Y338026D01*
X274832Y336911D01*
X275463Y335965D01*
X276409Y335334D01*
X276633Y335289D01*
Y332282D01*
X272968D01*
Y317718D01*
X276883D01*
Y315282D01*
X272968D01*
Y302479D01*
X266895Y296407D01*
X266166Y295314D01*
X265909Y294026D01*
Y287009D01*
X265119Y286367D01*
X263852Y286793D01*
X263835Y286881D01*
X263052Y288052D01*
X263356Y289317D01*
X263591Y290500D01*
Y293500D01*
X263356Y294683D01*
X263101Y295064D01*
X262790Y296000D01*
X263101Y296936D01*
X263356Y297317D01*
X263591Y298500D01*
Y301500D01*
X263356Y302683D01*
X263101Y303064D01*
X262790Y304000D01*
X263101Y304936D01*
X263356Y305317D01*
X263591Y306500D01*
Y309500D01*
X263356Y310683D01*
X263101Y311064D01*
X262790Y312000D01*
X263101Y312936D01*
X263356Y313317D01*
X263591Y314500D01*
Y317500D01*
X263356Y318683D01*
X263101Y319064D01*
X262790Y320000D01*
X263101Y320936D01*
X263356Y321317D01*
X263591Y322500D01*
Y325500D01*
X263356Y326683D01*
X262686Y327686D01*
X261683Y328356D01*
X260500Y328591D01*
X254500D01*
X253317Y328356D01*
X252314Y327686D01*
X251644Y326683D01*
X251409Y325500D01*
Y322500D01*
X251644Y321317D01*
X251899Y320936D01*
X252210Y320000D01*
X251899Y319064D01*
X251644Y318683D01*
X251409Y317500D01*
Y314500D01*
X251644Y313317D01*
X251899Y312936D01*
X252210Y312000D01*
X251899Y311064D01*
X251644Y310683D01*
X251409Y309500D01*
Y306500D01*
X251644Y305317D01*
X251899Y304936D01*
X252210Y304000D01*
X251899Y303064D01*
X251644Y302683D01*
X251409Y301500D01*
Y298500D01*
X251644Y297317D01*
X251899Y296936D01*
X252210Y296000D01*
X251899Y295064D01*
X251644Y294683D01*
X251409Y293500D01*
Y290500D01*
X251644Y289317D01*
X251948Y288052D01*
X251165Y286881D01*
X250891Y285500D01*
Y285270D01*
X257500D01*
Y282730D01*
X250891D01*
Y282500D01*
X251165Y281119D01*
X251948Y279948D01*
X251644Y278683D01*
X251409Y277500D01*
Y274500D01*
X251644Y273317D01*
X251899Y272936D01*
X252210Y272000D01*
X251899Y271064D01*
X251644Y270683D01*
X251409Y269500D01*
Y266500D01*
X251644Y265317D01*
X251899Y264936D01*
X252210Y264000D01*
X251899Y263064D01*
X251644Y262683D01*
X251409Y261500D01*
Y258500D01*
X251644Y257317D01*
X251948Y256052D01*
X251165Y254881D01*
X250891Y253500D01*
Y253270D01*
X257500D01*
X264109D01*
Y253500D01*
X263835Y254881D01*
X263512Y255363D01*
X264191Y256633D01*
X273968D01*
Y252718D01*
X277633D01*
Y248711D01*
X277409Y248666D01*
X276463Y248035D01*
X275832Y247089D01*
X275610Y245975D01*
Y240026D01*
X275832Y238911D01*
X276463Y237965D01*
X277409Y237334D01*
X277633Y237289D01*
Y232276D01*
X277172Y231586D01*
X276856Y230000D01*
X277172Y228414D01*
X278070Y227070D01*
X279414Y226172D01*
X281000Y225856D01*
X282586Y226172D01*
X283930Y227070D01*
X284828Y228414D01*
X285144Y230000D01*
X284828Y231586D01*
X284367Y232276D01*
Y237289D01*
X284591Y237334D01*
X285537Y237965D01*
X286168Y238911D01*
X286390Y240026D01*
Y245975D01*
X286168Y247089D01*
X285537Y248035D01*
X284591Y248666D01*
X284367Y248711D01*
Y252718D01*
X286960D01*
Y252210D01*
X293480D01*
Y260000D01*
X294750D01*
Y261270D01*
X302540D01*
Y267210D01*
Y273730D01*
X294750D01*
Y276270D01*
X302540D01*
Y282790D01*
X298449D01*
X298096Y284060D01*
X298903Y284599D01*
X299647Y285712D01*
X299908Y287026D01*
Y288730D01*
X294000D01*
Y291270D01*
X299908D01*
Y292974D01*
X299831Y293363D01*
X300827Y294633D01*
X306724D01*
X307414Y294172D01*
X309000Y293856D01*
X310586Y294172D01*
X311930Y295070D01*
X312828Y296414D01*
X313144Y298000D01*
X312828Y299586D01*
X311930Y300930D01*
X310586Y301828D01*
X309000Y302144D01*
X307414Y301828D01*
X306724Y301367D01*
X301540D01*
Y306730D01*
X293750D01*
Y308000D01*
X292480D01*
Y315790D01*
X285960D01*
Y315282D01*
X283617D01*
Y317718D01*
X285960D01*
Y317210D01*
X292480D01*
Y325000D01*
Y332790D01*
X285960D01*
Y332282D01*
X283367D01*
Y335289D01*
X283591Y335334D01*
X284537Y335965D01*
X285168Y336911D01*
X285390Y338026D01*
Y343974D01*
X285168Y345089D01*
X284537Y346035D01*
X283591Y346666D01*
X283367Y346711D01*
Y350724D01*
X283828Y351414D01*
X284144Y353000D01*
X283828Y354586D01*
X282930Y355930D01*
X281586Y356828D01*
X280000Y357144D01*
D02*
G37*
G36*
X455301Y290564D02*
X443363D01*
Y283494D01*
X441086D01*
X440586Y283828D01*
X439000Y284144D01*
X437414Y283828D01*
X436070Y282930D01*
X435172Y281586D01*
X434856Y280000D01*
X435172Y278414D01*
X436070Y277070D01*
X437414Y276172D01*
X439000Y275856D01*
X440586Y276172D01*
X441467Y276761D01*
X443363D01*
Y269944D01*
X445855D01*
Y263032D01*
X443412D01*
Y250968D01*
X445744D01*
Y246443D01*
X445172Y245586D01*
X444856Y244000D01*
X444911Y243724D01*
X443741Y243098D01*
X424032Y262807D01*
Y270032D01*
X411968D01*
Y262850D01*
X411890Y262732D01*
X411633Y261444D01*
X411890Y260156D01*
X411968Y260038D01*
Y258412D01*
X413594D01*
X413712Y258334D01*
X415000Y258077D01*
X416288Y258334D01*
X416406Y258412D01*
X419637D01*
X449246Y228803D01*
X450255Y228129D01*
X451444Y227892D01*
X453468D01*
Y216468D01*
X482532D01*
Y245532D01*
X454035D01*
X453463Y245557D01*
X453282Y245659D01*
X452478Y246207D01*
Y250968D01*
X455032D01*
Y263032D01*
X452589D01*
Y269944D01*
X455301D01*
Y276444D01*
Y282944D01*
Y290564D01*
D02*
G37*
G36*
X232750Y290104D02*
X227270D01*
Y281270D01*
X236105D01*
Y286750D01*
X235849Y288034D01*
X235122Y289122D01*
X234034Y289849D01*
X232750Y290104D01*
D02*
G37*
G36*
X207750D02*
X202270D01*
Y281270D01*
X211105D01*
Y286750D01*
X210849Y288034D01*
X210122Y289122D01*
X209034Y289849D01*
X207750Y290104D01*
D02*
G37*
G36*
X182750D02*
X177270D01*
Y281270D01*
X186105D01*
Y286750D01*
X185849Y288034D01*
X185122Y289122D01*
X184034Y289849D01*
X182750Y290104D01*
D02*
G37*
G36*
X224730D02*
X219250D01*
X217966Y289849D01*
X216878Y289122D01*
X216151Y288034D01*
X215896Y286750D01*
Y281270D01*
X224730D01*
Y290104D01*
D02*
G37*
G36*
X199730D02*
X194250D01*
X192966Y289849D01*
X191878Y289122D01*
X191151Y288034D01*
X190896Y286750D01*
Y281270D01*
X199730D01*
Y290104D01*
D02*
G37*
G36*
X174730D02*
X169250D01*
X167966Y289849D01*
X166878Y289122D01*
X166151Y288034D01*
X165896Y286750D01*
Y281270D01*
X174730D01*
Y290104D01*
D02*
G37*
G36*
X447080Y323332D02*
X436920D01*
Y308665D01*
X435932D01*
X434644Y308408D01*
X433551Y307679D01*
X415619Y289747D01*
X414890Y288654D01*
X414633Y287366D01*
Y285588D01*
X411968D01*
Y273968D01*
X424032D01*
Y285588D01*
X422779D01*
X422253Y286858D01*
X437327Y301931D01*
X440222D01*
X440547Y301996D01*
X447080D01*
Y323332D01*
D02*
G37*
G36*
X151109Y306730D02*
X144500D01*
X137891D01*
Y306500D01*
X138165Y305119D01*
X138948Y303948D01*
X138644Y302683D01*
X138409Y301500D01*
Y298500D01*
X138644Y297317D01*
X138899Y296936D01*
X139210Y296000D01*
X138899Y295064D01*
X138644Y294683D01*
X138409Y293500D01*
Y290500D01*
X138644Y289317D01*
X138899Y288936D01*
X139210Y288000D01*
X138899Y287064D01*
X138644Y286683D01*
X138409Y285500D01*
Y282500D01*
X138644Y281317D01*
X138899Y280936D01*
X139210Y280000D01*
X138899Y279064D01*
X138644Y278683D01*
X138409Y277500D01*
Y274500D01*
X138644Y273317D01*
X138899Y272936D01*
X139045Y272495D01*
X138691Y271556D01*
X138536Y271367D01*
X127282D01*
Y272532D01*
X115290D01*
Y273040D01*
X110020D01*
Y266000D01*
X108750D01*
Y264730D01*
X102210D01*
Y258960D01*
X102210D01*
X101969Y257790D01*
X100460D01*
Y251270D01*
X108250D01*
Y250000D01*
X109520D01*
Y242210D01*
X116040D01*
Y242718D01*
X118383D01*
Y239731D01*
X115635D01*
Y226269D01*
X125486D01*
X126012Y224999D01*
X116048Y215035D01*
X115319Y213943D01*
X115062Y212655D01*
Y204351D01*
X108269D01*
Y203668D01*
X107032Y203588D01*
Y203588D01*
X94968D01*
Y191968D01*
X107032D01*
Y191968D01*
X108269Y191888D01*
Y190635D01*
X121731D01*
Y190635D01*
X134731D01*
Y204351D01*
X134032D01*
Y211271D01*
X136795Y214033D01*
X137968Y213547D01*
Y203968D01*
X149588D01*
Y216032D01*
X148984D01*
X148005Y217302D01*
X148144Y218000D01*
X147828Y219586D01*
X146930Y220930D01*
X146065Y221508D01*
X145753Y222991D01*
X146881Y224119D01*
X147610Y225212D01*
X147867Y226500D01*
Y231482D01*
X148683Y231644D01*
X149686Y232314D01*
X150356Y233317D01*
X150591Y234500D01*
Y237500D01*
X150356Y238683D01*
X149686Y239686D01*
Y240314D01*
X150356Y241317D01*
X150591Y242500D01*
Y245500D01*
X150356Y246683D01*
X150101Y247064D01*
X149790Y248000D01*
X150101Y248936D01*
X150356Y249317D01*
X150591Y250500D01*
Y253500D01*
X150356Y254683D01*
X150101Y255064D01*
X149790Y256000D01*
X150101Y256936D01*
X150356Y257317D01*
X150591Y258500D01*
Y261500D01*
X150356Y262683D01*
X150101Y263064D01*
X149790Y264000D01*
X150101Y264936D01*
X150356Y265317D01*
X150591Y266500D01*
Y269500D01*
X150356Y270683D01*
X150101Y271064D01*
X149790Y272000D01*
X150101Y272936D01*
X150356Y273317D01*
X150591Y274500D01*
Y277500D01*
X150356Y278683D01*
X150101Y279064D01*
X149790Y280000D01*
X150101Y280936D01*
X150356Y281317D01*
X150591Y282500D01*
Y285500D01*
X150356Y286683D01*
X150101Y287064D01*
X149790Y288000D01*
X150101Y288936D01*
X150356Y289317D01*
X150591Y290500D01*
Y293500D01*
X150356Y294683D01*
X150101Y295064D01*
X149790Y296000D01*
X150101Y296936D01*
X150356Y297317D01*
X150591Y298500D01*
Y301500D01*
X150356Y302683D01*
X150052Y303948D01*
X150835Y305119D01*
X151109Y306500D01*
Y306730D01*
D02*
G37*
G36*
X236105Y278730D02*
X227270D01*
Y269895D01*
X232750D01*
X234034Y270151D01*
X235122Y270878D01*
X235849Y271966D01*
X236105Y273250D01*
Y278730D01*
D02*
G37*
G36*
X224730D02*
X215896D01*
Y273250D01*
X216151Y271966D01*
X216878Y270878D01*
X217966Y270151D01*
X219250Y269895D01*
X224730D01*
Y278730D01*
D02*
G37*
G36*
X211105D02*
X202270D01*
Y269895D01*
X207750D01*
X209034Y270151D01*
X210122Y270878D01*
X210849Y271966D01*
X211105Y273250D01*
Y278730D01*
D02*
G37*
G36*
X199730D02*
X190896D01*
Y273250D01*
X191151Y271966D01*
X191878Y270878D01*
X192966Y270151D01*
X194250Y269895D01*
X199730D01*
Y278730D01*
D02*
G37*
G36*
X186105D02*
X177270D01*
Y269895D01*
X182750D01*
X184034Y270151D01*
X185122Y270878D01*
X185849Y271966D01*
X186105Y273250D01*
Y278730D01*
D02*
G37*
G36*
X174730D02*
X165896D01*
Y273250D01*
X166151Y271966D01*
X166878Y270878D01*
X167966Y270151D01*
X169250Y269895D01*
X174730D01*
Y278730D01*
D02*
G37*
G36*
X107480Y273040D02*
X102210D01*
Y267270D01*
X107480D01*
Y273040D01*
D02*
G37*
G36*
X471096Y263540D02*
X466048D01*
Y258270D01*
X471096D01*
Y263540D01*
D02*
G37*
G36*
X463508D02*
X458460D01*
Y258270D01*
X463508D01*
Y263540D01*
D02*
G37*
G36*
X232750Y265104D02*
X227270D01*
Y256270D01*
X236105D01*
Y261750D01*
X235849Y263034D01*
X235122Y264122D01*
X234034Y264849D01*
X232750Y265104D01*
D02*
G37*
G36*
X207750D02*
X202270D01*
Y256270D01*
X211105D01*
Y261750D01*
X210849Y263034D01*
X210122Y264122D01*
X209034Y264849D01*
X207750Y265104D01*
D02*
G37*
G36*
X182750D02*
X177270D01*
Y256270D01*
X186105D01*
Y261750D01*
X185849Y263034D01*
X185122Y264122D01*
X184034Y264849D01*
X182750Y265104D01*
D02*
G37*
G36*
X224730D02*
X219250D01*
X217966Y264849D01*
X216878Y264122D01*
X216151Y263034D01*
X215896Y261750D01*
Y256270D01*
X224730D01*
Y265104D01*
D02*
G37*
G36*
X199730D02*
X194250D01*
X192966Y264849D01*
X191878Y264122D01*
X191151Y263034D01*
X190896Y261750D01*
Y256270D01*
X199730D01*
Y265104D01*
D02*
G37*
G36*
X174730D02*
X169250D01*
X167966Y264849D01*
X166878Y264122D01*
X166151Y263034D01*
X165896Y261750D01*
Y256270D01*
X174730D01*
Y265104D01*
D02*
G37*
G36*
X302540Y258730D02*
X296020D01*
Y252210D01*
X302540D01*
Y258730D01*
D02*
G37*
G36*
X471096Y255730D02*
X466048D01*
Y250460D01*
X471096D01*
Y255730D01*
D02*
G37*
G36*
X463508D02*
X458460D01*
Y250460D01*
X463508D01*
Y255730D01*
D02*
G37*
G36*
X236105Y253730D02*
X227270D01*
Y244895D01*
X232750D01*
X234034Y245151D01*
X235122Y245878D01*
X235849Y246966D01*
X236105Y248250D01*
Y253730D01*
D02*
G37*
G36*
X224730D02*
X215896D01*
Y248250D01*
X216151Y246966D01*
X216878Y245878D01*
X217966Y245151D01*
X219250Y244895D01*
X224730D01*
Y253730D01*
D02*
G37*
G36*
X211105D02*
X202270D01*
Y244895D01*
X207750D01*
X209034Y245151D01*
X210122Y245878D01*
X210849Y246966D01*
X211105Y248250D01*
Y253730D01*
D02*
G37*
G36*
X199730D02*
X190896D01*
Y248250D01*
X191151Y246966D01*
X191878Y245878D01*
X192966Y245151D01*
X194250Y244895D01*
X199730D01*
Y253730D01*
D02*
G37*
G36*
X186105D02*
X177270D01*
Y244895D01*
X182750D01*
X184034Y245151D01*
X185122Y245878D01*
X185849Y246966D01*
X186105Y248250D01*
Y253730D01*
D02*
G37*
G36*
X174730D02*
X165896D01*
Y248250D01*
X166151Y246966D01*
X166878Y245878D01*
X167966Y245151D01*
X169250Y244895D01*
X174730D01*
Y253730D01*
D02*
G37*
G36*
X297477Y249406D02*
X296270D01*
Y244270D01*
X300908D01*
Y245975D01*
X300647Y247288D01*
X299903Y248401D01*
X298790Y249145D01*
X297477Y249406D01*
D02*
G37*
G36*
X293730D02*
X292523D01*
X291210Y249145D01*
X290097Y248401D01*
X289353Y247288D01*
X289092Y245975D01*
Y244270D01*
X293730D01*
Y249406D01*
D02*
G37*
G36*
X106980Y248730D02*
X100460D01*
Y242210D01*
X106980D01*
Y248730D01*
D02*
G37*
G36*
X300908Y241730D02*
X296270D01*
Y236594D01*
X297477D01*
X298790Y236855D01*
X299903Y237599D01*
X300647Y238712D01*
X300908Y240026D01*
Y241730D01*
D02*
G37*
G36*
X293730D02*
X289092D01*
Y240026D01*
X289353Y238712D01*
X290097Y237599D01*
X291210Y236855D01*
X292523Y236594D01*
X293730D01*
Y241730D01*
D02*
G37*
G36*
X264109Y250730D02*
X257500D01*
X250891D01*
Y250500D01*
X251165Y249119D01*
X251948Y247948D01*
X251644Y246683D01*
X251409Y245500D01*
Y244898D01*
X250337Y244183D01*
X247171Y241017D01*
X246442Y239924D01*
X246185Y238636D01*
Y234859D01*
X245250Y234091D01*
X242250D01*
X241067Y233856D01*
X240064Y233186D01*
X239436D01*
X238433Y233856D01*
X237250Y234091D01*
X234250D01*
X233067Y233856D01*
X232064Y233186D01*
X231436D01*
X230433Y233856D01*
X229250Y234091D01*
X226250D01*
X225067Y233856D01*
X224064Y233186D01*
X223436D01*
X222433Y233856D01*
X221250Y234091D01*
X218250D01*
X217067Y233856D01*
X215802Y233552D01*
X214631Y234335D01*
X213250Y234609D01*
X213020D01*
Y228000D01*
X210480D01*
Y234609D01*
X210250D01*
X208869Y234335D01*
X207698Y233552D01*
X206433Y233856D01*
X205250Y234091D01*
X202250D01*
X201067Y233856D01*
X200686Y233601D01*
X199750Y233290D01*
X198814Y233601D01*
X198433Y233856D01*
X197250Y234091D01*
X194250D01*
X193067Y233856D01*
X192686Y233601D01*
X191750Y233290D01*
X190814Y233601D01*
X190433Y233856D01*
X189250Y234091D01*
X186250D01*
X185067Y233856D01*
X184686Y233601D01*
X183750Y233290D01*
X182814Y233601D01*
X182433Y233856D01*
X181250Y234091D01*
X178250D01*
X177067Y233856D01*
X176686Y233601D01*
X175750Y233290D01*
X174814Y233601D01*
X174433Y233856D01*
X173250Y234091D01*
X170250D01*
X169067Y233856D01*
X168686Y233601D01*
X167750Y233290D01*
X166814Y233601D01*
X166433Y233856D01*
X165250Y234091D01*
X162250D01*
X161067Y233856D01*
X160686Y233601D01*
X159750Y233290D01*
X158814Y233601D01*
X158433Y233856D01*
X157250Y234091D01*
X154250D01*
X153067Y233856D01*
X152064Y233186D01*
X151394Y232183D01*
X151159Y231000D01*
Y225000D01*
X151394Y223817D01*
X152064Y222814D01*
X152383Y222601D01*
Y193997D01*
X152640Y192709D01*
X153286Y191741D01*
X153187Y191040D01*
X152146Y190583D01*
X151852Y190579D01*
X151748Y190683D01*
X150656Y191412D01*
X150032Y191537D01*
Y202588D01*
X137968D01*
Y190968D01*
X140633D01*
Y189790D01*
X140828Y188810D01*
X140121Y187540D01*
X137460D01*
Y182492D01*
X144000D01*
Y181222D01*
X145270D01*
Y174904D01*
X150540D01*
Y177957D01*
X151713Y178443D01*
X153523Y176633D01*
Y167776D01*
X166477D01*
Y182000D01*
Y196224D01*
X159117D01*
Y204997D01*
X160387Y205676D01*
X160706Y205463D01*
X162291Y205148D01*
X163877Y205463D01*
X165221Y206361D01*
X166119Y207705D01*
X166435Y209291D01*
X166119Y210877D01*
X165847Y211285D01*
Y213739D01*
X166131Y214023D01*
X166860Y215115D01*
X167117Y216403D01*
X167117Y216403D01*
X168383Y216395D01*
Y214657D01*
X168557Y213785D01*
X168475Y213375D01*
X168791Y211790D01*
X169689Y210445D01*
X171033Y209547D01*
X172619Y209232D01*
X174205Y209547D01*
X175549Y210445D01*
X176447Y211790D01*
X176763Y213375D01*
X176447Y214961D01*
X175549Y216305D01*
X175117Y216594D01*
Y219723D01*
X176383Y219732D01*
X176640Y218443D01*
X177369Y217351D01*
X188289Y206431D01*
X188451Y205616D01*
X189350Y204272D01*
X190694Y203374D01*
X192280Y203058D01*
X193865Y203374D01*
X195210Y204272D01*
X196108Y205616D01*
X196393Y207050D01*
X196916Y207363D01*
X197639Y207600D01*
X199010Y206229D01*
X199172Y205414D01*
X200070Y204070D01*
X201414Y203172D01*
X203000Y202856D01*
X204586Y203172D01*
X205930Y204070D01*
X206828Y205414D01*
X206953Y206039D01*
X208203Y206519D01*
X209069Y205930D01*
X209172Y205414D01*
X210070Y204070D01*
X211414Y203172D01*
X213000Y202856D01*
X214586Y203172D01*
X215930Y204070D01*
X216828Y205414D01*
X217144Y207000D01*
X218261Y207892D01*
X226472D01*
X227662Y208129D01*
X228460Y208662D01*
X230012D01*
X231202Y208899D01*
X232210Y209573D01*
X232964Y210327D01*
X233213Y210277D01*
X234799Y210593D01*
X236143Y211491D01*
X237041Y212835D01*
X237357Y214421D01*
X237218Y215118D01*
X238079Y216374D01*
X238159Y216402D01*
X239377Y216644D01*
X240469Y217374D01*
X243933Y220837D01*
X244243Y221303D01*
X245022Y221398D01*
X246185Y220381D01*
Y220247D01*
X246442Y218958D01*
X247171Y217866D01*
X258388Y206649D01*
X257735Y205560D01*
X256180Y206032D01*
X251300Y206512D01*
X246420Y206032D01*
X241728Y204608D01*
X237404Y202297D01*
X233613Y199186D01*
X230503Y195396D01*
X228192Y191072D01*
X226768Y186380D01*
X226288Y181500D01*
X226768Y176620D01*
X228192Y171928D01*
X230503Y167604D01*
X233613Y163813D01*
X237404Y160703D01*
X241728Y158392D01*
X246420Y156968D01*
X249529Y156662D01*
X249957Y155466D01*
X245660Y151169D01*
X245632D01*
X244344Y150912D01*
X243252Y150183D01*
X241317Y148248D01*
X240588Y147156D01*
X240464Y146532D01*
X235468D01*
Y130468D01*
X237133D01*
Y121532D01*
X235468D01*
Y105468D01*
X238863D01*
Y104520D01*
X239120Y103232D01*
X239849Y102139D01*
X241718Y100271D01*
Y92968D01*
X258282D01*
Y100271D01*
X261881Y103869D01*
X262610Y104962D01*
X262711Y105468D01*
X264532D01*
Y121532D01*
X262867D01*
Y130468D01*
X264532D01*
Y146532D01*
X265026Y147597D01*
X265319Y147656D01*
X266411Y148385D01*
X284415Y166389D01*
X285144Y167481D01*
X285401Y168770D01*
Y194230D01*
X285144Y195519D01*
X284415Y196611D01*
X257491Y223535D01*
Y231409D01*
X260500D01*
X261683Y231644D01*
X262686Y232314D01*
X263356Y233317D01*
X263591Y234500D01*
Y237500D01*
X263356Y238683D01*
X262686Y239686D01*
Y240314D01*
X263356Y241317D01*
X263591Y242500D01*
Y245500D01*
X263356Y246683D01*
X263052Y247948D01*
X263835Y249119D01*
X264109Y250500D01*
Y250730D01*
D02*
G37*
G36*
X114365Y239731D02*
X100649D01*
Y226269D01*
X104633D01*
Y221276D01*
X104172Y220586D01*
X103856Y219000D01*
X104172Y217414D01*
X105070Y216070D01*
X106414Y215172D01*
X108000Y214856D01*
X109586Y215172D01*
X110930Y216070D01*
X111828Y217414D01*
X112144Y219000D01*
X111828Y220586D01*
X111367Y221276D01*
Y226269D01*
X114365D01*
Y239731D01*
D02*
G37*
G36*
X221096Y198540D02*
X216048D01*
Y193270D01*
X221096D01*
Y198540D01*
D02*
G37*
G36*
X213508D02*
X208460D01*
Y193270D01*
X213508D01*
Y198540D01*
D02*
G37*
G36*
X418000Y245657D02*
X414206Y245158D01*
X410671Y243694D01*
X407636Y241364D01*
X405306Y238329D01*
X403842Y234794D01*
X403343Y231000D01*
X403842Y227206D01*
X405306Y223671D01*
X407636Y220636D01*
X410671Y218306D01*
X414206Y216842D01*
X414633Y216786D01*
Y194144D01*
X406521Y186032D01*
X400426D01*
X400000Y186117D01*
X391442D01*
Y186560D01*
X374678D01*
Y174068D01*
X374170D01*
Y171020D01*
X383060D01*
Y168480D01*
X374170D01*
Y165432D01*
X374678D01*
Y159440D01*
X391442D01*
Y159883D01*
X393220D01*
X394508Y160140D01*
X394940Y160428D01*
X396210Y159749D01*
Y157460D01*
X402730D01*
Y165250D01*
X404000D01*
Y166520D01*
X411790D01*
Y173040D01*
X411282D01*
Y181271D01*
X420381Y190369D01*
X421110Y191462D01*
X421367Y192750D01*
Y216786D01*
X421794Y216842D01*
X425329Y218306D01*
X428364Y220636D01*
X430694Y223671D01*
X432158Y227206D01*
X432657Y231000D01*
X432158Y234794D01*
X430694Y238329D01*
X428364Y241364D01*
X425329Y243694D01*
X421794Y245158D01*
X418000Y245657D01*
D02*
G37*
G36*
X221096Y190730D02*
X216048D01*
Y185460D01*
X221096D01*
Y190730D01*
D02*
G37*
G36*
X213508D02*
X208460D01*
Y185460D01*
X213508D01*
Y190730D01*
D02*
G37*
G36*
X205032Y198032D02*
X193412D01*
Y185968D01*
X196114D01*
Y184092D01*
X192303D01*
X191081Y185314D01*
X190828Y186586D01*
X189930Y187930D01*
X188586Y188828D01*
X187000Y189144D01*
X185414Y188828D01*
X184070Y187930D01*
X183172Y186586D01*
X182856Y185000D01*
X183172Y183414D01*
X184070Y182070D01*
X185414Y181172D01*
X186686Y180919D01*
X188818Y178787D01*
X189827Y178113D01*
X191016Y177876D01*
X193412D01*
Y171968D01*
X202547D01*
X203033Y170795D01*
X171355Y139117D01*
X150532D01*
Y140282D01*
X139468D01*
Y139117D01*
X134750D01*
X134750Y139117D01*
X133462Y138860D01*
X132369Y138131D01*
X118771Y124532D01*
X114540D01*
Y125040D01*
X110270D01*
Y116500D01*
X107730D01*
Y125040D01*
X103460D01*
Y124532D01*
X94468D01*
Y108468D01*
X96008D01*
Y99532D01*
X94718D01*
Y88468D01*
X95883D01*
Y83032D01*
X92718D01*
Y70040D01*
X92210D01*
Y63520D01*
X107790D01*
Y70040D01*
X107282D01*
Y83032D01*
X102617D01*
Y88468D01*
X111282D01*
Y92855D01*
X116404Y97977D01*
X118559D01*
X120095Y98282D01*
X121397Y99153D01*
X138230Y115986D01*
X153484D01*
X153881Y115612D01*
X154361Y114906D01*
X153461Y111940D01*
X153137Y108650D01*
X153461Y105360D01*
X154420Y102197D01*
X155979Y99281D01*
X158076Y96726D01*
X160631Y94629D01*
X163547Y93070D01*
X166710Y92111D01*
X170000Y91787D01*
X173290Y92111D01*
X176453Y93070D01*
X179369Y94629D01*
X181924Y96726D01*
X184021Y99281D01*
X185579Y102197D01*
X186539Y105360D01*
X186863Y108650D01*
X186539Y111940D01*
X185579Y115103D01*
X184021Y118019D01*
X182582Y119772D01*
X182857Y120371D01*
X183317Y120878D01*
X183368Y120871D01*
X228010Y76229D01*
X228172Y75414D01*
X229070Y74070D01*
X230414Y73172D01*
X231229Y73010D01*
X233363Y70876D01*
X233272Y70184D01*
X232070Y69483D01*
X231875Y69560D01*
X231793Y69614D01*
X231000Y69772D01*
X211000D01*
X210208Y69614D01*
X209535Y69165D01*
X209086Y68493D01*
X208929Y67700D01*
Y53100D01*
X209086Y52308D01*
X209392Y51850D01*
X209086Y51393D01*
X208928Y50600D01*
Y43600D01*
X209086Y42807D01*
X209535Y42135D01*
X210207Y41686D01*
X211000Y41528D01*
X214178D01*
Y28874D01*
X204731D01*
X204731Y32067D01*
X205239Y33127D01*
X205239Y33425D01*
Y39223D01*
X198000D01*
X190761D01*
Y33425D01*
X190761Y33127D01*
X191269Y32067D01*
X191269Y31857D01*
Y18649D01*
X204731D01*
Y22140D01*
X214247D01*
X214250Y22113D01*
X214293Y21974D01*
X214300Y21829D01*
X214344Y21650D01*
X214368Y21600D01*
X214373Y21546D01*
X214429Y21364D01*
X214429Y21364D01*
X214539Y21005D01*
X214621Y20851D01*
X214667Y20684D01*
X214857Y20303D01*
X214906Y20240D01*
X214933Y20164D01*
X215144Y19814D01*
X215216Y19734D01*
X215263Y19637D01*
X215503Y19317D01*
X215558Y19267D01*
X215594Y19203D01*
X215854Y18903D01*
X215970Y18813D01*
X216059Y18698D01*
X216369Y18428D01*
X216431Y18392D01*
X216479Y18339D01*
X216809Y18089D01*
X216942Y18024D01*
X217054Y17929D01*
X217414Y17729D01*
X217468Y17711D01*
X217514Y17677D01*
X217884Y17497D01*
X218031Y17458D01*
X218164Y17385D01*
X218574Y17255D01*
X218694Y17242D01*
X218806Y17196D01*
X219116Y17136D01*
X219176Y17136D01*
X219233Y17117D01*
X219603Y17067D01*
X219687Y17072D01*
X219768Y17051D01*
X220138Y17031D01*
X220194Y17039D01*
X220250Y17028D01*
X225250D01*
X225298Y17038D01*
X225346Y17030D01*
X225776Y17050D01*
X225887Y17078D01*
X226001Y17073D01*
X226416Y17138D01*
X226518Y17176D01*
X226627Y17183D01*
X227022Y17288D01*
X227123Y17337D01*
X227234Y17356D01*
X227624Y17506D01*
X227731Y17574D01*
X227852Y17610D01*
X228172Y17780D01*
X228203Y17806D01*
X228240Y17818D01*
X228550Y17998D01*
X228644Y18081D01*
X228757Y18136D01*
X229082Y18381D01*
X229179Y18489D01*
X229300Y18570D01*
X229565Y18835D01*
X229587Y18867D01*
X229618Y18890D01*
X229878Y19170D01*
X229954Y19293D01*
X230392Y19232D01*
X231218Y18835D01*
Y13068D01*
X249532D01*
Y13068D01*
X250468D01*
Y13068D01*
X268782D01*
Y18835D01*
X269608Y19232D01*
X270046Y19293D01*
X270122Y19170D01*
X270382Y18890D01*
X270413Y18867D01*
X270435Y18835D01*
X270700Y18570D01*
X270821Y18489D01*
X270918Y18381D01*
X271243Y18136D01*
X271356Y18081D01*
X271450Y17998D01*
X271760Y17818D01*
X271797Y17806D01*
X271828Y17780D01*
X272148Y17610D01*
X272269Y17574D01*
X272376Y17506D01*
X272766Y17356D01*
X272877Y17337D01*
X272978Y17288D01*
X273373Y17183D01*
X273482Y17176D01*
X273584Y17138D01*
X273999Y17073D01*
X274113Y17078D01*
X274224Y17050D01*
X274654Y17030D01*
X274702Y17038D01*
X274750Y17028D01*
X279750D01*
X279806Y17039D01*
X279862Y17031D01*
X280232Y17051D01*
X280313Y17072D01*
X280397Y17067D01*
X280767Y17117D01*
X280824Y17136D01*
X280884Y17136D01*
X281194Y17196D01*
X281306Y17242D01*
X281426Y17255D01*
X281836Y17385D01*
X281969Y17458D01*
X282116Y17497D01*
X282486Y17677D01*
X282532Y17711D01*
X282586Y17729D01*
X282946Y17929D01*
X283058Y18024D01*
X283191Y18089D01*
X283521Y18339D01*
X283569Y18392D01*
X283631Y18428D01*
X283941Y18698D01*
X284030Y18813D01*
X284146Y18903D01*
X284406Y19203D01*
X284442Y19267D01*
X284497Y19317D01*
X284737Y19637D01*
X284784Y19734D01*
X284856Y19814D01*
X285067Y20164D01*
X285094Y20240D01*
X285143Y20303D01*
X285333Y20684D01*
X285379Y20851D01*
X285461Y21005D01*
X285571Y21364D01*
X285627Y21546D01*
X285632Y21600D01*
X285656Y21650D01*
X285700Y21829D01*
X285707Y21974D01*
X285750Y22113D01*
X285790Y22493D01*
X285785Y22549D01*
X285799Y22604D01*
X285819Y22994D01*
X285811Y23047D01*
X285822Y23100D01*
Y41528D01*
X289000D01*
X289793Y41686D01*
X290465Y42135D01*
X290914Y42807D01*
X291072Y43600D01*
Y50600D01*
X290914Y51393D01*
X290609Y51850D01*
X290915Y52308D01*
X291072Y53100D01*
Y67700D01*
X290915Y68493D01*
X290466Y69165D01*
X289793Y69614D01*
X289000Y69772D01*
X269000D01*
X268208Y69614D01*
X268159Y69582D01*
X267032Y69132D01*
X267032Y69132D01*
X267032Y69132D01*
X255004D01*
X254478Y70402D01*
X256381Y72304D01*
X257110Y73397D01*
X257367Y74685D01*
Y76968D01*
X258282D01*
Y89032D01*
X241718D01*
Y81729D01*
X241119Y81131D01*
X240390Y80038D01*
X240133Y78750D01*
Y75424D01*
X238863Y74898D01*
X235990Y77771D01*
X235828Y78586D01*
X234930Y79930D01*
X233586Y80828D01*
X232771Y80990D01*
X201777Y111984D01*
X202589Y112968D01*
X203688Y112968D01*
X208460D01*
Y112460D01*
X211730D01*
Y119500D01*
Y126540D01*
X208460D01*
Y126032D01*
X202468D01*
Y114232D01*
X202468Y113089D01*
X201484Y112277D01*
X183131Y130631D01*
X182038Y131360D01*
X180750Y131617D01*
X174793D01*
X174408Y132887D01*
X175131Y133369D01*
X210238Y168477D01*
X211411Y167991D01*
Y145938D01*
X210923Y145435D01*
X210914Y145426D01*
X210254Y145032D01*
X209898Y145032D01*
X202468D01*
Y131968D01*
X210532D01*
X211539Y131333D01*
X211695Y131099D01*
X214040Y128755D01*
X215048Y128081D01*
X216238Y127844D01*
X222763D01*
X223952Y128081D01*
X224960Y128755D01*
X227809Y131603D01*
X228482Y132611D01*
X228519Y132795D01*
X228930Y133070D01*
X229828Y134414D01*
X230144Y136000D01*
X229828Y137586D01*
X228930Y138930D01*
X227586Y139828D01*
X226000Y140144D01*
X224802Y139905D01*
X223532Y140650D01*
Y145032D01*
X220229D01*
X218145Y147117D01*
Y171968D01*
X220588D01*
Y184032D01*
X208968D01*
Y176729D01*
X206205Y173967D01*
X205032Y174453D01*
Y184032D01*
X202330D01*
Y185968D01*
X205032D01*
Y198032D01*
D02*
G37*
G36*
X142730Y179952D02*
X137460D01*
Y174904D01*
X142730D01*
Y179952D01*
D02*
G37*
G36*
X363830Y161980D02*
X356210D01*
Y158932D01*
X363830D01*
Y161980D01*
D02*
G37*
G36*
X353670D02*
X346050D01*
Y158932D01*
X353670D01*
Y161980D01*
D02*
G37*
G36*
X411790Y163980D02*
X405270D01*
Y157460D01*
X411790D01*
Y163980D01*
D02*
G37*
G36*
X338790D02*
X332270D01*
Y157460D01*
X338790D01*
Y163980D01*
D02*
G37*
G36*
X329730D02*
X323210D01*
Y157460D01*
X329730D01*
Y163980D01*
D02*
G37*
G36*
X217540Y126540D02*
X214270D01*
Y119500D01*
Y112460D01*
X217540D01*
Y112968D01*
X223532D01*
Y126032D01*
X217540D01*
Y126540D01*
D02*
G37*
G36*
X107790Y60980D02*
X101270D01*
Y54460D01*
X107790D01*
Y60980D01*
D02*
G37*
G36*
X98730D02*
X92210D01*
Y54460D01*
X98730D01*
Y60980D01*
D02*
G37*
G36*
X205239Y47859D02*
X199270D01*
Y41763D01*
X205239D01*
Y47859D01*
D02*
G37*
G36*
X196730D02*
X190761D01*
Y41763D01*
X196730D01*
Y47859D01*
D02*
G37*
G36*
X170000Y49313D02*
X166710Y48989D01*
X163547Y48030D01*
X160631Y46471D01*
X158076Y44374D01*
X155979Y41819D01*
X154420Y38903D01*
X153461Y35740D01*
X153137Y32450D01*
X153461Y29160D01*
X154420Y25997D01*
X155979Y23081D01*
X158076Y20526D01*
X160631Y18429D01*
X163547Y16870D01*
X166710Y15911D01*
X170000Y15587D01*
X173290Y15911D01*
X176453Y16870D01*
X179369Y18429D01*
X181924Y20526D01*
X184021Y23081D01*
X185579Y25997D01*
X186539Y29160D01*
X186863Y32450D01*
X186539Y35740D01*
X185579Y38903D01*
X184021Y41819D01*
X181924Y44374D01*
X179369Y46471D01*
X176453Y48030D01*
X173290Y48989D01*
X170000Y49313D01*
D02*
G37*
%LPD*%
G36*
X289000Y43600D02*
X283750D01*
Y23100D01*
X283730Y22710D01*
X283690Y22330D01*
X283645Y22151D01*
X283590Y21970D01*
X283480Y21610D01*
X283290Y21230D01*
X283080Y20880D01*
X282840Y20560D01*
X282580Y20260D01*
X282270Y19990D01*
X281940Y19740D01*
X281580Y19540D01*
X281210Y19360D01*
X280800Y19230D01*
X280490Y19170D01*
X280120Y19120D01*
X279750Y19100D01*
X274750D01*
X274320Y19120D01*
X273905Y19185D01*
X273510Y19290D01*
X273120Y19440D01*
X272800Y19610D01*
X272490Y19790D01*
X272165Y20035D01*
X271900Y20300D01*
X271640Y20580D01*
X271430Y20880D01*
X271210Y21230D01*
X271050Y21590D01*
X270930Y21910D01*
X270880Y22080D01*
X270840Y22250D01*
X270800Y22450D01*
X270760Y22660D01*
X270750Y22880D01*
Y23100D01*
Y43600D01*
Y50600D01*
X289000D01*
Y43600D01*
D02*
G37*
G36*
X229250Y43600D02*
Y23100D01*
Y22880D01*
X229240Y22660D01*
X229200Y22450D01*
X229160Y22250D01*
X229120Y22080D01*
X229070Y21910D01*
X228950Y21590D01*
X228790Y21230D01*
X228570Y20880D01*
X228360Y20580D01*
X228100Y20300D01*
X227835Y20035D01*
X227510Y19790D01*
X227200Y19610D01*
X226880Y19440D01*
X226490Y19290D01*
X226095Y19185D01*
X225680Y19120D01*
X225250Y19100D01*
X220250D01*
X219880Y19120D01*
X219510Y19170D01*
X219200Y19230D01*
X218790Y19360D01*
X218420Y19540D01*
X218060Y19740D01*
X217730Y19990D01*
X217420Y20260D01*
X217160Y20560D01*
X216920Y20880D01*
X216710Y21230D01*
X216520Y21610D01*
X216410Y21970D01*
X216355Y22151D01*
X216310Y22330D01*
X216270Y22710D01*
X216250Y23100D01*
Y43600D01*
X211000D01*
Y50600D01*
X229250D01*
Y43600D01*
D02*
G37*
D13*
X180750Y128250D02*
X232000Y77000D01*
X145000Y128250D02*
X180750D01*
X237000Y58350D02*
Y72000D01*
X232000Y77000D02*
X237000Y72000D01*
X218097Y25507D02*
X222690Y30100D01*
X198000Y25507D02*
X218097D01*
X222690Y30100D02*
X222750D01*
X263000Y59670D02*
X263730Y60400D01*
X274250D01*
X263000Y58350D02*
Y59670D01*
X275677Y31673D02*
Y58973D01*
Y31673D02*
X277250Y30100D01*
X274250Y60400D02*
X275677Y58973D01*
X262125Y30100D02*
X277250D01*
X259625Y27600D02*
X262125Y30100D01*
X240375Y27600D02*
X259625D01*
X222750Y30100D02*
X237875D01*
X240375Y27600D01*
X224323Y31673D02*
Y58973D01*
X222750Y30100D02*
X224323Y31673D01*
Y58973D02*
X225750Y60400D01*
X254000Y74685D02*
Y83000D01*
X250225Y70910D02*
X254000Y74685D01*
X250225Y58575D02*
Y70910D01*
X250000Y58350D02*
X250225Y58575D01*
X243500Y78750D02*
X246000Y81250D01*
Y83000D01*
X243500Y58350D02*
Y78750D01*
X251722Y128690D02*
Y136778D01*
X250000Y138500D02*
X251722Y136778D01*
Y128690D02*
X254000Y126412D01*
X248278Y115222D02*
Y123310D01*
X247000Y124588D02*
X248278Y123310D01*
X247000Y124588D02*
Y125000D01*
X248278Y115222D02*
X250000Y113500D01*
X259500Y106250D02*
Y113500D01*
Y138500D01*
X254000Y100750D02*
X259500Y106250D01*
X254000Y99000D02*
Y100750D01*
X242230Y104520D02*
Y111770D01*
X246000Y99000D02*
Y100750D01*
X242230Y104520D02*
X246000Y100750D01*
X240500Y113500D02*
Y138500D01*
Y113500D02*
X242230Y111770D01*
X254590Y155338D02*
X262137D01*
X277462Y170663D01*
X256000Y236000D02*
X257500D01*
X256000Y244000D02*
X257500D01*
X259500Y138500D02*
Y141500D01*
X238089Y219755D02*
X241552Y223218D01*
Y224302D01*
X256302Y144698D02*
X259500Y141500D01*
X240500Y138500D02*
Y141500D01*
X241552Y224302D02*
X243750Y226500D01*
X256302Y144698D02*
Y145868D01*
X240500Y141500D02*
X243698Y144698D01*
X254996Y147174D02*
X256302Y145868D01*
X243698Y144698D02*
Y145868D01*
X254996Y147174D02*
Y149278D01*
X243698Y145868D02*
X245632Y147802D01*
X254996Y149278D02*
X256484Y150766D01*
X245632Y147802D02*
X247054D01*
X256484Y150766D02*
X264030D01*
X247054Y147802D02*
X254590Y155338D01*
X254124Y222140D02*
Y234124D01*
X252718Y241802D02*
X253802D01*
X282034Y168770D02*
Y194230D01*
X249552Y220247D02*
Y238636D01*
X277462Y170663D02*
Y192337D01*
X254124Y234124D02*
X256000Y236000D01*
X253802Y241802D02*
X256000Y244000D01*
X230190Y219755D02*
X238089D01*
X254124Y222140D02*
X282034Y194230D01*
X249552Y238636D02*
X252718Y241802D01*
X264030Y150766D02*
X282034Y168770D01*
X249552Y220247D02*
X277462Y192337D01*
X104632Y107198D02*
X113368D01*
X118500Y113500D02*
Y119500D01*
X115302Y110302D02*
X118500Y113500D01*
X99375Y94125D02*
Y113500D01*
X113368Y107198D02*
X115302Y109132D01*
Y110302D01*
X254130Y457130D02*
Y458950D01*
X259514Y464334D01*
X269396D01*
X254000Y457000D02*
X254130Y457130D01*
X269396Y464334D02*
X280730Y453000D01*
X281000Y453270D02*
Y469000D01*
X280730Y453000D02*
X281000Y453270D01*
X269080Y441350D02*
X280730Y453000D01*
X259650Y441350D02*
X269080D01*
X280000Y353000D02*
X280000Y353000D01*
X280000Y341000D02*
Y353000D01*
X280000Y290498D02*
X287502Y298000D01*
X280000Y290000D02*
Y290498D01*
X287502Y298000D02*
X309000D01*
X226571Y456571D02*
X236791Y446350D01*
X228400D02*
X236791D01*
X243350D01*
X280000Y276250D02*
Y290000D01*
Y276250D02*
X281250Y275000D01*
X274250Y268000D02*
X281250Y275000D01*
X257500Y268000D02*
X274250D01*
X227750Y447000D02*
X228400Y446350D01*
X229137Y218702D02*
X230190Y219755D01*
X219750Y220190D02*
Y228000D01*
X221238Y218702D02*
X229137D01*
X219750Y220190D02*
X221238Y218702D01*
X254267Y428874D02*
X254559Y428582D01*
X254000Y430412D02*
X254267Y430145D01*
X254000Y430412D02*
Y440700D01*
X254267Y428874D02*
Y430145D01*
X196980Y223020D02*
Y226770D01*
Y223020D02*
X213000Y207000D01*
X195750Y228000D02*
X196980Y226770D01*
X188980Y221020D02*
X203000Y207000D01*
X187750Y228000D02*
X188980Y226770D01*
Y221020D02*
Y226770D01*
X172619Y213375D02*
Y213788D01*
X162480Y215133D02*
X163750Y216403D01*
X179750Y219732D02*
Y228000D01*
X162480Y209480D02*
Y215133D01*
X171750Y214657D02*
X172619Y213788D01*
X162291Y209291D02*
X162480Y209480D01*
X179750Y219732D02*
X192280Y207202D01*
X163750Y216403D02*
Y228000D01*
X171750Y214657D02*
Y228000D01*
X190230Y339564D02*
X197666Y347000D01*
X190230Y333230D02*
Y339564D01*
X96204Y169986D02*
X101000D01*
X100250Y157000D02*
X101000Y157750D01*
Y169986D01*
X99500Y156250D02*
X100250Y157000D01*
X189000Y332000D02*
X190230Y333230D01*
X263068Y451648D02*
X265002Y453582D01*
X261434Y451480D02*
X261602Y451648D01*
X265002Y453582D02*
Y457590D01*
X265903Y458490D02*
Y458903D01*
X259650Y446350D02*
Y451488D01*
X261602Y451648D02*
X263068D01*
X259650Y451480D02*
X261434D01*
X265002Y457590D02*
X265903Y458490D01*
X201250Y496250D02*
Y537750D01*
X383458Y317708D02*
X385708D01*
X370750Y305000D02*
X383458Y317708D01*
X385708D02*
X386000Y318000D01*
X108000Y219000D02*
Y232507D01*
X107507Y233000D02*
X108000Y232507D01*
X281000Y230000D02*
X281000Y230000D01*
X281000Y230000D02*
Y243000D01*
X330000Y179750D02*
Y196000D01*
Y179750D02*
X331000Y178750D01*
X418000Y192750D02*
Y231000D01*
X404000Y178750D02*
X418000Y192750D01*
X152253Y182664D02*
X156219Y178698D01*
X156825D01*
X160000Y175523D01*
Y174888D02*
Y175523D01*
X144000Y189790D02*
Y196778D01*
Y189790D02*
X145488Y188302D01*
X149368D01*
X152253Y185417D01*
Y182664D02*
Y185417D01*
X449111Y244111D02*
Y256889D01*
X449222Y257000D01*
X449000Y244000D02*
X449111Y244111D01*
X249000Y433262D02*
Y440700D01*
X245000Y429262D02*
X249000Y433262D01*
X245000Y429000D02*
Y429262D01*
X166230Y339176D02*
X238780Y411726D01*
X289833D01*
X165000Y332000D02*
X166230Y333230D01*
Y339176D01*
X155750Y193997D02*
X160000Y189747D01*
X155750Y193997D02*
Y228000D01*
X160000Y189112D02*
Y189747D01*
X143778Y210000D02*
X143889Y210111D01*
Y217889D01*
X144000Y218000D01*
X214778Y145722D02*
Y177778D01*
Y178000D01*
X145000Y135750D02*
X172750D01*
X214778Y177778D01*
X118500Y119500D02*
X134750Y135750D01*
X145000D01*
X102698Y109132D02*
X104632Y107198D01*
X102698Y109132D02*
Y110302D01*
X99500Y113500D02*
X102698Y110302D01*
X99500Y113500D02*
Y116500D01*
X99250Y94000D02*
X99375Y94125D01*
X99250Y76500D02*
Y94000D01*
Y76500D02*
X100000Y75750D01*
X214778Y145722D02*
X219500Y141000D01*
Y138500D02*
Y141000D01*
X289833Y411726D02*
X333107Y455000D01*
X391000D01*
X462250Y440750D02*
X462500Y440500D01*
X462250Y440750D02*
Y456000D01*
X446000Y455000D02*
X461250D01*
X462250Y456000D01*
X401500Y176250D02*
X404000Y178750D01*
X400020Y174770D02*
X401500Y176250D01*
X393220Y163250D02*
X395301Y165331D01*
Y171721D01*
X383060Y163250D02*
X393220D01*
X395301Y171721D02*
X398350Y174770D01*
X400020D01*
X400000Y182750D02*
X404000Y178750D01*
X383060Y182750D02*
X400000D01*
X383060Y176250D02*
X401500D01*
X334980Y174770D02*
X339760D01*
X344780Y169750D02*
X354940D01*
X339760Y174770D02*
X344780Y169750D01*
X331000Y178750D02*
X334980Y174770D01*
X366350Y283494D02*
X370750Y287894D01*
Y305000D01*
X366350Y278160D02*
Y283494D01*
X193292Y547708D02*
X201250Y539750D01*
X189000Y548000D02*
X189292Y547708D01*
X201250Y537750D02*
Y539750D01*
X189292Y547708D02*
X193292D01*
X101000Y169986D02*
Y182222D01*
X99500Y141500D02*
Y156250D01*
X280250Y308000D02*
Y325000D01*
X280000Y325250D02*
X280250Y325000D01*
X280000Y325250D02*
Y341000D01*
X457000Y298000D02*
Y312664D01*
X439127Y280127D02*
X449204D01*
X449332Y280254D01*
X439000Y280000D02*
X439127Y280127D01*
X475060Y274262D02*
X477907Y277109D01*
Y289900D01*
X471176Y274262D02*
X475060D01*
X472000Y295807D02*
X477907Y289900D01*
X472000Y295807D02*
Y312664D01*
X243750Y226500D02*
Y228000D01*
X449222Y257000D02*
Y273645D01*
X449332Y273754D01*
X472000Y312664D02*
X472442Y312222D01*
X489000D01*
X470668Y280254D02*
Y286754D01*
Y273754D02*
X471176Y274262D01*
X435932Y305298D02*
X440222D01*
X442000Y307076D01*
X418000Y279778D02*
Y287366D01*
X435932Y305298D01*
X442000Y307076D02*
Y312664D01*
X415000Y261444D02*
X417778Y264222D01*
X101000Y197778D02*
X114715D01*
X115000Y197493D01*
X128000Y197493D02*
X128222Y197715D01*
Y210000D01*
X144500Y226500D02*
Y236000D01*
X128222Y210222D02*
X144500Y226500D01*
X128222Y210000D02*
Y210222D01*
X115000Y197493D02*
X118429Y200922D01*
Y212655D01*
X130621Y224847D01*
Y232705D01*
X139718Y241802D02*
X140802D01*
X130621Y232705D02*
X139718Y241802D01*
X140802D02*
X143000Y244000D01*
X144500D01*
X122500Y316000D02*
X143000D01*
X135000Y322916D02*
X139718Y318198D01*
X143000Y316000D02*
X144500D01*
X140802Y318198D02*
X143000Y316000D01*
X139718Y318198D02*
X140802D01*
X135000Y322916D02*
Y354000D01*
X124250Y364750D02*
X135000Y354000D01*
X108000Y364750D02*
X124250D01*
X108500Y315000D02*
Y333007D01*
X106507Y335000D02*
X108500Y333007D01*
X121500Y295007D02*
Y315000D01*
X121493Y295000D02*
X121500Y295007D01*
Y315000D02*
X122500Y316000D01*
X107500D02*
X108500Y315000D01*
X227750Y228000D02*
X235750D01*
X121750Y233743D02*
X122493Y233000D01*
X121750Y233743D02*
Y250000D01*
X121250Y250500D02*
Y266000D01*
Y250500D02*
X121750Y250000D01*
X123250Y268000D02*
X144500D01*
X121250Y266000D02*
X123250Y268000D01*
X261198Y278198D02*
X262282D01*
X269276Y285192D01*
Y294026D01*
X257500Y276000D02*
X259000D01*
X261198Y278198D01*
X269276Y294026D02*
X280250Y305000D01*
X281000Y259750D02*
X281250Y260000D01*
X281000Y243000D02*
Y259750D01*
X257500Y260000D02*
X281250D01*
D16*
X78500Y316000D02*
X107500D01*
X33000Y166750D02*
X35750D01*
X41250D02*
X44000D01*
X35750D02*
X41250D01*
X44000D02*
Y238000D01*
X33000Y166750D02*
Y284000D01*
X22000Y283000D02*
X23000Y284000D01*
X33000D01*
X22000Y166000D02*
Y283000D01*
X12000Y166000D02*
X22000D01*
X12000D02*
Y288380D01*
X44000Y238000D02*
Y252000D01*
X12000Y288380D02*
Y307000D01*
D17*
X238252Y453688D02*
X240205Y451734D01*
X238252Y453688D02*
Y465702D01*
X240205Y451734D02*
X242966D01*
X230012Y211770D02*
X232663Y214421D01*
X227243Y211770D02*
X230012D01*
X232663Y214421D02*
X233213D01*
X226472Y211000D02*
X227243Y211770D01*
X238252Y465702D02*
X241221Y468671D01*
Y469221D01*
X217000Y211000D02*
X226472D01*
X204955Y223045D02*
Y226795D01*
X203750Y228000D02*
X204955Y226795D01*
Y223045D02*
X217000Y211000D01*
X181000Y339000D02*
X189000Y347000D01*
X115000Y171086D02*
X122971Y163115D01*
X115000Y171086D02*
Y182507D01*
X225611Y133801D02*
Y135611D01*
X226000Y136000D01*
X222763Y130952D02*
X225611Y133801D01*
X223000Y494000D02*
Y496000D01*
Y476000D02*
Y494000D01*
X224984Y492016D01*
X222750Y496250D02*
X223000Y496000D01*
X133000Y252000D02*
X144500D01*
X156000Y470550D02*
X157000Y471550D01*
Y486250D01*
X156000Y470000D02*
Y470550D01*
X181000Y332000D02*
Y339000D01*
X240569Y407408D02*
X291621D01*
X236991Y416044D02*
X288044D01*
X158484Y337537D02*
X236991Y416044D01*
X173000Y339839D02*
X240569Y407408D01*
X158484Y333484D02*
Y337537D01*
X173000Y332000D02*
Y339839D01*
X157000Y332000D02*
X158484Y333484D01*
X216238Y130952D02*
X222763D01*
X199222Y178222D02*
Y192000D01*
X196460Y180984D02*
X199222Y178222D01*
X187000Y185000D02*
X191016Y180984D01*
X199222Y178000D02*
Y178222D01*
X191016Y180984D02*
X196460D01*
X213893Y133297D02*
X216238Y130952D01*
X213893Y133297D02*
Y136155D01*
X211548Y138500D02*
X213893Y136155D01*
X206500Y138500D02*
X211548D01*
X291621Y407408D02*
X305713Y421500D01*
X462500D01*
X288044Y416044D02*
X337668Y465668D01*
X405732D01*
X416400Y455000D01*
X354940Y182750D02*
Y193390D01*
X358000Y196450D02*
Y197000D01*
X354940Y193390D02*
X358000Y196450D01*
Y251776D02*
X379050Y272826D01*
Y278160D01*
X358000Y197000D02*
Y251776D01*
X341000Y278210D02*
Y306000D01*
X340950Y278160D02*
X341000Y278210D01*
X379050Y298050D02*
X386000Y305000D01*
X379050Y278160D02*
Y298050D01*
X249000Y463500D02*
X253500Y468000D01*
X249000Y457000D02*
Y463500D01*
X242966Y451734D02*
X243350Y451350D01*
X222750Y496250D02*
Y537750D01*
X224984Y492016D02*
X226984D01*
X232500Y486500D01*
X242000D01*
X139750Y494250D02*
X147750Y486250D01*
X139750Y494250D02*
Y496250D01*
X147750Y486250D02*
X157000D01*
X139750Y496250D02*
Y537750D01*
X418000Y264222D02*
X418222D01*
X417778D02*
X418000D01*
X418222D02*
X451444Y231000D01*
X468000D01*
X128000Y170000D02*
Y182507D01*
X352298Y205298D02*
Y236262D01*
X344000Y178440D02*
Y197000D01*
Y178440D02*
X346190Y176250D01*
X344000Y197000D02*
X352298Y205298D01*
X346190Y176250D02*
X354940D01*
X340950Y247610D02*
X352298Y236262D01*
X340950Y247610D02*
Y278160D01*
D20*
X250000Y58350D02*
D03*
X243500D02*
D03*
X237000D02*
D03*
X256500D02*
D03*
X263000D02*
D03*
D21*
X240375Y27600D02*
D03*
X259625D02*
D03*
D22*
X257500Y236000D02*
D03*
Y244000D02*
D03*
Y252000D02*
D03*
Y260000D02*
D03*
Y268000D02*
D03*
Y276000D02*
D03*
Y284000D02*
D03*
Y292000D02*
D03*
Y300000D02*
D03*
Y308000D02*
D03*
Y316000D02*
D03*
Y324000D02*
D03*
X144500D02*
D03*
Y316000D02*
D03*
Y308000D02*
D03*
Y300000D02*
D03*
Y292000D02*
D03*
Y284000D02*
D03*
Y276000D02*
D03*
Y268000D02*
D03*
Y260000D02*
D03*
Y252000D02*
D03*
Y244000D02*
D03*
Y236000D02*
D03*
D23*
X157000Y332000D02*
D03*
X165000D02*
D03*
X173000D02*
D03*
X181000D02*
D03*
X189000D02*
D03*
X197000D02*
D03*
X205000D02*
D03*
X213000D02*
D03*
X221000D02*
D03*
X229000D02*
D03*
X237000D02*
D03*
X245000D02*
D03*
X243750Y228000D02*
D03*
X235750D02*
D03*
X227750D02*
D03*
X219750D02*
D03*
X211750D02*
D03*
X203750D02*
D03*
X195750D02*
D03*
X187750D02*
D03*
X179750D02*
D03*
X171750D02*
D03*
X163750D02*
D03*
X155750D02*
D03*
D24*
X226000Y255000D02*
D03*
X201000D02*
D03*
X176000D02*
D03*
X226000Y280000D02*
D03*
X201000D02*
D03*
X176000D02*
D03*
X226000Y305000D02*
D03*
X201000D02*
D03*
X176000D02*
D03*
D25*
X281250Y260000D02*
D03*
X294750D02*
D03*
Y275000D02*
D03*
X281250D02*
D03*
X475750Y456000D02*
D03*
X462250D02*
D03*
X100250Y157000D02*
D03*
X113750D02*
D03*
X293750Y308000D02*
D03*
X280250D02*
D03*
X293750Y325000D02*
D03*
X280250D02*
D03*
X357250Y305000D02*
D03*
X370750D02*
D03*
X227750Y447000D02*
D03*
X214250D02*
D03*
X280730Y453000D02*
D03*
X294230D02*
D03*
X108250Y250000D02*
D03*
X121750D02*
D03*
D26*
X379050Y278160D02*
D03*
X340950D02*
D03*
X353650D02*
D03*
X366350D02*
D03*
D27*
X462500Y440500D02*
D03*
Y421500D02*
D03*
X487500Y431000D02*
D03*
D28*
X160000Y189112D02*
D03*
Y174888D02*
D03*
D29*
X294000Y341000D02*
D03*
X280000D02*
D03*
X281000Y243000D02*
D03*
X295000D02*
D03*
X280000Y290000D02*
D03*
X294000D02*
D03*
D30*
X442000Y312664D02*
D03*
X472000D02*
D03*
D31*
X457000D02*
D03*
D32*
X354940Y163250D02*
D03*
Y169750D02*
D03*
Y176250D02*
D03*
Y182750D02*
D03*
X383060D02*
D03*
Y176250D02*
D03*
Y169750D02*
D03*
Y163250D02*
D03*
D33*
X206500Y138500D02*
D03*
X219500D02*
D03*
Y119500D02*
D03*
X213000D02*
D03*
X206500D02*
D03*
D34*
X418000Y264222D02*
D03*
Y279778D02*
D03*
X489000Y327778D02*
D03*
Y312222D02*
D03*
X144000Y196778D02*
D03*
Y181222D02*
D03*
X101000Y197778D02*
D03*
Y182222D02*
D03*
D35*
X449222Y257000D02*
D03*
X464778D02*
D03*
X214778Y178000D02*
D03*
X199222D02*
D03*
X143778Y210000D02*
D03*
X128222D02*
D03*
X199222Y192000D02*
D03*
X214778D02*
D03*
D36*
X470668Y273754D02*
D03*
Y280254D02*
D03*
Y286754D02*
D03*
X449332D02*
D03*
Y280254D02*
D03*
Y273754D02*
D03*
D37*
X331000Y165250D02*
D03*
Y178750D02*
D03*
X404000Y165250D02*
D03*
Y178750D02*
D03*
X100000Y62250D02*
D03*
Y75750D02*
D03*
X157000Y499750D02*
D03*
Y486250D02*
D03*
D38*
X108500Y315000D02*
D03*
X121500D02*
D03*
D39*
X254000Y83000D02*
D03*
X246000D02*
D03*
Y99000D02*
D03*
X254000D02*
D03*
D40*
X259500Y113500D02*
D03*
X250000D02*
D03*
X240500D02*
D03*
Y138500D02*
D03*
X250000D02*
D03*
X259500D02*
D03*
X99500Y141500D02*
D03*
X118500D02*
D03*
Y116500D02*
D03*
X109000D02*
D03*
X99500D02*
D03*
D41*
X249000Y457000D02*
D03*
X254000D02*
D03*
Y440700D02*
D03*
X249000D02*
D03*
D42*
X259650Y456350D02*
D03*
Y451350D02*
D03*
Y446350D02*
D03*
Y441350D02*
D03*
X243350D02*
D03*
Y446350D02*
D03*
Y451350D02*
D03*
Y456350D02*
D03*
D43*
X128000Y182507D02*
D03*
Y197493D02*
D03*
X115000Y182507D02*
D03*
Y197493D02*
D03*
X198000Y40493D02*
D03*
Y25507D02*
D03*
D44*
X201250Y496250D02*
D03*
Y537750D02*
D03*
X222750Y496250D02*
D03*
Y537750D02*
D03*
X118250Y496250D02*
D03*
Y537750D02*
D03*
X139750Y496250D02*
D03*
Y537750D02*
D03*
D45*
X122750Y380000D02*
D03*
X93250D02*
D03*
D46*
X108000Y364750D02*
D03*
D47*
X107507Y233000D02*
D03*
X122493D02*
D03*
X121493Y335000D02*
D03*
X106507D02*
D03*
Y295000D02*
D03*
X121493D02*
D03*
D48*
X11500Y316000D02*
D03*
X78500D02*
D03*
D49*
X145000Y128250D02*
D03*
Y135750D02*
D03*
D50*
X242000Y499500D02*
D03*
Y486500D02*
D03*
D51*
X106750Y94000D02*
D03*
X99250D02*
D03*
D52*
X121250Y266000D02*
D03*
X108750D02*
D03*
D53*
X279000Y60400D02*
D03*
X221000D02*
D03*
D97*
X136568Y120000D02*
X155564D01*
X166914Y108650D02*
X170000D01*
X118559Y101991D02*
X136568Y120000D01*
X155564D02*
X166914Y108650D01*
X106750Y94000D02*
X114741Y101991D01*
X118559D01*
D98*
X277250Y30100D02*
D03*
X222750D02*
D03*
D99*
X274250Y60400D02*
D03*
X225750D02*
D03*
D100*
X416400Y328000D02*
D03*
X365600D02*
D03*
X391000Y455000D02*
D03*
X416400D02*
D03*
D101*
X468000Y231000D02*
D03*
D102*
X418000D02*
D03*
D103*
X290200Y538000D02*
D03*
X341000D02*
D03*
X315600D02*
D03*
D104*
X366400D02*
D03*
D105*
X170000Y447350D02*
D03*
Y523550D02*
D03*
X170000Y108650D02*
D03*
Y32450D02*
D03*
D106*
X251300Y181500D02*
D03*
Y381500D02*
D03*
D107*
X254000Y126412D02*
D03*
X247000Y125000D02*
D03*
X232000Y77000D02*
D03*
X281000Y469000D02*
D03*
X241221Y469221D02*
D03*
X233213Y214421D02*
D03*
X226571Y456571D02*
D03*
X254559Y428582D02*
D03*
X280000Y353000D02*
D03*
X203000Y207000D02*
D03*
X213000D02*
D03*
X162291Y209291D02*
D03*
X192280Y207202D02*
D03*
X172619Y213375D02*
D03*
X189000Y347000D02*
D03*
X197666D02*
D03*
X319000Y355000D02*
D03*
X122971Y163115D02*
D03*
X96204Y169986D02*
D03*
X226000Y136000D02*
D03*
X266000Y459000D02*
D03*
X386000Y318000D02*
D03*
X330000Y196000D02*
D03*
X223000Y476000D02*
D03*
X133000Y252000D02*
D03*
X156000Y470000D02*
D03*
X449000Y244000D02*
D03*
X245000Y429000D02*
D03*
X144000Y218000D02*
D03*
X187000Y185000D02*
D03*
X358000Y197000D02*
D03*
X386000Y305000D02*
D03*
X341000Y306000D02*
D03*
X189000Y548000D02*
D03*
X253500Y468000D02*
D03*
X128000Y170000D02*
D03*
X344000Y197000D02*
D03*
X108000Y219000D02*
D03*
X309000Y298000D02*
D03*
X281000Y230000D02*
D03*
X457000Y298000D02*
D03*
X439000Y280000D02*
D03*
X446000Y455000D02*
D03*
M02*
