G04*
G04 #@! TF.GenerationSoftware,Altium Limited,Altium Designer,21.6.1 (37)*
G04*
G04 Layer_Color=32768*
%FSLAX44Y44*%
%MOMM*%
G71*
G04*
G04 #@! TF.SameCoordinates,92C9E3DA-2EC7-41D8-9103-AA549F60DB15*
G04*
G04*
G04 #@! TF.FilePolarity,Positive*
G04*
G01*
G75*
%ADD19C,0.1270*%
%ADD122C,0.0127*%
%ADD123C,0.0500*%
G36*
X-793949Y-1106209D02*
X-793908Y-1106215D01*
X-793855Y-1106221D01*
X-793797Y-1106233D01*
X-793732Y-1106251D01*
X-793597Y-1106292D01*
X-793521Y-1106321D01*
X-793450Y-1106362D01*
X-793374Y-1106403D01*
X-793304Y-1106450D01*
X-793233Y-1106509D01*
X-793163Y-1106573D01*
X-793157Y-1106579D01*
X-793145Y-1106591D01*
X-793128Y-1106609D01*
X-793110Y-1106638D01*
X-793081Y-1106679D01*
X-793052Y-1106720D01*
X-793022Y-1106773D01*
X-793019Y-1106779D01*
X-793009D01*
Y-1106795D01*
X-792943D01*
Y-1106918D01*
X-792922Y-1106972D01*
X-792893Y-1107054D01*
X-792864Y-1107137D01*
X-792846Y-1107230D01*
X-792829Y-1107330D01*
X-792817Y-1107430D01*
X-792811Y-1107541D01*
Y-1107600D01*
X-792817Y-1107641D01*
X-792823Y-1107694D01*
X-792829Y-1107753D01*
X-792840Y-1107817D01*
X-792858Y-1107887D01*
X-792899Y-1108046D01*
X-792928Y-1108128D01*
X-792958Y-1108204D01*
X-792999Y-1108287D01*
X-793046Y-1108369D01*
X-793098Y-1108445D01*
X-793163Y-1108515D01*
X-793169Y-1108521D01*
X-793181Y-1108533D01*
X-793198Y-1108551D01*
X-793227Y-1108574D01*
X-793263Y-1108597D01*
X-793304Y-1108633D01*
X-793351Y-1108662D01*
X-793409Y-1108697D01*
X-793468Y-1108733D01*
X-793539Y-1108762D01*
X-793685Y-1108820D01*
X-793773Y-1108844D01*
X-793861Y-1108861D01*
X-793917Y-1108869D01*
Y-1109059D01*
X-794375D01*
D01*
X-794768D01*
X-795431Y-1108590D01*
X-795434Y-1108592D01*
X-795481Y-1108615D01*
X-795539Y-1108639D01*
X-795615Y-1108668D01*
X-795704Y-1108691D01*
X-795803Y-1108709D01*
X-795909Y-1108715D01*
X-795915D01*
X-795927D01*
X-795950D01*
X-795985Y-1108709D01*
X-796020Y-1108703D01*
X-796067Y-1108697D01*
X-796152Y-1108677D01*
X-796205Y-1108691D01*
X-796305Y-1108709D01*
X-796411Y-1108715D01*
X-796417D01*
X-796428D01*
X-796452D01*
X-796487Y-1108709D01*
X-796522Y-1108703D01*
X-796569Y-1108697D01*
X-796669Y-1108674D01*
X-796786Y-1108639D01*
X-796909Y-1108580D01*
X-796974Y-1108545D01*
X-797039Y-1108504D01*
X-797097Y-1108451D01*
X-797156Y-1108398D01*
X-797162Y-1108392D01*
X-797168Y-1108380D01*
X-797185Y-1108363D01*
X-797203Y-1108339D01*
X-797226Y-1108310D01*
X-797250Y-1108269D01*
X-797279Y-1108222D01*
X-797309Y-1108175D01*
X-797338Y-1108116D01*
X-797367Y-1108052D01*
X-797391Y-1107981D01*
X-797414Y-1107905D01*
X-797449Y-1107741D01*
X-797455Y-1107647D01*
X-797461Y-1107553D01*
Y-1107500D01*
X-797455Y-1107465D01*
X-797449Y-1107418D01*
X-797443Y-1107365D01*
X-797438Y-1107307D01*
X-797420Y-1107248D01*
X-797396Y-1107154D01*
Y-1106795D01*
X-797348D01*
Y-1106779D01*
X-797217D01*
X-797203Y-1106761D01*
X-797150Y-1106696D01*
X-797144Y-1106691D01*
X-797138Y-1106685D01*
X-797121Y-1106667D01*
X-797097Y-1106644D01*
X-797062Y-1106620D01*
X-797027Y-1106591D01*
X-796939Y-1106532D01*
X-796827Y-1106473D01*
X-796698Y-1106421D01*
X-796552Y-1106380D01*
X-796475Y-1106374D01*
X-796393Y-1106368D01*
X-796387D01*
X-796381D01*
X-796346D01*
X-796293Y-1106374D01*
X-796229Y-1106385D01*
X-796147Y-1106403D01*
X-796141Y-1106405D01*
X-796050Y-1106380D01*
X-795973Y-1106374D01*
X-795891Y-1106368D01*
X-795885D01*
X-795880D01*
X-795844D01*
X-795792Y-1106374D01*
X-795727Y-1106385D01*
X-795645Y-1106403D01*
X-795563Y-1106432D01*
X-795481Y-1106468D01*
X-795398Y-1106520D01*
X-795387Y-1106526D01*
X-795363Y-1106550D01*
X-795350Y-1106562D01*
X-795278Y-1106485D01*
X-795184Y-1106403D01*
X-795179D01*
X-795173Y-1106397D01*
X-795138Y-1106374D01*
X-795079Y-1106339D01*
X-795003Y-1106303D01*
X-794909Y-1106268D01*
X-794797Y-1106233D01*
X-794674Y-1106209D01*
X-794539Y-1106204D01*
X-794533D01*
X-794516D01*
X-794486D01*
X-794451Y-1106209D01*
X-794410Y-1106215D01*
X-794357Y-1106221D01*
X-794328Y-1106227D01*
X-794265D01*
X-794172Y-1106209D01*
X-794037Y-1106204D01*
X-794031D01*
X-794014D01*
X-793984D01*
X-793949Y-1106209D01*
D02*
G37*
G36*
Y-1109366D02*
X-793908Y-1109372D01*
X-793855Y-1109378D01*
X-793797Y-1109390D01*
X-793732Y-1109407D01*
X-793597Y-1109448D01*
X-793521Y-1109478D01*
X-793450Y-1109519D01*
X-793374Y-1109560D01*
X-793304Y-1109607D01*
X-793233Y-1109665D01*
X-793163Y-1109730D01*
X-793157Y-1109736D01*
X-793145Y-1109747D01*
X-793128Y-1109765D01*
X-793110Y-1109794D01*
X-793081Y-1109836D01*
X-793052Y-1109877D01*
X-793022Y-1109929D01*
X-792987Y-1109988D01*
X-792952Y-1110053D01*
X-792922Y-1110129D01*
X-792893Y-1110211D01*
X-792864Y-1110293D01*
X-792846Y-1110387D01*
X-792829Y-1110487D01*
X-792817Y-1110587D01*
X-792811Y-1110698D01*
Y-1110757D01*
X-792817Y-1110798D01*
X-792823Y-1110851D01*
X-792829Y-1110909D01*
X-792840Y-1110974D01*
X-792858Y-1111044D01*
X-792899Y-1111203D01*
X-792928Y-1111285D01*
X-792958Y-1111361D01*
X-792999Y-1111443D01*
X-793046Y-1111525D01*
X-793098Y-1111602D01*
X-793163Y-1111672D01*
X-793169Y-1111678D01*
X-793181Y-1111690D01*
X-793198Y-1111707D01*
X-793227Y-1111731D01*
X-793263Y-1111754D01*
X-793304Y-1111789D01*
X-793351Y-1111819D01*
X-793409Y-1111854D01*
X-793468Y-1111889D01*
X-793539Y-1111918D01*
X-793685Y-1111977D01*
X-793773Y-1112001D01*
X-793861Y-1112018D01*
X-793893Y-1112022D01*
X-793923Y-1112028D01*
X-794017Y-1112040D01*
X-794018Y-1112034D01*
X-794049Y-1112036D01*
X-794055D01*
X-794066D01*
X-794090D01*
X-794113Y-1112030D01*
X-794149D01*
X-794190Y-1112024D01*
X-794255Y-1112016D01*
X-794316Y-1112028D01*
X-794410Y-1112040D01*
X-794412Y-1112024D01*
X-794457Y-1112030D01*
X-794551Y-1112036D01*
X-794557D01*
X-794568D01*
X-794592D01*
X-794615Y-1112030D01*
X-794651D01*
X-794692Y-1112024D01*
X-794786Y-1112012D01*
X-794891Y-1111989D01*
X-794997Y-1111954D01*
X-795108Y-1111901D01*
X-795214Y-1111836D01*
X-795220D01*
X-795226Y-1111825D01*
X-795255Y-1111801D01*
X-795302Y-1111754D01*
X-795360Y-1111690D01*
X-795398Y-1111725D01*
X-795410Y-1111731D01*
X-795434Y-1111748D01*
X-795481Y-1111772D01*
X-795539Y-1111795D01*
X-795615Y-1111825D01*
X-795704Y-1111848D01*
X-795803Y-1111866D01*
X-795909Y-1111871D01*
X-795915D01*
X-795927D01*
X-795950D01*
X-795951Y-1111871D01*
X-795971Y-1111987D01*
X-795977D01*
X-795994Y-1111981D01*
X-796018Y-1111975D01*
X-796053Y-1111970D01*
X-796094Y-1111958D01*
X-796141Y-1111940D01*
X-796253Y-1111905D01*
X-796336Y-1111867D01*
X-796343Y-1111868D01*
X-796364Y-1111987D01*
X-796370D01*
X-796387Y-1111981D01*
X-796411Y-1111975D01*
X-796446Y-1111970D01*
X-796487Y-1111958D01*
X-796534Y-1111940D01*
X-796645Y-1111905D01*
X-796775Y-1111846D01*
X-796904Y-1111776D01*
X-797027Y-1111688D01*
X-797138Y-1111576D01*
X-797144Y-1111571D01*
X-797149Y-1111561D01*
X-797156Y-1111555D01*
X-797162Y-1111549D01*
X-797168Y-1111537D01*
X-797185Y-1111519D01*
X-797203Y-1111496D01*
X-797226Y-1111467D01*
X-797250Y-1111426D01*
X-797279Y-1111379D01*
X-797309Y-1111332D01*
X-797338Y-1111273D01*
X-797367Y-1111208D01*
X-797391Y-1111138D01*
X-797414Y-1111062D01*
X-797449Y-1110898D01*
X-797455Y-1110804D01*
X-797461Y-1110710D01*
Y-1110657D01*
X-797455Y-1110622D01*
X-797449Y-1110575D01*
X-797443Y-1110522D01*
X-797438Y-1110463D01*
X-797420Y-1110405D01*
X-797385Y-1110264D01*
X-797366Y-1110214D01*
Y-1110152D01*
X-797343D01*
X-797332Y-1110123D01*
X-797297Y-1110053D01*
X-797256Y-1109982D01*
X-797203Y-1109918D01*
X-797150Y-1109853D01*
X-797144Y-1109847D01*
X-797138Y-1109841D01*
X-797121Y-1109824D01*
X-797097Y-1109800D01*
X-797062Y-1109777D01*
X-797027Y-1109747D01*
X-796939Y-1109689D01*
X-796827Y-1109630D01*
X-796698Y-1109577D01*
X-796552Y-1109536D01*
X-796475Y-1109530D01*
X-796393Y-1109525D01*
X-796387D01*
X-796381D01*
X-796346D01*
X-796293Y-1109530D01*
X-796229Y-1109542D01*
X-796147Y-1109560D01*
X-796141Y-1109562D01*
X-796050Y-1109536D01*
X-795973Y-1109530D01*
X-795891Y-1109525D01*
X-795885D01*
X-795880D01*
X-795844D01*
X-795792Y-1109530D01*
X-795727Y-1109542D01*
X-795645Y-1109560D01*
X-795563Y-1109589D01*
X-795481Y-1109624D01*
X-795398Y-1109677D01*
X-795387Y-1109683D01*
X-795363Y-1109706D01*
X-795350Y-1109719D01*
X-795278Y-1109642D01*
X-795184Y-1109560D01*
X-795179D01*
X-795173Y-1109554D01*
X-795138Y-1109530D01*
X-795079Y-1109495D01*
X-795003Y-1109460D01*
X-794909Y-1109425D01*
X-794797Y-1109390D01*
X-794674Y-1109366D01*
X-794539Y-1109360D01*
X-794533D01*
X-794516D01*
X-794486D01*
X-794451Y-1109366D01*
X-794410Y-1109372D01*
X-794357Y-1109378D01*
X-794298Y-1109390D01*
X-794297Y-1109390D01*
X-794295Y-1109390D01*
X-794172Y-1109366D01*
X-794037Y-1109360D01*
X-794031D01*
X-794014D01*
X-793984D01*
X-793949Y-1109366D01*
D02*
G37*
G36*
X-783760Y-1112117D02*
X-783683Y-1112129D01*
X-783589Y-1112146D01*
X-783484Y-1112176D01*
X-783378Y-1112211D01*
X-783273Y-1112258D01*
X-783267D01*
X-783261Y-1112264D01*
X-783226Y-1112281D01*
X-783173Y-1112317D01*
X-783114Y-1112358D01*
X-783044Y-1112416D01*
X-783019Y-1112439D01*
X-783017D01*
X-782970Y-1112445D01*
X-782917D01*
X-782794Y-1112450D01*
X-782665Y-1112468D01*
X-782524Y-1112486D01*
X-782395Y-1112515D01*
X-782330Y-1112533D01*
X-782278Y-1112550D01*
X-782272D01*
X-782266Y-1112556D01*
X-782231Y-1112574D01*
X-782178Y-1112597D01*
X-782113Y-1112638D01*
X-782043Y-1112691D01*
X-781967Y-1112761D01*
X-781896Y-1112843D01*
X-781826Y-1112937D01*
Y-1112943D01*
X-781820Y-1112949D01*
X-781797Y-1112984D01*
X-781773Y-1113043D01*
X-781743Y-1113108D01*
X-781736Y-1113095D01*
X-781660Y-1112989D01*
X-781654Y-1112983D01*
X-781642Y-1112971D01*
X-781619Y-1112948D01*
X-781589Y-1112913D01*
X-781554Y-1112878D01*
X-781507Y-1112842D01*
X-781449Y-1112795D01*
X-781390Y-1112754D01*
X-781320Y-1112713D01*
X-781243Y-1112666D01*
X-781155Y-1112631D01*
X-781067Y-1112590D01*
X-780967Y-1112561D01*
X-780862Y-1112537D01*
X-780750Y-1112525D01*
X-780633Y-1112520D01*
X-780586D01*
X-780551Y-1112525D01*
X-780510D01*
X-780463Y-1112531D01*
X-780351Y-1112555D01*
X-780228Y-1112584D01*
X-780099Y-1112631D01*
X-779970Y-1112701D01*
X-779905Y-1112743D01*
X-779847Y-1112790D01*
X-779841Y-1112795D01*
X-779835Y-1112801D01*
X-779817Y-1112819D01*
X-779800Y-1112837D01*
X-779771Y-1112866D01*
X-779747Y-1112901D01*
X-779682Y-1112983D01*
X-779618Y-1113089D01*
X-779559Y-1113218D01*
X-779522Y-1113321D01*
X-777797D01*
Y-1113730D01*
X-777376D01*
Y-1113372D01*
X-776255D01*
X-776248Y-1113368D01*
X-776218Y-1113356D01*
X-776177Y-1113345D01*
X-776089Y-1113321D01*
X-775978Y-1113298D01*
X-775849Y-1113274D01*
X-775714Y-1113257D01*
X-775561Y-1113251D01*
X-775485D01*
X-775444Y-1113257D01*
X-775403D01*
X-775291Y-1113268D01*
X-775168Y-1113286D01*
X-775039Y-1113315D01*
X-774898Y-1113351D01*
X-774839Y-1113372D01*
X-774179D01*
X-774074Y-1113378D01*
X-773956Y-1113384D01*
X-773839Y-1113396D01*
X-773721Y-1113413D01*
X-773622Y-1113431D01*
X-773616D01*
X-773604Y-1113437D01*
X-773587D01*
X-773563Y-1113448D01*
X-773499Y-1113466D01*
X-773416Y-1113495D01*
X-773323Y-1113536D01*
X-773223Y-1113589D01*
X-773123Y-1113648D01*
X-773065Y-1113695D01*
X-773002Y-1113692D01*
X-772949D01*
X-772908Y-1113698D01*
X-772855D01*
X-772802Y-1113704D01*
X-772732Y-1113716D01*
X-772661Y-1113727D01*
X-772509Y-1113757D01*
X-772347Y-1113800D01*
X-772184Y-1113372D01*
X-768699D01*
Y-1113758D01*
X-768679Y-1113789D01*
Y-1113730D01*
X-767617D01*
X-767590Y-1113701D01*
X-767520Y-1113636D01*
X-767432Y-1113566D01*
X-767326Y-1113501D01*
X-767209Y-1113443D01*
X-767203D01*
X-767191Y-1113437D01*
X-767173Y-1113431D01*
X-767150Y-1113419D01*
X-767121Y-1113407D01*
X-767080Y-1113396D01*
X-766992Y-1113372D01*
X-766880Y-1113349D01*
X-766751Y-1113325D01*
X-766616Y-1113308D01*
X-766464Y-1113302D01*
X-766387D01*
X-766346Y-1113308D01*
X-766305D01*
X-766194Y-1113319D01*
X-766070Y-1113337D01*
X-765941Y-1113366D01*
X-765801Y-1113401D01*
X-765671Y-1113448D01*
X-765666D01*
X-765654Y-1113454D01*
X-765636Y-1113466D01*
X-765613Y-1113478D01*
X-765554Y-1113507D01*
X-765478Y-1113560D01*
X-765390Y-1113618D01*
X-765302Y-1113695D01*
X-765265Y-1113734D01*
X-765163Y-1113716D01*
X-765028Y-1113698D01*
X-764875Y-1113692D01*
X-764848D01*
X-764797Y-1113648D01*
X-764638Y-1113548D01*
X-764632Y-1113542D01*
X-764615Y-1113536D01*
X-764591Y-1113525D01*
X-764562Y-1113507D01*
X-764515Y-1113489D01*
X-764468Y-1113472D01*
X-764409Y-1113448D01*
X-764345Y-1113425D01*
X-764274Y-1113401D01*
X-764198Y-1113378D01*
X-764034Y-1113343D01*
X-763846Y-1113313D01*
X-763652Y-1113302D01*
X-763594D01*
X-763553Y-1113308D01*
X-763500Y-1113313D01*
X-763435Y-1113319D01*
X-763371Y-1113325D01*
X-763295Y-1113343D01*
X-763136Y-1113378D01*
X-762960Y-1113431D01*
X-762872Y-1113466D01*
X-762790Y-1113507D01*
X-762708Y-1113560D01*
X-762626Y-1113613D01*
X-762620Y-1113618D01*
X-762608Y-1113624D01*
X-762585Y-1113642D01*
X-762555Y-1113671D01*
X-762526Y-1113701D01*
X-762485Y-1113742D01*
X-762444Y-1113789D01*
X-762397Y-1113836D01*
X-762386Y-1113849D01*
X-762371Y-1113842D01*
X-762254Y-1113795D01*
X-762131Y-1113748D01*
X-761996Y-1113713D01*
X-761855Y-1113683D01*
X-761708Y-1113666D01*
X-761550Y-1113660D01*
X-761497D01*
X-761456Y-1113666D01*
X-761403D01*
X-761350Y-1113672D01*
X-761305Y-1113679D01*
Y-1113372D01*
X-758366D01*
Y-1113736D01*
X-756240Y-1116922D01*
Y-1113730D01*
X-755925D01*
Y-1113372D01*
X-753179D01*
Y-1113853D01*
X-755385D01*
Y-1115109D01*
X-753478D01*
Y-1115590D01*
X-755385D01*
Y-1117432D01*
X-755723D01*
Y-1117791D01*
X-756281D01*
X-758405Y-1114605D01*
Y-1116951D01*
X-758272D01*
Y-1117432D01*
X-758405D01*
Y-1117791D01*
X-758921D01*
Y-1117432D01*
X-760308D01*
X-760400Y-1117509D01*
X-760564Y-1117615D01*
X-760570D01*
X-760582Y-1117626D01*
X-760611Y-1117638D01*
X-760646Y-1117656D01*
X-760687Y-1117673D01*
X-760734Y-1117691D01*
X-760793Y-1117714D01*
X-760857Y-1117738D01*
X-760928Y-1117761D01*
X-761004Y-1117785D01*
X-761174Y-1117820D01*
X-761356Y-1117849D01*
X-761550Y-1117861D01*
X-761608D01*
X-761644Y-1117855D01*
X-761696D01*
X-761755Y-1117843D01*
X-761820Y-1117838D01*
X-761896Y-1117826D01*
X-762054Y-1117791D01*
X-762225Y-1117744D01*
X-762401Y-1117673D01*
X-762488Y-1117632D01*
X-762577Y-1117585D01*
X-762582Y-1117579D01*
X-762594Y-1117574D01*
X-762618Y-1117556D01*
X-762653Y-1117533D01*
X-762688Y-1117509D01*
X-762729Y-1117474D01*
X-762829Y-1117386D01*
X-762889Y-1117329D01*
X-762960Y-1117362D01*
X-763042Y-1117391D01*
X-763130Y-1117421D01*
X-763224Y-1117450D01*
X-763324Y-1117473D01*
X-763429Y-1117485D01*
X-763541Y-1117497D01*
X-763600Y-1117500D01*
X-763626Y-1117524D01*
X-763719Y-1117600D01*
X-763825Y-1117670D01*
X-763948Y-1117735D01*
X-763954D01*
X-763966Y-1117741D01*
X-763984Y-1117747D01*
X-764007Y-1117758D01*
X-764042Y-1117770D01*
X-764083Y-1117788D01*
X-764177Y-1117811D01*
X-764289Y-1117840D01*
X-764424Y-1117870D01*
X-764570Y-1117887D01*
X-764729Y-1117893D01*
X-764822D01*
X-764870Y-1117887D01*
X-764922D01*
X-764981Y-1117882D01*
X-765051Y-1117876D01*
X-765198Y-1117852D01*
X-765351Y-1117829D01*
X-765503Y-1117788D01*
X-765650Y-1117735D01*
X-765656D01*
X-765667Y-1117729D01*
X-765685Y-1117717D01*
X-765708Y-1117706D01*
X-765779Y-1117670D01*
X-765861Y-1117618D01*
X-765955Y-1117547D01*
X-766034Y-1117482D01*
X-766159Y-1117497D01*
X-766317Y-1117503D01*
X-766411D01*
X-766458Y-1117497D01*
X-766510D01*
X-766569Y-1117491D01*
X-766640Y-1117485D01*
X-766786Y-1117462D01*
X-766801Y-1117459D01*
Y-1117791D01*
X-767175D01*
Y-1117823D01*
X-767733D01*
X-768992Y-1115935D01*
Y-1116951D01*
X-768605D01*
Y-1117432D01*
X-769857D01*
Y-1117823D01*
X-770373D01*
Y-1117432D01*
X-771618D01*
Y-1117791D01*
X-772158D01*
Y-1117713D01*
X-772186Y-1117723D01*
X-772245Y-1117747D01*
X-772309Y-1117770D01*
X-772380Y-1117794D01*
X-772456Y-1117817D01*
X-772626Y-1117852D01*
X-772808Y-1117882D01*
X-773002Y-1117893D01*
X-773060D01*
X-773096Y-1117887D01*
X-773148D01*
X-773207Y-1117876D01*
X-773272Y-1117870D01*
X-773348Y-1117858D01*
X-773506Y-1117823D01*
X-773623Y-1117791D01*
X-773648D01*
Y-1117784D01*
X-773677Y-1117776D01*
X-773850Y-1117707D01*
X-773920Y-1117726D01*
X-773932D01*
X-773949Y-1117732D01*
X-773967Y-1117738D01*
X-774025Y-1117744D01*
X-774108Y-1117756D01*
X-774202Y-1117767D01*
X-774269Y-1117774D01*
X-774258Y-1117791D01*
X-775730D01*
Y-1117823D01*
X-776270D01*
Y-1117317D01*
X-776336Y-1117293D01*
X-776341D01*
X-776353Y-1117288D01*
X-776371Y-1117276D01*
X-776394Y-1117264D01*
X-776465Y-1117229D01*
X-776547Y-1117176D01*
X-776641Y-1117106D01*
X-776740Y-1117023D01*
X-776834Y-1116924D01*
X-776836Y-1116921D01*
Y-1117432D01*
X-777286D01*
Y-1117791D01*
X-777966D01*
X-778048Y-1117811D01*
X-778159Y-1117840D01*
X-778294Y-1117870D01*
X-778441Y-1117887D01*
X-778599Y-1117893D01*
X-778693D01*
X-778740Y-1117887D01*
X-778793D01*
X-778851Y-1117882D01*
X-778922Y-1117876D01*
X-779069Y-1117852D01*
X-779221Y-1117829D01*
X-779363Y-1117791D01*
X-779688D01*
X-779745Y-1117808D01*
X-779844Y-1117832D01*
X-779950Y-1117843D01*
X-780061Y-1117855D01*
X-780179Y-1117861D01*
X-780243D01*
X-780290Y-1117855D01*
X-780343D01*
X-780408Y-1117849D01*
X-780478Y-1117838D01*
X-780560Y-1117826D01*
X-780730Y-1117796D01*
X-780752Y-1117791D01*
X-781093D01*
Y-1117823D01*
X-781633D01*
Y-1117791D01*
X-782349D01*
X-782588Y-1117432D01*
X-783001D01*
X-783065Y-1117491D01*
X-783159Y-1117568D01*
X-783265Y-1117638D01*
X-783388Y-1117703D01*
X-783394D01*
X-783406Y-1117709D01*
X-783408Y-1117709D01*
Y-1117791D01*
X-783662D01*
X-783728Y-1117808D01*
X-783792Y-1117822D01*
X-783792Y-1117823D01*
X-783796D01*
X-783864Y-1117838D01*
X-784010Y-1117855D01*
X-784169Y-1117861D01*
X-784262D01*
X-784309Y-1117855D01*
X-784362D01*
X-784421Y-1117849D01*
X-784491Y-1117843D01*
X-784638Y-1117820D01*
X-784790Y-1117796D01*
X-784812Y-1117791D01*
X-784997D01*
Y-1117736D01*
X-785090Y-1117703D01*
X-785096D01*
X-785107Y-1117697D01*
X-785125Y-1117685D01*
X-785148Y-1117673D01*
X-785219Y-1117638D01*
X-785301Y-1117585D01*
X-785395Y-1117515D01*
X-785411Y-1117502D01*
X-785451Y-1117497D01*
X-785503D01*
X-785536Y-1117494D01*
X-785414Y-1117791D01*
X-786024D01*
X-786163Y-1117432D01*
X-786250D01*
Y-1117823D01*
X-787261D01*
X-787425Y-1117849D01*
X-787618Y-1117861D01*
X-787677D01*
X-787712Y-1117855D01*
X-787765D01*
X-787824Y-1117843D01*
X-787888Y-1117838D01*
X-787964Y-1117826D01*
X-787978Y-1117823D01*
X-789284D01*
Y-1117791D01*
X-789826D01*
X-789940Y-1117496D01*
X-789977Y-1117491D01*
Y-1117562D01*
X-789812Y-1117823D01*
X-790481D01*
X-790501Y-1117791D01*
X-792839D01*
Y-1117823D01*
X-793379D01*
Y-1117791D01*
X-793873D01*
Y-1116499D01*
X-793905D01*
Y-1116483D01*
X-793952D01*
Y-1116309D01*
X-793983Y-1116319D01*
X-794106Y-1116354D01*
X-794241Y-1116389D01*
X-794394Y-1116419D01*
X-794558Y-1116448D01*
X-794734Y-1116466D01*
X-794928Y-1116477D01*
X-795133Y-1116483D01*
X-795139D01*
X-795162D01*
X-795203D01*
X-795250D01*
X-795315Y-1116477D01*
X-795385D01*
X-795462Y-1116472D01*
X-795550Y-1116466D01*
X-795732Y-1116448D01*
X-795925Y-1116419D01*
X-796119Y-1116384D01*
X-796207Y-1116360D01*
X-796295Y-1116337D01*
X-796301D01*
X-796312Y-1116331D01*
X-796336Y-1116319D01*
X-796365Y-1116307D01*
X-796406Y-1116295D01*
X-796447Y-1116272D01*
X-796547Y-1116225D01*
X-796653Y-1116166D01*
X-796764Y-1116090D01*
X-796876Y-1116002D01*
X-796970Y-1115897D01*
Y-1115891D01*
X-796981Y-1115885D01*
X-796993Y-1115867D01*
X-797005Y-1115844D01*
X-797028Y-1115814D01*
X-797046Y-1115779D01*
X-797093Y-1115691D01*
X-797134Y-1115586D01*
X-797175Y-1115462D01*
X-797198Y-1115316D01*
X-797210Y-1115157D01*
Y-1115104D01*
X-797204Y-1115040D01*
X-797193Y-1114964D01*
X-797175Y-1114876D01*
X-797151Y-1114782D01*
X-797143Y-1114753D01*
X-797168Y-1114723D01*
X-797203Y-1114676D01*
X-797232Y-1114629D01*
X-797273Y-1114570D01*
X-797309Y-1114512D01*
X-797338Y-1114441D01*
X-797402Y-1114283D01*
X-797426Y-1114201D01*
X-797443Y-1114107D01*
X-797455Y-1114013D01*
X-797461Y-1113913D01*
Y-1113872D01*
X-797455Y-1113843D01*
Y-1113814D01*
X-797449Y-1113773D01*
X-797432Y-1113673D01*
X-797408Y-1113561D01*
X-797370Y-1113447D01*
X-797349Y-1113360D01*
X-797302Y-1113231D01*
X-797232Y-1113102D01*
X-797191Y-1113037D01*
X-797144Y-1112979D01*
X-797138Y-1112973D01*
X-797132Y-1112967D01*
X-797115Y-1112949D01*
X-797097Y-1112932D01*
X-797068Y-1112902D01*
X-797033Y-1112879D01*
X-796951Y-1112814D01*
X-796845Y-1112750D01*
X-796716Y-1112691D01*
X-796569Y-1112638D01*
X-796560Y-1112636D01*
X-796521Y-1112623D01*
X-796357Y-1112587D01*
X-796355Y-1112607D01*
X-796346Y-1112605D01*
X-796270Y-1112587D01*
X-796182Y-1112570D01*
X-796088Y-1112558D01*
X-795988Y-1112546D01*
X-795877Y-1112534D01*
X-795760Y-1112523D01*
X-795630Y-1112517D01*
X-795496D01*
X-795490D01*
X-795460D01*
X-795419D01*
X-795366D01*
X-795302Y-1112523D01*
X-795258D01*
X-795128Y-1112517D01*
X-794994D01*
X-794988D01*
X-794958D01*
X-794917D01*
X-794865D01*
X-794800Y-1112523D01*
X-794724D01*
X-794669Y-1112526D01*
X-794603Y-1112523D01*
X-794597D01*
X-794585D01*
X-794567D01*
X-794538D01*
X-794503Y-1112529D01*
X-794467D01*
X-794453Y-1112532D01*
X-794429Y-1112529D01*
X-794323Y-1112523D01*
X-794317D01*
X-794305D01*
X-794288D01*
X-794258D01*
X-794223Y-1112529D01*
X-794188D01*
X-794094Y-1112546D01*
X-793983Y-1112564D01*
X-793922Y-1112579D01*
X-793917Y-1112580D01*
X-793800Y-1112609D01*
X-793671Y-1112650D01*
X-793548Y-1112709D01*
X-793542D01*
X-793536Y-1112715D01*
X-793518Y-1112726D01*
X-793495Y-1112738D01*
X-793436Y-1112773D01*
X-793360Y-1112826D01*
X-793328Y-1112852D01*
X-793326Y-1112849D01*
X-793273Y-1112785D01*
X-793214Y-1112726D01*
X-793209Y-1112720D01*
X-793197Y-1112714D01*
X-793179Y-1112697D01*
X-793150Y-1112679D01*
X-793115Y-1112656D01*
X-793074Y-1112632D01*
X-793027Y-1112603D01*
X-792968Y-1112574D01*
X-792904Y-1112544D01*
X-792833Y-1112515D01*
X-792757Y-1112492D01*
X-792675Y-1112468D01*
X-792587Y-1112450D01*
X-792493Y-1112433D01*
X-792393Y-1112427D01*
X-792288Y-1112421D01*
X-792229D01*
X-792188Y-1112427D01*
X-792141Y-1112433D01*
X-792082Y-1112439D01*
X-792018Y-1112450D01*
X-791953Y-1112462D01*
X-791839Y-1112493D01*
X-791833Y-1112491D01*
X-791751Y-1112467D01*
X-791663Y-1112450D01*
X-791569Y-1112432D01*
X-791469Y-1112427D01*
X-791364Y-1112421D01*
X-791305D01*
X-791264Y-1112427D01*
X-791217Y-1112432D01*
X-791195Y-1112435D01*
X-791186Y-1112433D01*
X-791086Y-1112427D01*
X-790980Y-1112421D01*
X-790960D01*
X-790883Y-1112352D01*
X-790877D01*
X-790871Y-1112340D01*
X-790853Y-1112328D01*
X-790830Y-1112317D01*
X-790800Y-1112293D01*
X-790765Y-1112275D01*
X-790677Y-1112229D01*
X-790572Y-1112188D01*
X-790448Y-1112146D01*
X-790302Y-1112123D01*
X-790143Y-1112111D01*
X-790090D01*
X-790026Y-1112117D01*
X-789950Y-1112129D01*
X-789862Y-1112146D01*
X-789768Y-1112170D01*
X-789668Y-1112199D01*
X-789574Y-1112246D01*
X-789568D01*
X-789562Y-1112252D01*
X-789533Y-1112270D01*
X-789486Y-1112299D01*
X-789427Y-1112340D01*
X-789363Y-1112399D01*
X-789320Y-1112438D01*
X-788940D01*
X-788730Y-1112736D01*
X-788704Y-1112714D01*
X-788657Y-1112679D01*
X-788610Y-1112650D01*
X-788551Y-1112609D01*
X-788493Y-1112574D01*
X-788422Y-1112544D01*
X-788264Y-1112480D01*
X-788182Y-1112456D01*
X-788088Y-1112439D01*
X-787994Y-1112427D01*
X-787894Y-1112421D01*
X-787853D01*
X-787824Y-1112427D01*
X-787794D01*
X-787753Y-1112433D01*
X-787749Y-1112434D01*
X-787691Y-1112387D01*
X-787632Y-1112346D01*
X-787562Y-1112305D01*
X-787485Y-1112258D01*
X-787397Y-1112223D01*
X-787309Y-1112182D01*
X-787210Y-1112152D01*
X-787104Y-1112129D01*
X-786992Y-1112117D01*
X-786875Y-1112111D01*
X-786828D01*
X-786793Y-1112117D01*
X-786752D01*
X-786705Y-1112123D01*
X-786593Y-1112146D01*
X-786470Y-1112176D01*
X-786341Y-1112223D01*
X-786212Y-1112293D01*
X-786148Y-1112334D01*
X-786089Y-1112381D01*
X-786083Y-1112387D01*
X-786077Y-1112393D01*
X-786060Y-1112411D01*
X-786042Y-1112428D01*
X-786013Y-1112457D01*
X-785989Y-1112493D01*
X-785925Y-1112575D01*
X-785860Y-1112680D01*
X-785800D01*
Y-1112799D01*
X-785665D01*
X-785653Y-1112785D01*
X-785594Y-1112726D01*
X-785588Y-1112720D01*
X-785576Y-1112714D01*
X-785559Y-1112697D01*
X-785530Y-1112679D01*
X-785494Y-1112656D01*
X-785453Y-1112632D01*
X-785406Y-1112603D01*
X-785348Y-1112574D01*
X-785283Y-1112544D01*
X-785213Y-1112515D01*
X-785136Y-1112492D01*
X-785054Y-1112468D01*
X-784966Y-1112450D01*
X-784872Y-1112433D01*
X-784773Y-1112427D01*
X-784724Y-1112424D01*
X-784687Y-1112387D01*
X-784681Y-1112381D01*
X-784669Y-1112375D01*
X-784651Y-1112364D01*
X-784628Y-1112346D01*
X-784599Y-1112322D01*
X-784557Y-1112299D01*
X-784517Y-1112275D01*
X-784464Y-1112246D01*
X-784346Y-1112199D01*
X-784211Y-1112152D01*
X-784053Y-1112123D01*
X-783971Y-1112111D01*
X-783824D01*
X-783760Y-1112117D01*
D02*
G37*
G36*
X-674081Y-1113308D02*
Y-1113313D01*
Y-1113331D01*
Y-1113349D01*
X-674087Y-1113413D01*
X-674092Y-1113489D01*
X-674104Y-1113589D01*
X-674110Y-1113712D01*
X-674128Y-1113847D01*
X-674145Y-1113994D01*
X-674139D01*
X-674134Y-1113988D01*
X-674116Y-1113982D01*
X-674092Y-1113971D01*
X-674034Y-1113941D01*
X-673958Y-1113906D01*
X-673864Y-1113865D01*
X-673752Y-1113818D01*
X-673629Y-1113771D01*
X-673494Y-1113724D01*
X-673365Y-1114117D01*
X-673371D01*
X-673382Y-1114123D01*
X-673400Y-1114129D01*
X-673423Y-1114135D01*
X-673459Y-1114147D01*
X-673494Y-1114158D01*
X-673582Y-1114182D01*
X-673688Y-1114205D01*
X-673805Y-1114235D01*
X-673928Y-1114258D01*
X-674057Y-1114276D01*
X-674051Y-1114281D01*
X-674028Y-1114305D01*
X-673987Y-1114340D01*
X-673934Y-1114393D01*
X-673864Y-1114469D01*
X-673787Y-1114557D01*
X-673688Y-1114669D01*
X-673582Y-1114798D01*
X-673911Y-1115027D01*
X-673916Y-1115015D01*
X-673940Y-1114986D01*
X-673975Y-1114939D01*
X-674022Y-1114874D01*
X-674075Y-1114786D01*
X-674139Y-1114686D01*
X-674216Y-1114569D01*
X-674292Y-1114440D01*
Y-1114446D01*
X-674298Y-1114458D01*
X-674309Y-1114475D01*
X-674327Y-1114504D01*
X-674362Y-1114575D01*
X-674409Y-1114657D01*
X-674468Y-1114751D01*
X-674527Y-1114851D01*
X-674591Y-1114945D01*
X-674650Y-1115027D01*
X-674973Y-1114798D01*
X-674967Y-1114792D01*
X-674961Y-1114780D01*
X-674943Y-1114763D01*
X-674920Y-1114733D01*
X-674867Y-1114663D01*
X-674797Y-1114581D01*
X-674720Y-1114493D01*
X-674644Y-1114411D01*
X-674574Y-1114334D01*
X-674544Y-1114299D01*
X-674515Y-1114276D01*
X-674521D01*
X-674532Y-1114270D01*
X-674550D01*
X-674574Y-1114264D01*
X-674609Y-1114258D01*
X-674644Y-1114246D01*
X-674732Y-1114229D01*
X-674838Y-1114205D01*
X-674949Y-1114182D01*
X-675190Y-1114117D01*
X-675066Y-1113724D01*
X-675061D01*
X-675049Y-1113730D01*
X-675025Y-1113742D01*
X-674996Y-1113748D01*
X-674961Y-1113765D01*
X-674914Y-1113783D01*
X-674820Y-1113818D01*
X-674714Y-1113859D01*
X-674609Y-1113906D01*
X-674509Y-1113953D01*
X-674427Y-1113994D01*
Y-1113988D01*
Y-1113971D01*
X-674433Y-1113947D01*
Y-1113912D01*
X-674439Y-1113871D01*
X-674444Y-1113824D01*
X-674450Y-1113718D01*
X-674462Y-1113607D01*
X-674474Y-1113489D01*
X-674480Y-1113390D01*
Y-1113343D01*
Y-1113302D01*
X-674081D01*
Y-1113308D01*
D02*
G37*
G36*
X-689101Y-1116212D02*
X-690644D01*
Y-1115713D01*
X-689101D01*
Y-1116212D01*
D02*
G37*
G36*
X-732896Y-1117432D02*
X-733453D01*
X-735577Y-1114246D01*
Y-1117432D01*
X-736093D01*
Y-1113372D01*
X-735542D01*
X-733412Y-1116564D01*
Y-1113372D01*
X-732896D01*
Y-1117432D01*
D02*
G37*
G36*
X-740118D02*
X-740635D01*
Y-1114035D01*
X-741820Y-1117432D01*
X-742301D01*
X-743474Y-1113976D01*
Y-1117432D01*
X-743991D01*
Y-1113372D01*
X-743187D01*
X-742225Y-1116253D01*
Y-1116259D01*
X-742219Y-1116271D01*
X-742213Y-1116288D01*
X-742201Y-1116318D01*
X-742178Y-1116388D01*
X-742148Y-1116476D01*
X-742119Y-1116576D01*
X-742084Y-1116675D01*
X-742055Y-1116769D01*
X-742031Y-1116852D01*
X-742025Y-1116840D01*
X-742019Y-1116810D01*
X-742002Y-1116758D01*
X-741978Y-1116687D01*
X-741949Y-1116593D01*
X-741908Y-1116482D01*
X-741867Y-1116353D01*
X-741814Y-1116200D01*
X-740840Y-1113372D01*
X-740118D01*
Y-1117432D01*
D02*
G37*
G36*
X-695784D02*
X-696312D01*
X-697163Y-1114340D01*
Y-1114334D01*
X-697169Y-1114323D01*
X-697175Y-1114305D01*
X-697181Y-1114276D01*
X-697198Y-1114211D01*
X-697216Y-1114135D01*
X-697239Y-1114053D01*
X-697263Y-1113976D01*
X-697280Y-1113912D01*
X-697286Y-1113883D01*
X-697292Y-1113865D01*
Y-1113871D01*
X-697298Y-1113877D01*
X-697304Y-1113912D01*
X-697316Y-1113965D01*
X-697333Y-1114029D01*
X-697351Y-1114100D01*
X-697374Y-1114182D01*
X-697392Y-1114264D01*
X-697415Y-1114340D01*
X-698272Y-1117432D01*
X-698835D01*
X-699897Y-1113372D01*
X-699340D01*
X-698736Y-1116036D01*
Y-1116042D01*
X-698730Y-1116053D01*
X-698724Y-1116077D01*
X-698718Y-1116106D01*
X-698712Y-1116147D01*
X-698700Y-1116188D01*
X-698689Y-1116241D01*
X-698677Y-1116300D01*
X-698648Y-1116423D01*
X-698618Y-1116564D01*
X-698589Y-1116717D01*
X-698559Y-1116869D01*
Y-1116863D01*
X-698554Y-1116840D01*
X-698542Y-1116810D01*
X-698536Y-1116764D01*
X-698524Y-1116717D01*
X-698507Y-1116658D01*
X-698477Y-1116529D01*
X-698442Y-1116400D01*
X-698430Y-1116335D01*
X-698413Y-1116276D01*
X-698401Y-1116224D01*
X-698389Y-1116177D01*
X-698378Y-1116142D01*
X-698372Y-1116118D01*
X-697603Y-1113372D01*
X-696952D01*
X-696377Y-1115432D01*
Y-1115437D01*
X-696365Y-1115467D01*
X-696353Y-1115508D01*
X-696342Y-1115561D01*
X-696324Y-1115631D01*
X-696301Y-1115707D01*
X-696277Y-1115795D01*
X-696254Y-1115895D01*
X-696224Y-1116007D01*
X-696201Y-1116118D01*
X-696148Y-1116359D01*
X-696095Y-1116611D01*
X-696054Y-1116869D01*
Y-1116863D01*
X-696048Y-1116852D01*
Y-1116828D01*
X-696037Y-1116799D01*
X-696031Y-1116764D01*
X-696019Y-1116722D01*
X-696013Y-1116670D01*
X-695995Y-1116611D01*
X-695966Y-1116482D01*
X-695931Y-1116329D01*
X-695896Y-1116165D01*
X-695849Y-1115983D01*
X-695215Y-1113372D01*
X-694669D01*
X-695784Y-1117432D01*
D02*
G37*
G36*
X-667269Y-1113900D02*
X-668894D01*
X-669111Y-1114997D01*
X-669105Y-1114992D01*
X-669093Y-1114986D01*
X-669076Y-1114974D01*
X-669046Y-1114956D01*
X-669011Y-1114939D01*
X-668970Y-1114915D01*
X-668876Y-1114868D01*
X-668759Y-1114821D01*
X-668630Y-1114780D01*
X-668489Y-1114751D01*
X-668419Y-1114739D01*
X-668289D01*
X-668254Y-1114745D01*
X-668207Y-1114751D01*
X-668155Y-1114757D01*
X-668096Y-1114769D01*
X-668031Y-1114786D01*
X-667891Y-1114827D01*
X-667814Y-1114856D01*
X-667738Y-1114898D01*
X-667662Y-1114939D01*
X-667586Y-1114986D01*
X-667515Y-1115044D01*
X-667445Y-1115109D01*
X-667439Y-1115115D01*
X-667427Y-1115126D01*
X-667409Y-1115144D01*
X-667386Y-1115173D01*
X-667357Y-1115214D01*
X-667327Y-1115256D01*
X-667292Y-1115308D01*
X-667257Y-1115367D01*
X-667227Y-1115432D01*
X-667192Y-1115502D01*
X-667163Y-1115584D01*
X-667134Y-1115666D01*
X-667110Y-1115754D01*
X-667093Y-1115854D01*
X-667081Y-1115954D01*
X-667075Y-1116059D01*
Y-1116065D01*
Y-1116083D01*
Y-1116112D01*
X-667081Y-1116153D01*
X-667087Y-1116200D01*
X-667093Y-1116253D01*
X-667104Y-1116318D01*
X-667116Y-1116382D01*
X-667151Y-1116535D01*
X-667210Y-1116693D01*
X-667245Y-1116775D01*
X-667292Y-1116852D01*
X-667339Y-1116934D01*
X-667398Y-1117010D01*
X-667404Y-1117016D01*
X-667415Y-1117033D01*
X-667439Y-1117057D01*
X-667468Y-1117086D01*
X-667509Y-1117121D01*
X-667556Y-1117168D01*
X-667615Y-1117209D01*
X-667679Y-1117256D01*
X-667750Y-1117303D01*
X-667832Y-1117344D01*
X-667920Y-1117385D01*
X-668014Y-1117427D01*
X-668113Y-1117456D01*
X-668225Y-1117479D01*
X-668342Y-1117497D01*
X-668466Y-1117503D01*
X-668518D01*
X-668559Y-1117497D01*
X-668606Y-1117491D01*
X-668659Y-1117485D01*
X-668724Y-1117479D01*
X-668788Y-1117462D01*
X-668935Y-1117427D01*
X-669082Y-1117374D01*
X-669158Y-1117338D01*
X-669234Y-1117297D01*
X-669305Y-1117250D01*
X-669375Y-1117198D01*
X-669381Y-1117192D01*
X-669393Y-1117186D01*
X-669404Y-1117162D01*
X-669428Y-1117139D01*
X-669457Y-1117110D01*
X-669486Y-1117074D01*
X-669522Y-1117028D01*
X-669551Y-1116975D01*
X-669586Y-1116922D01*
X-669621Y-1116857D01*
X-669686Y-1116717D01*
X-669739Y-1116552D01*
X-669756Y-1116464D01*
X-669768Y-1116370D01*
X-669246Y-1116329D01*
Y-1116335D01*
Y-1116347D01*
X-669240Y-1116365D01*
X-669234Y-1116394D01*
X-669217Y-1116458D01*
X-669193Y-1116546D01*
X-669158Y-1116634D01*
X-669111Y-1116734D01*
X-669052Y-1116822D01*
X-668982Y-1116904D01*
X-668970Y-1116910D01*
X-668947Y-1116934D01*
X-668900Y-1116963D01*
X-668835Y-1116998D01*
X-668765Y-1117033D01*
X-668677Y-1117063D01*
X-668577Y-1117086D01*
X-668466Y-1117092D01*
X-668430D01*
X-668407Y-1117086D01*
X-668336Y-1117080D01*
X-668254Y-1117057D01*
X-668155Y-1117028D01*
X-668055Y-1116981D01*
X-667949Y-1116910D01*
X-667902Y-1116869D01*
X-667855Y-1116822D01*
X-667850Y-1116816D01*
X-667844Y-1116810D01*
X-667832Y-1116793D01*
X-667814Y-1116775D01*
X-667773Y-1116711D01*
X-667726Y-1116628D01*
X-667685Y-1116529D01*
X-667644Y-1116405D01*
X-667615Y-1116259D01*
X-667603Y-1116183D01*
Y-1116100D01*
Y-1116095D01*
Y-1116083D01*
Y-1116059D01*
X-667609Y-1116030D01*
Y-1115995D01*
X-667615Y-1115954D01*
X-667632Y-1115860D01*
X-667662Y-1115748D01*
X-667703Y-1115637D01*
X-667762Y-1115531D01*
X-667844Y-1115432D01*
Y-1115426D01*
X-667855Y-1115420D01*
X-667885Y-1115390D01*
X-667937Y-1115349D01*
X-668008Y-1115303D01*
X-668102Y-1115261D01*
X-668207Y-1115220D01*
X-668331Y-1115191D01*
X-668401Y-1115179D01*
X-668512D01*
X-668559Y-1115185D01*
X-668618Y-1115191D01*
X-668689Y-1115209D01*
X-668759Y-1115226D01*
X-668835Y-1115256D01*
X-668912Y-1115291D01*
X-668917Y-1115297D01*
X-668941Y-1115308D01*
X-668976Y-1115338D01*
X-669023Y-1115367D01*
X-669070Y-1115408D01*
X-669117Y-1115461D01*
X-669170Y-1115514D01*
X-669211Y-1115578D01*
X-669680Y-1115514D01*
X-669287Y-1113425D01*
X-667269D01*
Y-1113900D01*
D02*
G37*
G36*
X-665761Y-1117432D02*
X-666330D01*
Y-1116863D01*
X-665761D01*
Y-1117432D01*
D02*
G37*
G36*
X-671047D02*
X-671546D01*
Y-1114258D01*
X-671552Y-1114264D01*
X-671581Y-1114287D01*
X-671616Y-1114323D01*
X-671675Y-1114364D01*
X-671740Y-1114417D01*
X-671822Y-1114475D01*
X-671916Y-1114540D01*
X-672021Y-1114604D01*
X-672027D01*
X-672033Y-1114610D01*
X-672068Y-1114634D01*
X-672127Y-1114663D01*
X-672197Y-1114698D01*
X-672279Y-1114739D01*
X-672367Y-1114780D01*
X-672455Y-1114821D01*
X-672543Y-1114856D01*
Y-1114375D01*
X-672538D01*
X-672526Y-1114364D01*
X-672502Y-1114358D01*
X-672473Y-1114340D01*
X-672438Y-1114323D01*
X-672397Y-1114299D01*
X-672297Y-1114240D01*
X-672180Y-1114176D01*
X-672062Y-1114094D01*
X-671939Y-1114000D01*
X-671816Y-1113900D01*
X-671810Y-1113894D01*
X-671804Y-1113888D01*
X-671786Y-1113871D01*
X-671763Y-1113853D01*
X-671710Y-1113794D01*
X-671640Y-1113724D01*
X-671569Y-1113642D01*
X-671493Y-1113548D01*
X-671429Y-1113454D01*
X-671370Y-1113354D01*
X-671047D01*
Y-1117432D01*
D02*
G37*
G36*
X-675624Y-1113853D02*
X-677830D01*
Y-1115109D01*
X-675923D01*
Y-1115590D01*
X-677830D01*
Y-1117432D01*
X-678370D01*
Y-1113372D01*
X-675624D01*
Y-1113853D01*
D02*
G37*
G36*
X-680564Y-1113378D02*
X-680517D01*
X-680412Y-1113390D01*
X-680294Y-1113401D01*
X-680171Y-1113425D01*
X-680048Y-1113454D01*
X-679936Y-1113495D01*
X-679930D01*
X-679925Y-1113501D01*
X-679889Y-1113519D01*
X-679837Y-1113548D01*
X-679778Y-1113589D01*
X-679707Y-1113642D01*
X-679631Y-1113707D01*
X-679561Y-1113789D01*
X-679496Y-1113877D01*
X-679490Y-1113888D01*
X-679473Y-1113924D01*
X-679444Y-1113971D01*
X-679414Y-1114041D01*
X-679385Y-1114123D01*
X-679355Y-1114211D01*
X-679338Y-1114311D01*
X-679332Y-1114411D01*
Y-1114422D01*
Y-1114452D01*
X-679338Y-1114504D01*
X-679350Y-1114569D01*
X-679367Y-1114645D01*
X-679397Y-1114727D01*
X-679432Y-1114810D01*
X-679479Y-1114898D01*
X-679484Y-1114909D01*
X-679502Y-1114933D01*
X-679537Y-1114980D01*
X-679584Y-1115027D01*
X-679643Y-1115085D01*
X-679713Y-1115150D01*
X-679801Y-1115209D01*
X-679901Y-1115267D01*
X-679895D01*
X-679883Y-1115273D01*
X-679866Y-1115279D01*
X-679843Y-1115291D01*
X-679772Y-1115314D01*
X-679690Y-1115355D01*
X-679602Y-1115408D01*
X-679502Y-1115473D01*
X-679414Y-1115549D01*
X-679332Y-1115643D01*
X-679326Y-1115655D01*
X-679303Y-1115690D01*
X-679268Y-1115742D01*
X-679232Y-1115813D01*
X-679197Y-1115907D01*
X-679162Y-1116007D01*
X-679138Y-1116124D01*
X-679133Y-1116253D01*
Y-1116259D01*
Y-1116265D01*
Y-1116300D01*
X-679138Y-1116359D01*
X-679150Y-1116429D01*
X-679162Y-1116511D01*
X-679185Y-1116599D01*
X-679215Y-1116693D01*
X-679256Y-1116787D01*
X-679262Y-1116799D01*
X-679279Y-1116828D01*
X-679303Y-1116869D01*
X-679338Y-1116928D01*
X-679385Y-1116986D01*
X-679432Y-1117051D01*
X-679490Y-1117115D01*
X-679555Y-1117168D01*
X-679561Y-1117174D01*
X-679584Y-1117192D01*
X-679625Y-1117215D01*
X-679678Y-1117239D01*
X-679743Y-1117274D01*
X-679819Y-1117309D01*
X-679901Y-1117338D01*
X-680001Y-1117368D01*
X-680013D01*
X-680048Y-1117380D01*
X-680107Y-1117385D01*
X-680183Y-1117397D01*
X-680277Y-1117409D01*
X-680388Y-1117421D01*
X-680511Y-1117427D01*
X-680652Y-1117432D01*
X-682201D01*
Y-1113372D01*
X-680605D01*
X-680564Y-1113378D01*
D02*
G37*
G36*
X-687253Y-1113360D02*
X-687206Y-1113366D01*
X-687147Y-1113372D01*
X-687083Y-1113384D01*
X-687018Y-1113396D01*
X-686866Y-1113437D01*
X-686713Y-1113495D01*
X-686637Y-1113531D01*
X-686561Y-1113572D01*
X-686490Y-1113624D01*
X-686426Y-1113683D01*
X-686420Y-1113689D01*
X-686408Y-1113695D01*
X-686396Y-1113718D01*
X-686373Y-1113742D01*
X-686344Y-1113771D01*
X-686314Y-1113812D01*
X-686285Y-1113853D01*
X-686250Y-1113906D01*
X-686191Y-1114017D01*
X-686132Y-1114158D01*
X-686109Y-1114229D01*
X-686097Y-1114311D01*
X-686085Y-1114393D01*
X-686079Y-1114481D01*
Y-1114493D01*
Y-1114522D01*
X-686085Y-1114569D01*
X-686091Y-1114634D01*
X-686103Y-1114704D01*
X-686126Y-1114786D01*
X-686150Y-1114874D01*
X-686185Y-1114962D01*
X-686191Y-1114974D01*
X-686203Y-1115003D01*
X-686226Y-1115050D01*
X-686261Y-1115115D01*
X-686308Y-1115185D01*
X-686367Y-1115273D01*
X-686437Y-1115361D01*
X-686520Y-1115461D01*
X-686531Y-1115473D01*
X-686561Y-1115508D01*
X-686590Y-1115537D01*
X-686619Y-1115566D01*
X-686655Y-1115602D01*
X-686701Y-1115649D01*
X-686748Y-1115696D01*
X-686807Y-1115748D01*
X-686866Y-1115807D01*
X-686936Y-1115872D01*
X-687012Y-1115936D01*
X-687095Y-1116012D01*
X-687188Y-1116089D01*
X-687282Y-1116171D01*
X-687288Y-1116177D01*
X-687300Y-1116188D01*
X-687323Y-1116206D01*
X-687353Y-1116229D01*
X-687388Y-1116265D01*
X-687429Y-1116300D01*
X-687523Y-1116376D01*
X-687623Y-1116464D01*
X-687717Y-1116552D01*
X-687799Y-1116628D01*
X-687834Y-1116658D01*
X-687863Y-1116687D01*
X-687869Y-1116693D01*
X-687887Y-1116711D01*
X-687910Y-1116734D01*
X-687940Y-1116769D01*
X-687969Y-1116810D01*
X-688004Y-1116852D01*
X-688074Y-1116951D01*
X-686074D01*
Y-1117432D01*
X-688767D01*
Y-1117427D01*
Y-1117403D01*
Y-1117368D01*
X-688761Y-1117321D01*
X-688755Y-1117268D01*
X-688743Y-1117209D01*
X-688732Y-1117151D01*
X-688708Y-1117086D01*
Y-1117080D01*
X-688702Y-1117074D01*
X-688690Y-1117039D01*
X-688667Y-1116986D01*
X-688632Y-1116916D01*
X-688585Y-1116834D01*
X-688526Y-1116740D01*
X-688462Y-1116646D01*
X-688380Y-1116546D01*
Y-1116541D01*
X-688368Y-1116535D01*
X-688338Y-1116499D01*
X-688286Y-1116447D01*
X-688209Y-1116370D01*
X-688121Y-1116282D01*
X-688010Y-1116177D01*
X-687875Y-1116059D01*
X-687728Y-1115936D01*
X-687722Y-1115930D01*
X-687699Y-1115913D01*
X-687664Y-1115883D01*
X-687623Y-1115848D01*
X-687570Y-1115801D01*
X-687505Y-1115748D01*
X-687441Y-1115690D01*
X-687365Y-1115625D01*
X-687218Y-1115484D01*
X-687071Y-1115343D01*
X-687001Y-1115273D01*
X-686936Y-1115203D01*
X-686878Y-1115138D01*
X-686831Y-1115074D01*
Y-1115068D01*
X-686819Y-1115062D01*
X-686807Y-1115044D01*
X-686795Y-1115021D01*
X-686754Y-1114956D01*
X-686707Y-1114880D01*
X-686666Y-1114786D01*
X-686625Y-1114686D01*
X-686602Y-1114575D01*
X-686590Y-1114469D01*
Y-1114463D01*
Y-1114458D01*
X-686596Y-1114422D01*
X-686602Y-1114364D01*
X-686619Y-1114299D01*
X-686643Y-1114217D01*
X-686684Y-1114135D01*
X-686737Y-1114053D01*
X-686807Y-1113971D01*
X-686819Y-1113959D01*
X-686848Y-1113935D01*
X-686889Y-1113906D01*
X-686954Y-1113865D01*
X-687036Y-1113830D01*
X-687130Y-1113794D01*
X-687241Y-1113771D01*
X-687365Y-1113765D01*
X-687400D01*
X-687423Y-1113771D01*
X-687494Y-1113777D01*
X-687576Y-1113794D01*
X-687664Y-1113818D01*
X-687763Y-1113859D01*
X-687857Y-1113912D01*
X-687945Y-1113982D01*
X-687957Y-1113994D01*
X-687980Y-1114023D01*
X-688016Y-1114070D01*
X-688051Y-1114141D01*
X-688092Y-1114223D01*
X-688127Y-1114329D01*
X-688151Y-1114446D01*
X-688162Y-1114581D01*
X-688673Y-1114528D01*
Y-1114522D01*
X-688667Y-1114504D01*
Y-1114475D01*
X-688661Y-1114434D01*
X-688649Y-1114387D01*
X-688638Y-1114334D01*
X-688620Y-1114270D01*
X-688603Y-1114205D01*
X-688556Y-1114064D01*
X-688485Y-1113924D01*
X-688444Y-1113853D01*
X-688391Y-1113783D01*
X-688338Y-1113718D01*
X-688280Y-1113660D01*
X-688274Y-1113654D01*
X-688262Y-1113648D01*
X-688245Y-1113630D01*
X-688215Y-1113613D01*
X-688180Y-1113589D01*
X-688139Y-1113566D01*
X-688092Y-1113536D01*
X-688033Y-1113507D01*
X-687969Y-1113478D01*
X-687898Y-1113448D01*
X-687822Y-1113425D01*
X-687740Y-1113401D01*
X-687652Y-1113384D01*
X-687558Y-1113366D01*
X-687458Y-1113360D01*
X-687353Y-1113354D01*
X-687294D01*
X-687253Y-1113360D01*
D02*
G37*
G36*
X-692410Y-1113378D02*
X-692311Y-1113384D01*
X-692205Y-1113390D01*
X-692105Y-1113401D01*
X-692017Y-1113413D01*
X-692006D01*
X-691964Y-1113425D01*
X-691912Y-1113437D01*
X-691841Y-1113454D01*
X-691765Y-1113484D01*
X-691683Y-1113519D01*
X-691595Y-1113560D01*
X-691519Y-1113607D01*
X-691507Y-1113613D01*
X-691483Y-1113630D01*
X-691448Y-1113665D01*
X-691401Y-1113707D01*
X-691348Y-1113759D01*
X-691296Y-1113830D01*
X-691237Y-1113906D01*
X-691190Y-1113994D01*
X-691184Y-1114006D01*
X-691172Y-1114035D01*
X-691149Y-1114088D01*
X-691125Y-1114158D01*
X-691108Y-1114240D01*
X-691084Y-1114334D01*
X-691073Y-1114440D01*
X-691067Y-1114551D01*
Y-1114557D01*
Y-1114575D01*
Y-1114598D01*
X-691073Y-1114640D01*
X-691078Y-1114680D01*
X-691084Y-1114733D01*
X-691096Y-1114792D01*
X-691108Y-1114856D01*
X-691149Y-1114992D01*
X-691172Y-1115062D01*
X-691208Y-1115138D01*
X-691249Y-1115214D01*
X-691290Y-1115285D01*
X-691343Y-1115355D01*
X-691401Y-1115426D01*
X-691407Y-1115432D01*
X-691419Y-1115443D01*
X-691436Y-1115461D01*
X-691466Y-1115479D01*
X-691501Y-1115508D01*
X-691548Y-1115537D01*
X-691607Y-1115572D01*
X-691671Y-1115602D01*
X-691747Y-1115637D01*
X-691835Y-1115672D01*
X-691929Y-1115702D01*
X-692041Y-1115725D01*
X-692158Y-1115748D01*
X-692287Y-1115766D01*
X-692434Y-1115778D01*
X-692586Y-1115784D01*
X-693625D01*
Y-1117432D01*
X-694165D01*
Y-1113372D01*
X-692498D01*
X-692410Y-1113378D01*
D02*
G37*
G36*
X-701798Y-1113853D02*
X-704004D01*
Y-1115109D01*
X-702097D01*
Y-1115590D01*
X-704004D01*
Y-1117432D01*
X-704544D01*
Y-1113372D01*
X-701798D01*
Y-1113853D01*
D02*
G37*
G36*
X-712718Y-1113378D02*
X-712665D01*
X-712542Y-1113384D01*
X-712412Y-1113401D01*
X-712272Y-1113419D01*
X-712142Y-1113448D01*
X-712078Y-1113466D01*
X-712025Y-1113484D01*
X-712019D01*
X-712013Y-1113489D01*
X-711978Y-1113507D01*
X-711925Y-1113531D01*
X-711861Y-1113572D01*
X-711790Y-1113624D01*
X-711714Y-1113695D01*
X-711644Y-1113777D01*
X-711573Y-1113871D01*
Y-1113877D01*
X-711568Y-1113883D01*
X-711544Y-1113918D01*
X-711520Y-1113976D01*
X-711485Y-1114053D01*
X-711456Y-1114141D01*
X-711427Y-1114246D01*
X-711409Y-1114358D01*
X-711403Y-1114481D01*
Y-1114487D01*
Y-1114499D01*
Y-1114522D01*
X-711409Y-1114551D01*
Y-1114593D01*
X-711415Y-1114634D01*
X-711438Y-1114733D01*
X-711474Y-1114851D01*
X-711520Y-1114974D01*
X-711591Y-1115097D01*
X-711638Y-1115156D01*
X-711685Y-1115214D01*
X-711691Y-1115220D01*
X-711697Y-1115226D01*
X-711714Y-1115244D01*
X-711738Y-1115261D01*
X-711767Y-1115285D01*
X-711802Y-1115308D01*
X-711849Y-1115338D01*
X-711896Y-1115373D01*
X-711955Y-1115402D01*
X-712019Y-1115432D01*
X-712090Y-1115467D01*
X-712166Y-1115496D01*
X-712254Y-1115520D01*
X-712342Y-1115549D01*
X-712442Y-1115566D01*
X-712547Y-1115584D01*
X-712536Y-1115590D01*
X-712512Y-1115602D01*
X-712477Y-1115625D01*
X-712430Y-1115649D01*
X-712324Y-1115713D01*
X-712272Y-1115754D01*
X-712225Y-1115789D01*
X-712213Y-1115801D01*
X-712184Y-1115831D01*
X-712137Y-1115878D01*
X-712078Y-1115936D01*
X-712013Y-1116018D01*
X-711937Y-1116106D01*
X-711861Y-1116212D01*
X-711779Y-1116329D01*
X-711080Y-1117432D01*
X-711749D01*
X-712283Y-1116587D01*
Y-1116582D01*
X-712295Y-1116570D01*
X-712307Y-1116552D01*
X-712324Y-1116529D01*
X-712365Y-1116464D01*
X-712418Y-1116382D01*
X-712483Y-1116294D01*
X-712547Y-1116200D01*
X-712612Y-1116112D01*
X-712671Y-1116030D01*
X-712676Y-1116024D01*
X-712694Y-1116001D01*
X-712723Y-1115965D01*
X-712764Y-1115924D01*
X-712852Y-1115836D01*
X-712899Y-1115795D01*
X-712946Y-1115760D01*
X-712952Y-1115754D01*
X-712964Y-1115748D01*
X-712987Y-1115737D01*
X-713023Y-1115719D01*
X-713058Y-1115702D01*
X-713099Y-1115684D01*
X-713193Y-1115655D01*
X-713199D01*
X-713210Y-1115649D01*
X-713234D01*
X-713263Y-1115643D01*
X-713304Y-1115637D01*
X-713351D01*
X-713416Y-1115631D01*
X-714108D01*
Y-1117432D01*
X-714648D01*
Y-1113372D01*
X-712764D01*
X-712718Y-1113378D01*
D02*
G37*
G36*
X-720016Y-1117432D02*
X-720556D01*
Y-1113372D01*
X-720016D01*
Y-1117432D01*
D02*
G37*
G36*
X-722804Y-1113378D02*
X-722751D01*
X-722627Y-1113384D01*
X-722498Y-1113401D01*
X-722358Y-1113419D01*
X-722229Y-1113448D01*
X-722164Y-1113466D01*
X-722111Y-1113484D01*
X-722105D01*
X-722100Y-1113489D01*
X-722064Y-1113507D01*
X-722011Y-1113531D01*
X-721947Y-1113572D01*
X-721877Y-1113624D01*
X-721800Y-1113695D01*
X-721730Y-1113777D01*
X-721659Y-1113871D01*
Y-1113877D01*
X-721654Y-1113883D01*
X-721630Y-1113918D01*
X-721607Y-1113976D01*
X-721571Y-1114053D01*
X-721542Y-1114141D01*
X-721513Y-1114246D01*
X-721495Y-1114358D01*
X-721489Y-1114481D01*
Y-1114487D01*
Y-1114499D01*
Y-1114522D01*
X-721495Y-1114551D01*
Y-1114593D01*
X-721501Y-1114634D01*
X-721525Y-1114733D01*
X-721560Y-1114851D01*
X-721607Y-1114974D01*
X-721677Y-1115097D01*
X-721724Y-1115156D01*
X-721771Y-1115214D01*
X-721777Y-1115220D01*
X-721783Y-1115226D01*
X-721800Y-1115244D01*
X-721824Y-1115261D01*
X-721853Y-1115285D01*
X-721888Y-1115308D01*
X-721935Y-1115338D01*
X-721982Y-1115373D01*
X-722041Y-1115402D01*
X-722105Y-1115432D01*
X-722176Y-1115467D01*
X-722252Y-1115496D01*
X-722340Y-1115520D01*
X-722428Y-1115549D01*
X-722528Y-1115566D01*
X-722633Y-1115584D01*
X-722622Y-1115590D01*
X-722598Y-1115602D01*
X-722563Y-1115625D01*
X-722516Y-1115649D01*
X-722410Y-1115713D01*
X-722358Y-1115754D01*
X-722311Y-1115789D01*
X-722299Y-1115801D01*
X-722270Y-1115831D01*
X-722223Y-1115878D01*
X-722164Y-1115936D01*
X-722100Y-1116018D01*
X-722023Y-1116106D01*
X-721947Y-1116212D01*
X-721865Y-1116329D01*
X-721167Y-1117432D01*
X-721835D01*
X-722369Y-1116587D01*
Y-1116582D01*
X-722381Y-1116570D01*
X-722393Y-1116552D01*
X-722410Y-1116529D01*
X-722451Y-1116464D01*
X-722504Y-1116382D01*
X-722569Y-1116294D01*
X-722633Y-1116200D01*
X-722698Y-1116112D01*
X-722757Y-1116030D01*
X-722763Y-1116024D01*
X-722780Y-1116001D01*
X-722809Y-1115965D01*
X-722850Y-1115924D01*
X-722939Y-1115836D01*
X-722985Y-1115795D01*
X-723032Y-1115760D01*
X-723038Y-1115754D01*
X-723050Y-1115748D01*
X-723074Y-1115737D01*
X-723109Y-1115719D01*
X-723144Y-1115702D01*
X-723185Y-1115684D01*
X-723279Y-1115655D01*
X-723285D01*
X-723296Y-1115649D01*
X-723320D01*
X-723349Y-1115643D01*
X-723390Y-1115637D01*
X-723437D01*
X-723502Y-1115631D01*
X-724194D01*
Y-1117432D01*
X-724734D01*
Y-1113372D01*
X-722850D01*
X-722804Y-1113378D01*
D02*
G37*
G36*
X-725579Y-1113853D02*
X-727979D01*
Y-1115091D01*
X-725731D01*
Y-1115572D01*
X-727979D01*
Y-1116951D01*
X-725485D01*
Y-1117432D01*
X-728518D01*
Y-1113372D01*
X-725579D01*
Y-1113853D01*
D02*
G37*
G36*
X-729082D02*
X-730419D01*
Y-1117432D01*
X-730959D01*
Y-1113853D01*
X-732297D01*
Y-1113372D01*
X-729082D01*
Y-1113853D01*
D02*
G37*
G36*
X-737038Y-1117432D02*
X-737578D01*
Y-1113372D01*
X-737038D01*
Y-1117432D01*
D02*
G37*
G36*
X-750545Y-1113378D02*
X-750492D01*
X-750369Y-1113384D01*
X-750239Y-1113401D01*
X-750099Y-1113419D01*
X-749970Y-1113448D01*
X-749905Y-1113466D01*
X-749852Y-1113484D01*
X-749846D01*
X-749840Y-1113489D01*
X-749805Y-1113507D01*
X-749753Y-1113531D01*
X-749688Y-1113572D01*
X-749618Y-1113624D01*
X-749541Y-1113695D01*
X-749471Y-1113777D01*
X-749400Y-1113871D01*
Y-1113877D01*
X-749395Y-1113883D01*
X-749371Y-1113918D01*
X-749348Y-1113976D01*
X-749313Y-1114053D01*
X-749283Y-1114141D01*
X-749254Y-1114246D01*
X-749236Y-1114358D01*
X-749230Y-1114481D01*
Y-1114487D01*
Y-1114499D01*
Y-1114522D01*
X-749236Y-1114551D01*
Y-1114593D01*
X-749242Y-1114634D01*
X-749266Y-1114733D01*
X-749301Y-1114851D01*
X-749348Y-1114974D01*
X-749418Y-1115097D01*
X-749465Y-1115156D01*
X-749512Y-1115214D01*
X-749518Y-1115220D01*
X-749524Y-1115226D01*
X-749541Y-1115244D01*
X-749565Y-1115261D01*
X-749594Y-1115285D01*
X-749629Y-1115308D01*
X-749676Y-1115338D01*
X-749723Y-1115373D01*
X-749782Y-1115402D01*
X-749846Y-1115432D01*
X-749917Y-1115467D01*
X-749993Y-1115496D01*
X-750081Y-1115520D01*
X-750169Y-1115549D01*
X-750269Y-1115566D01*
X-750375Y-1115584D01*
X-750363Y-1115590D01*
X-750339Y-1115602D01*
X-750304Y-1115625D01*
X-750257Y-1115649D01*
X-750152Y-1115713D01*
X-750099Y-1115754D01*
X-750052Y-1115789D01*
X-750040Y-1115801D01*
X-750011Y-1115831D01*
X-749964Y-1115878D01*
X-749905Y-1115936D01*
X-749840Y-1116018D01*
X-749764Y-1116106D01*
X-749688Y-1116212D01*
X-749606Y-1116329D01*
X-748908Y-1117432D01*
X-749576D01*
X-750110Y-1116587D01*
Y-1116582D01*
X-750122Y-1116570D01*
X-750134Y-1116552D01*
X-750152Y-1116529D01*
X-750193Y-1116464D01*
X-750245Y-1116382D01*
X-750310Y-1116294D01*
X-750375Y-1116200D01*
X-750439Y-1116112D01*
X-750498Y-1116030D01*
X-750504Y-1116024D01*
X-750521Y-1116001D01*
X-750551Y-1115965D01*
X-750592Y-1115924D01*
X-750680Y-1115836D01*
X-750726Y-1115795D01*
X-750773Y-1115760D01*
X-750779Y-1115754D01*
X-750791Y-1115748D01*
X-750815Y-1115737D01*
X-750850Y-1115719D01*
X-750885Y-1115702D01*
X-750926Y-1115684D01*
X-751020Y-1115655D01*
X-751026D01*
X-751038Y-1115649D01*
X-751061D01*
X-751090Y-1115643D01*
X-751131Y-1115637D01*
X-751178D01*
X-751243Y-1115631D01*
X-751935D01*
Y-1117432D01*
X-752475D01*
Y-1113372D01*
X-750592D01*
X-750545Y-1113378D01*
D02*
G37*
G36*
X-684096Y-1113360D02*
X-684020Y-1113372D01*
X-683932Y-1113390D01*
X-683838Y-1113413D01*
X-683738Y-1113443D01*
X-683644Y-1113489D01*
X-683639D01*
X-683633Y-1113495D01*
X-683604Y-1113513D01*
X-683557Y-1113542D01*
X-683498Y-1113583D01*
X-683433Y-1113642D01*
X-683363Y-1113707D01*
X-683298Y-1113783D01*
X-683234Y-1113871D01*
X-683228Y-1113883D01*
X-683204Y-1113912D01*
X-683181Y-1113965D01*
X-683140Y-1114041D01*
X-683105Y-1114129D01*
X-683058Y-1114229D01*
X-683017Y-1114346D01*
X-682981Y-1114475D01*
Y-1114481D01*
X-682976Y-1114493D01*
X-682970Y-1114510D01*
X-682964Y-1114540D01*
X-682958Y-1114575D01*
X-682952Y-1114616D01*
X-682940Y-1114669D01*
X-682935Y-1114727D01*
X-682923Y-1114792D01*
X-682917Y-1114862D01*
X-682911Y-1114945D01*
X-682899Y-1115027D01*
X-682894Y-1115121D01*
Y-1115214D01*
X-682888Y-1115320D01*
Y-1115432D01*
Y-1115437D01*
Y-1115461D01*
Y-1115502D01*
Y-1115549D01*
X-682894Y-1115613D01*
Y-1115684D01*
X-682899Y-1115760D01*
X-682905Y-1115842D01*
X-682923Y-1116030D01*
X-682952Y-1116224D01*
X-682987Y-1116411D01*
X-683011Y-1116499D01*
X-683040Y-1116587D01*
Y-1116593D01*
X-683046Y-1116605D01*
X-683058Y-1116628D01*
X-683070Y-1116658D01*
X-683081Y-1116699D01*
X-683105Y-1116740D01*
X-683152Y-1116840D01*
X-683210Y-1116945D01*
X-683287Y-1117063D01*
X-683375Y-1117168D01*
X-683480Y-1117268D01*
X-683486D01*
X-683492Y-1117280D01*
X-683510Y-1117291D01*
X-683533Y-1117303D01*
X-683562Y-1117321D01*
X-683592Y-1117344D01*
X-683680Y-1117385D01*
X-683785Y-1117427D01*
X-683909Y-1117467D01*
X-684055Y-1117491D01*
X-684214Y-1117503D01*
X-684272D01*
X-684313Y-1117497D01*
X-684360Y-1117491D01*
X-684419Y-1117479D01*
X-684484Y-1117467D01*
X-684554Y-1117450D01*
X-684624Y-1117427D01*
X-684701Y-1117403D01*
X-684777Y-1117368D01*
X-684853Y-1117327D01*
X-684930Y-1117280D01*
X-685006Y-1117221D01*
X-685076Y-1117157D01*
X-685141Y-1117086D01*
X-685147Y-1117080D01*
X-685158Y-1117063D01*
X-685176Y-1117033D01*
X-685205Y-1116986D01*
X-685235Y-1116934D01*
X-685264Y-1116863D01*
X-685305Y-1116781D01*
X-685340Y-1116687D01*
X-685375Y-1116582D01*
X-685411Y-1116458D01*
X-685446Y-1116323D01*
X-685475Y-1116171D01*
X-685505Y-1116007D01*
X-685522Y-1115831D01*
X-685534Y-1115637D01*
X-685540Y-1115432D01*
Y-1115426D01*
Y-1115402D01*
Y-1115361D01*
Y-1115314D01*
X-685534Y-1115250D01*
Y-1115179D01*
X-685528Y-1115103D01*
X-685522Y-1115015D01*
X-685505Y-1114833D01*
X-685475Y-1114640D01*
X-685440Y-1114446D01*
X-685416Y-1114358D01*
X-685393Y-1114270D01*
Y-1114264D01*
X-685387Y-1114252D01*
X-685375Y-1114229D01*
X-685364Y-1114199D01*
X-685352Y-1114158D01*
X-685329Y-1114117D01*
X-685282Y-1114017D01*
X-685223Y-1113912D01*
X-685147Y-1113800D01*
X-685059Y-1113689D01*
X-684953Y-1113595D01*
X-684947D01*
X-684941Y-1113583D01*
X-684924Y-1113572D01*
X-684900Y-1113560D01*
X-684871Y-1113536D01*
X-684836Y-1113519D01*
X-684748Y-1113472D01*
X-684642Y-1113431D01*
X-684519Y-1113390D01*
X-684372Y-1113366D01*
X-684214Y-1113354D01*
X-684161D01*
X-684096Y-1113360D01*
D02*
G37*
G36*
X-707108Y-1113308D02*
X-707056D01*
X-707003Y-1113313D01*
X-706932Y-1113325D01*
X-706862Y-1113337D01*
X-706709Y-1113366D01*
X-706533Y-1113413D01*
X-706363Y-1113484D01*
X-706275Y-1113525D01*
X-706187Y-1113572D01*
X-706181Y-1113577D01*
X-706170Y-1113583D01*
X-706146Y-1113601D01*
X-706111Y-1113618D01*
X-706076Y-1113648D01*
X-706029Y-1113683D01*
X-705929Y-1113765D01*
X-705823Y-1113871D01*
X-705706Y-1114000D01*
X-705594Y-1114153D01*
X-705501Y-1114323D01*
Y-1114329D01*
X-705489Y-1114346D01*
X-705477Y-1114370D01*
X-705465Y-1114405D01*
X-705442Y-1114452D01*
X-705424Y-1114504D01*
X-705401Y-1114569D01*
X-705377Y-1114640D01*
X-705360Y-1114716D01*
X-705336Y-1114798D01*
X-705313Y-1114892D01*
X-705295Y-1114986D01*
X-705272Y-1115191D01*
X-705260Y-1115414D01*
Y-1115420D01*
Y-1115443D01*
Y-1115473D01*
X-705266Y-1115520D01*
Y-1115572D01*
X-705272Y-1115637D01*
X-705284Y-1115707D01*
X-705289Y-1115784D01*
X-705319Y-1115954D01*
X-705366Y-1116142D01*
X-705430Y-1116329D01*
X-705465Y-1116423D01*
X-705512Y-1116517D01*
Y-1116523D01*
X-705524Y-1116541D01*
X-705536Y-1116564D01*
X-705559Y-1116599D01*
X-705583Y-1116640D01*
X-705612Y-1116681D01*
X-705694Y-1116793D01*
X-705794Y-1116910D01*
X-705911Y-1117033D01*
X-706052Y-1117151D01*
X-706216Y-1117256D01*
X-706222D01*
X-706234Y-1117268D01*
X-706263Y-1117280D01*
X-706299Y-1117297D01*
X-706340Y-1117315D01*
X-706387Y-1117333D01*
X-706445Y-1117356D01*
X-706510Y-1117380D01*
X-706580Y-1117403D01*
X-706656Y-1117427D01*
X-706827Y-1117462D01*
X-707009Y-1117491D01*
X-707202Y-1117503D01*
X-707261D01*
X-707296Y-1117497D01*
X-707349D01*
X-707408Y-1117485D01*
X-707472Y-1117479D01*
X-707548Y-1117467D01*
X-707707Y-1117432D01*
X-707877Y-1117385D01*
X-708053Y-1117315D01*
X-708141Y-1117274D01*
X-708229Y-1117227D01*
X-708235Y-1117221D01*
X-708247Y-1117215D01*
X-708270Y-1117198D01*
X-708305Y-1117174D01*
X-708340Y-1117151D01*
X-708382Y-1117115D01*
X-708481Y-1117028D01*
X-708593Y-1116922D01*
X-708710Y-1116793D01*
X-708816Y-1116646D01*
X-708915Y-1116476D01*
Y-1116470D01*
X-708927Y-1116452D01*
X-708939Y-1116429D01*
X-708951Y-1116394D01*
X-708968Y-1116347D01*
X-708986Y-1116294D01*
X-709009Y-1116235D01*
X-709027Y-1116171D01*
X-709050Y-1116095D01*
X-709074Y-1116018D01*
X-709109Y-1115842D01*
X-709133Y-1115660D01*
X-709144Y-1115461D01*
Y-1115455D01*
Y-1115449D01*
Y-1115414D01*
X-709138Y-1115361D01*
Y-1115291D01*
X-709127Y-1115209D01*
X-709115Y-1115109D01*
X-709097Y-1114997D01*
X-709074Y-1114880D01*
X-709050Y-1114757D01*
X-709015Y-1114628D01*
X-708968Y-1114499D01*
X-708915Y-1114364D01*
X-708857Y-1114235D01*
X-708781Y-1114106D01*
X-708698Y-1113988D01*
X-708605Y-1113877D01*
X-708599Y-1113871D01*
X-708581Y-1113853D01*
X-708546Y-1113824D01*
X-708505Y-1113789D01*
X-708452Y-1113742D01*
X-708387Y-1113695D01*
X-708311Y-1113642D01*
X-708223Y-1113589D01*
X-708129Y-1113536D01*
X-708024Y-1113484D01*
X-707906Y-1113437D01*
X-707783Y-1113390D01*
X-707648Y-1113354D01*
X-707507Y-1113325D01*
X-707361Y-1113308D01*
X-707202Y-1113302D01*
X-707149D01*
X-707108Y-1113308D01*
D02*
G37*
G36*
X-717194D02*
X-717141D01*
X-717089Y-1113313D01*
X-717018Y-1113325D01*
X-716948Y-1113337D01*
X-716795Y-1113366D01*
X-716619Y-1113413D01*
X-716449Y-1113484D01*
X-716361Y-1113525D01*
X-716273Y-1113572D01*
X-716267Y-1113577D01*
X-716255Y-1113583D01*
X-716232Y-1113601D01*
X-716197Y-1113618D01*
X-716162Y-1113648D01*
X-716115Y-1113683D01*
X-716015Y-1113765D01*
X-715909Y-1113871D01*
X-715792Y-1114000D01*
X-715680Y-1114153D01*
X-715587Y-1114323D01*
Y-1114329D01*
X-715575Y-1114346D01*
X-715563Y-1114370D01*
X-715552Y-1114405D01*
X-715528Y-1114452D01*
X-715510Y-1114504D01*
X-715487Y-1114569D01*
X-715463Y-1114640D01*
X-715446Y-1114716D01*
X-715422Y-1114798D01*
X-715399Y-1114892D01*
X-715381Y-1114986D01*
X-715358Y-1115191D01*
X-715346Y-1115414D01*
Y-1115420D01*
Y-1115443D01*
Y-1115473D01*
X-715352Y-1115520D01*
Y-1115572D01*
X-715358Y-1115637D01*
X-715370Y-1115707D01*
X-715375Y-1115784D01*
X-715405Y-1115954D01*
X-715452Y-1116142D01*
X-715516Y-1116329D01*
X-715552Y-1116423D01*
X-715598Y-1116517D01*
Y-1116523D01*
X-715610Y-1116541D01*
X-715622Y-1116564D01*
X-715645Y-1116599D01*
X-715669Y-1116640D01*
X-715698Y-1116681D01*
X-715780Y-1116793D01*
X-715880Y-1116910D01*
X-715997Y-1117033D01*
X-716138Y-1117151D01*
X-716302Y-1117256D01*
X-716308D01*
X-716320Y-1117268D01*
X-716349Y-1117280D01*
X-716385Y-1117297D01*
X-716426Y-1117315D01*
X-716473Y-1117333D01*
X-716531Y-1117356D01*
X-716596Y-1117380D01*
X-716666Y-1117403D01*
X-716742Y-1117427D01*
X-716913Y-1117462D01*
X-717095Y-1117491D01*
X-717288Y-1117503D01*
X-717347D01*
X-717382Y-1117497D01*
X-717435D01*
X-717494Y-1117485D01*
X-717558Y-1117479D01*
X-717634Y-1117467D01*
X-717793Y-1117432D01*
X-717963Y-1117385D01*
X-718139Y-1117315D01*
X-718227Y-1117274D01*
X-718315Y-1117227D01*
X-718321Y-1117221D01*
X-718333Y-1117215D01*
X-718356Y-1117198D01*
X-718391Y-1117174D01*
X-718427Y-1117151D01*
X-718467Y-1117115D01*
X-718567Y-1117028D01*
X-718679Y-1116922D01*
X-718796Y-1116793D01*
X-718902Y-1116646D01*
X-719001Y-1116476D01*
Y-1116470D01*
X-719013Y-1116452D01*
X-719025Y-1116429D01*
X-719037Y-1116394D01*
X-719054Y-1116347D01*
X-719072Y-1116294D01*
X-719095Y-1116235D01*
X-719113Y-1116171D01*
X-719136Y-1116095D01*
X-719160Y-1116018D01*
X-719195Y-1115842D01*
X-719219Y-1115660D01*
X-719230Y-1115461D01*
Y-1115455D01*
Y-1115449D01*
Y-1115414D01*
X-719224Y-1115361D01*
Y-1115291D01*
X-719213Y-1115209D01*
X-719201Y-1115109D01*
X-719183Y-1114997D01*
X-719160Y-1114880D01*
X-719136Y-1114757D01*
X-719101Y-1114628D01*
X-719054Y-1114499D01*
X-719001Y-1114364D01*
X-718943Y-1114235D01*
X-718867Y-1114106D01*
X-718784Y-1113988D01*
X-718690Y-1113877D01*
X-718685Y-1113871D01*
X-718667Y-1113853D01*
X-718632Y-1113824D01*
X-718591Y-1113789D01*
X-718538Y-1113742D01*
X-718473Y-1113695D01*
X-718397Y-1113642D01*
X-718309Y-1113589D01*
X-718215Y-1113536D01*
X-718110Y-1113484D01*
X-717992Y-1113437D01*
X-717869Y-1113390D01*
X-717734Y-1113354D01*
X-717593Y-1113325D01*
X-717447Y-1113308D01*
X-717288Y-1113302D01*
X-717235D01*
X-717194Y-1113308D01*
D02*
G37*
G36*
X-746514D02*
X-746461D01*
X-746408Y-1113313D01*
X-746338Y-1113325D01*
X-746267Y-1113337D01*
X-746115Y-1113366D01*
X-745939Y-1113413D01*
X-745769Y-1113484D01*
X-745681Y-1113525D01*
X-745592Y-1113572D01*
X-745587Y-1113577D01*
X-745575Y-1113583D01*
X-745552Y-1113601D01*
X-745516Y-1113618D01*
X-745481Y-1113648D01*
X-745434Y-1113683D01*
X-745334Y-1113765D01*
X-745229Y-1113871D01*
X-745111Y-1114000D01*
X-745000Y-1114153D01*
X-744906Y-1114323D01*
Y-1114329D01*
X-744894Y-1114346D01*
X-744883Y-1114370D01*
X-744871Y-1114405D01*
X-744847Y-1114452D01*
X-744830Y-1114504D01*
X-744806Y-1114569D01*
X-744783Y-1114640D01*
X-744765Y-1114716D01*
X-744742Y-1114798D01*
X-744718Y-1114892D01*
X-744701Y-1114986D01*
X-744677Y-1115191D01*
X-744666Y-1115414D01*
Y-1115420D01*
Y-1115443D01*
Y-1115473D01*
X-744671Y-1115520D01*
Y-1115572D01*
X-744677Y-1115637D01*
X-744689Y-1115707D01*
X-744695Y-1115784D01*
X-744724Y-1115954D01*
X-744771Y-1116142D01*
X-744836Y-1116329D01*
X-744871Y-1116423D01*
X-744918Y-1116517D01*
Y-1116523D01*
X-744930Y-1116541D01*
X-744941Y-1116564D01*
X-744965Y-1116599D01*
X-744988Y-1116640D01*
X-745017Y-1116681D01*
X-745100Y-1116793D01*
X-745199Y-1116910D01*
X-745317Y-1117033D01*
X-745458Y-1117151D01*
X-745622Y-1117256D01*
X-745628D01*
X-745639Y-1117268D01*
X-745669Y-1117280D01*
X-745704Y-1117297D01*
X-745745Y-1117315D01*
X-745792Y-1117333D01*
X-745851Y-1117356D01*
X-745915Y-1117380D01*
X-745986Y-1117403D01*
X-746062Y-1117427D01*
X-746232Y-1117462D01*
X-746414Y-1117491D01*
X-746608Y-1117503D01*
X-746666D01*
X-746702Y-1117497D01*
X-746754D01*
X-746813Y-1117485D01*
X-746878Y-1117479D01*
X-746954Y-1117467D01*
X-747112Y-1117432D01*
X-747282Y-1117385D01*
X-747458Y-1117315D01*
X-747546Y-1117274D01*
X-747634Y-1117227D01*
X-747640Y-1117221D01*
X-747652Y-1117215D01*
X-747675Y-1117198D01*
X-747711Y-1117174D01*
X-747746Y-1117151D01*
X-747787Y-1117115D01*
X-747887Y-1117028D01*
X-747998Y-1116922D01*
X-748115Y-1116793D01*
X-748221Y-1116646D01*
X-748321Y-1116476D01*
Y-1116470D01*
X-748333Y-1116452D01*
X-748344Y-1116429D01*
X-748356Y-1116394D01*
X-748374Y-1116347D01*
X-748391Y-1116294D01*
X-748415Y-1116235D01*
X-748432Y-1116171D01*
X-748456Y-1116095D01*
X-748479Y-1116018D01*
X-748514Y-1115842D01*
X-748538Y-1115660D01*
X-748550Y-1115461D01*
Y-1115455D01*
Y-1115449D01*
Y-1115414D01*
X-748544Y-1115361D01*
Y-1115291D01*
X-748532Y-1115209D01*
X-748520Y-1115109D01*
X-748503Y-1114997D01*
X-748479Y-1114880D01*
X-748456Y-1114757D01*
X-748421Y-1114628D01*
X-748374Y-1114499D01*
X-748321Y-1114364D01*
X-748262Y-1114235D01*
X-748186Y-1114106D01*
X-748104Y-1113988D01*
X-748010Y-1113877D01*
X-748004Y-1113871D01*
X-747986Y-1113853D01*
X-747951Y-1113824D01*
X-747910Y-1113789D01*
X-747857Y-1113742D01*
X-747793Y-1113695D01*
X-747717Y-1113642D01*
X-747628Y-1113589D01*
X-747535Y-1113536D01*
X-747429Y-1113484D01*
X-747312Y-1113437D01*
X-747188Y-1113390D01*
X-747054Y-1113354D01*
X-746913Y-1113325D01*
X-746766Y-1113308D01*
X-746608Y-1113302D01*
X-746555D01*
X-746514Y-1113308D01*
D02*
G37*
%LPC*%
G36*
X-795819Y-1107293D02*
X-796194D01*
X-795774Y-1107589D01*
X-795771Y-1107541D01*
Y-1107530D01*
X-795777Y-1107494D01*
X-795783Y-1107442D01*
X-795795Y-1107371D01*
X-795818Y-1107295D01*
X-795819Y-1107293D01*
D02*
G37*
G36*
X-795317D02*
X-795324D01*
X-795331Y-1107312D01*
X-795355Y-1107430D01*
X-795366Y-1107559D01*
Y-1107594D01*
X-795360Y-1107618D01*
X-795355Y-1107682D01*
X-795337Y-1107764D01*
X-795323Y-1107809D01*
X-795299Y-1107741D01*
X-795275Y-1107647D01*
X-795269Y-1107541D01*
Y-1107530D01*
X-795275Y-1107494D01*
X-795281Y-1107442D01*
X-795293Y-1107371D01*
X-795316Y-1107295D01*
X-795317Y-1107293D01*
D02*
G37*
G36*
X-794768D02*
X-794822D01*
X-794829Y-1107312D01*
X-794853Y-1107430D01*
X-794865Y-1107559D01*
Y-1107594D01*
X-794859Y-1107618D01*
X-794853Y-1107682D01*
X-794835Y-1107764D01*
X-794806Y-1107858D01*
X-794768Y-1107945D01*
Y-1107293D01*
D02*
G37*
G36*
X-797045Y-1107448D02*
X-797050Y-1107541D01*
Y-1107588D01*
X-797039Y-1107641D01*
X-797027Y-1107711D01*
X-797003Y-1107788D01*
X-796974Y-1107870D01*
X-796927Y-1107946D01*
X-796883Y-1107998D01*
X-796889Y-1107981D01*
X-796912Y-1107905D01*
X-796947Y-1107741D01*
X-796953Y-1107647D01*
X-796959Y-1107553D01*
Y-1107509D01*
X-797045Y-1107448D01*
D02*
G37*
G36*
X-793764Y-1107293D02*
X-793917D01*
Y-1108098D01*
X-793876Y-1108046D01*
X-793829Y-1107976D01*
X-793823Y-1107964D01*
X-793811Y-1107940D01*
X-793794Y-1107899D01*
X-793776Y-1107847D01*
X-793759Y-1107782D01*
X-793741Y-1107706D01*
X-793729Y-1107624D01*
X-793724Y-1107541D01*
Y-1107506D01*
X-793729Y-1107483D01*
X-793735Y-1107412D01*
X-793753Y-1107330D01*
X-793764Y-1107293D01*
D02*
G37*
G36*
X-793262D02*
X-793337D01*
X-793330Y-1107330D01*
X-793319Y-1107430D01*
X-793313Y-1107541D01*
Y-1107600D01*
X-793319Y-1107641D01*
X-793325Y-1107694D01*
X-793330Y-1107753D01*
X-793342Y-1107817D01*
X-793360Y-1107887D01*
X-793401Y-1108046D01*
X-793422Y-1108106D01*
X-793421Y-1108105D01*
X-793374Y-1108046D01*
X-793327Y-1107976D01*
X-793321Y-1107964D01*
X-793310Y-1107940D01*
X-793292Y-1107899D01*
X-793274Y-1107847D01*
X-793257Y-1107782D01*
X-793239Y-1107706D01*
X-793227Y-1107624D01*
X-793222Y-1107541D01*
Y-1107506D01*
X-793227Y-1107483D01*
X-793233Y-1107412D01*
X-793251Y-1107330D01*
X-793262Y-1107293D01*
D02*
G37*
G36*
X-796480Y-1107848D02*
X-796472Y-1107870D01*
X-796425Y-1107946D01*
X-796361Y-1108023D01*
X-796355Y-1108028D01*
X-796331Y-1108052D01*
X-796290Y-1108081D01*
X-796237Y-1108111D01*
X-796173Y-1108146D01*
X-796162Y-1108150D01*
X-796106Y-1108128D01*
X-796094Y-1108121D01*
X-796480Y-1107848D01*
D02*
G37*
G36*
X-794325Y-1109939D02*
X-794328Y-1109939D01*
X-794396Y-1109957D01*
X-794430Y-1109970D01*
X-794530Y-1110029D01*
X-794624Y-1110111D01*
X-794636Y-1110123D01*
X-794659Y-1110152D01*
X-793921D01*
X-793929Y-1110145D01*
X-793964Y-1110115D01*
X-794017Y-1110080D01*
X-794087Y-1110033D01*
X-794175Y-1109986D01*
X-794275Y-1109951D01*
X-794325Y-1109939D01*
D02*
G37*
G36*
X-796169Y-1110127D02*
X-796206Y-1110139D01*
X-796241Y-1110152D01*
X-796105D01*
X-796147Y-1110133D01*
X-796169Y-1110127D01*
D02*
G37*
G36*
X-795777Y-1110651D02*
X-796183D01*
X-796177Y-1110657D01*
X-796154Y-1110686D01*
X-796118Y-1110722D01*
X-796077Y-1110780D01*
X-796024Y-1110845D01*
X-795966Y-1110927D01*
X-795901Y-1111021D01*
X-795874Y-1111066D01*
X-795865Y-1111050D01*
X-795830Y-1110980D01*
X-795801Y-1110898D01*
X-795777Y-1110804D01*
X-795771Y-1110698D01*
Y-1110686D01*
X-795777Y-1110651D01*
D02*
G37*
G36*
X-795578Y-1111261D02*
Y-1111267D01*
X-795583Y-1111273D01*
X-795583Y-1111273D01*
X-795575Y-1111268D01*
X-795578Y-1111261D01*
D02*
G37*
G36*
X-795076D02*
Y-1111267D01*
X-795082Y-1111273D01*
X-795088Y-1111291D01*
X-795099Y-1111314D01*
X-795103Y-1111322D01*
X-795091Y-1111332D01*
X-795045Y-1111362D01*
X-795076Y-1111261D01*
D02*
G37*
G36*
X-793727Y-1110651D02*
X-794859D01*
X-794865Y-1110716D01*
Y-1110751D01*
X-794859Y-1110774D01*
X-794853Y-1110839D01*
X-794835Y-1110921D01*
X-794806Y-1111015D01*
X-794765Y-1111109D01*
X-794706Y-1111208D01*
X-794630Y-1111296D01*
X-794618Y-1111308D01*
X-794589Y-1111332D01*
X-794536Y-1111367D01*
X-794471Y-1111408D01*
X-794383Y-1111455D01*
X-794295Y-1111486D01*
X-794287Y-1111484D01*
X-794216Y-1111461D01*
X-794140Y-1111432D01*
X-794134Y-1111426D01*
X-794105Y-1111414D01*
X-794070Y-1111390D01*
X-794029Y-1111355D01*
X-793976Y-1111314D01*
X-793923Y-1111261D01*
X-793876Y-1111203D01*
X-793829Y-1111132D01*
X-793823Y-1111121D01*
X-793811Y-1111097D01*
X-793794Y-1111056D01*
X-793776Y-1111003D01*
X-793759Y-1110939D01*
X-793741Y-1110862D01*
X-793729Y-1110780D01*
X-793724Y-1110698D01*
Y-1110663D01*
X-793727Y-1110651D01*
D02*
G37*
G36*
X-780662Y-1112930D02*
X-780703D01*
X-780750Y-1112936D01*
X-780803Y-1112948D01*
X-780873Y-1112965D01*
X-780944Y-1112989D01*
X-781014Y-1113018D01*
X-781085Y-1113065D01*
X-781096Y-1113071D01*
X-781126Y-1113095D01*
X-781167Y-1113136D01*
X-781220Y-1113194D01*
X-781253Y-1113234D01*
X-781243Y-1113228D01*
X-781155Y-1113193D01*
X-781067Y-1113152D01*
X-780967Y-1113123D01*
X-780862Y-1113099D01*
X-780750Y-1113087D01*
X-780633Y-1113082D01*
X-780586D01*
X-780551Y-1113087D01*
X-780510D01*
X-780463Y-1113093D01*
X-780351Y-1113117D01*
X-780228Y-1113146D01*
X-780140Y-1113178D01*
X-780164Y-1113147D01*
X-780175Y-1113136D01*
X-780199Y-1113112D01*
X-780240Y-1113077D01*
X-780298Y-1113036D01*
X-780375Y-1113001D01*
X-780457Y-1112965D01*
X-780557Y-1112942D01*
X-780662Y-1112930D01*
D02*
G37*
G36*
X-788265Y-1112976D02*
X-788323Y-1113014D01*
X-788369Y-1113061D01*
X-788416Y-1113108D01*
Y-1113113D01*
X-788428Y-1113119D01*
X-788440Y-1113137D01*
X-788443Y-1113141D01*
X-788414Y-1113182D01*
X-788265D01*
Y-1112976D01*
D02*
G37*
G36*
X-782627Y-1112967D02*
X-782716D01*
X-782715Y-1112968D01*
X-782698Y-1113068D01*
X-782693Y-1113143D01*
X-782578Y-1113159D01*
X-782437Y-1113176D01*
X-782314Y-1113204D01*
X-782348Y-1113155D01*
X-782419Y-1113078D01*
X-782430Y-1113072D01*
X-782460Y-1113049D01*
X-782506Y-1113020D01*
X-782583Y-1112984D01*
X-782627Y-1112967D01*
D02*
G37*
G36*
X-785023Y-1112903D02*
X-785078Y-1112926D01*
X-785172Y-1112979D01*
X-785260Y-1113049D01*
X-785271Y-1113061D01*
X-785295Y-1113090D01*
X-785330Y-1113137D01*
X-785365Y-1113207D01*
X-785406Y-1113289D01*
X-785412Y-1113307D01*
X-785333Y-1113302D01*
X-785332D01*
X-785319Y-1113294D01*
X-785261Y-1113264D01*
X-785196Y-1113235D01*
X-785126Y-1113206D01*
X-785049Y-1113182D01*
X-785023Y-1113175D01*
X-785097Y-1113161D01*
Y-1113156D01*
X-785091Y-1113138D01*
X-785086Y-1113115D01*
X-785080Y-1113079D01*
X-785068Y-1113038D01*
X-785050Y-1112991D01*
X-785023Y-1112903D01*
D02*
G37*
G36*
X-792395Y-1112841D02*
X-792428Y-1112843D01*
X-792510Y-1112861D01*
X-792598Y-1112885D01*
X-792698Y-1112926D01*
X-792792Y-1112979D01*
X-792880Y-1113049D01*
X-792892Y-1113061D01*
X-792915Y-1113090D01*
X-792951Y-1113137D01*
X-792986Y-1113207D01*
X-793004Y-1113244D01*
X-792990Y-1113272D01*
X-792974Y-1113315D01*
X-792940Y-1113294D01*
X-792881Y-1113264D01*
X-792816Y-1113235D01*
X-792746Y-1113206D01*
X-792670Y-1113182D01*
X-792588Y-1113159D01*
X-792575Y-1113156D01*
X-792567Y-1113131D01*
X-792496Y-1112990D01*
X-792455Y-1112919D01*
X-792402Y-1112849D01*
X-792395Y-1112841D01*
D02*
G37*
G36*
X-780736Y-1113496D02*
X-780750Y-1113498D01*
X-780803Y-1113510D01*
X-780873Y-1113527D01*
X-780944Y-1113551D01*
X-781014Y-1113580D01*
X-781085Y-1113627D01*
X-781096Y-1113633D01*
X-781126Y-1113656D01*
X-781167Y-1113698D01*
X-781197Y-1113730D01*
X-780736D01*
Y-1113496D01*
D02*
G37*
G36*
X-794926Y-1113313D02*
X-794932Y-1113319D01*
X-794956Y-1113351D01*
X-794909Y-1113426D01*
X-794903Y-1113438D01*
X-794885Y-1113473D01*
X-794862Y-1113526D01*
X-794838Y-1113591D01*
X-794809Y-1113679D01*
X-794786Y-1113773D01*
X-794773Y-1113845D01*
X-794722Y-1113849D01*
X-794700Y-1113851D01*
Y-1113831D01*
X-794706Y-1113808D01*
X-794712Y-1113743D01*
X-794730Y-1113667D01*
X-794759Y-1113573D01*
X-794800Y-1113479D01*
X-794859Y-1113385D01*
X-794926Y-1113313D01*
D02*
G37*
G36*
X-777826Y-1113802D02*
X-777943D01*
Y-1113841D01*
X-777936Y-1113845D01*
X-777919Y-1113857D01*
X-777895Y-1113868D01*
X-777836Y-1113898D01*
X-777826Y-1113905D01*
Y-1113802D01*
D02*
G37*
G36*
X-769508Y-1113853D02*
X-769732D01*
X-769676Y-1113877D01*
X-769588Y-1113918D01*
X-769512Y-1113965D01*
X-769508Y-1113967D01*
Y-1113853D01*
D02*
G37*
G36*
X-794561Y-1113099D02*
X-794575Y-1113102D01*
X-794646Y-1113128D01*
X-794595Y-1113180D01*
X-794530Y-1113250D01*
X-794465Y-1113333D01*
X-794407Y-1113426D01*
X-794401Y-1113438D01*
X-794383Y-1113473D01*
X-794360Y-1113526D01*
X-794336Y-1113591D01*
X-794307Y-1113679D01*
X-794284Y-1113773D01*
X-794266Y-1113878D01*
X-794264Y-1113910D01*
X-794153Y-1113931D01*
X-794065Y-1113954D01*
X-793977Y-1113984D01*
X-793971D01*
X-793960Y-1113990D01*
X-793936Y-1114001D01*
X-793907Y-1114013D01*
X-793873Y-1114023D01*
Y-1113730D01*
X-793755D01*
X-793765Y-1113696D01*
X-793788Y-1113626D01*
X-793823Y-1113561D01*
X-793829Y-1113556D01*
X-793841Y-1113532D01*
X-793864Y-1113497D01*
X-793900Y-1113462D01*
X-793941Y-1113415D01*
X-793988Y-1113368D01*
X-794040Y-1113321D01*
X-794105Y-1113274D01*
X-794111Y-1113268D01*
X-794140Y-1113256D01*
X-794181Y-1113233D01*
X-794234Y-1113209D01*
X-794304Y-1113180D01*
X-794387Y-1113151D01*
X-794480Y-1113121D01*
X-794561Y-1113099D01*
D02*
G37*
G36*
X-795857Y-1113098D02*
X-795968Y-1113121D01*
X-796085Y-1113162D01*
X-796196Y-1113221D01*
X-796296Y-1113297D01*
X-796302D01*
X-796308Y-1113309D01*
X-796337Y-1113338D01*
X-796378Y-1113385D01*
X-796425Y-1113450D01*
X-796466Y-1113532D01*
X-796507Y-1113626D01*
X-796537Y-1113732D01*
X-796548Y-1113790D01*
Y-1113884D01*
X-796543Y-1113907D01*
X-796537Y-1113972D01*
X-796513Y-1114048D01*
X-796505Y-1114076D01*
X-796436Y-1114048D01*
X-796336Y-1114001D01*
X-796218Y-1113960D01*
X-796089Y-1113925D01*
X-796084D01*
X-796072Y-1113919D01*
X-796054Y-1113913D01*
X-796025Y-1113907D01*
X-795990Y-1113902D01*
X-795956Y-1113897D01*
X-795965Y-1113847D01*
X-795971Y-1113742D01*
Y-1113695D01*
X-795965Y-1113659D01*
X-795959Y-1113612D01*
X-795953Y-1113566D01*
X-795941Y-1113507D01*
X-795924Y-1113448D01*
X-795883Y-1113313D01*
X-795853Y-1113243D01*
X-795812Y-1113172D01*
X-795780Y-1113118D01*
X-795824Y-1113104D01*
X-795857Y-1113098D01*
D02*
G37*
G36*
X-774751Y-1114212D02*
X-774765D01*
X-774751Y-1114229D01*
Y-1114235D01*
X-774745Y-1114241D01*
X-774726Y-1114270D01*
X-774736Y-1114246D01*
X-774751Y-1114212D01*
D02*
G37*
G36*
X-772646Y-1114205D02*
X-772613Y-1114264D01*
X-772566Y-1114374D01*
X-772517Y-1114245D01*
X-772591Y-1114220D01*
X-772646Y-1114205D01*
D02*
G37*
G36*
X-761550Y-1114124D02*
X-761603D01*
X-761644Y-1114129D01*
X-761696Y-1114135D01*
X-761749Y-1114147D01*
X-761814Y-1114159D01*
X-761884Y-1114171D01*
X-762037Y-1114217D01*
X-762119Y-1114253D01*
X-762131Y-1114258D01*
X-762115Y-1114287D01*
X-762080Y-1114381D01*
X-762045Y-1114487D01*
X-762573Y-1114610D01*
Y-1114604D01*
X-762579Y-1114593D01*
X-762584Y-1114581D01*
X-762594Y-1114593D01*
X-762624Y-1114634D01*
X-762659Y-1114687D01*
X-762694Y-1114751D01*
X-762735Y-1114828D01*
X-762770Y-1114910D01*
X-762811Y-1115010D01*
X-762847Y-1115115D01*
X-762876Y-1115232D01*
X-762905Y-1115362D01*
X-762923Y-1115508D01*
X-762934Y-1115661D01*
X-762940Y-1115825D01*
Y-1115831D01*
Y-1115854D01*
Y-1115895D01*
X-762934Y-1115948D01*
X-762929Y-1116007D01*
X-762917Y-1116077D01*
X-762905Y-1116160D01*
X-762893Y-1116242D01*
X-762847Y-1116429D01*
X-762811Y-1116523D01*
X-762781Y-1116608D01*
X-762772Y-1116593D01*
X-762737Y-1116541D01*
X-762696Y-1116482D01*
X-762661Y-1116423D01*
X-762626Y-1116353D01*
X-762596Y-1116276D01*
X-762567Y-1116194D01*
X-762538Y-1116106D01*
X-762514Y-1116012D01*
X-761974Y-1116147D01*
Y-1116153D01*
X-761980Y-1116177D01*
X-761992Y-1116212D01*
X-762010Y-1116259D01*
X-762027Y-1116312D01*
X-762051Y-1116376D01*
X-762080Y-1116447D01*
X-762115Y-1116523D01*
X-762197Y-1116687D01*
X-762303Y-1116852D01*
X-762367Y-1116934D01*
X-762432Y-1117016D01*
X-762469Y-1117053D01*
X-762436Y-1117081D01*
X-762389Y-1117116D01*
X-762336Y-1117151D01*
X-762277Y-1117192D01*
X-762207Y-1117233D01*
X-762131Y-1117269D01*
X-762048Y-1117304D01*
X-761961Y-1117339D01*
X-761867Y-1117362D01*
X-761773Y-1117386D01*
X-761667Y-1117398D01*
X-761556Y-1117403D01*
X-761526D01*
X-761497Y-1117398D01*
X-761456D01*
X-761403Y-1117392D01*
X-761344Y-1117380D01*
X-761305Y-1117374D01*
Y-1114146D01*
X-761403Y-1114129D01*
X-761550Y-1114124D01*
D02*
G37*
G36*
X-794343Y-1114403D02*
X-794348Y-1114418D01*
X-794378Y-1114488D01*
X-794413Y-1114559D01*
X-794448Y-1114624D01*
X-794444Y-1114623D01*
X-794368Y-1114612D01*
X-794286Y-1114588D01*
X-794222Y-1114571D01*
X-794158Y-1114545D01*
X-794146Y-1114539D01*
X-794117Y-1114522D01*
X-794075Y-1114498D01*
X-794041Y-1114475D01*
X-794089Y-1114459D01*
X-794177Y-1114441D01*
X-794270Y-1114418D01*
X-794343Y-1114403D01*
D02*
G37*
G36*
X-795779Y-1114384D02*
X-795902Y-1114400D01*
X-796013Y-1114418D01*
X-796119Y-1114441D01*
X-796209Y-1114463D01*
X-796194Y-1114475D01*
X-796088Y-1114534D01*
X-795971Y-1114592D01*
X-795965D01*
X-795953Y-1114598D01*
X-795936Y-1114604D01*
X-795919Y-1114613D01*
X-795901Y-1114617D01*
X-795900Y-1114618D01*
X-795877Y-1114622D01*
X-795842Y-1114632D01*
X-795815Y-1114637D01*
X-795748Y-1114617D01*
X-795642Y-1114582D01*
X-795619Y-1114569D01*
X-795648Y-1114545D01*
X-795713Y-1114469D01*
X-795777Y-1114387D01*
X-795779Y-1114384D01*
D02*
G37*
G36*
X-776270Y-1114182D02*
X-776440D01*
X-776459Y-1114248D01*
X-776471Y-1114342D01*
Y-1114354D01*
Y-1114377D01*
X-776465Y-1114418D01*
X-776453Y-1114465D01*
X-776435Y-1114524D01*
X-776406Y-1114583D01*
X-776371Y-1114641D01*
X-776318Y-1114700D01*
X-776312Y-1114706D01*
X-776283Y-1114724D01*
X-776270Y-1114733D01*
Y-1114182D01*
D02*
G37*
G36*
X-763664Y-1113759D02*
X-763711D01*
X-763740Y-1113765D01*
X-763782D01*
X-763828Y-1113771D01*
X-763940Y-1113789D01*
X-764063Y-1113812D01*
X-764113Y-1113828D01*
X-764083Y-1113839D01*
X-764077D01*
X-764066Y-1113845D01*
X-764048Y-1113857D01*
X-764025Y-1113868D01*
X-763966Y-1113898D01*
X-763890Y-1113951D01*
X-763802Y-1114009D01*
X-763714Y-1114085D01*
X-763632Y-1114173D01*
X-763555Y-1114273D01*
Y-1114279D01*
X-763549Y-1114285D01*
X-763538Y-1114303D01*
X-763526Y-1114320D01*
X-763496Y-1114379D01*
X-763461Y-1114455D01*
X-763420Y-1114549D01*
X-763391Y-1114660D01*
X-763362Y-1114778D01*
X-763350Y-1114907D01*
X-763866Y-1114948D01*
Y-1114942D01*
Y-1114930D01*
X-763872Y-1114913D01*
X-763878Y-1114883D01*
X-763895Y-1114819D01*
X-763919Y-1114731D01*
X-763954Y-1114637D01*
X-764007Y-1114543D01*
X-764072Y-1114455D01*
X-764154Y-1114373D01*
X-764165Y-1114367D01*
X-764195Y-1114344D01*
X-764253Y-1114308D01*
X-764278Y-1114297D01*
Y-1115574D01*
X-764165Y-1115605D01*
X-764095Y-1115629D01*
X-764031Y-1115652D01*
X-763972Y-1115670D01*
X-763925Y-1115693D01*
X-763919D01*
X-763907Y-1115699D01*
X-763890Y-1115711D01*
X-763866Y-1115722D01*
X-763802Y-1115758D01*
X-763725Y-1115805D01*
X-763637Y-1115869D01*
X-763549Y-1115939D01*
X-763481Y-1116008D01*
X-763492Y-1115819D01*
Y-1115813D01*
Y-1115807D01*
Y-1115772D01*
X-763486Y-1115720D01*
Y-1115649D01*
X-763474Y-1115567D01*
X-763463Y-1115467D01*
X-763445Y-1115356D01*
X-763421Y-1115238D01*
X-763398Y-1115115D01*
X-763363Y-1114986D01*
X-763316Y-1114857D01*
X-763263Y-1114722D01*
X-763204Y-1114593D01*
X-763128Y-1114464D01*
X-763046Y-1114346D01*
X-762952Y-1114235D01*
X-762946Y-1114229D01*
X-762929Y-1114212D01*
X-762893Y-1114182D01*
X-762852Y-1114147D01*
X-762830Y-1114127D01*
X-762896Y-1114053D01*
X-762989Y-1113965D01*
X-763001Y-1113953D01*
X-763036Y-1113930D01*
X-763095Y-1113900D01*
X-763171Y-1113859D01*
X-763271Y-1113824D01*
X-763382Y-1113789D01*
X-763517Y-1113765D01*
X-763664Y-1113759D01*
D02*
G37*
G36*
X-778839Y-1114299D02*
X-778823Y-1114323D01*
X-778771Y-1114393D01*
X-778724Y-1114470D01*
X-778683Y-1114558D01*
X-778636Y-1114646D01*
X-778600Y-1114740D01*
X-778565Y-1114845D01*
X-778847Y-1114911D01*
X-778794Y-1115040D01*
X-778548D01*
X-778532Y-1114986D01*
X-778520Y-1114916D01*
X-778514Y-1114845D01*
Y-1114839D01*
Y-1114834D01*
X-778520Y-1114798D01*
X-778526Y-1114745D01*
X-778538Y-1114675D01*
X-778567Y-1114605D01*
X-778602Y-1114522D01*
X-778655Y-1114446D01*
X-778725Y-1114370D01*
X-778737Y-1114364D01*
X-778766Y-1114341D01*
X-778813Y-1114311D01*
X-778839Y-1114299D01*
D02*
G37*
G36*
X-775200Y-1114571D02*
Y-1115069D01*
X-775178Y-1115074D01*
X-775168Y-1115045D01*
X-775150Y-1114986D01*
X-775139Y-1114916D01*
X-775133Y-1114845D01*
Y-1114839D01*
Y-1114834D01*
X-775139Y-1114798D01*
X-775145Y-1114745D01*
X-775156Y-1114675D01*
X-775186Y-1114605D01*
X-775200Y-1114571D01*
D02*
G37*
G36*
X-766108Y-1114212D02*
X-766310D01*
Y-1115066D01*
X-766305Y-1115068D01*
X-766260Y-1115078D01*
X-766278Y-1115013D01*
X-766295Y-1114919D01*
X-766301Y-1114819D01*
Y-1114813D01*
Y-1114807D01*
Y-1114790D01*
Y-1114766D01*
X-766289Y-1114707D01*
X-766278Y-1114631D01*
X-766260Y-1114543D01*
X-766231Y-1114443D01*
X-766190Y-1114344D01*
X-766131Y-1114244D01*
Y-1114238D01*
X-766125Y-1114232D01*
X-766108Y-1114212D01*
D02*
G37*
G36*
X-758921Y-1113853D02*
X-760686D01*
X-760623Y-1113883D01*
X-760535Y-1113930D01*
X-760529Y-1113936D01*
X-760517Y-1113942D01*
X-760494Y-1113959D01*
X-760458Y-1113977D01*
X-760423Y-1114006D01*
X-760376Y-1114041D01*
X-760276Y-1114124D01*
X-760171Y-1114229D01*
X-760054Y-1114358D01*
X-759942Y-1114511D01*
X-759848Y-1114681D01*
Y-1114687D01*
X-759837Y-1114704D01*
X-759825Y-1114728D01*
X-759813Y-1114763D01*
X-759790Y-1114810D01*
X-759772Y-1114863D01*
X-759749Y-1114927D01*
X-759725Y-1114998D01*
X-759707Y-1115074D01*
X-759703Y-1115091D01*
X-758921D01*
Y-1113853D01*
D02*
G37*
G36*
X-760766Y-1114371D02*
Y-1115091D01*
X-760258D01*
X-760271Y-1115045D01*
X-760329Y-1114904D01*
Y-1114898D01*
X-760335Y-1114886D01*
X-760347Y-1114869D01*
X-760359Y-1114845D01*
X-760400Y-1114775D01*
X-760453Y-1114693D01*
X-760523Y-1114599D01*
X-760611Y-1114505D01*
X-760711Y-1114411D01*
X-760766Y-1114371D01*
D02*
G37*
G36*
X-769857Y-1114637D02*
Y-1115091D01*
X-769632D01*
X-769623Y-1115051D01*
X-769618Y-1114995D01*
X-769857Y-1114637D01*
D02*
G37*
G36*
X-770456Y-1114212D02*
X-771099D01*
Y-1114590D01*
X-770894Y-1115091D01*
X-770373D01*
Y-1114216D01*
X-770456Y-1114212D01*
D02*
G37*
G36*
X-776638Y-1115112D02*
Y-1115167D01*
X-776564D01*
X-776576Y-1115158D01*
X-776638Y-1115112D01*
D02*
G37*
G36*
X-765514Y-1114322D02*
X-765521Y-1114326D01*
X-765568Y-1114355D01*
X-765579Y-1114361D01*
X-765603Y-1114385D01*
X-765638Y-1114426D01*
X-765673Y-1114473D01*
X-765714Y-1114537D01*
X-765750Y-1114608D01*
X-765773Y-1114690D01*
X-765785Y-1114784D01*
Y-1114795D01*
Y-1114819D01*
X-765779Y-1114860D01*
X-765767Y-1114907D01*
X-765750Y-1114966D01*
X-765720Y-1115024D01*
X-765685Y-1115083D01*
X-765632Y-1115142D01*
X-765626Y-1115147D01*
X-765597Y-1115165D01*
X-765574Y-1115183D01*
X-765557Y-1115191D01*
X-765553Y-1115150D01*
X-765548Y-1115074D01*
X-765536Y-1114997D01*
X-765507Y-1114827D01*
X-765465Y-1114640D01*
X-765439Y-1114556D01*
X-765454Y-1114557D01*
Y-1114551D01*
Y-1114540D01*
X-765460Y-1114522D01*
X-765466Y-1114493D01*
X-765484Y-1114428D01*
X-765507Y-1114340D01*
X-765514Y-1114322D01*
D02*
G37*
G36*
X-767860Y-1114212D02*
X-768396D01*
X-767692Y-1115268D01*
Y-1115012D01*
X-767748Y-1114933D01*
X-767754Y-1114921D01*
X-767772Y-1114892D01*
X-767795Y-1114845D01*
X-767819Y-1114786D01*
X-767842Y-1114710D01*
X-767866Y-1114622D01*
X-767884Y-1114528D01*
X-767889Y-1114428D01*
Y-1114422D01*
Y-1114417D01*
Y-1114399D01*
Y-1114375D01*
X-767878Y-1114317D01*
X-767866Y-1114240D01*
X-767860Y-1114212D01*
D02*
G37*
G36*
X-764818Y-1114431D02*
X-764832Y-1114458D01*
X-764890Y-1114593D01*
Y-1114598D01*
X-764896Y-1114610D01*
X-764902Y-1114628D01*
X-764908Y-1114657D01*
X-764920Y-1114692D01*
X-764931Y-1114733D01*
X-764949Y-1114833D01*
X-764973Y-1114950D01*
X-764996Y-1115079D01*
X-765008Y-1115220D01*
X-765014Y-1115373D01*
Y-1115379D01*
Y-1115389D01*
X-764940Y-1115406D01*
X-764822Y-1115435D01*
X-764818D01*
Y-1114431D01*
D02*
G37*
G36*
X-770373Y-1115572D02*
X-770697D01*
X-770661Y-1115661D01*
X-770527D01*
X-770486Y-1115655D01*
X-770445D01*
X-770398Y-1115649D01*
X-770373Y-1115647D01*
Y-1115572D01*
D02*
G37*
G36*
X-778080Y-1114335D02*
X-778045Y-1114411D01*
X-778015Y-1114499D01*
X-777986Y-1114605D01*
X-777968Y-1114716D01*
X-777962Y-1114839D01*
Y-1114845D01*
Y-1114857D01*
Y-1114880D01*
X-777968Y-1114910D01*
Y-1114951D01*
X-777974Y-1114992D01*
X-777986Y-1115040D01*
X-777949D01*
Y-1115521D01*
X-778096D01*
Y-1115588D01*
X-778036Y-1115605D01*
X-777965Y-1115629D01*
X-777901Y-1115652D01*
X-777842Y-1115670D01*
X-777826Y-1115678D01*
Y-1114635D01*
X-777878Y-1114543D01*
X-777942Y-1114455D01*
X-778024Y-1114373D01*
X-778036Y-1114367D01*
X-778065Y-1114344D01*
X-778080Y-1114335D01*
D02*
G37*
G36*
X-772158Y-1114664D02*
X-772387Y-1115280D01*
X-772384Y-1115385D01*
Y-1115390D01*
Y-1115402D01*
Y-1115432D01*
Y-1115461D01*
X-772390Y-1115502D01*
Y-1115549D01*
X-772395Y-1115660D01*
X-772409Y-1115760D01*
X-772158D01*
Y-1114664D01*
D02*
G37*
G36*
X-775006Y-1115683D02*
X-775027Y-1115696D01*
X-775051Y-1115714D01*
X-775000Y-1115754D01*
X-774953Y-1115789D01*
X-774943Y-1115799D01*
X-774938Y-1115752D01*
Y-1115705D01*
X-774945Y-1115703D01*
X-774992Y-1115686D01*
X-775006Y-1115683D01*
D02*
G37*
G36*
X-796785Y-1115026D02*
X-796788Y-1115034D01*
X-796794Y-1115099D01*
X-796799Y-1115163D01*
Y-1115198D01*
X-796794Y-1115222D01*
X-796782Y-1115286D01*
X-796764Y-1115363D01*
X-796729Y-1115451D01*
X-796676Y-1115545D01*
X-796641Y-1115591D01*
X-796606Y-1115638D01*
X-796559Y-1115679D01*
X-796506Y-1115721D01*
X-796500D01*
X-796488Y-1115732D01*
X-796465Y-1115744D01*
X-796436Y-1115762D01*
X-796389Y-1115779D01*
X-796336Y-1115803D01*
X-796271Y-1115820D01*
X-796195Y-1115844D01*
X-796107Y-1115867D01*
X-796007Y-1115891D01*
X-795896Y-1115914D01*
X-795773Y-1115932D01*
X-795632Y-1115949D01*
X-795479Y-1115961D01*
X-795315Y-1115967D01*
X-795133Y-1115973D01*
X-795121D01*
X-795092D01*
X-795039D01*
X-794969Y-1115967D01*
X-794893D01*
X-794799Y-1115961D01*
X-794699Y-1115955D01*
X-794593Y-1115944D01*
X-794364Y-1115914D01*
X-794253Y-1115897D01*
X-794147Y-1115873D01*
X-794048Y-1115850D01*
X-793954Y-1115814D01*
X-793873Y-1115780D01*
Y-1115094D01*
X-793900Y-1115103D01*
X-794023Y-1115132D01*
X-794158Y-1115161D01*
X-794311Y-1115191D01*
X-794475Y-1115208D01*
X-794651Y-1115220D01*
X-794839Y-1115226D01*
X-794844D01*
X-794850D01*
X-794868D01*
X-794891D01*
X-794950Y-1115220D01*
X-795032D01*
X-795038Y-1115220D01*
X-795044Y-1115220D01*
X-795231Y-1115226D01*
X-795237D01*
X-795243D01*
X-795261D01*
X-795284D01*
X-795343Y-1115220D01*
X-795425D01*
X-795519Y-1115214D01*
X-795630Y-1115202D01*
X-795754Y-1115191D01*
X-795889Y-1115173D01*
X-795898Y-1115172D01*
X-795977Y-1115181D01*
X-796088Y-1115187D01*
X-796094D01*
X-796117D01*
X-796147D01*
X-796188Y-1115181D01*
X-796241Y-1115175D01*
X-796305Y-1115169D01*
X-796370Y-1115157D01*
X-796446Y-1115140D01*
X-796599Y-1115099D01*
X-796681Y-1115069D01*
X-796769Y-1115034D01*
X-796785Y-1115026D01*
D02*
G37*
G36*
X-764865Y-1115976D02*
X-764838Y-1116065D01*
X-764821Y-1116177D01*
X-764818Y-1116233D01*
Y-1115988D01*
X-764846Y-1115981D01*
X-764865Y-1115976D01*
D02*
G37*
G36*
X-770373Y-1116132D02*
X-770427Y-1116136D01*
X-770466Y-1116138D01*
X-770373Y-1116364D01*
Y-1116132D01*
D02*
G37*
G36*
X-764818Y-1116364D02*
X-764820Y-1116376D01*
X-764818Y-1116380D01*
Y-1116364D01*
D02*
G37*
G36*
X-768992Y-1114246D02*
Y-1115006D01*
X-768935Y-1115091D01*
X-768852D01*
Y-1115216D01*
X-767974Y-1116531D01*
X-768007Y-1116417D01*
X-768030Y-1116276D01*
X-768042Y-1116130D01*
X-767754Y-1116103D01*
X-768992Y-1114246D01*
D02*
G37*
G36*
X-779225Y-1116395D02*
X-779213Y-1116447D01*
X-779196Y-1116499D01*
X-779190Y-1116511D01*
X-779178Y-1116541D01*
X-779149Y-1116582D01*
X-779117Y-1116635D01*
X-779117Y-1116635D01*
X-779095Y-1116575D01*
X-779107Y-1116559D01*
X-779171Y-1116470D01*
X-779225Y-1116395D01*
D02*
G37*
G36*
X-776594Y-1115989D02*
X-776648D01*
X-776649Y-1116001D01*
X-776652Y-1116033D01*
X-776635Y-1116032D01*
Y-1116038D01*
Y-1116044D01*
X-776629Y-1116061D01*
Y-1116085D01*
X-776617Y-1116137D01*
X-776600Y-1116214D01*
X-776576Y-1116290D01*
X-776553Y-1116378D01*
X-776512Y-1116460D01*
X-776471Y-1116536D01*
X-776465Y-1116542D01*
X-776447Y-1116566D01*
X-776418Y-1116607D01*
X-776371Y-1116648D01*
X-776312Y-1116701D01*
X-776270Y-1116735D01*
Y-1116045D01*
X-776277Y-1116042D01*
X-776371Y-1116013D01*
X-776377D01*
X-776388Y-1116007D01*
X-776412D01*
X-776441Y-1116001D01*
X-776482Y-1115995D01*
X-776529D01*
X-776594Y-1115989D01*
D02*
G37*
G36*
X-775200Y-1116309D02*
Y-1116366D01*
X-775191Y-1116377D01*
X-775115Y-1116465D01*
X-775039Y-1116570D01*
X-774957Y-1116688D01*
X-774848Y-1116860D01*
X-774842Y-1116856D01*
X-775012Y-1116587D01*
Y-1116582D01*
X-775023Y-1116570D01*
X-775035Y-1116552D01*
X-775053Y-1116529D01*
X-775094Y-1116464D01*
X-775147Y-1116382D01*
X-775200Y-1116309D01*
D02*
G37*
G36*
X-778373Y-1116071D02*
X-778034Y-1116900D01*
X-777826D01*
Y-1116304D01*
X-777866Y-1116274D01*
X-777930Y-1116233D01*
X-778007Y-1116192D01*
X-778095Y-1116157D01*
X-778101Y-1116151D01*
X-778130Y-1116145D01*
X-778177Y-1116127D01*
X-778206Y-1116121D01*
X-778247Y-1116110D01*
X-778288Y-1116092D01*
X-778341Y-1116080D01*
X-778373Y-1116071D01*
D02*
G37*
G36*
X-779682Y-1116725D02*
X-779694Y-1116743D01*
X-779742Y-1116803D01*
X-779737Y-1116820D01*
X-779697Y-1116900D01*
X-779591D01*
X-779612Y-1116869D01*
X-779677Y-1116740D01*
Y-1116734D01*
X-779682Y-1116725D01*
D02*
G37*
G36*
X-782352Y-1116597D02*
X-782356Y-1116605D01*
X-782368Y-1116628D01*
X-782379Y-1116657D01*
X-782391Y-1116698D01*
X-782415Y-1116740D01*
X-782421Y-1116753D01*
X-782308Y-1116922D01*
Y-1116666D01*
X-782352Y-1116597D01*
D02*
G37*
G36*
X-766310Y-1115622D02*
Y-1116507D01*
X-765949Y-1116473D01*
Y-1116479D01*
Y-1116485D01*
X-765943Y-1116503D01*
Y-1116526D01*
X-765931Y-1116579D01*
X-765914Y-1116655D01*
X-765890Y-1116732D01*
X-765867Y-1116820D01*
X-765826Y-1116902D01*
X-765807Y-1116936D01*
X-765801Y-1116934D01*
X-765789Y-1116928D01*
X-765760Y-1116916D01*
X-765718Y-1116892D01*
X-765666Y-1116869D01*
X-765613Y-1116828D01*
X-765554Y-1116787D01*
X-765495Y-1116740D01*
X-765449Y-1116681D01*
X-765443Y-1116675D01*
X-765431Y-1116652D01*
X-765413Y-1116623D01*
X-765390Y-1116576D01*
X-765366Y-1116529D01*
X-765350Y-1116473D01*
X-765354Y-1116464D01*
Y-1116458D01*
X-765366Y-1116441D01*
X-765371Y-1116411D01*
X-765389Y-1116376D01*
X-765401Y-1116329D01*
X-765418Y-1116271D01*
X-765442Y-1116206D01*
X-765460Y-1116136D01*
X-765477Y-1116059D01*
X-765501Y-1115971D01*
X-765505Y-1115946D01*
X-765536Y-1115919D01*
X-765583Y-1115883D01*
X-765648Y-1115842D01*
X-765724Y-1115801D01*
X-765812Y-1115766D01*
X-765818Y-1115760D01*
X-765847Y-1115754D01*
X-765894Y-1115737D01*
X-765924Y-1115731D01*
X-765965Y-1115719D01*
X-766006Y-1115702D01*
X-766059Y-1115690D01*
X-766117Y-1115672D01*
X-766188Y-1115655D01*
X-766258Y-1115637D01*
X-766310Y-1115622D01*
D02*
G37*
G36*
X-773781Y-1114393D02*
X-773823Y-1114420D01*
X-773905Y-1114479D01*
X-773982Y-1114549D01*
X-773987Y-1114555D01*
X-773999Y-1114566D01*
X-774017Y-1114590D01*
X-774046Y-1114625D01*
X-774075Y-1114666D01*
X-774111Y-1114719D01*
X-774146Y-1114784D01*
X-774187Y-1114860D01*
X-774222Y-1114942D01*
X-774263Y-1115042D01*
X-774298Y-1115147D01*
X-774328Y-1115265D01*
X-774357Y-1115394D01*
X-774358Y-1115402D01*
X-774323Y-1115428D01*
X-774235Y-1115498D01*
X-774153Y-1115580D01*
X-774082Y-1115668D01*
X-774077Y-1115680D01*
X-774053Y-1115709D01*
X-774030Y-1115762D01*
X-773995Y-1115832D01*
X-773965Y-1115915D01*
X-773936Y-1116014D01*
X-773918Y-1116126D01*
X-773912Y-1116243D01*
Y-1116249D01*
Y-1116255D01*
Y-1116273D01*
Y-1116296D01*
X-773924Y-1116360D01*
X-773936Y-1116443D01*
X-773959Y-1116536D01*
X-773989Y-1116636D01*
X-774036Y-1116742D01*
X-774100Y-1116853D01*
Y-1116859D01*
X-774106Y-1116865D01*
X-774110Y-1116870D01*
X-774070Y-1116931D01*
X-774065Y-1116937D01*
X-774009Y-1116934D01*
X-773903Y-1116922D01*
X-773798Y-1116904D01*
X-773710Y-1116881D01*
X-773698Y-1116875D01*
X-773669Y-1116869D01*
X-773648Y-1116860D01*
Y-1114501D01*
X-773656Y-1114493D01*
X-773744Y-1114417D01*
X-773781Y-1114393D01*
D02*
G37*
G36*
X-758921Y-1115572D02*
X-759618D01*
X-759608Y-1115772D01*
Y-1115778D01*
Y-1115802D01*
Y-1115831D01*
X-759613Y-1115878D01*
Y-1115931D01*
X-759619Y-1115995D01*
X-759631Y-1116066D01*
X-759637Y-1116142D01*
X-759666Y-1116312D01*
X-759713Y-1116500D01*
X-759778Y-1116688D01*
X-759813Y-1116781D01*
X-759860Y-1116875D01*
Y-1116881D01*
X-759872Y-1116899D01*
X-759883Y-1116922D01*
X-759903Y-1116951D01*
X-758921D01*
Y-1115572D01*
D02*
G37*
G36*
X-760167D02*
X-760766D01*
Y-1116951D01*
X-760527D01*
X-760517Y-1116934D01*
X-760488Y-1116899D01*
X-760458Y-1116858D01*
X-760429Y-1116805D01*
X-760394Y-1116740D01*
X-760353Y-1116670D01*
X-760318Y-1116588D01*
X-760282Y-1116494D01*
X-760253Y-1116394D01*
X-760218Y-1116289D01*
X-760194Y-1116171D01*
X-760177Y-1116042D01*
X-760165Y-1115907D01*
X-760159Y-1115766D01*
Y-1115761D01*
Y-1115743D01*
Y-1115720D01*
Y-1115684D01*
X-760165Y-1115643D01*
Y-1115590D01*
X-760167Y-1115572D01*
D02*
G37*
G36*
X-769508Y-1115875D02*
X-769541Y-1115895D01*
X-769600Y-1115931D01*
X-769664Y-1115960D01*
X-769741Y-1115995D01*
X-769829Y-1116031D01*
X-769857Y-1116039D01*
Y-1116951D01*
X-769508D01*
Y-1115875D01*
D02*
G37*
G36*
X-771022Y-1116200D02*
X-771093D01*
X-771099Y-1116232D01*
Y-1116951D01*
X-770732D01*
X-771022Y-1116200D01*
D02*
G37*
G36*
X-763247Y-1116862D02*
X-763250Y-1116884D01*
X-763270Y-1116962D01*
X-763203Y-1116937D01*
X-763247Y-1116862D01*
D02*
G37*
G36*
X-764278Y-1116138D02*
Y-1116914D01*
X-764274Y-1116916D01*
X-764192Y-1116951D01*
X-764087Y-1116986D01*
X-763969Y-1117016D01*
X-763841Y-1117039D01*
X-763825Y-1117013D01*
X-763802Y-1116966D01*
X-763778Y-1116919D01*
X-763761Y-1116861D01*
X-763749Y-1116796D01*
X-763743Y-1116726D01*
Y-1116720D01*
Y-1116691D01*
X-763749Y-1116655D01*
X-763755Y-1116608D01*
X-763772Y-1116561D01*
X-763790Y-1116503D01*
X-763819Y-1116444D01*
X-763860Y-1116391D01*
X-763866Y-1116385D01*
X-763884Y-1116368D01*
X-763907Y-1116344D01*
X-763948Y-1116309D01*
X-763995Y-1116274D01*
X-764060Y-1116233D01*
X-764136Y-1116192D01*
X-764224Y-1116157D01*
X-764230Y-1116151D01*
X-764259Y-1116145D01*
X-764278Y-1116138D01*
D02*
G37*
G36*
X-791726Y-1117260D02*
X-791734Y-1117263D01*
X-791795Y-1117285D01*
X-791755Y-1117280D01*
X-791726Y-1117275D01*
Y-1117260D01*
D02*
G37*
G36*
X-772158Y-1116200D02*
X-772494D01*
X-772495Y-1116206D01*
Y-1116212D01*
X-772501Y-1116224D01*
X-772507Y-1116241D01*
X-772513Y-1116265D01*
X-772536Y-1116329D01*
X-772571Y-1116411D01*
X-772607Y-1116505D01*
X-772654Y-1116599D01*
X-772712Y-1116699D01*
X-772771Y-1116793D01*
X-772777Y-1116805D01*
X-772783Y-1116812D01*
X-772533D01*
Y-1117344D01*
X-772497Y-1117330D01*
X-772409Y-1117301D01*
X-772327Y-1117260D01*
X-772245Y-1117207D01*
X-772163Y-1117154D01*
X-772158Y-1117150D01*
Y-1116200D01*
D02*
G37*
G36*
X-765040Y-1116954D02*
X-765079Y-1117004D01*
X-765137Y-1117063D01*
X-765214Y-1117133D01*
X-765308Y-1117209D01*
X-765412Y-1117279D01*
X-765380Y-1117295D01*
X-765374D01*
X-765368Y-1117301D01*
X-765351Y-1117307D01*
X-765333Y-1117312D01*
X-765274Y-1117330D01*
X-765198Y-1117354D01*
X-765104Y-1117377D01*
X-764999Y-1117395D01*
X-764881Y-1117406D01*
X-764818Y-1117409D01*
Y-1117168D01*
X-764826Y-1117162D01*
X-764867Y-1117127D01*
X-764914Y-1117086D01*
X-764961Y-1117039D01*
X-765008Y-1116986D01*
X-765040Y-1116954D01*
D02*
G37*
G36*
X-773103Y-1117262D02*
X-773109Y-1117279D01*
Y-1117430D01*
X-773008Y-1117436D01*
X-772978D01*
X-772949Y-1117430D01*
X-772908D01*
X-772855Y-1117424D01*
X-772796Y-1117412D01*
X-772726Y-1117401D01*
X-772655Y-1117383D01*
X-772651Y-1117381D01*
X-773103D01*
Y-1117262D01*
D02*
G37*
G36*
X-680699Y-1113853D02*
X-681661D01*
Y-1115074D01*
X-680664D01*
X-680588Y-1115068D01*
X-680506Y-1115062D01*
X-680423Y-1115056D01*
X-680341Y-1115044D01*
X-680277Y-1115033D01*
X-680265Y-1115027D01*
X-680241Y-1115021D01*
X-680206Y-1115003D01*
X-680159Y-1114980D01*
X-680112Y-1114956D01*
X-680060Y-1114921D01*
X-680007Y-1114874D01*
X-679966Y-1114827D01*
X-679960Y-1114821D01*
X-679948Y-1114804D01*
X-679930Y-1114769D01*
X-679913Y-1114727D01*
X-679895Y-1114680D01*
X-679878Y-1114622D01*
X-679866Y-1114551D01*
X-679860Y-1114475D01*
Y-1114463D01*
Y-1114440D01*
X-679866Y-1114405D01*
X-679872Y-1114358D01*
X-679883Y-1114299D01*
X-679901Y-1114240D01*
X-679925Y-1114182D01*
X-679960Y-1114123D01*
X-679966Y-1114117D01*
X-679977Y-1114100D01*
X-680001Y-1114070D01*
X-680030Y-1114041D01*
X-680071Y-1114006D01*
X-680118Y-1113971D01*
X-680177Y-1113935D01*
X-680241Y-1113912D01*
X-680247D01*
X-680277Y-1113900D01*
X-680318Y-1113894D01*
X-680382Y-1113883D01*
X-680470Y-1113871D01*
X-680570Y-1113865D01*
X-680699Y-1113853D01*
D02*
G37*
G36*
X-680593Y-1115555D02*
X-681661D01*
Y-1116951D01*
X-680506D01*
X-680382Y-1116945D01*
X-680329Y-1116939D01*
X-680283Y-1116934D01*
X-680277D01*
X-680253Y-1116928D01*
X-680218Y-1116922D01*
X-680177Y-1116910D01*
X-680077Y-1116875D01*
X-679977Y-1116828D01*
X-679971Y-1116822D01*
X-679954Y-1116810D01*
X-679930Y-1116793D01*
X-679901Y-1116769D01*
X-679872Y-1116734D01*
X-679831Y-1116699D01*
X-679801Y-1116652D01*
X-679766Y-1116599D01*
X-679760Y-1116593D01*
X-679754Y-1116576D01*
X-679743Y-1116541D01*
X-679725Y-1116499D01*
X-679707Y-1116452D01*
X-679696Y-1116394D01*
X-679690Y-1116323D01*
X-679684Y-1116253D01*
Y-1116241D01*
Y-1116218D01*
X-679690Y-1116171D01*
X-679702Y-1116118D01*
X-679713Y-1116059D01*
X-679737Y-1115995D01*
X-679766Y-1115930D01*
X-679807Y-1115866D01*
X-679813Y-1115860D01*
X-679831Y-1115836D01*
X-679854Y-1115807D01*
X-679889Y-1115772D01*
X-679936Y-1115731D01*
X-679995Y-1115690D01*
X-680060Y-1115655D01*
X-680136Y-1115625D01*
X-680148Y-1115619D01*
X-680171Y-1115613D01*
X-680224Y-1115602D01*
X-680288Y-1115590D01*
X-680370Y-1115578D01*
X-680470Y-1115566D01*
X-680593Y-1115555D01*
D02*
G37*
G36*
X-692463Y-1113853D02*
X-693625D01*
Y-1115303D01*
X-692534D01*
X-692493Y-1115297D01*
X-692451D01*
X-692405Y-1115291D01*
X-692293Y-1115279D01*
X-692170Y-1115256D01*
X-692047Y-1115220D01*
X-691935Y-1115173D01*
X-691882Y-1115144D01*
X-691841Y-1115109D01*
X-691830Y-1115097D01*
X-691806Y-1115074D01*
X-691771Y-1115027D01*
X-691730Y-1114968D01*
X-691689Y-1114892D01*
X-691654Y-1114798D01*
X-691630Y-1114692D01*
X-691618Y-1114569D01*
Y-1114563D01*
Y-1114557D01*
Y-1114528D01*
X-691624Y-1114475D01*
X-691636Y-1114417D01*
X-691648Y-1114352D01*
X-691671Y-1114276D01*
X-691706Y-1114205D01*
X-691747Y-1114135D01*
X-691753Y-1114129D01*
X-691771Y-1114106D01*
X-691800Y-1114076D01*
X-691835Y-1114035D01*
X-691888Y-1113994D01*
X-691947Y-1113959D01*
X-692011Y-1113924D01*
X-692088Y-1113894D01*
X-692094D01*
X-692117Y-1113888D01*
X-692152Y-1113883D01*
X-692199Y-1113871D01*
X-692270Y-1113865D01*
X-692358Y-1113859D01*
X-692463Y-1113853D01*
D02*
G37*
G36*
X-712829Y-1113824D02*
X-714108D01*
Y-1115167D01*
X-712899D01*
X-712829Y-1115162D01*
X-712747Y-1115156D01*
X-712653Y-1115150D01*
X-712559Y-1115138D01*
X-712465Y-1115121D01*
X-712383Y-1115097D01*
X-712371Y-1115091D01*
X-712348Y-1115079D01*
X-712313Y-1115062D01*
X-712266Y-1115038D01*
X-712213Y-1115003D01*
X-712160Y-1114962D01*
X-712107Y-1114909D01*
X-712066Y-1114851D01*
X-712060Y-1114845D01*
X-712049Y-1114821D01*
X-712031Y-1114786D01*
X-712008Y-1114739D01*
X-711990Y-1114686D01*
X-711972Y-1114628D01*
X-711961Y-1114557D01*
X-711955Y-1114487D01*
Y-1114481D01*
Y-1114475D01*
X-711961Y-1114440D01*
X-711966Y-1114387D01*
X-711978Y-1114317D01*
X-712008Y-1114246D01*
X-712043Y-1114164D01*
X-712096Y-1114088D01*
X-712166Y-1114012D01*
X-712178Y-1114006D01*
X-712207Y-1113982D01*
X-712254Y-1113953D01*
X-712330Y-1113918D01*
X-712418Y-1113883D01*
X-712536Y-1113853D01*
X-712671Y-1113830D01*
X-712829Y-1113824D01*
D02*
G37*
G36*
X-722915D02*
X-724194D01*
Y-1115167D01*
X-722985D01*
X-722915Y-1115162D01*
X-722833Y-1115156D01*
X-722739Y-1115150D01*
X-722645Y-1115138D01*
X-722551Y-1115121D01*
X-722469Y-1115097D01*
X-722457Y-1115091D01*
X-722434Y-1115079D01*
X-722399Y-1115062D01*
X-722352Y-1115038D01*
X-722299Y-1115003D01*
X-722246Y-1114962D01*
X-722193Y-1114909D01*
X-722152Y-1114851D01*
X-722146Y-1114845D01*
X-722135Y-1114821D01*
X-722117Y-1114786D01*
X-722094Y-1114739D01*
X-722076Y-1114686D01*
X-722058Y-1114628D01*
X-722047Y-1114557D01*
X-722041Y-1114487D01*
Y-1114481D01*
Y-1114475D01*
X-722047Y-1114440D01*
X-722053Y-1114387D01*
X-722064Y-1114317D01*
X-722094Y-1114246D01*
X-722129Y-1114164D01*
X-722182Y-1114088D01*
X-722252Y-1114012D01*
X-722264Y-1114006D01*
X-722293Y-1113982D01*
X-722340Y-1113953D01*
X-722416Y-1113918D01*
X-722504Y-1113883D01*
X-722622Y-1113853D01*
X-722757Y-1113830D01*
X-722915Y-1113824D01*
D02*
G37*
G36*
X-750656D02*
X-751935D01*
Y-1115167D01*
X-750726D01*
X-750656Y-1115162D01*
X-750574Y-1115156D01*
X-750480Y-1115150D01*
X-750386Y-1115138D01*
X-750292Y-1115121D01*
X-750210Y-1115097D01*
X-750198Y-1115091D01*
X-750175Y-1115079D01*
X-750140Y-1115062D01*
X-750093Y-1115038D01*
X-750040Y-1115003D01*
X-749987Y-1114962D01*
X-749934Y-1114909D01*
X-749893Y-1114851D01*
X-749887Y-1114845D01*
X-749876Y-1114821D01*
X-749858Y-1114786D01*
X-749835Y-1114739D01*
X-749817Y-1114686D01*
X-749799Y-1114628D01*
X-749788Y-1114557D01*
X-749782Y-1114487D01*
Y-1114481D01*
Y-1114475D01*
X-749788Y-1114440D01*
X-749794Y-1114387D01*
X-749805Y-1114317D01*
X-749835Y-1114246D01*
X-749870Y-1114164D01*
X-749923Y-1114088D01*
X-749993Y-1114012D01*
X-750005Y-1114006D01*
X-750034Y-1113982D01*
X-750081Y-1113953D01*
X-750157Y-1113918D01*
X-750245Y-1113883D01*
X-750363Y-1113853D01*
X-750498Y-1113830D01*
X-750656Y-1113824D01*
D02*
G37*
G36*
X-684220Y-1113765D02*
X-684255D01*
X-684278Y-1113771D01*
X-684343Y-1113783D01*
X-684419Y-1113800D01*
X-684507Y-1113836D01*
X-684601Y-1113888D01*
X-684648Y-1113924D01*
X-684695Y-1113959D01*
X-684736Y-1114006D01*
X-684777Y-1114059D01*
Y-1114064D01*
X-684789Y-1114076D01*
X-684800Y-1114100D01*
X-684818Y-1114129D01*
X-684836Y-1114176D01*
X-684859Y-1114229D01*
X-684877Y-1114293D01*
X-684900Y-1114370D01*
X-684924Y-1114458D01*
X-684947Y-1114557D01*
X-684971Y-1114669D01*
X-684988Y-1114792D01*
X-685006Y-1114933D01*
X-685017Y-1115085D01*
X-685023Y-1115250D01*
X-685029Y-1115432D01*
Y-1115443D01*
Y-1115473D01*
Y-1115525D01*
X-685023Y-1115596D01*
Y-1115672D01*
X-685017Y-1115766D01*
X-685012Y-1115866D01*
X-685000Y-1115971D01*
X-684971Y-1116200D01*
X-684953Y-1116312D01*
X-684930Y-1116417D01*
X-684906Y-1116517D01*
X-684871Y-1116611D01*
X-684836Y-1116693D01*
X-684794Y-1116764D01*
Y-1116769D01*
X-684783Y-1116775D01*
X-684753Y-1116816D01*
X-684701Y-1116869D01*
X-684636Y-1116928D01*
X-684548Y-1116986D01*
X-684448Y-1117039D01*
X-684337Y-1117080D01*
X-684278Y-1117086D01*
X-684214Y-1117092D01*
X-684178D01*
X-684155Y-1117086D01*
X-684096Y-1117074D01*
X-684014Y-1117051D01*
X-683926Y-1117010D01*
X-683826Y-1116951D01*
X-683780Y-1116916D01*
X-683733Y-1116869D01*
X-683686Y-1116822D01*
X-683639Y-1116764D01*
Y-1116758D01*
X-683627Y-1116746D01*
X-683615Y-1116728D01*
X-683604Y-1116699D01*
X-683580Y-1116658D01*
X-683562Y-1116605D01*
X-683539Y-1116546D01*
X-683515Y-1116476D01*
X-683498Y-1116388D01*
X-683474Y-1116294D01*
X-683451Y-1116183D01*
X-683433Y-1116065D01*
X-683422Y-1115924D01*
X-683410Y-1115778D01*
X-683398Y-1115613D01*
Y-1115432D01*
Y-1115426D01*
Y-1115420D01*
Y-1115390D01*
Y-1115338D01*
X-683404Y-1115267D01*
Y-1115191D01*
X-683410Y-1115097D01*
X-683416Y-1114997D01*
X-683427Y-1114886D01*
X-683457Y-1114663D01*
X-683474Y-1114551D01*
X-683498Y-1114446D01*
X-683521Y-1114346D01*
X-683557Y-1114252D01*
X-683592Y-1114170D01*
X-683633Y-1114100D01*
Y-1114094D01*
X-683644Y-1114088D01*
X-683656Y-1114070D01*
X-683674Y-1114047D01*
X-683727Y-1113994D01*
X-683791Y-1113930D01*
X-683879Y-1113871D01*
X-683979Y-1113818D01*
X-684032Y-1113794D01*
X-684090Y-1113777D01*
X-684155Y-1113771D01*
X-684220Y-1113765D01*
D02*
G37*
G36*
X-707202D02*
X-707255D01*
X-707296Y-1113771D01*
X-707349Y-1113777D01*
X-707402Y-1113789D01*
X-707466Y-1113800D01*
X-707537Y-1113812D01*
X-707689Y-1113859D01*
X-707771Y-1113894D01*
X-707853Y-1113930D01*
X-707941Y-1113976D01*
X-708024Y-1114029D01*
X-708106Y-1114088D01*
X-708182Y-1114158D01*
X-708188Y-1114164D01*
X-708200Y-1114176D01*
X-708217Y-1114199D01*
X-708247Y-1114235D01*
X-708276Y-1114276D01*
X-708311Y-1114329D01*
X-708346Y-1114393D01*
X-708387Y-1114469D01*
X-708423Y-1114551D01*
X-708464Y-1114651D01*
X-708499Y-1114757D01*
X-708528Y-1114874D01*
X-708558Y-1115003D01*
X-708575Y-1115150D01*
X-708587Y-1115303D01*
X-708593Y-1115467D01*
Y-1115473D01*
Y-1115496D01*
Y-1115537D01*
X-708587Y-1115590D01*
X-708581Y-1115649D01*
X-708569Y-1115719D01*
X-708558Y-1115801D01*
X-708546Y-1115883D01*
X-708499Y-1116071D01*
X-708464Y-1116165D01*
X-708428Y-1116265D01*
X-708382Y-1116359D01*
X-708329Y-1116452D01*
X-708270Y-1116541D01*
X-708200Y-1116623D01*
X-708194Y-1116628D01*
X-708182Y-1116640D01*
X-708158Y-1116664D01*
X-708129Y-1116687D01*
X-708088Y-1116722D01*
X-708041Y-1116758D01*
X-707988Y-1116793D01*
X-707930Y-1116834D01*
X-707859Y-1116875D01*
X-707783Y-1116910D01*
X-707701Y-1116945D01*
X-707613Y-1116981D01*
X-707519Y-1117004D01*
X-707425Y-1117028D01*
X-707319Y-1117039D01*
X-707208Y-1117045D01*
X-707179D01*
X-707149Y-1117039D01*
X-707108D01*
X-707056Y-1117033D01*
X-706997Y-1117022D01*
X-706926Y-1117010D01*
X-706856Y-1116992D01*
X-706774Y-1116969D01*
X-706697Y-1116939D01*
X-706609Y-1116910D01*
X-706527Y-1116869D01*
X-706445Y-1116816D01*
X-706363Y-1116764D01*
X-706281Y-1116699D01*
X-706205Y-1116623D01*
X-706199Y-1116617D01*
X-706187Y-1116605D01*
X-706170Y-1116576D01*
X-706140Y-1116541D01*
X-706111Y-1116499D01*
X-706081Y-1116447D01*
X-706046Y-1116382D01*
X-706005Y-1116312D01*
X-705970Y-1116229D01*
X-705935Y-1116136D01*
X-705905Y-1116036D01*
X-705870Y-1115930D01*
X-705847Y-1115813D01*
X-705829Y-1115684D01*
X-705817Y-1115549D01*
X-705812Y-1115408D01*
Y-1115402D01*
Y-1115385D01*
Y-1115361D01*
Y-1115326D01*
X-705817Y-1115285D01*
Y-1115232D01*
X-705823Y-1115179D01*
X-705835Y-1115115D01*
X-705853Y-1114980D01*
X-705882Y-1114839D01*
X-705923Y-1114686D01*
X-705982Y-1114546D01*
Y-1114540D01*
X-705988Y-1114528D01*
X-705999Y-1114510D01*
X-706011Y-1114487D01*
X-706052Y-1114417D01*
X-706105Y-1114334D01*
X-706175Y-1114240D01*
X-706263Y-1114147D01*
X-706363Y-1114053D01*
X-706475Y-1113971D01*
X-706480D01*
X-706486Y-1113959D01*
X-706504Y-1113953D01*
X-706533Y-1113935D01*
X-706563Y-1113924D01*
X-706598Y-1113906D01*
X-706686Y-1113865D01*
X-706791Y-1113830D01*
X-706915Y-1113794D01*
X-707056Y-1113771D01*
X-707202Y-1113765D01*
D02*
G37*
G36*
X-717288D02*
X-717341D01*
X-717382Y-1113771D01*
X-717435Y-1113777D01*
X-717488Y-1113789D01*
X-717552Y-1113800D01*
X-717623Y-1113812D01*
X-717775Y-1113859D01*
X-717857Y-1113894D01*
X-717940Y-1113930D01*
X-718027Y-1113976D01*
X-718110Y-1114029D01*
X-718192Y-1114088D01*
X-718268Y-1114158D01*
X-718274Y-1114164D01*
X-718286Y-1114176D01*
X-718303Y-1114199D01*
X-718333Y-1114235D01*
X-718362Y-1114276D01*
X-718397Y-1114329D01*
X-718432Y-1114393D01*
X-718473Y-1114469D01*
X-718509Y-1114551D01*
X-718550Y-1114651D01*
X-718585Y-1114757D01*
X-718614Y-1114874D01*
X-718644Y-1115003D01*
X-718661Y-1115150D01*
X-718673Y-1115303D01*
X-718679Y-1115467D01*
Y-1115473D01*
Y-1115496D01*
Y-1115537D01*
X-718673Y-1115590D01*
X-718667Y-1115649D01*
X-718655Y-1115719D01*
X-718644Y-1115801D01*
X-718632Y-1115883D01*
X-718585Y-1116071D01*
X-718550Y-1116165D01*
X-718514Y-1116265D01*
X-718467Y-1116359D01*
X-718415Y-1116452D01*
X-718356Y-1116541D01*
X-718286Y-1116623D01*
X-718280Y-1116628D01*
X-718268Y-1116640D01*
X-718245Y-1116664D01*
X-718215Y-1116687D01*
X-718174Y-1116722D01*
X-718127Y-1116758D01*
X-718074Y-1116793D01*
X-718016Y-1116834D01*
X-717945Y-1116875D01*
X-717869Y-1116910D01*
X-717787Y-1116945D01*
X-717699Y-1116981D01*
X-717605Y-1117004D01*
X-717511Y-1117028D01*
X-717406Y-1117039D01*
X-717294Y-1117045D01*
X-717265D01*
X-717235Y-1117039D01*
X-717194D01*
X-717141Y-1117033D01*
X-717083Y-1117022D01*
X-717012Y-1117010D01*
X-716942Y-1116992D01*
X-716860Y-1116969D01*
X-716784Y-1116939D01*
X-716696Y-1116910D01*
X-716613Y-1116869D01*
X-716531Y-1116816D01*
X-716449Y-1116764D01*
X-716367Y-1116699D01*
X-716291Y-1116623D01*
X-716285Y-1116617D01*
X-716273Y-1116605D01*
X-716255Y-1116576D01*
X-716226Y-1116541D01*
X-716197Y-1116499D01*
X-716168Y-1116447D01*
X-716132Y-1116382D01*
X-716091Y-1116312D01*
X-716056Y-1116229D01*
X-716021Y-1116136D01*
X-715992Y-1116036D01*
X-715956Y-1115930D01*
X-715933Y-1115813D01*
X-715915Y-1115684D01*
X-715903Y-1115549D01*
X-715898Y-1115408D01*
Y-1115402D01*
Y-1115385D01*
Y-1115361D01*
Y-1115326D01*
X-715903Y-1115285D01*
Y-1115232D01*
X-715909Y-1115179D01*
X-715921Y-1115115D01*
X-715939Y-1114980D01*
X-715968Y-1114839D01*
X-716009Y-1114686D01*
X-716068Y-1114546D01*
Y-1114540D01*
X-716074Y-1114528D01*
X-716085Y-1114510D01*
X-716097Y-1114487D01*
X-716138Y-1114417D01*
X-716191Y-1114334D01*
X-716261Y-1114240D01*
X-716349Y-1114147D01*
X-716449Y-1114053D01*
X-716561Y-1113971D01*
X-716566D01*
X-716572Y-1113959D01*
X-716590Y-1113953D01*
X-716619Y-1113935D01*
X-716649Y-1113924D01*
X-716684Y-1113906D01*
X-716772Y-1113865D01*
X-716878Y-1113830D01*
X-717001Y-1113794D01*
X-717141Y-1113771D01*
X-717288Y-1113765D01*
D02*
G37*
G36*
X-746608D02*
X-746660D01*
X-746702Y-1113771D01*
X-746754Y-1113777D01*
X-746807Y-1113789D01*
X-746872Y-1113800D01*
X-746942Y-1113812D01*
X-747095Y-1113859D01*
X-747177Y-1113894D01*
X-747259Y-1113930D01*
X-747347Y-1113976D01*
X-747429Y-1114029D01*
X-747511Y-1114088D01*
X-747588Y-1114158D01*
X-747593Y-1114164D01*
X-747605Y-1114176D01*
X-747623Y-1114199D01*
X-747652Y-1114235D01*
X-747681Y-1114276D01*
X-747717Y-1114329D01*
X-747752Y-1114393D01*
X-747793Y-1114469D01*
X-747828Y-1114551D01*
X-747869Y-1114651D01*
X-747904Y-1114757D01*
X-747934Y-1114874D01*
X-747963Y-1115003D01*
X-747981Y-1115150D01*
X-747992Y-1115303D01*
X-747998Y-1115467D01*
Y-1115473D01*
Y-1115496D01*
Y-1115537D01*
X-747992Y-1115590D01*
X-747986Y-1115649D01*
X-747975Y-1115719D01*
X-747963Y-1115801D01*
X-747951Y-1115883D01*
X-747904Y-1116071D01*
X-747869Y-1116165D01*
X-747834Y-1116265D01*
X-747787Y-1116359D01*
X-747734Y-1116452D01*
X-747675Y-1116541D01*
X-747605Y-1116623D01*
X-747599Y-1116628D01*
X-747588Y-1116640D01*
X-747564Y-1116664D01*
X-747535Y-1116687D01*
X-747494Y-1116722D01*
X-747447Y-1116758D01*
X-747394Y-1116793D01*
X-747335Y-1116834D01*
X-747265Y-1116875D01*
X-747188Y-1116910D01*
X-747106Y-1116945D01*
X-747018Y-1116981D01*
X-746924Y-1117004D01*
X-746831Y-1117028D01*
X-746725Y-1117039D01*
X-746613Y-1117045D01*
X-746584D01*
X-746555Y-1117039D01*
X-746514D01*
X-746461Y-1117033D01*
X-746402Y-1117022D01*
X-746332Y-1117010D01*
X-746261Y-1116992D01*
X-746179Y-1116969D01*
X-746103Y-1116939D01*
X-746015Y-1116910D01*
X-745933Y-1116869D01*
X-745851Y-1116816D01*
X-745769Y-1116764D01*
X-745686Y-1116699D01*
X-745610Y-1116623D01*
X-745604Y-1116617D01*
X-745592Y-1116605D01*
X-745575Y-1116576D01*
X-745546Y-1116541D01*
X-745516Y-1116499D01*
X-745487Y-1116447D01*
X-745452Y-1116382D01*
X-745411Y-1116312D01*
X-745375Y-1116229D01*
X-745340Y-1116136D01*
X-745311Y-1116036D01*
X-745276Y-1115930D01*
X-745252Y-1115813D01*
X-745235Y-1115684D01*
X-745223Y-1115549D01*
X-745217Y-1115408D01*
Y-1115402D01*
Y-1115385D01*
Y-1115361D01*
Y-1115326D01*
X-745223Y-1115285D01*
Y-1115232D01*
X-745229Y-1115179D01*
X-745240Y-1115115D01*
X-745258Y-1114980D01*
X-745287Y-1114839D01*
X-745329Y-1114686D01*
X-745387Y-1114546D01*
Y-1114540D01*
X-745393Y-1114528D01*
X-745405Y-1114510D01*
X-745416Y-1114487D01*
X-745458Y-1114417D01*
X-745510Y-1114334D01*
X-745581Y-1114240D01*
X-745669Y-1114147D01*
X-745769Y-1114053D01*
X-745880Y-1113971D01*
X-745886D01*
X-745892Y-1113959D01*
X-745909Y-1113953D01*
X-745939Y-1113935D01*
X-745968Y-1113924D01*
X-746003Y-1113906D01*
X-746091Y-1113865D01*
X-746197Y-1113830D01*
X-746320Y-1113794D01*
X-746461Y-1113771D01*
X-746608Y-1113765D01*
D02*
G37*
%LPD*%
D19*
X95000Y367000D02*
Y393000D01*
Y367000D02*
X121000D01*
Y393000D01*
X95000D02*
X121000D01*
D122*
X-792820Y-1116128D02*
Y-1116064D01*
Y-1116204D02*
Y-1116144D01*
Y-1116204D02*
X-792782D01*
X-792853Y-1116144D02*
X-792788D01*
X-792853Y-1116128D02*
X-792788D01*
X-793410Y-1116894D02*
X-792827D01*
X-793117Y-1117211D02*
Y-1116582D01*
Y-1116794D02*
X-793108D01*
X-793117Y-1116803D02*
Y-1116794D01*
X-793126D02*
X-793117D01*
Y-1116785D01*
Y-1116994D02*
X-793108D01*
X-793117Y-1117003D02*
Y-1116994D01*
X-793126D02*
X-793117D01*
Y-1116985D01*
X-793347Y-1117064D02*
X-793338D01*
X-793347Y-1117073D02*
Y-1117064D01*
X-793356D02*
X-793347D01*
Y-1117055D01*
Y-1116819D02*
X-793338D01*
X-793347Y-1116828D02*
Y-1116819D01*
X-793356D02*
X-793347D01*
Y-1116810D01*
Y-1116724D02*
X-793338D01*
X-793347Y-1116733D02*
Y-1116724D01*
X-793356D02*
X-793347D01*
Y-1116715D01*
X-793252Y-1116634D02*
X-793243D01*
X-793252Y-1116643D02*
Y-1116634D01*
X-793261D02*
X-793252D01*
Y-1116625D01*
X-792977Y-1116634D02*
X-792968D01*
X-792977Y-1116643D02*
Y-1116634D01*
X-792986D02*
X-792977D01*
Y-1116625D01*
X-792887Y-1116724D02*
X-792878D01*
X-792887Y-1116733D02*
Y-1116724D01*
X-792896D02*
X-792887D01*
Y-1116715D01*
Y-1116969D02*
X-792878D01*
X-792887Y-1116978D02*
Y-1116969D01*
X-792896D02*
X-792887D01*
Y-1116960D01*
Y-1117064D02*
X-792878D01*
X-792887Y-1117073D02*
Y-1117064D01*
X-792896D02*
X-792887D01*
Y-1117055D01*
X-792982Y-1117154D02*
X-792973D01*
X-792982Y-1117163D02*
Y-1117154D01*
X-792991D02*
X-792982D01*
Y-1117145D01*
X-793257Y-1117154D02*
X-793248D01*
X-793257Y-1117163D02*
Y-1117154D01*
X-793266D02*
X-793257D01*
Y-1117145D01*
X-793347Y-1117154D02*
X-793338D01*
X-793347Y-1117163D02*
Y-1117154D01*
X-793356D02*
X-793347D01*
Y-1117145D01*
X-793523Y-1116514D02*
X-793485D01*
X-793306Y-1116786D02*
X-793271Y-1116839D01*
X-793485Y-1116514D02*
X-793306Y-1116786D01*
X-793436Y-1117205D02*
X-793398D01*
X-793298Y-1117105D02*
X-793254Y-1117060D01*
X-793398Y-1117205D02*
X-793298Y-1117105D01*
X-793374Y-1117290D02*
X-793336D01*
X-793267Y-1117172D01*
X-792874Y-1116990D02*
X-792853D01*
X-792803Y-1116982D01*
X-792753D01*
X-792874Y-1116703D02*
X-792753D01*
X-793334Y-1117085D02*
X-792753D01*
X-793334Y-1116798D02*
X-793198D01*
X-793148Y-1116822D01*
X-792753D01*
X-792969Y-1117175D02*
X-792753D01*
X-792964Y-1116613D02*
X-792753D01*
X-793104Y-1116994D02*
X-793031D01*
X-793001Y-1117030D01*
X-792753D01*
X-793104Y-1116794D02*
X-792853D01*
X-792803Y-1116748D01*
X-792753D01*
X-792813Y-1116894D02*
X-792753D01*
X-792956Y-1116621D02*
Y-1116564D01*
X-792928Y-1116545D01*
Y-1116499D01*
X-793278Y-1117141D02*
Y-1116571D01*
X-793321Y-1116543D02*
X-793278Y-1116571D01*
X-793321Y-1116543D02*
Y-1116499D01*
X-792961Y-1117051D02*
Y-1116591D01*
X-792993Y-1116541D02*
X-792961Y-1116591D01*
X-792993Y-1116541D02*
Y-1116499D01*
X-792866Y-1116711D02*
Y-1116499D01*
X-793273Y-1116621D02*
Y-1116499D01*
X-793368Y-1116806D02*
Y-1116499D01*
X-793117Y-1116570D02*
Y-1116499D01*
X-792838Y-1116514D02*
X-792799D01*
X-793105Y-1116782D02*
X-792838Y-1116514D01*
X-793878Y-1117817D02*
X-792742D01*
X-792909D02*
Y-1117785D01*
X-793018Y-1117817D02*
Y-1117785D01*
X-793112Y-1117817D02*
Y-1117785D01*
X-793198Y-1117817D02*
Y-1117785D01*
X-793808Y-1117817D02*
Y-1117785D01*
X-793878D02*
X-792742D01*
Y-1117850D02*
Y-1117785D01*
X-793878Y-1117850D02*
X-792742D01*
X-793878D02*
Y-1117785D01*
X-793355Y-1117879D02*
Y-1117850D01*
X-792832Y-1117879D02*
Y-1117850D01*
X-792309Y-1117879D02*
Y-1117850D01*
X-791785Y-1117879D02*
Y-1117850D01*
X-791262Y-1116364D02*
X-791230D01*
X-791262Y-1116859D02*
X-791230D01*
X-791262Y-1117354D02*
X-791230D01*
X-791963Y-1117850D02*
Y-1117685D01*
X-792354D02*
X-791963D01*
X-792354Y-1117602D02*
X-791862D01*
X-792204Y-1117850D02*
Y-1117766D01*
X-792099Y-1117850D02*
Y-1117766D01*
X-792354Y-1117792D02*
X-791963D01*
X-792354Y-1117766D02*
X-791963D01*
X-792742Y-1117822D02*
X-791963D01*
X-792742Y-1117675D02*
X-792354D01*
X-791507Y-1117850D02*
Y-1117796D01*
X-791434D02*
Y-1117685D01*
X-791754Y-1117850D02*
Y-1117796D01*
X-791862D02*
Y-1117685D01*
X-792354Y-1117850D02*
X-791963D01*
Y-1117685D02*
X-791262D01*
X-791963Y-1117796D02*
X-791262D01*
X-791862Y-1117685D02*
Y-1117524D01*
X-792354Y-1117850D02*
Y-1117524D01*
X-792742D02*
X-791262D01*
X-792742Y-1117850D02*
Y-1117524D01*
X-791262Y-1117850D02*
Y-1115869D01*
X-793878Y-1117850D02*
X-791262D01*
X-793878D02*
Y-1115869D01*
X-791262D01*
D123*
X299000Y335000D02*
Y347000D01*
X275000Y335000D02*
Y347000D01*
Y335000D02*
X299000D01*
X275000Y347000D02*
X299000D01*
X282250Y341000D02*
X291750D01*
X287000Y336250D02*
Y345750D01*
X288000Y238250D02*
Y247750D01*
X283250Y243000D02*
X292750D01*
X276000Y249000D02*
X300000D01*
X276000Y237000D02*
X300000D01*
X276000D02*
Y249000D01*
X300000Y237000D02*
Y249000D01*
X287000Y285250D02*
Y294750D01*
X282250Y290000D02*
X291750D01*
X275000Y296000D02*
X299000D01*
X275000Y284000D02*
X299000D01*
X275000D02*
Y296000D01*
X299000Y284000D02*
Y296000D01*
M02*
