G04*
G04 #@! TF.GenerationSoftware,Altium Limited,Altium Designer,21.6.1 (37)*
G04*
G04 Layer_Color=16711935*
%FSLAX44Y44*%
%MOMM*%
G71*
G04*
G04 #@! TF.SameCoordinates,92C9E3DA-2EC7-41D8-9103-AA549F60DB15*
G04*
G04*
G04 #@! TF.FilePolarity,Negative*
G04*
G01*
G75*
%ADD89C,1.7032*%
%ADD90R,1.7032X1.7032*%
%ADD91C,1.7272*%
%ADD92O,1.4032X1.9032*%
%ADD93O,1.2032X1.6032*%
%ADD94R,2.7032X2.7032*%
%ADD95C,2.7032*%
%ADD96C,3.1532*%
%ADD97C,4.7752*%
%ADD98C,0.6096*%
D89*
X297180Y543306D02*
D03*
X322580D02*
D03*
X271780D02*
D03*
D90*
X347980D02*
D03*
D91*
X463446Y325628D02*
D03*
Y351028D02*
D03*
X336446Y376428D02*
D03*
Y325628D02*
D03*
D92*
X329750Y35100D02*
D03*
X384250D02*
D03*
D93*
X332750Y65400D02*
D03*
X381250D02*
D03*
D94*
X301282Y494538D02*
D03*
D95*
X351282D02*
D03*
D96*
X170000Y447350D02*
D03*
Y523550D02*
D03*
X170000Y108650D02*
D03*
Y32450D02*
D03*
D97*
X251300Y181500D02*
D03*
Y381500D02*
D03*
D98*
X486156Y352552D02*
D03*
X486410Y413004D02*
D03*
X247000Y415036D02*
D03*
X239944Y20742D02*
D03*
X240284Y28448D02*
D03*
X100355Y51355D02*
D03*
X446000Y455000D02*
D03*
X191487Y214339D02*
D03*
X217327Y211000D02*
D03*
X330000Y99932D02*
D03*
X374000Y183000D02*
D03*
X245000Y450000D02*
D03*
X228571Y441571D02*
D03*
X239239Y445442D02*
D03*
X279807Y446964D02*
D03*
X223000Y476000D02*
D03*
X147488Y218000D02*
D03*
X162990Y212412D02*
D03*
X184303Y214125D02*
D03*
X173635D02*
D03*
X125000Y173000D02*
D03*
X110000Y106136D02*
D03*
X151000Y55000D02*
D03*
X127000Y117730D02*
D03*
X200000Y146000D02*
D03*
X218000Y111000D02*
D03*
X96204Y173986D02*
D03*
X115000Y174000D02*
D03*
X107000D02*
D03*
X253000Y450000D02*
D03*
X240000Y58000D02*
D03*
X268000Y444000D02*
D03*
X319000Y355000D02*
D03*
X280000Y353000D02*
D03*
X240000Y51000D02*
D03*
X354000Y135000D02*
D03*
X338544Y134269D02*
D03*
X156000Y470000D02*
D03*
X281000Y230000D02*
D03*
X186998Y344998D02*
D03*
X206000Y346000D02*
D03*
X216000D02*
D03*
X379000Y295000D02*
D03*
X318000Y240000D02*
D03*
X307000Y75080D02*
D03*
X128946Y258818D02*
D03*
X206000Y211000D02*
D03*
X256559Y413582D02*
D03*
X307000Y89000D02*
D03*
X193000Y94000D02*
D03*
X137000Y70000D02*
D03*
X228392Y211000D02*
D03*
X239000Y148000D02*
D03*
X197666Y347000D02*
D03*
X386000Y318000D02*
D03*
X447730Y196248D02*
D03*
X341000Y295000D02*
D03*
X189000Y548000D02*
D03*
X108000Y219000D02*
D03*
X309000Y298000D02*
D03*
X455730Y250248D02*
D03*
X437730Y232248D02*
D03*
M02*
