G04*
G04 #@! TF.GenerationSoftware,Altium Limited,Altium Designer,21.6.1 (37)*
G04*
G04 Layer_Color=16711935*
%FSLAX44Y44*%
%MOMM*%
G71*
G04*
G04 #@! TF.SameCoordinates,E93D91D5-E775-412F-AFD9-E5FE798DA7EF*
G04*
G04*
G04 #@! TF.FilePolarity,Positive*
G04*
G01*
G75*
%ADD10C,0.2000*%
%ADD11C,0.1000*%
%ADD16C,0.1524*%
%ADD91C,0.2540*%
D10*
X167000Y556000D02*
Y564000D01*
X151000D02*
X167000D01*
X151000Y556000D02*
Y564000D01*
Y556000D02*
X167000D01*
X158000Y538000D02*
Y546000D01*
X142000D02*
X158000D01*
X142000Y538000D02*
Y546000D01*
Y538000D02*
X158000D01*
X111000Y557000D02*
X119000D01*
X111000Y541000D02*
Y557000D01*
Y541000D02*
X119000D01*
Y557000D01*
D11*
X48500Y468000D02*
X63500D01*
Y460000D02*
Y468000D01*
X48500Y460000D02*
X63500D01*
X48500D02*
Y468000D01*
D16*
X165018Y556710D02*
X166076Y555652D01*
X168192D01*
X169250Y556710D01*
Y560942D01*
X168192Y562000D01*
X166076D01*
X165018Y560942D01*
X162902Y562000D02*
X160786D01*
X161844D01*
Y555652D01*
X162902Y556710D01*
X153380Y555652D02*
X157612D01*
Y558826D01*
X155496Y557768D01*
X154438D01*
X153380Y558826D01*
Y560942D01*
X154438Y562000D01*
X156554D01*
X157612Y560942D01*
X156018Y538710D02*
X157076Y537652D01*
X159192D01*
X160250Y538710D01*
Y542942D01*
X159192Y544000D01*
X157076D01*
X156018Y542942D01*
X153902Y544000D02*
X151786D01*
X152844D01*
Y537652D01*
X153902Y538710D01*
X145438Y544000D02*
Y537652D01*
X148612Y540826D01*
X144380D01*
X49524Y463024D02*
Y469372D01*
X52698D01*
X53756Y468314D01*
Y466198D01*
X52698Y465140D01*
X49524D01*
X51640D02*
X53756Y463024D01*
X55872Y469372D02*
X60104D01*
Y468314D01*
X55872Y464082D01*
Y463024D01*
X119314Y553994D02*
X120372Y555052D01*
Y557168D01*
X119314Y558226D01*
X115082D01*
X114024Y557168D01*
Y555052D01*
X115082Y553994D01*
X114024Y551878D02*
Y549762D01*
Y550820D01*
X120372D01*
X119314Y551878D01*
X114024Y542356D02*
Y546588D01*
X118256Y542356D01*
X119314D01*
X120372Y543414D01*
Y545530D01*
X119314Y546588D01*
D91*
X5000Y-1000D02*
Y659000D01*
X235000D01*
X234000Y-1000D02*
Y659000D01*
X5000Y-1000D02*
X235000D01*
M02*
