G04*
G04 #@! TF.GenerationSoftware,Altium Limited,Altium Designer,21.6.1 (37)*
G04*
G04 Layer_Color=16711935*
%FSLAX44Y44*%
%MOMM*%
G71*
G04*
G04 #@! TF.SameCoordinates,4F178BE9-AC55-4CEC-B3A2-6D2310684F74*
G04*
G04*
G04 #@! TF.FilePolarity,Positive*
G04*
G01*
G75*
%ADD13C,0.2540*%
%ADD14C,0.2000*%
%ADD15C,0.1000*%
%ADD18C,0.1270*%
D13*
X225000Y450524D02*
X220768D01*
X222884Y452640D02*
Y448408D01*
X115000Y105476D02*
X119232D01*
X117116Y103360D02*
Y107592D01*
D14*
X258000Y83000D02*
Y99000D01*
X242000D02*
X258000D01*
X242000Y83000D02*
Y99000D01*
Y83000D02*
X258000D01*
X241500Y438850D02*
Y458850D01*
Y438850D02*
X261500D01*
Y458850D01*
X241500D02*
X261500D01*
X196000Y496000D02*
Y538000D01*
X228000D01*
Y496000D02*
Y538000D01*
X196000Y496000D02*
X228000D01*
X113000D02*
Y538000D01*
X145000D01*
Y496000D02*
Y538000D01*
X113000Y496000D02*
X145000D01*
X142000Y137000D02*
X148000D01*
X142000Y127000D02*
Y137000D01*
Y127000D02*
X148000D01*
Y137000D01*
X98000Y91000D02*
Y97000D01*
Y91000D02*
X108000D01*
Y97000D01*
X98000D02*
X108000D01*
D15*
X209800Y58100D02*
X290200D01*
X209800Y1900D02*
Y58100D01*
Y1900D02*
X290200D01*
Y58100D01*
X279500Y264500D02*
X296500D01*
X279500Y255500D02*
X296500D01*
X279500D02*
Y264500D01*
X296500Y255500D02*
Y264500D01*
Y270500D02*
Y279500D01*
X279500Y270500D02*
Y279500D01*
Y270500D02*
X296500D01*
X279500Y279500D02*
X296500D01*
X460500Y451500D02*
Y460500D01*
X477500Y451500D02*
Y460500D01*
X460500D02*
X477500D01*
X460500Y451500D02*
X477500D01*
X467000Y445500D02*
X483000D01*
Y416500D02*
Y445500D01*
X467000Y416500D02*
X483000D01*
X467000D02*
Y445500D01*
Y436000D02*
X476500Y445500D01*
X98500Y152500D02*
Y161500D01*
X115500Y152500D02*
Y161500D01*
X98500D02*
X115500D01*
X98500Y152500D02*
X115500D01*
X295500Y303500D02*
Y312500D01*
X278500Y303500D02*
Y312500D01*
Y303500D02*
X295500D01*
X278500Y312500D02*
X295500D01*
Y320500D02*
Y329500D01*
X278500Y320500D02*
Y329500D01*
Y320500D02*
X295500D01*
X278500Y329500D02*
X295500D01*
X355500Y300500D02*
Y309500D01*
X372500Y300500D02*
Y309500D01*
X355500D02*
X372500D01*
X355500Y300500D02*
X372500D01*
X326500Y163500D02*
X335500D01*
X326500Y180500D02*
X335500D01*
X326500Y163500D02*
Y180500D01*
X335500Y163500D02*
Y180500D01*
X399500Y163500D02*
X408500D01*
X399500Y180500D02*
X408500D01*
X399500Y163500D02*
Y180500D01*
X408500Y163500D02*
Y180500D01*
X106500Y319750D02*
X123500D01*
X106500Y310250D02*
X123500D01*
X106500D02*
Y319750D01*
X123500Y310250D02*
Y319750D01*
X255120Y134120D02*
X264620Y124620D01*
X235380Y134120D02*
X264620D01*
X235380Y117880D02*
Y134120D01*
Y117880D02*
X264620D01*
Y134120D01*
X94500Y130500D02*
X104000Y121000D01*
X94500D02*
X123500D01*
Y137000D01*
X94500D02*
X123500D01*
X94500Y121000D02*
Y137000D01*
X95500Y60500D02*
Y77500D01*
X104500Y60500D02*
Y77500D01*
X95500Y60500D02*
X104500D01*
X95500Y77500D02*
X104500D01*
X212500Y442500D02*
X229500D01*
X212500Y451500D02*
X229500D01*
Y442500D02*
Y451500D01*
X212500Y442500D02*
Y451500D01*
X278980Y457500D02*
X295980D01*
X278980Y448500D02*
X295980D01*
X278980D02*
Y457500D01*
X295980Y448500D02*
Y457500D01*
X74000Y306000D02*
X80000Y312000D01*
Y306000D02*
Y326000D01*
X10000D02*
X80000D01*
X10000Y306000D02*
Y326000D01*
Y306000D02*
X80000D01*
X161500Y484500D02*
Y501500D01*
X152500Y484500D02*
Y501500D01*
X161500D01*
X152500Y484500D02*
X161500D01*
X237250Y501500D02*
X246750D01*
X237250Y484500D02*
X246750D01*
Y501500D01*
X237250Y484500D02*
Y501500D01*
X106500Y254500D02*
X123500D01*
X106500Y245500D02*
X123500D01*
X106500D02*
Y254500D01*
X123500Y245500D02*
Y254500D01*
X106250Y261250D02*
X123750D01*
X106250Y270750D02*
X123750D01*
Y261250D02*
Y270750D01*
X106250Y261250D02*
Y270750D01*
D18*
X208100Y447350D02*
Y541850D01*
X131900Y447350D02*
X208100D01*
X131900D02*
Y541850D01*
X208100D01*
X131900Y14150D02*
Y108650D01*
X208100D01*
Y14150D02*
Y108650D01*
X131900Y14150D02*
X208100D01*
M02*
