G04*
G04 #@! TF.GenerationSoftware,Altium Limited,Altium Designer,21.6.1 (37)*
G04*
G04 Layer_Color=8388736*
%FSLAX44Y44*%
%MOMM*%
G71*
G04*
G04 #@! TF.SameCoordinates,E758BAB5-E73B-4707-80CC-DB64F6B6F8F5*
G04*
G04*
G04 #@! TF.FilePolarity,Positive*
G04*
G01*
G75*
%ADD10C,0.2000*%
%ADD16C,0.1524*%
D10*
X192953Y51961D02*
Y76961D01*
Y51961D02*
X224953D01*
Y76961D01*
X192953D02*
X224953D01*
X193000Y123500D02*
X225000D01*
Y98500D02*
Y123500D01*
X193000Y98500D02*
X225000D01*
X193000D02*
Y123500D01*
D16*
X-939337Y-1010213D02*
Y-1016561D01*
X-937221Y-1014445D01*
X-935105Y-1016561D01*
Y-1010213D01*
X-932989Y-1016561D02*
Y-1010213D01*
X-929815D01*
X-928757Y-1011271D01*
Y-1013387D01*
X-929815Y-1014445D01*
X-932989D01*
X-926641Y-1013387D02*
X-922409D01*
X-916061Y-1016561D02*
X-920293D01*
X-916061Y-1012329D01*
Y-1011271D01*
X-917120Y-1010213D01*
X-919235D01*
X-920293Y-1011271D01*
X-913945D02*
X-912887Y-1010213D01*
X-910771D01*
X-909714Y-1011271D01*
Y-1015503D01*
X-910771Y-1016561D01*
X-912887D01*
X-913945Y-1015503D01*
Y-1011271D01*
X-907598Y-1010213D02*
Y-1016561D01*
X-904424D01*
X-903366Y-1015503D01*
Y-1014445D01*
X-904424Y-1013387D01*
X-907598D01*
X-904424D01*
X-903366Y-1012329D01*
Y-1011271D01*
X-904424Y-1010213D01*
X-907598D01*
X-897018D02*
X-901250D01*
Y-1013387D01*
X-899134D01*
X-901250D01*
Y-1016561D01*
X-894902Y-1011271D02*
X-890670Y-1015503D01*
X-894902D02*
X-890670Y-1011271D01*
X-894902Y-1013387D02*
X-890670D01*
X-892786Y-1015503D02*
Y-1011271D01*
X-888554Y-1016561D02*
X-886438D01*
X-887496D01*
Y-1010213D01*
X-888554Y-1011271D01*
X-879032Y-1010213D02*
X-883264D01*
Y-1013387D01*
X-881148Y-1012329D01*
X-880090D01*
X-879032Y-1013387D01*
Y-1015503D01*
X-880090Y-1016561D01*
X-882206D01*
X-883264Y-1015503D01*
X-876916Y-1013387D02*
X-872684D01*
X-870568Y-1016561D02*
Y-1010213D01*
X-867394D01*
X-866336Y-1011271D01*
Y-1013387D01*
X-867394Y-1014445D01*
X-870568D01*
X-859988Y-1011271D02*
X-861046Y-1010213D01*
X-863162D01*
X-864220Y-1011271D01*
Y-1015503D01*
X-863162Y-1016561D01*
X-861046D01*
X-859988Y-1015503D01*
X-857872Y-1010213D02*
Y-1016561D01*
X-854698D01*
X-853640Y-1015503D01*
Y-1014445D01*
X-854698Y-1013387D01*
X-857872D01*
X-854698D01*
X-853640Y-1012329D01*
Y-1011271D01*
X-854698Y-1010213D01*
X-857872D01*
X-939442Y-1016656D02*
Y-1015598D01*
X-938384D01*
Y-1016656D01*
X-939442D01*
X-934152Y-1011366D02*
X-933094Y-1010308D01*
X-930978D01*
X-929920Y-1011366D01*
Y-1015598D01*
X-930978Y-1016656D01*
X-933094D01*
X-934152Y-1015598D01*
Y-1011366D01*
X-927804Y-1016656D02*
X-925688D01*
X-926746D01*
Y-1010308D01*
X-927804Y-1011366D01*
X-922514D02*
X-921456Y-1010308D01*
X-919340D01*
X-918282Y-1011366D01*
Y-1015598D01*
X-919340Y-1016656D01*
X-921456D01*
X-922514Y-1015598D01*
Y-1011366D01*
X-939571Y-1016656D02*
Y-1010308D01*
X-936397D01*
X-935339Y-1011366D01*
Y-1013482D01*
X-936397Y-1014540D01*
X-939571D01*
X-933223Y-1016656D02*
Y-1010308D01*
X-930049D01*
X-928991Y-1011366D01*
Y-1013482D01*
X-930049Y-1014540D01*
X-933223D01*
X-931107D02*
X-928991Y-1016656D01*
X-926875Y-1010308D02*
X-924759D01*
X-925817D01*
Y-1016656D01*
X-926875D01*
X-924759D01*
X-921585D02*
Y-1010308D01*
X-917353Y-1016656D01*
Y-1010308D01*
X-915237D02*
X-911005D01*
X-913121D01*
Y-1016656D01*
X-904657Y-1010308D02*
X-908889D01*
Y-1016656D01*
X-904657D01*
X-908889Y-1013482D02*
X-906773D01*
X-902541Y-1010308D02*
Y-1016656D01*
X-899367D01*
X-898309Y-1015598D01*
Y-1011366D01*
X-899367Y-1010308D01*
X-902541D01*
X-885613Y-1011366D02*
X-886671Y-1010308D01*
X-888787D01*
X-889845Y-1011366D01*
Y-1015598D01*
X-888787Y-1016656D01*
X-886671D01*
X-885613Y-1015598D01*
Y-1013482D01*
X-887729D01*
X-883497Y-1016656D02*
Y-1010308D01*
X-880323D01*
X-879265Y-1011366D01*
Y-1013482D01*
X-880323Y-1014540D01*
X-883497D01*
X-881381D02*
X-879265Y-1016656D01*
X-877149D02*
Y-1012424D01*
X-875033Y-1010308D01*
X-872917Y-1012424D01*
Y-1016656D01*
Y-1013482D01*
X-877149D01*
X-870801Y-1016656D02*
Y-1010308D01*
X-867627D01*
X-866569Y-1011366D01*
Y-1013482D01*
X-867627Y-1014540D01*
X-870801D01*
X-864453Y-1010308D02*
Y-1016656D01*
Y-1013482D01*
X-860221D01*
Y-1010308D01*
Y-1016656D01*
X-858105Y-1010308D02*
X-855989D01*
X-857047D01*
Y-1016656D01*
X-858105D01*
X-855989D01*
X-848583Y-1011366D02*
X-849641Y-1010308D01*
X-851757D01*
X-852815Y-1011366D01*
Y-1015598D01*
X-851757Y-1016656D01*
X-849641D01*
X-848583Y-1015598D01*
X-842235Y-1011366D02*
X-843294Y-1010308D01*
X-845409D01*
X-846468Y-1011366D01*
Y-1012424D01*
X-845409Y-1013482D01*
X-843294D01*
X-842235Y-1014540D01*
Y-1015598D01*
X-843294Y-1016656D01*
X-845409D01*
X-846468Y-1015598D01*
X-840119Y-1012424D02*
X-839062D01*
Y-1013482D01*
X-840119D01*
Y-1012424D01*
Y-1015598D02*
X-839062D01*
Y-1016656D01*
X-840119D01*
Y-1015598D01*
X-939425Y-1016630D02*
Y-1015573D01*
X-938367D01*
Y-1016630D01*
X-939425D01*
X-934135Y-1011340D02*
X-933077Y-1010283D01*
X-930961D01*
X-929903Y-1011340D01*
Y-1015573D01*
X-930961Y-1016630D01*
X-933077D01*
X-934135Y-1015573D01*
Y-1011340D01*
X-927787D02*
X-926729Y-1010283D01*
X-924613D01*
X-923555Y-1011340D01*
Y-1015573D01*
X-924613Y-1016630D01*
X-926729D01*
X-927787Y-1015573D01*
Y-1011340D01*
X-917207Y-1010283D02*
X-921439D01*
Y-1013456D01*
X-919323Y-1012399D01*
X-918265D01*
X-917207Y-1013456D01*
Y-1015573D01*
X-918265Y-1016630D01*
X-920381D01*
X-921439Y-1015573D01*
X-939572Y-1010283D02*
X-935340D01*
X-937456D01*
Y-1016630D01*
X-933224Y-1010283D02*
Y-1016630D01*
Y-1013456D01*
X-928992D01*
Y-1010283D01*
Y-1016630D01*
X-926876D02*
Y-1010283D01*
X-923702D01*
X-922644Y-1011340D01*
Y-1013456D01*
X-923702Y-1014514D01*
X-926876D01*
X-924760D02*
X-922644Y-1016630D01*
X-916296Y-1010283D02*
X-920528D01*
Y-1016630D01*
X-916296D01*
X-920528Y-1013456D02*
X-918412D01*
X-909949Y-1010283D02*
X-914181D01*
Y-1016630D01*
X-909949D01*
X-914181Y-1013456D02*
X-912065D01*
X-901485Y-1016630D02*
Y-1010283D01*
X-898311D01*
X-897253Y-1011340D01*
Y-1013456D01*
X-898311Y-1014514D01*
X-901485D01*
X-895137Y-1010283D02*
Y-1016630D01*
X-890905D01*
X-888789D02*
Y-1012399D01*
X-886673Y-1010283D01*
X-884557Y-1012399D01*
Y-1016630D01*
Y-1013456D01*
X-888789D01*
X-878209Y-1011340D02*
X-879267Y-1010283D01*
X-881383D01*
X-882441Y-1011340D01*
Y-1015573D01*
X-881383Y-1016630D01*
X-879267D01*
X-878209Y-1015573D01*
X-871861Y-1010283D02*
X-876093D01*
Y-1016630D01*
X-871861D01*
X-876093Y-1013456D02*
X-873977D01*
X-863397Y-1010283D02*
Y-1016630D01*
X-860223D01*
X-859165Y-1015573D01*
Y-1011340D01*
X-860223Y-1010283D01*
X-863397D01*
X-852817D02*
X-857049D01*
Y-1016630D01*
X-852817D01*
X-857049Y-1013456D02*
X-854933D01*
X-846469Y-1011340D02*
X-847527Y-1010283D01*
X-849643D01*
X-850701Y-1011340D01*
Y-1015573D01*
X-849643Y-1016630D01*
X-847527D01*
X-846469Y-1015573D01*
X-844353Y-1010283D02*
X-842237D01*
X-843295D01*
Y-1016630D01*
X-844353D01*
X-842237D01*
X-839063D02*
Y-1010283D01*
X-836947Y-1012399D01*
X-834831Y-1010283D01*
Y-1016630D01*
X-832715D02*
Y-1012399D01*
X-830599Y-1010283D01*
X-828483Y-1012399D01*
Y-1016630D01*
Y-1013456D01*
X-832715D01*
X-826367Y-1010283D02*
Y-1016630D01*
X-822135D01*
X-820019Y-1012399D02*
X-818961D01*
Y-1013456D01*
X-820019D01*
Y-1012399D01*
Y-1015573D02*
X-818961D01*
Y-1016630D01*
X-820019D01*
Y-1015573D01*
X-939429Y-1016605D02*
Y-1015547D01*
X-938371D01*
Y-1016605D01*
X-939429D01*
X-934139Y-1011315D02*
X-933082Y-1010257D01*
X-930965D01*
X-929908Y-1011315D01*
Y-1015547D01*
X-930965Y-1016605D01*
X-933082D01*
X-934139Y-1015547D01*
Y-1011315D01*
X-927792Y-1016605D02*
X-925676D01*
X-926733D01*
Y-1010257D01*
X-927792Y-1011315D01*
X-922502D02*
X-921444Y-1010257D01*
X-919328D01*
X-918270Y-1011315D01*
Y-1015547D01*
X-919328Y-1016605D01*
X-921444D01*
X-922502Y-1015547D01*
Y-1011315D01*
X-939572Y-1010257D02*
X-935340D01*
X-937456D01*
Y-1016605D01*
X-933224Y-1010257D02*
Y-1016605D01*
X-931108Y-1014489D01*
X-928992Y-1016605D01*
Y-1010257D01*
X-923702D02*
X-925818D01*
X-926876Y-1011315D01*
Y-1015547D01*
X-925818Y-1016605D01*
X-923702D01*
X-922644Y-1015547D01*
Y-1011315D01*
X-923702Y-1010257D01*
X-914180Y-1016605D02*
Y-1010257D01*
X-911006D01*
X-909948Y-1011315D01*
Y-1013431D01*
X-911006Y-1014489D01*
X-914180D01*
X-907832Y-1010257D02*
Y-1016605D01*
X-903600D01*
X-901485D02*
Y-1012373D01*
X-899369Y-1010257D01*
X-897253Y-1012373D01*
Y-1016605D01*
Y-1013431D01*
X-901485D01*
X-890905Y-1011315D02*
X-891963Y-1010257D01*
X-894079D01*
X-895136Y-1011315D01*
Y-1015547D01*
X-894079Y-1016605D01*
X-891963D01*
X-890905Y-1015547D01*
X-884557Y-1010257D02*
X-888789D01*
Y-1016605D01*
X-884557D01*
X-888789Y-1013431D02*
X-886673D01*
X-876093Y-1010257D02*
Y-1016605D01*
X-872919D01*
X-871861Y-1015547D01*
Y-1011315D01*
X-872919Y-1010257D01*
X-876093D01*
X-865513D02*
X-869745D01*
Y-1016605D01*
X-865513D01*
X-869745Y-1013431D02*
X-867629D01*
X-859165Y-1011315D02*
X-860223Y-1010257D01*
X-862339D01*
X-863397Y-1011315D01*
Y-1015547D01*
X-862339Y-1016605D01*
X-860223D01*
X-859165Y-1015547D01*
X-857049Y-1010257D02*
X-854933D01*
X-855991D01*
Y-1016605D01*
X-857049D01*
X-854933D01*
X-851759D02*
Y-1010257D01*
X-849643Y-1012373D01*
X-847527Y-1010257D01*
Y-1016605D01*
X-845411D02*
Y-1012373D01*
X-843295Y-1010257D01*
X-841179Y-1012373D01*
Y-1016605D01*
Y-1013431D01*
X-845411D01*
X-839063Y-1010257D02*
Y-1016605D01*
X-834831D01*
X-832715Y-1012373D02*
X-831657D01*
Y-1013431D01*
X-832715D01*
Y-1012373D01*
Y-1015547D02*
X-831657D01*
Y-1016605D01*
X-832715D01*
Y-1015547D01*
X-935191Y-1016580D02*
X-939423D01*
X-935191Y-1012348D01*
Y-1011290D01*
X-936249Y-1010232D01*
X-938365D01*
X-939423Y-1011290D01*
X-939564Y-1010232D02*
X-935332D01*
X-937448D01*
Y-1016580D01*
X-930042Y-1010232D02*
X-932158D01*
X-933216Y-1011290D01*
Y-1015522D01*
X-932158Y-1016580D01*
X-930042D01*
X-928984Y-1015522D01*
Y-1011290D01*
X-930042Y-1010232D01*
X-926868D02*
Y-1016580D01*
X-922636D01*
X-916288Y-1010232D02*
X-920520D01*
Y-1016580D01*
X-916288D01*
X-920520Y-1013406D02*
X-918404D01*
X-914172Y-1016580D02*
Y-1010232D01*
X-910998D01*
X-909940Y-1011290D01*
Y-1013406D01*
X-910998Y-1014464D01*
X-914172D01*
X-912056D02*
X-909940Y-1016580D01*
X-907824D02*
Y-1012348D01*
X-905708Y-1010232D01*
X-903592Y-1012348D01*
Y-1016580D01*
Y-1013406D01*
X-907824D01*
X-901477Y-1016580D02*
Y-1010232D01*
X-897244Y-1016580D01*
Y-1010232D01*
X-890897Y-1011290D02*
X-891954Y-1010232D01*
X-894071D01*
X-895128Y-1011290D01*
Y-1015522D01*
X-894071Y-1016580D01*
X-891954D01*
X-890897Y-1015522D01*
X-884549Y-1010232D02*
X-888781D01*
Y-1016580D01*
X-884549D01*
X-888781Y-1013406D02*
X-886665D01*
X-878201Y-1011290D02*
X-879259Y-1010232D01*
X-881375D01*
X-882433Y-1011290D01*
Y-1012348D01*
X-881375Y-1013406D01*
X-879259D01*
X-878201Y-1014464D01*
Y-1015522D01*
X-879259Y-1016580D01*
X-881375D01*
X-882433Y-1015522D01*
X-876085Y-1012348D02*
X-875027D01*
Y-1013406D01*
X-876085D01*
Y-1012348D01*
Y-1015522D02*
X-875027D01*
Y-1016580D01*
X-876085D01*
Y-1015522D01*
X-864447Y-1016580D02*
Y-1012348D01*
X-862331Y-1010232D01*
X-860215Y-1012348D01*
Y-1016580D01*
Y-1013406D01*
X-864447D01*
X-858099Y-1016580D02*
Y-1010232D01*
X-853867Y-1016580D01*
Y-1010232D01*
X-847519Y-1011290D02*
X-848577Y-1010232D01*
X-850693D01*
X-851751Y-1011290D01*
Y-1015522D01*
X-850693Y-1016580D01*
X-848577D01*
X-847519Y-1015522D01*
Y-1013406D01*
X-849635D01*
X-845403Y-1010232D02*
Y-1015522D01*
X-844345Y-1016580D01*
X-842229D01*
X-841171Y-1015522D01*
Y-1010232D01*
X-839055D02*
Y-1016580D01*
X-834823D01*
X-832707D02*
Y-1012348D01*
X-830591Y-1010232D01*
X-828475Y-1012348D01*
Y-1016580D01*
Y-1013406D01*
X-832707D01*
X-826359Y-1016580D02*
Y-1010232D01*
X-823185D01*
X-822127Y-1011290D01*
Y-1013406D01*
X-823185Y-1014464D01*
X-826359D01*
X-824243D02*
X-822127Y-1016580D01*
X-820011Y-1012348D02*
X-818953D01*
Y-1013406D01*
X-820011D01*
Y-1012348D01*
Y-1015522D02*
X-818953D01*
Y-1016580D01*
X-820011D01*
Y-1015522D01*
X-939543Y-1010207D02*
Y-1016555D01*
X-936369D01*
X-935311Y-1015497D01*
Y-1011265D01*
X-936369Y-1010207D01*
X-939543D01*
X-933195D02*
X-931079D01*
X-932137D01*
Y-1016555D01*
X-933195D01*
X-931079D01*
X-927905D02*
Y-1010207D01*
X-925789Y-1012323D01*
X-923673Y-1010207D01*
Y-1016555D01*
X-917325Y-1010207D02*
X-921557D01*
Y-1016555D01*
X-917325D01*
X-921557Y-1013381D02*
X-919441D01*
X-915209Y-1016555D02*
Y-1010207D01*
X-910977Y-1016555D01*
Y-1010207D01*
X-904629Y-1011265D02*
X-905687Y-1010207D01*
X-907803D01*
X-908861Y-1011265D01*
Y-1012323D01*
X-907803Y-1013381D01*
X-905687D01*
X-904629Y-1014439D01*
Y-1015497D01*
X-905687Y-1016555D01*
X-907803D01*
X-908861Y-1015497D01*
X-902513Y-1010207D02*
X-900397D01*
X-901455D01*
Y-1016555D01*
X-902513D01*
X-900397D01*
X-894049Y-1010207D02*
X-896165D01*
X-897223Y-1011265D01*
Y-1015497D01*
X-896165Y-1016555D01*
X-894049D01*
X-892991Y-1015497D01*
Y-1011265D01*
X-894049Y-1010207D01*
X-890875Y-1016555D02*
Y-1010207D01*
X-886643Y-1016555D01*
Y-1010207D01*
X-880295Y-1011265D02*
X-881353Y-1010207D01*
X-883469D01*
X-884527Y-1011265D01*
Y-1012323D01*
X-883469Y-1013381D01*
X-881353D01*
X-880295Y-1014439D01*
Y-1015497D01*
X-881353Y-1016555D01*
X-883469D01*
X-884527Y-1015497D01*
X-871832Y-1016555D02*
Y-1012323D01*
X-869715Y-1010207D01*
X-867599Y-1012323D01*
Y-1016555D01*
Y-1013381D01*
X-871832D01*
X-865484Y-1016555D02*
Y-1010207D01*
X-862310D01*
X-861252Y-1011265D01*
Y-1013381D01*
X-862310Y-1014439D01*
X-865484D01*
X-863368D02*
X-861252Y-1016555D01*
X-854904Y-1010207D02*
X-859136D01*
Y-1016555D01*
X-854904D01*
X-859136Y-1013381D02*
X-857020D01*
X-846440Y-1010207D02*
X-844324D01*
X-845382D01*
Y-1016555D01*
X-846440D01*
X-844324D01*
X-841150D02*
Y-1010207D01*
X-836918Y-1016555D01*
Y-1010207D01*
X-834802Y-1012323D02*
X-833744D01*
Y-1013381D01*
X-834802D01*
Y-1012323D01*
Y-1015497D02*
X-833744D01*
Y-1016555D01*
X-834802D01*
Y-1015497D01*
X-823164Y-1010207D02*
X-821048D01*
X-822106D01*
Y-1016555D01*
X-823164D01*
X-821048D01*
X-817874D02*
Y-1010207D01*
X-813642Y-1016555D01*
Y-1010207D01*
X-807294Y-1011265D02*
X-808352Y-1010207D01*
X-810468D01*
X-811526Y-1011265D01*
Y-1015497D01*
X-810468Y-1016555D01*
X-808352D01*
X-807294Y-1015497D01*
X-805178Y-1010207D02*
Y-1016555D01*
Y-1013381D01*
X-800946D01*
Y-1010207D01*
Y-1016555D01*
X-794598Y-1010207D02*
X-798830D01*
Y-1016555D01*
X-794598D01*
X-798830Y-1013381D02*
X-796714D01*
X-788250Y-1011265D02*
X-789308Y-1010207D01*
X-791424D01*
X-792482Y-1011265D01*
Y-1012323D01*
X-791424Y-1013381D01*
X-789308D01*
X-788250Y-1014439D01*
Y-1015497D01*
X-789308Y-1016555D01*
X-791424D01*
X-792482Y-1015497D01*
X-784018Y-1016555D02*
X-786134D01*
Y-1010207D01*
X-784018D01*
X-780844Y-1016555D02*
Y-1012323D01*
X-779786D01*
X-778728Y-1013381D01*
Y-1016555D01*
Y-1013381D01*
X-777670Y-1012323D01*
X-776612Y-1013381D01*
Y-1016555D01*
X-774496D02*
Y-1012323D01*
X-773438D01*
X-772380Y-1013381D01*
Y-1016555D01*
Y-1013381D01*
X-771322Y-1012323D01*
X-770264Y-1013381D01*
Y-1016555D01*
X-768148D02*
X-766032D01*
Y-1010207D01*
X-768148D01*
X-939542Y-1010182D02*
Y-1015472D01*
X-938484Y-1016529D01*
X-936368D01*
X-935310Y-1015472D01*
Y-1010182D01*
X-933194Y-1016529D02*
Y-1010182D01*
X-928962Y-1016529D01*
Y-1010182D01*
X-926846D02*
Y-1016529D01*
X-922614D01*
X-916266Y-1010182D02*
X-920499D01*
Y-1016529D01*
X-916266D01*
X-920499Y-1013356D02*
X-918382D01*
X-909919Y-1011240D02*
X-910976Y-1010182D01*
X-913092D01*
X-914150Y-1011240D01*
Y-1012298D01*
X-913092Y-1013356D01*
X-910976D01*
X-909919Y-1014414D01*
Y-1015472D01*
X-910976Y-1016529D01*
X-913092D01*
X-914150Y-1015472D01*
X-903571Y-1011240D02*
X-904629Y-1010182D01*
X-906745D01*
X-907803Y-1011240D01*
Y-1012298D01*
X-906745Y-1013356D01*
X-904629D01*
X-903571Y-1014414D01*
Y-1015472D01*
X-904629Y-1016529D01*
X-906745D01*
X-907803Y-1015472D01*
X-891933Y-1010182D02*
X-894049D01*
X-895107Y-1011240D01*
Y-1015472D01*
X-894049Y-1016529D01*
X-891933D01*
X-890875Y-1015472D01*
Y-1011240D01*
X-891933Y-1010182D01*
X-888759D02*
X-884527D01*
X-886643D01*
Y-1016529D01*
X-882411Y-1010182D02*
Y-1016529D01*
Y-1013356D01*
X-878179D01*
Y-1010182D01*
Y-1016529D01*
X-871831Y-1010182D02*
X-876063D01*
Y-1016529D01*
X-871831D01*
X-876063Y-1013356D02*
X-873947D01*
X-869715Y-1016529D02*
Y-1010182D01*
X-866541D01*
X-865483Y-1011240D01*
Y-1013356D01*
X-866541Y-1014414D01*
X-869715D01*
X-867599D02*
X-865483Y-1016529D01*
X-863367Y-1010182D02*
Y-1016529D01*
X-861251Y-1014414D01*
X-859135Y-1016529D01*
Y-1010182D01*
X-857019D02*
X-854903D01*
X-855961D01*
Y-1016529D01*
X-857019D01*
X-854903D01*
X-847497Y-1011240D02*
X-848555Y-1010182D01*
X-850671D01*
X-851729Y-1011240D01*
Y-1012298D01*
X-850671Y-1013356D01*
X-848555D01*
X-847497Y-1014414D01*
Y-1015472D01*
X-848555Y-1016529D01*
X-850671D01*
X-851729Y-1015472D01*
X-841149Y-1010182D02*
X-845381D01*
Y-1016529D01*
X-841149D01*
X-845381Y-1013356D02*
X-843265D01*
X-828453Y-1011240D02*
X-829511Y-1010182D01*
X-831627D01*
X-832685Y-1011240D01*
Y-1012298D01*
X-831627Y-1013356D01*
X-829511D01*
X-828453Y-1014414D01*
Y-1015472D01*
X-829511Y-1016529D01*
X-831627D01*
X-832685Y-1015472D01*
X-826337Y-1016529D02*
Y-1010182D01*
X-823163D01*
X-822105Y-1011240D01*
Y-1013356D01*
X-823163Y-1014414D01*
X-826337D01*
X-815757Y-1010182D02*
X-819989D01*
Y-1016529D01*
X-815757D01*
X-819989Y-1013356D02*
X-817873D01*
X-809409Y-1011240D02*
X-810467Y-1010182D01*
X-812583D01*
X-813641Y-1011240D01*
Y-1015472D01*
X-812583Y-1016529D01*
X-810467D01*
X-809409Y-1015472D01*
X-807293Y-1010182D02*
X-805178D01*
X-806236D01*
Y-1016529D01*
X-807293D01*
X-805178D01*
X-797772Y-1010182D02*
X-802003D01*
Y-1013356D01*
X-799888D01*
X-802003D01*
Y-1016529D01*
X-795656Y-1010182D02*
X-793540D01*
X-794598D01*
Y-1016529D01*
X-795656D01*
X-793540D01*
X-786134Y-1010182D02*
X-790366D01*
Y-1016529D01*
X-786134D01*
X-790366Y-1013356D02*
X-788250D01*
X-784018Y-1010182D02*
Y-1016529D01*
X-780844D01*
X-779786Y-1015472D01*
Y-1011240D01*
X-780844Y-1010182D01*
X-784018D01*
X-777670Y-1012298D02*
X-776612D01*
Y-1013356D01*
X-777670D01*
Y-1012298D01*
Y-1015472D02*
X-776612D01*
Y-1016529D01*
X-777670D01*
Y-1015472D01*
X-935505Y-1011537D02*
X-936563Y-1010479D01*
X-938679D01*
X-939737Y-1011537D01*
Y-1015769D01*
X-938679Y-1016827D01*
X-936563D01*
X-935505Y-1015769D01*
X-933389Y-1016827D02*
Y-1012595D01*
X-931273Y-1010479D01*
X-929157Y-1012595D01*
Y-1016827D01*
Y-1013653D01*
X-933389D01*
X-927041Y-1010479D02*
Y-1016827D01*
X-923867D01*
X-922809Y-1015769D01*
Y-1011537D01*
X-923867Y-1010479D01*
X-927041D01*
X-910113D02*
X-914345D01*
Y-1013653D01*
X-912229D01*
X-914345D01*
Y-1016827D01*
X-907997Y-1010479D02*
X-905881D01*
X-906939D01*
Y-1016827D01*
X-907997D01*
X-905881D01*
X-902707Y-1010479D02*
Y-1016827D01*
X-898475D01*
X-892127Y-1010479D02*
X-896359D01*
Y-1016827D01*
X-892127D01*
X-896359Y-1013653D02*
X-894243D01*
X-890011Y-1012595D02*
X-888953D01*
Y-1013653D01*
X-890011D01*
Y-1012595D01*
Y-1015769D02*
X-888953D01*
Y-1016827D01*
X-890011D01*
Y-1015769D01*
X-878373Y-1010479D02*
Y-1016827D01*
X-876257Y-1014711D01*
X-874141Y-1016827D01*
Y-1010479D01*
X-872025Y-1016827D02*
Y-1010479D01*
X-868851D01*
X-867793Y-1011537D01*
Y-1013653D01*
X-868851Y-1014711D01*
X-872025D01*
X-865677Y-1013653D02*
X-861445D01*
X-855098Y-1016827D02*
X-859329D01*
X-855098Y-1012595D01*
Y-1011537D01*
X-856155Y-1010479D01*
X-858271D01*
X-859329Y-1011537D01*
X-852981D02*
X-851924Y-1010479D01*
X-849808D01*
X-848749Y-1011537D01*
Y-1015769D01*
X-849808Y-1016827D01*
X-851924D01*
X-852981Y-1015769D01*
Y-1011537D01*
X-846634Y-1010479D02*
Y-1016827D01*
X-843460D01*
X-842402Y-1015769D01*
Y-1014711D01*
X-843460Y-1013653D01*
X-846634D01*
X-843460D01*
X-842402Y-1012595D01*
Y-1011537D01*
X-843460Y-1010479D01*
X-846634D01*
X-836054D02*
X-840286D01*
Y-1013653D01*
X-838170D01*
X-840286D01*
Y-1016827D01*
X-833938Y-1013653D02*
X-829706D01*
X-831822Y-1011537D02*
Y-1015769D01*
X-827590Y-1016827D02*
X-825474D01*
X-826532D01*
Y-1010479D01*
X-827590Y-1011537D01*
X-818068Y-1010479D02*
X-822300D01*
Y-1013653D01*
X-820184Y-1012595D01*
X-819126D01*
X-818068Y-1013653D01*
Y-1015769D01*
X-819126Y-1016827D01*
X-821242D01*
X-822300Y-1015769D01*
X-815952Y-1013653D02*
X-811720D01*
X-809604Y-1016827D02*
Y-1010479D01*
X-806430D01*
X-805372Y-1011537D01*
Y-1013653D01*
X-806430Y-1014711D01*
X-809604D01*
X-799024Y-1011537D02*
X-800082Y-1010479D01*
X-802198D01*
X-803256Y-1011537D01*
Y-1015769D01*
X-802198Y-1016827D01*
X-800082D01*
X-799024Y-1015769D01*
X-796908Y-1010479D02*
Y-1016827D01*
X-793734D01*
X-792676Y-1015769D01*
Y-1014711D01*
X-793734Y-1013653D01*
X-796908D01*
X-793734D01*
X-792676Y-1012595D01*
Y-1011537D01*
X-793734Y-1010479D01*
X-796908D01*
X-938347Y-1013554D02*
X-934116D01*
X-938945Y-1016728D02*
Y-1012496D01*
X-936829Y-1010380D01*
X-934713Y-1012496D01*
Y-1016728D01*
Y-1013554D01*
X-938945D01*
X-935105Y-1010347D02*
X-939337D01*
Y-1013520D01*
X-937221D01*
X-939337D01*
Y-1016694D01*
X-932989Y-1010347D02*
Y-1016694D01*
X-928757D01*
X-926641D02*
Y-1012462D01*
X-924525Y-1010347D01*
X-922409Y-1012462D01*
Y-1016694D01*
Y-1013520D01*
X-926641D01*
X-920293Y-1016694D02*
Y-1010347D01*
X-918177Y-1012462D01*
X-916061Y-1010347D01*
Y-1016694D01*
X-909714Y-1010347D02*
X-913945D01*
Y-1016694D01*
X-909714D01*
X-913945Y-1013520D02*
X-911830D01*
X-901250Y-1016694D02*
Y-1010347D01*
X-898076D01*
X-897018Y-1011404D01*
Y-1013520D01*
X-898076Y-1014578D01*
X-901250D01*
X-899134D02*
X-897018Y-1016694D01*
X-894902D02*
Y-1012462D01*
X-892786Y-1010347D01*
X-890670Y-1012462D01*
Y-1016694D01*
Y-1013520D01*
X-894902D01*
X-888554Y-1010347D02*
X-884322D01*
X-886438D01*
Y-1016694D01*
X-882206Y-1010347D02*
X-880090D01*
X-881148D01*
Y-1016694D01*
X-882206D01*
X-880090D01*
X-876916D02*
Y-1010347D01*
X-872684Y-1016694D01*
Y-1010347D01*
X-866336Y-1011404D02*
X-867394Y-1010347D01*
X-869510D01*
X-870568Y-1011404D01*
Y-1015636D01*
X-869510Y-1016694D01*
X-867394D01*
X-866336Y-1015636D01*
Y-1013520D01*
X-868452D01*
X-939337Y-1016608D02*
Y-1010260D01*
X-937221Y-1012376D01*
X-935105Y-1010260D01*
Y-1016608D01*
X-932989D02*
Y-1012376D01*
X-930873Y-1010260D01*
X-928757Y-1012376D01*
Y-1016608D01*
Y-1013434D01*
X-932989D01*
X-926641Y-1010260D02*
X-922409D01*
X-924525D01*
Y-1016608D01*
X-916061Y-1010260D02*
X-920293D01*
Y-1016608D01*
X-916061D01*
X-920293Y-1013434D02*
X-918177D01*
X-913945Y-1016608D02*
Y-1010260D01*
X-910771D01*
X-909714Y-1011318D01*
Y-1013434D01*
X-910771Y-1014492D01*
X-913945D01*
X-911830D02*
X-909714Y-1016608D01*
X-907598Y-1010260D02*
X-905482D01*
X-906540D01*
Y-1016608D01*
X-907598D01*
X-905482D01*
X-902308D02*
Y-1012376D01*
X-900192Y-1010260D01*
X-898076Y-1012376D01*
Y-1016608D01*
Y-1013434D01*
X-902308D01*
X-895960Y-1010260D02*
Y-1016608D01*
X-891728D01*
X-939030Y-1011537D02*
X-937972Y-1010479D01*
X-935856D01*
X-934798Y-1011537D01*
Y-1012595D01*
X-935856Y-1013653D01*
X-934798Y-1014711D01*
Y-1015769D01*
X-935856Y-1016827D01*
X-937972D01*
X-939030Y-1015769D01*
Y-1014711D01*
X-937972Y-1013653D01*
X-939030Y-1012595D01*
Y-1011537D01*
X-937972Y-1013653D02*
X-935856D01*
X-932682Y-1016827D02*
X-928450Y-1012595D01*
X-926334Y-1016827D02*
X-924218D01*
X-925276D01*
Y-1010479D01*
X-926334Y-1011537D01*
X-916812Y-1010479D02*
X-918928Y-1011537D01*
X-921044Y-1013653D01*
Y-1015769D01*
X-919986Y-1016827D01*
X-917870D01*
X-916812Y-1015769D01*
Y-1014711D01*
X-917870Y-1013653D01*
X-921044D01*
X-914696Y-1016827D02*
X-910464Y-1012595D01*
X-904116Y-1016827D02*
X-908348D01*
X-904116Y-1012595D01*
Y-1011537D01*
X-905174Y-1010479D01*
X-907290D01*
X-908348Y-1011537D01*
X-902000D02*
X-900942Y-1010479D01*
X-898826D01*
X-897768Y-1011537D01*
Y-1015769D01*
X-898826Y-1016827D01*
X-900942D01*
X-902000Y-1015769D01*
Y-1011537D01*
X-895652Y-1016827D02*
X-893536D01*
X-894594D01*
Y-1010479D01*
X-895652Y-1011537D01*
X-890362Y-1016827D02*
X-888246D01*
X-889304D01*
Y-1010479D01*
X-890362Y-1011537D01*
X-939030Y-1011508D02*
X-937972Y-1010450D01*
X-935856D01*
X-934798Y-1011508D01*
Y-1012566D01*
X-935856Y-1013624D01*
X-934798Y-1014682D01*
Y-1015740D01*
X-935856Y-1016797D01*
X-937972D01*
X-939030Y-1015740D01*
Y-1014682D01*
X-937972Y-1013624D01*
X-939030Y-1012566D01*
Y-1011508D01*
X-937972Y-1013624D02*
X-935856D01*
X-932682Y-1016797D02*
X-928450Y-1012566D01*
X-926334Y-1016797D02*
X-924218D01*
X-925276D01*
Y-1010450D01*
X-926334Y-1011508D01*
X-916812Y-1016797D02*
X-921044D01*
X-916812Y-1012566D01*
Y-1011508D01*
X-917870Y-1010450D01*
X-919986D01*
X-921044Y-1011508D01*
X-914696Y-1016797D02*
X-910464Y-1012566D01*
X-904116Y-1016797D02*
X-908348D01*
X-904116Y-1012566D01*
Y-1011508D01*
X-905174Y-1010450D01*
X-907290D01*
X-908348Y-1011508D01*
X-902000D02*
X-900942Y-1010450D01*
X-898826D01*
X-897768Y-1011508D01*
Y-1015740D01*
X-898826Y-1016797D01*
X-900942D01*
X-902000Y-1015740D01*
Y-1011508D01*
X-895652Y-1016797D02*
X-893536D01*
X-894594D01*
Y-1010450D01*
X-895652Y-1011508D01*
X-890362Y-1016797D02*
X-888246D01*
X-889304D01*
Y-1010450D01*
X-890362Y-1011508D01*
X-939033Y-1010422D02*
Y-1016769D01*
X-935859D01*
X-934801Y-1015712D01*
Y-1011479D01*
X-935859Y-1010422D01*
X-939033D01*
X-932685Y-1016769D02*
Y-1012538D01*
X-930569Y-1010422D01*
X-928453Y-1012538D01*
Y-1016769D01*
Y-1013596D01*
X-932685D01*
X-926337Y-1010422D02*
X-922105D01*
X-924221D01*
Y-1016769D01*
X-915757Y-1010422D02*
X-919989D01*
Y-1016769D01*
X-915757D01*
X-919989Y-1013596D02*
X-917873D01*
X-939151Y-1016769D02*
Y-1010422D01*
X-934919Y-1016769D01*
Y-1010422D01*
X-932803Y-1016769D02*
Y-1012538D01*
X-930687Y-1010422D01*
X-928571Y-1012538D01*
Y-1016769D01*
Y-1013596D01*
X-932803D01*
X-926456Y-1016769D02*
Y-1010422D01*
X-924340Y-1012538D01*
X-922224Y-1010422D01*
Y-1016769D01*
X-915876Y-1010422D02*
X-920108D01*
Y-1016769D01*
X-915876D01*
X-920108Y-1013596D02*
X-917992D01*
X-939319Y-1010452D02*
Y-1016800D01*
X-936145D01*
X-935087Y-1015742D01*
Y-1011510D01*
X-936145Y-1010452D01*
X-939319D01*
X-932971Y-1016800D02*
Y-1010452D01*
X-929797D01*
X-928739Y-1011510D01*
Y-1013626D01*
X-929797Y-1014684D01*
X-932971D01*
X-930855D02*
X-928739Y-1016800D01*
X-926623D02*
Y-1012568D01*
X-924507Y-1010452D01*
X-922391Y-1012568D01*
Y-1016800D01*
Y-1013626D01*
X-926623D01*
X-920275Y-1010452D02*
Y-1016800D01*
X-918159Y-1014684D01*
X-916043Y-1016800D01*
Y-1010452D01*
X-913927Y-1016800D02*
Y-1010452D01*
X-909695Y-1016800D01*
Y-1010452D01*
X-935097Y-1011538D02*
X-936155Y-1010480D01*
X-938271D01*
X-939329Y-1011538D01*
Y-1015770D01*
X-938271Y-1016828D01*
X-936155D01*
X-935097Y-1015770D01*
X-932981Y-1010480D02*
Y-1016828D01*
Y-1013654D01*
X-928749D01*
Y-1010480D01*
Y-1016828D01*
X-922401Y-1010480D02*
X-926633D01*
Y-1016828D01*
X-922401D01*
X-926633Y-1013654D02*
X-924517D01*
X-916053Y-1011538D02*
X-917111Y-1010480D01*
X-919227D01*
X-920285Y-1011538D01*
Y-1015770D01*
X-919227Y-1016828D01*
X-917111D01*
X-916053Y-1015770D01*
X-913937Y-1010480D02*
Y-1016828D01*
Y-1014712D01*
X-909705Y-1010480D01*
X-912879Y-1013654D01*
X-909705Y-1016828D01*
X-903357Y-1010480D02*
X-907589D01*
Y-1016828D01*
X-903357D01*
X-907589Y-1013654D02*
X-905473D01*
X-901241Y-1010480D02*
Y-1016828D01*
X-898067D01*
X-897009Y-1015770D01*
Y-1011538D01*
X-898067Y-1010480D01*
X-901241D01*
X-939151Y-1010450D02*
Y-1016798D01*
X-935977D01*
X-934919Y-1015740D01*
Y-1011508D01*
X-935977Y-1010450D01*
X-939151D01*
X-932803Y-1016798D02*
Y-1015740D01*
X-931745D01*
Y-1016798D01*
X-932803D01*
X-927514D02*
Y-1010450D01*
X-925397Y-1012566D01*
X-923281Y-1010450D01*
Y-1016798D01*
X-921165D02*
Y-1015740D01*
X-920107D01*
Y-1016798D01*
X-921165D01*
X-911644Y-1010450D02*
X-915876D01*
Y-1013624D01*
X-913760D01*
X-915876D01*
Y-1016798D01*
X-909528D02*
Y-1015740D01*
X-908470D01*
Y-1016798D01*
X-909528D01*
X-934919Y-1011537D02*
X-935977Y-1010479D01*
X-938093D01*
X-939151Y-1011537D01*
Y-1015769D01*
X-938093Y-1016827D01*
X-935977D01*
X-934919Y-1015769D01*
X-932803Y-1016827D02*
Y-1015769D01*
X-931745D01*
Y-1016827D01*
X-932803D01*
X-923281Y-1011537D02*
X-924339Y-1010479D01*
X-926455D01*
X-927513Y-1011537D01*
Y-1015769D01*
X-926455Y-1016827D01*
X-924339D01*
X-923281Y-1015769D01*
X-921165Y-1016827D02*
Y-1015769D01*
X-920107D01*
Y-1016827D01*
X-921165D01*
X-915875Y-1010479D02*
Y-1016827D01*
X-912701D01*
X-911643Y-1015769D01*
Y-1014711D01*
X-912701Y-1013653D01*
X-915875D01*
X-912701D01*
X-911643Y-1012595D01*
Y-1011537D01*
X-912701Y-1010479D01*
X-915875D01*
X-909527Y-1016827D02*
Y-1015769D01*
X-908469D01*
Y-1016827D01*
X-909527D01*
X-934414Y-1016724D02*
X-938646D01*
X-934414Y-1012492D01*
Y-1011434D01*
X-935472Y-1010376D01*
X-937588D01*
X-938646Y-1011434D01*
X-932298D02*
X-931240Y-1010376D01*
X-929124D01*
X-928066Y-1011434D01*
Y-1015666D01*
X-929124Y-1016724D01*
X-931240D01*
X-932298Y-1015666D01*
Y-1011434D01*
X-925950Y-1010376D02*
Y-1016724D01*
X-922776D01*
X-921718Y-1015666D01*
Y-1014608D01*
X-922776Y-1013550D01*
X-925950D01*
X-922776D01*
X-921718Y-1012492D01*
Y-1011434D01*
X-922776Y-1010376D01*
X-925950D01*
X-915370D02*
X-919602D01*
Y-1013550D01*
X-917486D01*
X-919602D01*
Y-1016724D01*
X-913254Y-1011434D02*
X-909022Y-1015666D01*
X-913254D02*
X-909022Y-1011434D01*
X-913254Y-1013550D02*
X-909022D01*
X-911138Y-1015666D02*
Y-1011434D01*
X-906906Y-1016724D02*
X-904790D01*
X-905848D01*
Y-1010376D01*
X-906906Y-1011434D01*
X-897384Y-1010376D02*
X-901616D01*
Y-1013550D01*
X-899500Y-1012492D01*
X-898442D01*
X-897384Y-1013550D01*
Y-1015666D01*
X-898442Y-1016724D01*
X-900558D01*
X-901616Y-1015666D01*
X-932298Y-1016692D02*
Y-1010344D01*
X-929124D01*
X-928066Y-1011402D01*
Y-1013518D01*
X-929124Y-1014576D01*
X-932298D01*
X-921719Y-1011402D02*
X-922776Y-1010344D01*
X-924892D01*
X-925950Y-1011402D01*
Y-1015634D01*
X-924892Y-1016692D01*
X-922776D01*
X-921719Y-1015634D01*
X-919603Y-1010344D02*
Y-1016692D01*
X-916429D01*
X-915370Y-1015634D01*
Y-1014576D01*
X-916429Y-1013518D01*
X-919603D01*
X-916429D01*
X-915370Y-1012460D01*
Y-1011402D01*
X-916429Y-1010344D01*
X-919603D01*
X-906907D02*
X-902675D01*
X-904791D01*
Y-1016692D01*
X-896327Y-1010344D02*
X-900559D01*
Y-1016692D01*
X-896327D01*
X-900559Y-1013518D02*
X-898443D01*
X-894211Y-1016692D02*
Y-1010344D01*
X-892095Y-1012460D01*
X-889979Y-1010344D01*
Y-1016692D01*
X-887863D02*
Y-1010344D01*
X-884689D01*
X-883631Y-1011402D01*
Y-1013518D01*
X-884689Y-1014576D01*
X-887863D01*
X-881515Y-1010344D02*
Y-1016692D01*
X-877283D01*
X-875167D02*
Y-1012460D01*
X-873051Y-1010344D01*
X-870935Y-1012460D01*
Y-1016692D01*
Y-1013518D01*
X-875167D01*
X-868819Y-1010344D02*
X-864587D01*
X-866703D01*
Y-1016692D01*
X-858239Y-1010344D02*
X-862471D01*
Y-1016692D01*
X-858239D01*
X-862471Y-1013518D02*
X-860355D01*
X-839195Y-1010344D02*
X-843427D01*
Y-1013518D01*
X-841311D01*
X-843427D01*
Y-1016692D01*
X-833905Y-1010344D02*
X-836021D01*
X-837079Y-1011402D01*
Y-1015634D01*
X-836021Y-1016692D01*
X-833905D01*
X-832847Y-1015634D01*
Y-1011402D01*
X-833905Y-1010344D01*
X-830731Y-1016692D02*
Y-1010344D01*
X-827557D01*
X-826499Y-1011402D01*
Y-1013518D01*
X-827557Y-1014576D01*
X-830731D01*
X-828615D02*
X-826499Y-1016692D01*
X-818035Y-1010344D02*
Y-1016692D01*
X-815919Y-1014576D01*
X-813803Y-1016692D01*
Y-1010344D01*
X-811687Y-1016692D02*
Y-1010344D01*
X-808513D01*
X-807456Y-1011402D01*
Y-1013518D01*
X-808513Y-1014576D01*
X-811687D01*
X-805340Y-1013518D02*
X-801107D01*
X-939542Y-1016802D02*
Y-1010454D01*
X-936368D01*
X-935311Y-1011512D01*
Y-1013628D01*
X-936368Y-1014686D01*
X-939542D01*
X-928962Y-1010454D02*
X-933195D01*
Y-1016802D01*
X-928962D01*
X-933195Y-1013628D02*
X-931078D01*
X-926847Y-1016802D02*
Y-1010454D01*
X-923673D01*
X-922615Y-1011512D01*
Y-1013628D01*
X-923673Y-1014686D01*
X-926847D01*
X-924731D02*
X-922615Y-1016802D01*
X-920499D02*
Y-1010454D01*
X-918383Y-1012570D01*
X-916267Y-1010454D01*
Y-1016802D01*
X-914151Y-1010454D02*
X-912035D01*
X-913093D01*
Y-1016802D01*
X-914151D01*
X-912035D01*
X-904629Y-1011512D02*
X-905687Y-1010454D01*
X-907803D01*
X-908861Y-1011512D01*
Y-1012570D01*
X-907803Y-1013628D01*
X-905687D01*
X-904629Y-1014686D01*
Y-1015744D01*
X-905687Y-1016802D01*
X-907803D01*
X-908861Y-1015744D01*
X-898281Y-1011512D02*
X-899339Y-1010454D01*
X-901455D01*
X-902513Y-1011512D01*
Y-1012570D01*
X-901455Y-1013628D01*
X-899339D01*
X-898281Y-1014686D01*
Y-1015744D01*
X-899339Y-1016802D01*
X-901455D01*
X-902513Y-1015744D01*
X-896165Y-1010454D02*
X-894049D01*
X-895107D01*
Y-1016802D01*
X-896165D01*
X-894049D01*
X-887701Y-1010454D02*
X-889817D01*
X-890875Y-1011512D01*
Y-1015744D01*
X-889817Y-1016802D01*
X-887701D01*
X-886643Y-1015744D01*
Y-1011512D01*
X-887701Y-1010454D01*
X-884527Y-1016802D02*
Y-1010454D01*
X-880295Y-1016802D01*
Y-1010454D01*
X-868657D02*
X-870773D01*
X-871831Y-1011512D01*
Y-1015744D01*
X-870773Y-1016802D01*
X-868657D01*
X-867599Y-1015744D01*
Y-1011512D01*
X-868657Y-1010454D01*
X-861251D02*
X-865483D01*
Y-1013628D01*
X-863367D01*
X-865483D01*
Y-1016802D01*
X-852787D02*
Y-1010454D01*
X-849613D01*
X-848555Y-1011512D01*
Y-1013628D01*
X-849613Y-1014686D01*
X-852787D01*
X-843265Y-1010454D02*
X-845381D01*
X-846439Y-1011512D01*
Y-1015744D01*
X-845381Y-1016802D01*
X-843265D01*
X-842207Y-1015744D01*
Y-1011512D01*
X-843265Y-1010454D01*
X-840091D02*
Y-1016802D01*
X-835859D01*
X-833743Y-1010454D02*
Y-1011512D01*
X-831627Y-1013628D01*
X-829511Y-1011512D01*
Y-1010454D01*
X-831627Y-1013628D02*
Y-1016802D01*
X-823164Y-1011512D02*
X-824221Y-1010454D01*
X-826338D01*
X-827395Y-1011512D01*
Y-1015744D01*
X-826338Y-1016802D01*
X-824221D01*
X-823164Y-1015744D01*
X-821048Y-1016802D02*
Y-1012570D01*
X-818932Y-1010454D01*
X-816815Y-1012570D01*
Y-1016802D01*
Y-1013628D01*
X-821048D01*
X-810468Y-1011512D02*
X-811526Y-1010454D01*
X-813642D01*
X-814700Y-1011512D01*
Y-1012570D01*
X-813642Y-1013628D01*
X-811526D01*
X-810468Y-1014686D01*
Y-1015744D01*
X-811526Y-1016802D01*
X-813642D01*
X-814700Y-1015744D01*
X-804120Y-1010454D02*
X-808352D01*
Y-1016802D01*
X-804120D01*
X-808352Y-1013628D02*
X-806236D01*
X-795656Y-1010454D02*
X-793540D01*
X-794598D01*
Y-1016802D01*
X-795656D01*
X-793540D01*
X-786134Y-1011512D02*
X-787192Y-1010454D01*
X-789308D01*
X-790366Y-1011512D01*
Y-1012570D01*
X-789308Y-1013628D01*
X-787192D01*
X-786134Y-1014686D01*
Y-1015744D01*
X-787192Y-1016802D01*
X-789308D01*
X-790366Y-1015744D01*
X-777670Y-1016802D02*
Y-1010454D01*
X-774496D01*
X-773438Y-1011512D01*
Y-1013628D01*
X-774496Y-1014686D01*
X-777670D01*
X-771322Y-1016802D02*
Y-1010454D01*
X-768148D01*
X-767090Y-1011512D01*
Y-1013628D01*
X-768148Y-1014686D01*
X-771322D01*
X-769206D02*
X-767090Y-1016802D01*
X-761800Y-1010454D02*
X-763916D01*
X-764974Y-1011512D01*
Y-1015744D01*
X-763916Y-1016802D01*
X-761800D01*
X-760742Y-1015744D01*
Y-1011512D01*
X-761800Y-1010454D01*
X-758626D02*
Y-1016802D01*
Y-1013628D01*
X-754394D01*
Y-1010454D01*
Y-1016802D01*
X-752278Y-1010454D02*
X-750162D01*
X-751220D01*
Y-1016802D01*
X-752278D01*
X-750162D01*
X-746988Y-1010454D02*
Y-1016802D01*
X-743814D01*
X-742756Y-1015744D01*
Y-1014686D01*
X-743814Y-1013628D01*
X-746988D01*
X-743814D01*
X-742756Y-1012570D01*
Y-1011512D01*
X-743814Y-1010454D01*
X-746988D01*
X-740640D02*
X-738524D01*
X-739582D01*
Y-1016802D01*
X-740640D01*
X-738524D01*
X-735350Y-1010454D02*
X-731118D01*
X-733234D01*
Y-1016802D01*
X-724770Y-1010454D02*
X-729002D01*
Y-1016802D01*
X-724770D01*
X-729002Y-1013628D02*
X-726886D01*
X-722654Y-1010454D02*
Y-1016802D01*
X-719480D01*
X-718422Y-1015744D01*
Y-1011512D01*
X-719480Y-1010454D01*
X-722654D01*
X-716306Y-1016802D02*
Y-1015744D01*
X-715248D01*
Y-1016802D01*
X-716306D01*
X-936367Y-1010430D02*
X-938483D01*
X-939541Y-1011488D01*
Y-1015720D01*
X-938483Y-1016778D01*
X-936367D01*
X-935309Y-1015720D01*
Y-1011488D01*
X-936367Y-1010430D01*
X-933193Y-1016778D02*
Y-1010430D01*
X-930019D01*
X-928961Y-1011488D01*
Y-1013604D01*
X-930019Y-1014662D01*
X-933193D01*
X-931077D02*
X-928961Y-1016778D01*
X-920497D02*
Y-1012546D01*
X-918381Y-1010430D01*
X-916265Y-1012546D01*
Y-1016778D01*
Y-1013604D01*
X-920497D01*
X-909917Y-1011488D02*
X-910975Y-1010430D01*
X-913091D01*
X-914149Y-1011488D01*
Y-1012546D01*
X-913091Y-1013604D01*
X-910975D01*
X-909917Y-1014662D01*
Y-1015720D01*
X-910975Y-1016778D01*
X-913091D01*
X-914149Y-1015720D01*
X-901453Y-1016778D02*
Y-1012546D01*
X-899337Y-1010430D01*
X-897221Y-1012546D01*
Y-1016778D01*
Y-1013604D01*
X-901453D01*
X-888757Y-1010430D02*
Y-1016778D01*
X-886642Y-1014662D01*
X-884526Y-1016778D01*
Y-1010430D01*
X-882410D02*
Y-1016778D01*
Y-1013604D01*
X-878178D01*
Y-1010430D01*
Y-1016778D01*
X-872888Y-1010430D02*
X-875004D01*
X-876062Y-1011488D01*
Y-1015720D01*
X-875004Y-1016778D01*
X-872888D01*
X-871830Y-1015720D01*
Y-1011488D01*
X-872888Y-1010430D01*
X-869714D02*
Y-1016778D01*
X-865482D01*
X-859134Y-1010430D02*
X-863366D01*
Y-1016778D01*
X-859134D01*
X-863366Y-1013604D02*
X-861250D01*
X-850670Y-1010430D02*
Y-1016778D01*
X-848554Y-1014662D01*
X-846438Y-1016778D01*
Y-1010430D01*
X-844322D02*
X-842206D01*
X-843264D01*
Y-1016778D01*
X-844322D01*
X-842206D01*
X-839032Y-1010430D02*
X-834800D01*
X-836916D01*
Y-1016778D01*
X-832684Y-1010430D02*
Y-1016778D01*
Y-1013604D01*
X-828452D01*
Y-1010430D01*
Y-1016778D01*
X-823162Y-1010430D02*
X-825278D01*
X-826336Y-1011488D01*
Y-1015720D01*
X-825278Y-1016778D01*
X-823162D01*
X-822104Y-1015720D01*
Y-1011488D01*
X-823162Y-1010430D01*
X-819988D02*
Y-1015720D01*
X-818930Y-1016778D01*
X-816814D01*
X-815756Y-1015720D01*
Y-1010430D01*
X-813640D02*
X-809408D01*
X-811524D01*
Y-1016778D01*
X-800944Y-1010430D02*
X-796712D01*
X-798828D01*
Y-1016778D01*
X-794596Y-1010430D02*
Y-1016778D01*
Y-1013604D01*
X-790364D01*
Y-1010430D01*
Y-1016778D01*
X-784016Y-1010430D02*
X-788248D01*
Y-1016778D01*
X-784016D01*
X-788248Y-1013604D02*
X-786133D01*
X-775553Y-1010430D02*
Y-1016778D01*
X-773437Y-1014662D01*
X-771321Y-1016778D01*
Y-1010430D01*
X-769205Y-1016778D02*
Y-1010430D01*
X-766031D01*
X-764973Y-1011488D01*
Y-1013604D01*
X-766031Y-1014662D01*
X-769205D01*
X-767089D02*
X-764973Y-1016778D01*
X-762857Y-1010430D02*
X-760741D01*
X-761799D01*
Y-1016778D01*
X-762857D01*
X-760741D01*
X-757567Y-1010430D02*
X-753335D01*
X-755451D01*
Y-1016778D01*
X-751219Y-1010430D02*
X-746987D01*
X-749103D01*
Y-1016778D01*
X-740639Y-1010430D02*
X-744871D01*
Y-1016778D01*
X-740639D01*
X-744871Y-1013604D02*
X-742755D01*
X-738523Y-1016778D02*
Y-1010430D01*
X-734291Y-1016778D01*
Y-1010430D01*
X-939542Y-1016754D02*
Y-1010406D01*
X-936368D01*
X-935310Y-1011464D01*
Y-1013580D01*
X-936368Y-1014638D01*
X-939542D01*
X-930020Y-1010406D02*
X-932136D01*
X-933194Y-1011464D01*
Y-1015696D01*
X-932136Y-1016754D01*
X-930020D01*
X-928962Y-1015696D01*
Y-1011464D01*
X-930020Y-1010406D01*
X-926846D02*
Y-1016754D01*
X-922614D01*
X-920498Y-1010406D02*
Y-1011464D01*
X-918382Y-1013580D01*
X-916266Y-1011464D01*
Y-1010406D01*
X-918382Y-1013580D02*
Y-1016754D01*
X-909918Y-1011464D02*
X-910976Y-1010406D01*
X-913092D01*
X-914150Y-1011464D01*
Y-1015696D01*
X-913092Y-1016754D01*
X-910976D01*
X-909918Y-1015696D01*
X-907802Y-1016754D02*
Y-1012522D01*
X-905686Y-1010406D01*
X-903570Y-1012522D01*
Y-1016754D01*
Y-1013580D01*
X-907802D01*
X-897223Y-1011464D02*
X-898280Y-1010406D01*
X-900396D01*
X-901454Y-1011464D01*
Y-1012522D01*
X-900396Y-1013580D01*
X-898280D01*
X-897223Y-1014638D01*
Y-1015696D01*
X-898280Y-1016754D01*
X-900396D01*
X-901454Y-1015696D01*
X-890875Y-1010406D02*
X-895107D01*
Y-1016754D01*
X-890875D01*
X-895107Y-1013580D02*
X-892991D01*
X-888759Y-1016754D02*
Y-1015696D01*
X-887701D01*
Y-1016754D01*
X-888759D01*
X-870773D02*
Y-1012522D01*
X-868657Y-1010406D01*
X-866541Y-1012522D01*
Y-1016754D01*
Y-1013580D01*
X-870773D01*
X-864425Y-1016754D02*
Y-1010406D01*
X-860193Y-1016754D01*
Y-1010406D01*
X-858077D02*
Y-1011464D01*
X-855961Y-1013580D01*
X-853845Y-1011464D01*
Y-1010406D01*
X-855961Y-1013580D02*
Y-1016754D01*
X-845381D02*
Y-1010406D01*
X-842207D01*
X-841149Y-1011464D01*
Y-1013580D01*
X-842207Y-1014638D01*
X-845381D01*
X-843265D02*
X-841149Y-1016754D01*
X-834801Y-1010406D02*
X-839033D01*
Y-1016754D01*
X-834801D01*
X-839033Y-1013580D02*
X-836917D01*
X-832685Y-1016754D02*
Y-1010406D01*
X-829511D01*
X-828453Y-1011464D01*
Y-1013580D01*
X-829511Y-1014638D01*
X-832685D01*
X-826337Y-1016754D02*
Y-1010406D01*
X-823163D01*
X-822105Y-1011464D01*
Y-1013580D01*
X-823163Y-1014638D01*
X-826337D01*
X-824221D02*
X-822105Y-1016754D01*
X-816815Y-1010406D02*
X-818931D01*
X-819989Y-1011464D01*
Y-1015696D01*
X-818931Y-1016754D01*
X-816815D01*
X-815757Y-1015696D01*
Y-1011464D01*
X-816815Y-1010406D01*
X-813641D02*
Y-1016754D01*
X-810467D01*
X-809409Y-1015696D01*
Y-1011464D01*
X-810467Y-1010406D01*
X-813641D01*
X-807293D02*
Y-1015696D01*
X-806235Y-1016754D01*
X-804119D01*
X-803061Y-1015696D01*
Y-1010406D01*
X-796713Y-1011464D02*
X-797771Y-1010406D01*
X-799887D01*
X-800945Y-1011464D01*
Y-1015696D01*
X-799887Y-1016754D01*
X-797771D01*
X-796713Y-1015696D01*
X-794597Y-1010406D02*
X-790366D01*
X-792482D01*
Y-1016754D01*
X-788250Y-1010406D02*
X-786133D01*
X-787191D01*
Y-1016754D01*
X-788250D01*
X-786133D01*
X-779786Y-1010406D02*
X-781902D01*
X-782960Y-1011464D01*
Y-1015696D01*
X-781902Y-1016754D01*
X-779786D01*
X-778728Y-1015696D01*
Y-1011464D01*
X-779786Y-1010406D01*
X-776612Y-1016754D02*
Y-1010406D01*
X-772380Y-1016754D01*
Y-1010406D01*
X-763916D02*
X-761800D01*
X-762858D01*
Y-1016754D01*
X-763916D01*
X-761800D01*
X-758626D02*
Y-1010406D01*
X-754394Y-1016754D01*
Y-1010406D01*
X-745930Y-1016754D02*
Y-1010406D01*
X-742756D01*
X-741698Y-1011464D01*
Y-1013580D01*
X-742756Y-1014638D01*
X-745930D01*
X-739582Y-1016754D02*
Y-1012522D01*
X-737466Y-1010406D01*
X-735350Y-1012522D01*
Y-1016754D01*
Y-1013580D01*
X-739582D01*
X-733234Y-1016754D02*
Y-1010406D01*
X-730060D01*
X-729002Y-1011464D01*
Y-1013580D01*
X-730060Y-1014638D01*
X-733234D01*
X-731118D02*
X-729002Y-1016754D01*
X-726886Y-1010406D02*
X-722654D01*
X-724770D01*
Y-1016754D01*
X-939544Y-1010382D02*
Y-1016730D01*
X-936370D01*
X-935312Y-1015672D01*
Y-1011440D01*
X-936370Y-1010382D01*
X-939544D01*
X-933196Y-1016730D02*
Y-1010382D01*
X-930022D01*
X-928964Y-1011440D01*
Y-1013556D01*
X-930022Y-1014614D01*
X-933196D01*
X-931080D02*
X-928964Y-1016730D01*
X-926848D02*
Y-1012498D01*
X-924732Y-1010382D01*
X-922616Y-1012498D01*
Y-1016730D01*
Y-1013556D01*
X-926848D01*
X-920500Y-1010382D02*
Y-1016730D01*
X-918384Y-1014614D01*
X-916268Y-1016730D01*
Y-1010382D01*
X-914152D02*
X-912036D01*
X-913094D01*
Y-1016730D01*
X-914152D01*
X-912036D01*
X-908862D02*
Y-1010382D01*
X-904630Y-1016730D01*
Y-1010382D01*
X-898282Y-1011440D02*
X-899340Y-1010382D01*
X-901456D01*
X-902514Y-1011440D01*
Y-1015672D01*
X-901456Y-1016730D01*
X-899340D01*
X-898282Y-1015672D01*
Y-1013556D01*
X-900398D01*
X-889818Y-1010382D02*
X-887702D01*
X-888760D01*
Y-1016730D01*
X-889818D01*
X-887702D01*
X-880296Y-1011440D02*
X-881354Y-1010382D01*
X-883470D01*
X-884528Y-1011440D01*
Y-1012498D01*
X-883470Y-1013556D01*
X-881354D01*
X-880296Y-1014614D01*
Y-1015672D01*
X-881354Y-1016730D01*
X-883470D01*
X-884528Y-1015672D01*
X-871832Y-1010382D02*
X-867600D01*
X-869716D01*
Y-1016730D01*
X-865484Y-1010382D02*
Y-1016730D01*
Y-1013556D01*
X-861252D01*
Y-1010382D01*
Y-1016730D01*
X-854904Y-1010382D02*
X-859136D01*
Y-1016730D01*
X-854904D01*
X-859136Y-1013556D02*
X-857020D01*
X-842208Y-1011440D02*
X-843267Y-1010382D01*
X-845383D01*
X-846441Y-1011440D01*
Y-1012498D01*
X-845383Y-1013556D01*
X-843267D01*
X-842208Y-1014614D01*
Y-1015672D01*
X-843267Y-1016730D01*
X-845383D01*
X-846441Y-1015672D01*
X-836919Y-1010382D02*
X-839035D01*
X-840093Y-1011440D01*
Y-1015672D01*
X-839035Y-1016730D01*
X-836919D01*
X-835861Y-1015672D01*
Y-1011440D01*
X-836919Y-1010382D01*
X-833745D02*
Y-1016730D01*
X-829513D01*
X-823165Y-1010382D02*
X-827397D01*
Y-1016730D01*
X-823165D01*
X-827397Y-1013556D02*
X-825281D01*
X-814701Y-1016730D02*
Y-1010382D01*
X-811527D01*
X-810469Y-1011440D01*
Y-1013556D01*
X-811527Y-1014614D01*
X-814701D01*
X-808353Y-1016730D02*
Y-1010382D01*
X-805179D01*
X-804121Y-1011440D01*
Y-1013556D01*
X-805179Y-1014614D01*
X-808353D01*
X-806237D02*
X-804121Y-1016730D01*
X-798831Y-1010382D02*
X-800947D01*
X-802005Y-1011440D01*
Y-1015672D01*
X-800947Y-1016730D01*
X-798831D01*
X-797773Y-1015672D01*
Y-1011440D01*
X-798831Y-1010382D01*
X-795657Y-1016730D02*
Y-1010382D01*
X-792483D01*
X-791425Y-1011440D01*
Y-1013556D01*
X-792483Y-1014614D01*
X-795657D01*
X-785077Y-1010382D02*
X-789309D01*
Y-1016730D01*
X-785077D01*
X-789309Y-1013556D02*
X-787193D01*
X-782961Y-1016730D02*
Y-1010382D01*
X-779787D01*
X-778729Y-1011440D01*
Y-1013556D01*
X-779787Y-1014614D01*
X-782961D01*
X-780845D02*
X-778729Y-1016730D01*
X-776613Y-1010382D02*
X-772381D01*
X-774497D01*
Y-1016730D01*
X-770265Y-1010382D02*
Y-1011440D01*
X-768149Y-1013556D01*
X-766033Y-1011440D01*
Y-1010382D01*
X-768149Y-1013556D02*
Y-1016730D01*
X-754395Y-1010382D02*
X-756511D01*
X-757569Y-1011440D01*
Y-1015672D01*
X-756511Y-1016730D01*
X-754395D01*
X-753337Y-1015672D01*
Y-1011440D01*
X-754395Y-1010382D01*
X-746989D02*
X-751221D01*
Y-1013556D01*
X-749105D01*
X-751221D01*
Y-1016730D01*
X-939543Y-1010358D02*
X-935311D01*
X-937427D01*
Y-1016706D01*
X-933195Y-1010358D02*
Y-1016706D01*
Y-1013532D01*
X-928963D01*
Y-1010358D01*
Y-1016706D01*
X-922615Y-1010358D02*
X-926847D01*
Y-1016706D01*
X-922615D01*
X-926847Y-1013532D02*
X-924731D01*
X-914152Y-1010358D02*
X-912036D01*
X-913093D01*
Y-1016706D01*
X-914152D01*
X-912036D01*
X-908861D02*
Y-1010358D01*
X-904630Y-1016706D01*
Y-1010358D01*
X-898282D02*
X-902514D01*
Y-1013532D01*
X-900398D01*
X-902514D01*
Y-1016706D01*
X-892992Y-1010358D02*
X-895108D01*
X-896166Y-1011416D01*
Y-1015648D01*
X-895108Y-1016706D01*
X-892992D01*
X-891934Y-1015648D01*
Y-1011416D01*
X-892992Y-1010358D01*
X-889818Y-1016706D02*
Y-1010358D01*
X-886644D01*
X-885586Y-1011416D01*
Y-1013532D01*
X-886644Y-1014590D01*
X-889818D01*
X-887702D02*
X-885586Y-1016706D01*
X-883470D02*
Y-1010358D01*
X-881354Y-1012474D01*
X-879238Y-1010358D01*
Y-1016706D01*
X-877122D02*
Y-1012474D01*
X-875006Y-1010358D01*
X-872890Y-1012474D01*
Y-1016706D01*
Y-1013532D01*
X-877122D01*
X-870774Y-1010358D02*
X-866542D01*
X-868658D01*
Y-1016706D01*
X-864426Y-1010358D02*
X-862310D01*
X-863368D01*
Y-1016706D01*
X-864426D01*
X-862310D01*
X-855962Y-1010358D02*
X-858078D01*
X-859136Y-1011416D01*
Y-1015648D01*
X-858078Y-1016706D01*
X-855962D01*
X-854904Y-1015648D01*
Y-1011416D01*
X-855962Y-1010358D01*
X-852788Y-1016706D02*
Y-1010358D01*
X-848556Y-1016706D01*
Y-1010358D01*
X-835860Y-1011416D02*
X-836918Y-1010358D01*
X-839034D01*
X-840092Y-1011416D01*
Y-1015648D01*
X-839034Y-1016706D01*
X-836918D01*
X-835860Y-1015648D01*
X-830570Y-1010358D02*
X-832686D01*
X-833744Y-1011416D01*
Y-1015648D01*
X-832686Y-1016706D01*
X-830570D01*
X-829512Y-1015648D01*
Y-1011416D01*
X-830570Y-1010358D01*
X-827396Y-1016706D02*
Y-1010358D01*
X-823164Y-1016706D01*
Y-1010358D01*
X-821048D02*
X-816816D01*
X-818932D01*
Y-1016706D01*
X-814700D02*
Y-1012474D01*
X-812584Y-1010358D01*
X-810468Y-1012474D01*
Y-1016706D01*
Y-1013532D01*
X-814700D01*
X-808352Y-1010358D02*
X-806236D01*
X-807294D01*
Y-1016706D01*
X-808352D01*
X-806236D01*
X-803063D02*
Y-1010358D01*
X-798830Y-1016706D01*
Y-1010358D01*
X-792483D02*
X-796714D01*
Y-1016706D01*
X-792483D01*
X-796714Y-1013532D02*
X-794598D01*
X-790367Y-1010358D02*
Y-1016706D01*
X-787193D01*
X-786135Y-1015648D01*
Y-1011416D01*
X-787193Y-1010358D01*
X-790367D01*
X-777671D02*
X-775555D01*
X-776613D01*
Y-1016706D01*
X-777671D01*
X-775555D01*
X-772381D02*
Y-1010358D01*
X-768149Y-1016706D01*
Y-1010358D01*
X-759685D02*
X-755453D01*
X-757569D01*
Y-1016706D01*
X-753337Y-1010358D02*
Y-1016706D01*
Y-1013532D01*
X-749105D01*
Y-1010358D01*
Y-1016706D01*
X-746989Y-1010358D02*
X-744873D01*
X-745931D01*
Y-1016706D01*
X-746989D01*
X-744873D01*
X-737467Y-1011416D02*
X-738525Y-1010358D01*
X-740641D01*
X-741699Y-1011416D01*
Y-1012474D01*
X-740641Y-1013532D01*
X-738525D01*
X-737467Y-1014590D01*
Y-1015648D01*
X-738525Y-1016706D01*
X-740641D01*
X-741699Y-1015648D01*
X-939545Y-1016682D02*
Y-1010334D01*
X-936371D01*
X-935313Y-1011392D01*
Y-1013508D01*
X-936371Y-1014566D01*
X-939545D01*
X-933197Y-1016682D02*
Y-1010334D01*
X-930023D01*
X-928965Y-1011392D01*
Y-1013508D01*
X-930023Y-1014566D01*
X-933197D01*
X-931081D02*
X-928965Y-1016682D01*
X-923675Y-1010334D02*
X-925791D01*
X-926849Y-1011392D01*
Y-1015624D01*
X-925791Y-1016682D01*
X-923675D01*
X-922617Y-1015624D01*
Y-1011392D01*
X-923675Y-1010334D01*
X-920501Y-1016682D02*
Y-1010334D01*
X-917327D01*
X-916269Y-1011392D01*
Y-1013508D01*
X-917327Y-1014566D01*
X-920501D01*
X-914153Y-1016682D02*
Y-1010334D01*
X-910979D01*
X-909921Y-1011392D01*
Y-1013508D01*
X-910979Y-1014566D01*
X-914153D01*
X-912037D02*
X-909921Y-1016682D01*
X-907805Y-1010334D02*
X-905689D01*
X-906747D01*
Y-1016682D01*
X-907805D01*
X-905689D01*
X-898283Y-1010334D02*
X-902515D01*
Y-1016682D01*
X-898283D01*
X-902515Y-1013508D02*
X-900399D01*
X-896167Y-1010334D02*
X-891935D01*
X-894051D01*
Y-1016682D01*
X-889819D02*
Y-1012450D01*
X-887703Y-1010334D01*
X-885587Y-1012450D01*
Y-1016682D01*
Y-1013508D01*
X-889819D01*
X-883471Y-1016682D02*
Y-1010334D01*
X-880297D01*
X-879239Y-1011392D01*
Y-1013508D01*
X-880297Y-1014566D01*
X-883471D01*
X-881355D02*
X-879239Y-1016682D01*
X-877123Y-1010334D02*
Y-1011392D01*
X-875007Y-1013508D01*
X-872891Y-1011392D01*
Y-1010334D01*
X-875007Y-1013508D02*
Y-1016682D01*
X-864428D02*
Y-1012450D01*
X-862312Y-1010334D01*
X-860196Y-1012450D01*
Y-1016682D01*
Y-1013508D01*
X-864428D01*
X-858080Y-1016682D02*
Y-1010334D01*
X-853848Y-1016682D01*
Y-1010334D01*
X-851732D02*
Y-1016682D01*
X-848558D01*
X-847500Y-1015624D01*
Y-1011392D01*
X-848558Y-1010334D01*
X-851732D01*
X-834804Y-1011392D02*
X-835862Y-1010334D01*
X-837978D01*
X-839036Y-1011392D01*
Y-1015624D01*
X-837978Y-1016682D01*
X-835862D01*
X-834804Y-1015624D01*
X-829514Y-1010334D02*
X-831630D01*
X-832688Y-1011392D01*
Y-1015624D01*
X-831630Y-1016682D01*
X-829514D01*
X-828456Y-1015624D01*
Y-1011392D01*
X-829514Y-1010334D01*
X-826340Y-1016682D02*
Y-1010334D01*
X-822108Y-1016682D01*
Y-1010334D01*
X-815760D02*
X-819992D01*
Y-1013508D01*
X-817876D01*
X-819992D01*
Y-1016682D01*
X-813644Y-1010334D02*
X-811528D01*
X-812586D01*
Y-1016682D01*
X-813644D01*
X-811528D01*
X-808354Y-1010334D02*
Y-1016682D01*
X-805180D01*
X-804122Y-1015624D01*
Y-1011392D01*
X-805180Y-1010334D01*
X-808354D01*
X-797774D02*
X-802006D01*
Y-1016682D01*
X-797774D01*
X-802006Y-1013508D02*
X-799890D01*
X-795658Y-1016682D02*
Y-1010334D01*
X-791426Y-1016682D01*
Y-1010334D01*
X-789310D02*
X-785078D01*
X-787194D01*
Y-1016682D01*
X-782962Y-1010334D02*
X-780846D01*
X-781904D01*
Y-1016682D01*
X-782962D01*
X-780846D01*
X-777672D02*
Y-1012450D01*
X-775556Y-1010334D01*
X-773440Y-1012450D01*
Y-1016682D01*
Y-1013508D01*
X-777672D01*
X-771324Y-1010334D02*
Y-1016682D01*
X-767092D01*
X-934710Y-1011403D02*
X-935768Y-1010344D01*
X-937884D01*
X-938942Y-1011403D01*
Y-1012460D01*
X-937884Y-1013519D01*
X-935768D01*
X-934710Y-1014576D01*
Y-1015635D01*
X-935768Y-1016693D01*
X-937884D01*
X-938942Y-1015635D01*
X-932594Y-1010344D02*
X-930478D01*
X-931536D01*
Y-1016693D01*
X-932594D01*
X-930478D01*
X-927304Y-1010344D02*
X-923073D01*
Y-1011403D01*
X-927304Y-1015635D01*
Y-1016693D01*
X-923073D01*
X-916724Y-1010344D02*
X-920956D01*
Y-1016693D01*
X-916724D01*
X-920956Y-1013519D02*
X-918840D01*
X-939337Y-1016526D02*
Y-1010178D01*
X-936163D01*
X-935105Y-1011236D01*
Y-1013352D01*
X-936163Y-1014410D01*
X-939337D01*
X-932989Y-1016526D02*
Y-1012294D01*
X-930873Y-1010178D01*
X-928757Y-1012294D01*
Y-1016526D01*
Y-1013352D01*
X-932989D01*
X-926641Y-1016526D02*
Y-1010178D01*
X-923467D01*
X-922409Y-1011236D01*
Y-1013352D01*
X-923467Y-1014410D01*
X-926641D01*
X-924525D02*
X-922409Y-1016526D01*
X-920293Y-1010178D02*
X-916061D01*
X-918177D01*
Y-1016526D01*
X-901250D02*
Y-1010178D01*
X-897018Y-1016526D01*
Y-1010178D01*
X-891728D02*
X-893844D01*
X-894902Y-1011236D01*
Y-1015468D01*
X-893844Y-1016526D01*
X-891728D01*
X-890670Y-1015468D01*
Y-1011236D01*
X-891728Y-1010178D01*
X-888554Y-1016526D02*
Y-1015468D01*
X-887496D01*
Y-1016526D01*
X-888554D01*
X-938379Y-1016692D02*
Y-1010344D01*
X-935205D01*
X-934147Y-1011402D01*
Y-1013518D01*
X-935205Y-1014576D01*
X-938379D01*
X-936263D02*
X-934147Y-1016692D01*
X-927799Y-1010344D02*
X-932031D01*
Y-1016692D01*
X-927799D01*
X-932031Y-1013518D02*
X-929915D01*
X-925683Y-1010344D02*
Y-1014576D01*
X-923567Y-1016692D01*
X-921451Y-1014576D01*
Y-1010344D01*
X-934709Y-1011519D02*
X-935767Y-1010461D01*
X-937883D01*
X-938941Y-1011519D01*
Y-1012577D01*
X-937883Y-1013635D01*
X-935767D01*
X-934709Y-1014693D01*
Y-1015751D01*
X-935767Y-1016809D01*
X-937883D01*
X-938941Y-1015751D01*
X-928361Y-1011519D02*
X-929419Y-1010461D01*
X-931535D01*
X-932593Y-1011519D01*
Y-1015751D01*
X-931535Y-1016809D01*
X-929419D01*
X-928361Y-1015751D01*
X-926245Y-1016809D02*
Y-1012577D01*
X-924129Y-1010461D01*
X-922013Y-1012577D01*
Y-1016809D01*
Y-1013635D01*
X-926245D01*
X-919897Y-1010461D02*
Y-1016809D01*
X-915665D01*
X-909317Y-1010461D02*
X-913549D01*
Y-1016809D01*
X-909317D01*
X-913549Y-1013635D02*
X-911433D01*
X-907201Y-1012577D02*
X-906143D01*
Y-1013635D01*
X-907201D01*
Y-1012577D01*
Y-1015751D02*
X-906143D01*
Y-1016809D01*
X-907201D01*
Y-1015751D01*
X-895563Y-1016809D02*
X-893447D01*
X-894505D01*
Y-1010461D01*
X-895563Y-1011519D01*
X-890273Y-1012577D02*
X-889215D01*
Y-1013635D01*
X-890273D01*
Y-1012577D01*
Y-1015751D02*
X-889215D01*
Y-1016809D01*
X-890273D01*
Y-1015751D01*
X-884983Y-1016809D02*
X-882867D01*
X-883925D01*
Y-1010461D01*
X-884983Y-1011519D01*
X-934252Y-1011519D02*
X-935310Y-1010461D01*
X-937426D01*
X-938484Y-1011519D01*
Y-1012577D01*
X-937426Y-1013635D01*
X-935310D01*
X-934252Y-1014693D01*
Y-1015751D01*
X-935310Y-1016809D01*
X-937426D01*
X-938484Y-1015751D01*
X-932136Y-1010461D02*
Y-1016809D01*
Y-1013635D01*
X-927904D01*
Y-1010461D01*
Y-1016809D01*
X-921556Y-1010461D02*
X-925788D01*
Y-1016809D01*
X-921556D01*
X-925788Y-1013635D02*
X-923672D01*
X-915208Y-1010461D02*
X-919440D01*
Y-1016809D01*
X-915208D01*
X-919440Y-1013635D02*
X-917324D01*
X-913092Y-1010461D02*
X-908860D01*
X-910976D01*
Y-1016809D01*
X-900396D02*
X-898280D01*
X-899338D01*
Y-1010461D01*
X-900396Y-1011519D01*
X-885584Y-1010461D02*
X-887700D01*
X-888758Y-1011519D01*
Y-1015751D01*
X-887700Y-1016809D01*
X-885584D01*
X-884526Y-1015751D01*
Y-1011519D01*
X-885584Y-1010461D01*
X-878178D02*
X-882410D01*
Y-1013635D01*
X-880294D01*
X-882410D01*
Y-1016809D01*
X-869715D02*
X-867598D01*
X-868656D01*
Y-1010461D01*
X-869715Y-1011519D01*
X-936369Y-1010525D02*
X-940601D01*
Y-1013699D01*
X-938485Y-1012641D01*
X-937427D01*
X-936369Y-1013699D01*
Y-1015815D01*
X-937427Y-1016873D01*
X-939543D01*
X-940601Y-1015815D01*
X-936904Y-1016873D02*
Y-1010525D01*
X-940078Y-1013699D01*
X-935846D01*
X-939555Y-1011583D02*
X-938496Y-1010525D01*
X-936380D01*
X-935322Y-1011583D01*
Y-1012641D01*
X-936380Y-1013699D01*
X-937439D01*
X-936380D01*
X-935322Y-1014757D01*
Y-1015815D01*
X-936380Y-1016873D01*
X-938496D01*
X-939555Y-1015815D01*
X-934799Y-1016873D02*
X-939031D01*
X-934799Y-1012641D01*
Y-1011583D01*
X-935857Y-1010525D01*
X-937973D01*
X-939031Y-1011583D01*
X-938249Y-1008751D02*
Y-1015099D01*
X-935075D01*
X-934017Y-1014041D01*
Y-1009809D01*
X-935075Y-1008751D01*
X-938249D01*
X-934017Y-1010304D02*
X-935075Y-1009246D01*
X-937191D01*
X-938249Y-1010304D01*
Y-1014536D01*
X-937191Y-1015594D01*
X-935075D01*
X-934017Y-1014536D01*
X-938249Y-1009742D02*
Y-1016089D01*
X-935075D01*
X-934017Y-1015032D01*
Y-1013973D01*
X-935075Y-1012915D01*
X-938249D01*
X-935075D01*
X-934017Y-1011858D01*
Y-1010800D01*
X-935075Y-1009742D01*
X-938249D01*
Y-1016585D02*
Y-1012353D01*
X-936133Y-1010237D01*
X-934017Y-1012353D01*
Y-1016585D01*
Y-1013411D01*
X-938249D01*
X-938508Y-1016873D02*
X-936392D01*
X-937450D01*
Y-1010525D01*
X-938508Y-1011583D01*
M02*
