G04*
G04 #@! TF.GenerationSoftware,Altium Limited,Altium Designer,21.6.1 (37)*
G04*
G04 Layer_Physical_Order=2*
G04 Layer_Color=32768*
%FSLAX44Y44*%
%MOMM*%
G71*
G04*
G04 #@! TF.SameCoordinates,92C9E3DA-2EC7-41D8-9103-AA549F60DB15*
G04*
G04*
G04 #@! TF.FilePolarity,Negative*
G04*
G01*
G75*
%ADD109C,1.0160*%
%ADD110C,2.0160*%
%ADD111C,1.7780*%
%ADD112O,1.7160X2.2160*%
%ADD113O,1.6660X2.0660*%
%ADD114C,2.3160*%
%ADD115C,2.9660*%
%ADD116C,4.0660*%
%ADD117C,4.0640*%
%ADD118C,1.3208*%
D109*
X90316Y21511D02*
G03*
X111256Y572I20939J0D01*
G01*
X386255Y572D02*
G03*
X407195Y21511I0J20939D01*
G01*
X481256Y185572D02*
G03*
X407195Y111511I0J-74061D01*
G01*
X481256Y185572D02*
G03*
X502195Y206511I0J20939D01*
G01*
X502195Y451511D02*
G03*
X481256Y472450I-20939J0D01*
G01*
X412195Y541511D02*
G03*
X481255Y472450I69061J0D01*
G01*
X412195Y541511D02*
G03*
X391256Y562450I-20939J0D01*
G01*
X116256D02*
G03*
X95316Y541511I0J-20939D01*
G01*
X21256Y377450D02*
G03*
X95316Y451511I0J74061D01*
G01*
X21256Y377450D02*
G03*
X316Y356511I0J-20939D01*
G01*
Y111511D02*
G03*
X21256Y90572I20939J0D01*
G01*
X90316Y21511D02*
G03*
X21256Y90572I-69061J0D01*
G01*
X111256Y572D02*
X386255D01*
X407195Y21511D02*
Y111511D01*
X502195Y206511D02*
Y451511D01*
X116256Y562450D02*
X391256D01*
X95316Y541511D02*
X95316Y451511D01*
X316Y111511D02*
Y356511D01*
D110*
X297180Y543306D02*
D03*
X322580D02*
D03*
X347980D02*
D03*
X271780D02*
D03*
D111*
X463446Y325628D02*
D03*
Y351028D02*
D03*
X336446Y376428D02*
D03*
D112*
X329750Y35100D02*
D03*
X384250D02*
D03*
D113*
X332750Y65400D02*
D03*
X381250D02*
D03*
D114*
X301282Y494538D02*
D03*
X351282D02*
D03*
D115*
X170000Y447350D02*
D03*
Y523550D02*
D03*
X170000Y108650D02*
D03*
Y32450D02*
D03*
D116*
X251300Y181500D02*
D03*
D117*
Y381500D02*
D03*
D118*
X247000Y415036D02*
D03*
X239944Y20742D02*
D03*
X240284Y28448D02*
D03*
X446000Y455000D02*
D03*
X191487Y214339D02*
D03*
X217327Y211000D02*
D03*
X330000Y99932D02*
D03*
X374000Y183000D02*
D03*
X228571Y441571D02*
D03*
X239239Y445442D02*
D03*
X279807Y446964D02*
D03*
X223000Y476000D02*
D03*
X147488Y218000D02*
D03*
X162990Y212412D02*
D03*
X184303Y214125D02*
D03*
X173635D02*
D03*
X125000Y173000D02*
D03*
X96204Y173986D02*
D03*
X115000Y174000D02*
D03*
X253000Y450000D02*
D03*
X240000Y58000D02*
D03*
X280000Y353000D02*
D03*
X240000Y51000D02*
D03*
X338544Y134269D02*
D03*
X156000Y470000D02*
D03*
X281000Y230000D02*
D03*
X186998Y344998D02*
D03*
X206000Y346000D02*
D03*
X216000D02*
D03*
X379000Y295000D02*
D03*
X318000Y240000D02*
D03*
X307000Y75080D02*
D03*
X128946Y258818D02*
D03*
X206000Y211000D02*
D03*
X256559Y413582D02*
D03*
X307000Y89000D02*
D03*
X193000Y94000D02*
D03*
X137000Y70000D02*
D03*
X228392Y211000D02*
D03*
X239000Y148000D02*
D03*
X197666Y347000D02*
D03*
X386000Y318000D02*
D03*
X447730Y196248D02*
D03*
X341000Y295000D02*
D03*
X189000Y548000D02*
D03*
X108000Y219000D02*
D03*
X309000Y298000D02*
D03*
X455730Y250248D02*
D03*
X437730Y232248D02*
D03*
M02*
