G04*
G04 #@! TF.GenerationSoftware,Altium Limited,Altium Designer,21.6.1 (37)*
G04*
G04 Layer_Color=8388736*
%FSLAX44Y44*%
%MOMM*%
G71*
G04*
G04 #@! TF.SameCoordinates,92C9E3DA-2EC7-41D8-9103-AA549F60DB15*
G04*
G04*
G04 #@! TF.FilePolarity,Negative*
G04*
G01*
G75*
%ADD46R,0.6500X1.0500*%
%ADD55R,1.0032X0.9588*%
%ADD56R,1.2532X1.2532*%
%ADD57R,0.9588X1.0032*%
%ADD58R,0.9906X0.5588*%
%ADD59R,0.8032X1.0532*%
%ADD60R,0.6032X1.1032*%
%ADD61R,2.8448X1.3970*%
%ADD62R,1.6282X2.7032*%
%ADD63R,0.6032X1.9532*%
%ADD64R,1.6782X0.6532*%
%ADD65R,1.2532X1.2532*%
G04:AMPARAMS|DCode=66|XSize=0.7032mm|YSize=1.0032mm|CornerRadius=0.2016mm|HoleSize=0mm|Usage=FLASHONLY|Rotation=270.000|XOffset=0mm|YOffset=0mm|HoleType=Round|Shape=RoundedRectangle|*
%AMROUNDEDRECTD66*
21,1,0.7032,0.6000,0,0,270.0*
21,1,0.3000,1.0032,0,0,270.0*
1,1,0.4032,-0.3000,-0.1500*
1,1,0.4032,-0.3000,0.1500*
1,1,0.4032,0.3000,0.1500*
1,1,0.4032,0.3000,-0.1500*
%
%ADD66ROUNDEDRECTD66*%
G04:AMPARAMS|DCode=67|XSize=0.7032mm|YSize=1.0032mm|CornerRadius=0.2016mm|HoleSize=0mm|Usage=FLASHONLY|Rotation=0.000|XOffset=0mm|YOffset=0mm|HoleType=Round|Shape=RoundedRectangle|*
%AMROUNDEDRECTD67*
21,1,0.7032,0.6000,0,0,0.0*
21,1,0.3000,1.0032,0,0,0.0*
1,1,0.4032,0.1500,-0.3000*
1,1,0.4032,-0.1500,-0.3000*
1,1,0.4032,-0.1500,0.3000*
1,1,0.4032,0.1500,0.3000*
%
%ADD67ROUNDEDRECTD67*%
G04:AMPARAMS|DCode=68|XSize=1.7032mm|YSize=1.7032mm|CornerRadius=0.1766mm|HoleSize=0mm|Usage=FLASHONLY|Rotation=270.000|XOffset=0mm|YOffset=0mm|HoleType=Round|Shape=RoundedRectangle|*
%AMROUNDEDRECTD68*
21,1,1.7032,1.3500,0,0,270.0*
21,1,1.3500,1.7032,0,0,270.0*
1,1,0.3532,-0.6750,-0.6750*
1,1,0.3532,-0.6750,0.6750*
1,1,0.3532,0.6750,0.6750*
1,1,0.3532,0.6750,-0.6750*
%
%ADD68ROUNDEDRECTD68*%
%ADD69R,0.9144X1.9812*%
%ADD70R,1.3532X0.8032*%
%ADD71R,1.0922X1.2192*%
G04:AMPARAMS|DCode=72|XSize=0.9632mm|YSize=0.8636mm|CornerRadius=0.1842mm|HoleSize=0mm|Usage=FLASHONLY|Rotation=270.000|XOffset=0mm|YOffset=0mm|HoleType=Round|Shape=RoundedRectangle|*
%AMROUNDEDRECTD72*
21,1,0.9632,0.4953,0,0,270.0*
21,1,0.5949,0.8636,0,0,270.0*
1,1,0.3683,-0.2477,-0.2975*
1,1,0.3683,-0.2477,0.2975*
1,1,0.3683,0.2477,0.2975*
1,1,0.3683,0.2477,-0.2975*
%
%ADD72ROUNDEDRECTD72*%
%ADD73R,0.8128X1.9304*%
%ADD74R,0.9144X1.9304*%
%ADD75R,1.4732X0.5588*%
%ADD76R,0.6532X1.0032*%
%ADD77R,0.8032X1.4032*%
%ADD78R,0.4832X0.6132*%
%ADD79R,0.6132X0.4832*%
%ADD80R,1.1430X1.1684*%
%ADD81R,1.2532X2.4031*%
%ADD82R,1.2032X1.2532*%
%ADD83R,1.1684X1.1430*%
%ADD84R,1.4032X2.4032*%
%ADD85R,0.9032X0.7032*%
%ADD86R,0.7032X0.9032*%
%ADD87R,1.0032X1.1032*%
%ADD88R,2.2032X1.6632*%
%ADD89C,1.7032*%
%ADD90R,1.7032X1.7032*%
%ADD91C,1.7272*%
%ADD92O,1.4032X1.9032*%
%ADD93O,1.2032X1.6032*%
%ADD94R,2.7032X2.7032*%
%ADD95C,2.7032*%
%ADD96C,3.1532*%
%ADD97C,4.7752*%
%ADD98C,0.6096*%
G36*
X336383Y56610D02*
X336513Y56583D01*
X336640Y56541D01*
X336759Y56482D01*
X336870Y56408D01*
X336970Y56320D01*
X337058Y56220D01*
X337132Y56109D01*
X337191Y55990D01*
X337234Y55863D01*
X337259Y55733D01*
X337268Y55600D01*
Y48600D01*
Y28100D01*
Y27880D01*
X337267Y27857D01*
X337267Y27834D01*
X337257Y27614D01*
X337257Y27608D01*
X337257Y27602D01*
X337249Y27541D01*
X337242Y27481D01*
X337241Y27476D01*
X337240Y27469D01*
X337200Y27260D01*
X337199Y27255D01*
X337198Y27250D01*
X337158Y27050D01*
X337154Y27034D01*
X337151Y27017D01*
X337111Y26847D01*
X337103Y26820D01*
X337097Y26793D01*
X337047Y26623D01*
X337034Y26588D01*
X337023Y26553D01*
X336903Y26233D01*
X336891Y26205D01*
X336880Y26177D01*
X336720Y25817D01*
X336718Y25811D01*
X336715Y25805D01*
X336687Y25752D01*
X336659Y25699D01*
X336655Y25694D01*
X336652Y25688D01*
X336432Y25338D01*
X336417Y25318D01*
X336404Y25296D01*
X336194Y24996D01*
X336192Y24993D01*
X336190Y24990D01*
X336151Y24942D01*
X336111Y24892D01*
X336108Y24890D01*
X336106Y24887D01*
X335846Y24607D01*
X335832Y24594D01*
X335820Y24580D01*
X335555Y24315D01*
X335552Y24312D01*
X335549Y24309D01*
X335502Y24268D01*
X335455Y24227D01*
X335451Y24225D01*
X335448Y24222D01*
X335123Y23977D01*
X335072Y23944D01*
X335021Y23909D01*
X334711Y23730D01*
X334694Y23721D01*
X334678Y23711D01*
X334358Y23541D01*
X334302Y23516D01*
X334246Y23490D01*
X333856Y23340D01*
X333803Y23323D01*
X333752Y23306D01*
X333357Y23201D01*
X333304Y23191D01*
X333252Y23179D01*
X332838Y23114D01*
X332783Y23109D01*
X332727Y23103D01*
X332297Y23083D01*
X332274Y23083D01*
X332250Y23082D01*
X327250D01*
X327223Y23084D01*
X327195Y23083D01*
X326825Y23103D01*
X326784Y23108D01*
X326744Y23111D01*
X326374Y23161D01*
X326345Y23167D01*
X326316Y23170D01*
X326007Y23230D01*
X325949Y23245D01*
X325892Y23259D01*
X325482Y23389D01*
X325475Y23392D01*
X325468Y23394D01*
X325413Y23417D01*
X325358Y23438D01*
X325351Y23442D01*
X325345Y23444D01*
X324975Y23624D01*
X324950Y23638D01*
X324925Y23650D01*
X324566Y23850D01*
X324561Y23853D01*
X324556Y23855D01*
X324505Y23889D01*
X324454Y23922D01*
X324450Y23925D01*
X324445Y23928D01*
X324115Y24178D01*
X324089Y24201D01*
X324061Y24222D01*
X323751Y24492D01*
X323748Y24495D01*
X323744Y24499D01*
X323700Y24543D01*
X323657Y24586D01*
X323654Y24590D01*
X323651Y24593D01*
X323391Y24893D01*
X323369Y24922D01*
X323345Y24949D01*
X323105Y25269D01*
X323077Y25313D01*
X323047Y25356D01*
X322837Y25706D01*
X322819Y25741D01*
X322799Y25775D01*
X322609Y26155D01*
X322602Y26172D01*
X322593Y26188D01*
X322576Y26233D01*
X322558Y26277D01*
X322553Y26295D01*
X322546Y26312D01*
X322436Y26672D01*
X322436Y26672D01*
X322381Y26854D01*
X322375Y26880D01*
X322367Y26905D01*
X322322Y27084D01*
X322321Y27088D01*
X322320Y27092D01*
X322309Y27154D01*
X322298Y27215D01*
X322298Y27219D01*
X322297Y27223D01*
X322257Y27603D01*
X322256Y27631D01*
X322253Y27658D01*
X322233Y28048D01*
X322234Y28074D01*
X322232Y28100D01*
Y47582D01*
X318000D01*
X317867Y47590D01*
X317736Y47617D01*
X317610Y47659D01*
X317491Y47718D01*
X317380Y47792D01*
X317280Y47880D01*
X317192Y47980D01*
X317118Y48091D01*
X317059Y48210D01*
X317017Y48337D01*
X316991Y48467D01*
X316982Y48600D01*
Y55600D01*
X316991Y55733D01*
X317017Y55863D01*
X317059Y55990D01*
X317118Y56109D01*
X317192Y56220D01*
X317280Y56320D01*
X317380Y56408D01*
X317491Y56482D01*
X317610Y56541D01*
X317736Y56583D01*
X317867Y56610D01*
X318000Y56618D01*
X336250D01*
X336383Y56610D01*
D02*
G37*
G36*
X396133Y56610D02*
X396264Y56583D01*
X396390Y56541D01*
X396509Y56482D01*
X396620Y56408D01*
X396720Y56320D01*
X396808Y56220D01*
X396882Y56109D01*
X396941Y55990D01*
X396983Y55864D01*
X397009Y55733D01*
X397018Y55600D01*
Y48600D01*
X397009Y48467D01*
X396983Y48337D01*
X396941Y48210D01*
X396882Y48091D01*
X396808Y47980D01*
X396720Y47880D01*
X396620Y47792D01*
X396509Y47718D01*
X396390Y47659D01*
X396264Y47617D01*
X396133Y47591D01*
X396000Y47582D01*
X391768D01*
Y28100D01*
X391767Y28074D01*
X391767Y28048D01*
X391747Y27658D01*
X391744Y27631D01*
X391743Y27603D01*
X391703Y27223D01*
X391702Y27219D01*
X391702Y27215D01*
X391691Y27154D01*
X391680Y27092D01*
X391679Y27088D01*
X391678Y27084D01*
X391633Y26905D01*
X391625Y26880D01*
X391619Y26854D01*
X391564Y26672D01*
X391564Y26672D01*
X391454Y26312D01*
X391447Y26295D01*
X391442Y26277D01*
X391424Y26233D01*
X391407Y26188D01*
X391398Y26172D01*
X391391Y26155D01*
X391201Y25775D01*
X391181Y25741D01*
X391163Y25706D01*
X390953Y25356D01*
X390923Y25313D01*
X390895Y25269D01*
X390654Y24949D01*
X390631Y24922D01*
X390609Y24893D01*
X390349Y24593D01*
X390346Y24590D01*
X390343Y24586D01*
X390299Y24543D01*
X390256Y24499D01*
X390252Y24496D01*
X390249Y24492D01*
X389939Y24222D01*
X389911Y24201D01*
X389885Y24178D01*
X389555Y23928D01*
X389550Y23925D01*
X389546Y23922D01*
X389495Y23889D01*
X389444Y23855D01*
X389439Y23853D01*
X389435Y23850D01*
X389075Y23650D01*
X389049Y23638D01*
X389025Y23624D01*
X388655Y23444D01*
X388648Y23442D01*
X388642Y23438D01*
X388587Y23417D01*
X388532Y23394D01*
X388525Y23392D01*
X388518Y23389D01*
X388108Y23259D01*
X388051Y23245D01*
X387994Y23230D01*
X387683Y23170D01*
X387655Y23167D01*
X387626Y23161D01*
X387256Y23111D01*
X387216Y23108D01*
X387175Y23103D01*
X386805Y23083D01*
X386777Y23084D01*
X386750Y23082D01*
X381750D01*
X381726Y23083D01*
X381703Y23083D01*
X381273Y23103D01*
X381217Y23109D01*
X381162Y23114D01*
X380747Y23179D01*
X380696Y23191D01*
X380643Y23201D01*
X380248Y23306D01*
X380197Y23323D01*
X380145Y23340D01*
X379754Y23490D01*
X379698Y23516D01*
X379642Y23541D01*
X379322Y23711D01*
X379306Y23721D01*
X379289Y23730D01*
X378979Y23909D01*
X378928Y23944D01*
X378877Y23977D01*
X378552Y24222D01*
X378549Y24225D01*
X378545Y24227D01*
X378498Y24268D01*
X378451Y24309D01*
X378448Y24312D01*
X378445Y24315D01*
X378180Y24580D01*
X378168Y24594D01*
X378154Y24607D01*
X377894Y24887D01*
X377892Y24890D01*
X377889Y24892D01*
X377849Y24942D01*
X377810Y24990D01*
X377808Y24993D01*
X377806Y24996D01*
X377596Y25296D01*
X377583Y25318D01*
X377568Y25338D01*
X377348Y25688D01*
X377345Y25694D01*
X377341Y25699D01*
X377313Y25752D01*
X377285Y25805D01*
X377282Y25811D01*
X377280Y25817D01*
X377120Y26177D01*
X377109Y26205D01*
X377097Y26233D01*
X376977Y26553D01*
X376966Y26588D01*
X376953Y26623D01*
X376903Y26793D01*
X376897Y26820D01*
X376889Y26847D01*
X376849Y27017D01*
X376846Y27034D01*
X376842Y27050D01*
X376802Y27250D01*
X376801Y27255D01*
X376800Y27260D01*
X376760Y27469D01*
X376759Y27476D01*
X376758Y27481D01*
X376751Y27541D01*
X376744Y27602D01*
X376744Y27608D01*
X376743Y27614D01*
X376733Y27834D01*
X376733Y27857D01*
X376732Y27880D01*
Y28100D01*
Y48600D01*
Y55600D01*
X376740Y55733D01*
X376767Y55864D01*
X376809Y55990D01*
X376868Y56109D01*
X376942Y56220D01*
X377030Y56320D01*
X377130Y56408D01*
X377241Y56482D01*
X377360Y56541D01*
X377486Y56583D01*
X377617Y56610D01*
X377750Y56618D01*
X396000D01*
X396133Y56610D01*
D02*
G37*
D46*
X201250Y496250D02*
D03*
Y537750D02*
D03*
X222750Y496250D02*
D03*
Y537750D02*
D03*
X118250Y496250D02*
D03*
Y537750D02*
D03*
X139750Y496250D02*
D03*
Y537750D02*
D03*
D55*
X180000Y70222D02*
D03*
Y85778D02*
D03*
X296000Y43222D02*
D03*
Y58778D02*
D03*
X297000Y89778D02*
D03*
Y74222D02*
D03*
X416730Y232026D02*
D03*
Y216470D02*
D03*
X487730Y264470D02*
D03*
Y280026D02*
D03*
X242000Y500778D02*
D03*
Y485222D02*
D03*
X144000Y196778D02*
D03*
Y181222D02*
D03*
X101000Y197778D02*
D03*
Y182222D02*
D03*
D56*
X161000Y72250D02*
D03*
Y85750D02*
D03*
X196000Y63250D02*
D03*
Y76750D02*
D03*
X276000Y119750D02*
D03*
Y106250D02*
D03*
X322000Y199250D02*
D03*
Y212750D02*
D03*
X395000Y199250D02*
D03*
Y212750D02*
D03*
X100000Y62250D02*
D03*
Y75750D02*
D03*
X157000Y499750D02*
D03*
Y486250D02*
D03*
D57*
X131222Y109000D02*
D03*
X146778D02*
D03*
X179778Y60000D02*
D03*
X164222D02*
D03*
X463508Y209248D02*
D03*
X447952D02*
D03*
X122778Y315000D02*
D03*
X107222D02*
D03*
X214778Y178000D02*
D03*
X199222D02*
D03*
X143778Y210000D02*
D03*
X128222D02*
D03*
X199222Y192000D02*
D03*
X214778D02*
D03*
D58*
X448062Y226002D02*
D03*
Y232502D02*
D03*
Y239002D02*
D03*
X469398D02*
D03*
Y232502D02*
D03*
Y226002D02*
D03*
D59*
X240500Y113000D02*
D03*
X253500D02*
D03*
D60*
X214500Y138500D02*
D03*
X221000D02*
D03*
X227500D02*
D03*
Y157500D02*
D03*
X214500D02*
D03*
D61*
X130000Y45632D02*
D03*
Y92368D02*
D03*
D62*
X366625Y32600D02*
D03*
X347375D02*
D03*
D63*
X370000Y63350D02*
D03*
X363500D02*
D03*
X344000D02*
D03*
X350500D02*
D03*
X357000D02*
D03*
D64*
X217620Y51500D02*
D03*
Y58000D02*
D03*
Y64500D02*
D03*
Y71000D02*
D03*
Y77500D02*
D03*
Y84000D02*
D03*
Y90500D02*
D03*
X276380D02*
D03*
Y84000D02*
D03*
Y77500D02*
D03*
Y71000D02*
D03*
Y64500D02*
D03*
Y58000D02*
D03*
Y51500D02*
D03*
D65*
X137750Y27000D02*
D03*
X124250D02*
D03*
X281250Y260000D02*
D03*
X294750D02*
D03*
Y275000D02*
D03*
X281250D02*
D03*
X475750Y456000D02*
D03*
X462250D02*
D03*
X99250Y162000D02*
D03*
X112750D02*
D03*
X293750Y308000D02*
D03*
X280250D02*
D03*
X293750Y325000D02*
D03*
X280250D02*
D03*
X357250Y305000D02*
D03*
X370750D02*
D03*
X229750Y432000D02*
D03*
X216250D02*
D03*
X282730Y438000D02*
D03*
X296230D02*
D03*
X108250Y250000D02*
D03*
X121750D02*
D03*
D66*
X257500Y236000D02*
D03*
Y244000D02*
D03*
Y252000D02*
D03*
Y260000D02*
D03*
Y268000D02*
D03*
Y276000D02*
D03*
Y284000D02*
D03*
Y292000D02*
D03*
Y300000D02*
D03*
Y308000D02*
D03*
Y316000D02*
D03*
Y324000D02*
D03*
X144500D02*
D03*
Y316000D02*
D03*
Y308000D02*
D03*
Y300000D02*
D03*
Y292000D02*
D03*
Y284000D02*
D03*
Y276000D02*
D03*
Y268000D02*
D03*
Y260000D02*
D03*
Y252000D02*
D03*
Y244000D02*
D03*
Y236000D02*
D03*
D67*
X157000Y332000D02*
D03*
X165000D02*
D03*
X173000D02*
D03*
X181000D02*
D03*
X189000D02*
D03*
X197000D02*
D03*
X205000D02*
D03*
X213000D02*
D03*
X221000D02*
D03*
X229000D02*
D03*
X237000D02*
D03*
X245000D02*
D03*
X243750Y228000D02*
D03*
X235750D02*
D03*
X227750D02*
D03*
X219750D02*
D03*
X211750D02*
D03*
X203750D02*
D03*
X195750D02*
D03*
X187750D02*
D03*
X179750D02*
D03*
X171750D02*
D03*
X163750D02*
D03*
X155750D02*
D03*
D68*
X226000Y255000D02*
D03*
X201000D02*
D03*
X176000D02*
D03*
X226000Y280000D02*
D03*
X201000D02*
D03*
X176000D02*
D03*
X226000Y305000D02*
D03*
X201000D02*
D03*
X176000D02*
D03*
D69*
X379050Y278160D02*
D03*
X340950D02*
D03*
X353650D02*
D03*
X366350D02*
D03*
D70*
X462500Y440500D02*
D03*
Y421500D02*
D03*
X487500Y431000D02*
D03*
D71*
X160000Y189112D02*
D03*
Y174888D02*
D03*
D72*
X294000Y341000D02*
D03*
X280000D02*
D03*
X281000Y243000D02*
D03*
X295000D02*
D03*
X280000Y290000D02*
D03*
X294000D02*
D03*
D73*
X440730Y264912D02*
D03*
X470730D02*
D03*
D74*
X455730D02*
D03*
D75*
X345940Y197250D02*
D03*
Y203750D02*
D03*
Y210250D02*
D03*
Y216750D02*
D03*
X374060D02*
D03*
Y210250D02*
D03*
Y203750D02*
D03*
Y197250D02*
D03*
D76*
X353000Y90000D02*
D03*
X345000D02*
D03*
Y106000D02*
D03*
X353000D02*
D03*
D77*
X360000Y123000D02*
D03*
X350500D02*
D03*
X341000D02*
D03*
Y148000D02*
D03*
X350500D02*
D03*
X360000D02*
D03*
X99500Y141500D02*
D03*
X118500D02*
D03*
Y116500D02*
D03*
X109000D02*
D03*
X99500D02*
D03*
D78*
X251000Y442000D02*
D03*
X256000D02*
D03*
Y425700D02*
D03*
X251000D02*
D03*
D79*
X261650Y441350D02*
D03*
Y436350D02*
D03*
Y431350D02*
D03*
Y426350D02*
D03*
X245350D02*
D03*
Y431350D02*
D03*
Y436350D02*
D03*
Y441350D02*
D03*
D80*
X128000Y182507D02*
D03*
Y197493D02*
D03*
X115000Y182507D02*
D03*
Y197493D02*
D03*
X391000Y104493D02*
D03*
Y89507D02*
D03*
D81*
X122750Y380000D02*
D03*
X93250D02*
D03*
D82*
X108000Y364750D02*
D03*
D83*
X107507Y233000D02*
D03*
X122493D02*
D03*
X121493Y335000D02*
D03*
X106507D02*
D03*
Y295000D02*
D03*
X121493D02*
D03*
D84*
X11500Y316000D02*
D03*
X78500D02*
D03*
D85*
X145000Y128250D02*
D03*
Y135750D02*
D03*
D86*
X106750Y94000D02*
D03*
X99250D02*
D03*
D87*
X121250Y266000D02*
D03*
X108750D02*
D03*
D88*
X328001Y65401D02*
D03*
X386001D02*
D03*
D89*
X297180Y543306D02*
D03*
X322580D02*
D03*
X271780D02*
D03*
D90*
X347980D02*
D03*
D91*
X463446Y325628D02*
D03*
Y351028D02*
D03*
X336446Y376428D02*
D03*
Y325628D02*
D03*
D92*
X329750Y35100D02*
D03*
X384250D02*
D03*
D93*
X332750Y65400D02*
D03*
X381250D02*
D03*
D94*
X301282Y494538D02*
D03*
D95*
X351282D02*
D03*
D96*
X170000Y447350D02*
D03*
Y523550D02*
D03*
X170000Y108650D02*
D03*
Y32450D02*
D03*
D97*
X251300Y181500D02*
D03*
Y381500D02*
D03*
D98*
X486156Y352552D02*
D03*
X486410Y413004D02*
D03*
X247000Y415036D02*
D03*
X239944Y20742D02*
D03*
X240284Y28448D02*
D03*
X100355Y51355D02*
D03*
X446000Y455000D02*
D03*
X191487Y214339D02*
D03*
X217327Y211000D02*
D03*
X330000Y99932D02*
D03*
X374000Y183000D02*
D03*
X245000Y450000D02*
D03*
X228571Y441571D02*
D03*
X239239Y445442D02*
D03*
X279807Y446964D02*
D03*
X223000Y476000D02*
D03*
X147488Y218000D02*
D03*
X162990Y212412D02*
D03*
X184303Y214125D02*
D03*
X173635D02*
D03*
X125000Y173000D02*
D03*
X110000Y106136D02*
D03*
X151000Y55000D02*
D03*
X127000Y117730D02*
D03*
X200000Y146000D02*
D03*
X218000Y111000D02*
D03*
X96204Y173986D02*
D03*
X115000Y174000D02*
D03*
X107000D02*
D03*
X253000Y450000D02*
D03*
X240000Y58000D02*
D03*
X268000Y444000D02*
D03*
X319000Y355000D02*
D03*
X280000Y353000D02*
D03*
X240000Y51000D02*
D03*
X354000Y135000D02*
D03*
X338544Y134269D02*
D03*
X156000Y470000D02*
D03*
X281000Y230000D02*
D03*
X186998Y344998D02*
D03*
X206000Y346000D02*
D03*
X216000D02*
D03*
X379000Y295000D02*
D03*
X318000Y240000D02*
D03*
X307000Y75080D02*
D03*
X128946Y258818D02*
D03*
X206000Y211000D02*
D03*
X256559Y413582D02*
D03*
X307000Y89000D02*
D03*
X193000Y94000D02*
D03*
X137000Y70000D02*
D03*
X228392Y211000D02*
D03*
X239000Y148000D02*
D03*
X197666Y347000D02*
D03*
X386000Y318000D02*
D03*
X447730Y196248D02*
D03*
X341000Y295000D02*
D03*
X189000Y548000D02*
D03*
X108000Y219000D02*
D03*
X309000Y298000D02*
D03*
X455730Y250248D02*
D03*
X437730Y232248D02*
D03*
M02*
