G04*
G04 #@! TF.GenerationSoftware,Altium Limited,Altium Designer,21.6.1 (37)*
G04*
G04 Layer_Color=16711935*
%FSLAX44Y44*%
%MOMM*%
G71*
G04*
G04 #@! TF.SameCoordinates,4F178BE9-AC55-4CEC-B3A2-6D2310684F74*
G04*
G04*
G04 #@! TF.FilePolarity,Negative*
G04*
G01*
G75*
%ADD87O,1.4032X1.9032*%
%ADD88O,1.2032X1.6032*%
%ADD89C,1.7272*%
%ADD90R,2.7032X2.7032*%
%ADD91C,2.7032*%
%ADD92C,1.7032*%
%ADD93R,1.7032X1.7032*%
%ADD94C,3.1532*%
%ADD95C,4.7752*%
%ADD96C,0.6096*%
D87*
X277250Y30100D02*
D03*
X222750D02*
D03*
D88*
X274250Y60400D02*
D03*
X225750D02*
D03*
D89*
X416400Y328000D02*
D03*
X365600D02*
D03*
X391000Y455000D02*
D03*
X416400D02*
D03*
D90*
X468000Y231000D02*
D03*
D91*
X418000D02*
D03*
D92*
X290200Y538000D02*
D03*
X341000D02*
D03*
X315600D02*
D03*
D93*
X366400D02*
D03*
D94*
X170000Y447350D02*
D03*
Y523550D02*
D03*
X170000Y108650D02*
D03*
Y32450D02*
D03*
D95*
X251300Y181500D02*
D03*
Y381500D02*
D03*
D96*
X254000Y126412D02*
D03*
X247000Y125000D02*
D03*
X232000Y77000D02*
D03*
X281000Y469000D02*
D03*
X241221Y469221D02*
D03*
X233213Y214421D02*
D03*
X226571Y456571D02*
D03*
X254559Y428582D02*
D03*
X280000Y353000D02*
D03*
X203000Y207000D02*
D03*
X213000D02*
D03*
X162291Y209291D02*
D03*
X192280Y207202D02*
D03*
X172619Y213375D02*
D03*
X189000Y347000D02*
D03*
X197666D02*
D03*
X319000Y355000D02*
D03*
X122971Y163115D02*
D03*
X96204Y169986D02*
D03*
X226000Y136000D02*
D03*
X266000Y459000D02*
D03*
X386000Y318000D02*
D03*
X330000Y196000D02*
D03*
X223000Y476000D02*
D03*
X133000Y252000D02*
D03*
X156000Y470000D02*
D03*
X449000Y244000D02*
D03*
X245000Y429000D02*
D03*
X144000Y218000D02*
D03*
X187000Y185000D02*
D03*
X358000Y197000D02*
D03*
X386000Y305000D02*
D03*
X341000Y306000D02*
D03*
X189000Y548000D02*
D03*
X253500Y468000D02*
D03*
X128000Y170000D02*
D03*
X344000Y197000D02*
D03*
X108000Y219000D02*
D03*
X309000Y298000D02*
D03*
X281000Y230000D02*
D03*
X457000Y298000D02*
D03*
X439000Y280000D02*
D03*
X446000Y455000D02*
D03*
M02*
