M48
;Layer_Color=9474304
;FILE_FORMAT=4:4
METRIC,LZ
T9F00S00C5.0800
%
G90
G05
T09
G00X00244048Y-00024893
M15
G01X00248895Y-00023393
G01X00253347Y-0002096
G01X00257227Y-0001769
G01X00260379Y-00013715
G01X00262678Y-00009192
G01X00264033Y-00004303
G01X002644Y0
G01X002644Y00666
G01X00263893Y00671048
G01X00262393Y00675895
G01X0025996Y00680347
G01X0025669Y00684227
G01X00252715Y00687379
G01X00248192Y00689678
G01X00243303Y00691033
G01X00239Y006914
G01X0Y006914
G01X-00005048Y00690893
G01X-00009895Y00689393
G01X-00014347Y0068696
G01X-00018227Y0068369
G01X-00021379Y00679715
G01X-00023678Y00675192
G01X-00025033Y00670303
G01X-000254Y00666
G01X-000254Y0
G01X-00024893Y-00005048
G01X-00023393Y-00009895
G01X-0002096Y-00014347
G01X-0001769Y-00018227
G01X-00013715Y-00021379
G01X-00009192Y-00023678
G01X-00004303Y-00025033
G01X0Y-000254
G01X00239Y-000254
G01X00244048Y-00024893
M16
M17
M30
