G04*
G04 #@! TF.GenerationSoftware,Altium Limited,Altium Designer,21.6.1 (37)*
G04*
G04 Layer_Color=8388736*
%FSLAX44Y44*%
%MOMM*%
G71*
G04*
G04 #@! TF.SameCoordinates,92C9E3DA-2EC7-41D8-9103-AA549F60DB15*
G04*
G04*
G04 #@! TF.FilePolarity,Positive*
G04*
G01*
G75*
G36*
X-671451Y-1117802D02*
X-672020D01*
Y-1117233D01*
X-671451D01*
Y-1117802D01*
D02*
G37*
G36*
X-789582Y-1112045D02*
X-789465Y-1112050D01*
X-789348Y-1112062D01*
X-789230Y-1112080D01*
X-789130Y-1112097D01*
X-789125D01*
X-789113Y-1112103D01*
X-789095D01*
X-789072Y-1112115D01*
X-789007Y-1112132D01*
X-788925Y-1112162D01*
X-788831Y-1112203D01*
X-788732Y-1112256D01*
X-788632Y-1112314D01*
X-788538Y-1112391D01*
X-788532Y-1112397D01*
X-788526Y-1112402D01*
X-788509Y-1112420D01*
X-788485Y-1112438D01*
X-788426Y-1112496D01*
X-788356Y-1112579D01*
X-788280Y-1112678D01*
X-788198Y-1112796D01*
X-788121Y-1112931D01*
X-788102Y-1112975D01*
X-788080Y-1112998D01*
X-788033Y-1113056D01*
X-787986Y-1113127D01*
X-787934Y-1113197D01*
X-787887Y-1113273D01*
X-787846Y-1113361D01*
X-787799Y-1113449D01*
X-787763Y-1113543D01*
X-787746Y-1113596D01*
X-787746D01*
X-787718Y-1113584D01*
X-787671Y-1113567D01*
X-787655Y-1113501D01*
X-787463D01*
X-787450Y-1113466D01*
X-787263D01*
X-787172Y-1113455D01*
X-787014Y-1113449D01*
X-786961D01*
X-786920Y-1113455D01*
X-786867D01*
X-786814Y-1113461D01*
X-786744Y-1113473D01*
X-786673Y-1113485D01*
X-786621Y-1113494D01*
X-786083D01*
X-786081Y-1113501D01*
X-785777D01*
Y-1113469D01*
X-785261D01*
Y-1113501D01*
X-784939D01*
X-784850Y-1113507D01*
X-784762Y-1113512D01*
Y-1113466D01*
X-782879D01*
X-782832Y-1113472D01*
X-782779D01*
X-782656Y-1113478D01*
X-782527Y-1113495D01*
X-782386Y-1113513D01*
X-782257Y-1113542D01*
X-782236Y-1113548D01*
X-782189D01*
X-782134Y-1113534D01*
Y-1113494D01*
X-781940D01*
X-781823Y-1113481D01*
X-781665Y-1113475D01*
X-781612D01*
X-781571Y-1113481D01*
X-781518D01*
X-781465Y-1113486D01*
X-781416Y-1113494D01*
X-781195D01*
Y-1113469D01*
X-780978D01*
Y-1113466D01*
X-777763D01*
Y-1113548D01*
X-777452D01*
Y-1113545D01*
X-777432D01*
Y-1113520D01*
X-776963D01*
X-776959Y-1113519D01*
X-776812Y-1113495D01*
X-776654Y-1113483D01*
X-776601D01*
X-776600Y-1113483D01*
X-776548Y-1113469D01*
X-776436Y-1113446D01*
X-776307Y-1113422D01*
X-776172Y-1113405D01*
X-776020Y-1113399D01*
X-775943D01*
X-775902Y-1113405D01*
X-775861D01*
X-775750Y-1113417D01*
X-775627Y-1113434D01*
X-775498Y-1113463D01*
X-775373Y-1113494D01*
X-775164D01*
Y-1113548D01*
X-774665D01*
X-774641Y-1113551D01*
Y-1113501D01*
X-774054D01*
Y-1113466D01*
X-773503D01*
X-773480Y-1113501D01*
X-773416D01*
X-773392Y-1113494D01*
X-773280Y-1113471D01*
X-773151Y-1113448D01*
X-773016Y-1113430D01*
X-772864Y-1113424D01*
X-772787D01*
X-772746Y-1113430D01*
X-772705D01*
X-772616Y-1113439D01*
X-772523Y-1113422D01*
X-772388Y-1113405D01*
X-772235Y-1113399D01*
X-772159D01*
X-772118Y-1113405D01*
X-772077D01*
X-771965Y-1113417D01*
X-771842Y-1113434D01*
X-771713Y-1113463D01*
X-771572Y-1113499D01*
X-771443Y-1113546D01*
X-771437D01*
X-771425Y-1113551D01*
X-771408Y-1113563D01*
X-771394Y-1113570D01*
X-771373D01*
Y-1113466D01*
X-770857D01*
Y-1113570D01*
X-770810D01*
Y-1113501D01*
X-770388D01*
Y-1113494D01*
X-769848D01*
Y-1113501D01*
X-768801D01*
X-768756Y-1113484D01*
X-768621Y-1113448D01*
X-768480Y-1113419D01*
X-768334Y-1113402D01*
X-768175Y-1113396D01*
X-768122D01*
X-768081Y-1113402D01*
X-768029D01*
X-767976Y-1113407D01*
X-767905Y-1113419D01*
X-767835Y-1113431D01*
X-767682Y-1113460D01*
X-767593Y-1113484D01*
X-767565Y-1113477D01*
X-767425Y-1113448D01*
X-767278Y-1113430D01*
X-767120Y-1113424D01*
X-767067D01*
X-767026Y-1113430D01*
X-766973D01*
X-766920Y-1113436D01*
X-766920Y-1113436D01*
Y-1113430D01*
X-766835D01*
X-766796Y-1113422D01*
X-766649Y-1113405D01*
X-766491Y-1113399D01*
X-766438D01*
X-766397Y-1113405D01*
X-766344D01*
X-766292Y-1113411D01*
X-766221Y-1113422D01*
X-766151Y-1113434D01*
X-765998Y-1113463D01*
X-765822Y-1113510D01*
X-765652Y-1113581D01*
X-765636Y-1113588D01*
X-765594Y-1113574D01*
X-765518Y-1113551D01*
X-765353Y-1113516D01*
X-765165Y-1113486D01*
X-764972Y-1113475D01*
X-764913D01*
X-764872Y-1113481D01*
X-764819Y-1113486D01*
X-764755Y-1113492D01*
X-764690Y-1113498D01*
X-764614Y-1113516D01*
X-764491Y-1113543D01*
Y-1113494D01*
X-764162D01*
Y-1113469D01*
X-763954D01*
X-763902Y-1113461D01*
X-763708Y-1113449D01*
X-763650D01*
X-763608Y-1113455D01*
X-763556Y-1113461D01*
X-763491Y-1113467D01*
X-763465Y-1113469D01*
X-760946D01*
Y-1113520D01*
X-760371D01*
Y-1113469D01*
X-759832D01*
Y-1113520D01*
X-759615D01*
X-759609Y-1113518D01*
X-759521Y-1113494D01*
X-759410Y-1113471D01*
X-759281Y-1113448D01*
X-759146Y-1113430D01*
X-758993Y-1113424D01*
X-758917D01*
X-758876Y-1113430D01*
X-758835D01*
X-758723Y-1113442D01*
X-758600Y-1113459D01*
X-758471Y-1113489D01*
X-758330Y-1113524D01*
X-758201Y-1113571D01*
X-758195D01*
X-758183Y-1113577D01*
X-758166Y-1113588D01*
X-758142Y-1113600D01*
X-758098Y-1113622D01*
X-757869D01*
X-757822Y-1113628D01*
X-757769D01*
X-757731Y-1113630D01*
Y-1113469D01*
X-757191D01*
Y-1113545D01*
X-756957D01*
Y-1113501D01*
X-756625D01*
X-756603Y-1113496D01*
X-756474Y-1113473D01*
X-756339Y-1113455D01*
X-756186Y-1113449D01*
X-756110D01*
X-756069Y-1113455D01*
X-756028D01*
X-755916Y-1113467D01*
X-755900Y-1113469D01*
X-753348D01*
Y-1113494D01*
X-753337D01*
X-753296Y-1113594D01*
X-753167Y-1113576D01*
Y-1113545D01*
X-752503D01*
Y-1113469D01*
X-751785D01*
X-751612Y-1113442D01*
X-751418Y-1113430D01*
X-751359D01*
X-751318Y-1113436D01*
X-751265Y-1113442D01*
X-751201Y-1113448D01*
X-751136Y-1113454D01*
X-751070Y-1113469D01*
X-750620D01*
X-750573Y-1113475D01*
X-750520D01*
X-750397Y-1113481D01*
X-750298Y-1113494D01*
X-749353D01*
X-749306Y-1113500D01*
X-749253D01*
X-749130Y-1113506D01*
X-749100Y-1113510D01*
Y-1113501D01*
X-748781D01*
X-748789Y-1113469D01*
X-748232D01*
X-748224Y-1113501D01*
X-747921D01*
X-747827Y-1113486D01*
X-747634Y-1113475D01*
X-747575D01*
X-747534Y-1113481D01*
X-747481Y-1113486D01*
X-747417Y-1113492D01*
X-747352Y-1113498D01*
X-747276Y-1113516D01*
X-747224Y-1113527D01*
X-747194Y-1113530D01*
X-747141Y-1113540D01*
Y-1113494D01*
X-746502D01*
X-746495Y-1113469D01*
X-745844D01*
X-745837Y-1113494D01*
X-744201D01*
Y-1113743D01*
X-744182Y-1113744D01*
Y-1113520D01*
X-744119D01*
X-744107Y-1113469D01*
X-743561D01*
X-743582Y-1113545D01*
X-742969D01*
Y-1113469D01*
X-742429D01*
Y-1113537D01*
X-742369Y-1113543D01*
X-742305Y-1113549D01*
X-742228Y-1113566D01*
X-742186Y-1113576D01*
X-742025Y-1113541D01*
X-741837Y-1113512D01*
X-741696Y-1113503D01*
Y-1113494D01*
X-741317D01*
X-741295Y-1113490D01*
X-741089Y-1113461D01*
X-740984Y-1113449D01*
X-740796D01*
X-740761Y-1113455D01*
X-740714D01*
X-740602Y-1113467D01*
X-740600Y-1113467D01*
X-740499Y-1113446D01*
X-740369Y-1113422D01*
X-740234Y-1113405D01*
X-740082Y-1113399D01*
X-740006D01*
X-739965Y-1113405D01*
X-739923D01*
X-739812Y-1113417D01*
X-739689Y-1113434D01*
X-739560Y-1113463D01*
X-739419Y-1113499D01*
X-739290Y-1113546D01*
X-739284D01*
X-739272Y-1113551D01*
X-739255Y-1113563D01*
X-739245Y-1113568D01*
X-739136Y-1113549D01*
X-739001Y-1113531D01*
X-738849Y-1113525D01*
X-738773D01*
X-738731Y-1113531D01*
X-738690D01*
X-738579Y-1113543D01*
X-738456Y-1113560D01*
X-738344Y-1113586D01*
Y-1113520D01*
X-737804D01*
Y-1113545D01*
X-737688D01*
Y-1113469D01*
X-734748D01*
Y-1113545D01*
X-734684D01*
Y-1113581D01*
X-734634Y-1113593D01*
X-734601Y-1113600D01*
X-734591Y-1113570D01*
X-734277D01*
Y-1113520D01*
X-733738D01*
Y-1113632D01*
X-733500D01*
X-733453Y-1113638D01*
X-733401D01*
X-733277Y-1113644D01*
X-733148Y-1113661D01*
X-733008Y-1113679D01*
X-732878Y-1113708D01*
X-732866Y-1113712D01*
Y-1113494D01*
X-732326D01*
Y-1113584D01*
X-732303Y-1113582D01*
X-732144Y-1113576D01*
X-732091D01*
X-732050Y-1113582D01*
X-731998D01*
X-731945Y-1113587D01*
X-731901Y-1113595D01*
X-731892Y-1113570D01*
X-731741D01*
X-731680Y-1113540D01*
X-731674D01*
X-731662Y-1113534D01*
X-731645Y-1113528D01*
X-731621Y-1113516D01*
X-731592Y-1113504D01*
X-731551Y-1113493D01*
X-731463Y-1113469D01*
X-731351Y-1113446D01*
X-731222Y-1113422D01*
X-731087Y-1113405D01*
X-730935Y-1113399D01*
X-730858D01*
X-730817Y-1113405D01*
X-730776D01*
X-730665Y-1113417D01*
X-730542Y-1113434D01*
X-730412Y-1113463D01*
X-730272Y-1113499D01*
X-730143Y-1113546D01*
X-730137D01*
X-730125Y-1113551D01*
X-730107Y-1113563D01*
X-730084Y-1113575D01*
X-730026Y-1113604D01*
X-729994Y-1113520D01*
X-729407D01*
X-729356Y-1113646D01*
X-729234D01*
Y-1113570D01*
X-728700D01*
Y-1113494D01*
X-728547D01*
Y-1113469D01*
X-726880D01*
X-726792Y-1113475D01*
X-726693Y-1113481D01*
X-726587Y-1113487D01*
X-726487Y-1113499D01*
X-726399Y-1113510D01*
X-726387D01*
X-726355Y-1113520D01*
X-726134D01*
X-726071Y-1113500D01*
X-725907Y-1113465D01*
X-725719Y-1113436D01*
X-725526Y-1113424D01*
X-725467D01*
X-725426Y-1113430D01*
X-725373Y-1113436D01*
X-725308Y-1113442D01*
X-725244Y-1113448D01*
X-725168Y-1113465D01*
X-725009Y-1113500D01*
X-724833Y-1113553D01*
X-724756Y-1113584D01*
Y-1113469D01*
X-721817D01*
Y-1113622D01*
X-721373D01*
Y-1113670D01*
X-721290D01*
X-721243Y-1113676D01*
X-721190D01*
X-721067Y-1113682D01*
X-720938Y-1113699D01*
X-720867Y-1113708D01*
X-720844Y-1113646D01*
X-720587D01*
Y-1113622D01*
X-720526D01*
Y-1113494D01*
X-719987D01*
Y-1113548D01*
X-719980Y-1113546D01*
X-719916Y-1113522D01*
X-719845Y-1113499D01*
X-719769Y-1113475D01*
X-719605Y-1113440D01*
X-719417Y-1113411D01*
X-719223Y-1113399D01*
X-719165D01*
X-719124Y-1113405D01*
X-719071Y-1113411D01*
X-719006Y-1113417D01*
X-718942Y-1113422D01*
X-718865Y-1113440D01*
X-718707Y-1113475D01*
X-718642Y-1113494D01*
X-716794D01*
Y-1113469D01*
X-716254D01*
Y-1113494D01*
X-716143D01*
Y-1113646D01*
X-716038D01*
X-715990Y-1113718D01*
X-715280D01*
Y-1113469D01*
X-714315D01*
X-714195Y-1113448D01*
X-714061Y-1113430D01*
X-713908Y-1113424D01*
X-713832D01*
X-713791Y-1113430D01*
X-713750D01*
X-713638Y-1113442D01*
X-713515Y-1113459D01*
X-713471Y-1113469D01*
X-712534D01*
Y-1113622D01*
X-712056D01*
Y-1113646D01*
X-711748D01*
Y-1113469D01*
X-711208D01*
Y-1113494D01*
X-710476D01*
Y-1113646D01*
X-710252D01*
Y-1113469D01*
X-707312D01*
Y-1113622D01*
X-706473D01*
Y-1113469D01*
X-704913D01*
X-704807Y-1113475D01*
X-704690Y-1113481D01*
X-704572Y-1113493D01*
X-704455Y-1113510D01*
X-704355Y-1113528D01*
X-704349D01*
X-704338Y-1113534D01*
X-704320D01*
X-704297Y-1113546D01*
X-704232Y-1113563D01*
X-704150Y-1113593D01*
X-704056Y-1113634D01*
X-703956Y-1113686D01*
X-703857Y-1113745D01*
X-703763Y-1113821D01*
X-703757Y-1113827D01*
X-703751Y-1113833D01*
X-703733Y-1113851D01*
X-703710Y-1113868D01*
X-703689Y-1113889D01*
X-703680Y-1113894D01*
X-703674Y-1113899D01*
X-703663Y-1113905D01*
X-703639Y-1113923D01*
X-703604Y-1113941D01*
X-703569Y-1113970D01*
X-703566Y-1113972D01*
Y-1113622D01*
X-703026D01*
Y-1113670D01*
X-702942D01*
Y-1113646D01*
X-702402D01*
Y-1113670D01*
X-701458D01*
Y-1113646D01*
X-700982D01*
X-700972Y-1113622D01*
X-700812D01*
Y-1113494D01*
X-699715D01*
Y-1113670D01*
X-699317D01*
X-699301Y-1113694D01*
X-698869D01*
Y-1113718D01*
X-698776D01*
Y-1113646D01*
X-698315D01*
Y-1113622D01*
X-697775D01*
Y-1113718D01*
X-697530D01*
X-697420Y-1113695D01*
X-697273Y-1113678D01*
X-697115Y-1113672D01*
X-697062D01*
X-697021Y-1113678D01*
X-696968D01*
X-696916Y-1113683D01*
X-696882Y-1113689D01*
X-696870Y-1113670D01*
X-696242D01*
X-696259Y-1113694D01*
X-696083D01*
Y-1113646D01*
X-692868D01*
Y-1113659D01*
X-692845Y-1113652D01*
X-692704Y-1113623D01*
X-692557Y-1113606D01*
X-692399Y-1113600D01*
X-692346D01*
X-692305Y-1113606D01*
X-692252D01*
X-692199Y-1113611D01*
X-692129Y-1113623D01*
X-692059Y-1113635D01*
X-692000Y-1113646D01*
X-691753D01*
Y-1113694D01*
X-691617D01*
Y-1113718D01*
X-690478D01*
Y-1114199D01*
X-690993D01*
X-690903Y-1114298D01*
X-690791Y-1114451D01*
X-690697Y-1114621D01*
Y-1114626D01*
X-690686Y-1114644D01*
X-690674Y-1114668D01*
X-690662Y-1114703D01*
X-690639Y-1114750D01*
X-690621Y-1114802D01*
X-690598Y-1114867D01*
X-690574Y-1114938D01*
X-690556Y-1115014D01*
X-690533Y-1115096D01*
X-690510Y-1115190D01*
X-690492Y-1115284D01*
X-690489Y-1115312D01*
X-690297D01*
Y-1113742D01*
X-690225D01*
Y-1113718D01*
X-689741D01*
Y-1113670D01*
X-689652D01*
Y-1113646D01*
X-689113D01*
Y-1113670D01*
X-688127D01*
Y-1113646D01*
X-687587D01*
Y-1113670D01*
X-686995D01*
Y-1113734D01*
X-686988Y-1113735D01*
X-686976D01*
X-686935Y-1113747D01*
X-686882Y-1113759D01*
X-686812Y-1113776D01*
X-686735Y-1113806D01*
X-686711Y-1113816D01*
X-686677Y-1113824D01*
X-686565Y-1113865D01*
X-686560D01*
X-686554Y-1113871D01*
X-686518Y-1113889D01*
X-686466Y-1113918D01*
X-686447Y-1113931D01*
Y-1113718D01*
X-685988D01*
X-685985Y-1113717D01*
X-685980D01*
X-685968Y-1113711D01*
X-685950Y-1113705D01*
X-685927Y-1113693D01*
X-685897Y-1113681D01*
X-685856Y-1113670D01*
X-685768Y-1113646D01*
X-685657Y-1113623D01*
X-685528Y-1113599D01*
X-685393Y-1113582D01*
X-685240Y-1113576D01*
X-685164D01*
X-685123Y-1113582D01*
X-685082D01*
X-684970Y-1113593D01*
X-684847Y-1113611D01*
X-684718Y-1113640D01*
X-684577Y-1113676D01*
X-684460Y-1113718D01*
X-684257D01*
X-684248Y-1113694D01*
X-683661D01*
X-683651Y-1113718D01*
X-683507D01*
Y-1113742D01*
X-682674D01*
Y-1113718D01*
X-682122D01*
X-682106Y-1113742D01*
X-681560D01*
Y-1113694D01*
X-679677D01*
X-679630Y-1113700D01*
X-679577D01*
X-679454Y-1113706D01*
X-679325Y-1113723D01*
X-679184Y-1113741D01*
X-679180Y-1113742D01*
X-677776D01*
Y-1113694D01*
X-674560D01*
Y-1113746D01*
X-674526Y-1113748D01*
X-674408Y-1113754D01*
X-674291Y-1113765D01*
X-674174Y-1113783D01*
X-674074Y-1113801D01*
X-674068D01*
X-674056Y-1113807D01*
X-674039D01*
X-674015Y-1113818D01*
X-673951Y-1113836D01*
X-673868Y-1113865D01*
X-673774Y-1113906D01*
X-673675Y-1113959D01*
X-673575Y-1114018D01*
X-673481Y-1114094D01*
X-673475Y-1114100D01*
X-673469Y-1114106D01*
X-673452Y-1114123D01*
X-673428Y-1114141D01*
X-673370Y-1114200D01*
X-673299Y-1114282D01*
X-673223Y-1114382D01*
X-673141Y-1114499D01*
X-673065Y-1114634D01*
X-673000Y-1114786D01*
Y-1114792D01*
X-672994Y-1114804D01*
X-672982Y-1114827D01*
X-672977Y-1114863D01*
X-672959Y-1114904D01*
X-672947Y-1114951D01*
X-672935Y-1115004D01*
X-672918Y-1115068D01*
X-672900Y-1115133D01*
X-672889Y-1115209D01*
X-672859Y-1115373D01*
X-672842Y-1115555D01*
X-672836Y-1115754D01*
Y-1115760D01*
Y-1115772D01*
Y-1115801D01*
Y-1115831D01*
X-672842Y-1115872D01*
Y-1115919D01*
X-672848Y-1116030D01*
X-672865Y-1116159D01*
X-672883Y-1116294D01*
X-672912Y-1116435D01*
X-672947Y-1116576D01*
Y-1116582D01*
X-672953Y-1116594D01*
X-672959Y-1116611D01*
X-672965Y-1116635D01*
X-672988Y-1116699D01*
X-673024Y-1116781D01*
X-673059Y-1116875D01*
X-673106Y-1116969D01*
X-673164Y-1117069D01*
X-673223Y-1117163D01*
X-673229Y-1117174D01*
X-673252Y-1117204D01*
X-673288Y-1117245D01*
X-673335Y-1117298D01*
X-673387Y-1117356D01*
X-673452Y-1117415D01*
X-673516Y-1117480D01*
X-673593Y-1117532D01*
X-673604Y-1117538D01*
X-673628Y-1117556D01*
X-673669Y-1117579D01*
X-673728Y-1117609D01*
X-673798Y-1117644D01*
X-673880Y-1117673D01*
X-673974Y-1117708D01*
X-674080Y-1117738D01*
X-674091D01*
X-674109Y-1117744D01*
X-674127Y-1117749D01*
X-674185Y-1117755D01*
X-674267Y-1117767D01*
X-674361Y-1117779D01*
X-674473Y-1117791D01*
X-674596Y-1117796D01*
X-674731Y-1117802D01*
X-676192D01*
Y-1117754D01*
X-676438D01*
Y-1114175D01*
X-677031D01*
Y-1114223D01*
X-678467D01*
X-678456Y-1114240D01*
X-678433Y-1114298D01*
X-678398Y-1114375D01*
X-678368Y-1114463D01*
X-678339Y-1114568D01*
X-678322Y-1114680D01*
X-678316Y-1114803D01*
Y-1114809D01*
Y-1114821D01*
Y-1114844D01*
X-678322Y-1114873D01*
Y-1114914D01*
X-678327Y-1114956D01*
X-678351Y-1115055D01*
X-678386Y-1115173D01*
X-678433Y-1115296D01*
X-678503Y-1115419D01*
X-678537Y-1115461D01*
X-677184D01*
Y-1115942D01*
X-679397D01*
X-679389Y-1115947D01*
X-679342Y-1115971D01*
X-679237Y-1116035D01*
X-679184Y-1116076D01*
X-679137Y-1116112D01*
X-679125Y-1116123D01*
X-679096Y-1116152D01*
X-679049Y-1116199D01*
X-678990Y-1116258D01*
X-678926Y-1116340D01*
X-678849Y-1116428D01*
X-678773Y-1116534D01*
X-678691Y-1116651D01*
X-678267Y-1117321D01*
X-676937D01*
Y-1117802D01*
X-679970D01*
Y-1117778D01*
X-680034D01*
X-681021Y-1116298D01*
Y-1117754D01*
X-681560D01*
Y-1115488D01*
X-681872Y-1115022D01*
Y-1117802D01*
X-682411D01*
Y-1117778D01*
X-682674D01*
Y-1117590D01*
X-683086Y-1116522D01*
X-683594D01*
X-683592Y-1116568D01*
Y-1116574D01*
Y-1116580D01*
Y-1116597D01*
Y-1116621D01*
X-683603Y-1116685D01*
X-683615Y-1116768D01*
X-683638Y-1116861D01*
X-683668Y-1116961D01*
X-683715Y-1117067D01*
X-683779Y-1117178D01*
Y-1117184D01*
X-683785Y-1117190D01*
X-683814Y-1117225D01*
X-683856Y-1117278D01*
X-683875Y-1117297D01*
X-683413D01*
Y-1117778D01*
X-684395D01*
Y-1117802D01*
X-684934D01*
Y-1117778D01*
X-686447D01*
Y-1117678D01*
X-686448Y-1117679D01*
X-686530Y-1117708D01*
X-686630Y-1117738D01*
X-686642D01*
X-686677Y-1117749D01*
X-686736Y-1117755D01*
X-686812Y-1117767D01*
X-686906Y-1117779D01*
X-687017Y-1117791D01*
X-687141Y-1117796D01*
X-687281Y-1117802D01*
X-688830D01*
Y-1117778D01*
X-688888D01*
Y-1117754D01*
X-689135D01*
Y-1117706D01*
X-689201D01*
Y-1117730D01*
X-689741D01*
Y-1115794D01*
X-689757D01*
Y-1117802D01*
X-690297D01*
Y-1115794D01*
X-690460D01*
X-690463Y-1115818D01*
Y-1115870D01*
X-690469Y-1115935D01*
X-690480Y-1116005D01*
X-690486Y-1116082D01*
X-690516Y-1116252D01*
X-690562Y-1116440D01*
X-690627Y-1116627D01*
X-690662Y-1116721D01*
X-690709Y-1116815D01*
Y-1116821D01*
X-690721Y-1116839D01*
X-690733Y-1116862D01*
X-690756Y-1116897D01*
X-690779Y-1116938D01*
X-690809Y-1116979D01*
X-690891Y-1117091D01*
X-690991Y-1117208D01*
X-691108Y-1117331D01*
X-691249Y-1117449D01*
X-691283Y-1117471D01*
Y-1117802D01*
X-691823D01*
Y-1117778D01*
X-692139D01*
X-692205Y-1117789D01*
X-692399Y-1117801D01*
X-692458D01*
X-692493Y-1117795D01*
X-692546D01*
X-692604Y-1117783D01*
X-692669Y-1117777D01*
X-692745Y-1117766D01*
X-692904Y-1117730D01*
X-693074Y-1117683D01*
X-693250Y-1117613D01*
X-693338Y-1117572D01*
X-693426Y-1117525D01*
X-693432Y-1117519D01*
X-693443Y-1117513D01*
X-693467Y-1117496D01*
X-693502Y-1117472D01*
X-693537Y-1117449D01*
X-693578Y-1117413D01*
X-693678Y-1117326D01*
X-693790Y-1117220D01*
X-693907Y-1117091D01*
X-693923Y-1117068D01*
Y-1117802D01*
X-694463D01*
Y-1117778D01*
X-694878D01*
Y-1114127D01*
X-695759D01*
Y-1114218D01*
X-695736Y-1114241D01*
X-695619Y-1114370D01*
X-695507Y-1114522D01*
X-695414Y-1114693D01*
Y-1114698D01*
X-695402Y-1114716D01*
X-695390Y-1114740D01*
X-695378Y-1114775D01*
X-695355Y-1114822D01*
X-695337Y-1114874D01*
X-695314Y-1114939D01*
X-695290Y-1115009D01*
X-695273Y-1115086D01*
X-695249Y-1115168D01*
X-695226Y-1115262D01*
X-695208Y-1115356D01*
X-695185Y-1115561D01*
X-695173Y-1115784D01*
Y-1115790D01*
Y-1115813D01*
Y-1115843D01*
X-695179Y-1115890D01*
Y-1115942D01*
X-695185Y-1116007D01*
X-695196Y-1116077D01*
X-695202Y-1116153D01*
X-695232Y-1116324D01*
X-695279Y-1116511D01*
X-695343Y-1116699D01*
X-695378Y-1116793D01*
X-695425Y-1116887D01*
Y-1116893D01*
X-695437Y-1116910D01*
X-695449Y-1116934D01*
X-695472Y-1116969D01*
X-695496Y-1117010D01*
X-695525Y-1117051D01*
X-695607Y-1117163D01*
X-695707Y-1117280D01*
X-695759Y-1117335D01*
Y-1117350D01*
X-695488Y-1117778D01*
X-696157D01*
X-696172Y-1117754D01*
X-696299D01*
Y-1117702D01*
X-696300Y-1117702D01*
X-696358Y-1117726D01*
X-696423Y-1117749D01*
X-696493Y-1117773D01*
X-696569Y-1117796D01*
X-696740Y-1117832D01*
X-696921Y-1117861D01*
X-697115Y-1117873D01*
X-697174D01*
X-697209Y-1117867D01*
X-697262D01*
X-697320Y-1117855D01*
X-697385Y-1117849D01*
X-697461Y-1117838D01*
X-697620Y-1117802D01*
X-697790Y-1117755D01*
X-697861Y-1117727D01*
Y-1117730D01*
X-698401D01*
Y-1117706D01*
X-698516D01*
Y-1117778D01*
X-699056D01*
Y-1117754D01*
X-699426D01*
X-699715Y-1117322D01*
Y-1117329D01*
X-699415Y-1117802D01*
X-699715D01*
Y-1118681D01*
X-700812D01*
Y-1118271D01*
X-700213D01*
Y-1117597D01*
X-700505Y-1117136D01*
X-700681Y-1117778D01*
X-701209D01*
X-701229Y-1117706D01*
X-701435D01*
Y-1117730D01*
X-701551D01*
Y-1117754D01*
X-702067D01*
Y-1117682D01*
X-702402D01*
Y-1117706D01*
X-702443D01*
Y-1117802D01*
X-702982D01*
Y-1117105D01*
X-703026Y-1117263D01*
Y-1117682D01*
X-703142D01*
X-703169Y-1117778D01*
X-703732D01*
X-703745Y-1117730D01*
X-704091D01*
X-704150Y-1117748D01*
X-704320Y-1117784D01*
X-704502Y-1117813D01*
X-704695Y-1117825D01*
X-704754D01*
X-704789Y-1117819D01*
X-704842D01*
X-704901Y-1117807D01*
X-704965Y-1117801D01*
X-705042Y-1117790D01*
X-705200Y-1117754D01*
X-705370Y-1117707D01*
X-705546Y-1117637D01*
X-705549Y-1117636D01*
Y-1117682D01*
X-706089D01*
Y-1117555D01*
X-706233D01*
Y-1117802D01*
X-706773D01*
Y-1117778D01*
X-709775D01*
Y-1117730D01*
X-709856D01*
X-709871Y-1117738D01*
X-709906Y-1117749D01*
X-709947Y-1117767D01*
X-710041Y-1117791D01*
X-710152Y-1117820D01*
X-710287Y-1117849D01*
X-710434Y-1117867D01*
X-710592Y-1117873D01*
X-710686D01*
X-710733Y-1117867D01*
X-710786D01*
X-710845Y-1117861D01*
X-710915Y-1117855D01*
X-711062Y-1117832D01*
X-711074Y-1117830D01*
Y-1118271D01*
X-710476D01*
Y-1118681D01*
X-711573D01*
Y-1117706D01*
X-712483D01*
Y-1117682D01*
X-713086D01*
Y-1117802D01*
X-713594D01*
X-713637Y-1117807D01*
X-713749Y-1117819D01*
X-713866Y-1117825D01*
X-713931D01*
X-713978Y-1117819D01*
X-714031D01*
X-714095Y-1117813D01*
X-714165Y-1117801D01*
X-714248Y-1117790D01*
X-714418Y-1117760D01*
X-714530Y-1117730D01*
X-714671D01*
Y-1117685D01*
X-714678Y-1117682D01*
X-714995D01*
Y-1117530D01*
X-715280D01*
Y-1117240D01*
X-715374Y-1117121D01*
X-715474Y-1116962D01*
X-715562Y-1116786D01*
Y-1116780D01*
X-715574Y-1116763D01*
X-715578Y-1116739D01*
X-715616Y-1116815D01*
Y-1116821D01*
X-715628Y-1116839D01*
X-715640Y-1116862D01*
X-715663Y-1116897D01*
X-715687Y-1116938D01*
X-715716Y-1116979D01*
X-715772Y-1117055D01*
Y-1117778D01*
X-716037D01*
Y-1117802D01*
X-717805D01*
X-717891Y-1117813D01*
X-718102Y-1117825D01*
X-718155D01*
X-718189Y-1117820D01*
X-718221Y-1117821D01*
X-718362Y-1117827D01*
X-719911D01*
Y-1117730D01*
X-720275D01*
X-720305Y-1117682D01*
X-720477D01*
X-720538Y-1117714D01*
X-720544D01*
X-720555Y-1117720D01*
X-720573Y-1117726D01*
X-720596Y-1117738D01*
X-720632Y-1117749D01*
X-720673Y-1117767D01*
X-720767Y-1117791D01*
X-720878Y-1117820D01*
X-721013Y-1117849D01*
X-721160Y-1117867D01*
X-721318Y-1117873D01*
X-721412D01*
X-721459Y-1117867D01*
X-721512D01*
X-721570Y-1117861D01*
X-721641Y-1117855D01*
X-721768Y-1117835D01*
X-721800Y-1117845D01*
X-721900Y-1117868D01*
X-722005Y-1117880D01*
X-722117Y-1117892D01*
X-722234Y-1117898D01*
X-722299D01*
X-722346Y-1117892D01*
X-722398D01*
X-722463Y-1117886D01*
X-722533Y-1117874D01*
X-722615Y-1117862D01*
X-722786Y-1117833D01*
X-722962Y-1117786D01*
X-723048Y-1117754D01*
X-723315D01*
X-723295Y-1117802D01*
X-723906D01*
X-723943Y-1117706D01*
X-724108D01*
X-724127Y-1117714D01*
X-724186Y-1117737D01*
X-724250Y-1117761D01*
X-724321Y-1117778D01*
X-724397Y-1117796D01*
X-724485Y-1117813D01*
X-724573Y-1117825D01*
X-724667Y-1117837D01*
X-724878Y-1117849D01*
X-724931D01*
X-724972Y-1117843D01*
X-725019D01*
X-725078Y-1117837D01*
X-725142Y-1117831D01*
X-725207Y-1117825D01*
X-725353Y-1117802D01*
X-725512Y-1117766D01*
X-725665Y-1117720D01*
X-725725Y-1117693D01*
X-725748Y-1117701D01*
X-725818Y-1117725D01*
X-725894Y-1117748D01*
X-726065Y-1117784D01*
X-726246Y-1117813D01*
X-726440Y-1117825D01*
X-726499D01*
X-726534Y-1117819D01*
X-726587D01*
X-726645Y-1117807D01*
X-726699Y-1117802D01*
X-727092D01*
X-727061Y-1117722D01*
X-727115Y-1117707D01*
X-727227Y-1117662D01*
Y-1117827D01*
X-727767D01*
Y-1117682D01*
X-728187D01*
X-728218Y-1117697D01*
X-728294Y-1117732D01*
X-728377Y-1117761D01*
X-728465Y-1117791D01*
X-728559Y-1117820D01*
X-728658Y-1117843D01*
X-728764Y-1117855D01*
X-728875Y-1117867D01*
X-728993Y-1117873D01*
X-729057D01*
X-729104Y-1117867D01*
X-729157D01*
X-729221Y-1117861D01*
X-729292Y-1117849D01*
X-729374Y-1117838D01*
X-729544Y-1117808D01*
X-729720Y-1117761D01*
X-729804Y-1117730D01*
X-730613D01*
X-730679Y-1117741D01*
X-730873Y-1117753D01*
X-730931D01*
X-730966Y-1117747D01*
X-731019D01*
X-731075Y-1117736D01*
X-731082Y-1117739D01*
X-731170Y-1117780D01*
X-731264Y-1117821D01*
X-731364Y-1117851D01*
X-731475Y-1117874D01*
X-731593Y-1117892D01*
X-731716Y-1117898D01*
X-731769D01*
X-731810Y-1117892D01*
X-731857Y-1117886D01*
X-731909Y-1117880D01*
X-731974Y-1117874D01*
X-732038Y-1117857D01*
X-732185Y-1117821D01*
X-732305Y-1117778D01*
X-732336D01*
Y-1117767D01*
X-732353Y-1117759D01*
X-732414Y-1117753D01*
X-732490Y-1117742D01*
X-732649Y-1117706D01*
X-732819Y-1117659D01*
X-732848Y-1117648D01*
Y-1117802D01*
X-733387D01*
Y-1117730D01*
X-734297D01*
Y-1117827D01*
X-734796D01*
Y-1117778D01*
X-734976D01*
Y-1117752D01*
X-734997Y-1117753D01*
X-735062D01*
X-735109Y-1117747D01*
X-735162D01*
X-735165Y-1117747D01*
Y-1117802D01*
X-737706D01*
Y-1117754D01*
X-737716D01*
X-737742Y-1117760D01*
X-737924Y-1117789D01*
X-738118Y-1117801D01*
X-738176D01*
X-738212Y-1117795D01*
X-738264D01*
X-738323Y-1117783D01*
X-738388Y-1117777D01*
X-738464Y-1117766D01*
X-738514Y-1117754D01*
X-739412D01*
Y-1117778D01*
X-739712D01*
X-739771Y-1117796D01*
X-739941Y-1117832D01*
X-740123Y-1117861D01*
X-740317Y-1117873D01*
X-740375D01*
X-740411Y-1117867D01*
X-740463D01*
X-740522Y-1117855D01*
X-740587Y-1117849D01*
X-740663Y-1117838D01*
X-740821Y-1117802D01*
X-740992Y-1117755D01*
X-740994Y-1117754D01*
X-741073D01*
X-741100Y-1117712D01*
X-741168Y-1117685D01*
X-741173Y-1117682D01*
X-741412D01*
X-741420Y-1117683D01*
X-741478Y-1117689D01*
X-741491Y-1117695D01*
X-741585Y-1117719D01*
X-741647Y-1117735D01*
X-741659Y-1117778D01*
X-741840D01*
X-741978Y-1117795D01*
X-742137Y-1117801D01*
X-742189D01*
Y-1117827D01*
X-742729D01*
Y-1117741D01*
X-742759Y-1117736D01*
X-742870Y-1117706D01*
X-742891Y-1117703D01*
X-742964Y-1117692D01*
X-743181D01*
Y-1117706D01*
X-743432D01*
Y-1117754D01*
X-743972D01*
Y-1117603D01*
X-743985Y-1117610D01*
X-744037Y-1117634D01*
X-744102Y-1117669D01*
X-744119Y-1117677D01*
X-744147Y-1117778D01*
X-744445D01*
X-744466Y-1117780D01*
X-744542Y-1117792D01*
X-744636Y-1117804D01*
X-744747Y-1117815D01*
X-744871Y-1117821D01*
X-745011Y-1117827D01*
X-746560D01*
Y-1117757D01*
X-746596Y-1117753D01*
X-746672Y-1117742D01*
X-746722Y-1117730D01*
X-747662D01*
Y-1117754D01*
X-747720D01*
Y-1117778D01*
X-748035D01*
X-748039Y-1117780D01*
X-748145Y-1117821D01*
X-748268Y-1117862D01*
X-748414Y-1117886D01*
X-748573Y-1117898D01*
X-748632D01*
X-748673Y-1117892D01*
X-748719Y-1117886D01*
X-748778Y-1117874D01*
X-748843Y-1117862D01*
X-748913Y-1117845D01*
X-748984Y-1117821D01*
X-749060Y-1117798D01*
X-749102Y-1117778D01*
X-750362D01*
Y-1117802D01*
X-750433D01*
Y-1117827D01*
X-753126D01*
Y-1117821D01*
Y-1117820D01*
X-753184Y-1117832D01*
X-753366Y-1117861D01*
X-753559Y-1117873D01*
X-753618D01*
X-753653Y-1117867D01*
X-753706D01*
X-753765Y-1117855D01*
X-753829Y-1117849D01*
X-753906Y-1117838D01*
X-754064Y-1117802D01*
X-754234Y-1117755D01*
X-754237Y-1117754D01*
X-754480D01*
X-754504Y-1117692D01*
X-754723D01*
X-754737Y-1117656D01*
X-754843D01*
X-754853Y-1117630D01*
X-754942D01*
Y-1117809D01*
X-755440D01*
Y-1117730D01*
X-755573D01*
Y-1117630D01*
X-755621D01*
X-755647Y-1117643D01*
X-755688Y-1117661D01*
X-755735Y-1117679D01*
X-755742Y-1117682D01*
Y-1117694D01*
X-755775D01*
X-755794Y-1117702D01*
X-755858Y-1117726D01*
X-755928Y-1117749D01*
X-756005Y-1117772D01*
X-756175Y-1117808D01*
X-756357Y-1117837D01*
X-756551Y-1117849D01*
X-756609D01*
X-756644Y-1117843D01*
X-756697D01*
X-756756Y-1117831D01*
X-756820Y-1117825D01*
X-756897Y-1117813D01*
X-757055Y-1117778D01*
X-757142Y-1117754D01*
X-757666D01*
X-757643Y-1117692D01*
X-757808D01*
Y-1117706D01*
X-757819D01*
Y-1117802D01*
X-757984D01*
Y-1117827D01*
X-758524D01*
Y-1117694D01*
X-758864D01*
X-758870Y-1117695D01*
X-758987Y-1117701D01*
X-759052D01*
X-759099Y-1117695D01*
X-759152D01*
X-759181Y-1117692D01*
X-759226D01*
Y-1117778D01*
X-759766D01*
Y-1117706D01*
X-759825D01*
X-759874Y-1117719D01*
X-759986Y-1117748D01*
X-760120Y-1117777D01*
X-760130Y-1117778D01*
X-760143Y-1117827D01*
X-760671D01*
X-760678Y-1117802D01*
X-761017D01*
Y-1117741D01*
X-761048Y-1117736D01*
X-761097Y-1117723D01*
Y-1117809D01*
X-761636D01*
Y-1117754D01*
X-761866D01*
Y-1117778D01*
X-762406D01*
Y-1117706D01*
X-762598D01*
X-762631Y-1117827D01*
X-763194D01*
X-763197Y-1117816D01*
X-763270Y-1117832D01*
X-763452Y-1117861D01*
X-763645Y-1117873D01*
X-763704D01*
X-763739Y-1117867D01*
X-763792D01*
X-763851Y-1117855D01*
X-763915Y-1117849D01*
X-763951Y-1117844D01*
X-764101Y-1117868D01*
X-764294Y-1117880D01*
X-764353D01*
X-764388Y-1117874D01*
X-764441D01*
X-764500Y-1117862D01*
X-764564Y-1117856D01*
X-764641Y-1117844D01*
X-764799Y-1117809D01*
X-764969Y-1117762D01*
X-764989Y-1117754D01*
X-765734D01*
Y-1117706D01*
X-765753D01*
Y-1117692D01*
X-765795D01*
Y-1117682D01*
X-765977D01*
Y-1117630D01*
X-766058D01*
X-766066Y-1117635D01*
X-766137Y-1117670D01*
X-766200Y-1117692D01*
Y-1117809D01*
X-766398D01*
Y-1117827D01*
X-766967D01*
Y-1117824D01*
X-767070Y-1117828D01*
X-768531D01*
Y-1117827D01*
X-768837D01*
X-768938Y-1117849D01*
X-769085Y-1117867D01*
X-769243Y-1117873D01*
X-769337D01*
X-769384Y-1117867D01*
X-769437D01*
X-769495Y-1117861D01*
X-769566Y-1117855D01*
X-769712Y-1117832D01*
X-769734Y-1117828D01*
X-772309D01*
Y-1117827D01*
X-772621D01*
X-772722Y-1117849D01*
X-772869Y-1117867D01*
X-773027Y-1117873D01*
X-773121D01*
X-773168Y-1117867D01*
X-773221D01*
X-773280Y-1117861D01*
X-773350Y-1117855D01*
X-773497Y-1117832D01*
X-773525Y-1117827D01*
X-774002D01*
Y-1117809D01*
X-774456D01*
X-774486Y-1117821D01*
X-774609Y-1117862D01*
X-774756Y-1117886D01*
X-774914Y-1117897D01*
X-774973D01*
X-775014Y-1117891D01*
X-775061Y-1117886D01*
X-775120Y-1117874D01*
X-775184Y-1117862D01*
X-775255Y-1117844D01*
X-775306Y-1117827D01*
X-775469D01*
Y-1117812D01*
X-775538Y-1117819D01*
X-775583Y-1117821D01*
Y-1117828D01*
X-776123D01*
Y-1117809D01*
X-776215D01*
Y-1117827D01*
X-776674D01*
X-776805Y-1117843D01*
X-776963Y-1117849D01*
X-777057D01*
X-777104Y-1117843D01*
X-777157D01*
X-777215Y-1117837D01*
X-777286Y-1117831D01*
X-777312Y-1117827D01*
X-777952D01*
X-778012Y-1117846D01*
X-778112Y-1117869D01*
X-778218Y-1117881D01*
X-778329Y-1117893D01*
X-778447Y-1117899D01*
X-778511D01*
X-778558Y-1117893D01*
X-778611D01*
X-778676Y-1117887D01*
X-778746Y-1117875D01*
X-778828Y-1117863D01*
X-778998Y-1117834D01*
X-779025Y-1117827D01*
X-779115D01*
X-779119Y-1117827D01*
X-780668D01*
Y-1117809D01*
X-780786D01*
X-780811Y-1117897D01*
X-781210D01*
X-781202Y-1117868D01*
X-781210D01*
X-781199Y-1117828D01*
X-782331D01*
X-782378Y-1117844D01*
X-782489Y-1117868D01*
X-782612Y-1117891D01*
X-782747Y-1117897D01*
X-782777D01*
X-782806Y-1117891D01*
X-782853D01*
X-782906Y-1117886D01*
X-782964Y-1117874D01*
X-783035Y-1117856D01*
X-783105Y-1117839D01*
X-783142Y-1117828D01*
X-783974D01*
Y-1117827D01*
X-784080D01*
X-784136Y-1117845D01*
X-784236Y-1117868D01*
X-784341Y-1117880D01*
X-784453Y-1117892D01*
X-784570Y-1117897D01*
X-784635D01*
X-784682Y-1117892D01*
X-784734D01*
X-784799Y-1117886D01*
X-784869Y-1117874D01*
X-784952Y-1117862D01*
X-785122Y-1117833D01*
X-785140Y-1117828D01*
X-785417D01*
Y-1117827D01*
X-785743D01*
X-785743Y-1117827D01*
X-785792D01*
X-785792Y-1117827D01*
X-785891Y-1117850D01*
X-785997Y-1117862D01*
X-786108Y-1117874D01*
X-786226Y-1117880D01*
X-786290D01*
X-786337Y-1117874D01*
X-786390D01*
X-786455Y-1117868D01*
X-786525Y-1117856D01*
X-786607Y-1117845D01*
X-786777Y-1117815D01*
X-786786Y-1117813D01*
X-786786Y-1117813D01*
X-786980Y-1117825D01*
X-787038D01*
X-787074Y-1117819D01*
X-787126D01*
X-787175Y-1117809D01*
X-787252D01*
Y-1117827D01*
X-787518D01*
Y-1117828D01*
X-788057D01*
Y-1117802D01*
X-788351D01*
X-788360Y-1117827D01*
X-788683D01*
X-788703Y-1117897D01*
X-789102D01*
X-789093Y-1117868D01*
X-789102D01*
X-789074Y-1117769D01*
X-789103D01*
X-789113Y-1117774D01*
X-789207Y-1117797D01*
X-789319Y-1117827D01*
X-789332Y-1117830D01*
Y-1117873D01*
X-789594D01*
X-789600Y-1117874D01*
X-789759Y-1117880D01*
X-789853D01*
X-789900Y-1117874D01*
X-789952D01*
X-789956Y-1117873D01*
X-790015Y-1117880D01*
X-790127Y-1117892D01*
X-790244Y-1117897D01*
X-790309D01*
X-790335Y-1117894D01*
X-790422Y-1117899D01*
X-790487D01*
X-790534Y-1117893D01*
X-790586D01*
X-790593Y-1117892D01*
X-790692Y-1117897D01*
X-790751D01*
X-790769Y-1117895D01*
X-790830Y-1117898D01*
X-790894D01*
X-790909Y-1117896D01*
X-790959Y-1117908D01*
X-791058Y-1117926D01*
X-791158Y-1117937D01*
X-791270Y-1117943D01*
X-791322D01*
X-791357Y-1117937D01*
X-791404Y-1117932D01*
X-791457Y-1117926D01*
X-791516Y-1117914D01*
X-791581Y-1117902D01*
X-791698Y-1117873D01*
X-791867D01*
X-791946Y-1117896D01*
X-792058Y-1117920D01*
X-792175Y-1117937D01*
X-792298Y-1117943D01*
X-792351D01*
X-792392Y-1117937D01*
X-792439Y-1117932D01*
X-792492Y-1117926D01*
X-792557Y-1117920D01*
X-792621Y-1117902D01*
X-792768Y-1117867D01*
X-792915Y-1117814D01*
X-792991Y-1117779D01*
X-793067Y-1117738D01*
X-793138Y-1117691D01*
X-793208Y-1117638D01*
X-793214Y-1117632D01*
X-793225Y-1117627D01*
X-793237Y-1117603D01*
X-793261Y-1117580D01*
X-793290Y-1117550D01*
X-793319Y-1117515D01*
X-793354Y-1117468D01*
X-793384Y-1117415D01*
X-793419Y-1117363D01*
X-793454Y-1117298D01*
X-793519Y-1117157D01*
X-793572Y-1116993D01*
X-793589Y-1116905D01*
X-793601Y-1116811D01*
X-793079Y-1116770D01*
Y-1116776D01*
Y-1116787D01*
X-793078Y-1116791D01*
Y-1116441D01*
X-792727Y-1115946D01*
X-792737Y-1115768D01*
Y-1115762D01*
Y-1115739D01*
Y-1115728D01*
X-792744Y-1115731D01*
X-792750Y-1115737D01*
X-792774Y-1115749D01*
X-792809Y-1115778D01*
X-792856Y-1115808D01*
X-792903Y-1115849D01*
X-792950Y-1115902D01*
X-793002Y-1115954D01*
X-793044Y-1116019D01*
X-793513Y-1115954D01*
X-793120Y-1113866D01*
X-792572D01*
Y-1113570D01*
X-792572D01*
Y-1113545D01*
X-792564D01*
Y-1113520D01*
X-792543D01*
Y-1113494D01*
X-792542D01*
Y-1113469D01*
X-792337D01*
Y-1113466D01*
X-791249D01*
Y-1113029D01*
Y-1112039D01*
X-789688D01*
X-789582Y-1112045D01*
D02*
G37*
%LPC*%
G36*
X-789788Y-1112520D02*
X-790709D01*
Y-1113021D01*
X-790615Y-1112927D01*
X-790480Y-1112810D01*
X-790322Y-1112710D01*
X-790316Y-1112704D01*
X-790298Y-1112698D01*
X-790275Y-1112686D01*
X-790245Y-1112669D01*
X-790198Y-1112651D01*
X-790151Y-1112634D01*
X-790093Y-1112610D01*
X-790028Y-1112587D01*
X-789958Y-1112563D01*
X-789882Y-1112540D01*
X-789788Y-1112520D01*
D02*
G37*
G36*
X-790046Y-1113510D02*
X-790167D01*
X-790137Y-1113519D01*
X-790133Y-1113520D01*
X-790048D01*
X-790046Y-1113510D01*
D02*
G37*
G36*
X-789348Y-1112921D02*
X-789395D01*
X-789424Y-1112927D01*
X-789465D01*
X-789512Y-1112933D01*
X-789623Y-1112951D01*
X-789747Y-1112974D01*
X-789876Y-1113015D01*
X-789908Y-1113029D01*
X-789653D01*
X-789612Y-1113035D01*
X-789565D01*
X-789459Y-1113047D01*
X-789342Y-1113059D01*
X-789219Y-1113082D01*
X-789095Y-1113111D01*
X-788984Y-1113152D01*
X-788978D01*
X-788972Y-1113158D01*
X-788937Y-1113176D01*
X-788884Y-1113205D01*
X-788825Y-1113246D01*
X-788755Y-1113299D01*
X-788679Y-1113364D01*
X-788608Y-1113446D01*
X-788544Y-1113534D01*
X-788538Y-1113546D01*
X-788537Y-1113548D01*
X-788492D01*
X-788497Y-1113523D01*
X-788532Y-1113359D01*
X-788583Y-1113210D01*
X-788673Y-1113127D01*
X-788685Y-1113115D01*
X-788720Y-1113091D01*
X-788778Y-1113062D01*
X-788855Y-1113021D01*
X-788954Y-1112986D01*
X-789066Y-1112951D01*
X-789201Y-1112927D01*
X-789348Y-1112921D01*
D02*
G37*
G36*
X-696299Y-1113753D02*
X-696348Y-1113824D01*
X-696299Y-1113844D01*
Y-1113753D01*
D02*
G37*
G36*
X-693749Y-1114127D02*
X-693923D01*
Y-1114204D01*
X-693880Y-1114268D01*
X-693801Y-1114175D01*
X-693795Y-1114169D01*
X-693778Y-1114151D01*
X-693749Y-1114127D01*
D02*
G37*
G36*
X-736445Y-1114199D02*
X-736583D01*
X-736528Y-1114260D01*
X-736511Y-1114283D01*
X-736488Y-1114250D01*
X-736445Y-1114199D01*
D02*
G37*
G36*
X-741859Y-1114248D02*
X-741870D01*
X-741876Y-1114253D01*
X-741880Y-1114257D01*
Y-1114454D01*
X-741813Y-1114358D01*
X-741786Y-1114326D01*
X-741829Y-1114276D01*
X-741859Y-1114248D01*
D02*
G37*
G36*
X-719911Y-1114199D02*
X-719987D01*
Y-1114307D01*
X-719911Y-1114493D01*
Y-1114199D01*
D02*
G37*
G36*
X-715280D02*
X-715669D01*
X-715473Y-1114493D01*
X-715462Y-1114474D01*
X-715433Y-1114427D01*
X-715357Y-1114322D01*
X-715280Y-1114232D01*
Y-1114199D01*
D02*
G37*
G36*
X-747997Y-1114486D02*
X-747996Y-1114507D01*
X-747991Y-1114531D01*
X-747982Y-1114512D01*
X-747992Y-1114495D01*
Y-1114489D01*
X-747997Y-1114486D01*
D02*
G37*
G36*
X-702189Y-1114211D02*
Y-1114217D01*
X-702195Y-1114223D01*
X-702201Y-1114258D01*
X-702213Y-1114311D01*
X-702230Y-1114375D01*
X-702248Y-1114446D01*
X-702271Y-1114528D01*
X-702276Y-1114549D01*
X-702197Y-1114545D01*
X-702156D01*
X-702126Y-1114551D01*
X-702097D01*
X-702113Y-1114481D01*
X-702136Y-1114399D01*
X-702160Y-1114322D01*
X-702177Y-1114258D01*
X-702183Y-1114229D01*
X-702189Y-1114211D01*
D02*
G37*
G36*
X-681560Y-1114223D02*
X-681785D01*
X-681560Y-1114561D01*
Y-1114223D01*
D02*
G37*
G36*
X-702982Y-1114151D02*
X-703026D01*
Y-1114586D01*
X-702994Y-1114645D01*
Y-1114650D01*
X-702982Y-1114668D01*
Y-1114151D01*
D02*
G37*
G36*
X-717052Y-1114223D02*
X-717241D01*
X-717206Y-1114272D01*
X-717200Y-1114283D01*
X-717182Y-1114318D01*
X-717153Y-1114365D01*
X-717124Y-1114436D01*
X-717094Y-1114518D01*
X-717065Y-1114606D01*
X-717052Y-1114678D01*
Y-1114223D01*
D02*
G37*
G36*
X-707097Y-1114199D02*
X-707424D01*
Y-1114687D01*
X-707389Y-1114668D01*
X-707307Y-1114627D01*
X-707219Y-1114592D01*
X-707125Y-1114568D01*
X-707097Y-1114563D01*
Y-1114199D01*
D02*
G37*
G36*
X-708704D02*
X-709236D01*
Y-1114705D01*
X-709196Y-1114680D01*
X-709185Y-1114674D01*
X-709155Y-1114656D01*
X-709109Y-1114639D01*
X-709044Y-1114609D01*
X-708968Y-1114586D01*
X-708880Y-1114568D01*
X-708780Y-1114551D01*
X-708704Y-1114546D01*
Y-1114199D01*
D02*
G37*
G36*
X-736098Y-1114572D02*
X-736106Y-1114584D01*
X-736171Y-1114708D01*
X-736172Y-1114710D01*
X-736098D01*
Y-1114572D01*
D02*
G37*
G36*
X-759832Y-1114299D02*
Y-1114692D01*
X-759807Y-1114728D01*
X-759766Y-1114556D01*
Y-1114366D01*
X-759768Y-1114362D01*
X-759832Y-1114299D01*
D02*
G37*
G36*
X-747356Y-1114492D02*
X-747370Y-1114509D01*
X-747400Y-1114550D01*
X-747430Y-1114596D01*
X-747417Y-1114624D01*
X-747376Y-1114741D01*
X-747369Y-1114765D01*
X-747356Y-1114746D01*
Y-1114492D01*
D02*
G37*
G36*
X-707964Y-1114199D02*
X-708025D01*
Y-1114783D01*
X-708023Y-1114785D01*
X-707976Y-1114838D01*
X-707964Y-1114853D01*
Y-1114199D01*
D02*
G37*
G36*
X-731513Y-1114295D02*
X-731611D01*
X-731736Y-1114476D01*
X-731739Y-1114486D01*
X-731768Y-1114584D01*
Y-1114660D01*
X-731404D01*
Y-1114989D01*
X-731381Y-1114998D01*
Y-1114679D01*
X-731387Y-1114662D01*
X-731405Y-1114603D01*
X-731428Y-1114544D01*
X-731475Y-1114409D01*
X-731513Y-1114295D01*
D02*
G37*
G36*
X-744665Y-1114291D02*
Y-1114523D01*
X-744624Y-1114597D01*
Y-1114603D01*
X-744613Y-1114620D01*
X-744601Y-1114644D01*
X-744589Y-1114679D01*
X-744566Y-1114726D01*
X-744548Y-1114779D01*
X-744524Y-1114843D01*
X-744501Y-1114913D01*
X-744483Y-1114990D01*
X-744479Y-1115004D01*
X-744351Y-1114476D01*
X-744360Y-1114465D01*
X-744389Y-1114436D01*
X-744430Y-1114401D01*
X-744477Y-1114365D01*
X-744536Y-1114330D01*
X-744601Y-1114307D01*
X-744606D01*
X-744636Y-1114295D01*
X-744665Y-1114291D01*
D02*
G37*
G36*
X-705071Y-1114223D02*
X-705281D01*
X-705347Y-1114251D01*
X-705435Y-1114298D01*
X-705517Y-1114351D01*
X-705549Y-1114374D01*
Y-1114603D01*
X-705512Y-1114690D01*
Y-1114696D01*
X-705506Y-1114708D01*
X-705495Y-1114732D01*
X-705489Y-1114767D01*
X-705471Y-1114808D01*
X-705459Y-1114855D01*
X-705448Y-1114908D01*
X-705430Y-1114972D01*
X-705412Y-1115037D01*
X-705401Y-1115113D01*
X-705371Y-1115277D01*
X-705354Y-1115459D01*
X-705353Y-1115465D01*
X-705348D01*
X-705283Y-1115460D01*
Y-1114609D01*
X-704837D01*
Y-1115032D01*
X-704831Y-1115020D01*
X-704814Y-1114997D01*
X-704778Y-1114956D01*
X-704737Y-1114909D01*
X-704685Y-1114850D01*
X-704620Y-1114791D01*
X-704549Y-1114733D01*
X-704532Y-1114721D01*
X-704645Y-1114289D01*
X-704656Y-1114280D01*
X-704659Y-1114278D01*
X-704696Y-1114264D01*
X-704702D01*
X-704725Y-1114258D01*
X-704760Y-1114252D01*
X-704807Y-1114241D01*
X-704878Y-1114235D01*
X-704966Y-1114229D01*
X-705071Y-1114223D01*
D02*
G37*
G36*
X-740376Y-1114764D02*
X-740499Y-1114793D01*
Y-1115008D01*
X-740428Y-1115036D01*
X-740376Y-1115051D01*
Y-1114764D01*
D02*
G37*
G36*
X-697237Y-1114170D02*
X-697376D01*
X-697379Y-1114170D01*
X-697449Y-1114182D01*
X-697602Y-1114229D01*
X-697684Y-1114264D01*
X-697766Y-1114299D01*
X-697775Y-1114304D01*
Y-1115061D01*
X-697744Y-1115014D01*
X-697650Y-1114867D01*
X-697197Y-1114171D01*
X-697237Y-1114170D01*
D02*
G37*
G36*
X-738344Y-1114199D02*
X-738651D01*
X-738627Y-1114256D01*
X-738597Y-1114367D01*
X-738568Y-1114484D01*
X-738556Y-1114613D01*
X-738654Y-1114621D01*
X-738615Y-1114693D01*
Y-1114698D01*
X-738604Y-1114716D01*
X-738592Y-1114740D01*
X-738580Y-1114775D01*
X-738557Y-1114822D01*
X-738539Y-1114874D01*
X-738515Y-1114939D01*
X-738492Y-1115009D01*
X-738474Y-1115086D01*
X-738472Y-1115092D01*
X-738344Y-1114754D01*
Y-1114199D01*
D02*
G37*
G36*
X-719097Y-1114248D02*
X-719164D01*
Y-1115108D01*
X-719154Y-1115055D01*
X-719119Y-1114926D01*
X-719097Y-1114865D01*
Y-1114248D01*
D02*
G37*
G36*
X-759165Y-1114263D02*
X-759179Y-1114316D01*
X-759158Y-1114362D01*
X-759117Y-1114456D01*
X-759088Y-1114568D01*
X-759058Y-1114685D01*
X-759047Y-1114814D01*
X-759212Y-1114827D01*
Y-1115099D01*
X-759163Y-1115114D01*
X-759125Y-1115122D01*
X-759091Y-1115074D01*
X-759085Y-1115068D01*
X-759074Y-1115045D01*
X-759056Y-1115010D01*
X-759033Y-1114963D01*
X-759015Y-1114910D01*
X-758997Y-1114851D01*
X-758986Y-1114781D01*
X-758980Y-1114710D01*
Y-1114704D01*
Y-1114699D01*
X-758986Y-1114663D01*
X-758991Y-1114611D01*
X-759003Y-1114540D01*
X-759033Y-1114470D01*
X-759068Y-1114388D01*
X-759121Y-1114311D01*
X-759165Y-1114263D01*
D02*
G37*
G36*
X-713908Y-1114151D02*
X-714132D01*
Y-1115097D01*
X-714078Y-1115114D01*
X-713973Y-1115137D01*
X-713908Y-1115153D01*
Y-1114151D01*
D02*
G37*
G36*
X-722057Y-1114274D02*
X-722063Y-1114276D01*
X-722110Y-1114305D01*
X-722157Y-1114335D01*
X-722169Y-1114341D01*
X-722192Y-1114364D01*
X-722227Y-1114405D01*
X-722263Y-1114452D01*
X-722304Y-1114517D01*
X-722339Y-1114587D01*
X-722363Y-1114669D01*
X-722374Y-1114763D01*
Y-1114775D01*
Y-1114798D01*
X-722368Y-1114839D01*
X-722357Y-1114886D01*
X-722339Y-1114945D01*
X-722310Y-1115004D01*
X-722274Y-1115062D01*
X-722222Y-1115121D01*
X-722216Y-1115127D01*
X-722187Y-1115144D01*
X-722164Y-1115161D01*
X-721888D01*
X-721883Y-1115152D01*
X-721848Y-1115058D01*
X-721824Y-1114952D01*
X-721813Y-1114829D01*
Y-1114823D01*
Y-1114817D01*
Y-1114788D01*
X-721818Y-1114735D01*
X-721830Y-1114677D01*
X-721842Y-1114612D01*
X-721865Y-1114536D01*
X-721900Y-1114465D01*
X-721942Y-1114395D01*
X-721947Y-1114389D01*
X-721965Y-1114365D01*
X-721994Y-1114336D01*
X-722030Y-1114295D01*
X-722057Y-1114274D01*
D02*
G37*
G36*
X-729826Y-1114647D02*
X-729911Y-1114653D01*
X-729936Y-1114723D01*
X-729962Y-1114794D01*
X-729717Y-1115162D01*
X-729708Y-1115143D01*
X-729700Y-1115127D01*
X-729826Y-1114647D01*
D02*
G37*
G36*
X-708786Y-1114979D02*
X-708821D01*
X-708862Y-1114985D01*
X-708909Y-1114991D01*
X-708968Y-1115008D01*
X-709038Y-1115026D01*
X-709103Y-1115055D01*
X-709173Y-1115090D01*
X-709179Y-1115096D01*
X-709202Y-1115114D01*
X-709232Y-1115137D01*
X-709236Y-1115141D01*
Y-1115188D01*
X-708704D01*
Y-1114984D01*
X-708786Y-1114979D01*
D02*
G37*
G36*
X-723173Y-1114517D02*
X-723196Y-1114541D01*
X-723266Y-1114622D01*
Y-1115188D01*
X-723173D01*
Y-1114517D01*
D02*
G37*
G36*
X-717052Y-1114926D02*
X-717059Y-1114964D01*
X-717077Y-1115040D01*
X-717106Y-1115122D01*
X-717141Y-1115204D01*
X-717146Y-1115214D01*
X-717052D01*
Y-1114926D01*
D02*
G37*
G36*
X-718263Y-1114436D02*
X-718286Y-1114456D01*
X-718292Y-1114462D01*
X-718304Y-1114474D01*
X-718321Y-1114497D01*
X-718350Y-1114533D01*
X-718380Y-1114574D01*
X-718415Y-1114626D01*
X-718450Y-1114691D01*
X-718491Y-1114767D01*
X-718526Y-1114849D01*
X-718531Y-1114861D01*
Y-1115214D01*
X-718074D01*
Y-1114691D01*
X-718144Y-1114707D01*
Y-1114702D01*
X-718149Y-1114690D01*
X-718161Y-1114666D01*
X-718173Y-1114637D01*
X-718185Y-1114602D01*
X-718202Y-1114555D01*
X-718249Y-1114461D01*
X-718263Y-1114436D01*
D02*
G37*
G36*
X-746005Y-1114907D02*
Y-1115214D01*
X-745879D01*
Y-1115095D01*
X-746005Y-1114907D01*
D02*
G37*
G36*
X-700853Y-1114652D02*
X-700860Y-1114676D01*
X-700482Y-1115243D01*
X-700476Y-1115218D01*
X-700853Y-1114652D01*
D02*
G37*
G36*
X-751515Y-1114223D02*
X-751477Y-1114286D01*
X-751430Y-1114379D01*
X-751377Y-1114497D01*
X-751324Y-1114626D01*
X-751283Y-1114772D01*
X-751577Y-1114850D01*
Y-1115264D01*
X-751415D01*
X-751405Y-1115250D01*
X-751364Y-1115191D01*
X-751323Y-1115115D01*
X-751288Y-1115021D01*
X-751277Y-1114976D01*
Y-1114599D01*
X-751282Y-1114575D01*
X-751305Y-1114499D01*
X-751340Y-1114429D01*
X-751382Y-1114358D01*
X-751387Y-1114352D01*
X-751405Y-1114329D01*
X-751434Y-1114300D01*
X-751469Y-1114258D01*
X-751515Y-1114223D01*
D02*
G37*
G36*
X-704511Y-1115145D02*
X-704544Y-1115173D01*
X-704585Y-1115219D01*
X-704618Y-1115267D01*
X-704609Y-1115260D01*
X-704556Y-1115207D01*
X-704515Y-1115149D01*
X-704511Y-1115145D01*
D02*
G37*
G36*
X-689741Y-1114199D02*
X-689757D01*
Y-1115312D01*
X-689741D01*
Y-1114199D01*
D02*
G37*
G36*
X-691283Y-1114662D02*
Y-1115312D01*
X-691045D01*
X-691049Y-1115278D01*
X-691079Y-1115137D01*
X-691120Y-1114984D01*
X-691179Y-1114844D01*
Y-1114838D01*
X-691184Y-1114826D01*
X-691196Y-1114808D01*
X-691208Y-1114785D01*
X-691249Y-1114715D01*
X-691283Y-1114662D01*
D02*
G37*
G36*
X-713086Y-1114394D02*
Y-1115206D01*
X-712834D01*
Y-1115341D01*
X-712483D01*
Y-1114863D01*
X-712781Y-1114932D01*
Y-1114926D01*
X-712787Y-1114914D01*
X-712798Y-1114891D01*
X-712810Y-1114862D01*
X-712822Y-1114827D01*
X-712839Y-1114780D01*
X-712886Y-1114686D01*
X-712890Y-1114679D01*
X-712899Y-1114680D01*
Y-1114674D01*
Y-1114663D01*
X-712945Y-1114580D01*
X-713015Y-1114474D01*
X-713086Y-1114394D01*
D02*
G37*
G36*
X-732910Y-1114268D02*
X-732966Y-1114303D01*
X-733048Y-1114362D01*
X-733087Y-1114398D01*
X-733082Y-1114410D01*
X-733058Y-1114480D01*
X-733041Y-1114563D01*
X-733017Y-1114656D01*
X-733006Y-1114762D01*
X-733000Y-1114873D01*
Y-1114879D01*
Y-1114897D01*
Y-1114920D01*
X-733006Y-1114961D01*
X-733011Y-1115003D01*
X-733017Y-1115055D01*
X-733029Y-1115114D01*
X-733041Y-1115179D01*
X-733082Y-1115313D01*
X-733092Y-1115344D01*
X-733084Y-1115340D01*
X-733049Y-1115322D01*
X-733002Y-1115298D01*
X-732949Y-1115263D01*
X-732896Y-1115222D01*
X-732866Y-1115192D01*
Y-1114311D01*
X-732902Y-1114272D01*
X-732910Y-1114268D01*
D02*
G37*
G36*
X-684934Y-1114199D02*
X-685869D01*
X-685886Y-1114209D01*
X-685907Y-1114223D01*
Y-1115082D01*
X-685880Y-1115095D01*
X-685839Y-1115119D01*
X-685786Y-1115136D01*
X-685727Y-1115160D01*
X-685663Y-1115183D01*
X-685586Y-1115213D01*
X-685504Y-1115236D01*
X-685410Y-1115266D01*
X-685305Y-1115289D01*
X-685187Y-1115318D01*
X-685182D01*
X-685158Y-1115324D01*
X-685123Y-1115330D01*
X-685082Y-1115342D01*
X-685029Y-1115353D01*
X-684965Y-1115371D01*
X-684934Y-1115379D01*
Y-1114199D01*
D02*
G37*
G36*
X-688127Y-1114223D02*
X-688290D01*
Y-1115407D01*
X-688127D01*
Y-1114223D01*
D02*
G37*
G36*
X-692355Y-1114199D02*
X-692984D01*
X-693050Y-1114228D01*
X-693138Y-1114275D01*
X-693220Y-1114327D01*
X-693303Y-1114386D01*
X-693379Y-1114456D01*
X-693385Y-1114462D01*
X-693396Y-1114474D01*
X-693414Y-1114497D01*
X-693443Y-1114533D01*
X-693473Y-1114574D01*
X-693508Y-1114626D01*
X-693543Y-1114691D01*
X-693568Y-1114737D01*
X-693119Y-1115408D01*
X-692355D01*
Y-1114199D01*
D02*
G37*
G36*
X-693763Y-1115372D02*
X-693767Y-1115408D01*
X-693738D01*
X-693763Y-1115372D01*
D02*
G37*
G36*
X-764491Y-1114937D02*
X-764563Y-1114981D01*
X-764569D01*
X-764575Y-1114987D01*
X-764599Y-1115003D01*
X-764584Y-1115083D01*
X-764561Y-1115288D01*
X-764554Y-1115413D01*
X-764491D01*
Y-1114937D01*
D02*
G37*
G36*
X-707097Y-1114986D02*
X-707149Y-1114991D01*
X-707219Y-1115002D01*
X-707301Y-1115032D01*
X-707389Y-1115067D01*
X-707424Y-1115088D01*
Y-1115437D01*
X-707097D01*
Y-1114986D01*
D02*
G37*
G36*
X-792571Y-1114341D02*
X-792727D01*
X-792944Y-1115438D01*
X-792938Y-1115432D01*
X-792926Y-1115426D01*
X-792909Y-1115415D01*
X-792879Y-1115397D01*
X-792844Y-1115379D01*
X-792803Y-1115356D01*
X-792709Y-1115309D01*
X-792692Y-1115302D01*
X-792678Y-1115222D01*
X-792637Y-1115034D01*
X-792578Y-1114847D01*
X-792571Y-1114830D01*
Y-1114341D01*
D02*
G37*
G36*
X-687328Y-1114223D02*
X-687587D01*
Y-1115407D01*
X-687294D01*
Y-1115444D01*
X-687293D01*
X-687217Y-1115438D01*
X-687135Y-1115432D01*
X-687053Y-1115426D01*
X-686970Y-1115414D01*
X-686906Y-1115403D01*
X-686894Y-1115397D01*
X-686871Y-1115391D01*
X-686835Y-1115373D01*
X-686788Y-1115350D01*
X-686741Y-1115326D01*
X-686711Y-1115306D01*
X-686700Y-1115290D01*
X-686659Y-1115214D01*
X-686624Y-1115120D01*
X-686604Y-1115032D01*
X-686619Y-1114984D01*
X-686643Y-1114896D01*
X-686660Y-1114802D01*
X-686666Y-1114702D01*
Y-1114696D01*
Y-1114690D01*
Y-1114673D01*
Y-1114650D01*
X-686654Y-1114591D01*
X-686652Y-1114576D01*
X-686677Y-1114527D01*
X-686718Y-1114457D01*
X-686724Y-1114451D01*
X-686741Y-1114427D01*
X-686770Y-1114398D01*
X-686806Y-1114357D01*
X-686859Y-1114316D01*
X-686917Y-1114281D01*
X-686948Y-1114264D01*
X-687011Y-1114252D01*
X-687099Y-1114241D01*
X-687199Y-1114235D01*
X-687328Y-1114223D01*
D02*
G37*
G36*
X-679284D02*
X-679431D01*
Y-1115452D01*
X-679378Y-1115443D01*
X-679296Y-1115419D01*
X-679284Y-1115413D01*
X-679260Y-1115402D01*
X-679225Y-1115384D01*
X-679178Y-1115360D01*
X-679125Y-1115325D01*
X-679072Y-1115284D01*
X-679020Y-1115231D01*
X-678979Y-1115173D01*
X-678973Y-1115167D01*
X-678961Y-1115143D01*
X-678943Y-1115108D01*
X-678920Y-1115061D01*
X-678902Y-1115008D01*
X-678885Y-1114950D01*
X-678873Y-1114879D01*
X-678867Y-1114809D01*
Y-1114803D01*
Y-1114797D01*
X-678873Y-1114762D01*
X-678879Y-1114709D01*
X-678891Y-1114639D01*
X-678920Y-1114568D01*
X-678955Y-1114486D01*
X-679008Y-1114410D01*
X-679078Y-1114334D01*
X-679090Y-1114328D01*
X-679119Y-1114304D01*
X-679166Y-1114275D01*
X-679243Y-1114240D01*
X-679284Y-1114223D01*
D02*
G37*
G36*
X-767822Y-1114994D02*
X-767846Y-1115100D01*
X-767849Y-1115123D01*
X-767755Y-1115404D01*
X-767722Y-1115453D01*
X-767717Y-1115454D01*
X-767701Y-1115459D01*
X-767822Y-1114994D01*
D02*
G37*
G36*
X-679993Y-1114146D02*
X-680534D01*
Y-1114223D01*
X-681021D01*
Y-1115369D01*
X-680940Y-1115490D01*
X-679993D01*
Y-1114146D01*
D02*
G37*
G36*
X-696673Y-1114294D02*
X-697517Y-1115514D01*
X-697307D01*
X-697237Y-1115508D01*
X-697155Y-1115502D01*
X-697061Y-1115496D01*
X-696967Y-1115484D01*
X-696873Y-1115467D01*
X-696791Y-1115443D01*
X-696779Y-1115437D01*
X-696756Y-1115425D01*
X-696721Y-1115408D01*
X-696674Y-1115384D01*
X-696621Y-1115349D01*
X-696568Y-1115308D01*
X-696515Y-1115255D01*
X-696474Y-1115197D01*
X-696468Y-1115191D01*
X-696457Y-1115167D01*
X-696439Y-1115132D01*
X-696415Y-1115085D01*
X-696398Y-1115032D01*
X-696380Y-1114974D01*
X-696368Y-1114903D01*
X-696363Y-1114833D01*
Y-1114827D01*
Y-1114821D01*
X-696368Y-1114786D01*
X-696374Y-1114733D01*
X-696386Y-1114663D01*
X-696415Y-1114592D01*
X-696451Y-1114510D01*
X-696504Y-1114434D01*
X-696574Y-1114358D01*
X-696586Y-1114352D01*
X-696615Y-1114328D01*
X-696662Y-1114299D01*
X-696673Y-1114294D01*
D02*
G37*
G36*
X-700941Y-1115482D02*
Y-1115514D01*
X-700922Y-1115512D01*
X-700941Y-1115482D01*
D02*
G37*
G36*
X-702308Y-1114979D02*
X-702337D01*
X-702361Y-1114985D01*
X-702396Y-1114988D01*
X-702402Y-1115012D01*
Y-1115537D01*
X-702067D01*
Y-1115153D01*
X-702308D01*
Y-1114979D01*
X-702308Y-1114979D01*
D02*
G37*
G36*
X-730187Y-1115903D02*
X-730207Y-1115906D01*
X-730203Y-1115908D01*
X-730178D01*
X-730187Y-1115903D01*
D02*
G37*
G36*
X-699674Y-1114110D02*
X-699715Y-1114259D01*
Y-1115263D01*
X-699536Y-1115699D01*
X-699385Y-1115925D01*
Y-1114540D01*
X-699674Y-1114110D01*
D02*
G37*
G36*
X-731381Y-1115953D02*
X-731768D01*
Y-1115958D01*
X-731381D01*
Y-1115953D01*
D02*
G37*
G36*
X-719987Y-1115679D02*
Y-1115973D01*
X-719911D01*
Y-1115880D01*
X-719987Y-1115679D01*
D02*
G37*
G36*
X-755573Y-1115912D02*
X-755742D01*
Y-1115984D01*
X-755573D01*
Y-1115912D01*
D02*
G37*
G36*
X-703694Y-1115110D02*
X-703704Y-1115162D01*
X-703716Y-1115227D01*
X-703757Y-1115361D01*
X-703780Y-1115432D01*
X-703816Y-1115508D01*
X-703826Y-1115528D01*
X-703717Y-1116009D01*
X-703704Y-1115922D01*
X-703686Y-1115787D01*
X-703675Y-1115634D01*
X-703669Y-1115470D01*
Y-1115464D01*
Y-1115441D01*
Y-1115411D01*
X-703675Y-1115365D01*
Y-1115312D01*
X-703680Y-1115253D01*
X-703686Y-1115183D01*
X-703692Y-1115112D01*
X-703692Y-1115111D01*
X-703694Y-1115110D01*
D02*
G37*
G36*
X-700655Y-1115912D02*
X-700677Y-1115919D01*
X-700776Y-1115936D01*
X-700882Y-1115954D01*
X-700870Y-1115960D01*
X-700847Y-1115972D01*
X-700811Y-1115995D01*
X-700781Y-1116010D01*
X-700668D01*
X-700647Y-1115923D01*
X-700655Y-1115912D01*
D02*
G37*
G36*
X-717052Y-1115942D02*
X-717125D01*
X-717124Y-1115944D01*
X-717052Y-1116025D01*
Y-1115942D01*
D02*
G37*
G36*
X-683741Y-1114792D02*
X-684163Y-1114826D01*
X-684189Y-1114897D01*
X-684389Y-1115437D01*
X-683660D01*
Y-1115918D01*
X-683821D01*
X-683762Y-1115993D01*
X-683756Y-1116005D01*
X-683732Y-1116034D01*
X-683711Y-1116082D01*
X-683256D01*
X-683678Y-1114967D01*
Y-1114961D01*
X-683684Y-1114944D01*
X-683696Y-1114914D01*
X-683708Y-1114879D01*
X-683725Y-1114838D01*
X-683741Y-1114792D01*
D02*
G37*
G36*
X-736098Y-1115921D02*
X-736105Y-1115967D01*
X-736111Y-1116044D01*
X-736111Y-1116044D01*
X-736098Y-1116085D01*
Y-1115921D01*
D02*
G37*
G36*
X-682674Y-1114223D02*
X-683445D01*
X-682674Y-1116107D01*
Y-1114223D01*
D02*
G37*
G36*
X-718303Y-1115950D02*
X-718531D01*
Y-1116565D01*
X-718485Y-1116657D01*
X-718432Y-1116750D01*
X-718413Y-1116779D01*
X-718408Y-1116773D01*
X-718372Y-1116737D01*
X-718343Y-1116691D01*
X-718308Y-1116638D01*
X-718267Y-1116579D01*
X-718232Y-1116520D01*
X-718196Y-1116450D01*
X-718167Y-1116374D01*
X-718138Y-1116292D01*
X-718109Y-1116204D01*
X-718085Y-1116110D01*
X-718074Y-1116112D01*
Y-1115974D01*
X-718080Y-1115973D01*
X-718180Y-1115961D01*
X-718303Y-1115950D01*
D02*
G37*
G36*
X-695759Y-1115397D02*
Y-1116181D01*
X-695742Y-1116054D01*
X-695730Y-1115919D01*
X-695724Y-1115778D01*
Y-1115772D01*
Y-1115754D01*
Y-1115731D01*
Y-1115696D01*
X-695730Y-1115655D01*
Y-1115602D01*
X-695736Y-1115549D01*
X-695748Y-1115485D01*
X-695759Y-1115397D01*
D02*
G37*
G36*
X-740376Y-1115990D02*
X-740499D01*
Y-1116212D01*
X-740376Y-1116243D01*
Y-1115990D01*
D02*
G37*
G36*
X-764520Y-1115905D02*
X-764583D01*
X-764590Y-1115949D01*
X-764583Y-1115977D01*
X-764559Y-1116053D01*
X-764536Y-1116141D01*
X-764512Y-1116241D01*
X-764491Y-1116323D01*
Y-1115908D01*
X-764520Y-1115905D01*
D02*
G37*
G36*
X-733475Y-1116210D02*
X-733441Y-1116345D01*
X-733432Y-1116368D01*
X-733387Y-1116379D01*
Y-1116317D01*
X-733407Y-1116290D01*
X-733412Y-1116284D01*
X-733430Y-1116261D01*
X-733459Y-1116226D01*
X-733475Y-1116210D01*
D02*
G37*
G36*
X-696299Y-1115715D02*
X-696304Y-1115719D01*
X-696363Y-1115748D01*
X-696427Y-1115778D01*
X-696498Y-1115813D01*
X-696574Y-1115842D01*
X-696662Y-1115865D01*
X-696750Y-1115895D01*
X-696850Y-1115912D01*
X-696955Y-1115930D01*
X-696944Y-1115936D01*
X-696920Y-1115948D01*
X-696885Y-1115971D01*
X-696838Y-1115995D01*
X-696732Y-1116059D01*
X-696680Y-1116100D01*
X-696633Y-1116135D01*
X-696621Y-1116147D01*
X-696591Y-1116177D01*
X-696545Y-1116223D01*
X-696486Y-1116282D01*
X-696421Y-1116364D01*
X-696345Y-1116452D01*
X-696299Y-1116516D01*
Y-1115715D01*
D02*
G37*
G36*
X-736833Y-1116373D02*
X-736889D01*
Y-1116535D01*
X-736886Y-1116527D01*
X-736850Y-1116434D01*
X-736833Y-1116373D01*
D02*
G37*
G36*
X-692355Y-1115890D02*
X-692798D01*
X-692355Y-1116553D01*
Y-1115890D01*
D02*
G37*
G36*
X-708704Y-1115918D02*
X-709139D01*
X-708704Y-1116570D01*
Y-1115918D01*
D02*
G37*
G36*
X-772371Y-1116546D02*
X-772372D01*
Y-1116641D01*
X-772371Y-1116641D01*
Y-1116546D01*
D02*
G37*
G36*
X-711748Y-1115865D02*
X-711943D01*
Y-1116465D01*
X-711813Y-1116453D01*
Y-1116459D01*
Y-1116464D01*
X-711807Y-1116482D01*
Y-1116506D01*
X-711795Y-1116558D01*
X-711778Y-1116635D01*
X-711754Y-1116711D01*
X-711748Y-1116733D01*
Y-1115865D01*
D02*
G37*
G36*
X-691012Y-1115794D02*
X-691283D01*
Y-1116753D01*
X-691278Y-1116745D01*
X-691243Y-1116680D01*
X-691202Y-1116610D01*
X-691167Y-1116527D01*
X-691132Y-1116434D01*
X-691102Y-1116334D01*
X-691067Y-1116228D01*
X-691043Y-1116111D01*
X-691026Y-1115982D01*
X-691014Y-1115847D01*
X-691012Y-1115794D01*
D02*
G37*
G36*
X-704213Y-1115941D02*
X-704215Y-1115942D01*
X-704279Y-1115972D01*
X-704355Y-1116007D01*
X-704443Y-1116042D01*
X-704537Y-1116071D01*
X-704649Y-1116095D01*
X-704663Y-1116098D01*
X-704662Y-1116099D01*
X-704632Y-1116129D01*
X-704585Y-1116176D01*
X-704527Y-1116234D01*
X-704462Y-1116316D01*
X-704386Y-1116404D01*
X-704310Y-1116510D01*
X-704228Y-1116627D01*
X-704117Y-1116802D01*
X-704074Y-1116767D01*
X-704068Y-1116755D01*
X-704044Y-1116732D01*
X-704015Y-1116697D01*
X-704213Y-1115941D01*
D02*
G37*
G36*
X-725563Y-1116570D02*
X-725670D01*
X-725686Y-1116629D01*
X-725563Y-1116814D01*
Y-1116570D01*
D02*
G37*
G36*
X-753940Y-1116607D02*
X-753984D01*
Y-1116727D01*
X-753940Y-1116836D01*
Y-1116607D01*
D02*
G37*
G36*
X-713908Y-1116082D02*
X-714132D01*
Y-1116503D01*
X-713908Y-1116838D01*
Y-1116082D01*
D02*
G37*
G36*
X-680328Y-1115953D02*
X-680631D01*
X-679993Y-1116910D01*
Y-1116014D01*
X-680011Y-1116006D01*
X-680105Y-1115976D01*
X-680111D01*
X-680123Y-1115971D01*
X-680146D01*
X-680176Y-1115965D01*
X-680217Y-1115959D01*
X-680264D01*
X-680328Y-1115953D01*
D02*
G37*
G36*
X-712940Y-1116076D02*
X-712941Y-1116076D01*
X-713086Y-1116081D01*
Y-1116973D01*
X-713057Y-1116950D01*
X-712999Y-1116909D01*
X-712951Y-1116871D01*
X-712945Y-1116862D01*
X-712904Y-1116804D01*
X-712869Y-1116745D01*
X-712833Y-1116675D01*
X-712804Y-1116599D01*
X-712784Y-1116542D01*
X-712782Y-1116528D01*
X-712776Y-1116458D01*
Y-1116452D01*
Y-1116422D01*
X-712782Y-1116387D01*
X-712787Y-1116340D01*
X-712805Y-1116293D01*
X-712823Y-1116235D01*
X-712852Y-1116176D01*
X-712893Y-1116123D01*
X-712899Y-1116117D01*
X-712916Y-1116100D01*
X-712940Y-1116076D01*
X-712940Y-1116076D01*
D02*
G37*
G36*
X-731381Y-1116398D02*
X-731768D01*
Y-1116776D01*
X-731744Y-1116796D01*
X-731686Y-1116849D01*
X-731621Y-1116902D01*
X-731533Y-1116954D01*
X-731439Y-1117001D01*
X-731433D01*
X-731428Y-1117007D01*
X-731410Y-1117013D01*
X-731392Y-1117019D01*
X-731381Y-1117022D01*
Y-1116398D01*
D02*
G37*
G36*
X-704784Y-1116809D02*
Y-1117033D01*
X-704743Y-1117031D01*
X-704647Y-1117020D01*
X-704732Y-1116885D01*
Y-1116880D01*
X-704744Y-1116868D01*
X-704756Y-1116850D01*
X-704773Y-1116827D01*
X-704784Y-1116809D01*
D02*
G37*
G36*
X-705283Y-1116153D02*
X-705389D01*
X-705395Y-1116199D01*
X-705424Y-1116339D01*
X-705459Y-1116480D01*
Y-1116486D01*
X-705465Y-1116498D01*
X-705471Y-1116515D01*
X-705477Y-1116539D01*
X-705500Y-1116603D01*
X-705536Y-1116685D01*
X-705549Y-1116721D01*
Y-1117048D01*
X-705283D01*
Y-1116153D01*
D02*
G37*
G36*
X-709118Y-1116879D02*
X-709137Y-1116957D01*
X-709164Y-1117048D01*
X-709005D01*
X-709118Y-1116879D01*
D02*
G37*
G36*
X-721941Y-1115929D02*
X-722022D01*
X-722030Y-1115932D01*
X-722123Y-1115961D01*
X-722235Y-1115985D01*
X-722352Y-1116008D01*
X-722481Y-1116026D01*
X-722627Y-1116038D01*
Y-1116461D01*
X-722539Y-1116453D01*
Y-1116459D01*
Y-1116464D01*
X-722533Y-1116482D01*
Y-1116506D01*
X-722521Y-1116558D01*
X-722503Y-1116635D01*
X-722480Y-1116711D01*
X-722456Y-1116799D01*
X-722415Y-1116881D01*
X-722374Y-1116957D01*
X-722368Y-1116963D01*
X-722351Y-1116987D01*
X-722321Y-1117028D01*
X-722298Y-1117048D01*
X-722142D01*
X-721723Y-1115953D01*
X-721724D01*
X-721736Y-1115947D01*
X-721759D01*
X-721789Y-1115941D01*
X-721830Y-1115935D01*
X-721877D01*
X-721941Y-1115929D01*
D02*
G37*
G36*
X-723173Y-1116044D02*
X-723266D01*
Y-1116975D01*
X-723261Y-1116982D01*
X-723206Y-1117048D01*
X-723173D01*
Y-1116044D01*
D02*
G37*
G36*
X-736509Y-1117043D02*
X-736513Y-1117048D01*
X-736506D01*
X-736509Y-1117043D01*
D02*
G37*
G36*
X-755573Y-1116522D02*
X-755742D01*
Y-1117048D01*
X-755634D01*
X-755629Y-1117045D01*
X-755573Y-1116989D01*
Y-1116522D01*
D02*
G37*
G36*
X-717534Y-1116239D02*
Y-1117074D01*
X-717527D01*
X-717511Y-1117047D01*
X-717476Y-1116994D01*
X-717470Y-1116988D01*
X-717464Y-1116971D01*
X-717452Y-1116935D01*
X-717434Y-1116894D01*
X-717417Y-1116847D01*
X-717405Y-1116789D01*
X-717399Y-1116718D01*
X-717393Y-1116648D01*
Y-1116636D01*
Y-1116613D01*
X-717399Y-1116566D01*
X-717411Y-1116513D01*
X-717423Y-1116454D01*
X-717446Y-1116390D01*
X-717476Y-1116325D01*
X-717517Y-1116261D01*
X-717523Y-1116255D01*
X-717534Y-1116239D01*
D02*
G37*
G36*
X-745879Y-1115950D02*
X-746005D01*
Y-1116308D01*
X-745956Y-1116320D01*
Y-1116326D01*
X-745962Y-1116350D01*
X-745973Y-1116385D01*
X-745991Y-1116432D01*
X-746005Y-1116473D01*
Y-1117074D01*
X-745879D01*
Y-1115950D01*
D02*
G37*
G36*
X-733633Y-1117088D02*
X-733640Y-1117099D01*
X-733623D01*
X-733633Y-1117088D01*
D02*
G37*
G36*
X-684116Y-1116522D02*
X-684395D01*
Y-1117106D01*
X-684389Y-1117102D01*
X-684331Y-1117061D01*
X-684272Y-1117014D01*
X-684225Y-1116955D01*
X-684219Y-1116949D01*
X-684208Y-1116926D01*
X-684190Y-1116897D01*
X-684166Y-1116850D01*
X-684143Y-1116803D01*
X-684125Y-1116744D01*
X-684114Y-1116680D01*
X-684108Y-1116609D01*
Y-1116603D01*
Y-1116574D01*
X-684114Y-1116539D01*
X-684116Y-1116522D01*
D02*
G37*
G36*
X-769848Y-1117125D02*
Y-1117132D01*
X-769843Y-1117131D01*
X-769848Y-1117125D01*
D02*
G37*
G36*
X-721358Y-1116474D02*
X-721383D01*
X-721620Y-1117138D01*
X-721582Y-1117115D01*
X-721523Y-1117080D01*
X-721464Y-1117038D01*
X-721406Y-1116992D01*
X-721400Y-1116980D01*
X-721376Y-1116956D01*
X-721358Y-1116935D01*
Y-1116474D01*
D02*
G37*
G36*
X-700941Y-1116489D02*
Y-1117165D01*
X-700933Y-1117145D01*
X-700928Y-1117109D01*
X-700916Y-1117068D01*
X-700910Y-1117016D01*
X-700892Y-1116957D01*
X-700863Y-1116828D01*
X-700828Y-1116675D01*
X-700824Y-1116655D01*
X-700882Y-1116570D01*
X-700941Y-1116489D01*
D02*
G37*
G36*
X-697775Y-1115981D02*
Y-1117201D01*
X-696522D01*
X-696691Y-1116933D01*
Y-1116927D01*
X-696703Y-1116916D01*
X-696715Y-1116898D01*
X-696732Y-1116875D01*
X-696773Y-1116810D01*
X-696826Y-1116728D01*
X-696891Y-1116640D01*
X-696955Y-1116546D01*
X-697020Y-1116458D01*
X-697078Y-1116376D01*
X-697084Y-1116370D01*
X-697102Y-1116347D01*
X-697131Y-1116311D01*
X-697172Y-1116270D01*
X-697260Y-1116182D01*
X-697307Y-1116141D01*
X-697354Y-1116106D01*
X-697360Y-1116100D01*
X-697372Y-1116094D01*
X-697395Y-1116083D01*
X-697430Y-1116065D01*
X-697466Y-1116047D01*
X-697507Y-1116030D01*
X-697601Y-1116001D01*
X-697607D01*
X-697618Y-1115995D01*
X-697642D01*
X-697671Y-1115989D01*
X-697712Y-1115983D01*
X-697759D01*
X-697775Y-1115981D01*
D02*
G37*
G36*
X-712483Y-1117130D02*
X-712511Y-1117173D01*
X-712533Y-1117201D01*
X-712483D01*
Y-1117130D01*
D02*
G37*
G36*
X-738359Y-1116373D02*
X-738422D01*
X-738433Y-1116404D01*
Y-1116421D01*
Y-1116444D01*
X-738445Y-1116509D01*
X-738457Y-1116591D01*
X-738480Y-1116685D01*
X-738509Y-1116784D01*
X-738556Y-1116890D01*
X-738621Y-1117001D01*
Y-1117007D01*
X-738627Y-1117013D01*
X-738656Y-1117048D01*
X-738669Y-1117065D01*
X-738674Y-1117080D01*
Y-1117138D01*
X-738605Y-1117170D01*
X-738523Y-1117205D01*
X-738477Y-1117224D01*
X-738462Y-1117222D01*
X-738368Y-1117210D01*
X-738274Y-1117186D01*
X-738225Y-1117170D01*
X-738311D01*
Y-1116445D01*
X-738359Y-1116373D01*
D02*
G37*
G36*
X-707097Y-1115918D02*
X-707424D01*
Y-1117048D01*
X-707219D01*
Y-1117225D01*
X-707202D01*
X-707161Y-1117219D01*
X-707097Y-1117215D01*
Y-1115918D01*
D02*
G37*
G36*
X-685096D02*
X-685907D01*
Y-1116097D01*
X-685897Y-1116112D01*
X-685861Y-1116183D01*
X-685826Y-1116277D01*
X-685791Y-1116376D01*
X-685768Y-1116494D01*
X-685762Y-1116623D01*
Y-1116629D01*
Y-1116635D01*
Y-1116670D01*
X-685768Y-1116729D01*
X-685779Y-1116799D01*
X-685791Y-1116881D01*
X-685815Y-1116969D01*
X-685844Y-1117063D01*
X-685866Y-1117115D01*
X-685839Y-1117131D01*
X-685745Y-1117178D01*
X-685739D01*
X-685733Y-1117184D01*
X-685715Y-1117190D01*
X-685698Y-1117196D01*
X-685639Y-1117214D01*
X-685595Y-1117227D01*
X-685096Y-1115918D01*
D02*
G37*
G36*
X-684934Y-1116934D02*
X-685064Y-1117296D01*
X-685005Y-1117290D01*
X-684935Y-1117284D01*
X-684934Y-1117284D01*
Y-1116934D01*
D02*
G37*
G36*
X-720734Y-1117004D02*
X-720773Y-1117082D01*
X-720818Y-1117152D01*
Y-1117309D01*
X-720802Y-1117303D01*
X-720790Y-1117298D01*
X-720761Y-1117286D01*
X-720720Y-1117262D01*
X-720667Y-1117239D01*
X-720614Y-1117198D01*
X-720612Y-1117197D01*
X-720734Y-1117004D01*
D02*
G37*
G36*
X-674713Y-1114223D02*
X-675652D01*
Y-1117321D01*
X-674690D01*
X-674649Y-1117315D01*
X-674561Y-1117309D01*
X-674461Y-1117303D01*
X-674355Y-1117292D01*
X-674250Y-1117274D01*
X-674162Y-1117251D01*
X-674150Y-1117245D01*
X-674121Y-1117239D01*
X-674080Y-1117221D01*
X-674027Y-1117198D01*
X-673968Y-1117163D01*
X-673910Y-1117128D01*
X-673851Y-1117086D01*
X-673792Y-1117039D01*
X-673786Y-1117028D01*
X-673763Y-1117004D01*
X-673728Y-1116963D01*
X-673687Y-1116905D01*
X-673640Y-1116828D01*
X-673587Y-1116740D01*
X-673540Y-1116640D01*
X-673499Y-1116529D01*
Y-1116523D01*
X-673493Y-1116511D01*
X-673487Y-1116494D01*
X-673481Y-1116470D01*
X-673475Y-1116441D01*
X-673464Y-1116400D01*
X-673452Y-1116359D01*
X-673440Y-1116312D01*
X-673422Y-1116195D01*
X-673405Y-1116060D01*
X-673393Y-1115907D01*
X-673387Y-1115743D01*
Y-1115737D01*
Y-1115714D01*
Y-1115684D01*
X-673393Y-1115637D01*
Y-1115584D01*
X-673399Y-1115526D01*
X-673405Y-1115455D01*
X-673411Y-1115385D01*
X-673440Y-1115227D01*
X-673475Y-1115062D01*
X-673528Y-1114910D01*
X-673563Y-1114833D01*
X-673598Y-1114769D01*
Y-1114763D01*
X-673610Y-1114751D01*
X-673622Y-1114734D01*
X-673634Y-1114710D01*
X-673681Y-1114651D01*
X-673739Y-1114581D01*
X-673816Y-1114505D01*
X-673904Y-1114428D01*
X-674003Y-1114364D01*
X-674109Y-1114311D01*
X-674121Y-1114305D01*
X-674150Y-1114299D01*
X-674203Y-1114282D01*
X-674279Y-1114264D01*
X-674373Y-1114252D01*
X-674490Y-1114235D01*
X-674561Y-1114229D01*
X-674637D01*
X-674713Y-1114223D01*
D02*
G37*
G36*
X-679431Y-1116564D02*
Y-1117321D01*
X-678935D01*
X-679196Y-1116909D01*
Y-1116904D01*
X-679208Y-1116892D01*
X-679219Y-1116874D01*
X-679237Y-1116851D01*
X-679278Y-1116786D01*
X-679331Y-1116704D01*
X-679395Y-1116616D01*
X-679431Y-1116564D01*
D02*
G37*
G36*
X-686787Y-1115987D02*
X-686806Y-1115994D01*
X-686900Y-1116023D01*
X-687011Y-1116047D01*
X-687128Y-1116070D01*
X-687258Y-1116088D01*
X-687404Y-1116100D01*
X-687557Y-1116106D01*
X-687587D01*
Y-1117321D01*
X-687135D01*
X-687011Y-1117315D01*
X-686959Y-1117309D01*
X-686912Y-1117303D01*
X-686906D01*
X-686882Y-1117298D01*
X-686847Y-1117292D01*
X-686806Y-1117280D01*
X-686706Y-1117245D01*
X-686607Y-1117198D01*
X-686601Y-1117192D01*
X-686583Y-1117180D01*
X-686573Y-1117173D01*
X-686601Y-1117137D01*
Y-1117131D01*
X-686613Y-1117120D01*
X-686619Y-1117102D01*
X-686637Y-1117079D01*
X-686648Y-1117049D01*
X-686666Y-1117014D01*
X-686707Y-1116926D01*
X-686748Y-1116814D01*
X-686783Y-1116691D01*
X-686807Y-1116551D01*
X-686819Y-1116404D01*
X-686447Y-1116369D01*
Y-1116224D01*
X-686460Y-1116206D01*
X-686483Y-1116177D01*
X-686518Y-1116142D01*
X-686565Y-1116101D01*
X-686624Y-1116060D01*
X-686689Y-1116024D01*
X-686765Y-1115995D01*
X-686777Y-1115989D01*
X-686787Y-1115987D01*
D02*
G37*
G36*
X-688127Y-1116106D02*
X-688290D01*
Y-1117321D01*
X-688127D01*
Y-1116106D01*
D02*
G37*
G36*
X-693418Y-1115890D02*
X-693783D01*
X-693778Y-1115947D01*
X-693766Y-1116017D01*
X-693754Y-1116099D01*
X-693743Y-1116181D01*
X-693696Y-1116369D01*
X-693660Y-1116463D01*
X-693625Y-1116563D01*
X-693578Y-1116657D01*
X-693525Y-1116750D01*
X-693467Y-1116839D01*
X-693396Y-1116921D01*
X-693391Y-1116926D01*
X-693379Y-1116938D01*
X-693355Y-1116962D01*
X-693326Y-1116985D01*
X-693285Y-1117020D01*
X-693238Y-1117056D01*
X-693185Y-1117091D01*
X-693127Y-1117132D01*
X-693056Y-1117173D01*
X-692980Y-1117208D01*
X-692898Y-1117243D01*
X-692810Y-1117279D01*
X-692716Y-1117302D01*
X-692622Y-1117326D01*
X-692516Y-1117337D01*
X-692450Y-1117341D01*
X-693418Y-1115890D01*
D02*
G37*
G36*
X-702067Y-1116001D02*
X-702402D01*
Y-1117371D01*
X-702308Y-1117122D01*
Y-1116960D01*
X-702246D01*
X-702067Y-1116491D01*
Y-1116001D01*
D02*
G37*
G36*
X-792571Y-1116899D02*
X-793049D01*
X-793026Y-1116987D01*
X-792991Y-1117075D01*
X-792944Y-1117175D01*
X-792885Y-1117263D01*
X-792815Y-1117345D01*
X-792803Y-1117351D01*
X-792779Y-1117374D01*
X-792733Y-1117404D01*
X-792668Y-1117439D01*
X-792598Y-1117474D01*
X-792571Y-1117483D01*
Y-1116899D01*
D02*
G37*
%LPD*%
M02*
