G04*
G04 #@! TF.GenerationSoftware,Altium Limited,Altium Designer,21.6.1 (37)*
G04*
G04 Layer_Color=128*
%FSLAX44Y44*%
%MOMM*%
G71*
G04*
G04 #@! TF.SameCoordinates,4F178BE9-AC55-4CEC-B3A2-6D2310684F74*
G04*
G04*
G04 #@! TF.FilePolarity,Positive*
G04*
G01*
G75*
%ADD125C,0.0508*%
D125*
X273750Y30100D02*
X280750D01*
X277250Y26600D02*
Y33600D01*
X271000Y60400D02*
X277500D01*
X274250Y57150D02*
Y63650D01*
X222500Y60400D02*
X229000D01*
X225750Y57150D02*
Y63650D01*
X219250Y30100D02*
X226250D01*
X222750Y26600D02*
Y33600D01*
X412590Y328000D02*
X420210D01*
X416400Y324190D02*
Y331810D01*
X361790Y328000D02*
X369410D01*
X365600Y324190D02*
Y331810D01*
X387190Y455000D02*
X394810D01*
X391000Y451190D02*
Y458810D01*
X412590Y455000D02*
X420210D01*
X416400Y451190D02*
Y458810D01*
X461500Y231000D02*
X474500D01*
X468000Y224500D02*
Y237500D01*
X411500Y231000D02*
X424500D01*
X418000Y224500D02*
Y237500D01*
X285200Y538000D02*
X295200D01*
X290200Y533000D02*
Y543000D01*
X361400Y538000D02*
X371400D01*
X366400Y533000D02*
Y543000D01*
X336000Y538000D02*
X346000D01*
X341000Y533000D02*
Y543000D01*
X310600Y538000D02*
X320600D01*
X315600Y533000D02*
Y543000D01*
X160250Y447350D02*
X179750D01*
X170000Y437600D02*
Y457100D01*
X160250Y523550D02*
X179750D01*
X170000Y513800D02*
Y533300D01*
X160250Y108650D02*
X179750D01*
X170000Y98900D02*
Y118400D01*
X160250Y32450D02*
X179750D01*
X170000Y22700D02*
Y42200D01*
X236050Y181500D02*
X266550D01*
X251300Y166250D02*
Y196750D01*
X236060Y381500D02*
X266540D01*
X251300Y366260D02*
Y396740D01*
X252476Y126412D02*
X255524D01*
X254000Y124888D02*
Y127936D01*
X245476Y125000D02*
X248524D01*
X247000Y123476D02*
Y126524D01*
X230476Y77000D02*
X233524D01*
X232000Y75476D02*
Y78524D01*
X279476Y469000D02*
X282524D01*
X281000Y467476D02*
Y470524D01*
X239697Y469221D02*
X242745D01*
X241221Y467697D02*
Y470745D01*
X231689Y214421D02*
X234737D01*
X233213Y212897D02*
Y215945D01*
X225047Y456571D02*
X228095D01*
X226571Y455047D02*
Y458095D01*
X253035Y428582D02*
X256083D01*
X254559Y427058D02*
Y430107D01*
X278476Y353000D02*
X281524D01*
X280000Y351476D02*
Y354524D01*
X201476Y207000D02*
X204524D01*
X203000Y205476D02*
Y208524D01*
X211476Y207000D02*
X214524D01*
X213000Y205476D02*
Y208524D01*
X160767Y209291D02*
X163815D01*
X162291Y207767D02*
Y210815D01*
X190756Y207202D02*
X193804D01*
X192280Y205678D02*
Y208726D01*
X171095Y213375D02*
X174143D01*
X172619Y211851D02*
Y214899D01*
X187476Y347000D02*
X190524D01*
X189000Y345476D02*
Y348524D01*
X196142Y347000D02*
X199190D01*
X197666Y345476D02*
Y348524D01*
X317476Y355000D02*
X320524D01*
X319000Y353476D02*
Y356524D01*
X121447Y163115D02*
X124495D01*
X122971Y161591D02*
Y164639D01*
X94680Y169986D02*
X97728D01*
X96204Y168462D02*
Y171510D01*
X224476Y136000D02*
X227524D01*
X226000Y134476D02*
Y137524D01*
X264476Y459000D02*
X267524D01*
X266000Y457476D02*
Y460524D01*
X384476Y318000D02*
X387524D01*
X386000Y316476D02*
Y319524D01*
X328476Y196000D02*
X331524D01*
X330000Y194476D02*
Y197524D01*
X221476Y476000D02*
X224524D01*
X223000Y474476D02*
Y477524D01*
X131476Y252000D02*
X134524D01*
X133000Y250476D02*
Y253524D01*
X154476Y470000D02*
X157524D01*
X156000Y468476D02*
Y471524D01*
X447476Y244000D02*
X450524D01*
X449000Y242476D02*
Y245524D01*
X243476Y429000D02*
X246524D01*
X245000Y427476D02*
Y430524D01*
X142476Y218000D02*
X145524D01*
X144000Y216476D02*
Y219524D01*
X185476Y185000D02*
X188524D01*
X187000Y183476D02*
Y186524D01*
X356476Y197000D02*
X359524D01*
X358000Y195476D02*
Y198524D01*
X384476Y305000D02*
X387524D01*
X386000Y303476D02*
Y306524D01*
X339476Y306000D02*
X342524D01*
X341000Y304476D02*
Y307524D01*
X187476Y548000D02*
X190524D01*
X189000Y546476D02*
Y549524D01*
X251976Y468000D02*
X255024D01*
X253500Y466476D02*
Y469524D01*
X126476Y170000D02*
X129524D01*
X128000Y168476D02*
Y171524D01*
X342476Y197000D02*
X345524D01*
X344000Y195476D02*
Y198524D01*
X106476Y219000D02*
X109524D01*
X108000Y217476D02*
Y220524D01*
X307476Y298000D02*
X310524D01*
X309000Y296476D02*
Y299524D01*
X279476Y230000D02*
X282524D01*
X281000Y228476D02*
Y231524D01*
X455476Y298000D02*
X458524D01*
X457000Y296476D02*
Y299524D01*
X437476Y280000D02*
X440524D01*
X439000Y278476D02*
Y281524D01*
X444476Y455000D02*
X447524D01*
X446000Y453476D02*
Y456524D01*
M02*
