G04*
G04 #@! TF.GenerationSoftware,Altium Limited,Altium Designer,21.6.1 (37)*
G04*
G04 Layer_Color=32896*
%FSLAX44Y44*%
%MOMM*%
G71*
G04*
G04 #@! TF.SameCoordinates,92C9E3DA-2EC7-41D8-9103-AA549F60DB15*
G04*
G04*
G04 #@! TF.FilePolarity,Positive*
G04*
G01*
G75*
%ADD10C,0.2540*%
%ADD17C,0.2560*%
%ADD19C,0.1270*%
G36*
X226573Y449585D02*
X227676D01*
Y449122D01*
X226573D01*
Y448007D01*
X226103D01*
Y449122D01*
X225000D01*
Y449585D01*
X226103D01*
Y450689D01*
X226573D01*
Y449585D01*
D02*
G37*
G36*
X113897Y106878D02*
X115000D01*
Y106414D01*
X113897D01*
Y105311D01*
X113427D01*
Y106414D01*
X112324D01*
Y106878D01*
X113427D01*
Y107993D01*
X113897D01*
Y106878D01*
D02*
G37*
G36*
X333603Y472594D02*
X333644D01*
X333691Y472589D01*
X333796Y472571D01*
X333914Y472542D01*
X334043Y472501D01*
X334160Y472442D01*
X334266Y472366D01*
X334277Y472354D01*
X334307Y472325D01*
X334348Y472272D01*
X334395Y472201D01*
X334442Y472113D01*
X334483Y472014D01*
X334512Y471890D01*
X334518Y471832D01*
X334524Y471761D01*
Y471750D01*
Y471726D01*
X334518Y471685D01*
X334512Y471632D01*
X334500Y471568D01*
X334483Y471503D01*
X334459Y471433D01*
X334430Y471368D01*
X334424Y471362D01*
X334412Y471339D01*
X334389Y471304D01*
X334360Y471263D01*
X334324Y471216D01*
X334277Y471169D01*
X334230Y471122D01*
X334172Y471081D01*
X334166Y471075D01*
X334142Y471063D01*
X334113Y471040D01*
X334066Y471016D01*
X334013Y470993D01*
X333949Y470963D01*
X333884Y470940D01*
X333808Y470916D01*
X333802D01*
X333779Y470911D01*
X333744Y470899D01*
X333697Y470893D01*
X333638Y470881D01*
X333562Y470869D01*
X333474Y470852D01*
X333368Y470840D01*
X333362D01*
X333339Y470834D01*
X333309D01*
X333268Y470828D01*
X333221Y470823D01*
X333163Y470811D01*
X333098Y470805D01*
X333028Y470793D01*
X332887Y470764D01*
X332734Y470735D01*
X332599Y470699D01*
X332535Y470682D01*
X332476Y470664D01*
Y470658D01*
Y470647D01*
X332470Y470611D01*
Y470570D01*
Y470547D01*
Y470535D01*
Y470529D01*
Y470523D01*
Y470488D01*
X332476Y470429D01*
X332488Y470365D01*
X332505Y470294D01*
X332535Y470224D01*
X332570Y470160D01*
X332617Y470107D01*
X332623Y470101D01*
X332652Y470077D01*
X332699Y470054D01*
X332758Y470019D01*
X332840Y469989D01*
X332934Y469960D01*
X333051Y469943D01*
X333186Y469937D01*
X333245D01*
X333303Y469943D01*
X333386Y469954D01*
X333468Y469966D01*
X333556Y469989D01*
X333638Y470019D01*
X333708Y470060D01*
X333714Y470066D01*
X333738Y470083D01*
X333767Y470113D01*
X333802Y470160D01*
X333837Y470218D01*
X333879Y470294D01*
X333914Y470388D01*
X333949Y470494D01*
X334436Y470429D01*
Y470424D01*
X334430Y470418D01*
Y470400D01*
X334424Y470377D01*
X334407Y470324D01*
X334383Y470248D01*
X334354Y470171D01*
X334319Y470089D01*
X334272Y470007D01*
X334219Y469931D01*
X334213Y469925D01*
X334189Y469901D01*
X334154Y469866D01*
X334107Y469819D01*
X334043Y469772D01*
X333966Y469725D01*
X333879Y469673D01*
X333779Y469632D01*
X333773D01*
X333767Y469626D01*
X333749Y469620D01*
X333726Y469614D01*
X333667Y469596D01*
X333585Y469579D01*
X333491Y469561D01*
X333374Y469543D01*
X333251Y469532D01*
X333110Y469526D01*
X333045D01*
X332981Y469532D01*
X332893Y469538D01*
X332793Y469549D01*
X332693Y469567D01*
X332593Y469590D01*
X332500Y469620D01*
X332488Y469626D01*
X332459Y469637D01*
X332417Y469655D01*
X332365Y469678D01*
X332306Y469714D01*
X332247Y469749D01*
X332195Y469796D01*
X332148Y469843D01*
X332142Y469849D01*
X332130Y469866D01*
X332112Y469896D01*
X332089Y469931D01*
X332060Y469983D01*
X332036Y470036D01*
X332013Y470101D01*
X331995Y470177D01*
Y470183D01*
X331989Y470201D01*
X331983Y470236D01*
X331978Y470283D01*
Y470347D01*
X331972Y470424D01*
X331966Y470523D01*
Y470635D01*
Y471304D01*
Y471310D01*
Y471333D01*
Y471368D01*
Y471415D01*
Y471468D01*
Y471533D01*
X331960Y471673D01*
Y471820D01*
X331954Y471967D01*
X331948Y472031D01*
Y472090D01*
X331942Y472143D01*
X331936Y472184D01*
Y472190D01*
X331931Y472213D01*
X331925Y472248D01*
X331907Y472295D01*
X331895Y472348D01*
X331872Y472407D01*
X331842Y472471D01*
X331813Y472536D01*
X332335D01*
X332341Y472530D01*
X332347Y472506D01*
X332359Y472477D01*
X332376Y472430D01*
X332394Y472377D01*
X332406Y472313D01*
X332417Y472243D01*
X332429Y472166D01*
X332435D01*
X332441Y472178D01*
X332476Y472207D01*
X332529Y472248D01*
X332599Y472301D01*
X332687Y472354D01*
X332775Y472413D01*
X332869Y472466D01*
X332969Y472506D01*
X332981Y472512D01*
X333016Y472518D01*
X333069Y472536D01*
X333133Y472553D01*
X333215Y472571D01*
X333309Y472583D01*
X333415Y472594D01*
X333521Y472600D01*
X333568D01*
X333603Y472594D01*
D02*
G37*
G36*
X314352D02*
X314393D01*
X314440Y472589D01*
X314545Y472571D01*
X314663Y472542D01*
X314792Y472501D01*
X314909Y472442D01*
X315015Y472366D01*
X315026Y472354D01*
X315056Y472325D01*
X315097Y472272D01*
X315144Y472201D01*
X315191Y472113D01*
X315232Y472014D01*
X315261Y471890D01*
X315267Y471832D01*
X315273Y471761D01*
Y471750D01*
Y471726D01*
X315267Y471685D01*
X315261Y471632D01*
X315250Y471568D01*
X315232Y471503D01*
X315208Y471433D01*
X315179Y471368D01*
X315173Y471362D01*
X315161Y471339D01*
X315138Y471304D01*
X315109Y471263D01*
X315074Y471216D01*
X315026Y471169D01*
X314980Y471122D01*
X314921Y471081D01*
X314915Y471075D01*
X314892Y471063D01*
X314862Y471040D01*
X314815Y471016D01*
X314762Y470993D01*
X314698Y470963D01*
X314633Y470940D01*
X314557Y470916D01*
X314551D01*
X314528Y470911D01*
X314493Y470899D01*
X314446Y470893D01*
X314387Y470881D01*
X314311Y470869D01*
X314223Y470852D01*
X314117Y470840D01*
X314111D01*
X314088Y470834D01*
X314058D01*
X314017Y470828D01*
X313970Y470823D01*
X313912Y470811D01*
X313847Y470805D01*
X313777Y470793D01*
X313636Y470764D01*
X313483Y470735D01*
X313349Y470699D01*
X313284Y470682D01*
X313225Y470664D01*
Y470658D01*
Y470647D01*
X313219Y470611D01*
Y470570D01*
Y470547D01*
Y470535D01*
Y470529D01*
Y470523D01*
Y470488D01*
X313225Y470429D01*
X313237Y470365D01*
X313255Y470294D01*
X313284Y470224D01*
X313319Y470160D01*
X313366Y470107D01*
X313372Y470101D01*
X313401Y470077D01*
X313448Y470054D01*
X313507Y470019D01*
X313589Y469989D01*
X313683Y469960D01*
X313800Y469943D01*
X313935Y469937D01*
X313994D01*
X314053Y469943D01*
X314135Y469954D01*
X314217Y469966D01*
X314305Y469989D01*
X314387Y470019D01*
X314457Y470060D01*
X314463Y470066D01*
X314487Y470083D01*
X314516Y470113D01*
X314551Y470160D01*
X314587Y470218D01*
X314628Y470294D01*
X314663Y470388D01*
X314698Y470494D01*
X315185Y470429D01*
Y470424D01*
X315179Y470418D01*
Y470400D01*
X315173Y470377D01*
X315156Y470324D01*
X315132Y470248D01*
X315103Y470171D01*
X315068Y470089D01*
X315021Y470007D01*
X314968Y469931D01*
X314962Y469925D01*
X314939Y469901D01*
X314903Y469866D01*
X314856Y469819D01*
X314792Y469772D01*
X314716Y469725D01*
X314628Y469673D01*
X314528Y469632D01*
X314522D01*
X314516Y469626D01*
X314499Y469620D01*
X314475Y469614D01*
X314416Y469596D01*
X314334Y469579D01*
X314240Y469561D01*
X314123Y469543D01*
X314000Y469532D01*
X313859Y469526D01*
X313794D01*
X313730Y469532D01*
X313642Y469538D01*
X313542Y469549D01*
X313442Y469567D01*
X313343Y469590D01*
X313249Y469620D01*
X313237Y469626D01*
X313208Y469637D01*
X313167Y469655D01*
X313114Y469678D01*
X313055Y469714D01*
X312996Y469749D01*
X312944Y469796D01*
X312897Y469843D01*
X312891Y469849D01*
X312879Y469866D01*
X312861Y469896D01*
X312838Y469931D01*
X312809Y469983D01*
X312785Y470036D01*
X312762Y470101D01*
X312744Y470177D01*
Y470183D01*
X312738Y470201D01*
X312732Y470236D01*
X312726Y470283D01*
Y470347D01*
X312721Y470424D01*
X312715Y470523D01*
Y470635D01*
Y471304D01*
Y471310D01*
Y471333D01*
Y471368D01*
Y471415D01*
Y471468D01*
Y471533D01*
X312709Y471673D01*
Y471820D01*
X312703Y471967D01*
X312697Y472031D01*
Y472090D01*
X312691Y472143D01*
X312686Y472184D01*
Y472190D01*
X312680Y472213D01*
X312674Y472248D01*
X312656Y472295D01*
X312644Y472348D01*
X312621Y472407D01*
X312592Y472471D01*
X312562Y472536D01*
X313084D01*
X313090Y472530D01*
X313096Y472506D01*
X313108Y472477D01*
X313125Y472430D01*
X313143Y472377D01*
X313155Y472313D01*
X313167Y472243D01*
X313178Y472166D01*
X313184D01*
X313190Y472178D01*
X313225Y472207D01*
X313278Y472248D01*
X313349Y472301D01*
X313437Y472354D01*
X313524Y472413D01*
X313618Y472466D01*
X313718Y472506D01*
X313730Y472512D01*
X313765Y472518D01*
X313818Y472536D01*
X313882Y472553D01*
X313965Y472571D01*
X314058Y472583D01*
X314164Y472594D01*
X314270Y472600D01*
X314317D01*
X314352Y472594D01*
D02*
G37*
G36*
X310931D02*
X311001Y472589D01*
X311084Y472577D01*
X311183Y472553D01*
X311295Y472518D01*
X311406Y472471D01*
X311518Y472407D01*
X311524D01*
X311530Y472395D01*
X311565Y472372D01*
X311618Y472325D01*
X311682Y472266D01*
X311758Y472190D01*
X311835Y472096D01*
X311911Y471990D01*
X311975Y471867D01*
Y471861D01*
X311981Y471849D01*
X311987Y471832D01*
X311999Y471808D01*
X312011Y471773D01*
X312028Y471732D01*
X312040Y471691D01*
X312052Y471638D01*
X312081Y471521D01*
X312111Y471386D01*
X312128Y471233D01*
X312134Y471069D01*
Y471063D01*
Y471051D01*
Y471028D01*
Y470993D01*
X312128Y470957D01*
Y470911D01*
X312116Y470805D01*
X312099Y470682D01*
X312069Y470547D01*
X312034Y470406D01*
X311987Y470271D01*
Y470265D01*
X311981Y470253D01*
X311970Y470236D01*
X311958Y470212D01*
X311923Y470148D01*
X311876Y470066D01*
X311817Y469978D01*
X311741Y469890D01*
X311653Y469796D01*
X311547Y469720D01*
X311541D01*
X311535Y469714D01*
X311518Y469702D01*
X311494Y469690D01*
X311436Y469661D01*
X311354Y469620D01*
X311260Y469585D01*
X311148Y469555D01*
X311025Y469532D01*
X310896Y469526D01*
X310849D01*
X310802Y469532D01*
X310737Y469538D01*
X310661Y469555D01*
X310579Y469573D01*
X310497Y469602D01*
X310421Y469643D01*
X310409Y469649D01*
X310385Y469661D01*
X310350Y469690D01*
X310303Y469720D01*
X310245Y469761D01*
X310192Y469813D01*
X310133Y469866D01*
X310080Y469931D01*
Y468476D01*
X309582D01*
Y472536D01*
X310045D01*
Y472166D01*
X310051Y472172D01*
X310057Y472184D01*
X310075Y472207D01*
X310098Y472237D01*
X310127Y472266D01*
X310163Y472301D01*
X310203Y472342D01*
X310256Y472383D01*
X310309Y472424D01*
X310368Y472466D01*
X310438Y472501D01*
X310515Y472530D01*
X310591Y472559D01*
X310679Y472583D01*
X310773Y472594D01*
X310872Y472600D01*
X310908D01*
X310931Y472594D01*
D02*
G37*
G36*
X307827D02*
X307874D01*
X307933Y472589D01*
X307992Y472583D01*
X308056Y472571D01*
X308197Y472542D01*
X308344Y472501D01*
X308484Y472442D01*
X308549Y472407D01*
X308608Y472366D01*
X308613Y472360D01*
X308619Y472354D01*
X308655Y472319D01*
X308707Y472266D01*
X308766Y472184D01*
X308831Y472084D01*
X308895Y471967D01*
X308948Y471820D01*
X308989Y471656D01*
X308496Y471580D01*
Y471585D01*
Y471591D01*
X308484Y471626D01*
X308473Y471685D01*
X308449Y471750D01*
X308420Y471820D01*
X308385Y471896D01*
X308332Y471973D01*
X308267Y472037D01*
X308256Y472043D01*
X308232Y472061D01*
X308185Y472084D01*
X308127Y472113D01*
X308050Y472143D01*
X307962Y472166D01*
X307857Y472184D01*
X307733Y472190D01*
X307675D01*
X307616Y472184D01*
X307540Y472172D01*
X307458Y472155D01*
X307370Y472131D01*
X307293Y472102D01*
X307223Y472055D01*
X307217Y472049D01*
X307194Y472031D01*
X307170Y472002D01*
X307135Y471961D01*
X307106Y471914D01*
X307076Y471855D01*
X307059Y471797D01*
X307053Y471726D01*
Y471720D01*
Y471697D01*
X307059Y471668D01*
X307070Y471626D01*
X307088Y471585D01*
X307117Y471544D01*
X307153Y471497D01*
X307205Y471462D01*
X307211Y471456D01*
X307229Y471450D01*
X307258Y471433D01*
X307305Y471415D01*
X307376Y471392D01*
X307416Y471374D01*
X307463Y471362D01*
X307516Y471345D01*
X307575Y471327D01*
X307640Y471310D01*
X307716Y471292D01*
X307722D01*
X307739Y471286D01*
X307769Y471280D01*
X307804Y471269D01*
X307851Y471257D01*
X307903Y471239D01*
X308015Y471210D01*
X308144Y471169D01*
X308267Y471134D01*
X308385Y471092D01*
X308438Y471069D01*
X308479Y471051D01*
X308490Y471045D01*
X308514Y471034D01*
X308549Y471010D01*
X308596Y470981D01*
X308649Y470940D01*
X308701Y470893D01*
X308754Y470840D01*
X308801Y470776D01*
X308807Y470770D01*
X308819Y470746D01*
X308836Y470705D01*
X308854Y470658D01*
X308872Y470600D01*
X308889Y470529D01*
X308901Y470459D01*
X308907Y470377D01*
Y470365D01*
Y470341D01*
X308901Y470306D01*
X308895Y470253D01*
X308883Y470201D01*
X308872Y470136D01*
X308848Y470077D01*
X308819Y470013D01*
X308813Y470007D01*
X308801Y469983D01*
X308784Y469954D01*
X308754Y469913D01*
X308719Y469872D01*
X308678Y469819D01*
X308631Y469772D01*
X308572Y469731D01*
X308566Y469725D01*
X308549Y469720D01*
X308526Y469702D01*
X308490Y469684D01*
X308443Y469661D01*
X308391Y469637D01*
X308326Y469614D01*
X308256Y469590D01*
X308244Y469585D01*
X308220Y469579D01*
X308179Y469567D01*
X308127Y469555D01*
X308062Y469543D01*
X307992Y469538D01*
X307909Y469526D01*
X307769D01*
X307704Y469532D01*
X307616Y469538D01*
X307522Y469549D01*
X307422Y469573D01*
X307317Y469596D01*
X307217Y469632D01*
X307211D01*
X307205Y469637D01*
X307176Y469649D01*
X307129Y469673D01*
X307070Y469702D01*
X307006Y469743D01*
X306941Y469790D01*
X306883Y469843D01*
X306830Y469901D01*
X306824Y469907D01*
X306812Y469931D01*
X306789Y469972D01*
X306759Y470019D01*
X306730Y470089D01*
X306701Y470165D01*
X306677Y470253D01*
X306654Y470353D01*
X307141Y470418D01*
Y470406D01*
X307147Y470382D01*
X307158Y470341D01*
X307176Y470289D01*
X307205Y470236D01*
X307241Y470177D01*
X307282Y470118D01*
X307340Y470066D01*
X307346Y470060D01*
X307370Y470048D01*
X307405Y470025D01*
X307458Y470001D01*
X307516Y469978D01*
X307593Y469954D01*
X307686Y469943D01*
X307786Y469937D01*
X307845D01*
X307903Y469943D01*
X307980Y469948D01*
X308056Y469966D01*
X308138Y469983D01*
X308214Y470013D01*
X308279Y470054D01*
X308285Y470060D01*
X308302Y470072D01*
X308326Y470095D01*
X308349Y470130D01*
X308379Y470165D01*
X308402Y470212D01*
X308420Y470265D01*
X308426Y470318D01*
Y470324D01*
Y470336D01*
X308420Y470353D01*
Y470377D01*
X308402Y470435D01*
X308367Y470494D01*
X308361Y470500D01*
X308355Y470506D01*
X308344Y470523D01*
X308320Y470541D01*
X308297Y470559D01*
X308261Y470582D01*
X308220Y470600D01*
X308173Y470623D01*
X308168D01*
X308156Y470629D01*
X308132Y470635D01*
X308091Y470652D01*
X308033Y470670D01*
X307956Y470688D01*
X307909Y470705D01*
X307857Y470717D01*
X307798Y470735D01*
X307733Y470752D01*
X307728D01*
X307710Y470758D01*
X307681Y470764D01*
X307645Y470776D01*
X307604Y470787D01*
X307551Y470799D01*
X307440Y470834D01*
X307317Y470869D01*
X307194Y470911D01*
X307082Y470952D01*
X307035Y470969D01*
X306994Y470987D01*
X306982Y470993D01*
X306959Y471004D01*
X306924Y471022D01*
X306871Y471051D01*
X306818Y471087D01*
X306765Y471134D01*
X306712Y471186D01*
X306665Y471245D01*
X306660Y471251D01*
X306648Y471274D01*
X306624Y471310D01*
X306601Y471362D01*
X306583Y471427D01*
X306560Y471497D01*
X306548Y471580D01*
X306542Y471673D01*
Y471685D01*
Y471714D01*
X306548Y471761D01*
X306560Y471826D01*
X306577Y471896D01*
X306607Y471973D01*
X306642Y472061D01*
X306689Y472143D01*
X306695Y472155D01*
X306718Y472178D01*
X306748Y472219D01*
X306795Y472266D01*
X306859Y472319D01*
X306929Y472377D01*
X307012Y472430D01*
X307111Y472483D01*
X307117D01*
X307123Y472489D01*
X307158Y472501D01*
X307217Y472518D01*
X307293Y472542D01*
X307387Y472565D01*
X307493Y472583D01*
X307604Y472594D01*
X307733Y472600D01*
X307786D01*
X307827Y472594D01*
D02*
G37*
G36*
X324890Y469590D02*
X324438D01*
Y470036D01*
X324432Y470031D01*
X324408Y469989D01*
X324379Y469937D01*
X324332Y469872D01*
X324285Y469808D01*
X324232Y469737D01*
X324180Y469678D01*
X324127Y469632D01*
X324121Y469626D01*
X324103Y469614D01*
X324068Y469596D01*
X324033Y469579D01*
X323986Y469561D01*
X323927Y469543D01*
X323869Y469532D01*
X323804Y469526D01*
X323763D01*
X323710Y469532D01*
X323646Y469543D01*
X323569Y469567D01*
X323487Y469596D01*
X323394Y469637D01*
X323294Y469690D01*
X323476Y470148D01*
X323481Y470142D01*
X323505Y470130D01*
X323540Y470113D01*
X323587Y470095D01*
X323640Y470077D01*
X323704Y470060D01*
X323769Y470048D01*
X323834Y470042D01*
X323863D01*
X323892Y470048D01*
X323933Y470054D01*
X323974Y470066D01*
X324027Y470083D01*
X324080Y470107D01*
X324127Y470142D01*
X324133Y470148D01*
X324150Y470160D01*
X324168Y470183D01*
X324197Y470212D01*
X324227Y470253D01*
X324256Y470300D01*
X324285Y470353D01*
X324309Y470418D01*
X324315Y470429D01*
X324320Y470465D01*
X324332Y470518D01*
X324350Y470588D01*
X324367Y470676D01*
X324379Y470776D01*
X324385Y470881D01*
X324391Y470999D01*
Y472536D01*
X324890D01*
Y469590D01*
D02*
G37*
G36*
X326914Y472594D02*
X326967Y472589D01*
X327031Y472577D01*
X327102Y472565D01*
X327178Y472553D01*
X327342Y472506D01*
X327430Y472471D01*
X327512Y472436D01*
X327600Y472389D01*
X327682Y472336D01*
X327759Y472278D01*
X327835Y472207D01*
X327841Y472201D01*
X327853Y472190D01*
X327870Y472166D01*
X327894Y472131D01*
X327923Y472090D01*
X327952Y472043D01*
X327988Y471984D01*
X328023Y471920D01*
X328058Y471843D01*
X328093Y471761D01*
X328123Y471668D01*
X328152Y471568D01*
X328175Y471462D01*
X328193Y471345D01*
X328205Y471222D01*
X328211Y471092D01*
Y471087D01*
Y471057D01*
Y471022D01*
X328205Y470969D01*
X328199Y470905D01*
X328193Y470834D01*
X328181Y470752D01*
X328164Y470670D01*
X328117Y470482D01*
X328087Y470388D01*
X328052Y470289D01*
X328005Y470195D01*
X327952Y470107D01*
X327894Y470019D01*
X327829Y469937D01*
X327823Y469931D01*
X327812Y469919D01*
X327788Y469901D01*
X327759Y469872D01*
X327724Y469843D01*
X327677Y469808D01*
X327624Y469766D01*
X327559Y469731D01*
X327495Y469690D01*
X327419Y469655D01*
X327336Y469620D01*
X327248Y469590D01*
X327155Y469561D01*
X327055Y469543D01*
X326949Y469532D01*
X326838Y469526D01*
X326779D01*
X326738Y469532D01*
X326691Y469538D01*
X326632Y469549D01*
X326568Y469561D01*
X326491Y469579D01*
X326421Y469596D01*
X326339Y469626D01*
X326263Y469655D01*
X326180Y469696D01*
X326098Y469743D01*
X326016Y469796D01*
X325940Y469860D01*
X325869Y469931D01*
X325864Y469937D01*
X325852Y469948D01*
X325834Y469972D01*
X325811Y470007D01*
X325782Y470048D01*
X325752Y470095D01*
X325717Y470154D01*
X325682Y470224D01*
X325647Y470300D01*
X325611Y470382D01*
X325582Y470476D01*
X325553Y470576D01*
X325529Y470688D01*
X325512Y470805D01*
X325500Y470928D01*
X325494Y471063D01*
Y471069D01*
Y471092D01*
Y471134D01*
X325500Y471192D01*
X327700D01*
Y471198D01*
Y471216D01*
X327694Y471239D01*
Y471274D01*
X327688Y471315D01*
X327677Y471362D01*
X327659Y471468D01*
X327624Y471585D01*
X327577Y471714D01*
X327512Y471832D01*
X327430Y471937D01*
X327424D01*
X327419Y471949D01*
X327383Y471978D01*
X327331Y472020D01*
X327260Y472061D01*
X327166Y472108D01*
X327061Y472149D01*
X326943Y472178D01*
X326879Y472184D01*
X326808Y472190D01*
X326761D01*
X326708Y472184D01*
X326644Y472172D01*
X326574Y472155D01*
X326491Y472131D01*
X326415Y472096D01*
X326339Y472049D01*
X326333Y472043D01*
X326304Y472020D01*
X326269Y471984D01*
X326227Y471937D01*
X326180Y471873D01*
X326128Y471791D01*
X326075Y471697D01*
X326028Y471585D01*
X325512Y471650D01*
Y471656D01*
X325518Y471668D01*
X325523Y471691D01*
X325535Y471726D01*
X325553Y471761D01*
X325570Y471808D01*
X325617Y471908D01*
X325676Y472020D01*
X325758Y472137D01*
X325852Y472248D01*
X325969Y472354D01*
X325975D01*
X325987Y472366D01*
X326004Y472377D01*
X326028Y472395D01*
X326063Y472413D01*
X326098Y472430D01*
X326145Y472454D01*
X326198Y472477D01*
X326257Y472501D01*
X326315Y472524D01*
X326462Y472559D01*
X326626Y472589D01*
X326808Y472600D01*
X326873D01*
X326914Y472594D01*
D02*
G37*
G36*
X317133D02*
X317186Y472589D01*
X317250Y472577D01*
X317321Y472565D01*
X317397Y472553D01*
X317561Y472506D01*
X317649Y472471D01*
X317731Y472436D01*
X317819Y472389D01*
X317902Y472336D01*
X317978Y472278D01*
X318054Y472207D01*
X318060Y472201D01*
X318072Y472190D01*
X318089Y472166D01*
X318113Y472131D01*
X318142Y472090D01*
X318172Y472043D01*
X318207Y471984D01*
X318242Y471920D01*
X318277Y471843D01*
X318312Y471761D01*
X318342Y471668D01*
X318371Y471568D01*
X318394Y471462D01*
X318412Y471345D01*
X318424Y471222D01*
X318430Y471092D01*
Y471087D01*
Y471057D01*
Y471022D01*
X318424Y470969D01*
X318418Y470905D01*
X318412Y470834D01*
X318400Y470752D01*
X318383Y470670D01*
X318336Y470482D01*
X318306Y470388D01*
X318271Y470289D01*
X318224Y470195D01*
X318172Y470107D01*
X318113Y470019D01*
X318048Y469937D01*
X318042Y469931D01*
X318031Y469919D01*
X318007Y469901D01*
X317978Y469872D01*
X317943Y469843D01*
X317896Y469808D01*
X317843Y469766D01*
X317778Y469731D01*
X317714Y469690D01*
X317638Y469655D01*
X317555Y469620D01*
X317467Y469590D01*
X317374Y469561D01*
X317274Y469543D01*
X317168Y469532D01*
X317057Y469526D01*
X316998D01*
X316957Y469532D01*
X316910Y469538D01*
X316851Y469549D01*
X316787Y469561D01*
X316710Y469579D01*
X316640Y469596D01*
X316558Y469626D01*
X316482Y469655D01*
X316399Y469696D01*
X316317Y469743D01*
X316235Y469796D01*
X316159Y469860D01*
X316089Y469931D01*
X316083Y469937D01*
X316071Y469948D01*
X316053Y469972D01*
X316030Y470007D01*
X316000Y470048D01*
X315971Y470095D01*
X315936Y470154D01*
X315901Y470224D01*
X315866Y470300D01*
X315830Y470382D01*
X315801Y470476D01*
X315772Y470576D01*
X315748Y470688D01*
X315731Y470805D01*
X315719Y470928D01*
X315713Y471063D01*
Y471069D01*
Y471092D01*
Y471134D01*
X315719Y471192D01*
X317919D01*
Y471198D01*
Y471216D01*
X317913Y471239D01*
Y471274D01*
X317907Y471315D01*
X317896Y471362D01*
X317878Y471468D01*
X317843Y471585D01*
X317796Y471714D01*
X317731Y471832D01*
X317649Y471937D01*
X317643D01*
X317638Y471949D01*
X317602Y471978D01*
X317549Y472020D01*
X317479Y472061D01*
X317385Y472108D01*
X317280Y472149D01*
X317162Y472178D01*
X317098Y472184D01*
X317027Y472190D01*
X316980D01*
X316928Y472184D01*
X316863Y472172D01*
X316793Y472155D01*
X316710Y472131D01*
X316634Y472096D01*
X316558Y472049D01*
X316552Y472043D01*
X316523Y472020D01*
X316488Y471984D01*
X316446Y471937D01*
X316399Y471873D01*
X316347Y471791D01*
X316294Y471697D01*
X316247Y471585D01*
X315731Y471650D01*
Y471656D01*
X315737Y471668D01*
X315742Y471691D01*
X315754Y471726D01*
X315772Y471761D01*
X315789Y471808D01*
X315836Y471908D01*
X315895Y472020D01*
X315977Y472137D01*
X316071Y472248D01*
X316188Y472354D01*
X316194D01*
X316206Y472366D01*
X316224Y472377D01*
X316247Y472395D01*
X316282Y472413D01*
X316317Y472430D01*
X316364Y472454D01*
X316417Y472477D01*
X316476Y472501D01*
X316535Y472524D01*
X316681Y472559D01*
X316845Y472589D01*
X317027Y472600D01*
X317092D01*
X317133Y472594D01*
D02*
G37*
G36*
X340022Y468476D02*
X339464D01*
X338860Y471139D01*
Y471145D01*
X338854Y471157D01*
X338848Y471180D01*
X338842Y471210D01*
X338837Y471251D01*
X338825Y471292D01*
X338813Y471345D01*
X338801Y471404D01*
X338772Y471527D01*
X338743Y471668D01*
X338713Y471820D01*
X338684Y471973D01*
Y471967D01*
X338678Y471943D01*
X338666Y471914D01*
X338660Y471867D01*
X338649Y471820D01*
X338631Y471761D01*
X338602Y471632D01*
X338567Y471503D01*
X338555Y471439D01*
X338537Y471380D01*
X338526Y471327D01*
X338514Y471280D01*
X338502Y471245D01*
X338496Y471222D01*
X337728Y468476D01*
X337076D01*
X336501Y470535D01*
Y470541D01*
X336489Y470570D01*
X336478Y470611D01*
X336466Y470664D01*
X336448Y470735D01*
X336425Y470811D01*
X336401Y470899D01*
X336378Y470999D01*
X336349Y471110D01*
X336325Y471222D01*
X336272Y471462D01*
X336220Y471714D01*
X336179Y471973D01*
Y471967D01*
X336173Y471955D01*
Y471931D01*
X336161Y471902D01*
X336155Y471867D01*
X336143Y471826D01*
X336138Y471773D01*
X336120Y471714D01*
X336091Y471585D01*
X336055Y471433D01*
X336020Y471269D01*
X335973Y471087D01*
X335340Y468476D01*
X334794D01*
X335909Y472536D01*
X336437D01*
X337287Y469444D01*
Y469438D01*
X337293Y469426D01*
X337299Y469408D01*
X337305Y469379D01*
X337323Y469315D01*
X337340Y469238D01*
X337364Y469156D01*
X337387Y469080D01*
X337405Y469015D01*
X337411Y468986D01*
X337416Y468969D01*
Y468974D01*
X337422Y468980D01*
X337428Y469015D01*
X337440Y469068D01*
X337458Y469133D01*
X337475Y469203D01*
X337499Y469285D01*
X337516Y469367D01*
X337540Y469444D01*
X338396Y472536D01*
X338960D01*
X340022Y468476D01*
D02*
G37*
G36*
X330522Y472571D02*
X330581Y472565D01*
X330651Y472559D01*
X330722Y472542D01*
X330786Y472524D01*
X330851Y472495D01*
X330857Y472489D01*
X330874Y472477D01*
X330898Y472460D01*
X330933Y472430D01*
X330962Y472401D01*
X330998Y472360D01*
X331033Y472319D01*
X331056Y472266D01*
Y472260D01*
X331068Y472237D01*
X331074Y472196D01*
X331086Y472137D01*
X331097Y472061D01*
X331103Y472014D01*
Y471961D01*
X331109Y471896D01*
X331115Y471832D01*
Y471761D01*
Y471679D01*
Y469978D01*
X331485D01*
Y469590D01*
X331115D01*
Y468863D01*
X330616Y468564D01*
Y469590D01*
X330112D01*
Y469978D01*
X330616D01*
Y471709D01*
Y471720D01*
Y471744D01*
Y471779D01*
X330610Y471820D01*
X330605Y471914D01*
X330599Y471955D01*
X330593Y471984D01*
X330587Y471996D01*
X330569Y472020D01*
X330546Y472049D01*
X330505Y472078D01*
X330493Y472084D01*
X330464Y472096D01*
X330411Y472108D01*
X330335Y472113D01*
X330276D01*
X330247Y472108D01*
X330205D01*
X330159Y472102D01*
X330112Y472096D01*
X330047Y472536D01*
X330059D01*
X330082Y472542D01*
X330123Y472548D01*
X330176Y472553D01*
X330235Y472565D01*
X330299Y472571D01*
X330429Y472577D01*
X330475D01*
X330522Y472571D01*
D02*
G37*
G36*
X328944D02*
X329003Y472565D01*
X329073Y472559D01*
X329143Y472542D01*
X329208Y472524D01*
X329273Y472495D01*
X329278Y472489D01*
X329296Y472477D01*
X329319Y472460D01*
X329355Y472430D01*
X329384Y472401D01*
X329419Y472360D01*
X329454Y472319D01*
X329478Y472266D01*
Y472260D01*
X329490Y472237D01*
X329496Y472196D01*
X329507Y472137D01*
X329519Y472061D01*
X329525Y472014D01*
Y471961D01*
X329531Y471896D01*
X329537Y471832D01*
Y471761D01*
Y471679D01*
Y469978D01*
X329906D01*
Y469590D01*
X329537D01*
Y468863D01*
X329038Y468564D01*
Y469590D01*
X328533D01*
Y469978D01*
X329038D01*
Y471709D01*
Y471720D01*
Y471744D01*
Y471779D01*
X329032Y471820D01*
X329026Y471914D01*
X329020Y471955D01*
X329014Y471984D01*
X329009Y471996D01*
X328991Y472020D01*
X328968Y472049D01*
X328926Y472078D01*
X328915Y472084D01*
X328885Y472096D01*
X328833Y472108D01*
X328756Y472113D01*
X328698D01*
X328668Y472108D01*
X328627D01*
X328580Y472102D01*
X328533Y472096D01*
X328469Y472536D01*
X328480D01*
X328504Y472542D01*
X328545Y472548D01*
X328598Y472553D01*
X328657Y472565D01*
X328721Y472571D01*
X328850Y472577D01*
X328897D01*
X328944Y472571D01*
D02*
G37*
G36*
X321375Y468476D02*
X320835D01*
Y472055D01*
X318834D01*
Y472536D01*
X321375D01*
Y468476D01*
D02*
G37*
G36*
X455487Y352519D02*
X455558D01*
X455640Y352507D01*
X455739Y352496D01*
X455851Y352478D01*
X455968Y352454D01*
X456091Y352431D01*
X456221Y352396D01*
X456350Y352349D01*
X456485Y352296D01*
X456614Y352237D01*
X456743Y352161D01*
X456860Y352079D01*
X456972Y351985D01*
X456977Y351979D01*
X456995Y351962D01*
X457024Y351926D01*
X457060Y351885D01*
X457107Y351833D01*
X457153Y351768D01*
X457206Y351692D01*
X457259Y351604D01*
X457312Y351510D01*
X457365Y351404D01*
X457412Y351287D01*
X457458Y351164D01*
X457494Y351029D01*
X457523Y350888D01*
X457541Y350741D01*
X457547Y350583D01*
Y350530D01*
X457541Y350489D01*
Y350436D01*
X457535Y350383D01*
X457523Y350313D01*
X457511Y350243D01*
X457482Y350090D01*
X457435Y349914D01*
X457365Y349744D01*
X457324Y349656D01*
X457277Y349568D01*
X457271Y349562D01*
X457265Y349550D01*
X457247Y349527D01*
X457230Y349492D01*
X457200Y349456D01*
X457165Y349409D01*
X457083Y349310D01*
X456977Y349204D01*
X456848Y349087D01*
X456696Y348975D01*
X456526Y348881D01*
X456520D01*
X456502Y348870D01*
X456479Y348858D01*
X456443Y348846D01*
X456396Y348823D01*
X456344Y348805D01*
X456279Y348782D01*
X456209Y348758D01*
X456133Y348741D01*
X456050Y348717D01*
X455956Y348694D01*
X455863Y348676D01*
X455657Y348652D01*
X455434Y348641D01*
X455428D01*
X455405D01*
X455376D01*
X455329Y348647D01*
X455276D01*
X455211Y348652D01*
X455141Y348664D01*
X455065Y348670D01*
X454894Y348699D01*
X454707Y348746D01*
X454519Y348811D01*
X454425Y348846D01*
X454331Y348893D01*
X454325D01*
X454308Y348905D01*
X454284Y348917D01*
X454249Y348940D01*
X454208Y348963D01*
X454167Y348993D01*
X454055Y349075D01*
X453938Y349175D01*
X453815Y349292D01*
X453698Y349433D01*
X453592Y349597D01*
Y349603D01*
X453580Y349615D01*
X453568Y349644D01*
X453551Y349679D01*
X453533Y349720D01*
X453516Y349767D01*
X453492Y349826D01*
X453469Y349891D01*
X453445Y349961D01*
X453422Y350037D01*
X453387Y350207D01*
X453357Y350389D01*
X453345Y350583D01*
Y350642D01*
X453351Y350677D01*
Y350729D01*
X453363Y350788D01*
X453369Y350853D01*
X453381Y350929D01*
X453416Y351087D01*
X453463Y351258D01*
X453533Y351434D01*
X453574Y351522D01*
X453621Y351610D01*
X453627Y351615D01*
X453633Y351627D01*
X453651Y351651D01*
X453674Y351686D01*
X453698Y351721D01*
X453733Y351762D01*
X453821Y351862D01*
X453926Y351973D01*
X454055Y352091D01*
X454202Y352196D01*
X454372Y352296D01*
X454378D01*
X454396Y352308D01*
X454419Y352320D01*
X454454Y352331D01*
X454501Y352349D01*
X454554Y352366D01*
X454613Y352390D01*
X454677Y352408D01*
X454754Y352431D01*
X454830Y352454D01*
X455006Y352490D01*
X455188Y352513D01*
X455387Y352525D01*
X455393D01*
X455399D01*
X455434D01*
X455487Y352519D01*
D02*
G37*
G36*
X453527Y348218D02*
X453580Y348212D01*
X453639Y348201D01*
X453698Y348189D01*
X453762Y348166D01*
X453768D01*
X453774Y348160D01*
X453809Y348148D01*
X453862Y348124D01*
X453932Y348089D01*
X454014Y348042D01*
X454108Y347984D01*
X454202Y347919D01*
X454302Y347837D01*
X454308D01*
X454314Y347825D01*
X454349Y347796D01*
X454402Y347743D01*
X454478Y347667D01*
X454566Y347579D01*
X454672Y347467D01*
X454789Y347332D01*
X454912Y347186D01*
X454918Y347180D01*
X454936Y347156D01*
X454965Y347121D01*
X455000Y347080D01*
X455047Y347027D01*
X455100Y346963D01*
X455159Y346898D01*
X455223Y346822D01*
X455364Y346675D01*
X455505Y346529D01*
X455575Y346458D01*
X455645Y346394D01*
X455710Y346335D01*
X455775Y346288D01*
X455780D01*
X455786Y346276D01*
X455804Y346264D01*
X455827Y346253D01*
X455892Y346212D01*
X455968Y346165D01*
X456062Y346124D01*
X456162Y346082D01*
X456273Y346059D01*
X456379Y346047D01*
X456385D01*
X456391D01*
X456426Y346053D01*
X456485Y346059D01*
X456549Y346077D01*
X456631Y346100D01*
X456713Y346141D01*
X456796Y346194D01*
X456878Y346264D01*
X456889Y346276D01*
X456913Y346306D01*
X456942Y346347D01*
X456983Y346411D01*
X457019Y346493D01*
X457054Y346587D01*
X457077Y346699D01*
X457083Y346822D01*
Y346857D01*
X457077Y346880D01*
X457071Y346951D01*
X457054Y347033D01*
X457030Y347121D01*
X456989Y347221D01*
X456936Y347315D01*
X456866Y347403D01*
X456854Y347414D01*
X456825Y347438D01*
X456778Y347473D01*
X456707Y347508D01*
X456625Y347549D01*
X456520Y347585D01*
X456402Y347608D01*
X456268Y347620D01*
X456320Y348130D01*
X456326D01*
X456344Y348124D01*
X456373D01*
X456414Y348119D01*
X456461Y348107D01*
X456514Y348095D01*
X456578Y348078D01*
X456643Y348060D01*
X456784Y348013D01*
X456925Y347943D01*
X456995Y347901D01*
X457065Y347849D01*
X457130Y347796D01*
X457189Y347737D01*
X457195Y347731D01*
X457200Y347719D01*
X457218Y347702D01*
X457236Y347673D01*
X457259Y347637D01*
X457282Y347596D01*
X457312Y347549D01*
X457341Y347491D01*
X457370Y347426D01*
X457400Y347356D01*
X457423Y347280D01*
X457447Y347197D01*
X457464Y347109D01*
X457482Y347015D01*
X457488Y346916D01*
X457494Y346810D01*
Y346751D01*
X457488Y346710D01*
X457482Y346663D01*
X457476Y346605D01*
X457464Y346540D01*
X457453Y346476D01*
X457412Y346323D01*
X457353Y346171D01*
X457318Y346094D01*
X457277Y346018D01*
X457224Y345948D01*
X457165Y345883D01*
X457159Y345877D01*
X457153Y345866D01*
X457130Y345854D01*
X457107Y345830D01*
X457077Y345801D01*
X457036Y345772D01*
X456995Y345742D01*
X456942Y345707D01*
X456831Y345648D01*
X456690Y345590D01*
X456619Y345566D01*
X456537Y345555D01*
X456455Y345543D01*
X456367Y345537D01*
X456356D01*
X456326D01*
X456279Y345543D01*
X456215Y345549D01*
X456144Y345560D01*
X456062Y345584D01*
X455974Y345607D01*
X455886Y345643D01*
X455874Y345648D01*
X455845Y345660D01*
X455798Y345684D01*
X455733Y345719D01*
X455663Y345766D01*
X455575Y345824D01*
X455487Y345895D01*
X455387Y345977D01*
X455376Y345989D01*
X455340Y346018D01*
X455311Y346047D01*
X455282Y346077D01*
X455247Y346112D01*
X455200Y346159D01*
X455153Y346206D01*
X455100Y346264D01*
X455041Y346323D01*
X454977Y346394D01*
X454912Y346470D01*
X454836Y346552D01*
X454759Y346646D01*
X454677Y346740D01*
X454672Y346746D01*
X454660Y346757D01*
X454642Y346781D01*
X454619Y346810D01*
X454584Y346845D01*
X454548Y346886D01*
X454472Y346980D01*
X454384Y347080D01*
X454296Y347174D01*
X454220Y347256D01*
X454190Y347291D01*
X454161Y347321D01*
X454155Y347326D01*
X454138Y347344D01*
X454114Y347368D01*
X454079Y347397D01*
X454038Y347426D01*
X453997Y347461D01*
X453897Y347532D01*
Y345531D01*
X453416D01*
Y348224D01*
X453422D01*
X453445D01*
X453480D01*
X453527Y348218D01*
D02*
G37*
G36*
X224967Y550984D02*
X223424D01*
Y551483D01*
X224967D01*
Y550984D01*
D02*
G37*
G36*
X223130Y553343D02*
X221792D01*
Y549764D01*
X221253D01*
Y553343D01*
X219915D01*
Y553824D01*
X223130D01*
Y553343D01*
D02*
G37*
G36*
X218049Y553818D02*
X218096D01*
X218202Y553807D01*
X218319Y553795D01*
X218442Y553771D01*
X218565Y553742D01*
X218677Y553701D01*
X218683D01*
X218689Y553695D01*
X218724Y553678D01*
X218777Y553648D01*
X218835Y553607D01*
X218906Y553554D01*
X218982Y553490D01*
X219052Y553408D01*
X219117Y553320D01*
X219123Y553308D01*
X219140Y553273D01*
X219170Y553226D01*
X219199Y553155D01*
X219228Y553073D01*
X219258Y552985D01*
X219275Y552886D01*
X219281Y552786D01*
Y552774D01*
Y552745D01*
X219275Y552692D01*
X219264Y552627D01*
X219246Y552551D01*
X219217Y552469D01*
X219181Y552387D01*
X219135Y552299D01*
X219129Y552287D01*
X219111Y552263D01*
X219076Y552217D01*
X219029Y552170D01*
X218970Y552111D01*
X218900Y552046D01*
X218812Y551988D01*
X218712Y551929D01*
X218718D01*
X218730Y551923D01*
X218747Y551917D01*
X218771Y551906D01*
X218841Y551882D01*
X218923Y551841D01*
X219011Y551788D01*
X219111Y551724D01*
X219199Y551647D01*
X219281Y551554D01*
X219287Y551542D01*
X219310Y551507D01*
X219346Y551454D01*
X219381Y551383D01*
X219416Y551289D01*
X219451Y551190D01*
X219475Y551072D01*
X219481Y550943D01*
Y550938D01*
Y550932D01*
Y550896D01*
X219475Y550838D01*
X219463Y550767D01*
X219451Y550685D01*
X219428Y550597D01*
X219398Y550503D01*
X219357Y550409D01*
X219352Y550398D01*
X219334Y550368D01*
X219310Y550327D01*
X219275Y550269D01*
X219228Y550210D01*
X219181Y550145D01*
X219123Y550081D01*
X219058Y550028D01*
X219052Y550022D01*
X219029Y550005D01*
X218988Y549981D01*
X218935Y549958D01*
X218871Y549922D01*
X218794Y549887D01*
X218712Y549858D01*
X218612Y549828D01*
X218601D01*
X218565Y549817D01*
X218507Y549811D01*
X218430Y549799D01*
X218337Y549787D01*
X218225Y549776D01*
X218102Y549770D01*
X217961Y549764D01*
X216412D01*
Y553824D01*
X218008D01*
X218049Y553818D01*
D02*
G37*
G36*
X221575Y131883D02*
X222678D01*
Y131420D01*
X221575D01*
Y130305D01*
X221106D01*
Y131420D01*
X220002D01*
Y131883D01*
X221106D01*
Y132987D01*
X221575D01*
Y131883D01*
D02*
G37*
G36*
X219574Y133227D02*
X218236D01*
Y129648D01*
X217697D01*
Y133227D01*
X216359D01*
Y133708D01*
X219574D01*
Y133227D01*
D02*
G37*
G36*
X214493Y133702D02*
X214540D01*
X214646Y133691D01*
X214763Y133679D01*
X214886Y133655D01*
X215009Y133626D01*
X215121Y133585D01*
X215127D01*
X215133Y133579D01*
X215168Y133562D01*
X215221Y133532D01*
X215279Y133491D01*
X215350Y133438D01*
X215426Y133374D01*
X215496Y133292D01*
X215561Y133204D01*
X215567Y133192D01*
X215584Y133157D01*
X215614Y133110D01*
X215643Y133039D01*
X215672Y132957D01*
X215702Y132869D01*
X215719Y132769D01*
X215725Y132670D01*
Y132658D01*
Y132629D01*
X215719Y132576D01*
X215708Y132511D01*
X215690Y132435D01*
X215661Y132353D01*
X215625Y132271D01*
X215578Y132183D01*
X215573Y132171D01*
X215555Y132148D01*
X215520Y132101D01*
X215473Y132054D01*
X215414Y131995D01*
X215344Y131930D01*
X215256Y131872D01*
X215156Y131813D01*
X215162D01*
X215174Y131807D01*
X215191Y131801D01*
X215215Y131790D01*
X215285Y131766D01*
X215367Y131725D01*
X215455Y131672D01*
X215555Y131608D01*
X215643Y131531D01*
X215725Y131438D01*
X215731Y131426D01*
X215755Y131391D01*
X215790Y131338D01*
X215825Y131267D01*
X215860Y131173D01*
X215895Y131074D01*
X215919Y130956D01*
X215925Y130827D01*
Y130822D01*
Y130816D01*
Y130780D01*
X215919Y130722D01*
X215907Y130651D01*
X215895Y130569D01*
X215872Y130481D01*
X215842Y130387D01*
X215801Y130293D01*
X215796Y130282D01*
X215778Y130252D01*
X215755Y130211D01*
X215719Y130153D01*
X215672Y130094D01*
X215625Y130029D01*
X215567Y129965D01*
X215502Y129912D01*
X215496Y129906D01*
X215473Y129889D01*
X215432Y129865D01*
X215379Y129842D01*
X215315Y129806D01*
X215238Y129771D01*
X215156Y129742D01*
X215056Y129712D01*
X215045D01*
X215009Y129701D01*
X214951Y129695D01*
X214874Y129683D01*
X214781Y129671D01*
X214669Y129660D01*
X214546Y129654D01*
X214405Y129648D01*
X212856D01*
Y133708D01*
X214452D01*
X214493Y133702D01*
D02*
G37*
%LPC*%
G36*
X333397Y472207D02*
X333350D01*
X333292Y472201D01*
X333227Y472190D01*
X333145Y472178D01*
X333063Y472155D01*
X332975Y472125D01*
X332887Y472084D01*
X332875Y472078D01*
X332852Y472061D01*
X332811Y472031D01*
X332764Y471990D01*
X332711Y471943D01*
X332652Y471885D01*
X332605Y471814D01*
X332558Y471738D01*
X332552Y471732D01*
X332547Y471709D01*
X332535Y471668D01*
X332517Y471615D01*
X332500Y471544D01*
X332488Y471462D01*
X332482Y471362D01*
X332476Y471245D01*
X332470Y471057D01*
X332476D01*
X332482Y471063D01*
X332500Y471069D01*
X332523Y471075D01*
X332552Y471087D01*
X332588Y471098D01*
X332629Y471110D01*
X332676Y471122D01*
X332729Y471139D01*
X332793Y471151D01*
X332858Y471169D01*
X332934Y471186D01*
X333016Y471204D01*
X333098Y471222D01*
X333192Y471233D01*
X333292Y471251D01*
X333303D01*
X333339Y471257D01*
X333397Y471269D01*
X333462Y471280D01*
X333532Y471292D01*
X333603Y471310D01*
X333667Y471327D01*
X333726Y471351D01*
X333732D01*
X333749Y471362D01*
X333773Y471374D01*
X333796Y471392D01*
X333867Y471439D01*
X333925Y471509D01*
Y471515D01*
X333937Y471527D01*
X333943Y471550D01*
X333955Y471580D01*
X333966Y471615D01*
X333978Y471650D01*
X333984Y471697D01*
X333990Y471744D01*
Y471750D01*
Y471779D01*
X333984Y471814D01*
X333972Y471861D01*
X333955Y471914D01*
X333925Y471967D01*
X333890Y472025D01*
X333843Y472078D01*
X333837Y472084D01*
X333814Y472096D01*
X333779Y472119D01*
X333732Y472143D01*
X333667Y472166D01*
X333591Y472190D01*
X333503Y472201D01*
X333397Y472207D01*
D02*
G37*
G36*
X314146D02*
X314100D01*
X314041Y472201D01*
X313976Y472190D01*
X313894Y472178D01*
X313812Y472155D01*
X313724Y472125D01*
X313636Y472084D01*
X313624Y472078D01*
X313601Y472061D01*
X313560Y472031D01*
X313513Y471990D01*
X313460Y471943D01*
X313401Y471885D01*
X313354Y471814D01*
X313307Y471738D01*
X313302Y471732D01*
X313296Y471709D01*
X313284Y471668D01*
X313266Y471615D01*
X313249Y471544D01*
X313237Y471462D01*
X313231Y471362D01*
X313225Y471245D01*
X313219Y471057D01*
X313225D01*
X313231Y471063D01*
X313249Y471069D01*
X313272Y471075D01*
X313302Y471087D01*
X313337Y471098D01*
X313378Y471110D01*
X313425Y471122D01*
X313478Y471139D01*
X313542Y471151D01*
X313607Y471169D01*
X313683Y471186D01*
X313765Y471204D01*
X313847Y471222D01*
X313941Y471233D01*
X314041Y471251D01*
X314053D01*
X314088Y471257D01*
X314146Y471269D01*
X314211Y471280D01*
X314281Y471292D01*
X314352Y471310D01*
X314416Y471327D01*
X314475Y471351D01*
X314481D01*
X314499Y471362D01*
X314522Y471374D01*
X314545Y471392D01*
X314616Y471439D01*
X314674Y471509D01*
Y471515D01*
X314686Y471527D01*
X314692Y471550D01*
X314704Y471580D01*
X314716Y471615D01*
X314727Y471650D01*
X314733Y471697D01*
X314739Y471744D01*
Y471750D01*
Y471779D01*
X314733Y471814D01*
X314721Y471861D01*
X314704Y471914D01*
X314674Y471967D01*
X314639Y472025D01*
X314592Y472078D01*
X314587Y472084D01*
X314563Y472096D01*
X314528Y472119D01*
X314481Y472143D01*
X314416Y472166D01*
X314340Y472190D01*
X314252Y472201D01*
X314146Y472207D01*
D02*
G37*
G36*
X310826Y472190D02*
X310796D01*
X310773Y472184D01*
X310708Y472178D01*
X310632Y472155D01*
X310544Y472125D01*
X310450Y472078D01*
X310356Y472014D01*
X310309Y471973D01*
X310268Y471926D01*
Y471920D01*
X310256Y471914D01*
X310245Y471896D01*
X310233Y471873D01*
X310215Y471843D01*
X310192Y471814D01*
X310174Y471767D01*
X310151Y471720D01*
X310127Y471668D01*
X310110Y471609D01*
X310086Y471538D01*
X310069Y471468D01*
X310057Y471386D01*
X310045Y471304D01*
X310033Y471210D01*
Y471110D01*
Y471104D01*
Y471081D01*
Y471051D01*
X310039Y471010D01*
Y470963D01*
X310045Y470905D01*
X310051Y470840D01*
X310063Y470770D01*
X310092Y470629D01*
X310133Y470482D01*
X310192Y470341D01*
X310227Y470283D01*
X310268Y470224D01*
Y470218D01*
X310280Y470212D01*
X310309Y470177D01*
X310362Y470130D01*
X310427Y470077D01*
X310509Y470025D01*
X310608Y469983D01*
X310720Y469948D01*
X310779Y469943D01*
X310843Y469937D01*
X310872D01*
X310896Y469943D01*
X310960Y469948D01*
X311037Y469972D01*
X311125Y470001D01*
X311219Y470054D01*
X311313Y470118D01*
X311359Y470165D01*
X311401Y470212D01*
Y470218D01*
X311412Y470224D01*
X311418Y470242D01*
X311436Y470265D01*
X311453Y470294D01*
X311471Y470330D01*
X311488Y470371D01*
X311512Y470418D01*
X311535Y470476D01*
X311553Y470541D01*
X311571Y470611D01*
X311588Y470688D01*
X311600Y470770D01*
X311612Y470864D01*
X311623Y470963D01*
Y471069D01*
Y471075D01*
Y471092D01*
Y471122D01*
X311618Y471163D01*
Y471210D01*
X311612Y471263D01*
X311594Y471386D01*
X311565Y471521D01*
X311524Y471662D01*
X311465Y471797D01*
X311430Y471855D01*
X311389Y471914D01*
X311383D01*
X311377Y471926D01*
X311348Y471955D01*
X311295Y472002D01*
X311230Y472049D01*
X311148Y472102D01*
X311049Y472149D01*
X310943Y472178D01*
X310884Y472184D01*
X310826Y472190D01*
D02*
G37*
G36*
X327671Y470782D02*
X326022D01*
Y470776D01*
Y470764D01*
X326028Y470746D01*
Y470723D01*
X326040Y470652D01*
X326057Y470576D01*
X326087Y470482D01*
X326116Y470394D01*
X326163Y470306D01*
X326216Y470230D01*
Y470224D01*
X326227Y470218D01*
X326257Y470183D01*
X326310Y470136D01*
X326380Y470083D01*
X326468Y470031D01*
X326574Y469983D01*
X326697Y469948D01*
X326761Y469943D01*
X326832Y469937D01*
X326867D01*
X326890Y469943D01*
X326955Y469948D01*
X327031Y469966D01*
X327125Y469995D01*
X327225Y470036D01*
X327319Y470095D01*
X327413Y470171D01*
X327424Y470183D01*
X327448Y470212D01*
X327489Y470265D01*
X327530Y470336D01*
X327577Y470418D01*
X327618Y470523D01*
X327653Y470647D01*
X327671Y470782D01*
D02*
G37*
G36*
X317890D02*
X316241D01*
Y470776D01*
Y470764D01*
X316247Y470746D01*
Y470723D01*
X316259Y470652D01*
X316276Y470576D01*
X316306Y470482D01*
X316335Y470394D01*
X316382Y470306D01*
X316435Y470230D01*
Y470224D01*
X316446Y470218D01*
X316476Y470183D01*
X316529Y470136D01*
X316599Y470083D01*
X316687Y470031D01*
X316793Y469983D01*
X316916Y469948D01*
X316980Y469943D01*
X317051Y469937D01*
X317086D01*
X317110Y469943D01*
X317174Y469948D01*
X317250Y469966D01*
X317344Y469995D01*
X317444Y470036D01*
X317538Y470095D01*
X317632Y470171D01*
X317643Y470183D01*
X317667Y470212D01*
X317708Y470265D01*
X317749Y470336D01*
X317796Y470418D01*
X317837Y470523D01*
X317872Y470647D01*
X317890Y470782D01*
D02*
G37*
G36*
X455382Y351973D02*
X455376D01*
X455352D01*
X455311D01*
X455258Y351968D01*
X455200Y351962D01*
X455129Y351950D01*
X455047Y351938D01*
X454965Y351926D01*
X454777Y351880D01*
X454683Y351844D01*
X454584Y351809D01*
X454490Y351762D01*
X454396Y351709D01*
X454308Y351651D01*
X454226Y351580D01*
X454220Y351574D01*
X454208Y351563D01*
X454184Y351539D01*
X454161Y351510D01*
X454126Y351469D01*
X454091Y351422D01*
X454055Y351369D01*
X454014Y351310D01*
X453973Y351240D01*
X453938Y351164D01*
X453903Y351082D01*
X453868Y350994D01*
X453844Y350900D01*
X453821Y350806D01*
X453809Y350700D01*
X453803Y350589D01*
Y350559D01*
X453809Y350530D01*
Y350489D01*
X453815Y350436D01*
X453827Y350378D01*
X453838Y350307D01*
X453856Y350237D01*
X453879Y350154D01*
X453909Y350078D01*
X453938Y349990D01*
X453979Y349908D01*
X454032Y349826D01*
X454085Y349744D01*
X454149Y349662D01*
X454226Y349585D01*
X454231Y349580D01*
X454243Y349568D01*
X454272Y349550D01*
X454308Y349521D01*
X454349Y349492D01*
X454402Y349462D01*
X454466Y349427D01*
X454537Y349386D01*
X454619Y349351D01*
X454713Y349315D01*
X454812Y349286D01*
X454918Y349251D01*
X455035Y349227D01*
X455164Y349210D01*
X455299Y349198D01*
X455440Y349192D01*
X455446D01*
X455464D01*
X455487D01*
X455522D01*
X455563Y349198D01*
X455616D01*
X455669Y349204D01*
X455733Y349216D01*
X455868Y349233D01*
X456009Y349263D01*
X456162Y349304D01*
X456303Y349362D01*
X456309D01*
X456320Y349368D01*
X456338Y349380D01*
X456361Y349392D01*
X456432Y349433D01*
X456514Y349486D01*
X456608Y349556D01*
X456702Y349644D01*
X456796Y349744D01*
X456878Y349855D01*
Y349861D01*
X456889Y349867D01*
X456895Y349885D01*
X456913Y349914D01*
X456925Y349943D01*
X456942Y349978D01*
X456983Y350066D01*
X457019Y350172D01*
X457054Y350295D01*
X457077Y350436D01*
X457083Y350583D01*
Y350636D01*
X457077Y350677D01*
X457071Y350729D01*
X457060Y350782D01*
X457048Y350847D01*
X457036Y350917D01*
X456989Y351070D01*
X456954Y351152D01*
X456919Y351234D01*
X456872Y351322D01*
X456819Y351404D01*
X456760Y351486D01*
X456690Y351563D01*
X456684Y351569D01*
X456672Y351580D01*
X456649Y351598D01*
X456614Y351627D01*
X456573Y351657D01*
X456520Y351692D01*
X456455Y351727D01*
X456379Y351768D01*
X456297Y351803D01*
X456197Y351844D01*
X456091Y351880D01*
X455974Y351909D01*
X455845Y351938D01*
X455698Y351956D01*
X455546Y351968D01*
X455382Y351973D01*
D02*
G37*
G36*
X217914Y553343D02*
X216952D01*
Y552123D01*
X217949D01*
X218025Y552129D01*
X218108Y552134D01*
X218190Y552140D01*
X218272Y552152D01*
X218337Y552164D01*
X218348Y552170D01*
X218372Y552175D01*
X218407Y552193D01*
X218454Y552217D01*
X218501Y552240D01*
X218554Y552275D01*
X218606Y552322D01*
X218647Y552369D01*
X218653Y552375D01*
X218665Y552393D01*
X218683Y552428D01*
X218700Y552469D01*
X218718Y552516D01*
X218736Y552575D01*
X218747Y552645D01*
X218753Y552721D01*
Y552733D01*
Y552756D01*
X218747Y552792D01*
X218741Y552839D01*
X218730Y552897D01*
X218712Y552956D01*
X218689Y553014D01*
X218653Y553073D01*
X218647Y553079D01*
X218636Y553097D01*
X218612Y553126D01*
X218583Y553155D01*
X218542Y553191D01*
X218495Y553226D01*
X218436Y553261D01*
X218372Y553284D01*
X218366D01*
X218337Y553296D01*
X218295Y553302D01*
X218231Y553314D01*
X218143Y553326D01*
X218043Y553331D01*
X217914Y553343D01*
D02*
G37*
G36*
X218020Y551642D02*
X216952D01*
Y550245D01*
X218108D01*
X218231Y550251D01*
X218284Y550257D01*
X218331Y550263D01*
X218337D01*
X218360Y550269D01*
X218395Y550275D01*
X218436Y550286D01*
X218536Y550321D01*
X218636Y550368D01*
X218642Y550374D01*
X218659Y550386D01*
X218683Y550404D01*
X218712Y550427D01*
X218741Y550462D01*
X218782Y550497D01*
X218812Y550544D01*
X218847Y550597D01*
X218853Y550603D01*
X218859Y550621D01*
X218871Y550656D01*
X218888Y550697D01*
X218906Y550744D01*
X218917Y550802D01*
X218923Y550873D01*
X218929Y550943D01*
Y550955D01*
Y550979D01*
X218923Y551026D01*
X218911Y551078D01*
X218900Y551137D01*
X218876Y551202D01*
X218847Y551266D01*
X218806Y551331D01*
X218800Y551337D01*
X218782Y551360D01*
X218759Y551389D01*
X218724Y551424D01*
X218677Y551465D01*
X218618Y551507D01*
X218554Y551542D01*
X218477Y551571D01*
X218466Y551577D01*
X218442Y551583D01*
X218389Y551595D01*
X218325Y551606D01*
X218243Y551618D01*
X218143Y551630D01*
X218020Y551642D01*
D02*
G37*
G36*
X214358Y133227D02*
X213396D01*
Y132007D01*
X214393D01*
X214470Y132013D01*
X214552Y132018D01*
X214634Y132024D01*
X214716Y132036D01*
X214781Y132048D01*
X214792Y132054D01*
X214816Y132059D01*
X214851Y132077D01*
X214898Y132101D01*
X214945Y132124D01*
X214998Y132159D01*
X215050Y132206D01*
X215091Y132253D01*
X215097Y132259D01*
X215109Y132277D01*
X215127Y132312D01*
X215144Y132353D01*
X215162Y132400D01*
X215180Y132458D01*
X215191Y132529D01*
X215197Y132605D01*
Y132617D01*
Y132640D01*
X215191Y132676D01*
X215185Y132723D01*
X215174Y132781D01*
X215156Y132840D01*
X215133Y132899D01*
X215097Y132957D01*
X215091Y132963D01*
X215080Y132981D01*
X215056Y133010D01*
X215027Y133039D01*
X214986Y133075D01*
X214939Y133110D01*
X214880Y133145D01*
X214816Y133168D01*
X214810D01*
X214781Y133180D01*
X214739Y133186D01*
X214675Y133198D01*
X214587Y133209D01*
X214487Y133215D01*
X214358Y133227D01*
D02*
G37*
G36*
X214464Y131526D02*
X213396D01*
Y130129D01*
X214552D01*
X214675Y130135D01*
X214728Y130141D01*
X214775Y130147D01*
X214781D01*
X214804Y130153D01*
X214839Y130159D01*
X214880Y130170D01*
X214980Y130205D01*
X215080Y130252D01*
X215086Y130258D01*
X215103Y130270D01*
X215127Y130288D01*
X215156Y130311D01*
X215185Y130346D01*
X215226Y130381D01*
X215256Y130428D01*
X215291Y130481D01*
X215297Y130487D01*
X215303Y130505D01*
X215315Y130540D01*
X215332Y130581D01*
X215350Y130628D01*
X215361Y130687D01*
X215367Y130757D01*
X215373Y130827D01*
Y130839D01*
Y130863D01*
X215367Y130910D01*
X215355Y130962D01*
X215344Y131021D01*
X215320Y131086D01*
X215291Y131150D01*
X215250Y131215D01*
X215244Y131221D01*
X215226Y131244D01*
X215203Y131273D01*
X215168Y131308D01*
X215121Y131349D01*
X215062Y131391D01*
X214998Y131426D01*
X214921Y131455D01*
X214910Y131461D01*
X214886Y131467D01*
X214833Y131479D01*
X214769Y131490D01*
X214687Y131502D01*
X214587Y131514D01*
X214464Y131526D01*
D02*
G37*
%LPD*%
D10*
X302400Y452538D02*
G03*
X302400Y452538I-1118J0D01*
G01*
D17*
X300752Y400050D02*
G03*
X300752Y400050I-2048J0D01*
G01*
D19*
X346967Y376428D02*
G03*
X346967Y376428I-10521J0D01*
G01*
X493446Y351028D02*
G03*
X493446Y351028I-100000J0D01*
G01*
X276282Y457038D02*
X376282D01*
X276282D02*
Y532038D01*
X376282Y457038D02*
Y532038D01*
X276282D02*
X376282D01*
X131900Y447350D02*
X153300D01*
X131900D02*
Y541850D01*
X208100D01*
Y447350D02*
Y541850D01*
X186700Y447350D02*
X208100D01*
X186700Y108650D02*
X208100D01*
Y14150D02*
Y108650D01*
X131900Y14150D02*
X208100D01*
X131900D02*
Y108650D01*
X153300D01*
M02*
