G04*
G04 #@! TF.GenerationSoftware,Altium Limited,Altium Designer,21.6.1 (37)*
G04*
G04 Layer_Color=0*
%FSLAX44Y44*%
%MOMM*%
G71*
G04*
G04 #@! TF.SameCoordinates,4F178BE9-AC55-4CEC-B3A2-6D2310684F74*
G04*
G04*
G04 #@! TF.FilePolarity,Positive*
G04*
G01*
G75*
%ADD12C,0.1524*%
%ADD15C,0.1000*%
%ADD119C,0.0254*%
D12*
X432540Y312000D02*
G03*
X432540Y312000I-1270J0D01*
G01*
X371074Y160554D02*
G03*
X366926Y160554I-2074J0D01*
G01*
X350458Y157760D02*
G03*
X350458Y157760I-762J0D01*
G01*
X431727Y318760D02*
Y349240D01*
X445951D01*
Y365750D01*
X468049D01*
Y349240D02*
Y365750D01*
Y349240D02*
X482273D01*
Y318760D02*
Y349240D01*
X477080Y318760D02*
X482273D01*
X477080Y301488D02*
Y318760D01*
X436920Y301488D02*
X477080D01*
X436920D02*
Y318760D01*
X431727D02*
X436920D01*
X434267Y346700D02*
X479733D01*
Y321300D02*
Y346700D01*
X434267Y321300D02*
X479733D01*
X434267D02*
Y346700D01*
X356554Y160554D02*
X381446D01*
X356554D02*
Y185446D01*
X381446D01*
Y160554D02*
Y185446D01*
X354014Y187986D02*
X383986D01*
X354014Y186508D02*
Y187986D01*
Y158014D02*
Y159492D01*
Y158014D02*
X383986D01*
Y159492D01*
Y186508D02*
Y187986D01*
Y186508D02*
X384330D01*
X353670D02*
X354014D01*
X353670Y159492D02*
Y186508D01*
Y159492D02*
X354014D01*
X383986D02*
X384330D01*
Y186508D01*
X414000Y264000D02*
Y280000D01*
X422000D01*
Y264000D02*
Y280000D01*
X414000Y264000D02*
X422000D01*
X424540Y257904D02*
Y286096D01*
X411460D02*
X424540D01*
X411460Y257904D02*
Y286096D01*
Y257904D02*
X424540D01*
X449000Y261000D02*
X465000D01*
Y253000D02*
Y261000D01*
X449000Y253000D02*
X465000D01*
X449000D02*
Y261000D01*
X442904Y250460D02*
X471096D01*
Y263540D01*
X442904D02*
X471096D01*
X442904Y250460D02*
Y263540D01*
X477145Y269436D02*
Y291072D01*
X469271Y269436D02*
X477145D01*
X469271Y266665D02*
Y269436D01*
X450729Y266665D02*
X469271D01*
X450729D02*
Y269436D01*
X442855D02*
X450729D01*
X442855D02*
Y291072D01*
X450729D01*
Y293843D01*
X469271D01*
Y291072D02*
Y293843D01*
Y291072D02*
X477145D01*
X493000Y312000D02*
Y328000D01*
X485000Y312000D02*
X493000D01*
X485000D02*
Y328000D01*
X493000D01*
X482460Y305904D02*
Y334096D01*
Y305904D02*
X495540D01*
Y334096D01*
X482460D02*
X495540D01*
X132699Y181237D02*
Y198763D01*
X123301Y181237D02*
X132699D01*
X123301D02*
Y198763D01*
X132699D01*
X120761Y175141D02*
Y204859D01*
Y175141D02*
X135239D01*
Y204859D01*
X120761D02*
X135239D01*
X119699Y181237D02*
Y198763D01*
X110301Y181237D02*
X119699D01*
X110301D02*
Y198763D01*
X119699D01*
X107761Y175141D02*
Y204859D01*
Y175141D02*
X122239D01*
Y204859D01*
X107761D02*
X122239D01*
X121904Y203460D02*
Y216540D01*
X150096D01*
Y203460D02*
Y216540D01*
X121904Y203460D02*
X150096D01*
X128000Y206000D02*
Y214000D01*
Y206000D02*
X144000D01*
Y214000D01*
X128000D02*
X144000D01*
X221096Y185460D02*
Y198540D01*
X192904Y185460D02*
X221096D01*
X192904D02*
Y198540D01*
X221096D01*
X215000Y188000D02*
Y196000D01*
X199000D02*
X215000D01*
X199000Y188000D02*
Y196000D01*
Y188000D02*
X215000D01*
X148000Y181000D02*
Y197000D01*
X140000Y181000D02*
X148000D01*
X140000D02*
Y197000D01*
X148000D01*
X137460Y174904D02*
Y203096D01*
Y174904D02*
X150540D01*
Y203096D01*
X137460D02*
X150540D01*
X105000Y182000D02*
Y198000D01*
X97000Y182000D02*
X105000D01*
X97000D02*
Y198000D01*
X105000D01*
X94460Y175904D02*
Y204096D01*
Y175904D02*
X107540D01*
Y204096D01*
X94460D02*
X107540D01*
X322662Y249712D02*
X397338D01*
X322662D02*
Y287277D01*
X397338D01*
Y249712D02*
Y287277D01*
D15*
X212000Y512000D02*
Y522000D01*
X207000Y517000D02*
X217000D01*
X129000Y512000D02*
Y522000D01*
X124000Y517000D02*
X134000D01*
D119*
X461121Y269205D02*
G03*
X458878Y269205I-1122J0D01*
G01*
X466731D02*
Y291303D01*
X453269D02*
X466731D01*
X453269Y269205D02*
Y291303D01*
Y269205D02*
X466731D01*
M02*
