G04*
G04 #@! TF.GenerationSoftware,Altium Limited,Altium Designer,21.6.1 (37)*
G04*
G04 Layer_Color=16711935*
%FSLAX44Y44*%
%MOMM*%
G71*
G04*
G04 #@! TF.SameCoordinates,4F178BE9-AC55-4CEC-B3A2-6D2310684F74*
G04*
G04*
G04 #@! TF.FilePolarity,Positive*
G04*
G01*
G75*
%ADD12C,0.1524*%
D12*
X193301Y24237D02*
Y41763D01*
X202699D01*
Y24237D02*
Y41763D01*
X193301Y24237D02*
X202699D01*
X205239Y18141D02*
Y47859D01*
X190761D02*
X205239D01*
X190761Y18141D02*
Y47859D01*
Y18141D02*
X205239D01*
X106237Y228301D02*
X123763D01*
X106237D02*
Y237699D01*
X123763D01*
Y228301D02*
Y237699D01*
X100141Y240239D02*
X129859D01*
X100141Y225761D02*
Y240239D01*
Y225761D02*
X129859D01*
Y240239D01*
X105237Y339699D02*
X122763D01*
Y330301D02*
Y339699D01*
X105237Y330301D02*
X122763D01*
X105237D02*
Y339699D01*
X99141Y327761D02*
X128859D01*
Y342239D01*
X99141D02*
X128859D01*
X99141Y327761D02*
Y342239D01*
X105237Y290301D02*
X122763D01*
X105237D02*
Y299699D01*
X122763D01*
Y290301D02*
Y299699D01*
X99141Y302239D02*
X128859D01*
X99141Y287761D02*
Y302239D01*
Y287761D02*
X128859D01*
Y302239D01*
X192904Y171460D02*
Y184540D01*
X221096D01*
Y171460D02*
Y184540D01*
X192904Y171460D02*
X221096D01*
X199000Y174000D02*
Y182000D01*
Y174000D02*
X215000D01*
Y182000D01*
X199000D02*
X215000D01*
M02*
