G04*
G04 #@! TF.GenerationSoftware,Altium Limited,Altium Designer,21.6.1 (37)*
G04*
G04 Layer_Color=32768*
%FSLAX44Y44*%
%MOMM*%
G71*
G04*
G04 #@! TF.SameCoordinates,4F178BE9-AC55-4CEC-B3A2-6D2310684F74*
G04*
G04*
G04 #@! TF.FilePolarity,Positive*
G04*
G01*
G75*
%ADD14C,0.2000*%
%ADD15C,0.1000*%
%ADD18C,0.1270*%
%ADD122C,0.0500*%
%ADD123C,0.1016*%
D14*
X195000Y490000D02*
Y544000D01*
X229000D01*
Y490000D02*
Y544000D01*
X195000Y490000D02*
X229000D01*
X112000D02*
Y544000D01*
X146000D01*
Y490000D02*
Y544000D01*
X112000Y490000D02*
X146000D01*
D15*
X250000Y39000D02*
Y49000D01*
X245000Y44000D02*
X255000D01*
X288000Y255500D02*
Y264500D01*
X283500Y260000D02*
X292500D01*
X283500Y275000D02*
X292500D01*
X288000Y270500D02*
Y279500D01*
X464500Y456000D02*
X473500D01*
X469000Y451500D02*
Y460500D01*
X102500Y157000D02*
X111500D01*
X107000Y152500D02*
Y161500D01*
X282500Y308000D02*
X291500D01*
X287000Y303500D02*
Y312500D01*
X282500Y325000D02*
X291500D01*
X287000Y320500D02*
Y329500D01*
X278500Y527840D02*
X379100D01*
X278500D02*
Y548200D01*
X379100D01*
Y527840D02*
Y548200D01*
X338460Y538000D02*
X343540D01*
X341000Y535460D02*
Y540540D01*
X359500Y305000D02*
X368500D01*
X364000Y300500D02*
Y309500D01*
X331000Y167500D02*
Y176500D01*
X326500Y172000D02*
X335500D01*
X404000Y167500D02*
Y176500D01*
X399500Y172000D02*
X408500D01*
X115000Y310250D02*
Y319750D01*
X110250Y315000D02*
X119750D01*
X263000Y74000D02*
Y114000D01*
X237000D02*
X263000D01*
X237000Y74000D02*
Y114000D01*
Y74000D02*
X263000D01*
X95500Y69000D02*
X104500D01*
X100000Y64500D02*
Y73500D01*
X221000Y442500D02*
Y451500D01*
X216500Y447000D02*
X225500D01*
X287480Y448500D02*
Y457500D01*
X282980Y453000D02*
X291980D01*
X228000Y428650D02*
Y469050D01*
Y428650D02*
X271700D01*
Y469050D01*
X228000D02*
X271700D01*
X138500Y143500D02*
X151500D01*
X138500Y122750D02*
Y143500D01*
Y122750D02*
X151500D01*
Y143500D01*
X152500Y493000D02*
X161500D01*
X157000Y488500D02*
Y497500D01*
X242000Y488250D02*
Y497750D01*
X237250Y493000D02*
X246750D01*
X91500Y87500D02*
Y100500D01*
Y87500D02*
X112250D01*
Y100500D01*
X91500D02*
X112250D01*
X115000Y245500D02*
Y254500D01*
X110500Y250000D02*
X119500D01*
X115000Y261250D02*
Y270750D01*
X110250Y266000D02*
X119750D01*
D18*
X491000Y385000D02*
G03*
X491000Y385000I-100000J0D01*
G01*
X393000Y193500D02*
X493000D01*
X393000D02*
Y268500D01*
X493000Y193500D02*
Y268500D01*
X393000D02*
X493000D01*
D122*
X208800Y900D02*
Y68700D01*
X291200D01*
Y900D02*
Y68700D01*
X208800Y900D02*
X291200D01*
X271000Y270500D02*
X305000D01*
X271000Y249500D02*
X305000D01*
X271000D02*
Y270500D01*
X305000Y249500D02*
Y270500D01*
Y264500D02*
Y285500D01*
X271000Y264500D02*
Y285500D01*
Y264500D02*
X305000D01*
X271000Y285500D02*
X305000D01*
X452000Y445500D02*
Y466500D01*
X486000Y445500D02*
Y466500D01*
X452000D02*
X486000D01*
X452000Y445500D02*
X486000D01*
X454250Y448000D02*
X495750D01*
Y414000D02*
Y448000D01*
X454250Y414000D02*
X495750D01*
X454250D02*
Y448000D01*
X90000Y146500D02*
Y167500D01*
X124000Y146500D02*
Y167500D01*
X90000D02*
X124000D01*
X90000Y146500D02*
X124000D01*
X304000Y297500D02*
Y318500D01*
X270000Y297500D02*
Y318500D01*
Y297500D02*
X304000D01*
X270000Y318500D02*
X304000D01*
Y314500D02*
Y335500D01*
X270000Y314500D02*
Y335500D01*
Y314500D02*
X304000D01*
X270000Y335500D02*
X304000D01*
X129400Y544350D02*
X210600D01*
X129400Y431650D02*
Y544350D01*
Y431650D02*
X210600D01*
Y544350D01*
X129400Y11650D02*
X210600D01*
Y124350D01*
X129400D02*
X210600D01*
X129400Y11650D02*
Y124350D01*
X347000Y294500D02*
Y315500D01*
X381000Y294500D02*
Y315500D01*
X347000D02*
X381000D01*
X347000Y294500D02*
X381000D01*
X320500Y155000D02*
X341500D01*
X320500Y189000D02*
X341500D01*
X320500Y155000D02*
Y189000D01*
X341500Y155000D02*
Y189000D01*
X393500Y155000D02*
X414500D01*
X393500Y189000D02*
X414500D01*
X393500Y155000D02*
Y189000D01*
X414500Y155000D02*
Y189000D01*
X104500Y321000D02*
X125500D01*
X104500Y309000D02*
X125500D01*
X104500D02*
Y321000D01*
X125500Y309000D02*
Y321000D01*
X232250Y147000D02*
X267750D01*
X232250Y105000D02*
Y147000D01*
Y105000D02*
X267750D01*
Y147000D01*
X91250Y108000D02*
X126750D01*
Y150000D01*
X91250D02*
X126750D01*
X91250Y108000D02*
Y150000D01*
X89500Y52000D02*
Y86000D01*
X110500Y52000D02*
Y86000D01*
X89500Y52000D02*
X110500D01*
X89500Y86000D02*
X110500D01*
X204000Y436500D02*
X238000D01*
X204000Y457500D02*
X238000D01*
Y436500D02*
Y457500D01*
X204000Y436500D02*
Y457500D01*
X270480Y463500D02*
X304480D01*
X270480Y442500D02*
X304480D01*
X270480D02*
Y463500D01*
X304480Y442500D02*
Y463500D01*
X89000Y300500D02*
Y331500D01*
X1000D02*
X89000D01*
X1000Y300500D02*
Y331500D01*
Y300500D02*
X89000D01*
X167500Y476000D02*
Y510000D01*
X146500Y476000D02*
Y510000D01*
X167500D01*
X146500Y476000D02*
X167500D01*
X236000Y503500D02*
X248000D01*
X236000Y482500D02*
X248000D01*
Y503500D01*
X236000Y482500D02*
Y503500D01*
X98000Y260500D02*
X132000D01*
X98000Y239500D02*
X132000D01*
X98000D02*
Y260500D01*
X132000Y239500D02*
Y260500D01*
X126000Y260000D02*
Y272000D01*
X104000Y260000D02*
X126000D01*
X104000D02*
Y272000D01*
X126000D01*
D123*
X152380Y166760D02*
X167620D01*
Y197240D01*
X152380Y166760D02*
Y197240D01*
X167620D01*
M02*
