G04*
G04 #@! TF.GenerationSoftware,Altium Limited,Altium Designer,21.6.1 (37)*
G04*
G04 Layer_Color=16711935*
%FSLAX44Y44*%
%MOMM*%
G71*
G04*
G04 #@! TF.SameCoordinates,B851BBA7-0067-4132-B97B-CCB3C962BE8E*
G04*
G04*
G04 #@! TF.FilePolarity,Positive*
G04*
G01*
G75*
%ADD11C,0.1000*%
%ADD12C,0.5080*%
%ADD16C,0.1524*%
%ADD116C,0.0127*%
%ADD117C,0.0254*%
D11*
X224900Y115250D02*
Y234250D01*
D12*
X38502Y303226D02*
G03*
X38502Y303226I-3810J0D01*
G01*
D16*
X222300Y217250D02*
X215952D01*
Y220424D01*
X217010Y221482D01*
X219126D01*
X220184Y220424D01*
Y217250D01*
X217010Y227830D02*
X215952Y226772D01*
Y224656D01*
X217010Y223598D01*
X221242D01*
X222300Y224656D01*
Y226772D01*
X221242Y227830D01*
X215952Y229946D02*
X222300D01*
Y233120D01*
X221242Y234178D01*
X220184D01*
X219126Y233120D01*
Y229946D01*
Y233120D01*
X218068Y234178D01*
X217010D01*
X215952Y233120D01*
Y229946D01*
Y246874D02*
Y242642D01*
X222300D01*
Y246874D01*
X219126Y242642D02*
Y244758D01*
X215952Y253222D02*
X222300D01*
Y250048D01*
X221242Y248990D01*
X219126D01*
X218068Y250048D01*
Y253222D01*
X224416Y257454D02*
Y258512D01*
X223358Y259570D01*
X218068D01*
Y256396D01*
X219126Y255338D01*
X221242D01*
X222300Y256396D01*
Y259570D01*
Y264860D02*
Y262744D01*
X221242Y261686D01*
X219126D01*
X218068Y262744D01*
Y264860D01*
X219126Y265918D01*
X220184D01*
Y261686D01*
X-938458Y-1016667D02*
Y-1010319D01*
X-935284D01*
X-934226Y-1011377D01*
Y-1013493D01*
X-935284Y-1014551D01*
X-938458D01*
X-932110Y-1010319D02*
Y-1016667D01*
Y-1013493D01*
X-927878D01*
Y-1010319D01*
Y-1016667D01*
X-924704D02*
Y-1010319D01*
X-922588D02*
Y-1016667D01*
X-925762Y-1012435D02*
X-922588D01*
X-921530D01*
X-925762Y-1014551D02*
X-921530D01*
X-919414Y-1012435D02*
X-918356D01*
Y-1013493D01*
X-919414D01*
Y-1012435D01*
Y-1015609D02*
X-918356D01*
Y-1016667D01*
X-919414D01*
Y-1015609D01*
X-907776Y-1016667D02*
X-905660D01*
X-906719D01*
Y-1010319D01*
X-907776Y-1011377D01*
X-902486Y-1013493D02*
X-898254D01*
X-896139Y-1011377D02*
X-895081Y-1010319D01*
X-892965D01*
X-891907Y-1011377D01*
Y-1012435D01*
X-892965Y-1013493D01*
X-891907Y-1014551D01*
Y-1015609D01*
X-892965Y-1016667D01*
X-895081D01*
X-896139Y-1015609D01*
Y-1014551D01*
X-895081Y-1013493D01*
X-896139Y-1012435D01*
Y-1011377D01*
X-895081Y-1013493D02*
X-892965D01*
X-889791Y-1011377D02*
X-888733Y-1010319D01*
X-886617D01*
X-885559Y-1011377D01*
Y-1015609D01*
X-886617Y-1016667D01*
X-888733D01*
X-889791Y-1015609D01*
Y-1011377D01*
X-883443D02*
X-882385Y-1010319D01*
X-880269D01*
X-879211Y-1011377D01*
Y-1015609D01*
X-880269Y-1016667D01*
X-882385D01*
X-883443Y-1015609D01*
Y-1011377D01*
X-877095Y-1013493D02*
X-872863D01*
X-866515Y-1016667D02*
X-870747D01*
X-866515Y-1012435D01*
Y-1011377D01*
X-867573Y-1010319D01*
X-869689D01*
X-870747Y-1011377D01*
X-861225Y-1016667D02*
Y-1010319D01*
X-864399Y-1013493D01*
X-860167D01*
X-858051Y-1011377D02*
X-856993Y-1010319D01*
X-854877D01*
X-853819Y-1011377D01*
Y-1012435D01*
X-854877Y-1013493D01*
X-853819Y-1014551D01*
Y-1015609D01*
X-854877Y-1016667D01*
X-856993D01*
X-858051Y-1015609D01*
Y-1014551D01*
X-856993Y-1013493D01*
X-858051Y-1012435D01*
Y-1011377D01*
X-856993Y-1013493D02*
X-854877D01*
X-851703D02*
X-847471D01*
X-845355Y-1016667D02*
X-843239D01*
X-844297D01*
Y-1010319D01*
X-845355Y-1011377D01*
X-835833Y-1016667D02*
X-840065D01*
X-835833Y-1012435D01*
Y-1011377D01*
X-836891Y-1010319D01*
X-839007D01*
X-840065Y-1011377D01*
X-833717D02*
X-832659Y-1010319D01*
X-830543D01*
X-829485Y-1011377D01*
Y-1012435D01*
X-830543Y-1013493D01*
X-831601D01*
X-830543D01*
X-829485Y-1014551D01*
Y-1015609D01*
X-830543Y-1016667D01*
X-832659D01*
X-833717Y-1015609D01*
X-827369Y-1011377D02*
X-826311Y-1010319D01*
X-824195D01*
X-823137Y-1011377D01*
Y-1012435D01*
X-824195Y-1013493D01*
X-825253D01*
X-824195D01*
X-823137Y-1014551D01*
Y-1015609D01*
X-824195Y-1016667D01*
X-826311D01*
X-827369Y-1015609D01*
X-819963Y-1017725D02*
X-818905Y-1016667D01*
Y-1015609D01*
X-819963D01*
Y-1016667D01*
X-818905D01*
X-819963Y-1017725D01*
X-821021Y-1018783D01*
X-805151Y-1016667D02*
Y-1010319D01*
X-808325Y-1013493D01*
X-804093D01*
X-798803Y-1016667D02*
Y-1010319D01*
X-801977Y-1013493D01*
X-797745D01*
X-795630Y-1011377D02*
X-794572Y-1010319D01*
X-792456D01*
X-791397Y-1011377D01*
Y-1015609D01*
X-792456Y-1016667D01*
X-794572D01*
X-795630Y-1015609D01*
Y-1011377D01*
X-789281Y-1013493D02*
X-785050D01*
X-782934Y-1015609D02*
X-781876Y-1016667D01*
X-779760D01*
X-778702Y-1015609D01*
Y-1011377D01*
X-779760Y-1010319D01*
X-781876D01*
X-782934Y-1011377D01*
Y-1012435D01*
X-781876Y-1013493D01*
X-778702D01*
X-776586Y-1011377D02*
X-775528Y-1010319D01*
X-773412D01*
X-772354Y-1011377D01*
Y-1012435D01*
X-773412Y-1013493D01*
X-774470D01*
X-773412D01*
X-772354Y-1014551D01*
Y-1015609D01*
X-773412Y-1016667D01*
X-775528D01*
X-776586Y-1015609D01*
X-767064Y-1016667D02*
Y-1010319D01*
X-770238Y-1013493D01*
X-766006D01*
X-763890D02*
X-759658D01*
X-757542Y-1011377D02*
X-756484Y-1010319D01*
X-754368D01*
X-753310Y-1011377D01*
Y-1015609D01*
X-754368Y-1016667D01*
X-756484D01*
X-757542Y-1015609D01*
Y-1011377D01*
X-748020Y-1016667D02*
Y-1010319D01*
X-751194Y-1013493D01*
X-746962D01*
X-741672Y-1016667D02*
Y-1010319D01*
X-744846Y-1013493D01*
X-740614D01*
X-735324Y-1016667D02*
Y-1010319D01*
X-738498Y-1013493D01*
X-734266D01*
X-721570Y-1010319D02*
X-725802D01*
Y-1013493D01*
X-723686D01*
X-725802D01*
Y-1016667D01*
X-719454D02*
Y-1012435D01*
X-717338Y-1010319D01*
X-715222Y-1012435D01*
Y-1016667D01*
Y-1013493D01*
X-719454D01*
X-713106Y-1010319D02*
X-708874Y-1016667D01*
Y-1010319D02*
X-713106Y-1016667D01*
X-705700D02*
Y-1010319D01*
X-703584D02*
Y-1016667D01*
X-706758Y-1012435D02*
X-703584D01*
X-702526D01*
X-706758Y-1014551D02*
X-702526D01*
X-700410Y-1012435D02*
X-699352D01*
Y-1013493D01*
X-700410D01*
Y-1012435D01*
Y-1015609D02*
X-699352D01*
Y-1016667D01*
X-700410D01*
Y-1015609D01*
X-685599Y-1016667D02*
Y-1010319D01*
X-688772Y-1013493D01*
X-684540D01*
X-679250Y-1016667D02*
Y-1010319D01*
X-682424Y-1013493D01*
X-678193D01*
X-676077Y-1011377D02*
X-675019Y-1010319D01*
X-672903D01*
X-671845Y-1011377D01*
Y-1015609D01*
X-672903Y-1016667D01*
X-675019D01*
X-676077Y-1015609D01*
Y-1011377D01*
X-669729Y-1013493D02*
X-665497D01*
X-663381Y-1015609D02*
X-662323Y-1016667D01*
X-660207D01*
X-659149Y-1015609D01*
Y-1011377D01*
X-660207Y-1010319D01*
X-662323D01*
X-663381Y-1011377D01*
Y-1012435D01*
X-662323Y-1013493D01*
X-659149D01*
X-657033Y-1011377D02*
X-655975Y-1010319D01*
X-653859D01*
X-652801Y-1011377D01*
Y-1012435D01*
X-653859Y-1013493D01*
X-654917D01*
X-653859D01*
X-652801Y-1014551D01*
Y-1015609D01*
X-653859Y-1016667D01*
X-655975D01*
X-657033Y-1015609D01*
X-647511Y-1016667D02*
Y-1010319D01*
X-650685Y-1013493D01*
X-646453D01*
X-644337D02*
X-640105D01*
X-637989Y-1011377D02*
X-636931Y-1010319D01*
X-634815D01*
X-633757Y-1011377D01*
Y-1015609D01*
X-634815Y-1016667D01*
X-636931D01*
X-637989Y-1015609D01*
Y-1011377D01*
X-631641D02*
X-630583Y-1010319D01*
X-628467D01*
X-627409Y-1011377D01*
Y-1015609D01*
X-628467Y-1016667D01*
X-630583D01*
X-631641Y-1015609D01*
Y-1011377D01*
X-625293D02*
X-624235Y-1010319D01*
X-622119D01*
X-621061Y-1011377D01*
Y-1012435D01*
X-622119Y-1013493D01*
X-621061Y-1014551D01*
Y-1015609D01*
X-622119Y-1016667D01*
X-624235D01*
X-625293Y-1015609D01*
Y-1014551D01*
X-624235Y-1013493D01*
X-625293Y-1012435D01*
Y-1011377D01*
X-624235Y-1013493D02*
X-622119D01*
X-618945Y-1011377D02*
X-617887Y-1010319D01*
X-615771D01*
X-614713Y-1011377D01*
Y-1012435D01*
X-615771Y-1013493D01*
X-614713Y-1014551D01*
Y-1015609D01*
X-615771Y-1016667D01*
X-617887D01*
X-618945Y-1015609D01*
Y-1014551D01*
X-617887Y-1013493D01*
X-618945Y-1012435D01*
Y-1011377D01*
X-617887Y-1013493D02*
X-615771D01*
X-938460Y-1016649D02*
X-936344D01*
X-937402D01*
Y-1010301D01*
X-938460Y-1011359D01*
X-933170D02*
X-932112Y-1010301D01*
X-929996D01*
X-928938Y-1011359D01*
Y-1012417D01*
X-929996Y-1013475D01*
X-931054D01*
X-929996D01*
X-928938Y-1014533D01*
Y-1015591D01*
X-929996Y-1016649D01*
X-932112D01*
X-933170Y-1015591D01*
X-926822Y-1011359D02*
X-925764Y-1010301D01*
X-923648D01*
X-922590Y-1011359D01*
Y-1015591D01*
X-923648Y-1016649D01*
X-925764D01*
X-926822Y-1015591D01*
Y-1011359D01*
X-916242Y-1010301D02*
X-920474D01*
Y-1013475D01*
X-918358Y-1012417D01*
X-917300D01*
X-916242Y-1013475D01*
Y-1015591D01*
X-917300Y-1016649D01*
X-919416D01*
X-920474Y-1015591D01*
X-903546Y-1011359D02*
X-904604Y-1010301D01*
X-906720D01*
X-907778Y-1011359D01*
Y-1015591D01*
X-906720Y-1016649D01*
X-904604D01*
X-903546Y-1015591D01*
X-901430Y-1010301D02*
Y-1016649D01*
Y-1013475D01*
X-897198D01*
Y-1010301D01*
Y-1016649D01*
X-890850Y-1010301D02*
X-895082D01*
Y-1016649D01*
X-890850D01*
X-895082Y-1013475D02*
X-892966D01*
X-884502Y-1011359D02*
X-885560Y-1010301D01*
X-887676D01*
X-888734Y-1011359D01*
Y-1012417D01*
X-887676Y-1013475D01*
X-885560D01*
X-884502Y-1014533D01*
Y-1015591D01*
X-885560Y-1016649D01*
X-887676D01*
X-888734Y-1015591D01*
X-882386Y-1010301D02*
X-878155D01*
X-880270D01*
Y-1016649D01*
X-871806Y-1010301D02*
X-876039D01*
Y-1016649D01*
X-871806D01*
X-876039Y-1013475D02*
X-873923D01*
X-869691Y-1016649D02*
Y-1010301D01*
X-866517D01*
X-865459Y-1011359D01*
Y-1013475D01*
X-866517Y-1014533D01*
X-869691D01*
X-867575D02*
X-865459Y-1016649D01*
X-856995Y-1010301D02*
X-854879D01*
X-855937D01*
Y-1016649D01*
X-856995D01*
X-854879D01*
X-851705D02*
Y-1010301D01*
X-847473Y-1016649D01*
Y-1010301D01*
X-845357D02*
Y-1016649D01*
X-842183D01*
X-841125Y-1015591D01*
Y-1011359D01*
X-842183Y-1010301D01*
X-845357D01*
X-839009Y-1016649D02*
Y-1015591D01*
X-837951D01*
Y-1016649D01*
X-839009D01*
X-827371D02*
Y-1010301D01*
X-824197D01*
X-823139Y-1011359D01*
Y-1013475D01*
X-824197Y-1014533D01*
X-827371D01*
X-821023Y-1016649D02*
Y-1012417D01*
X-818907Y-1010301D01*
X-816791Y-1012417D01*
Y-1016649D01*
Y-1013475D01*
X-821023D01*
X-814675Y-1016649D02*
Y-1010301D01*
X-811501D01*
X-810443Y-1011359D01*
Y-1013475D01*
X-811501Y-1014533D01*
X-814675D01*
X-812559D02*
X-810443Y-1016649D01*
X-808327Y-1010301D02*
Y-1016649D01*
Y-1014533D01*
X-804095Y-1010301D01*
X-807269Y-1013475D01*
X-804095Y-1016649D01*
X-801979Y-1010301D02*
Y-1016649D01*
X-799863Y-1014533D01*
X-797747Y-1016649D01*
Y-1010301D01*
X-795631Y-1016649D02*
Y-1012417D01*
X-793515Y-1010301D01*
X-791399Y-1012417D01*
Y-1016649D01*
Y-1013475D01*
X-795631D01*
X-789283Y-1010301D02*
Y-1011359D01*
X-787167Y-1013475D01*
X-785051Y-1011359D01*
Y-1010301D01*
X-787167Y-1013475D02*
Y-1016649D01*
X-776587D02*
Y-1012417D01*
X-774471Y-1010301D01*
X-772355Y-1012417D01*
Y-1016649D01*
Y-1013475D01*
X-776587D01*
X-770239Y-1010301D02*
Y-1014533D01*
X-768123Y-1016649D01*
X-766008Y-1014533D01*
Y-1010301D01*
X-760717D02*
X-762833D01*
X-763892Y-1011359D01*
Y-1015591D01*
X-762833Y-1016649D01*
X-760717D01*
X-759660Y-1015591D01*
Y-1011359D01*
X-760717Y-1010301D01*
X-757544Y-1016649D02*
Y-1010301D01*
X-753312Y-1016649D01*
Y-1010301D01*
X-750138Y-1017707D02*
X-749080Y-1016649D01*
Y-1015591D01*
X-750138D01*
Y-1016649D01*
X-749080D01*
X-750138Y-1017707D01*
X-751196Y-1018765D01*
X-735326Y-1010301D02*
X-737442D01*
X-738500Y-1011359D01*
Y-1015591D01*
X-737442Y-1016649D01*
X-735326D01*
X-734268Y-1015591D01*
Y-1011359D01*
X-735326Y-1010301D01*
X-732152D02*
Y-1016649D01*
Y-1013475D01*
X-727920D01*
Y-1010301D01*
Y-1016649D01*
X-725804Y-1010301D02*
X-723688D01*
X-724746D01*
Y-1016649D01*
X-725804D01*
X-723688D01*
X-717340Y-1010301D02*
X-719456D01*
X-720514Y-1011359D01*
Y-1015591D01*
X-719456Y-1016649D01*
X-717340D01*
X-716282Y-1015591D01*
Y-1011359D01*
X-717340Y-1010301D01*
X-704644Y-1016649D02*
Y-1010301D01*
X-707818Y-1013475D01*
X-703586D01*
X-698296Y-1016649D02*
Y-1010301D01*
X-701470Y-1013475D01*
X-697238D01*
X-695122Y-1011359D02*
X-694064Y-1010301D01*
X-691948D01*
X-690890Y-1011359D01*
Y-1015591D01*
X-691948Y-1016649D01*
X-694064D01*
X-695122Y-1015591D01*
Y-1011359D01*
X-688774Y-1016649D02*
X-686658D01*
X-687716D01*
Y-1010301D01*
X-688774Y-1011359D01*
X-683484Y-1016649D02*
X-681368D01*
X-682426D01*
Y-1010301D01*
X-683484Y-1011359D01*
X-678194Y-1013475D02*
X-673962D01*
X-671846Y-1016649D02*
X-669730D01*
X-670788D01*
Y-1010301D01*
X-671846Y-1011359D01*
X-666556D02*
X-665498Y-1010301D01*
X-663382D01*
X-662324Y-1011359D01*
Y-1015591D01*
X-663382Y-1016649D01*
X-665498D01*
X-666556Y-1015591D01*
Y-1011359D01*
X-660208D02*
X-659150Y-1010301D01*
X-657034D01*
X-655976Y-1011359D01*
Y-1012417D01*
X-657034Y-1013475D01*
X-655976Y-1014533D01*
Y-1015591D01*
X-657034Y-1016649D01*
X-659150D01*
X-660208Y-1015591D01*
Y-1014533D01*
X-659150Y-1013475D01*
X-660208Y-1012417D01*
Y-1011359D01*
X-659150Y-1013475D02*
X-657034D01*
X-653860Y-1011359D02*
X-652803Y-1010301D01*
X-650686D01*
X-649629Y-1011359D01*
Y-1012417D01*
X-650686Y-1013475D01*
X-651745D01*
X-650686D01*
X-649629Y-1014533D01*
Y-1015591D01*
X-650686Y-1016649D01*
X-652803D01*
X-653860Y-1015591D01*
X-641165Y-1010301D02*
Y-1015591D01*
X-640107Y-1016649D01*
X-637991D01*
X-636933Y-1015591D01*
Y-1010301D01*
X-634817Y-1016649D02*
Y-1015591D01*
X-633759D01*
Y-1016649D01*
X-634817D01*
X-625295Y-1011359D02*
X-626353Y-1010301D01*
X-628469D01*
X-629527Y-1011359D01*
Y-1012417D01*
X-628469Y-1013475D01*
X-626353D01*
X-625295Y-1014533D01*
Y-1015591D01*
X-626353Y-1016649D01*
X-628469D01*
X-629527Y-1015591D01*
X-623179Y-1016649D02*
Y-1015591D01*
X-622121D01*
Y-1016649D01*
X-623179D01*
X-617889D02*
Y-1012417D01*
X-615773Y-1010301D01*
X-613657Y-1012417D01*
Y-1016649D01*
Y-1013475D01*
X-617889D01*
X-611541Y-1016649D02*
Y-1015591D01*
X-610483D01*
Y-1016649D01*
X-611541D01*
D116*
X-938375Y-1015152D02*
G03*
X-938369Y-1015144I-4J10D01*
G01*
X-938589Y-1015145D02*
G03*
X-938615Y-1015145I-13J-22D01*
G01*
X-938977Y-1015168D02*
G03*
X-938970Y-1015177I10J1D01*
G01*
X-938375Y-1015152D02*
G03*
X-938394Y-1015174I18J-35D01*
G01*
X-938375Y-1015226D02*
G03*
X-938369Y-1015217I-4J10D01*
G01*
X-938951Y-1015198D02*
G03*
X-938970Y-1015177I-37J-13D01*
G01*
X-938730Y-1015227D02*
G03*
X-938756Y-1015227I-13J-22D01*
G01*
X-938977Y-1015242D02*
G03*
X-938970Y-1015250I10J1D01*
G01*
X-938578Y-1015326D02*
G03*
X-938548Y-1015326I15J29D01*
G01*
X-938578D02*
G03*
X-938683Y-1015326I-52J-101D01*
G01*
X-938776Y-1015362D02*
G03*
X-938746Y-1015362I15J29D01*
G01*
X-938375Y-1015139D02*
G03*
X-938375Y-1015196I11J-28D01*
G01*
X-938375Y-1015139D02*
G03*
X-938375Y-1015122I-3J9D01*
G01*
X-938570Y-1015010D02*
G03*
X-938599Y-1015010I-15J-29D01*
G01*
X-938768Y-1015046D02*
G03*
X-938663Y-1015046I52J101D01*
G01*
X-938768Y-1015047D02*
G03*
X-938797Y-1015047I-15J-29D01*
G01*
X-938970Y-1015147D02*
G03*
X-938970Y-1015164I3J-9D01*
G01*
Y-1015220D02*
G03*
X-938970Y-1015164I-11J28D01*
G01*
Y-1015220D02*
G03*
X-938970Y-1015237I3J-9D01*
G01*
X-938776Y-1015349D02*
G03*
X-938746Y-1015349I15J29D01*
G01*
X-938578Y-1015313D02*
G03*
X-938683Y-1015313I-52J-101D01*
G01*
X-938578D02*
G03*
X-938548Y-1015313I15J29D01*
G01*
X-938375Y-1015213D02*
G03*
X-938375Y-1015196I-3J9D01*
G01*
X-940100Y-1015794D02*
G03*
X-940100Y-1015794I-17J0D01*
G01*
X-939956Y-1015634D02*
G03*
X-939887Y-1015703I69J0D01*
G01*
X-939956Y-1015634D02*
G03*
X-939977Y-1015613I-21J0D01*
G01*
X-940252D02*
G03*
X-940273Y-1015634I0J-21D01*
G01*
X-940347Y-1015798D02*
G03*
X-940273Y-1015724I0J74D01*
G01*
X-940347Y-1015798D02*
G03*
X-940368Y-1015819I0J-21D01*
G01*
Y-1016064D02*
G03*
X-940347Y-1016085I21J0D01*
G01*
X-940278Y-1016154D02*
G03*
X-940347Y-1016085I-69J0D01*
G01*
X-940278Y-1016154D02*
G03*
X-940257Y-1016175I21J0D01*
G01*
X-939982D02*
G03*
X-939961Y-1016154I0J21D01*
G01*
X-939887Y-1015990D02*
G03*
X-939961Y-1016064I0J-74D01*
G01*
X-939887Y-1015990D02*
G03*
X-939866Y-1015969I0J21D01*
G01*
Y-1015724D02*
G03*
X-939887Y-1015703I-21J0D01*
G01*
X-940100Y-1015994D02*
G03*
X-940100Y-1015994I-17J0D01*
G01*
X-938601Y-1016783D02*
G03*
X-938601Y-1016783I-20J0D01*
G01*
X-938569D02*
G03*
X-938569Y-1016783I-52J0D01*
G01*
X-938548Y-1015326D02*
X-938375Y-1015226D01*
X-938970Y-1015250D02*
X-938776Y-1015362D01*
X-938746D02*
X-938683Y-1015326D01*
X-938615Y-1015145D02*
X-938614Y-1015146D01*
X-938615Y-1015145D02*
X-938615Y-1015145D01*
X-938616Y-1015145D02*
X-938615Y-1015145D01*
X-938616Y-1015144D02*
X-938616Y-1015145D01*
X-938617Y-1015144D02*
X-938616Y-1015144D01*
X-938617Y-1015144D02*
X-938617Y-1015144D01*
X-938617Y-1015143D02*
X-938617Y-1015144D01*
X-938618Y-1015143D02*
X-938617Y-1015143D01*
X-938618Y-1015142D02*
X-938618Y-1015143D01*
X-938618Y-1015142D02*
X-938618Y-1015142D01*
X-938618Y-1015142D02*
X-938618Y-1015142D01*
X-938619Y-1015141D02*
X-938618Y-1015142D01*
X-938619Y-1015141D02*
X-938619Y-1015141D01*
X-938619Y-1015140D02*
X-938619Y-1015141D01*
X-938619Y-1015140D02*
X-938619Y-1015140D01*
X-938619Y-1015139D02*
X-938619Y-1015140D01*
X-938619Y-1015139D02*
X-938619Y-1015139D01*
X-938619Y-1015139D02*
X-938619Y-1015138D01*
X-938619Y-1015138D01*
X-938619Y-1015137D01*
X-938619Y-1015137D01*
X-938619Y-1015137D01*
X-938619Y-1015136D01*
X-938618Y-1015136D01*
X-938618Y-1015135D01*
X-938618Y-1015135D01*
X-938617Y-1015135D01*
X-938617Y-1015134D01*
X-938617Y-1015134D01*
X-938616Y-1015133D01*
X-938616Y-1015133D01*
X-938615Y-1015133D01*
X-938615Y-1015132D01*
X-938614Y-1015132D01*
X-938614Y-1015132D01*
X-938613Y-1015131D01*
X-938613Y-1015131D01*
X-938612Y-1015131D01*
X-938611Y-1015130D01*
X-938611Y-1015130D01*
X-938610Y-1015130D01*
X-938609Y-1015130D01*
X-938608Y-1015130D01*
X-938608Y-1015129D01*
X-938607Y-1015129D01*
X-938606Y-1015129D01*
X-938605Y-1015129D01*
X-938605Y-1015129D01*
X-938604Y-1015129D01*
X-938603Y-1015129D01*
X-938602Y-1015129D01*
X-938602Y-1015129D01*
X-938601D01*
X-938600Y-1015129D01*
X-938599Y-1015129D01*
X-938598Y-1015129D01*
X-938598Y-1015129D01*
X-938597Y-1015129D01*
X-938596Y-1015129D01*
X-938596Y-1015130D01*
X-938595Y-1015130D01*
X-938594Y-1015130D01*
X-938593Y-1015130D01*
X-938593Y-1015130D01*
X-938592Y-1015131D01*
X-938591Y-1015131D01*
X-938591Y-1015131D01*
X-938590Y-1015132D01*
X-938590Y-1015132D01*
X-938589Y-1015132D01*
X-938589Y-1015133D01*
X-938588Y-1015133D01*
X-938588Y-1015133D01*
X-938587Y-1015134D01*
X-938587Y-1015134D01*
X-938587Y-1015135D01*
X-938586Y-1015135D01*
X-938586Y-1015135D01*
X-938586Y-1015136D01*
X-938586Y-1015136D01*
X-938585Y-1015137D01*
X-938585Y-1015137D01*
X-938585Y-1015138D01*
X-938585Y-1015138D01*
X-938585Y-1015138D01*
Y-1015139D02*
Y-1015138D01*
X-938585Y-1015139D02*
X-938585Y-1015139D01*
X-938585Y-1015140D02*
X-938585Y-1015139D01*
X-938585Y-1015140D02*
X-938585Y-1015140D01*
X-938585Y-1015141D02*
X-938585Y-1015140D01*
X-938585Y-1015141D02*
X-938585Y-1015141D01*
X-938586Y-1015142D02*
X-938585Y-1015141D01*
X-938586Y-1015142D02*
X-938586Y-1015142D01*
X-938586Y-1015143D02*
X-938586Y-1015142D01*
X-938587Y-1015143D02*
X-938586Y-1015143D01*
X-938587Y-1015143D02*
X-938587Y-1015143D01*
X-938587Y-1015144D02*
X-938587Y-1015143D01*
X-938588Y-1015144D02*
X-938587Y-1015144D01*
X-938588Y-1015145D02*
X-938588Y-1015144D01*
X-938588Y-1015145D02*
X-938588Y-1015145D01*
X-938589Y-1015145D02*
X-938588Y-1015145D01*
X-938589Y-1015145D02*
X-938589Y-1015145D01*
X-938590Y-1015146D02*
X-938589Y-1015145D01*
X-938591Y-1015146D02*
X-938590Y-1015146D01*
X-938591Y-1015146D02*
X-938591Y-1015146D01*
X-938592Y-1015147D02*
X-938591Y-1015146D01*
X-938593Y-1015147D02*
X-938592Y-1015147D01*
X-938593Y-1015147D02*
X-938593Y-1015147D01*
X-938594Y-1015147D02*
X-938593Y-1015147D01*
X-938595Y-1015148D02*
X-938594Y-1015147D01*
X-938595Y-1015148D02*
X-938595Y-1015148D01*
X-938596Y-1015148D02*
X-938595Y-1015148D01*
X-938597Y-1015148D02*
X-938596Y-1015148D01*
X-938597Y-1015148D02*
X-938597Y-1015148D01*
X-938598Y-1015148D02*
X-938597Y-1015148D01*
X-938599Y-1015148D02*
X-938598Y-1015148D01*
X-938600Y-1015149D02*
X-938599Y-1015148D01*
X-938601Y-1015149D02*
X-938600Y-1015149D01*
X-938601Y-1015149D02*
X-938601Y-1015149D01*
X-938602Y-1015149D02*
X-938601Y-1015149D01*
X-938603D02*
X-938602Y-1015149D01*
X-938604Y-1015149D02*
X-938603Y-1015149D01*
X-938605Y-1015149D02*
X-938604Y-1015149D01*
X-938605Y-1015148D02*
X-938605Y-1015149D01*
X-938606Y-1015148D02*
X-938605Y-1015148D01*
X-938607Y-1015148D02*
X-938606Y-1015148D01*
X-938607Y-1015148D02*
X-938607Y-1015148D01*
X-938608Y-1015148D02*
X-938607Y-1015148D01*
X-938609Y-1015148D02*
X-938608Y-1015148D01*
X-938610Y-1015148D02*
X-938609Y-1015148D01*
X-938610Y-1015147D02*
X-938610Y-1015148D01*
X-938611Y-1015147D02*
X-938610Y-1015147D01*
X-938612Y-1015147D02*
X-938611Y-1015147D01*
X-938612Y-1015147D02*
X-938612Y-1015147D01*
X-938613Y-1015146D02*
X-938612Y-1015147D01*
X-938614Y-1015146D02*
X-938613Y-1015146D01*
X-938614Y-1015146D02*
X-938614Y-1015146D01*
X-938570Y-1015010D02*
X-938375Y-1015122D01*
X-938663Y-1015047D02*
X-938599Y-1015010D01*
X-938970Y-1015147D02*
X-938797Y-1015047D01*
X-938970Y-1015237D02*
X-938776Y-1015349D01*
X-938746D02*
X-938683Y-1015313D01*
X-938548D02*
X-938375Y-1015213D01*
X-938756Y-1015227D02*
X-938756Y-1015227D01*
X-938757Y-1015227D02*
X-938756Y-1015227D01*
X-938757Y-1015226D02*
X-938757Y-1015227D01*
X-938758Y-1015226D02*
X-938757Y-1015226D01*
X-938758Y-1015226D02*
X-938758Y-1015226D01*
X-938758Y-1015225D02*
X-938758Y-1015226D01*
X-938759Y-1015225D02*
X-938758Y-1015225D01*
X-938759Y-1015225D02*
X-938759Y-1015225D01*
X-938759Y-1015224D02*
X-938759Y-1015225D01*
X-938760Y-1015224D02*
X-938759Y-1015224D01*
X-938760Y-1015223D02*
X-938760Y-1015224D01*
X-938760Y-1015223D02*
X-938760Y-1015223D01*
X-938760Y-1015222D02*
X-938760Y-1015223D01*
X-938761Y-1015222D02*
X-938760Y-1015222D01*
X-938761Y-1015221D02*
X-938761Y-1015222D01*
X-938761Y-1015221D02*
X-938761Y-1015221D01*
X-938761Y-1015220D02*
X-938761Y-1015221D01*
X-938761Y-1015220D02*
X-938761Y-1015220D01*
X-938761Y-1015220D01*
X-938761Y-1015219D01*
X-938760Y-1015219D01*
X-938760Y-1015218D01*
X-938760Y-1015218D01*
X-938760Y-1015217D01*
X-938760Y-1015217D01*
X-938759Y-1015217D01*
X-938759Y-1015216D01*
X-938758Y-1015216D01*
X-938758Y-1015215D01*
X-938758Y-1015215D01*
X-938757Y-1015215D01*
X-938757Y-1015214D01*
X-938756Y-1015214D01*
X-938756Y-1015213D01*
X-938755Y-1015213D01*
X-938755Y-1015213D01*
X-938754Y-1015213D01*
X-938753Y-1015212D01*
X-938753Y-1015212D01*
X-938752Y-1015212D01*
X-938751Y-1015212D01*
X-938751Y-1015211D01*
X-938750Y-1015211D01*
X-938749Y-1015211D01*
X-938748Y-1015211D01*
X-938748Y-1015211D01*
X-938747Y-1015211D01*
X-938746Y-1015211D01*
X-938745Y-1015211D01*
X-938745Y-1015210D01*
X-938744D01*
X-938743D01*
X-938742Y-1015211D01*
X-938741Y-1015211D01*
X-938741Y-1015211D01*
X-938740Y-1015211D01*
X-938739Y-1015211D01*
X-938738Y-1015211D01*
X-938738Y-1015211D01*
X-938737Y-1015211D01*
X-938736Y-1015211D01*
X-938735Y-1015212D01*
X-938735Y-1015212D01*
X-938734Y-1015212D01*
X-938734Y-1015212D01*
X-938733Y-1015213D01*
X-938732Y-1015213D01*
X-938732Y-1015213D01*
X-938731Y-1015214D01*
X-938731Y-1015214D01*
X-938730Y-1015214D01*
X-938730Y-1015215D01*
X-938729Y-1015215D01*
X-938729Y-1015215D01*
X-938728Y-1015216D01*
X-938728Y-1015216D01*
X-938728Y-1015217D01*
X-938727Y-1015217D01*
X-938727Y-1015218D01*
X-938727Y-1015218D01*
X-938727Y-1015218D01*
X-938727Y-1015219D01*
X-938726Y-1015219D01*
X-938726Y-1015220D01*
X-938726Y-1015220D01*
Y-1015221D02*
Y-1015220D01*
X-938726Y-1015221D02*
X-938726Y-1015221D01*
X-938726Y-1015221D02*
X-938726Y-1015221D01*
X-938727Y-1015222D02*
X-938726Y-1015221D01*
X-938727Y-1015222D02*
X-938727Y-1015222D01*
X-938727Y-1015223D02*
X-938727Y-1015222D01*
X-938727Y-1015223D02*
X-938727Y-1015223D01*
X-938727Y-1015224D02*
X-938727Y-1015223D01*
X-938728Y-1015224D02*
X-938727Y-1015224D01*
X-938728Y-1015225D02*
X-938728Y-1015224D01*
X-938728Y-1015225D02*
X-938728Y-1015225D01*
X-938729Y-1015225D02*
X-938728Y-1015225D01*
X-938729Y-1015226D02*
X-938729Y-1015225D01*
X-938729Y-1015226D02*
X-938729Y-1015226D01*
X-938730Y-1015227D02*
X-938729Y-1015226D01*
X-938730Y-1015227D02*
X-938730Y-1015227D01*
X-938731Y-1015227D02*
X-938730Y-1015227D01*
X-938732Y-1015228D02*
X-938731Y-1015227D01*
X-938732Y-1015228D02*
X-938732Y-1015228D01*
X-938733Y-1015228D02*
X-938732Y-1015228D01*
X-938733Y-1015228D02*
X-938733Y-1015228D01*
X-938734Y-1015229D02*
X-938733Y-1015228D01*
X-938735Y-1015229D02*
X-938734Y-1015229D01*
X-938735Y-1015229D02*
X-938735Y-1015229D01*
X-938736Y-1015229D02*
X-938735Y-1015229D01*
X-938737Y-1015229D02*
X-938736Y-1015229D01*
X-938737Y-1015230D02*
X-938737Y-1015229D01*
X-938738Y-1015230D02*
X-938737Y-1015230D01*
X-938739Y-1015230D02*
X-938738Y-1015230D01*
X-938740Y-1015230D02*
X-938739Y-1015230D01*
X-938740Y-1015230D02*
X-938740Y-1015230D01*
X-938741Y-1015230D02*
X-938740Y-1015230D01*
X-938742Y-1015230D02*
X-938741Y-1015230D01*
X-938743Y-1015230D02*
X-938742Y-1015230D01*
X-938744Y-1015230D02*
X-938743D01*
X-938744Y-1015230D02*
X-938744Y-1015230D01*
X-938745Y-1015230D02*
X-938744Y-1015230D01*
X-938746Y-1015230D02*
X-938745Y-1015230D01*
X-938747Y-1015230D02*
X-938746Y-1015230D01*
X-938747Y-1015230D02*
X-938747Y-1015230D01*
X-938748Y-1015230D02*
X-938747Y-1015230D01*
X-938749Y-1015230D02*
X-938748Y-1015230D01*
X-938750Y-1015230D02*
X-938749Y-1015230D01*
X-938750Y-1015229D02*
X-938750Y-1015230D01*
X-938751Y-1015229D02*
X-938750Y-1015229D01*
X-938752Y-1015229D02*
X-938751Y-1015229D01*
X-938753Y-1015229D02*
X-938752Y-1015229D01*
X-938753Y-1015229D02*
X-938753Y-1015229D01*
X-938754Y-1015228D02*
X-938753Y-1015229D01*
X-938754Y-1015228D02*
X-938754Y-1015228D01*
X-938755Y-1015228D02*
X-938754Y-1015228D01*
X-938756Y-1015227D02*
X-938755Y-1015228D01*
X-938369Y-1015144D02*
Y-1015131D01*
X-938977Y-1015168D02*
Y-1015155D01*
X-938369Y-1015217D02*
Y-1015204D01*
X-938977Y-1015242D02*
Y-1015229D01*
X-940100Y-1015144D02*
Y-1015128D01*
X-940134Y-1015144D02*
Y-1015128D01*
X-940278Y-1015144D02*
Y-1015128D01*
X-939961Y-1015144D02*
Y-1015128D01*
X-940368D02*
X-940347D01*
X-940368Y-1015144D02*
X-940347D01*
X-940368D02*
Y-1015128D01*
X-940347D02*
X-940273D01*
X-940347Y-1015144D02*
X-940273D01*
X-939887Y-1015128D02*
X-939866D01*
X-939887Y-1015144D02*
X-939866D01*
Y-1015128D01*
X-939956D02*
X-939887D01*
X-939956Y-1015144D02*
X-939887D01*
X-939977Y-1015128D02*
X-939956D01*
X-939977Y-1015144D02*
X-939956D01*
Y-1015128D01*
X-940252D02*
X-939977D01*
X-940252Y-1015144D02*
X-939977D01*
X-940273Y-1015128D02*
X-940252D01*
X-940273Y-1015144D02*
Y-1015128D01*
Y-1015144D02*
X-940252D01*
X-939444Y-1016011D02*
X-939428D01*
X-939444Y-1015977D02*
X-939428D01*
X-939444Y-1015811D02*
X-939428D01*
X-939444Y-1015777D02*
X-939428D01*
X-939444Y-1016085D02*
X-939428D01*
X-939444Y-1015798D02*
X-939428D01*
Y-1016175D02*
Y-1016154D01*
X-939444Y-1016175D02*
Y-1016154D01*
Y-1016175D02*
X-939428D01*
Y-1016154D02*
Y-1016064D01*
X-939444Y-1016154D02*
Y-1016064D01*
X-939428Y-1015634D02*
Y-1015613D01*
X-939444Y-1015634D02*
Y-1015613D01*
X-939428D01*
Y-1015703D02*
Y-1015634D01*
X-939444Y-1015703D02*
Y-1015634D01*
X-939428Y-1016064D02*
Y-1015990D01*
X-939444Y-1016064D02*
Y-1015990D01*
X-939428D02*
Y-1015969D01*
X-939444Y-1015990D02*
Y-1015969D01*
Y-1015990D02*
X-939428D01*
Y-1015724D02*
Y-1015703D01*
X-939444D02*
X-939428D01*
X-939444Y-1015724D02*
Y-1015703D01*
X-939428Y-1015969D02*
Y-1015724D01*
X-939444Y-1015969D02*
Y-1015724D01*
X-940252Y-1015613D02*
X-939977D01*
X-940273Y-1015724D02*
Y-1015634D01*
X-940368Y-1016064D02*
Y-1015819D01*
X-940257Y-1016175D02*
X-939982D01*
X-939961Y-1016154D02*
Y-1016064D01*
X-939866Y-1015969D02*
Y-1015724D01*
X-938621Y-1016847D02*
Y-1016719D01*
X-938531Y-1016803D02*
X-938404Y-1016835D01*
X-938531Y-1016763D02*
X-938404Y-1016731D01*
Y-1016835D02*
Y-1016731D01*
X-938531Y-1016803D02*
Y-1016763D01*
X-938691Y-1016783D02*
X-938386D01*
D117*
X18944Y278180D02*
X88540D01*
Y309676D01*
X18944D02*
X88540D01*
X18944Y278180D02*
Y309676D01*
X33746Y476018D02*
Y488718D01*
X27396Y478558D02*
X40096D01*
X27396Y486178D02*
X33746Y478558D01*
X28666Y486178D02*
X33746Y478558D01*
X29936Y486178D02*
X33746Y478558D01*
X31206Y486178D02*
X33746Y478558D01*
X32476Y486178D02*
X33746Y478558D01*
X40096Y486178D01*
X33746Y478558D02*
X38826Y486178D01*
X33746Y478558D02*
X37556Y486178D01*
X33746Y478558D02*
X36286Y486178D01*
X33746Y478558D02*
X35016Y486178D01*
X27396D02*
X40096D01*
X169510Y33315D02*
X184496D01*
Y10201D02*
Y33315D01*
X169510Y10201D02*
X184496D01*
X169510D02*
Y33315D01*
M02*
