G04*
G04 #@! TF.GenerationSoftware,Altium Limited,Altium Designer,21.6.1 (37)*
G04*
G04 Layer_Color=0*
%FSLAX44Y44*%
%MOMM*%
G71*
G04*
G04 #@! TF.SameCoordinates,92C9E3DA-2EC7-41D8-9103-AA549F60DB15*
G04*
G04*
G04 #@! TF.FilePolarity,Positive*
G04*
G01*
G75*
%ADD13C,0.1524*%
%ADD15C,0.1000*%
%ADD121C,0.0254*%
D13*
X431270Y264248D02*
G03*
X431270Y264248I-1270J0D01*
G01*
X362074Y194554D02*
G03*
X357926Y194554I-2074J0D01*
G01*
X341458Y191760D02*
G03*
X341458Y191760I-762J0D01*
G01*
X173460Y92096D02*
X186540D01*
Y63904D02*
Y92096D01*
X173460Y63904D02*
X186540D01*
X173460D02*
Y92096D01*
X176000Y86000D02*
X184000D01*
X176000Y70000D02*
Y86000D01*
Y70000D02*
X184000D01*
Y86000D01*
X131000Y113000D02*
X147000D01*
Y105000D02*
Y113000D01*
X131000Y105000D02*
X147000D01*
X131000D02*
Y113000D01*
X124904Y102460D02*
X153096D01*
Y115540D01*
X124904D02*
X153096D01*
X124904Y102460D02*
Y115540D01*
X157904Y53460D02*
Y66540D01*
X186096D01*
Y53460D02*
Y66540D01*
X157904Y53460D02*
X186096D01*
X164000Y56000D02*
Y64000D01*
Y56000D02*
X180000D01*
Y64000D01*
X164000D02*
X180000D01*
X289460Y65096D02*
X302540D01*
Y36904D02*
Y65096D01*
X289460Y36904D02*
X302540D01*
X289460D02*
Y65096D01*
X292000Y59000D02*
X300000D01*
X292000Y43000D02*
Y59000D01*
Y43000D02*
X300000D01*
Y59000D01*
X290460Y67904D02*
X303540D01*
X290460D02*
Y96096D01*
X303540D01*
Y67904D02*
Y96096D01*
X293000Y74000D02*
X301000D01*
Y90000D01*
X293000D02*
X301000D01*
X293000Y74000D02*
Y90000D01*
X468001Y243320D02*
X475875D01*
X468001D02*
Y246091D01*
X449459D02*
X468001D01*
X449459Y243320D02*
Y246091D01*
X441585Y243320D02*
X449459D01*
X441585Y221684D02*
Y243320D01*
Y221684D02*
X449459D01*
Y218913D02*
Y221684D01*
Y218913D02*
X468001D01*
Y221684D01*
X475875D01*
Y243320D01*
X410190Y210152D02*
X423270D01*
X410190D02*
Y238344D01*
X423270D01*
Y210152D02*
Y238344D01*
X412730Y216248D02*
X420730D01*
Y232248D01*
X412730D02*
X420730D01*
X412730Y216248D02*
Y232248D01*
X441634Y202708D02*
Y215788D01*
X469826D01*
Y202708D02*
Y215788D01*
X441634Y202708D02*
X469826D01*
X447730Y205248D02*
Y213248D01*
Y205248D02*
X463730D01*
Y213248D01*
X447730D02*
X463730D01*
X481190Y286344D02*
X494270D01*
Y258152D02*
Y286344D01*
X481190Y258152D02*
X494270D01*
X481190D02*
Y286344D01*
X483730Y280248D02*
X491730D01*
X483730Y264248D02*
Y280248D01*
Y264248D02*
X491730D01*
Y280248D01*
X246000Y485000D02*
Y501000D01*
X238000Y485000D02*
X246000D01*
X238000D02*
Y501000D01*
X246000D01*
X235460Y478904D02*
Y507096D01*
Y478904D02*
X248540D01*
Y507096D01*
X235460D02*
X248540D01*
X107000Y311000D02*
X123000D01*
X107000D02*
Y319000D01*
X123000D01*
Y311000D02*
Y319000D01*
X100904Y321540D02*
X129096D01*
X100904Y308460D02*
Y321540D01*
Y308460D02*
X129096D01*
Y321540D01*
X430457Y271008D02*
Y301488D01*
X444681D01*
Y317998D01*
X466779D01*
Y301488D02*
Y317998D01*
Y301488D02*
X481003D01*
Y271008D02*
Y301488D01*
X475810Y271008D02*
X481003D01*
X475810Y253736D02*
Y271008D01*
X435650Y253736D02*
X475810D01*
X435650D02*
Y271008D01*
X430457D02*
X435650D01*
X432997Y298948D02*
X478463D01*
Y273548D02*
Y298948D01*
X432997Y273548D02*
X478463D01*
X432997D02*
Y298948D01*
X347554Y194554D02*
X372446D01*
X347554D02*
Y219446D01*
X372446D01*
Y194554D02*
Y219446D01*
X345014Y221986D02*
X374986D01*
X345014Y220508D02*
Y221986D01*
Y192014D02*
Y193492D01*
Y192014D02*
X374986D01*
Y193492D01*
Y220508D02*
Y221986D01*
Y220508D02*
X375330D01*
X344670D02*
X345014D01*
X344670Y193492D02*
Y220508D01*
Y193492D02*
X345014D01*
X374986D02*
X375330D01*
Y220508D01*
X132699Y181237D02*
Y198763D01*
X123301Y181237D02*
X132699D01*
X123301D02*
Y198763D01*
X132699D01*
X120761Y175141D02*
Y204859D01*
Y175141D02*
X135239D01*
Y204859D01*
X120761D02*
X135239D01*
X119699Y181237D02*
Y198763D01*
X110301Y181237D02*
X119699D01*
X110301D02*
Y198763D01*
X119699D01*
X107761Y175141D02*
Y204859D01*
Y175141D02*
X122239D01*
Y204859D01*
X107761D02*
X122239D01*
X121904Y203460D02*
Y216540D01*
X150096D01*
Y203460D02*
Y216540D01*
X121904Y203460D02*
X150096D01*
X128000Y206000D02*
Y214000D01*
Y206000D02*
X144000D01*
Y214000D01*
X128000D02*
X144000D01*
X221096Y185460D02*
Y198540D01*
X192904Y185460D02*
X221096D01*
X192904D02*
Y198540D01*
X221096D01*
X215000Y188000D02*
Y196000D01*
X199000D02*
X215000D01*
X199000Y188000D02*
Y196000D01*
Y188000D02*
X215000D01*
X148000Y181000D02*
Y197000D01*
X140000Y181000D02*
X148000D01*
X140000D02*
Y197000D01*
X148000D01*
X137460Y174904D02*
Y203096D01*
Y174904D02*
X150540D01*
Y203096D01*
X137460D02*
X150540D01*
X105000Y182000D02*
Y198000D01*
X97000Y182000D02*
X105000D01*
X97000D02*
Y198000D01*
X105000D01*
X94460Y175904D02*
Y204096D01*
Y175904D02*
X107540D01*
Y204096D01*
X94460D02*
X107540D01*
X322662Y249712D02*
X397338D01*
X322662D02*
Y287277D01*
X397338D01*
Y249712D02*
Y287277D01*
D15*
X212000Y512000D02*
Y522000D01*
X207000Y517000D02*
X217000D01*
X129000Y512000D02*
Y522000D01*
X124000Y517000D02*
X134000D01*
D121*
X459851Y221453D02*
G03*
X457608Y221453I-1122J0D01*
G01*
X451999D02*
X465461D01*
X451999D02*
Y243551D01*
X465461D01*
Y221453D02*
Y243551D01*
M02*
