G04*
G04 #@! TF.GenerationSoftware,Altium Limited,Altium Designer,21.6.1 (37)*
G04*
G04 Layer_Color=32896*
%FSLAX44Y44*%
%MOMM*%
G71*
G04*
G04 #@! TF.SameCoordinates,E93D91D5-E775-412F-AFD9-E5FE798DA7EF*
G04*
G04*
G04 #@! TF.FilePolarity,Positive*
G04*
G01*
G75*
%ADD15C,0.1270*%
%ADD16C,0.1524*%
%ADD91C,0.2540*%
D15*
X223608Y411772D02*
Y540047D01*
Y26948D02*
Y155223D01*
X15328Y411772D02*
Y540047D01*
Y26948D02*
Y155223D01*
X55468Y1497D02*
Y16497D01*
X223608Y155223D02*
Y411772D01*
X15328Y26948D02*
X223608D01*
X15328Y155223D02*
Y411772D01*
Y540047D02*
X223608D01*
X174968Y8997D02*
X189968D01*
X182468Y1497D02*
Y16497D01*
D16*
X31232Y420290D02*
X30174Y421348D01*
X28058D01*
X27000Y420290D01*
Y419232D01*
X28058Y418174D01*
X30174D01*
X31232Y417116D01*
Y416058D01*
X30174Y415000D01*
X28058D01*
X27000Y416058D01*
X33348Y421348D02*
Y415000D01*
X35464Y417116D01*
X37580Y415000D01*
Y421348D01*
X39696D02*
Y415000D01*
X42870D01*
X43928Y416058D01*
Y420290D01*
X42870Y421348D01*
X39696D01*
X46044D02*
X48160D01*
X47102D01*
Y415000D01*
X46044D01*
X48160D01*
X54508Y421348D02*
X52392D01*
X51334Y420290D01*
Y416058D01*
X52392Y415000D01*
X54508D01*
X55566Y416058D01*
Y420290D01*
X54508Y421348D01*
X134568Y517795D02*
Y511447D01*
X131394D01*
X130336Y512505D01*
Y513563D01*
X131394Y514621D01*
X134568D01*
X131394D01*
X130336Y515679D01*
Y516737D01*
X131394Y517795D01*
X134568D01*
X128220D02*
X123988D01*
X126104D01*
Y511447D01*
X121872D02*
X119756D01*
X120814D01*
Y517795D01*
X121872Y516737D01*
D91*
X54683Y662189D02*
X64840D01*
Y646954D01*
X54683D01*
X64840Y654572D02*
X59762D01*
X49605Y646954D02*
X44527D01*
X47066D01*
Y662189D01*
X49605Y659650D01*
M02*
