G04*
G04 #@! TF.GenerationSoftware,Altium Limited,Altium Designer,21.6.1 (37)*
G04*
G04 Layer_Color=255*
%FSLAX44Y44*%
%MOMM*%
G71*
G04*
G04 #@! TF.SameCoordinates,4F178BE9-AC55-4CEC-B3A2-6D2310684F74*
G04*
G04*
G04 #@! TF.FilePolarity,Positive*
G04*
G01*
G75*
%ADD20R,0.4000X1.7500*%
%ADD21R,1.4250X2.5000*%
G04:AMPARAMS|DCode=22|XSize=0.5mm|YSize=0.8mm|CornerRadius=0.1mm|HoleSize=0mm|Usage=FLASHONLY|Rotation=270.000|XOffset=0mm|YOffset=0mm|HoleType=Round|Shape=RoundedRectangle|*
%AMROUNDEDRECTD22*
21,1,0.5000,0.6000,0,0,270.0*
21,1,0.3000,0.8000,0,0,270.0*
1,1,0.2000,-0.3000,-0.1500*
1,1,0.2000,-0.3000,0.1500*
1,1,0.2000,0.3000,0.1500*
1,1,0.2000,0.3000,-0.1500*
%
%ADD22ROUNDEDRECTD22*%
G04:AMPARAMS|DCode=23|XSize=0.5mm|YSize=0.8mm|CornerRadius=0.1mm|HoleSize=0mm|Usage=FLASHONLY|Rotation=0.000|XOffset=0mm|YOffset=0mm|HoleType=Round|Shape=RoundedRectangle|*
%AMROUNDEDRECTD23*
21,1,0.5000,0.6000,0,0,0.0*
21,1,0.3000,0.8000,0,0,0.0*
1,1,0.2000,0.1500,-0.3000*
1,1,0.2000,-0.1500,-0.3000*
1,1,0.2000,-0.1500,0.3000*
1,1,0.2000,0.1500,0.3000*
%
%ADD23ROUNDEDRECTD23*%
G04:AMPARAMS|DCode=24|XSize=1.5mm|YSize=1.5mm|CornerRadius=0.075mm|HoleSize=0mm|Usage=FLASHONLY|Rotation=270.000|XOffset=0mm|YOffset=0mm|HoleType=Round|Shape=RoundedRectangle|*
%AMROUNDEDRECTD24*
21,1,1.5000,1.3500,0,0,270.0*
21,1,1.3500,1.5000,0,0,270.0*
1,1,0.1500,-0.6750,-0.6750*
1,1,0.1500,-0.6750,0.6750*
1,1,0.1500,0.6750,0.6750*
1,1,0.1500,0.6750,-0.6750*
%
%ADD24ROUNDEDRECTD24*%
%ADD25R,1.0500X1.0500*%
%ADD26R,0.7112X1.7780*%
%ADD27R,1.1500X0.6000*%
%ADD28R,0.8890X1.0160*%
G04:AMPARAMS|DCode=29|XSize=0.76mm|YSize=0.6604mm|CornerRadius=0.0825mm|HoleSize=0mm|Usage=FLASHONLY|Rotation=270.000|XOffset=0mm|YOffset=0mm|HoleType=Round|Shape=RoundedRectangle|*
%AMROUNDEDRECTD29*
21,1,0.7600,0.4953,0,0,270.0*
21,1,0.5949,0.6604,0,0,270.0*
1,1,0.1651,-0.2477,-0.2975*
1,1,0.1651,-0.2477,0.2975*
1,1,0.1651,0.2477,0.2975*
1,1,0.1651,0.2477,-0.2975*
%
%ADD29ROUNDEDRECTD29*%
%ADD30R,0.6096X1.7272*%
%ADD31R,0.7112X1.7272*%
%ADD32R,1.2700X0.3556*%
%ADD33R,0.4000X0.9000*%
%ADD34R,0.8000X0.7556*%
%ADD35R,0.7556X0.8000*%
%ADD36R,0.7874X0.3556*%
%ADD37R,1.0500X1.0500*%
%ADD38R,0.6000X0.8500*%
%ADD39R,0.4500X0.8000*%
%ADD40R,0.6000X1.2000*%
%ADD41R,0.2800X0.4100*%
%ADD42R,0.4100X0.2800*%
%ADD43R,0.9398X0.9652*%
%ADD44R,0.6500X1.0500*%
%ADD45R,1.0500X2.1999*%
%ADD46R,1.0000X1.0500*%
%ADD47R,0.9652X0.9398*%
%ADD48R,1.2000X2.2000*%
%ADD49R,0.7000X0.5000*%
%ADD50R,0.8500X0.6000*%
%ADD51R,0.5000X0.7000*%
%ADD52R,0.8000X0.9000*%
%ADD98O,1.2000X1.7000*%
%ADD99O,1.0000X1.4000*%
%ADD100C,1.5240*%
%ADD101R,2.5000X2.5000*%
%ADD102C,2.5000*%
%ADD103C,1.5000*%
%ADD104R,1.5000X1.5000*%
%ADD105C,2.9500*%
%ADD106C,4.5720*%
D20*
X250000Y58350D02*
D03*
X243500D02*
D03*
X237000D02*
D03*
X256500D02*
D03*
X263000D02*
D03*
D21*
X240375Y27600D02*
D03*
X259625D02*
D03*
D22*
X257500Y236000D02*
D03*
Y244000D02*
D03*
Y252000D02*
D03*
Y260000D02*
D03*
Y268000D02*
D03*
Y276000D02*
D03*
Y284000D02*
D03*
Y292000D02*
D03*
Y300000D02*
D03*
Y308000D02*
D03*
Y316000D02*
D03*
Y324000D02*
D03*
X144500D02*
D03*
Y316000D02*
D03*
Y308000D02*
D03*
Y300000D02*
D03*
Y292000D02*
D03*
Y284000D02*
D03*
Y276000D02*
D03*
Y268000D02*
D03*
Y260000D02*
D03*
Y252000D02*
D03*
Y244000D02*
D03*
Y236000D02*
D03*
D23*
X157000Y332000D02*
D03*
X165000D02*
D03*
X173000D02*
D03*
X181000D02*
D03*
X189000D02*
D03*
X197000D02*
D03*
X205000D02*
D03*
X213000D02*
D03*
X221000D02*
D03*
X229000D02*
D03*
X237000D02*
D03*
X245000D02*
D03*
X243750Y228000D02*
D03*
X235750D02*
D03*
X227750D02*
D03*
X219750D02*
D03*
X211750D02*
D03*
X203750D02*
D03*
X195750D02*
D03*
X187750D02*
D03*
X179750D02*
D03*
X171750D02*
D03*
X163750D02*
D03*
X155750D02*
D03*
D24*
X226000Y255000D02*
D03*
X201000D02*
D03*
X176000D02*
D03*
X226000Y280000D02*
D03*
X201000D02*
D03*
X176000D02*
D03*
X226000Y305000D02*
D03*
X201000D02*
D03*
X176000D02*
D03*
D25*
X281250Y260000D02*
D03*
X294750D02*
D03*
Y275000D02*
D03*
X281250D02*
D03*
X475750Y456000D02*
D03*
X462250D02*
D03*
X100250Y157000D02*
D03*
X113750D02*
D03*
X293750Y308000D02*
D03*
X280250D02*
D03*
X293750Y325000D02*
D03*
X280250D02*
D03*
X357250Y305000D02*
D03*
X370750D02*
D03*
X227750Y447000D02*
D03*
X214250D02*
D03*
X280730Y453000D02*
D03*
X294230D02*
D03*
X108250Y250000D02*
D03*
X121750D02*
D03*
D26*
X379050Y278160D02*
D03*
X340950D02*
D03*
X353650D02*
D03*
X366350D02*
D03*
D27*
X462500Y440500D02*
D03*
Y421500D02*
D03*
X487500Y431000D02*
D03*
D28*
X160000Y189112D02*
D03*
Y174888D02*
D03*
D29*
X294000Y341000D02*
D03*
X280000D02*
D03*
X281000Y243000D02*
D03*
X295000D02*
D03*
X280000Y290000D02*
D03*
X294000D02*
D03*
D30*
X442000Y312664D02*
D03*
X472000D02*
D03*
D31*
X457000D02*
D03*
D32*
X354940Y163250D02*
D03*
Y169750D02*
D03*
Y176250D02*
D03*
Y182750D02*
D03*
X383060D02*
D03*
Y176250D02*
D03*
Y169750D02*
D03*
Y163250D02*
D03*
D33*
X206500Y138500D02*
D03*
X219500D02*
D03*
Y119500D02*
D03*
X213000D02*
D03*
X206500D02*
D03*
D34*
X418000Y264222D02*
D03*
Y279778D02*
D03*
X489000Y327778D02*
D03*
Y312222D02*
D03*
X144000Y196778D02*
D03*
Y181222D02*
D03*
X101000Y197778D02*
D03*
Y182222D02*
D03*
D35*
X449222Y257000D02*
D03*
X464778D02*
D03*
X214778Y178000D02*
D03*
X199222D02*
D03*
X143778Y210000D02*
D03*
X128222D02*
D03*
X199222Y192000D02*
D03*
X214778D02*
D03*
D36*
X470668Y273754D02*
D03*
Y280254D02*
D03*
Y286754D02*
D03*
X449332D02*
D03*
Y280254D02*
D03*
Y273754D02*
D03*
D37*
X331000Y165250D02*
D03*
Y178750D02*
D03*
X404000Y165250D02*
D03*
Y178750D02*
D03*
X100000Y62250D02*
D03*
Y75750D02*
D03*
X157000Y499750D02*
D03*
Y486250D02*
D03*
D38*
X108500Y315000D02*
D03*
X121500D02*
D03*
D39*
X254000Y83000D02*
D03*
X246000D02*
D03*
Y99000D02*
D03*
X254000D02*
D03*
D40*
X259500Y113500D02*
D03*
X250000D02*
D03*
X240500D02*
D03*
Y138500D02*
D03*
X250000D02*
D03*
X259500D02*
D03*
X99500Y141500D02*
D03*
X118500D02*
D03*
Y116500D02*
D03*
X109000D02*
D03*
X99500D02*
D03*
D41*
X249000Y457000D02*
D03*
X254000D02*
D03*
Y440700D02*
D03*
X249000D02*
D03*
D42*
X259650Y456350D02*
D03*
Y451350D02*
D03*
Y446350D02*
D03*
Y441350D02*
D03*
X243350D02*
D03*
Y446350D02*
D03*
Y451350D02*
D03*
Y456350D02*
D03*
D43*
X128000Y182507D02*
D03*
Y197493D02*
D03*
X115000Y182507D02*
D03*
Y197493D02*
D03*
X198000Y40493D02*
D03*
Y25507D02*
D03*
D44*
X201250Y496250D02*
D03*
Y537750D02*
D03*
X222750Y496250D02*
D03*
Y537750D02*
D03*
X118250Y496250D02*
D03*
Y537750D02*
D03*
X139750Y496250D02*
D03*
Y537750D02*
D03*
D45*
X122750Y380000D02*
D03*
X93250D02*
D03*
D46*
X108000Y364750D02*
D03*
D47*
X107507Y233000D02*
D03*
X122493D02*
D03*
X121493Y335000D02*
D03*
X106507D02*
D03*
Y295000D02*
D03*
X121493D02*
D03*
D48*
X11500Y316000D02*
D03*
X78500D02*
D03*
D49*
X145000Y128250D02*
D03*
Y135750D02*
D03*
D50*
X242000Y499500D02*
D03*
Y486500D02*
D03*
D51*
X106750Y94000D02*
D03*
X99250D02*
D03*
D52*
X121250Y266000D02*
D03*
X108750D02*
D03*
D98*
X277250Y30100D02*
D03*
X222750D02*
D03*
D99*
X274250Y60400D02*
D03*
X225750D02*
D03*
D100*
X416400Y328000D02*
D03*
X365600D02*
D03*
X391000Y455000D02*
D03*
X416400D02*
D03*
D101*
X468000Y231000D02*
D03*
D102*
X418000D02*
D03*
D103*
X290200Y538000D02*
D03*
X341000D02*
D03*
X315600D02*
D03*
D104*
X366400D02*
D03*
D105*
X170000Y447350D02*
D03*
Y523550D02*
D03*
X170000Y108650D02*
D03*
Y32450D02*
D03*
D106*
X251300Y181500D02*
D03*
Y381500D02*
D03*
M02*
