G04*
G04 #@! TF.GenerationSoftware,Altium Limited,Altium Designer,21.6.1 (37)*
G04*
G04 Layer_Color=2752767*
%FSLAX44Y44*%
%MOMM*%
G71*
G04*
G04 #@! TF.SameCoordinates,B851BBA7-0067-4132-B97B-CCB3C962BE8E*
G04*
G04*
G04 #@! TF.FilePolarity,Positive*
G04*
G01*
G75*
%ADD120C,0.0508*%
%ADD121C,0.0677*%
D120*
X210595Y609139D02*
Y613203D01*
X214659D01*
Y609139D01*
X210595D01*
X62568Y49415D02*
X60536Y53479D01*
X64600D01*
X62568Y49415D01*
X176368D02*
X174336Y53479D01*
X178400D01*
X176368Y49415D01*
X207900Y198218D02*
X208916Y199234D01*
X209932D01*
X208916Y200250D01*
X209932Y201266D01*
X208916D01*
X207900Y202282D01*
X206884Y201266D01*
X205868D01*
X206884Y200250D01*
X205868Y199234D01*
X206884D01*
X207900Y198218D01*
X175568Y195218D02*
X176584Y197250D01*
X175568Y199282D01*
X177600Y198266D01*
X179632Y199282D01*
X178616Y197250D01*
X179632Y195218D01*
X177600Y196234D01*
X175568Y195218D01*
Y146718D02*
X176584Y148750D01*
X175568Y150782D01*
X177600Y149766D01*
X179632Y150782D01*
X178616Y148750D01*
X179632Y146718D01*
X177600Y147734D01*
X175568Y146718D01*
X207900Y143718D02*
X208916Y144734D01*
X209932D01*
X208916Y145750D01*
X209932Y146766D01*
X208916D01*
X207900Y147782D01*
X206884Y146766D01*
X205868D01*
X206884Y145750D01*
X205868Y144734D01*
X206884D01*
X207900Y143718D01*
X105223Y275581D02*
Y274565D01*
X107255D01*
Y275581D01*
X108271D01*
Y277613D01*
X107255D01*
Y278629D01*
X105223D01*
Y277613D01*
X104207D01*
Y275581D01*
X105223D01*
X94149Y282035D02*
Y281019D01*
X96181D01*
Y282035D01*
X97197D01*
Y284067D01*
X96181D01*
Y285083D01*
X94149D01*
Y284067D01*
X93133D01*
Y282035D01*
X94149D01*
X48008Y411607D02*
Y410591D01*
X50040D01*
Y411607D01*
X51056D01*
Y413639D01*
X50040D01*
Y414655D01*
X48008D01*
Y413639D01*
X46992D01*
Y411607D01*
X48008D01*
X223844Y505984D02*
Y504968D01*
X225876D01*
Y505984D01*
X226892D01*
Y508016D01*
X225876D01*
Y509032D01*
X223844D01*
Y508016D01*
X222828D01*
Y505984D01*
X223844D01*
X216224Y490744D02*
Y489728D01*
X218256D01*
Y490744D01*
X219272D01*
Y492776D01*
X218256D01*
Y493792D01*
X216224D01*
Y492776D01*
X215208D01*
Y490744D01*
X216224D01*
X223844Y475504D02*
Y474488D01*
X225876D01*
Y475504D01*
X226892D01*
Y477536D01*
X225876D01*
Y478552D01*
X223844D01*
Y477536D01*
X222828D01*
Y475504D01*
X223844D01*
X216224Y460264D02*
Y459248D01*
X218256D01*
Y460264D01*
X219272D01*
Y462296D01*
X218256D01*
Y463312D01*
X216224D01*
Y462296D01*
X215208D01*
Y460264D01*
X216224D01*
X223844Y445024D02*
Y444008D01*
X225876D01*
Y445024D01*
X226892D01*
Y447056D01*
X225876D01*
Y448072D01*
X223844D01*
Y447056D01*
X222828D01*
Y445024D01*
X223844D01*
X216224Y429784D02*
Y428768D01*
X218256D01*
Y429784D01*
X219272D01*
Y431816D01*
X218256D01*
Y432832D01*
X216224D01*
Y431816D01*
X215208D01*
Y429784D01*
X216224D01*
X223844Y414544D02*
Y413528D01*
X225876D01*
Y414544D01*
X226892D01*
Y416576D01*
X225876D01*
Y417592D01*
X223844D01*
Y416576D01*
X222828D01*
Y414544D01*
X223844D01*
X216224Y399304D02*
Y398288D01*
X218256D01*
Y399304D01*
X219272D01*
Y401336D01*
X218256D01*
Y402352D01*
X216224D01*
Y401336D01*
X215208D01*
Y399304D01*
X216224D01*
X223844Y384064D02*
Y383048D01*
X225876D01*
Y384064D01*
X226892D01*
Y386096D01*
X225876D01*
Y387112D01*
X223844D01*
Y386096D01*
X222828D01*
Y384064D01*
X223844D01*
X216224Y368824D02*
Y367808D01*
X218256D01*
Y368824D01*
X219272D01*
Y370856D01*
X218256D01*
Y371872D01*
X216224D01*
Y370856D01*
X215208D01*
Y368824D01*
X216224D01*
X223844Y353584D02*
Y352568D01*
X225876D01*
Y353584D01*
X226892D01*
Y355616D01*
X225876D01*
Y356632D01*
X223844D01*
Y355616D01*
X222828D01*
Y353584D01*
X223844D01*
X216224Y338344D02*
Y337328D01*
X218256D01*
Y338344D01*
X219272D01*
Y340376D01*
X218256D01*
Y341392D01*
X216224D01*
Y340376D01*
X215208D01*
Y338344D01*
X216224D01*
X223844Y323104D02*
Y322088D01*
X225876D01*
Y323104D01*
X226892D01*
Y325136D01*
X225876D01*
Y326152D01*
X223844D01*
Y325136D01*
X222828D01*
Y323104D01*
X223844D01*
X216224Y307864D02*
Y306848D01*
X218256D01*
Y307864D01*
X219272D01*
Y309896D01*
X218256D01*
Y310912D01*
X216224D01*
Y309896D01*
X215208D01*
Y307864D01*
X216224D01*
X223844Y292624D02*
Y291608D01*
X225876D01*
Y292624D01*
X226892D01*
Y294656D01*
X225876D01*
Y295672D01*
X223844D01*
Y294656D01*
X222828D01*
Y292624D01*
X223844D01*
X216224Y277384D02*
Y276368D01*
X218256D01*
Y277384D01*
X219272D01*
Y279416D01*
X218256D01*
Y280432D01*
X216224D01*
Y279416D01*
X215208D01*
Y277384D01*
X216224D01*
X223844Y262144D02*
Y261128D01*
X225876D01*
Y262144D01*
X226892D01*
Y264176D01*
X225876D01*
Y265192D01*
X223844D01*
Y264176D01*
X222828D01*
Y262144D01*
X223844D01*
X216224Y246904D02*
Y245888D01*
X218256D01*
Y246904D01*
X219272D01*
Y248936D01*
X218256D01*
Y249952D01*
X216224D01*
Y248936D01*
X215208D01*
Y246904D01*
X216224D01*
X223844Y231664D02*
Y230648D01*
X225876D01*
Y231664D01*
X226892D01*
Y233696D01*
X225876D01*
Y234712D01*
X223844D01*
Y233696D01*
X222828D01*
Y231664D01*
X223844D01*
Y201184D02*
Y200168D01*
X225876D01*
Y201184D01*
X226892D01*
Y203216D01*
X225876D01*
Y204232D01*
X223844D01*
Y203216D01*
X222828D01*
Y201184D01*
X223844D01*
Y140224D02*
Y139208D01*
X225876D01*
Y140224D01*
X226892D01*
Y142256D01*
X225876D01*
Y143272D01*
X223844D01*
Y142256D01*
X222828D01*
Y140224D01*
X223844D01*
X216224Y33544D02*
Y32528D01*
X218256D01*
Y33544D01*
X219272D01*
Y35576D01*
X218256D01*
Y36592D01*
X216224D01*
Y35576D01*
X215208D01*
Y33544D01*
X216224D01*
X223844Y18304D02*
Y17288D01*
X225876D01*
Y18304D01*
X226892D01*
Y20336D01*
X225876D01*
Y21352D01*
X223844D01*
Y20336D01*
X222828D01*
Y18304D01*
X223844D01*
X208604Y505984D02*
Y504968D01*
X210636D01*
Y505984D01*
X211652D01*
Y508016D01*
X210636D01*
Y509032D01*
X208604D01*
Y508016D01*
X207588D01*
Y505984D01*
X208604D01*
X200984Y490744D02*
Y489728D01*
X203016D01*
Y490744D01*
X204032D01*
Y492776D01*
X203016D01*
Y493792D01*
X200984D01*
Y492776D01*
X199968D01*
Y490744D01*
X200984D01*
X208604Y475504D02*
Y474488D01*
X210636D01*
Y475504D01*
X211652D01*
Y477536D01*
X210636D01*
Y478552D01*
X208604D01*
Y477536D01*
X207588D01*
Y475504D01*
X208604D01*
Y18304D02*
Y17288D01*
X210636D01*
Y18304D01*
X211652D01*
Y20336D01*
X210636D01*
Y21352D01*
X208604D01*
Y20336D01*
X207588D01*
Y18304D01*
X208604D01*
X185744Y551704D02*
Y550688D01*
X187776D01*
Y551704D01*
X188792D01*
Y553736D01*
X187776D01*
Y554752D01*
X185744D01*
Y553736D01*
X184728D01*
Y551704D01*
X185744D01*
Y521224D02*
Y520208D01*
X187776D01*
Y521224D01*
X188792D01*
Y523256D01*
X187776D01*
Y524272D01*
X185744D01*
Y523256D01*
X184728D01*
Y521224D01*
X185744D01*
X193364Y505984D02*
Y504968D01*
X195396D01*
Y505984D01*
X196412D01*
Y508016D01*
X195396D01*
Y509032D01*
X193364D01*
Y508016D01*
X192348D01*
Y505984D01*
X193364D01*
X185744Y399304D02*
Y398288D01*
X187776D01*
Y399304D01*
X188792D01*
Y401336D01*
X187776D01*
Y402352D01*
X185744D01*
Y401336D01*
X184728D01*
Y399304D01*
X185744D01*
Y368824D02*
Y367808D01*
X187776D01*
Y368824D01*
X188792D01*
Y370856D01*
X187776D01*
Y371872D01*
X185744D01*
Y370856D01*
X184728D01*
Y368824D01*
X185744D01*
Y338344D02*
Y337328D01*
X187776D01*
Y338344D01*
X188792D01*
Y340376D01*
X187776D01*
Y341392D01*
X185744D01*
Y340376D01*
X184728D01*
Y338344D01*
X185744D01*
Y307864D02*
Y306848D01*
X187776D01*
Y307864D01*
X188792D01*
Y309896D01*
X187776D01*
Y310912D01*
X185744D01*
Y309896D01*
X184728D01*
Y307864D01*
X185744D01*
Y277384D02*
Y276368D01*
X187776D01*
Y277384D01*
X188792D01*
Y279416D01*
X187776D01*
Y280432D01*
X185744D01*
Y279416D01*
X184728D01*
Y277384D01*
X185744D01*
X170504Y551704D02*
Y550688D01*
X172536D01*
Y551704D01*
X173552D01*
Y553736D01*
X172536D01*
Y554752D01*
X170504D01*
Y553736D01*
X169488D01*
Y551704D01*
X170504D01*
X178124Y414544D02*
Y413528D01*
X180156D01*
Y414544D01*
X181172D01*
Y416576D01*
X180156D01*
Y417592D01*
X178124D01*
Y416576D01*
X177108D01*
Y414544D01*
X178124D01*
X170504Y399304D02*
Y398288D01*
X172536D01*
Y399304D01*
X173552D01*
Y401336D01*
X172536D01*
Y402352D01*
X170504D01*
Y401336D01*
X169488D01*
Y399304D01*
X170504D01*
X178124Y384064D02*
Y383048D01*
X180156D01*
Y384064D01*
X181172D01*
Y386096D01*
X180156D01*
Y387112D01*
X178124D01*
Y386096D01*
X177108D01*
Y384064D01*
X178124D01*
X170504Y368824D02*
Y367808D01*
X172536D01*
Y368824D01*
X173552D01*
Y370856D01*
X172536D01*
Y371872D01*
X170504D01*
Y370856D01*
X169488D01*
Y368824D01*
X170504D01*
X178124Y353584D02*
Y352568D01*
X180156D01*
Y353584D01*
X181172D01*
Y355616D01*
X180156D01*
Y356632D01*
X178124D01*
Y355616D01*
X177108D01*
Y353584D01*
X178124D01*
X170504Y338344D02*
Y337328D01*
X172536D01*
Y338344D01*
X173552D01*
Y340376D01*
X172536D01*
Y341392D01*
X170504D01*
Y340376D01*
X169488D01*
Y338344D01*
X170504D01*
X178124Y323104D02*
Y322088D01*
X180156D01*
Y323104D01*
X181172D01*
Y325136D01*
X180156D01*
Y326152D01*
X178124D01*
Y325136D01*
X177108D01*
Y323104D01*
X178124D01*
X170504Y307864D02*
Y306848D01*
X172536D01*
Y307864D01*
X173552D01*
Y309896D01*
X172536D01*
Y310912D01*
X170504D01*
Y309896D01*
X169488D01*
Y307864D01*
X170504D01*
X178124Y292624D02*
Y291608D01*
X180156D01*
Y292624D01*
X181172D01*
Y294656D01*
X180156D01*
Y295672D01*
X178124D01*
Y294656D01*
X177108D01*
Y292624D01*
X178124D01*
X170504Y277384D02*
Y276368D01*
X172536D01*
Y277384D01*
X173552D01*
Y279416D01*
X172536D01*
Y280432D01*
X170504D01*
Y279416D01*
X169488D01*
Y277384D01*
X170504D01*
X178124Y262144D02*
Y261128D01*
X180156D01*
Y262144D01*
X181172D01*
Y264176D01*
X180156D01*
Y265192D01*
X178124D01*
Y264176D01*
X177108D01*
Y262144D01*
X178124D01*
X170504Y124984D02*
Y123968D01*
X172536D01*
Y124984D01*
X173552D01*
Y127016D01*
X172536D01*
Y128032D01*
X170504D01*
Y127016D01*
X169488D01*
Y124984D01*
X170504D01*
X178124Y79264D02*
Y78248D01*
X180156D01*
Y79264D01*
X181172D01*
Y81296D01*
X180156D01*
Y82312D01*
X178124D01*
Y81296D01*
X177108D01*
Y79264D01*
X178124D01*
X170504Y64024D02*
Y63008D01*
X172536D01*
Y64024D01*
X173552D01*
Y66056D01*
X172536D01*
Y67072D01*
X170504D01*
Y66056D01*
X169488D01*
Y64024D01*
X170504D01*
X162884Y505984D02*
Y504968D01*
X164916D01*
Y505984D01*
X165932D01*
Y508016D01*
X164916D01*
Y509032D01*
X162884D01*
Y508016D01*
X161868D01*
Y505984D01*
X162884D01*
Y79264D02*
Y78248D01*
X164916D01*
Y79264D01*
X165932D01*
Y81296D01*
X164916D01*
Y82312D01*
X162884D01*
Y81296D01*
X161868D01*
Y79264D01*
X162884D01*
Y18304D02*
Y17288D01*
X164916D01*
Y18304D01*
X165932D01*
Y20336D01*
X164916D01*
Y21352D01*
X162884D01*
Y20336D01*
X161868D01*
Y18304D01*
X162884D01*
X140024Y551704D02*
Y550688D01*
X142056D01*
Y551704D01*
X143072D01*
Y553736D01*
X142056D01*
Y554752D01*
X140024D01*
Y553736D01*
X139008D01*
Y551704D01*
X140024D01*
X147644Y505984D02*
Y504968D01*
X149676D01*
Y505984D01*
X150692D01*
Y508016D01*
X149676D01*
Y509032D01*
X147644D01*
Y508016D01*
X146628D01*
Y505984D01*
X147644D01*
X140024Y185944D02*
Y184928D01*
X142056D01*
Y185944D01*
X143072D01*
Y187976D01*
X142056D01*
Y188992D01*
X140024D01*
Y187976D01*
X139008D01*
Y185944D01*
X140024D01*
Y94504D02*
Y93488D01*
X142056D01*
Y94504D01*
X143072D01*
Y96536D01*
X142056D01*
Y97552D01*
X140024D01*
Y96536D01*
X139008D01*
Y94504D01*
X140024D01*
Y33544D02*
Y32528D01*
X142056D01*
Y33544D01*
X143072D01*
Y35576D01*
X142056D01*
Y36592D01*
X140024D01*
Y35576D01*
X139008D01*
Y33544D01*
X140024D01*
X124784Y551704D02*
Y550688D01*
X126816D01*
Y551704D01*
X127832D01*
Y553736D01*
X126816D01*
Y554752D01*
X124784D01*
Y553736D01*
X123768D01*
Y551704D01*
X124784D01*
X132404Y536464D02*
Y535448D01*
X134436D01*
Y536464D01*
X135452D01*
Y538496D01*
X134436D01*
Y539512D01*
X132404D01*
Y538496D01*
X131388D01*
Y536464D01*
X132404D01*
Y505984D02*
Y504968D01*
X134436D01*
Y505984D01*
X135452D01*
Y508016D01*
X134436D01*
Y509032D01*
X132404D01*
Y508016D01*
X131388D01*
Y505984D01*
X132404D01*
X124784Y94504D02*
Y93488D01*
X126816D01*
Y94504D01*
X127832D01*
Y96536D01*
X126816D01*
Y97552D01*
X124784D01*
Y96536D01*
X123768D01*
Y94504D01*
X124784D01*
X117164Y505984D02*
Y504968D01*
X119196D01*
Y505984D01*
X120212D01*
Y508016D01*
X119196D01*
Y509032D01*
X117164D01*
Y508016D01*
X116148D01*
Y505984D01*
X117164D01*
X109544Y94504D02*
Y93488D01*
X111576D01*
Y94504D01*
X112592D01*
Y96536D01*
X111576D01*
Y97552D01*
X109544D01*
Y96536D01*
X108528D01*
Y94504D01*
X109544D01*
Y33544D02*
Y32528D01*
X111576D01*
Y33544D01*
X112592D01*
Y35576D01*
X111576D01*
Y36592D01*
X109544D01*
Y35576D01*
X108528D01*
Y33544D01*
X109544D01*
X117164Y18304D02*
Y17288D01*
X119196D01*
Y18304D01*
X120212D01*
Y20336D01*
X119196D01*
Y21352D01*
X117164D01*
Y20336D01*
X116148D01*
Y18304D01*
X117164D01*
X101924Y505984D02*
Y504968D01*
X103956D01*
Y505984D01*
X104972D01*
Y508016D01*
X103956D01*
Y509032D01*
X101924D01*
Y508016D01*
X100908D01*
Y505984D01*
X101924D01*
X94304Y368824D02*
Y367808D01*
X96336D01*
Y368824D01*
X97352D01*
Y370856D01*
X96336D01*
Y371872D01*
X94304D01*
Y370856D01*
X93288D01*
Y368824D01*
X94304D01*
Y94504D02*
Y93488D01*
X96336D01*
Y94504D01*
X97352D01*
Y96536D01*
X96336D01*
Y97552D01*
X94304D01*
Y96536D01*
X93288D01*
Y94504D01*
X94304D01*
Y33544D02*
Y32528D01*
X96336D01*
Y33544D01*
X97352D01*
Y35576D01*
X96336D01*
Y36592D01*
X94304D01*
Y35576D01*
X93288D01*
Y33544D01*
X94304D01*
X86684Y505984D02*
Y504968D01*
X88716D01*
Y505984D01*
X89732D01*
Y508016D01*
X88716D01*
Y509032D01*
X86684D01*
Y508016D01*
X85668D01*
Y505984D01*
X86684D01*
X79064Y368824D02*
Y367808D01*
X81096D01*
Y368824D01*
X82112D01*
Y370856D01*
X81096D01*
Y371872D01*
X79064D01*
Y370856D01*
X78048D01*
Y368824D01*
X79064D01*
X86684Y292624D02*
Y291608D01*
X88716D01*
Y292624D01*
X89732D01*
Y294656D01*
X88716D01*
Y295672D01*
X86684D01*
Y294656D01*
X85668D01*
Y292624D01*
X86684D01*
X63824Y33544D02*
Y32528D01*
X65856D01*
Y33544D01*
X66872D01*
Y35576D01*
X65856D01*
Y36592D01*
X63824D01*
Y35576D01*
X62808D01*
Y33544D01*
X63824D01*
X56204Y353584D02*
Y352568D01*
X58236D01*
Y353584D01*
X59252D01*
Y355616D01*
X58236D01*
Y356632D01*
X56204D01*
Y355616D01*
X55188D01*
Y353584D01*
X56204D01*
X48584Y155464D02*
Y154448D01*
X50616D01*
Y155464D01*
X51632D01*
Y157496D01*
X50616D01*
Y158512D01*
X48584D01*
Y157496D01*
X47568D01*
Y155464D01*
X48584D01*
Y124984D02*
Y123968D01*
X50616D01*
Y124984D01*
X51632D01*
Y127016D01*
X50616D01*
Y128032D01*
X48584D01*
Y127016D01*
X47568D01*
Y124984D01*
X48584D01*
Y64024D02*
Y63008D01*
X50616D01*
Y64024D01*
X51632D01*
Y66056D01*
X50616D01*
Y67072D01*
X48584D01*
Y66056D01*
X47568D01*
Y64024D01*
X48584D01*
Y33544D02*
Y32528D01*
X50616D01*
Y33544D01*
X51632D01*
Y35576D01*
X50616D01*
Y36592D01*
X48584D01*
Y35576D01*
X47568D01*
Y33544D01*
X48584D01*
X56204Y18304D02*
Y17288D01*
X58236D01*
Y18304D01*
X59252D01*
Y20336D01*
X58236D01*
Y21352D01*
X56204D01*
Y20336D01*
X55188D01*
Y18304D01*
X56204D01*
X40964Y536464D02*
Y535448D01*
X42996D01*
Y536464D01*
X44012D01*
Y538496D01*
X42996D01*
Y539512D01*
X40964D01*
Y538496D01*
X39948D01*
Y536464D01*
X40964D01*
X33344Y460264D02*
Y459248D01*
X35376D01*
Y460264D01*
X36392D01*
Y462296D01*
X35376D01*
Y463312D01*
X33344D01*
Y462296D01*
X32328D01*
Y460264D01*
X33344D01*
X40964Y262144D02*
Y261128D01*
X42996D01*
Y262144D01*
X44012D01*
Y264176D01*
X42996D01*
Y265192D01*
X40964D01*
Y264176D01*
X39948D01*
Y262144D01*
X40964D01*
X33344Y246904D02*
Y245888D01*
X35376D01*
Y246904D01*
X36392D01*
Y248936D01*
X35376D01*
Y249952D01*
X33344D01*
Y248936D01*
X32328D01*
Y246904D01*
X33344D01*
X40964Y170704D02*
Y169688D01*
X42996D01*
Y170704D01*
X44012D01*
Y172736D01*
X42996D01*
Y173752D01*
X40964D01*
Y172736D01*
X39948D01*
Y170704D01*
X40964D01*
Y48784D02*
Y47768D01*
X42996D01*
Y48784D01*
X44012D01*
Y50816D01*
X42996D01*
Y51832D01*
X40964D01*
Y50816D01*
X39948D01*
Y48784D01*
X40964D01*
X33344Y33544D02*
Y32528D01*
X35376D01*
Y33544D01*
X36392D01*
Y35576D01*
X35376D01*
Y36592D01*
X33344D01*
Y35576D01*
X32328D01*
Y33544D01*
X33344D01*
X40964Y18304D02*
Y17288D01*
X42996D01*
Y18304D01*
X44012D01*
Y20336D01*
X42996D01*
Y21352D01*
X40964D01*
Y20336D01*
X39948D01*
Y18304D01*
X40964D01*
X18104Y551704D02*
Y550688D01*
X20136D01*
Y551704D01*
X21152D01*
Y553736D01*
X20136D01*
Y554752D01*
X18104D01*
Y553736D01*
X17088D01*
Y551704D01*
X18104D01*
X25724Y475504D02*
Y474488D01*
X27756D01*
Y475504D01*
X28772D01*
Y477536D01*
X27756D01*
Y478552D01*
X25724D01*
Y477536D01*
X24708D01*
Y475504D01*
X25724D01*
Y445024D02*
Y444008D01*
X27756D01*
Y445024D01*
X28772D01*
Y447056D01*
X27756D01*
Y448072D01*
X25724D01*
Y447056D01*
X24708D01*
Y445024D01*
X25724D01*
Y323104D02*
Y322088D01*
X27756D01*
Y323104D01*
X28772D01*
Y325136D01*
X27756D01*
Y326152D01*
X25724D01*
Y325136D01*
X24708D01*
Y323104D01*
X25724D01*
X18104Y277384D02*
Y276368D01*
X20136D01*
Y277384D01*
X21152D01*
Y279416D01*
X20136D01*
Y280432D01*
X18104D01*
Y279416D01*
X17088D01*
Y277384D01*
X18104D01*
Y246904D02*
Y245888D01*
X20136D01*
Y246904D01*
X21152D01*
Y248936D01*
X20136D01*
Y249952D01*
X18104D01*
Y248936D01*
X17088D01*
Y246904D01*
X18104D01*
Y155464D02*
Y154448D01*
X20136D01*
Y155464D01*
X21152D01*
Y157496D01*
X20136D01*
Y158512D01*
X18104D01*
Y157496D01*
X17088D01*
Y155464D01*
X18104D01*
Y124984D02*
Y123968D01*
X20136D01*
Y124984D01*
X21152D01*
Y127016D01*
X20136D01*
Y128032D01*
X18104D01*
Y127016D01*
X17088D01*
Y124984D01*
X18104D01*
Y94504D02*
Y93488D01*
X20136D01*
Y94504D01*
X21152D01*
Y96536D01*
X20136D01*
Y97552D01*
X18104D01*
Y96536D01*
X17088D01*
Y94504D01*
X18104D01*
Y64024D02*
Y63008D01*
X20136D01*
Y64024D01*
X21152D01*
Y66056D01*
X20136D01*
Y67072D01*
X18104D01*
Y66056D01*
X17088D01*
Y64024D01*
X18104D01*
X25724Y48784D02*
Y47768D01*
X27756D01*
Y48784D01*
X28772D01*
Y50816D01*
X27756D01*
Y51832D01*
X25724D01*
Y50816D01*
X24708D01*
Y48784D01*
X25724D01*
X18104Y33544D02*
Y32528D01*
X20136D01*
Y33544D01*
X21152D01*
Y35576D01*
X20136D01*
Y36592D01*
X18104D01*
Y35576D01*
X17088D01*
Y33544D01*
X18104D01*
X25724Y18304D02*
Y17288D01*
X27756D01*
Y18304D01*
X28772D01*
Y20336D01*
X27756D01*
Y21352D01*
X25724D01*
Y20336D01*
X24708D01*
Y18304D01*
X25724D01*
X10484Y536464D02*
Y535448D01*
X12516D01*
Y536464D01*
X13532D01*
Y538496D01*
X12516D01*
Y539512D01*
X10484D01*
Y538496D01*
X9468D01*
Y536464D01*
X10484D01*
Y292624D02*
Y291608D01*
X12516D01*
Y292624D01*
X13532D01*
Y294656D01*
X12516D01*
Y295672D01*
X10484D01*
Y294656D01*
X9468D01*
Y292624D01*
X10484D01*
Y262144D02*
Y261128D01*
X12516D01*
Y262144D01*
X13532D01*
Y264176D01*
X12516D01*
Y265192D01*
X10484D01*
Y264176D01*
X9468D01*
Y262144D01*
X10484D01*
Y231664D02*
Y230648D01*
X12516D01*
Y231664D01*
X13532D01*
Y233696D01*
X12516D01*
Y234712D01*
X10484D01*
Y233696D01*
X9468D01*
Y231664D01*
X10484D01*
Y109744D02*
Y108728D01*
X12516D01*
Y109744D01*
X13532D01*
Y111776D01*
X12516D01*
Y112792D01*
X10484D01*
Y111776D01*
X9468D01*
Y109744D01*
X10484D01*
Y79264D02*
Y78248D01*
X12516D01*
Y79264D01*
X13532D01*
Y81296D01*
X12516D01*
Y82312D01*
X10484D01*
Y81296D01*
X9468D01*
Y79264D01*
X10484D01*
Y48784D02*
Y47768D01*
X12516D01*
Y48784D01*
X13532D01*
Y50816D01*
X12516D01*
Y51832D01*
X10484D01*
Y50816D01*
X9468D01*
Y48784D01*
X10484D01*
Y18304D02*
Y17288D01*
X12516D01*
Y18304D01*
X13532D01*
Y20336D01*
X12516D01*
Y21352D01*
X10484D01*
Y20336D01*
X9468D01*
Y18304D01*
X10484D01*
X147506Y286959D02*
Y285943D01*
X149538D01*
Y286959D01*
X150554D01*
Y288991D01*
X149538D01*
Y290007D01*
X147506D01*
Y288991D01*
X146490D01*
Y286959D01*
X147506D01*
X36891Y364686D02*
Y363670D01*
X38923D01*
Y364686D01*
X39939D01*
Y366718D01*
X38923D01*
Y367734D01*
X36891D01*
Y366718D01*
X35875D01*
Y364686D01*
X36891D01*
X130094Y261831D02*
Y260815D01*
X132126D01*
Y261831D01*
X133142D01*
Y263863D01*
X132126D01*
Y264879D01*
X130094D01*
Y263863D01*
X129078D01*
Y261831D01*
X130094D01*
X48161Y450733D02*
Y449717D01*
X50193D01*
Y450733D01*
X51209D01*
Y452765D01*
X50193D01*
Y453781D01*
X48161D01*
Y452765D01*
X47145D01*
Y450733D01*
X48161D01*
X56877Y494572D02*
Y493556D01*
X58909D01*
Y494572D01*
X59925D01*
Y496604D01*
X58909D01*
Y497620D01*
X56877D01*
Y496604D01*
X55861D01*
Y494572D01*
X56877D01*
X56984Y417984D02*
Y416968D01*
X59016D01*
Y417984D01*
X60032D01*
Y420016D01*
X59016D01*
Y421032D01*
X56984D01*
Y420016D01*
X55968D01*
Y417984D01*
X56984D01*
X64339Y392984D02*
Y391968D01*
X66371D01*
Y392984D01*
X67387D01*
Y395016D01*
X66371D01*
Y396032D01*
X64339D01*
Y395016D01*
X63323D01*
Y392984D01*
X64339D01*
X62210Y479872D02*
Y478856D01*
X64243D01*
Y479872D01*
X65258D01*
Y481904D01*
X64243D01*
Y482920D01*
X62210D01*
Y481904D01*
X61195D01*
Y479872D01*
X62210D01*
X43076Y359352D02*
Y358336D01*
X45108D01*
Y359352D01*
X46124D01*
Y361384D01*
X45108D01*
Y362400D01*
X43076D01*
Y361384D01*
X42060D01*
Y359352D01*
X43076D01*
X195626Y461646D02*
Y460630D01*
X197658D01*
Y461646D01*
X198674D01*
Y463678D01*
X197658D01*
Y464694D01*
X195626D01*
Y463678D01*
X194610D01*
Y461646D01*
X195626D01*
X195257Y438121D02*
Y437105D01*
X197289D01*
Y438121D01*
X198305D01*
Y440153D01*
X197289D01*
Y441169D01*
X195257D01*
Y440153D01*
X194241D01*
Y438121D01*
X195257D01*
Y446012D02*
Y444996D01*
X197289D01*
Y446012D01*
X198305D01*
Y448044D01*
X197289D01*
Y449060D01*
X195257D01*
Y448044D01*
X194241D01*
Y446012D01*
X195257D01*
Y454201D02*
Y453185D01*
X197289D01*
Y454201D01*
X198305D01*
Y456233D01*
X197289D01*
Y457249D01*
X195257D01*
Y456233D01*
X194241D01*
Y454201D01*
X195257D01*
X129543Y85635D02*
Y84619D01*
X131575D01*
Y85635D01*
X132591D01*
Y87667D01*
X131575D01*
Y88683D01*
X129543D01*
Y87667D01*
X128527D01*
Y85635D01*
X129543D01*
X164572Y109506D02*
X165588D01*
X166604Y110522D01*
X167620Y109506D01*
X168636D01*
Y110522D01*
X167620Y111538D01*
X168636Y112554D01*
Y113570D01*
X167620D01*
X166604Y112554D01*
X165588Y113570D01*
X164572D01*
Y112554D01*
X165588Y111538D01*
X164572Y110522D01*
Y109506D01*
X182600Y233517D02*
Y232501D01*
X184632D01*
Y233517D01*
X185648D01*
Y235549D01*
X184632D01*
Y236565D01*
X182600D01*
Y235549D01*
X181584D01*
Y233517D01*
X182600D01*
X79894Y123481D02*
Y122465D01*
X81926D01*
Y123481D01*
X82942D01*
Y125513D01*
X81926D01*
Y126529D01*
X79894D01*
Y125513D01*
X78878D01*
Y123481D01*
X79894D01*
X73738Y134372D02*
Y133356D01*
X75770D01*
Y134372D01*
X76786D01*
Y136404D01*
X75770D01*
Y137420D01*
X73738D01*
Y136404D01*
X72722D01*
Y134372D01*
X73738D01*
X195984Y469984D02*
Y468968D01*
X198016D01*
Y469984D01*
X199032D01*
Y472016D01*
X198016D01*
Y473032D01*
X195984D01*
Y472016D01*
X194968D01*
Y469984D01*
X195984D01*
X46840Y227047D02*
Y226031D01*
X48872D01*
Y227047D01*
X49888D01*
Y229079D01*
X48872D01*
Y230095D01*
X46840D01*
Y229079D01*
X45824D01*
Y227047D01*
X46840D01*
X150734Y68734D02*
Y67718D01*
X152766D01*
Y68734D01*
X153782D01*
Y70766D01*
X152766D01*
Y71782D01*
X150734D01*
Y70766D01*
X149718D01*
Y68734D01*
X150734D01*
X136161Y150802D02*
Y149786D01*
X138193D01*
Y150802D01*
X139209D01*
Y152834D01*
X138193D01*
Y153850D01*
X136161D01*
Y152834D01*
X135145D01*
Y150802D01*
X136161D01*
X46662Y216751D02*
Y215735D01*
X48694D01*
Y216751D01*
X49710D01*
Y218783D01*
X48694D01*
Y219799D01*
X46662D01*
Y218783D01*
X45646D01*
Y216751D01*
X46662D01*
X65706Y326211D02*
Y325195D01*
X67738D01*
Y326211D01*
X68754D01*
Y328243D01*
X67738D01*
Y329259D01*
X65706D01*
Y328243D01*
X64690D01*
Y326211D01*
X65706D01*
X46316Y327656D02*
Y326640D01*
X48348D01*
Y327656D01*
X49364D01*
Y329688D01*
X48348D01*
Y330704D01*
X46316D01*
Y329688D01*
X45300D01*
Y327656D01*
X46316D01*
X88068Y149321D02*
Y148305D01*
X90100D01*
Y149321D01*
X91116D01*
Y151353D01*
X90100D01*
Y152369D01*
X88068D01*
Y151353D01*
X87052D01*
Y149321D01*
X88068D01*
X46915Y255856D02*
Y254840D01*
X48947D01*
Y255856D01*
X49963D01*
Y257888D01*
X48947D01*
Y258904D01*
X46915D01*
Y257888D01*
X45899D01*
Y255856D01*
X46915D01*
X137966Y287160D02*
Y286144D01*
X139998D01*
Y287160D01*
X141014D01*
Y289192D01*
X139998D01*
Y290208D01*
X137966D01*
Y289192D01*
X136950D01*
Y287160D01*
X137966D01*
X168230Y233421D02*
Y232405D01*
X170262D01*
Y233421D01*
X171278D01*
Y235453D01*
X170262D01*
Y236469D01*
X168230D01*
Y235453D01*
X167214D01*
Y233421D01*
X168230D01*
X103151Y300717D02*
Y299701D01*
X105183D01*
Y300717D01*
X106199D01*
Y302749D01*
X105183D01*
Y303765D01*
X103151D01*
Y302749D01*
X102135D01*
Y300717D01*
X103151D01*
X81984Y176984D02*
Y175968D01*
X84016D01*
Y176984D01*
X85032D01*
Y179016D01*
X84016D01*
Y180032D01*
X81984D01*
Y179016D01*
X80968D01*
Y176984D01*
X81984D01*
X135443Y134769D02*
Y133753D01*
X137476D01*
Y134769D01*
X138491D01*
Y136801D01*
X137476D01*
Y137817D01*
X135443D01*
Y136801D01*
X134427D01*
Y134769D01*
X135443D01*
X152824Y394215D02*
Y393199D01*
X154856D01*
Y394215D01*
X155872D01*
Y396247D01*
X154856D01*
Y397263D01*
X152824D01*
Y396247D01*
X151808D01*
Y394215D01*
X152824D01*
X97755Y391407D02*
Y390391D01*
X99787D01*
Y391407D01*
X100803D01*
Y393438D01*
X99787D01*
Y394454D01*
X97755D01*
Y393438D01*
X96739D01*
Y391407D01*
X97755D01*
X141426Y294064D02*
Y293048D01*
X143458D01*
Y294064D01*
X144474D01*
Y296096D01*
X143458D01*
Y297112D01*
X141426D01*
Y296096D01*
X140410D01*
Y294064D01*
X141426D01*
X128168Y111984D02*
Y110968D01*
X130200D01*
Y111984D01*
X131216D01*
Y114016D01*
X130200D01*
Y115032D01*
X128168D01*
Y114016D01*
X127152D01*
Y111984D01*
X128168D01*
X117335Y350383D02*
X119367Y352415D01*
X121399Y350383D01*
X119367Y348351D01*
X117335Y350383D01*
X131606Y286662D02*
Y285646D01*
X133638D01*
Y286662D01*
X134654D01*
Y288694D01*
X133638D01*
Y289710D01*
X131606D01*
Y288694D01*
X130590D01*
Y286662D01*
X131606D01*
X117335Y215383D02*
X119367Y217415D01*
X121399Y215383D01*
X119367Y213351D01*
X117335Y215383D01*
X82984Y63984D02*
Y62968D01*
X85016D01*
Y63984D01*
X86032D01*
Y66016D01*
X85016D01*
Y67032D01*
X82984D01*
Y66016D01*
X81968D01*
Y63984D01*
X82984D01*
X185984Y651984D02*
Y650968D01*
X188016D01*
Y651984D01*
X189032D01*
Y654016D01*
X188016D01*
Y655032D01*
X185984D01*
Y654016D01*
X184968D01*
Y651984D01*
X185984D01*
X167540Y581984D02*
Y580968D01*
X169571D01*
Y581984D01*
X170588D01*
Y584016D01*
X169571D01*
Y585032D01*
X167540D01*
Y584016D01*
X166523D01*
Y581984D01*
X167540D01*
Y651984D02*
Y650968D01*
X169571D01*
Y651984D01*
X170588D01*
Y654016D01*
X169571D01*
Y655032D01*
X167540D01*
Y654016D01*
X166523D01*
Y651984D01*
X167540D01*
X149095Y581984D02*
Y580968D01*
X151127D01*
Y581984D01*
X152143D01*
Y584016D01*
X151127D01*
Y585032D01*
X149095D01*
Y584016D01*
X148079D01*
Y581984D01*
X149095D01*
Y651984D02*
Y650968D01*
X151127D01*
Y651984D01*
X152143D01*
Y654016D01*
X151127D01*
Y655032D01*
X149095D01*
Y654016D01*
X148079D01*
Y651984D01*
X149095D01*
X130651Y581984D02*
Y580968D01*
X132683D01*
Y581984D01*
X133699D01*
Y584016D01*
X132683D01*
Y585032D01*
X130651D01*
Y584016D01*
X129635D01*
Y581984D01*
X130651D01*
Y651984D02*
Y650968D01*
X132683D01*
Y651984D01*
X133699D01*
Y654016D01*
X132683D01*
Y655032D01*
X130651D01*
Y654016D01*
X129635D01*
Y651984D01*
X130651D01*
X112206Y581984D02*
Y580968D01*
X114238D01*
Y581984D01*
X115254D01*
Y584016D01*
X114238D01*
Y585032D01*
X112206D01*
Y584016D01*
X111190D01*
Y581984D01*
X112206D01*
Y651984D02*
Y650968D01*
X114238D01*
Y651984D01*
X115254D01*
Y654016D01*
X114238D01*
Y655032D01*
X112206D01*
Y654016D01*
X111190D01*
Y651984D01*
X112206D01*
X93762Y581984D02*
Y580968D01*
X95794D01*
Y581984D01*
X96810D01*
Y584016D01*
X95794D01*
Y585032D01*
X93762D01*
Y584016D01*
X92746D01*
Y581984D01*
X93762D01*
Y651984D02*
Y650968D01*
X95794D01*
Y651984D01*
X96810D01*
Y654016D01*
X95794D01*
Y655032D01*
X93762D01*
Y654016D01*
X92746D01*
Y651984D01*
X93762D01*
X75317Y581984D02*
Y580968D01*
X77349D01*
Y581984D01*
X78365D01*
Y584016D01*
X77349D01*
Y585032D01*
X75317D01*
Y584016D01*
X74301D01*
Y581984D01*
X75317D01*
Y651984D02*
Y650968D01*
X77349D01*
Y651984D01*
X78365D01*
Y654016D01*
X77349D01*
Y655032D01*
X75317D01*
Y654016D01*
X74301D01*
Y651984D01*
X75317D01*
X56873Y581984D02*
Y580968D01*
X58905D01*
Y581984D01*
X59921D01*
Y584016D01*
X58905D01*
Y585032D01*
X56873D01*
Y584016D01*
X55857D01*
Y581984D01*
X56873D01*
Y651984D02*
Y650968D01*
X58905D01*
Y651984D01*
X59921D01*
Y654016D01*
X58905D01*
Y655032D01*
X56873D01*
Y654016D01*
X55857D01*
Y651984D01*
X56873D01*
X38428Y581984D02*
Y580968D01*
X40460D01*
Y581984D01*
X41476D01*
Y584016D01*
X40460D01*
Y585032D01*
X38428D01*
Y584016D01*
X37412D01*
Y581984D01*
X38428D01*
Y651984D02*
Y650968D01*
X40460D01*
Y651984D01*
X41476D01*
Y654016D01*
X40460D01*
Y655032D01*
X38428D01*
Y654016D01*
X37412D01*
Y651984D01*
X38428D01*
X19984Y581984D02*
Y580968D01*
X22016D01*
Y581984D01*
X23032D01*
Y584016D01*
X22016D01*
Y585032D01*
X19984D01*
Y584016D01*
X18968D01*
Y581984D01*
X19984D01*
X54984Y543984D02*
Y542968D01*
X57016D01*
Y543984D01*
X58032D01*
Y546016D01*
X57016D01*
Y547032D01*
X54984D01*
Y546016D01*
X53968D01*
Y543984D01*
X54984D01*
X75076Y538076D02*
Y537060D01*
X77108D01*
Y538076D01*
X78124D01*
Y540108D01*
X77108D01*
Y541124D01*
X75076D01*
Y540108D01*
X74060D01*
Y538076D01*
X75076D01*
X97984Y534920D02*
Y533904D01*
X100016D01*
Y534920D01*
X101032D01*
Y536952D01*
X100016D01*
Y537968D01*
X97984D01*
Y536952D01*
X96968D01*
Y534920D01*
X97984D01*
X88984Y559984D02*
Y558968D01*
X91016D01*
Y559984D01*
X92032D01*
Y562016D01*
X91016D01*
Y563032D01*
X88984D01*
Y562016D01*
X87968D01*
Y559984D01*
X88984D01*
X68984D02*
Y558968D01*
X71016D01*
Y559984D01*
X72032D01*
Y562016D01*
X71016D01*
Y563032D01*
X68984D01*
Y562016D01*
X67968D01*
Y559984D01*
X68984D01*
X31984Y524237D02*
Y523221D01*
X34016D01*
Y524237D01*
X35032D01*
Y526269D01*
X34016D01*
Y527285D01*
X31984D01*
Y526269D01*
X30968D01*
Y524237D01*
X31984D01*
X81984Y157984D02*
Y156968D01*
X84016D01*
Y157984D01*
X85032D01*
Y160016D01*
X84016D01*
Y161032D01*
X81984D01*
Y160016D01*
X80968D01*
Y157984D01*
X81984D01*
X10984Y220984D02*
Y219968D01*
X13016D01*
Y220984D01*
X14032D01*
Y223016D01*
X13016D01*
Y224032D01*
X10984D01*
Y223016D01*
X9968D01*
Y220984D01*
X10984D01*
X81984Y165984D02*
Y164968D01*
X84016D01*
Y165984D01*
X85032D01*
Y168016D01*
X84016D01*
Y169032D01*
X81984D01*
Y168016D01*
X80968D01*
Y165984D01*
X81984D01*
X129984Y167984D02*
Y166968D01*
X132016D01*
Y167984D01*
X133032D01*
Y170016D01*
X132016D01*
Y171032D01*
X129984D01*
Y170016D01*
X128968D01*
Y167984D01*
X129984D01*
D121*
X121500Y216047D02*
G03*
X121500Y216047I-2032J0D01*
G01*
Y351048D02*
G03*
X121500Y351048I-2032J0D01*
G01*
M02*
