G04*
G04 #@! TF.GenerationSoftware,Altium Limited,Altium Designer,21.6.1 (37)*
G04*
G04 Layer_Color=32768*
%FSLAX44Y44*%
%MOMM*%
G71*
G04*
G04 #@! TF.SameCoordinates,92C9E3DA-2EC7-41D8-9103-AA549F60DB15*
G04*
G04*
G04 #@! TF.FilePolarity,Positive*
G04*
G01*
G75*
G36*
X294513Y342335D02*
X294554D01*
X294601Y342329D01*
X294713Y342305D01*
X294836Y342276D01*
X294965Y342229D01*
X295094Y342164D01*
X295159Y342123D01*
X295217Y342076D01*
X295223Y342071D01*
X295229Y342065D01*
X295247Y342047D01*
X295264Y342029D01*
X295288Y342000D01*
X295317Y341965D01*
X295376Y341883D01*
X295434Y341777D01*
X295493Y341648D01*
X295540Y341501D01*
X295575Y341331D01*
X295094Y341290D01*
Y341296D01*
X295088Y341308D01*
Y341320D01*
X295082Y341343D01*
X295065Y341408D01*
X295041Y341478D01*
X295012Y341560D01*
X294971Y341642D01*
X294924Y341718D01*
X294865Y341783D01*
X294859Y341789D01*
X294836Y341806D01*
X294795Y341830D01*
X294748Y341853D01*
X294683Y341883D01*
X294607Y341906D01*
X294519Y341924D01*
X294425Y341930D01*
X294384D01*
X294343Y341924D01*
X294290Y341918D01*
X294226Y341906D01*
X294161Y341889D01*
X294091Y341865D01*
X294026Y341830D01*
X294020Y341824D01*
X293997Y341812D01*
X293962Y341789D01*
X293927Y341754D01*
X293880Y341713D01*
X293833Y341666D01*
X293786Y341613D01*
X293739Y341548D01*
X293733Y341543D01*
X293721Y341513D01*
X293698Y341472D01*
X293674Y341419D01*
X293645Y341349D01*
X293615Y341267D01*
X293586Y341173D01*
X293557Y341067D01*
Y341061D01*
X293551Y341055D01*
Y341038D01*
X293545Y341014D01*
X293533Y340956D01*
X293516Y340880D01*
X293504Y340786D01*
X293492Y340686D01*
X293486Y340574D01*
X293480Y340457D01*
Y340451D01*
Y340434D01*
Y340404D01*
Y340357D01*
X293486Y340369D01*
X293510Y340398D01*
X293545Y340439D01*
X293586Y340498D01*
X293645Y340557D01*
X293715Y340621D01*
X293797Y340686D01*
X293891Y340745D01*
X293903Y340750D01*
X293938Y340768D01*
X293991Y340791D01*
X294056Y340815D01*
X294144Y340844D01*
X294237Y340868D01*
X294343Y340885D01*
X294454Y340891D01*
X294501D01*
X294537Y340885D01*
X294584Y340880D01*
X294631Y340874D01*
X294689Y340862D01*
X294748Y340844D01*
X294883Y340803D01*
X294953Y340774D01*
X295024Y340739D01*
X295100Y340698D01*
X295170Y340645D01*
X295241Y340592D01*
X295305Y340527D01*
X295311Y340522D01*
X295323Y340510D01*
X295335Y340492D01*
X295358Y340463D01*
X295387Y340422D01*
X295417Y340381D01*
X295446Y340328D01*
X295476Y340269D01*
X295511Y340205D01*
X295540Y340134D01*
X295569Y340052D01*
X295599Y339970D01*
X295622Y339876D01*
X295634Y339776D01*
X295646Y339677D01*
X295651Y339565D01*
Y339559D01*
Y339536D01*
Y339506D01*
X295646Y339465D01*
X295640Y339413D01*
X295634Y339348D01*
X295622Y339283D01*
X295604Y339207D01*
X295564Y339055D01*
X295534Y338973D01*
X295499Y338885D01*
X295458Y338802D01*
X295405Y338726D01*
X295352Y338644D01*
X295288Y338574D01*
X295282Y338568D01*
X295270Y338556D01*
X295252Y338538D01*
X295223Y338515D01*
X295188Y338486D01*
X295141Y338450D01*
X295094Y338421D01*
X295035Y338380D01*
X294977Y338345D01*
X294906Y338315D01*
X294748Y338251D01*
X294666Y338227D01*
X294572Y338210D01*
X294478Y338198D01*
X294378Y338192D01*
X294337D01*
X294308Y338198D01*
X294279D01*
X294237Y338204D01*
X294138Y338222D01*
X294026Y338245D01*
X293903Y338286D01*
X293780Y338339D01*
X293657Y338409D01*
X293651D01*
X293645Y338421D01*
X293627Y338433D01*
X293604Y338450D01*
X293545Y338497D01*
X293469Y338562D01*
X293393Y338650D01*
X293305Y338755D01*
X293228Y338879D01*
X293158Y339020D01*
Y339025D01*
X293152Y339037D01*
X293140Y339061D01*
X293129Y339090D01*
X293117Y339131D01*
X293099Y339184D01*
X293087Y339243D01*
X293070Y339307D01*
X293052Y339383D01*
X293035Y339471D01*
X293023Y339565D01*
X293011Y339665D01*
X292999Y339776D01*
X292988Y339894D01*
X292982Y340023D01*
Y340158D01*
Y340164D01*
Y340193D01*
Y340234D01*
Y340287D01*
X292988Y340351D01*
Y340428D01*
X292994Y340516D01*
X293005Y340604D01*
X293023Y340803D01*
X293052Y341014D01*
X293093Y341214D01*
X293123Y341314D01*
X293152Y341402D01*
Y341408D01*
X293158Y341419D01*
X293170Y341443D01*
X293181Y341478D01*
X293199Y341513D01*
X293222Y341560D01*
X293281Y341660D01*
X293351Y341771D01*
X293434Y341889D01*
X293539Y342000D01*
X293657Y342100D01*
X293662D01*
X293674Y342112D01*
X293692Y342123D01*
X293715Y342135D01*
X293750Y342153D01*
X293786Y342176D01*
X293833Y342200D01*
X293880Y342217D01*
X293991Y342264D01*
X294126Y342305D01*
X294273Y342329D01*
X294437Y342340D01*
X294484D01*
X294513Y342335D01*
D02*
G37*
G36*
X297905D02*
X297957D01*
X298022Y342329D01*
X298092Y342317D01*
X298174Y342305D01*
X298345Y342276D01*
X298521Y342229D01*
X298697Y342164D01*
X298779Y342123D01*
X298861Y342076D01*
X298867Y342071D01*
X298878Y342065D01*
X298902Y342047D01*
X298925Y342024D01*
X298961Y342000D01*
X299002Y341965D01*
X299049Y341924D01*
X299096Y341877D01*
X299143Y341824D01*
X299195Y341771D01*
X299301Y341636D01*
X299401Y341478D01*
X299489Y341302D01*
Y341296D01*
X299501Y341278D01*
X299506Y341249D01*
X299524Y341214D01*
X299536Y341167D01*
X299553Y341108D01*
X299577Y341044D01*
X299594Y340973D01*
X299612Y340897D01*
X299635Y340809D01*
X299665Y340627D01*
X299688Y340422D01*
X299700Y340211D01*
Y340205D01*
Y340181D01*
Y340146D01*
X299694Y340105D01*
Y340046D01*
X299688Y339988D01*
X299682Y339911D01*
X299671Y339835D01*
X299641Y339665D01*
X299600Y339477D01*
X299542Y339289D01*
X299459Y339108D01*
X299454Y339102D01*
X299448Y339084D01*
X299436Y339061D01*
X299412Y339031D01*
X299389Y338990D01*
X299360Y338943D01*
X299283Y338838D01*
X299184Y338720D01*
X299066Y338603D01*
X298931Y338486D01*
X298773Y338386D01*
X298767Y338380D01*
X298750Y338374D01*
X298726Y338362D01*
X298697Y338345D01*
X298650Y338327D01*
X298603Y338310D01*
X298544Y338286D01*
X298480Y338263D01*
X298409Y338239D01*
X298333Y338216D01*
X298169Y338181D01*
X297981Y338151D01*
X297787Y338139D01*
X297729D01*
X297687Y338145D01*
X297635Y338151D01*
X297570Y338157D01*
X297506Y338163D01*
X297429Y338181D01*
X297271Y338216D01*
X297095Y338269D01*
X297007Y338304D01*
X296925Y338345D01*
X296843Y338397D01*
X296760Y338450D01*
X296754Y338456D01*
X296743Y338462D01*
X296719Y338480D01*
X296690Y338509D01*
X296661Y338538D01*
X296620Y338579D01*
X296579Y338626D01*
X296532Y338673D01*
X296485Y338732D01*
X296438Y338802D01*
X296385Y338873D01*
X296338Y338949D01*
X296297Y339037D01*
X296250Y339125D01*
X296215Y339219D01*
X296180Y339325D01*
X296708Y339448D01*
Y339442D01*
X296714Y339430D01*
X296725Y339407D01*
X296737Y339377D01*
X296749Y339342D01*
X296766Y339295D01*
X296813Y339201D01*
X296872Y339096D01*
X296942Y338990D01*
X297030Y338890D01*
X297124Y338802D01*
X297136Y338791D01*
X297171Y338767D01*
X297230Y338738D01*
X297306Y338697D01*
X297406Y338662D01*
X297517Y338626D01*
X297652Y338603D01*
X297799Y338597D01*
X297846D01*
X297875Y338603D01*
X297916D01*
X297963Y338609D01*
X298075Y338626D01*
X298198Y338650D01*
X298327Y338691D01*
X298462Y338750D01*
X298585Y338826D01*
X298591D01*
X298597Y338838D01*
X298638Y338867D01*
X298691Y338914D01*
X298755Y338984D01*
X298832Y339072D01*
X298902Y339172D01*
X298967Y339295D01*
X299025Y339430D01*
Y339436D01*
X299031Y339448D01*
X299037Y339465D01*
X299043Y339495D01*
X299055Y339530D01*
X299066Y339571D01*
X299084Y339671D01*
X299107Y339788D01*
X299131Y339917D01*
X299143Y340058D01*
X299148Y340211D01*
Y340216D01*
Y340234D01*
Y340263D01*
Y340299D01*
X299143Y340340D01*
Y340392D01*
X299137Y340451D01*
X299131Y340516D01*
X299113Y340657D01*
X299084Y340809D01*
X299049Y340962D01*
X299002Y341114D01*
Y341120D01*
X298996Y341132D01*
X298984Y341149D01*
X298972Y341179D01*
X298937Y341249D01*
X298884Y341331D01*
X298820Y341425D01*
X298738Y341525D01*
X298644Y341613D01*
X298532Y341695D01*
X298526D01*
X298515Y341701D01*
X298497Y341713D01*
X298474Y341724D01*
X298444Y341736D01*
X298409Y341754D01*
X298327Y341789D01*
X298221Y341824D01*
X298104Y341853D01*
X297975Y341877D01*
X297840Y341883D01*
X297799D01*
X297764Y341877D01*
X297723D01*
X297682Y341871D01*
X297576Y341848D01*
X297453Y341818D01*
X297330Y341771D01*
X297201Y341707D01*
X297136Y341672D01*
X297077Y341625D01*
X297071Y341619D01*
X297066Y341613D01*
X297048Y341595D01*
X297024Y341578D01*
X297001Y341548D01*
X296972Y341513D01*
X296936Y341478D01*
X296907Y341431D01*
X296872Y341378D01*
X296831Y341320D01*
X296796Y341261D01*
X296760Y341190D01*
X296731Y341114D01*
X296702Y341032D01*
X296672Y340944D01*
X296649Y340850D01*
X296109Y340985D01*
Y340991D01*
X296115Y341014D01*
X296127Y341050D01*
X296144Y341096D01*
X296162Y341149D01*
X296185Y341214D01*
X296215Y341284D01*
X296250Y341361D01*
X296332Y341525D01*
X296438Y341689D01*
X296502Y341771D01*
X296567Y341853D01*
X296637Y341924D01*
X296719Y341994D01*
X296725Y342000D01*
X296737Y342012D01*
X296766Y342024D01*
X296796Y342047D01*
X296843Y342076D01*
X296889Y342106D01*
X296954Y342135D01*
X297019Y342164D01*
X297095Y342200D01*
X297177Y342229D01*
X297265Y342258D01*
X297359Y342288D01*
X297459Y342311D01*
X297564Y342323D01*
X297676Y342335D01*
X297793Y342340D01*
X297858D01*
X297905Y342335D01*
D02*
G37*
G36*
X295443Y244335D02*
X295490Y244329D01*
X295543Y244323D01*
X295607Y244317D01*
X295672Y244299D01*
X295818Y244264D01*
X295965Y244211D01*
X296041Y244176D01*
X296117Y244135D01*
X296188Y244088D01*
X296258Y244035D01*
X296264Y244030D01*
X296276Y244024D01*
X296288Y244000D01*
X296311Y243977D01*
X296341Y243947D01*
X296370Y243912D01*
X296405Y243865D01*
X296434Y243812D01*
X296470Y243760D01*
X296505Y243695D01*
X296569Y243554D01*
X296622Y243390D01*
X296640Y243302D01*
X296651Y243208D01*
X296129Y243167D01*
Y243173D01*
Y243185D01*
X296123Y243202D01*
X296117Y243232D01*
X296100Y243296D01*
X296077Y243384D01*
X296041Y243472D01*
X295994Y243572D01*
X295936Y243660D01*
X295865Y243742D01*
X295854Y243748D01*
X295830Y243771D01*
X295783Y243801D01*
X295719Y243836D01*
X295648Y243871D01*
X295560Y243900D01*
X295460Y243924D01*
X295349Y243930D01*
X295314D01*
X295290Y243924D01*
X295220Y243918D01*
X295138Y243895D01*
X295038Y243865D01*
X294938Y243818D01*
X294833Y243748D01*
X294786Y243707D01*
X294739Y243660D01*
X294733Y243654D01*
X294727Y243648D01*
X294715Y243631D01*
X294698Y243613D01*
X294657Y243548D01*
X294610Y243466D01*
X294569Y243366D01*
X294527Y243243D01*
X294498Y243097D01*
X294486Y243020D01*
Y242938D01*
Y242932D01*
Y242920D01*
Y242897D01*
X294492Y242868D01*
Y242833D01*
X294498Y242791D01*
X294516Y242698D01*
X294545Y242586D01*
X294586Y242475D01*
X294645Y242369D01*
X294727Y242269D01*
Y242263D01*
X294739Y242257D01*
X294768Y242228D01*
X294821Y242187D01*
X294891Y242140D01*
X294985Y242099D01*
X295091Y242058D01*
X295214Y242029D01*
X295284Y242017D01*
X295396D01*
X295443Y242023D01*
X295501Y242029D01*
X295572Y242046D01*
X295642Y242064D01*
X295719Y242093D01*
X295795Y242128D01*
X295801Y242134D01*
X295824Y242146D01*
X295859Y242175D01*
X295906Y242205D01*
X295953Y242246D01*
X296000Y242299D01*
X296053Y242351D01*
X296094Y242416D01*
X296563Y242351D01*
X296170Y240263D01*
X294152D01*
Y240738D01*
X295777D01*
X295994Y241835D01*
X295989Y241829D01*
X295977Y241823D01*
X295959Y241812D01*
X295930Y241794D01*
X295895Y241776D01*
X295854Y241753D01*
X295760Y241706D01*
X295642Y241659D01*
X295513Y241618D01*
X295372Y241589D01*
X295302Y241577D01*
X295173D01*
X295138Y241583D01*
X295091Y241589D01*
X295038Y241595D01*
X294979Y241606D01*
X294915Y241624D01*
X294774Y241665D01*
X294698Y241694D01*
X294621Y241735D01*
X294545Y241776D01*
X294469Y241823D01*
X294398Y241882D01*
X294328Y241947D01*
X294322Y241952D01*
X294310Y241964D01*
X294293Y241982D01*
X294269Y242011D01*
X294240Y242052D01*
X294211Y242093D01*
X294175Y242146D01*
X294140Y242205D01*
X294111Y242269D01*
X294076Y242340D01*
X294046Y242422D01*
X294017Y242504D01*
X293993Y242592D01*
X293976Y242692D01*
X293964Y242791D01*
X293958Y242897D01*
Y242903D01*
Y242920D01*
Y242950D01*
X293964Y242991D01*
X293970Y243038D01*
X293976Y243091D01*
X293988Y243155D01*
X293999Y243220D01*
X294035Y243372D01*
X294093Y243531D01*
X294128Y243613D01*
X294175Y243689D01*
X294222Y243771D01*
X294281Y243848D01*
X294287Y243853D01*
X294299Y243871D01*
X294322Y243895D01*
X294352Y243924D01*
X294393Y243959D01*
X294440Y244006D01*
X294498Y244047D01*
X294563Y244094D01*
X294633Y244141D01*
X294715Y244182D01*
X294803Y244223D01*
X294897Y244264D01*
X294997Y244293D01*
X295108Y244317D01*
X295226Y244335D01*
X295349Y244340D01*
X295402D01*
X295443Y244335D01*
D02*
G37*
G36*
X298905D02*
X298957D01*
X299022Y244329D01*
X299092Y244317D01*
X299174Y244305D01*
X299345Y244276D01*
X299521Y244229D01*
X299697Y244164D01*
X299779Y244123D01*
X299861Y244076D01*
X299867Y244070D01*
X299879Y244065D01*
X299902Y244047D01*
X299925Y244024D01*
X299961Y244000D01*
X300002Y243965D01*
X300049Y243924D01*
X300096Y243877D01*
X300143Y243824D01*
X300195Y243771D01*
X300301Y243636D01*
X300401Y243478D01*
X300489Y243302D01*
Y243296D01*
X300501Y243278D01*
X300506Y243249D01*
X300524Y243214D01*
X300536Y243167D01*
X300553Y243108D01*
X300577Y243044D01*
X300594Y242973D01*
X300612Y242897D01*
X300635Y242809D01*
X300665Y242627D01*
X300688Y242422D01*
X300700Y242211D01*
Y242205D01*
Y242181D01*
Y242146D01*
X300694Y242105D01*
Y242046D01*
X300688Y241988D01*
X300682Y241911D01*
X300671Y241835D01*
X300641Y241665D01*
X300600Y241477D01*
X300542Y241289D01*
X300459Y241108D01*
X300454Y241102D01*
X300448Y241084D01*
X300436Y241061D01*
X300413Y241031D01*
X300389Y240990D01*
X300360Y240943D01*
X300283Y240838D01*
X300184Y240720D01*
X300066Y240603D01*
X299931Y240485D01*
X299773Y240386D01*
X299767Y240380D01*
X299750Y240374D01*
X299726Y240362D01*
X299697Y240345D01*
X299650Y240327D01*
X299603Y240310D01*
X299544Y240286D01*
X299480Y240263D01*
X299409Y240239D01*
X299333Y240216D01*
X299169Y240180D01*
X298981Y240151D01*
X298787Y240139D01*
X298729D01*
X298687Y240145D01*
X298635Y240151D01*
X298570Y240157D01*
X298506Y240163D01*
X298429Y240180D01*
X298271Y240216D01*
X298095Y240268D01*
X298007Y240304D01*
X297925Y240345D01*
X297843Y240397D01*
X297760Y240450D01*
X297754Y240456D01*
X297743Y240462D01*
X297719Y240480D01*
X297690Y240509D01*
X297661Y240538D01*
X297620Y240579D01*
X297579Y240626D01*
X297532Y240673D01*
X297485Y240732D01*
X297438Y240802D01*
X297385Y240873D01*
X297338Y240949D01*
X297297Y241037D01*
X297250Y241125D01*
X297215Y241219D01*
X297180Y241325D01*
X297708Y241448D01*
Y241442D01*
X297714Y241430D01*
X297725Y241407D01*
X297737Y241377D01*
X297749Y241342D01*
X297766Y241295D01*
X297813Y241201D01*
X297872Y241096D01*
X297942Y240990D01*
X298030Y240890D01*
X298124Y240802D01*
X298136Y240791D01*
X298171Y240767D01*
X298230Y240738D01*
X298306Y240697D01*
X298406Y240662D01*
X298517Y240626D01*
X298652Y240603D01*
X298799Y240597D01*
X298846D01*
X298875Y240603D01*
X298916D01*
X298963Y240609D01*
X299075Y240626D01*
X299198Y240650D01*
X299327Y240691D01*
X299462Y240750D01*
X299585Y240826D01*
X299591D01*
X299597Y240838D01*
X299638Y240867D01*
X299691Y240914D01*
X299755Y240984D01*
X299832Y241072D01*
X299902Y241172D01*
X299967Y241295D01*
X300025Y241430D01*
Y241436D01*
X300031Y241448D01*
X300037Y241465D01*
X300043Y241495D01*
X300055Y241530D01*
X300066Y241571D01*
X300084Y241671D01*
X300107Y241788D01*
X300131Y241917D01*
X300143Y242058D01*
X300148Y242211D01*
Y242216D01*
Y242234D01*
Y242263D01*
Y242299D01*
X300143Y242340D01*
Y242393D01*
X300137Y242451D01*
X300131Y242516D01*
X300113Y242656D01*
X300084Y242809D01*
X300049Y242962D01*
X300002Y243114D01*
Y243120D01*
X299996Y243132D01*
X299984Y243149D01*
X299972Y243179D01*
X299937Y243249D01*
X299884Y243331D01*
X299820Y243425D01*
X299738Y243525D01*
X299644Y243613D01*
X299532Y243695D01*
X299527D01*
X299515Y243701D01*
X299497Y243713D01*
X299474Y243724D01*
X299444Y243736D01*
X299409Y243754D01*
X299327Y243789D01*
X299221Y243824D01*
X299104Y243853D01*
X298975Y243877D01*
X298840Y243883D01*
X298799D01*
X298764Y243877D01*
X298723D01*
X298682Y243871D01*
X298576Y243848D01*
X298453Y243818D01*
X298330Y243771D01*
X298200Y243707D01*
X298136Y243671D01*
X298077Y243625D01*
X298071Y243619D01*
X298065Y243613D01*
X298048Y243595D01*
X298024Y243578D01*
X298001Y243548D01*
X297972Y243513D01*
X297936Y243478D01*
X297907Y243431D01*
X297872Y243378D01*
X297831Y243319D01*
X297796Y243261D01*
X297760Y243190D01*
X297731Y243114D01*
X297702Y243032D01*
X297672Y242944D01*
X297649Y242850D01*
X297109Y242985D01*
Y242991D01*
X297115Y243014D01*
X297127Y243050D01*
X297144Y243097D01*
X297162Y243149D01*
X297185Y243214D01*
X297215Y243284D01*
X297250Y243361D01*
X297332Y243525D01*
X297438Y243689D01*
X297502Y243771D01*
X297567Y243853D01*
X297637Y243924D01*
X297719Y243994D01*
X297725Y244000D01*
X297737Y244012D01*
X297766Y244024D01*
X297796Y244047D01*
X297843Y244076D01*
X297889Y244106D01*
X297954Y244135D01*
X298019Y244164D01*
X298095Y244200D01*
X298177Y244229D01*
X298265Y244258D01*
X298359Y244288D01*
X298459Y244311D01*
X298564Y244323D01*
X298676Y244335D01*
X298793Y244340D01*
X298858D01*
X298905Y244335D01*
D02*
G37*
G36*
X297905Y291334D02*
X297957D01*
X298022Y291329D01*
X298092Y291317D01*
X298174Y291305D01*
X298345Y291276D01*
X298521Y291229D01*
X298697Y291164D01*
X298779Y291123D01*
X298861Y291076D01*
X298867Y291070D01*
X298879Y291065D01*
X298902Y291047D01*
X298925Y291024D01*
X298961Y291000D01*
X299002Y290965D01*
X299049Y290924D01*
X299096Y290877D01*
X299143Y290824D01*
X299195Y290771D01*
X299301Y290636D01*
X299401Y290478D01*
X299489Y290302D01*
Y290296D01*
X299501Y290278D01*
X299506Y290249D01*
X299524Y290214D01*
X299536Y290167D01*
X299553Y290108D01*
X299577Y290044D01*
X299594Y289973D01*
X299612Y289897D01*
X299636Y289809D01*
X299665Y289627D01*
X299688Y289422D01*
X299700Y289210D01*
Y289205D01*
Y289181D01*
Y289146D01*
X299694Y289105D01*
Y289046D01*
X299688Y288988D01*
X299682Y288911D01*
X299671Y288835D01*
X299641Y288665D01*
X299600Y288477D01*
X299542Y288289D01*
X299459Y288107D01*
X299454Y288102D01*
X299448Y288084D01*
X299436Y288060D01*
X299412Y288031D01*
X299389Y287990D01*
X299360Y287943D01*
X299283Y287838D01*
X299184Y287720D01*
X299066Y287603D01*
X298931Y287486D01*
X298773Y287386D01*
X298767Y287380D01*
X298750Y287374D01*
X298726Y287362D01*
X298697Y287345D01*
X298650Y287327D01*
X298603Y287309D01*
X298544Y287286D01*
X298480Y287263D01*
X298409Y287239D01*
X298333Y287216D01*
X298169Y287180D01*
X297981Y287151D01*
X297787Y287139D01*
X297729D01*
X297687Y287145D01*
X297635Y287151D01*
X297570Y287157D01*
X297506Y287163D01*
X297429Y287180D01*
X297271Y287216D01*
X297095Y287268D01*
X297007Y287304D01*
X296925Y287345D01*
X296843Y287397D01*
X296760Y287450D01*
X296755Y287456D01*
X296743Y287462D01*
X296719Y287480D01*
X296690Y287509D01*
X296661Y287538D01*
X296620Y287579D01*
X296579Y287626D01*
X296532Y287673D01*
X296485Y287732D01*
X296438Y287802D01*
X296385Y287873D01*
X296338Y287949D01*
X296297Y288037D01*
X296250Y288125D01*
X296215Y288219D01*
X296180Y288325D01*
X296708Y288448D01*
Y288442D01*
X296714Y288430D01*
X296725Y288407D01*
X296737Y288377D01*
X296749Y288342D01*
X296766Y288295D01*
X296813Y288201D01*
X296872Y288096D01*
X296942Y287990D01*
X297030Y287890D01*
X297124Y287802D01*
X297136Y287791D01*
X297171Y287767D01*
X297230Y287738D01*
X297306Y287697D01*
X297406Y287662D01*
X297517Y287626D01*
X297652Y287603D01*
X297799Y287597D01*
X297846D01*
X297875Y287603D01*
X297916D01*
X297963Y287609D01*
X298075Y287626D01*
X298198Y287650D01*
X298327Y287691D01*
X298462Y287750D01*
X298585Y287826D01*
X298591D01*
X298597Y287838D01*
X298638Y287867D01*
X298691Y287914D01*
X298755Y287984D01*
X298832Y288072D01*
X298902Y288172D01*
X298967Y288295D01*
X299025Y288430D01*
Y288436D01*
X299031Y288448D01*
X299037Y288465D01*
X299043Y288495D01*
X299055Y288530D01*
X299066Y288571D01*
X299084Y288671D01*
X299107Y288788D01*
X299131Y288917D01*
X299143Y289058D01*
X299149Y289210D01*
Y289216D01*
Y289234D01*
Y289263D01*
Y289299D01*
X299143Y289340D01*
Y289392D01*
X299137Y289451D01*
X299131Y289516D01*
X299113Y289657D01*
X299084Y289809D01*
X299049Y289962D01*
X299002Y290114D01*
Y290120D01*
X298996Y290132D01*
X298984Y290149D01*
X298972Y290179D01*
X298937Y290249D01*
X298884Y290331D01*
X298820Y290425D01*
X298738Y290525D01*
X298644Y290613D01*
X298532Y290695D01*
X298526D01*
X298515Y290701D01*
X298497Y290713D01*
X298474Y290724D01*
X298444Y290736D01*
X298409Y290754D01*
X298327Y290789D01*
X298221Y290824D01*
X298104Y290853D01*
X297975Y290877D01*
X297840Y290883D01*
X297799D01*
X297764Y290877D01*
X297723D01*
X297682Y290871D01*
X297576Y290848D01*
X297453Y290818D01*
X297330Y290771D01*
X297201Y290707D01*
X297136Y290672D01*
X297077Y290625D01*
X297071Y290619D01*
X297066Y290613D01*
X297048Y290595D01*
X297024Y290578D01*
X297001Y290548D01*
X296972Y290513D01*
X296936Y290478D01*
X296907Y290431D01*
X296872Y290378D01*
X296831Y290319D01*
X296796Y290261D01*
X296760Y290190D01*
X296731Y290114D01*
X296702Y290032D01*
X296672Y289944D01*
X296649Y289850D01*
X296109Y289985D01*
Y289991D01*
X296115Y290014D01*
X296127Y290050D01*
X296144Y290096D01*
X296162Y290149D01*
X296185Y290214D01*
X296215Y290284D01*
X296250Y290361D01*
X296332Y290525D01*
X296438Y290689D01*
X296502Y290771D01*
X296567Y290853D01*
X296637Y290924D01*
X296719Y290994D01*
X296725Y291000D01*
X296737Y291012D01*
X296766Y291024D01*
X296796Y291047D01*
X296843Y291076D01*
X296889Y291106D01*
X296954Y291135D01*
X297019Y291164D01*
X297095Y291200D01*
X297177Y291229D01*
X297265Y291258D01*
X297359Y291288D01*
X297459Y291311D01*
X297564Y291323D01*
X297676Y291334D01*
X297793Y291340D01*
X297858D01*
X297905Y291334D01*
D02*
G37*
G36*
X294419D02*
X294472Y291329D01*
X294531Y291323D01*
X294595Y291311D01*
X294666Y291294D01*
X294824Y291252D01*
X294906Y291223D01*
X294983Y291194D01*
X295065Y291153D01*
X295147Y291106D01*
X295223Y291053D01*
X295294Y290988D01*
X295299Y290982D01*
X295311Y290971D01*
X295329Y290953D01*
X295352Y290924D01*
X295376Y290889D01*
X295411Y290848D01*
X295440Y290801D01*
X295476Y290742D01*
X295511Y290683D01*
X295540Y290613D01*
X295599Y290466D01*
X295622Y290378D01*
X295640Y290290D01*
X295651Y290196D01*
X295657Y290102D01*
Y290096D01*
Y290085D01*
Y290061D01*
X295651Y290038D01*
Y290003D01*
X295646Y289962D01*
X295634Y289868D01*
X295610Y289762D01*
X295575Y289657D01*
X295522Y289545D01*
X295458Y289439D01*
Y289433D01*
X295446Y289428D01*
X295423Y289398D01*
X295376Y289351D01*
X295311Y289293D01*
X295229Y289234D01*
X295129Y289170D01*
X295018Y289117D01*
X294883Y289076D01*
X294889D01*
X294895Y289070D01*
X294912Y289064D01*
X294936Y289052D01*
X294988Y289029D01*
X295059Y288993D01*
X295135Y288946D01*
X295211Y288888D01*
X295282Y288823D01*
X295346Y288753D01*
X295352Y288741D01*
X295370Y288718D01*
X295393Y288671D01*
X295417Y288612D01*
X295446Y288536D01*
X295470Y288448D01*
X295487Y288348D01*
X295493Y288242D01*
Y288237D01*
Y288225D01*
Y288201D01*
X295487Y288166D01*
X295481Y288131D01*
X295476Y288084D01*
X295452Y287984D01*
X295417Y287867D01*
X295358Y287744D01*
X295323Y287679D01*
X295282Y287615D01*
X295229Y287556D01*
X295176Y287497D01*
X295170Y287491D01*
X295159Y287486D01*
X295141Y287468D01*
X295118Y287450D01*
X295088Y287427D01*
X295047Y287403D01*
X295000Y287374D01*
X294953Y287345D01*
X294895Y287315D01*
X294830Y287286D01*
X294760Y287263D01*
X294683Y287239D01*
X294519Y287204D01*
X294425Y287198D01*
X294331Y287192D01*
X294279D01*
X294243Y287198D01*
X294196Y287204D01*
X294144Y287210D01*
X294085Y287216D01*
X294026Y287233D01*
X293885Y287268D01*
X293745Y287321D01*
X293674Y287356D01*
X293604Y287397D01*
X293539Y287450D01*
X293475Y287503D01*
X293469Y287509D01*
X293463Y287515D01*
X293445Y287533D01*
X293422Y287556D01*
X293398Y287591D01*
X293369Y287626D01*
X293310Y287714D01*
X293252Y287826D01*
X293199Y287955D01*
X293158Y288102D01*
X293152Y288178D01*
X293146Y288260D01*
Y288266D01*
Y288272D01*
Y288307D01*
X293152Y288360D01*
X293164Y288424D01*
X293181Y288507D01*
X293211Y288589D01*
X293246Y288671D01*
X293299Y288753D01*
X293305Y288765D01*
X293328Y288788D01*
X293363Y288823D01*
X293410Y288870D01*
X293475Y288923D01*
X293551Y288976D01*
X293639Y289029D01*
X293745Y289076D01*
X293739D01*
X293727Y289081D01*
X293709Y289087D01*
X293686Y289099D01*
X293615Y289128D01*
X293533Y289170D01*
X293445Y289228D01*
X293351Y289293D01*
X293263Y289375D01*
X293181Y289469D01*
Y289475D01*
X293176Y289480D01*
X293152Y289516D01*
X293117Y289574D01*
X293082Y289651D01*
X293046Y289744D01*
X293011Y289856D01*
X292988Y289979D01*
X292982Y290114D01*
Y290120D01*
Y290138D01*
Y290167D01*
X292988Y290202D01*
X292994Y290243D01*
X292999Y290296D01*
X293011Y290355D01*
X293029Y290419D01*
X293070Y290554D01*
X293099Y290630D01*
X293140Y290701D01*
X293181Y290777D01*
X293228Y290848D01*
X293287Y290918D01*
X293351Y290988D01*
X293357Y290994D01*
X293369Y291006D01*
X293387Y291024D01*
X293416Y291041D01*
X293457Y291070D01*
X293498Y291100D01*
X293551Y291129D01*
X293610Y291164D01*
X293674Y291200D01*
X293750Y291229D01*
X293833Y291258D01*
X293915Y291288D01*
X294009Y291305D01*
X294108Y291323D01*
X294208Y291334D01*
X294320Y291340D01*
X294378D01*
X294419Y291334D01*
D02*
G37*
%LPC*%
G36*
X294331Y340451D02*
X294296D01*
X294273Y340445D01*
X294208Y340439D01*
X294132Y340422D01*
X294038Y340392D01*
X293944Y340351D01*
X293850Y340293D01*
X293762Y340211D01*
X293750Y340199D01*
X293727Y340164D01*
X293692Y340111D01*
X293645Y340034D01*
X293604Y339941D01*
X293569Y339829D01*
X293545Y339694D01*
X293533Y339542D01*
Y339536D01*
Y339524D01*
Y339501D01*
X293539Y339471D01*
Y339430D01*
X293545Y339389D01*
X293563Y339295D01*
X293586Y339184D01*
X293627Y339066D01*
X293686Y338955D01*
X293762Y338855D01*
Y338849D01*
X293774Y338843D01*
X293803Y338814D01*
X293850Y338773D01*
X293915Y338726D01*
X293997Y338685D01*
X294091Y338644D01*
X294196Y338615D01*
X294255Y338603D01*
X294349D01*
X294372Y338609D01*
X294437Y338615D01*
X294513Y338638D01*
X294607Y338667D01*
X294707Y338720D01*
X294807Y338785D01*
X294853Y338832D01*
X294900Y338879D01*
Y338885D01*
X294912Y338890D01*
X294924Y338908D01*
X294936Y338926D01*
X294977Y338984D01*
X295018Y339066D01*
X295065Y339166D01*
X295106Y339289D01*
X295129Y339430D01*
X295141Y339583D01*
Y339589D01*
Y339600D01*
Y339618D01*
X295135Y339647D01*
Y339683D01*
X295129Y339718D01*
X295112Y339806D01*
X295082Y339906D01*
X295047Y340011D01*
X294988Y340117D01*
X294912Y340211D01*
X294900Y340222D01*
X294871Y340246D01*
X294818Y340287D01*
X294754Y340328D01*
X294666Y340375D01*
X294566Y340416D01*
X294454Y340439D01*
X294331Y340451D01*
D02*
G37*
G36*
X294320Y290930D02*
X294284D01*
X294261Y290924D01*
X294191Y290918D01*
X294108Y290900D01*
X294014Y290871D01*
X293915Y290836D01*
X293821Y290777D01*
X293727Y290701D01*
X293715Y290689D01*
X293692Y290660D01*
X293651Y290607D01*
X293610Y290542D01*
X293569Y290460D01*
X293528Y290361D01*
X293504Y290243D01*
X293492Y290120D01*
Y290114D01*
Y290102D01*
Y290085D01*
X293498Y290061D01*
X293504Y289997D01*
X293522Y289909D01*
X293551Y289821D01*
X293592Y289721D01*
X293651Y289621D01*
X293733Y289527D01*
X293745Y289516D01*
X293774Y289492D01*
X293827Y289451D01*
X293897Y289404D01*
X293985Y289363D01*
X294091Y289322D01*
X294208Y289299D01*
X294337Y289287D01*
X294372D01*
X294396Y289293D01*
X294460Y289299D01*
X294543Y289316D01*
X294636Y289345D01*
X294730Y289387D01*
X294830Y289445D01*
X294918Y289522D01*
X294930Y289533D01*
X294953Y289563D01*
X294988Y289615D01*
X295030Y289680D01*
X295077Y289768D01*
X295112Y289868D01*
X295135Y289979D01*
X295147Y290102D01*
Y290114D01*
Y290138D01*
X295141Y290179D01*
X295135Y290231D01*
X295123Y290296D01*
X295106Y290366D01*
X295082Y290437D01*
X295053Y290513D01*
X295047Y290519D01*
X295035Y290548D01*
X295012Y290583D01*
X294977Y290625D01*
X294936Y290677D01*
X294883Y290730D01*
X294824Y290777D01*
X294754Y290824D01*
X294742Y290830D01*
X294719Y290842D01*
X294678Y290859D01*
X294625Y290877D01*
X294560Y290895D01*
X294484Y290912D01*
X294402Y290924D01*
X294320Y290930D01*
D02*
G37*
G36*
Y288882D02*
X294308D01*
X294273Y288876D01*
X294220Y288870D01*
X294149Y288859D01*
X294073Y288835D01*
X293997Y288806D01*
X293915Y288759D01*
X293844Y288700D01*
X293839Y288694D01*
X293815Y288665D01*
X293786Y288630D01*
X293750Y288577D01*
X293715Y288512D01*
X293686Y288436D01*
X293662Y288348D01*
X293657Y288254D01*
Y288248D01*
Y288242D01*
Y288207D01*
X293668Y288154D01*
X293680Y288090D01*
X293703Y288020D01*
X293739Y287943D01*
X293786Y287867D01*
X293850Y287791D01*
X293856Y287785D01*
X293885Y287761D01*
X293927Y287732D01*
X293979Y287697D01*
X294050Y287662D01*
X294126Y287632D01*
X294220Y287609D01*
X294320Y287603D01*
X294366D01*
X294419Y287615D01*
X294490Y287626D01*
X294566Y287650D01*
X294648Y287679D01*
X294725Y287726D01*
X294801Y287791D01*
X294807Y287796D01*
X294830Y287820D01*
X294859Y287861D01*
X294889Y287914D01*
X294924Y287978D01*
X294953Y288055D01*
X294977Y288137D01*
X294983Y288231D01*
Y288237D01*
Y288242D01*
X294977Y288278D01*
X294971Y288330D01*
X294959Y288395D01*
X294936Y288471D01*
X294906Y288547D01*
X294859Y288630D01*
X294801Y288700D01*
X294795Y288706D01*
X294765Y288729D01*
X294725Y288759D01*
X294672Y288788D01*
X294601Y288823D01*
X294519Y288853D01*
X294425Y288876D01*
X294320Y288882D01*
D02*
G37*
%LPD*%
M02*
