G04*
G04 #@! TF.GenerationSoftware,Altium Limited,Altium Designer,21.6.1 (37)*
G04*
G04 Layer_Color=2752767*
%FSLAX44Y44*%
%MOMM*%
G71*
G04*
G04 #@! TF.SameCoordinates,4F178BE9-AC55-4CEC-B3A2-6D2310684F74*
G04*
G04*
G04 #@! TF.FilePolarity,Positive*
G04*
G01*
G75*
%ADD125C,0.0508*%
%ADD126C,0.0677*%
D125*
X275218Y28068D02*
Y32132D01*
X279282D01*
Y28068D01*
X275218D01*
X220718D02*
Y32132D01*
X224782D01*
Y28068D01*
X220718D01*
X416400Y325968D02*
X414368Y330032D01*
X418432D01*
X416400Y325968D01*
X365600D02*
X363568Y330032D01*
X367632D01*
X365600Y325968D01*
X391000Y452968D02*
X388968Y457032D01*
X393032D01*
X391000Y452968D01*
X416400D02*
X414368Y457032D01*
X418432D01*
X416400Y452968D01*
X468000Y228968D02*
X469016Y229984D01*
X470032D01*
X469016Y231000D01*
X470032Y232016D01*
X469016D01*
X468000Y233032D01*
X466984Y232016D01*
X465968D01*
X466984Y231000D01*
X465968Y229984D01*
X466984D01*
X468000Y228968D01*
X418000D02*
X419016Y229984D01*
X420032D01*
X419016Y231000D01*
X420032Y232016D01*
X419016D01*
X418000Y233032D01*
X416984Y232016D01*
X415968D01*
X416984Y231000D01*
X415968Y229984D01*
X416984D01*
X418000Y228968D01*
X288168Y535968D02*
X289184Y538000D01*
X288168Y540032D01*
X290200Y539016D01*
X292232Y540032D01*
X291216Y538000D01*
X292232Y535968D01*
X290200Y536984D01*
X288168Y535968D01*
X364368D02*
X365384Y538000D01*
X364368Y540032D01*
X366400Y539016D01*
X368432Y540032D01*
X367416Y538000D01*
X368432Y535968D01*
X366400Y536984D01*
X364368Y535968D01*
X338968D02*
X339984Y538000D01*
X338968Y540032D01*
X341000Y539016D01*
X343032Y540032D01*
X342016Y538000D01*
X343032Y535968D01*
X341000Y536984D01*
X338968Y535968D01*
X313568D02*
X314584Y538000D01*
X313568Y540032D01*
X315600Y539016D01*
X317632Y540032D01*
X316616Y538000D01*
X317632Y535968D01*
X315600Y536984D01*
X313568Y535968D01*
X168984Y446334D02*
Y445318D01*
X171016D01*
Y446334D01*
X172032D01*
Y448366D01*
X171016D01*
Y449382D01*
X168984D01*
Y448366D01*
X167968D01*
Y446334D01*
X168984D01*
Y522534D02*
Y521518D01*
X171016D01*
Y522534D01*
X172032D01*
Y524566D01*
X171016D01*
Y525582D01*
X168984D01*
Y524566D01*
X167968D01*
Y522534D01*
X168984D01*
X168984Y107634D02*
Y106618D01*
X171016D01*
Y107634D01*
X172032D01*
Y109666D01*
X171016D01*
Y110682D01*
X168984D01*
Y109666D01*
X167968D01*
Y107634D01*
X168984D01*
Y31434D02*
Y30418D01*
X171016D01*
Y31434D01*
X172032D01*
Y33466D01*
X171016D01*
Y34482D01*
X168984D01*
Y33466D01*
X167968D01*
Y31434D01*
X168984D01*
X249268Y179468D02*
X250284D01*
X251300Y180484D01*
X252316Y179468D01*
X253332D01*
Y180484D01*
X252316Y181500D01*
X253332Y182516D01*
Y183532D01*
X252316D01*
X251300Y182516D01*
X250284Y183532D01*
X249268D01*
Y182516D01*
X250284Y181500D01*
X249268Y180484D01*
Y179468D01*
Y381500D02*
X251300Y383532D01*
X253332Y381500D01*
X251300Y379468D01*
X249268Y381500D01*
X251968Y124380D02*
Y128444D01*
X256032D01*
Y124380D01*
X251968D01*
X252984Y125396D02*
Y127428D01*
X255016D01*
Y125396D01*
X252984D01*
X244968Y122968D02*
Y127032D01*
X249032D01*
Y122968D01*
X244968D01*
X245984Y123984D02*
Y126016D01*
X248016D01*
Y123984D01*
X245984D01*
X229968Y74968D02*
Y79032D01*
X234032D01*
Y74968D01*
X229968D01*
X230984Y75984D02*
Y78016D01*
X233016D01*
Y75984D01*
X230984D01*
X278968Y466968D02*
Y471032D01*
X283032D01*
Y466968D01*
X278968D01*
X279984Y467984D02*
Y470016D01*
X282016D01*
Y467984D01*
X279984D01*
X239189Y467189D02*
Y471253D01*
X243253D01*
Y467189D01*
X239189D01*
X240205Y468205D02*
Y470237D01*
X242237D01*
Y468205D01*
X240205D01*
X231181Y212389D02*
Y216453D01*
X235245D01*
Y212389D01*
X231181D01*
X232197Y213405D02*
Y215437D01*
X234229D01*
Y213405D01*
X232197D01*
X224539Y454539D02*
Y458603D01*
X228603D01*
Y454539D01*
X224539D01*
X225555Y455555D02*
Y457587D01*
X227587D01*
Y455555D01*
X225555D01*
X252527Y426550D02*
Y430615D01*
X256591D01*
Y426550D01*
X252527D01*
X253543Y427566D02*
Y429599D01*
X255575D01*
Y427566D01*
X253543D01*
X277968Y350968D02*
Y355032D01*
X282032D01*
Y350968D01*
X277968D01*
X278984Y351984D02*
Y354016D01*
X281016D01*
Y351984D01*
X278984D01*
X200968Y204968D02*
Y209032D01*
X205032D01*
Y204968D01*
X200968D01*
X201984Y205984D02*
Y208016D01*
X204016D01*
Y205984D01*
X201984D01*
X210968Y204968D02*
Y209032D01*
X215032D01*
Y204968D01*
X210968D01*
X211984Y205984D02*
Y208016D01*
X214016D01*
Y205984D01*
X211984D01*
X160259Y207259D02*
Y211323D01*
X164323D01*
Y207259D01*
X160259D01*
X161275Y208275D02*
Y210307D01*
X163307D01*
Y208275D01*
X161275D01*
X190248Y205170D02*
Y209234D01*
X194312D01*
Y205170D01*
X190248D01*
X191264Y206186D02*
Y208218D01*
X193296D01*
Y206186D01*
X191264D01*
X170587Y211343D02*
Y215407D01*
X174651D01*
Y211343D01*
X170587D01*
X171603Y212359D02*
Y214391D01*
X173635D01*
Y212359D01*
X171603D01*
X186968Y344968D02*
Y349032D01*
X191032D01*
Y344968D01*
X186968D01*
X187984Y345984D02*
Y348016D01*
X190016D01*
Y345984D01*
X187984D01*
X195634Y344968D02*
Y349032D01*
X199698D01*
Y344968D01*
X195634D01*
X196650Y345984D02*
Y348016D01*
X198682D01*
Y345984D01*
X196650D01*
X316968Y352968D02*
Y357032D01*
X321032D01*
Y352968D01*
X316968D01*
X317984Y353984D02*
Y356016D01*
X320016D01*
Y353984D01*
X317984D01*
X120939Y161083D02*
Y165147D01*
X125003D01*
Y161083D01*
X120939D01*
X121955Y162099D02*
Y164131D01*
X123987D01*
Y162099D01*
X121955D01*
X94172Y167954D02*
Y172018D01*
X98236D01*
Y167954D01*
X94172D01*
X95188Y168970D02*
Y171002D01*
X97220D01*
Y168970D01*
X95188D01*
X223968Y133968D02*
Y138032D01*
X228032D01*
Y133968D01*
X223968D01*
X224984Y134984D02*
Y137016D01*
X227016D01*
Y134984D01*
X224984D01*
X263968Y456968D02*
Y461032D01*
X268032D01*
Y456968D01*
X263968D01*
X264984Y457984D02*
Y460016D01*
X267016D01*
Y457984D01*
X264984D01*
X383968Y315968D02*
Y320032D01*
X388032D01*
Y315968D01*
X383968D01*
X384984Y316984D02*
Y319016D01*
X387016D01*
Y316984D01*
X384984D01*
X327968Y193968D02*
Y198032D01*
X332032D01*
Y193968D01*
X327968D01*
X328984Y194984D02*
Y197016D01*
X331016D01*
Y194984D01*
X328984D01*
X220968Y473968D02*
Y478032D01*
X225032D01*
Y473968D01*
X220968D01*
X221984Y474984D02*
Y477016D01*
X224016D01*
Y474984D01*
X221984D01*
X130968Y249968D02*
Y254032D01*
X135032D01*
Y249968D01*
X130968D01*
X131984Y250984D02*
Y253016D01*
X134016D01*
Y250984D01*
X131984D01*
X153968Y467968D02*
Y472032D01*
X158032D01*
Y467968D01*
X153968D01*
X154984Y468984D02*
Y471016D01*
X157016D01*
Y468984D01*
X154984D01*
X446968Y241968D02*
Y246032D01*
X451032D01*
Y241968D01*
X446968D01*
X447984Y242984D02*
Y245016D01*
X450016D01*
Y242984D01*
X447984D01*
X242968Y426968D02*
Y431032D01*
X247032D01*
Y426968D01*
X242968D01*
X243984Y427984D02*
Y430016D01*
X246016D01*
Y427984D01*
X243984D01*
X141968Y215968D02*
Y220032D01*
X146032D01*
Y215968D01*
X141968D01*
X142984Y216984D02*
Y219016D01*
X145016D01*
Y216984D01*
X142984D01*
X184968Y182968D02*
Y187032D01*
X189032D01*
Y182968D01*
X184968D01*
X185984Y183984D02*
Y186016D01*
X188016D01*
Y183984D01*
X185984D01*
X355968Y194968D02*
Y199032D01*
X360032D01*
Y194968D01*
X355968D01*
X356984Y195984D02*
Y198016D01*
X359016D01*
Y195984D01*
X356984D01*
X383968Y302968D02*
Y307032D01*
X388032D01*
Y302968D01*
X383968D01*
X384984Y303984D02*
Y306016D01*
X387016D01*
Y303984D01*
X384984D01*
X338968Y303968D02*
Y308032D01*
X343032D01*
Y303968D01*
X338968D01*
X339984Y304984D02*
Y307016D01*
X342016D01*
Y304984D01*
X339984D01*
X186968Y545968D02*
Y550032D01*
X191032D01*
Y545968D01*
X186968D01*
X187984Y546984D02*
Y549016D01*
X190016D01*
Y546984D01*
X187984D01*
X251468Y465968D02*
Y470032D01*
X255532D01*
Y465968D01*
X251468D01*
X252484Y466984D02*
Y469016D01*
X254516D01*
Y466984D01*
X252484D01*
X125968Y167968D02*
Y172032D01*
X130032D01*
Y167968D01*
X125968D01*
X126984Y168984D02*
Y171016D01*
X129016D01*
Y168984D01*
X126984D01*
X341968Y194968D02*
Y199032D01*
X346032D01*
Y194968D01*
X341968D01*
X342984Y195984D02*
Y198016D01*
X345016D01*
Y195984D01*
X342984D01*
X105968Y216968D02*
Y221032D01*
X110032D01*
Y216968D01*
X105968D01*
X106984Y217984D02*
Y220016D01*
X109016D01*
Y217984D01*
X106984D01*
X306968Y295968D02*
Y300032D01*
X311032D01*
Y295968D01*
X306968D01*
X307984Y296984D02*
Y299016D01*
X310016D01*
Y296984D01*
X307984D01*
X278968Y227968D02*
Y232032D01*
X283032D01*
Y227968D01*
X278968D01*
X279984Y228984D02*
Y231016D01*
X282016D01*
Y228984D01*
X279984D01*
X454968Y295968D02*
Y300032D01*
X459032D01*
Y295968D01*
X454968D01*
X455984Y296984D02*
Y299016D01*
X458016D01*
Y296984D01*
X455984D01*
X436968Y277968D02*
Y282032D01*
X441032D01*
Y277968D01*
X436968D01*
X437984Y278984D02*
Y281016D01*
X440016D01*
Y278984D01*
X437984D01*
X443968Y452968D02*
Y457032D01*
X448032D01*
Y452968D01*
X443968D01*
X444984Y453984D02*
Y456016D01*
X447016D01*
Y453984D01*
X444984D01*
D126*
X276282Y60400D02*
G03*
X276282Y60400I-2032J0D01*
G01*
X227782D02*
G03*
X227782Y60400I-2032J0D01*
G01*
M02*
