G04*
G04 #@! TF.GenerationSoftware,Altium Limited,Altium Designer,21.6.1 (37)*
G04*
G04 Layer_Physical_Order=4*
G04 Layer_Color=16711680*
%FSLAX44Y44*%
%MOMM*%
G71*
G04*
G04 #@! TF.SameCoordinates,4F178BE9-AC55-4CEC-B3A2-6D2310684F74*
G04*
G04*
G04 #@! TF.FilePolarity,Positive*
G04*
G01*
G75*
%ADD13C,0.2540*%
%ADD17C,0.2032*%
%ADD98O,1.2000X1.7000*%
%ADD99O,1.0000X1.4000*%
%ADD100C,1.5240*%
%ADD101R,2.5000X2.5000*%
%ADD102C,2.5000*%
%ADD103C,1.5000*%
%ADD104R,1.5000X1.5000*%
%ADD105C,2.9500*%
%ADD106C,4.5720*%
%ADD107C,0.4064*%
%ADD118C,1.2700*%
G36*
X397283Y561381D02*
X401044Y559824D01*
X404428Y557562D01*
X407307Y554684D01*
X409568Y551299D01*
X411126Y547539D01*
X411920Y543546D01*
Y541511D01*
X411921Y541508D01*
X411920Y541504D01*
X412003Y538116D01*
X412008Y538106D01*
X412005Y538096D01*
X412669Y531351D01*
X412676Y531338D01*
X412673Y531324D01*
X413995Y524677D01*
X414003Y524665D01*
X414002Y524651D01*
X415969Y518166D01*
X415978Y518154D01*
Y518140D01*
X418572Y511879D01*
X418582Y511869D01*
X418583Y511854D01*
X421778Y505877D01*
X421789Y505868D01*
X421792Y505854D01*
X425557Y500219D01*
X425569Y500211D01*
X425573Y500197D01*
X429873Y494958D01*
X429885Y494952D01*
X429891Y494938D01*
X434683Y490146D01*
X434696Y490141D01*
X434703Y490128D01*
X439942Y485829D01*
X439955Y485824D01*
X439963Y485812D01*
X445598Y482047D01*
X445613Y482044D01*
X445622Y482033D01*
X451599Y478839D01*
X451613Y478837D01*
X451623Y478827D01*
X457884Y476233D01*
X457899D01*
X457910Y476224D01*
X464395Y474257D01*
X464410Y474258D01*
X464422Y474250D01*
X471069Y472928D01*
X471083Y472931D01*
X471095Y472924D01*
X477840Y472260D01*
X477850Y472263D01*
X477860Y472259D01*
X481249Y472176D01*
X481252Y472177D01*
X481255Y472176D01*
X483291Y472176D01*
X487283Y471381D01*
X491044Y469824D01*
X494428Y467562D01*
X497307Y464684D01*
X499568Y461299D01*
X501126Y457539D01*
X501920Y453546D01*
Y451511D01*
X501920Y206511D01*
Y204476D01*
X501126Y200483D01*
X499568Y196723D01*
X497307Y193338D01*
X494428Y190460D01*
X491044Y188199D01*
X487283Y186641D01*
X483291Y185847D01*
X481256D01*
X481252Y185845D01*
X481249Y185847D01*
X477615Y185757D01*
X477605Y185753D01*
X477595Y185756D01*
X470362Y185044D01*
X470349Y185037D01*
X470335Y185040D01*
X463207Y183622D01*
X463195Y183614D01*
X463181Y183615D01*
X456226Y181506D01*
X456214Y181496D01*
X456200D01*
X449485Y178715D01*
X449475Y178705D01*
X449461Y178704D01*
X443051Y175278D01*
X443042Y175266D01*
X443028Y175264D01*
X436985Y171226D01*
X436977Y171214D01*
X436963Y171210D01*
X431345Y166599D01*
X431338Y166586D01*
X431325Y166581D01*
X426186Y161442D01*
X426180Y161428D01*
X426168Y161422D01*
X421557Y155803D01*
X421553Y155790D01*
X421541Y155782D01*
X417503Y149739D01*
X417500Y149725D01*
X417489Y149715D01*
X414063Y143306D01*
X414062Y143291D01*
X414052Y143281D01*
X411270Y136567D01*
Y136552D01*
X411261Y136541D01*
X409151Y129586D01*
X409153Y129572D01*
X409145Y129560D01*
X407727Y122432D01*
X407730Y122418D01*
X407723Y122405D01*
X407010Y115172D01*
X407014Y115162D01*
X407009Y115152D01*
X406920Y111518D01*
X406921Y111515D01*
X406920Y111511D01*
X406920Y21511D01*
Y19476D01*
X406126Y15483D01*
X404568Y11723D01*
X402307Y8338D01*
X399428Y5460D01*
X396044Y3198D01*
X392283Y1641D01*
X388291Y847D01*
X386255Y847D01*
X109220D01*
X105228Y1641D01*
X101467Y3198D01*
X98083Y5460D01*
X95204Y8338D01*
X92943Y11723D01*
X91385Y15483D01*
X90591Y19476D01*
X90591Y21511D01*
X90590Y21514D01*
X90591Y21518D01*
X90508Y24906D01*
X90503Y24916D01*
X90507Y24927D01*
X89842Y31671D01*
X89836Y31684D01*
X89838Y31698D01*
X88516Y38345D01*
X88508Y38357D01*
X88510Y38371D01*
X86542Y44857D01*
X86533Y44868D01*
Y44882D01*
X83940Y51143D01*
X83929Y51154D01*
X83928Y51168D01*
X80733Y57145D01*
X80722Y57154D01*
X80719Y57168D01*
X76954Y62803D01*
X76942Y62811D01*
X76938Y62825D01*
X72639Y68064D01*
X72626Y68071D01*
X72621Y68084D01*
X67828Y72876D01*
X67815Y72881D01*
X67808Y72894D01*
X62569Y77194D01*
X62556Y77198D01*
X62548Y77210D01*
X56912Y80975D01*
X56898Y80978D01*
X56889Y80989D01*
X50912Y84184D01*
X50898Y84185D01*
X50888Y84195D01*
X44627Y86789D01*
X44612D01*
X44601Y86798D01*
X38116Y88765D01*
X38101Y88764D01*
X38090Y88772D01*
X31442Y90094D01*
X31428Y90091D01*
X31416Y90098D01*
X24671Y90762D01*
X24661Y90759D01*
X24651Y90763D01*
X21262Y90847D01*
X21259Y90845D01*
X21256Y90847D01*
X19220Y90847D01*
X15228Y91641D01*
X11467Y93198D01*
X8083Y95460D01*
X5204Y98338D01*
X4891Y98808D01*
X5489Y99928D01*
X89000D01*
X89793Y100086D01*
X90465Y100535D01*
X90914Y101207D01*
X91072Y102000D01*
Y168446D01*
X92342Y168571D01*
X92376Y168400D01*
X93274Y167056D01*
X94618Y166158D01*
X96204Y165842D01*
X97790Y166158D01*
X99134Y167056D01*
X100032Y168400D01*
X100348Y169986D01*
X100032Y171572D01*
X99134Y172916D01*
X97790Y173814D01*
X96204Y174130D01*
X94618Y173814D01*
X93274Y172916D01*
X92376Y171572D01*
X92342Y171401D01*
X91072Y171526D01*
Y337000D01*
X90914Y337793D01*
X90465Y338465D01*
X89793Y338914D01*
X89000Y339072D01*
X591D01*
Y358546D01*
X1385Y362539D01*
X2943Y366299D01*
X5204Y369684D01*
X8083Y372562D01*
X11467Y374824D01*
X15228Y376381D01*
X19220Y377175D01*
X21256D01*
X21259Y377177D01*
X21262Y377176D01*
X24896Y377265D01*
X24906Y377269D01*
X24917Y377266D01*
X32149Y377978D01*
X32162Y377985D01*
X32176Y377982D01*
X39304Y379400D01*
X39316Y379408D01*
X39331Y379407D01*
X46286Y381517D01*
X46297Y381526D01*
X46311D01*
X53026Y384307D01*
X53036Y384317D01*
X53050Y384319D01*
X59460Y387745D01*
X59469Y387756D01*
X59483Y387759D01*
X65526Y391796D01*
X65534Y391808D01*
X65548Y391813D01*
X71166Y396423D01*
X71173Y396436D01*
X71186Y396441D01*
X76325Y401581D01*
X76331Y401594D01*
X76343Y401601D01*
X80954Y407219D01*
X80958Y407233D01*
X80970Y407240D01*
X85008Y413284D01*
X85011Y413298D01*
X85022Y413307D01*
X88448Y419716D01*
X88449Y419731D01*
X88460Y419741D01*
X91241Y426456D01*
Y426470D01*
X91250Y426481D01*
X93360Y433436D01*
X93358Y433450D01*
X93366Y433462D01*
X94784Y440591D01*
X94781Y440605D01*
X94788Y440617D01*
X95501Y447850D01*
X95497Y447860D01*
X95502Y447870D01*
X95591Y451504D01*
X95590Y451508D01*
X95591Y451511D01*
X95591Y541511D01*
Y543546D01*
X96385Y547539D01*
X97943Y551299D01*
X100204Y554684D01*
X103083Y557562D01*
X106467Y559824D01*
X110228Y561381D01*
X114220Y562176D01*
X393291D01*
X397283Y561381D01*
D02*
G37*
%LPC*%
G36*
X189000Y552144D02*
X187414Y551828D01*
X186070Y550930D01*
X185172Y549586D01*
X184856Y548000D01*
X185172Y546414D01*
X186070Y545070D01*
X187414Y544172D01*
X189000Y543856D01*
X190586Y544172D01*
X191930Y545070D01*
X192828Y546414D01*
X193144Y548000D01*
X192828Y549586D01*
X191930Y550930D01*
X190586Y551828D01*
X189000Y552144D01*
D02*
G37*
G36*
X376440Y548040D02*
X367670D01*
Y539270D01*
X376440D01*
Y548040D01*
D02*
G37*
G36*
X365130D02*
X356360D01*
Y539270D01*
X365130D01*
Y548040D01*
D02*
G37*
G36*
X341000Y547614D02*
X338512Y547287D01*
X336193Y546326D01*
X334202Y544798D01*
X332674Y542807D01*
X331713Y540488D01*
X331386Y538000D01*
X331713Y535512D01*
X332674Y533193D01*
X334202Y531202D01*
X336193Y529674D01*
X338512Y528713D01*
X341000Y528386D01*
X343488Y528713D01*
X345807Y529674D01*
X347798Y531202D01*
X349326Y533193D01*
X350287Y535512D01*
X350614Y538000D01*
X350287Y540488D01*
X349326Y542807D01*
X347798Y544798D01*
X345807Y546326D01*
X343488Y547287D01*
X341000Y547614D01*
D02*
G37*
G36*
X304798Y552169D02*
X285726D01*
X284437Y551912D01*
X283345Y551183D01*
X228934Y496772D01*
X228204Y495679D01*
X227948Y494391D01*
Y478022D01*
X227754Y477946D01*
X226678Y477811D01*
X225930Y478930D01*
X224586Y479828D01*
X223000Y480144D01*
X221414Y479828D01*
X220070Y478930D01*
X219172Y477586D01*
X218856Y476000D01*
X219172Y474414D01*
X219892Y473336D01*
Y467326D01*
X220129Y466136D01*
X220802Y465128D01*
X224443Y461488D01*
X224236Y459898D01*
X223641Y459501D01*
X222743Y458156D01*
X222427Y456571D01*
X222743Y454985D01*
X223641Y453641D01*
X224985Y452743D01*
X226571Y452427D01*
X228156Y452743D01*
X229501Y453641D01*
X229898Y454236D01*
X231488Y454443D01*
X252431Y433499D01*
X252224Y431910D01*
X251629Y431512D01*
X250731Y430168D01*
X250252Y429937D01*
X248828Y430586D01*
X247930Y431930D01*
X246586Y432828D01*
X245000Y433144D01*
X243414Y432828D01*
X242070Y431930D01*
X241172Y430586D01*
X241010Y429771D01*
X170238Y358999D01*
X169508Y357907D01*
X169252Y356619D01*
Y216431D01*
X167982Y215905D01*
X166881Y217006D01*
X165789Y217736D01*
X164501Y217992D01*
X158616D01*
X157328Y217736D01*
X156236Y217006D01*
X110684Y171455D01*
X109954Y170362D01*
X109698Y169074D01*
Y159012D01*
X109954Y157724D01*
X110684Y156631D01*
X130868Y136447D01*
X131960Y135718D01*
X133249Y135461D01*
X163957D01*
X172916Y126502D01*
X172339Y125283D01*
X170000Y125513D01*
X166710Y125189D01*
X163547Y124230D01*
X160631Y122671D01*
X158076Y120574D01*
X155979Y118019D01*
X154420Y115103D01*
X153461Y111940D01*
X153137Y108650D01*
X153461Y105360D01*
X154420Y102197D01*
X155979Y99281D01*
X158076Y96726D01*
X160631Y94629D01*
X161546Y94140D01*
Y46960D01*
X160631Y46471D01*
X158076Y44374D01*
X155979Y41819D01*
X154420Y38903D01*
X153461Y35740D01*
X153137Y32450D01*
X153461Y29160D01*
X154420Y25997D01*
X155979Y23081D01*
X158076Y20526D01*
X160631Y18429D01*
X163547Y16870D01*
X166710Y15911D01*
X170000Y15587D01*
X173290Y15911D01*
X176453Y16870D01*
X179369Y18429D01*
X181924Y20526D01*
X184021Y23081D01*
X185579Y25997D01*
X186539Y29160D01*
X186863Y32450D01*
X186539Y35740D01*
X185579Y38903D01*
X184021Y41819D01*
X181924Y44374D01*
X179369Y46471D01*
X178454Y46960D01*
Y94140D01*
X179369Y94629D01*
X181924Y96726D01*
X184021Y99281D01*
X185579Y102197D01*
X186539Y105360D01*
X186863Y108650D01*
X186539Y111940D01*
X185579Y115103D01*
X184021Y118019D01*
X182918Y119363D01*
X183518Y120633D01*
X242633D01*
Y90394D01*
X238751Y86512D01*
X238146D01*
X238146Y86512D01*
X236857Y86256D01*
X235765Y85526D01*
X231229Y80990D01*
X230414Y80828D01*
X229070Y79930D01*
X228172Y78586D01*
X227856Y77000D01*
X228172Y75414D01*
X229070Y74070D01*
X230414Y73172D01*
X232000Y72856D01*
X233586Y73172D01*
X234930Y74070D01*
X235828Y75414D01*
X235990Y76229D01*
X239540Y79779D01*
X240146D01*
X241434Y80035D01*
X242526Y80765D01*
X248381Y86619D01*
X249110Y87712D01*
X249367Y89000D01*
Y121694D01*
X249930Y122070D01*
X249961Y122116D01*
X251708Y122445D01*
X252216Y122106D01*
X252730Y122003D01*
Y126412D01*
X254000D01*
Y127682D01*
X258409D01*
X258307Y128196D01*
X257527Y129363D01*
X258024Y130633D01*
X343347D01*
X344636Y130890D01*
X345728Y131619D01*
X436183Y222074D01*
X436912Y223166D01*
X437169Y224455D01*
Y227407D01*
X449771Y240010D01*
X450586Y240172D01*
X451930Y241070D01*
X452198Y241471D01*
X453468Y241086D01*
Y216468D01*
X482532D01*
Y245532D01*
X454035D01*
X453423Y245559D01*
X452453Y246147D01*
X451930Y246930D01*
X450586Y247828D01*
X449000Y248144D01*
X447414Y247828D01*
X446070Y246930D01*
X445172Y245586D01*
X445010Y244771D01*
X433508Y233269D01*
X432305Y233677D01*
X432158Y234794D01*
X430694Y238329D01*
X428364Y241364D01*
X425329Y243694D01*
X421794Y245158D01*
X418000Y245657D01*
X414206Y245158D01*
X410671Y243694D01*
X407636Y241364D01*
X405306Y238329D01*
X403842Y234794D01*
X403343Y231000D01*
X403842Y227206D01*
X405306Y223671D01*
X407636Y220636D01*
X410671Y218306D01*
X414206Y216842D01*
X418000Y216343D01*
X419414Y216529D01*
X419976Y215390D01*
X341953Y137367D01*
X316421D01*
X315935Y138540D01*
X367798Y190403D01*
X368471Y191411D01*
X368708Y192600D01*
Y318840D01*
X370468Y319569D01*
X371890Y320661D01*
X373160Y320034D01*
Y314732D01*
X373397Y313543D01*
X374071Y312535D01*
X381919Y304686D01*
X382172Y303414D01*
X383070Y302070D01*
X384414Y301172D01*
X386000Y300856D01*
X387586Y301172D01*
X388930Y302070D01*
X389828Y303414D01*
X390144Y305000D01*
X389828Y306586D01*
X388930Y307930D01*
X387586Y308828D01*
X386314Y309081D01*
X379376Y316019D01*
Y339615D01*
X379139Y340804D01*
X378465Y341812D01*
X267030Y453248D01*
X267448Y454626D01*
X267784Y454693D01*
X269296Y455704D01*
X270307Y457216D01*
X270409Y457730D01*
X266000D01*
Y459000D01*
X264730D01*
Y463409D01*
X264216Y463307D01*
X262704Y462296D01*
X261693Y460784D01*
X261626Y460448D01*
X260248Y460030D01*
X256608Y463670D01*
Y465336D01*
X257328Y466414D01*
X257644Y468000D01*
X257328Y469586D01*
X256430Y470930D01*
X255086Y471828D01*
X253500Y472144D01*
X251914Y471828D01*
X250570Y470930D01*
X249672Y469586D01*
X249356Y468000D01*
X249612Y466715D01*
X248551Y465979D01*
X245355Y469175D01*
X245364Y469221D01*
X245049Y470806D01*
X244151Y472151D01*
X242806Y473049D01*
X241221Y473364D01*
X240523Y473226D01*
X239253Y474205D01*
Y482292D01*
X286271Y529310D01*
X287712Y528713D01*
X290200Y528386D01*
X292688Y528713D01*
X295007Y529674D01*
X296998Y531202D01*
X298526Y533193D01*
X299487Y535512D01*
X299814Y538000D01*
X299487Y540488D01*
X298526Y542807D01*
X297484Y544165D01*
X298110Y545435D01*
X303403D01*
X306910Y541929D01*
X306313Y540488D01*
X305986Y538000D01*
X306313Y535512D01*
X307274Y533193D01*
X308802Y531202D01*
X310793Y529674D01*
X313112Y528713D01*
X315600Y528386D01*
X318088Y528713D01*
X320407Y529674D01*
X322398Y531202D01*
X323926Y533193D01*
X324887Y535512D01*
X325214Y538000D01*
X324887Y540488D01*
X323926Y542807D01*
X322398Y544798D01*
X320407Y546326D01*
X318088Y547287D01*
X315600Y547614D01*
X313112Y547287D01*
X311671Y546690D01*
X307179Y551183D01*
X306086Y551912D01*
X304798Y552169D01*
D02*
G37*
G36*
X376440Y536730D02*
X367670D01*
Y527960D01*
X376440D01*
Y536730D01*
D02*
G37*
G36*
X365130D02*
X356360D01*
Y527960D01*
X365130D01*
Y536730D01*
D02*
G37*
G36*
X171270Y540799D02*
Y524820D01*
X187249D01*
X187040Y526939D01*
X186051Y530199D01*
X184446Y533202D01*
X182285Y535835D01*
X179652Y537996D01*
X176649Y539601D01*
X173390Y540590D01*
X171270Y540799D01*
D02*
G37*
G36*
X168730Y540799D02*
X166611Y540590D01*
X163352Y539601D01*
X160348Y537996D01*
X157715Y535835D01*
X155555Y533202D01*
X153949Y530199D01*
X152960Y526939D01*
X152752Y524820D01*
X168730D01*
Y540799D01*
D02*
G37*
G36*
X281000Y473144D02*
X279414Y472828D01*
X278070Y471930D01*
X277172Y470586D01*
X276856Y469000D01*
X277172Y467414D01*
X278070Y466070D01*
X279414Y465172D01*
X281000Y464856D01*
X282586Y465172D01*
X283930Y466070D01*
X284828Y467414D01*
X285144Y469000D01*
X284828Y470586D01*
X283930Y471930D01*
X282586Y472828D01*
X281000Y473144D01*
D02*
G37*
G36*
X267270Y463409D02*
Y460270D01*
X270409D01*
X270307Y460784D01*
X269296Y462296D01*
X267784Y463307D01*
X267270Y463409D01*
D02*
G37*
G36*
X446000Y459144D02*
X444414Y458828D01*
X443070Y457930D01*
X442172Y456586D01*
X441856Y455000D01*
X442172Y453414D01*
X443070Y452070D01*
X444414Y451172D01*
X446000Y450856D01*
X447586Y451172D01*
X448930Y452070D01*
X449828Y453414D01*
X450144Y455000D01*
X449828Y456586D01*
X448930Y457930D01*
X447586Y458828D01*
X446000Y459144D01*
D02*
G37*
G36*
X187249Y522280D02*
X170000D01*
X152752D01*
X152960Y520161D01*
X153949Y516901D01*
X155555Y513898D01*
X157715Y511265D01*
X160348Y509104D01*
X161546Y508464D01*
Y462436D01*
X160348Y461796D01*
X157715Y459635D01*
X155555Y457002D01*
X153949Y453999D01*
X152960Y450739D01*
X152752Y448620D01*
X170000D01*
X187249D01*
X187040Y450739D01*
X186051Y453999D01*
X184446Y457002D01*
X182285Y459635D01*
X179652Y461796D01*
X178454Y462436D01*
Y508464D01*
X179652Y509104D01*
X182285Y511265D01*
X184446Y513898D01*
X186051Y516901D01*
X187040Y520161D01*
X187249Y522280D01*
D02*
G37*
G36*
X416400Y464735D02*
X413880Y464404D01*
X411532Y463431D01*
X409516Y461884D01*
X407969Y459868D01*
X406996Y457520D01*
X406665Y455000D01*
X406996Y452480D01*
X407969Y450132D01*
X409516Y448116D01*
X411532Y446569D01*
X413880Y445596D01*
X416400Y445265D01*
X418920Y445596D01*
X421268Y446569D01*
X423284Y448116D01*
X424831Y450132D01*
X425804Y452480D01*
X426135Y455000D01*
X425804Y457520D01*
X424831Y459868D01*
X423284Y461884D01*
X421268Y463431D01*
X418920Y464404D01*
X416400Y464735D01*
D02*
G37*
G36*
X391000D02*
X388480Y464404D01*
X386132Y463431D01*
X384116Y461884D01*
X382569Y459868D01*
X381596Y457520D01*
X381265Y455000D01*
X381596Y452480D01*
X382569Y450132D01*
X384116Y448116D01*
X386132Y446569D01*
X388480Y445596D01*
X391000Y445265D01*
X393520Y445596D01*
X395868Y446569D01*
X397884Y448116D01*
X399431Y450132D01*
X400404Y452480D01*
X400735Y455000D01*
X400404Y457520D01*
X399431Y459868D01*
X397884Y461884D01*
X395868Y463431D01*
X393520Y464404D01*
X391000Y464735D01*
D02*
G37*
G36*
X168730Y446080D02*
X152752D01*
X152960Y443961D01*
X153949Y440701D01*
X155555Y437698D01*
X157715Y435065D01*
X160348Y432904D01*
X163352Y431299D01*
X166611Y430310D01*
X168730Y430102D01*
Y446080D01*
D02*
G37*
G36*
X187249D02*
X171270D01*
Y430101D01*
X173390Y430310D01*
X176649Y431299D01*
X179652Y432904D01*
X182285Y435065D01*
X184446Y437698D01*
X186051Y440701D01*
X187040Y443961D01*
X187249Y446080D01*
D02*
G37*
G36*
X417670Y338080D02*
Y329270D01*
X426480D01*
X426298Y330652D01*
X425275Y333124D01*
X423646Y335246D01*
X421524Y336875D01*
X419052Y337898D01*
X417670Y338080D01*
D02*
G37*
G36*
X415130Y338080D02*
X413748Y337898D01*
X411276Y336875D01*
X409154Y335246D01*
X407525Y333124D01*
X406502Y330652D01*
X406320Y329270D01*
X415130D01*
Y338080D01*
D02*
G37*
G36*
X426480Y326730D02*
X417670D01*
Y317920D01*
X419052Y318102D01*
X421524Y319125D01*
X423646Y320754D01*
X425275Y322876D01*
X426298Y325348D01*
X426480Y326730D01*
D02*
G37*
G36*
X415130D02*
X406320D01*
X406502Y325348D01*
X407525Y322876D01*
X409154Y320754D01*
X411276Y319125D01*
X413748Y318102D01*
X415130Y317920D01*
Y326730D01*
D02*
G37*
G36*
X386000Y322144D02*
X384414Y321828D01*
X383070Y320930D01*
X382172Y319586D01*
X381856Y318000D01*
X382172Y316414D01*
X383070Y315070D01*
X384414Y314172D01*
X386000Y313856D01*
X387586Y314172D01*
X388930Y315070D01*
X389828Y316414D01*
X390144Y318000D01*
X389828Y319586D01*
X388930Y320930D01*
X387586Y321828D01*
X386000Y322144D01*
D02*
G37*
G36*
X457000Y302144D02*
X455414Y301828D01*
X454070Y300930D01*
X453172Y299586D01*
X452856Y298000D01*
X453172Y296414D01*
X454070Y295070D01*
X455414Y294172D01*
X457000Y293856D01*
X458586Y294172D01*
X459930Y295070D01*
X460828Y296414D01*
X461144Y298000D01*
X460828Y299586D01*
X459930Y300930D01*
X458586Y301828D01*
X457000Y302144D01*
D02*
G37*
G36*
X439000Y284144D02*
X437414Y283828D01*
X436070Y282930D01*
X435172Y281586D01*
X434856Y280000D01*
X435172Y278414D01*
X436070Y277070D01*
X437414Y276172D01*
X439000Y275856D01*
X440586Y276172D01*
X441930Y277070D01*
X442828Y278414D01*
X443144Y280000D01*
X442828Y281586D01*
X441930Y282930D01*
X440586Y283828D01*
X439000Y284144D01*
D02*
G37*
G36*
X156000Y474144D02*
X154414Y473828D01*
X153070Y472930D01*
X152172Y471586D01*
X151919Y470314D01*
X130802Y449198D01*
X130129Y448189D01*
X129892Y447000D01*
Y254664D01*
X129172Y253586D01*
X128856Y252000D01*
X129172Y250414D01*
X130070Y249070D01*
X131414Y248172D01*
X133000Y247856D01*
X134586Y248172D01*
X135930Y249070D01*
X136828Y250414D01*
X137144Y252000D01*
X136828Y253586D01*
X136108Y254664D01*
Y445713D01*
X156314Y465919D01*
X157586Y466172D01*
X158930Y467070D01*
X159828Y468414D01*
X160144Y470000D01*
X159828Y471586D01*
X158930Y472930D01*
X157586Y473828D01*
X156000Y474144D01*
D02*
G37*
G36*
X108000Y223144D02*
X106414Y222828D01*
X105070Y221930D01*
X104172Y220586D01*
X103856Y219000D01*
X104172Y217414D01*
X105070Y216070D01*
X106414Y215172D01*
X108000Y214856D01*
X109586Y215172D01*
X110930Y216070D01*
X111828Y217414D01*
X112144Y219000D01*
X111828Y220586D01*
X110930Y221930D01*
X109586Y222828D01*
X108000Y223144D01*
D02*
G37*
G36*
X144000Y222144D02*
X142414Y221828D01*
X141070Y220930D01*
X140172Y219586D01*
X139856Y218000D01*
X140172Y216414D01*
X141070Y215070D01*
X142414Y214172D01*
X144000Y213856D01*
X145586Y214172D01*
X146930Y215070D01*
X147828Y216414D01*
X148144Y218000D01*
X147828Y219586D01*
X146930Y220930D01*
X145586Y221828D01*
X144000Y222144D01*
D02*
G37*
G36*
X258409Y125142D02*
X255270D01*
Y122003D01*
X255784Y122106D01*
X257296Y123116D01*
X258307Y124628D01*
X258409Y125142D01*
D02*
G37*
G36*
X274250Y69493D02*
X272414Y69251D01*
X270704Y68542D01*
X269235Y67415D01*
X268108Y65946D01*
X267399Y64236D01*
X267157Y62400D01*
Y58400D01*
X267399Y56564D01*
X268108Y54854D01*
X269235Y53385D01*
X270704Y52258D01*
X272414Y51549D01*
X274250Y51307D01*
X276086Y51549D01*
X277796Y52258D01*
X279265Y53385D01*
X280392Y54854D01*
X281101Y56564D01*
X281343Y58400D01*
Y62400D01*
X281101Y64236D01*
X280392Y65946D01*
X279265Y67415D01*
X277796Y68542D01*
X276086Y69251D01*
X274250Y69493D01*
D02*
G37*
G36*
X225750D02*
X223914Y69251D01*
X222204Y68542D01*
X220735Y67415D01*
X219608Y65946D01*
X218899Y64236D01*
X218657Y62400D01*
Y58400D01*
X218899Y56564D01*
X219608Y54854D01*
X220735Y53385D01*
X222204Y52258D01*
X223914Y51549D01*
X225750Y51307D01*
X227586Y51549D01*
X229296Y52258D01*
X230765Y53385D01*
X231892Y54854D01*
X232601Y56564D01*
X232843Y58400D01*
Y62400D01*
X232601Y64236D01*
X231892Y65946D01*
X230765Y67415D01*
X229296Y68542D01*
X227586Y69251D01*
X225750Y69493D01*
D02*
G37*
G36*
X277250Y40701D02*
X275153Y40425D01*
X273199Y39616D01*
X271521Y38328D01*
X270234Y36651D01*
X269425Y34697D01*
X269149Y32600D01*
Y27600D01*
X269425Y25503D01*
X270234Y23549D01*
X271521Y21872D01*
X273199Y20584D01*
X275153Y19775D01*
X277250Y19499D01*
X279347Y19775D01*
X281301Y20584D01*
X282978Y21872D01*
X284266Y23549D01*
X285075Y25503D01*
X285351Y27600D01*
Y32600D01*
X285075Y34697D01*
X284266Y36651D01*
X282978Y38328D01*
X281301Y39616D01*
X279347Y40425D01*
X277250Y40701D01*
D02*
G37*
G36*
X222750D02*
X220653Y40425D01*
X218699Y39616D01*
X217022Y38328D01*
X215734Y36651D01*
X214925Y34697D01*
X214649Y32600D01*
Y27600D01*
X214925Y25503D01*
X215734Y23549D01*
X217022Y21872D01*
X218699Y20584D01*
X220653Y19775D01*
X222750Y19499D01*
X224847Y19775D01*
X226801Y20584D01*
X228479Y21872D01*
X229766Y23549D01*
X230575Y25503D01*
X230851Y27600D01*
Y32600D01*
X230575Y34697D01*
X229766Y36651D01*
X228479Y38328D01*
X226801Y39616D01*
X224847Y40425D01*
X222750Y40701D01*
D02*
G37*
%LPD*%
G36*
X337892Y367848D02*
Y308664D01*
X337172Y307586D01*
X336856Y306000D01*
X337172Y304414D01*
X338070Y303070D01*
X339414Y302172D01*
X341000Y301856D01*
X342586Y302172D01*
X343930Y303070D01*
X344828Y304414D01*
X345144Y306000D01*
X344828Y307586D01*
X344108Y308664D01*
Y365721D01*
X345281Y366207D01*
X373160Y338328D01*
Y335966D01*
X371890Y335339D01*
X370468Y336431D01*
X368120Y337404D01*
X365600Y337735D01*
X363080Y337404D01*
X360732Y336431D01*
X358716Y334884D01*
X357169Y332868D01*
X356196Y330520D01*
X355865Y328000D01*
X356196Y325480D01*
X357169Y323132D01*
X358716Y321116D01*
X360732Y319569D01*
X362492Y318840D01*
Y199878D01*
X361222Y199492D01*
X360930Y199930D01*
X359586Y200828D01*
X358000Y201144D01*
X356414Y200828D01*
X355070Y199930D01*
X354172Y198586D01*
X353919Y197314D01*
X307431Y150826D01*
X138569D01*
X133379Y156016D01*
X133192Y156954D01*
X132518Y157963D01*
X127052Y163429D01*
X126994Y163718D01*
X127951Y165088D01*
X128466Y165139D01*
X140211Y153394D01*
X141219Y152721D01*
X142408Y152484D01*
X302592D01*
X303781Y152721D01*
X304790Y153394D01*
X344314Y192919D01*
X345586Y193172D01*
X346930Y194070D01*
X347828Y195414D01*
X348144Y197000D01*
X347828Y198586D01*
X346930Y199930D01*
X345586Y200828D01*
X344000Y201144D01*
X342414Y200828D01*
X341070Y199930D01*
X340172Y198586D01*
X339919Y197314D01*
X301305Y158700D01*
X264062D01*
X263753Y159932D01*
X265196Y160703D01*
X268986Y163813D01*
X272097Y167604D01*
X274408Y171928D01*
X275832Y176620D01*
X276313Y181500D01*
X275832Y186380D01*
X274408Y191072D01*
X272097Y195396D01*
X268986Y199186D01*
X265196Y202297D01*
X260872Y204608D01*
X256180Y206032D01*
X251300Y206512D01*
X246420Y206032D01*
X244865Y205560D01*
X244212Y206649D01*
X287715Y250152D01*
X288444Y251244D01*
X288701Y252533D01*
Y415381D01*
X289874Y415867D01*
X337892Y367848D01*
D02*
G37*
%LPC*%
G36*
X320270Y359409D02*
Y356270D01*
X323409D01*
X323307Y356784D01*
X322296Y358296D01*
X320784Y359307D01*
X320270Y359409D01*
D02*
G37*
G36*
X317730D02*
X317216Y359307D01*
X315704Y358296D01*
X314693Y356784D01*
X314591Y356270D01*
X317730D01*
Y359409D01*
D02*
G37*
G36*
X323409Y353730D02*
X320270D01*
Y350591D01*
X320784Y350693D01*
X322296Y351704D01*
X323307Y353216D01*
X323409Y353730D01*
D02*
G37*
G36*
X317730D02*
X314591D01*
X314693Y353216D01*
X315704Y351704D01*
X317216Y350693D01*
X317730Y350591D01*
Y353730D01*
D02*
G37*
G36*
X309000Y302144D02*
X307414Y301828D01*
X306070Y300930D01*
X305172Y299586D01*
X304856Y298000D01*
X305172Y296414D01*
X306070Y295070D01*
X307414Y294172D01*
X309000Y293856D01*
X310586Y294172D01*
X311930Y295070D01*
X312828Y296414D01*
X313144Y298000D01*
X312828Y299586D01*
X311930Y300930D01*
X310586Y301828D01*
X309000Y302144D01*
D02*
G37*
G36*
X281000Y234144D02*
X279414Y233828D01*
X278070Y232930D01*
X277172Y231586D01*
X276856Y230000D01*
X277172Y228414D01*
X278070Y227070D01*
X279414Y226172D01*
X281000Y225856D01*
X282586Y226172D01*
X283930Y227070D01*
X284828Y228414D01*
X285144Y230000D01*
X284828Y231586D01*
X283930Y232930D01*
X282586Y233828D01*
X281000Y234144D01*
D02*
G37*
G36*
X330000Y200144D02*
X328414Y199828D01*
X327070Y198930D01*
X326172Y197586D01*
X325856Y196000D01*
X326172Y194414D01*
X327070Y193070D01*
X328414Y192172D01*
X330000Y191856D01*
X331586Y192172D01*
X332930Y193070D01*
X333828Y194414D01*
X334144Y196000D01*
X333828Y197586D01*
X332930Y198930D01*
X331586Y199828D01*
X330000Y200144D01*
D02*
G37*
%LPD*%
D13*
X246666Y130666D02*
X250000Y134000D01*
X343347D02*
X433802Y224455D01*
X250000Y134000D02*
X343347D01*
X179979Y130666D02*
X246666D01*
X167245Y143400D02*
X179979Y130666D01*
X246000Y89000D02*
Y124000D01*
X180179D02*
X246000D01*
X165351Y138828D02*
X180179Y124000D01*
X240146Y83146D02*
X246000Y89000D01*
X238146Y83146D02*
X240146D01*
X232000Y77000D02*
X238146Y83146D01*
X213000Y207000D02*
X233336D01*
X234467Y201666D02*
X285334Y252533D01*
X208334Y201666D02*
X234467D01*
X235887Y467011D02*
X285334Y417564D01*
Y252533D02*
Y417564D01*
X203000Y207000D02*
X208334Y201666D01*
X233336Y207000D02*
X255545Y229209D01*
Y336088D02*
X277462Y358005D01*
Y418970D01*
X285726Y548802D02*
X304798D01*
X235887Y467011D02*
Y483687D01*
X231315Y465117D02*
X277462Y418970D01*
X255545Y229209D02*
Y336088D01*
X235887Y483687D02*
X290200Y538000D01*
X304798Y548802D02*
X315600Y538000D01*
X231315Y494391D02*
X285726Y548802D01*
X231315Y465117D02*
Y494391D01*
X221074Y395098D02*
X254559Y428582D01*
X172619Y356619D02*
X245000Y429000D01*
X113065Y159012D02*
Y169074D01*
X167285Y211166D02*
Y211841D01*
X186946Y204993D02*
X192334Y199604D01*
X221074Y235996D02*
Y395098D01*
X186946Y336280D02*
X197666Y347000D01*
X172619Y213375D02*
Y356619D01*
X433802Y228802D02*
X449000Y244000D01*
X164501Y214625D02*
X167285Y211841D01*
X192334Y182791D02*
Y199604D01*
X174646Y189811D02*
Y203805D01*
X117637Y167180D02*
X159456Y209000D01*
X162000D02*
X162291Y209291D01*
X117637Y160906D02*
X135143Y143400D01*
X433802Y224455D02*
Y228802D01*
X174646Y189811D02*
X184791Y179666D01*
X186946Y204993D02*
Y336280D01*
X113065Y159012D02*
X133249Y138828D01*
X165351D01*
X167285Y211166D02*
X174646Y203805D01*
X113065Y169074D02*
X158616Y214625D01*
X184791Y179666D02*
X189209D01*
X192334Y182791D01*
X158616Y214625D02*
X164501D01*
X159456Y209000D02*
X162000D01*
X192280Y207202D02*
X221074Y235996D01*
X135143Y143400D02*
X167245D01*
X117637Y160906D02*
Y167180D01*
D17*
X245893Y136000D02*
X248211Y138318D01*
X226000Y136000D02*
X245893D01*
X311318Y138318D02*
X365600Y192600D01*
X248211Y138318D02*
X311318D01*
X253500Y462383D02*
X376268Y339615D01*
X241221Y468915D02*
Y469221D01*
X341000Y306000D02*
Y369136D01*
X241221Y468915D02*
X341000Y369136D01*
X376268Y314732D02*
X386000Y305000D01*
X223000Y467326D02*
X259639Y430687D01*
X376268Y314732D02*
Y339615D01*
X253500Y462383D02*
Y468000D01*
X259639Y426478D02*
Y430687D01*
X225392Y222242D02*
X233213Y214421D01*
X225392Y222242D02*
Y392231D01*
X223000Y467326D02*
Y476000D01*
X225392Y392231D02*
X259639Y426478D01*
X182628Y340628D02*
X189000Y347000D01*
X182628Y189372D02*
X187000Y185000D01*
X182628Y189372D02*
Y340628D01*
X122971Y163115D02*
X130321Y155765D01*
Y154679D02*
X137282Y147718D01*
X130321Y154679D02*
Y155765D01*
X137282Y147718D02*
X308718D01*
X302592Y155592D02*
X344000Y197000D01*
X308718Y147718D02*
X358000Y197000D01*
X133000Y252000D02*
Y447000D01*
X156000Y470000D01*
X365600Y192600D02*
Y328000D01*
X128000Y170000D02*
X142408Y155592D01*
X302592D01*
D98*
X277250Y30100D02*
D03*
X222750D02*
D03*
D99*
X274250Y60400D02*
D03*
X225750D02*
D03*
D100*
X416400Y328000D02*
D03*
X365600D02*
D03*
X391000Y455000D02*
D03*
X416400D02*
D03*
D101*
X468000Y231000D02*
D03*
D102*
X418000D02*
D03*
D103*
X290200Y538000D02*
D03*
X341000D02*
D03*
X315600D02*
D03*
D104*
X366400D02*
D03*
D105*
X170000Y447350D02*
D03*
Y523550D02*
D03*
X170000Y108650D02*
D03*
Y32450D02*
D03*
D106*
X251300Y181500D02*
D03*
Y381500D02*
D03*
D107*
X254000Y126412D02*
D03*
X247000Y125000D02*
D03*
X232000Y77000D02*
D03*
X281000Y469000D02*
D03*
X241221Y469221D02*
D03*
X233213Y214421D02*
D03*
X226571Y456571D02*
D03*
X254559Y428582D02*
D03*
X280000Y353000D02*
D03*
X203000Y207000D02*
D03*
X213000D02*
D03*
X162291Y209291D02*
D03*
X192280Y207202D02*
D03*
X172619Y213375D02*
D03*
X189000Y347000D02*
D03*
X197666D02*
D03*
X319000Y355000D02*
D03*
X122971Y163115D02*
D03*
X96204Y169986D02*
D03*
X226000Y136000D02*
D03*
X266000Y459000D02*
D03*
X386000Y318000D02*
D03*
X330000Y196000D02*
D03*
X223000Y476000D02*
D03*
X133000Y252000D02*
D03*
X156000Y470000D02*
D03*
X449000Y244000D02*
D03*
X245000Y429000D02*
D03*
X144000Y218000D02*
D03*
X187000Y185000D02*
D03*
X358000Y197000D02*
D03*
X386000Y305000D02*
D03*
X341000Y306000D02*
D03*
X189000Y548000D02*
D03*
X253500Y468000D02*
D03*
X128000Y170000D02*
D03*
X344000Y197000D02*
D03*
X108000Y219000D02*
D03*
X309000Y298000D02*
D03*
X281000Y230000D02*
D03*
X457000Y298000D02*
D03*
X439000Y280000D02*
D03*
X446000Y455000D02*
D03*
D118*
X170000Y447350D02*
Y523550D01*
X170000Y32450D02*
Y108650D01*
M02*
