G04*
G04 #@! TF.GenerationSoftware,Altium Limited,Altium Designer,21.6.1 (37)*
G04*
G04 Layer_Physical_Order=3*
G04 Layer_Color=128*
%FSLAX44Y44*%
%MOMM*%
G71*
G04*
G04 #@! TF.SameCoordinates,4F178BE9-AC55-4CEC-B3A2-6D2310684F74*
G04*
G04*
G04 #@! TF.FilePolarity,Negative*
G04*
G01*
G75*
%ADD108C,1.0160*%
%ADD109O,1.7160X2.2160*%
%ADD110O,1.6660X2.0660*%
%ADD111C,1.7780*%
%ADD112C,2.3160*%
%ADD113C,2.0160*%
%ADD114C,2.9660*%
%ADD115C,4.0660*%
%ADD116C,4.0640*%
%ADD117C,1.3208*%
D108*
X90316Y21511D02*
G03*
X111256Y572I20939J0D01*
G01*
X386255Y572D02*
G03*
X407195Y21511I0J20939D01*
G01*
X481256Y185572D02*
G03*
X407195Y111511I0J-74061D01*
G01*
X481256Y185572D02*
G03*
X502195Y206511I0J20939D01*
G01*
X502195Y451511D02*
G03*
X481256Y472450I-20939J0D01*
G01*
X412195Y541511D02*
G03*
X481255Y472450I69061J0D01*
G01*
X412195Y541511D02*
G03*
X391256Y562450I-20939J0D01*
G01*
X116256D02*
G03*
X95316Y541511I0J-20939D01*
G01*
X21256Y377450D02*
G03*
X95316Y451511I0J74061D01*
G01*
X21256Y377450D02*
G03*
X316Y356511I0J-20939D01*
G01*
Y111511D02*
G03*
X21256Y90572I20939J0D01*
G01*
X90316Y21511D02*
G03*
X21256Y90572I-69061J0D01*
G01*
X111256Y572D02*
X386255D01*
X407195Y21511D02*
Y111511D01*
X502195Y206511D02*
Y451511D01*
X116256Y562450D02*
X391256D01*
X95316Y541511D02*
X95316Y451511D01*
X316Y111511D02*
Y356511D01*
D109*
X277250Y30100D02*
D03*
X222750D02*
D03*
D110*
X274250Y60400D02*
D03*
X225750D02*
D03*
D111*
X416400Y328000D02*
D03*
X365600D02*
D03*
X391000Y455000D02*
D03*
X416400D02*
D03*
D112*
X468000Y231000D02*
D03*
D113*
X290200Y538000D02*
D03*
X366400D02*
D03*
X315600D02*
D03*
D114*
X170000Y447350D02*
D03*
Y523550D02*
D03*
X170000Y108650D02*
D03*
Y32450D02*
D03*
D115*
X251300Y181500D02*
D03*
D116*
Y381500D02*
D03*
D117*
X254000Y126412D02*
D03*
X247000Y125000D02*
D03*
X232000Y77000D02*
D03*
X241221Y469221D02*
D03*
X233213Y214421D02*
D03*
X254559Y428582D02*
D03*
X203000Y207000D02*
D03*
X213000D02*
D03*
X162291Y209291D02*
D03*
X192280Y207202D02*
D03*
X172619Y213375D02*
D03*
X189000Y347000D02*
D03*
X197666D02*
D03*
X319000Y355000D02*
D03*
X122971Y163115D02*
D03*
X226000Y136000D02*
D03*
X266000Y459000D02*
D03*
X223000Y476000D02*
D03*
X133000Y252000D02*
D03*
X156000Y470000D02*
D03*
X449000Y244000D02*
D03*
X245000Y429000D02*
D03*
X187000Y185000D02*
D03*
X358000Y197000D02*
D03*
X386000Y305000D02*
D03*
X341000Y306000D02*
D03*
X253500Y468000D02*
D03*
X128000Y170000D02*
D03*
X344000Y197000D02*
D03*
M02*
