G04*
G04 #@! TF.GenerationSoftware,Altium Limited,Altium Designer,21.6.1 (37)*
G04*
G04 Layer_Color=32896*
%FSLAX44Y44*%
%MOMM*%
G71*
G04*
G04 #@! TF.SameCoordinates,4F178BE9-AC55-4CEC-B3A2-6D2310684F74*
G04*
G04*
G04 #@! TF.FilePolarity,Positive*
G04*
G01*
G75*
%ADD13C,0.2540*%
%ADD14C,0.2000*%
%ADD18C,0.1270*%
%ADD19C,0.2560*%
G36*
X270444Y542988D02*
X270585Y542965D01*
X270708Y542930D01*
X270820Y542888D01*
X270908Y542847D01*
X270943Y542830D01*
X270972Y542818D01*
X270996Y542800D01*
X271013Y542795D01*
X271025Y542783D01*
X271031D01*
X271142Y542695D01*
X271242Y542601D01*
X271324Y542501D01*
X271395Y542407D01*
X271448Y542325D01*
X271483Y542255D01*
X271494Y542231D01*
X271506Y542214D01*
X271512Y542202D01*
Y542196D01*
X271565Y542049D01*
X271606Y541897D01*
X271629Y541744D01*
X271653Y541598D01*
X271659Y541527D01*
X271665Y541469D01*
Y541416D01*
X271670Y541369D01*
Y541275D01*
X271665Y541116D01*
X271647Y540970D01*
X271618Y540835D01*
X271588Y540723D01*
X271565Y540630D01*
X271547Y540588D01*
X271535Y540553D01*
X271524Y540530D01*
X271518Y540512D01*
X271512Y540500D01*
Y540495D01*
X271448Y540371D01*
X271377Y540266D01*
X271301Y540172D01*
X271230Y540096D01*
X271172Y540037D01*
X271119Y539996D01*
X271084Y539967D01*
X271078Y539961D01*
X271072D01*
X270961Y539896D01*
X270855Y539849D01*
X270755Y539820D01*
X270661Y539796D01*
X270579Y539785D01*
X270515Y539773D01*
X270491D01*
X270473D01*
X270468D01*
X270462D01*
X270344Y539779D01*
X270233Y539796D01*
X270133Y539826D01*
X270051Y539855D01*
X269981Y539890D01*
X269928Y539914D01*
X269898Y539937D01*
X269887Y539943D01*
X269799Y540014D01*
X269717Y540096D01*
X269646Y540184D01*
X269582Y540272D01*
X269535Y540348D01*
X269499Y540412D01*
X269488Y540436D01*
X269476Y540453D01*
X269470Y540465D01*
Y540471D01*
X269447Y540518D01*
X269429Y540577D01*
X269406Y540641D01*
X269382Y540712D01*
X269341Y540858D01*
X269300Y541011D01*
X269282Y541081D01*
X269265Y541146D01*
X269247Y541210D01*
X269235Y541263D01*
X269224Y541304D01*
X269218Y541339D01*
X269212Y541363D01*
Y541369D01*
X269183Y541486D01*
X269159Y541592D01*
X269130Y541686D01*
X269106Y541768D01*
X269077Y541844D01*
X269054Y541909D01*
X269030Y541967D01*
X269013Y542020D01*
X268989Y542061D01*
X268971Y542096D01*
X268960Y542120D01*
X268942Y542143D01*
X268925Y542173D01*
X268919Y542178D01*
X268860Y542231D01*
X268801Y542267D01*
X268743Y542296D01*
X268684Y542313D01*
X268637Y542325D01*
X268596Y542331D01*
X268572D01*
X268561D01*
X268467Y542319D01*
X268385Y542296D01*
X268314Y542261D01*
X268250Y542220D01*
X268203Y542184D01*
X268162Y542149D01*
X268138Y542126D01*
X268132Y542114D01*
X268103Y542067D01*
X268074Y542020D01*
X268027Y541909D01*
X267997Y541791D01*
X267974Y541674D01*
X267962Y541568D01*
X267956Y541521D01*
X267950Y541486D01*
Y541404D01*
X267956Y541240D01*
X267980Y541093D01*
X268015Y540976D01*
X268050Y540876D01*
X268085Y540800D01*
X268121Y540741D01*
X268144Y540712D01*
X268150Y540700D01*
X268232Y540618D01*
X268320Y540553D01*
X268414Y540500D01*
X268508Y540465D01*
X268596Y540442D01*
X268660Y540424D01*
X268690Y540418D01*
X268707Y540412D01*
X268719D01*
X268725D01*
X268684Y539896D01*
X268555Y539908D01*
X268438Y539937D01*
X268326Y539967D01*
X268232Y540008D01*
X268156Y540043D01*
X268097Y540072D01*
X268080Y540084D01*
X268062Y540096D01*
X268056Y540102D01*
X268050D01*
X267950Y540178D01*
X267862Y540260D01*
X267786Y540348D01*
X267728Y540436D01*
X267675Y540512D01*
X267645Y540571D01*
X267634Y540594D01*
X267622Y540612D01*
X267616Y540624D01*
Y540630D01*
X267569Y540759D01*
X267534Y540900D01*
X267505Y541029D01*
X267487Y541152D01*
X267475Y541263D01*
Y541304D01*
X267469Y541345D01*
Y541422D01*
X267475Y541574D01*
X267493Y541709D01*
X267516Y541838D01*
X267540Y541950D01*
X267563Y542038D01*
X267575Y542079D01*
X267587Y542108D01*
X267598Y542132D01*
X267604Y542149D01*
X267610Y542161D01*
Y542167D01*
X267669Y542284D01*
X267733Y542390D01*
X267804Y542478D01*
X267868Y542548D01*
X267927Y542601D01*
X267974Y542642D01*
X268009Y542671D01*
X268015Y542677D01*
X268021D01*
X268121Y542736D01*
X268220Y542777D01*
X268320Y542806D01*
X268408Y542824D01*
X268484Y542836D01*
X268543Y542847D01*
X268567D01*
X268584D01*
X268590D01*
X268596D01*
X268696Y542842D01*
X268790Y542824D01*
X268878Y542800D01*
X268954Y542777D01*
X269013Y542753D01*
X269059Y542730D01*
X269089Y542713D01*
X269100Y542707D01*
X269183Y542648D01*
X269259Y542578D01*
X269324Y542507D01*
X269376Y542437D01*
X269423Y542378D01*
X269452Y542325D01*
X269476Y542290D01*
X269482Y542284D01*
Y542278D01*
X269505Y542231D01*
X269529Y542178D01*
X269570Y542061D01*
X269611Y541926D01*
X269652Y541797D01*
X269687Y541680D01*
X269699Y541627D01*
X269711Y541580D01*
X269722Y541545D01*
X269728Y541516D01*
X269734Y541498D01*
Y541492D01*
X269758Y541392D01*
X269781Y541298D01*
X269805Y541216D01*
X269822Y541146D01*
X269840Y541076D01*
X269857Y541017D01*
X269869Y540964D01*
X269887Y540923D01*
X269898Y540882D01*
X269904Y540853D01*
X269922Y540806D01*
X269928Y540776D01*
X269934Y540770D01*
X269969Y540682D01*
X270010Y540606D01*
X270051Y540541D01*
X270086Y540495D01*
X270121Y540453D01*
X270145Y540430D01*
X270163Y540412D01*
X270168Y540407D01*
X270221Y540365D01*
X270280Y540336D01*
X270338Y540319D01*
X270385Y540301D01*
X270432Y540295D01*
X270468Y540289D01*
X270497D01*
X270503D01*
X270573Y540295D01*
X270638Y540307D01*
X270696Y540324D01*
X270743Y540348D01*
X270790Y540371D01*
X270820Y540389D01*
X270843Y540401D01*
X270849Y540407D01*
X270908Y540453D01*
X270955Y540512D01*
X270996Y540571D01*
X271037Y540624D01*
X271060Y540676D01*
X271084Y540718D01*
X271095Y540747D01*
X271101Y540759D01*
X271131Y540847D01*
X271154Y540941D01*
X271166Y541034D01*
X271178Y541116D01*
X271183Y541187D01*
X271189Y541246D01*
Y541298D01*
X271183Y541427D01*
X271172Y541545D01*
X271154Y541651D01*
X271131Y541744D01*
X271107Y541821D01*
X271090Y541879D01*
X271084Y541897D01*
X271078Y541914D01*
X271072Y541920D01*
Y541926D01*
X271025Y542020D01*
X270972Y542108D01*
X270919Y542173D01*
X270867Y542231D01*
X270826Y542278D01*
X270784Y542308D01*
X270761Y542325D01*
X270755Y542331D01*
X270679Y542372D01*
X270597Y542413D01*
X270509Y542437D01*
X270432Y542460D01*
X270356Y542478D01*
X270303Y542490D01*
X270280D01*
X270262Y542495D01*
X270256D01*
X270250D01*
X270298Y543000D01*
X270444Y542988D01*
D02*
G37*
G36*
X271600Y538347D02*
Y537784D01*
X268508Y536927D01*
X268432Y536904D01*
X268349Y536886D01*
X268267Y536863D01*
X268197Y536845D01*
X268132Y536828D01*
X268080Y536816D01*
X268044Y536810D01*
X268039Y536804D01*
X268033D01*
X268050Y536798D01*
X268080Y536792D01*
X268144Y536775D01*
X268220Y536751D01*
X268302Y536728D01*
X268379Y536710D01*
X268443Y536693D01*
X268473Y536687D01*
X268490Y536681D01*
X268502Y536675D01*
X268508D01*
X271600Y535824D01*
Y535296D01*
X267540Y534181D01*
Y534727D01*
X270151Y535361D01*
X270333Y535408D01*
X270497Y535443D01*
X270650Y535478D01*
X270779Y535507D01*
X270837Y535525D01*
X270890Y535531D01*
X270931Y535542D01*
X270966Y535548D01*
X270996Y535560D01*
X271019D01*
X271031Y535566D01*
X271037D01*
X270779Y535607D01*
X270526Y535660D01*
X270286Y535713D01*
X270174Y535736D01*
X270063Y535765D01*
X269963Y535789D01*
X269875Y535812D01*
X269799Y535836D01*
X269728Y535854D01*
X269676Y535865D01*
X269634Y535877D01*
X269605Y535889D01*
X269599D01*
X267540Y536464D01*
Y537115D01*
X270286Y537884D01*
X270309Y537890D01*
X270344Y537901D01*
X270391Y537913D01*
X270444Y537925D01*
X270503Y537942D01*
X270567Y537954D01*
X270696Y537989D01*
X270826Y538019D01*
X270884Y538036D01*
X270931Y538048D01*
X270978Y538054D01*
X271007Y538065D01*
X271031Y538071D01*
X271037D01*
X270884Y538101D01*
X270732Y538130D01*
X270591Y538159D01*
X270468Y538189D01*
X270409Y538200D01*
X270356Y538212D01*
X270315Y538224D01*
X270274Y538230D01*
X270245Y538236D01*
X270221Y538242D01*
X270209Y538247D01*
X270204D01*
X267540Y538852D01*
Y539409D01*
X271600Y538347D01*
D02*
G37*
G36*
Y532216D02*
X271594Y532081D01*
X271588Y531958D01*
X271576Y531846D01*
X271565Y531752D01*
X271553Y531670D01*
X271547Y531611D01*
X271541Y531594D01*
X271535Y531576D01*
Y531564D01*
X271506Y531459D01*
X271471Y531365D01*
X271442Y531283D01*
X271406Y531212D01*
X271377Y531154D01*
X271354Y531113D01*
X271336Y531089D01*
X271330Y531077D01*
X271277Y531001D01*
X271213Y530937D01*
X271154Y530872D01*
X271095Y530819D01*
X271043Y530772D01*
X271001Y530737D01*
X270972Y530714D01*
X270961Y530708D01*
X270867Y530649D01*
X270767Y530590D01*
X270673Y530544D01*
X270579Y530508D01*
X270497Y530473D01*
X270432Y530450D01*
X270409Y530444D01*
X270391Y530438D01*
X270380Y530432D01*
X270374D01*
X270233Y530397D01*
X270092Y530368D01*
X269957Y530350D01*
X269828Y530332D01*
X269717Y530326D01*
X269670D01*
X269629Y530321D01*
X269599D01*
X269570D01*
X269558D01*
X269552D01*
X269353Y530326D01*
X269171Y530344D01*
X269007Y530373D01*
X268930Y530385D01*
X268866Y530403D01*
X268801Y530420D01*
X268748Y530432D01*
X268701Y530444D01*
X268660Y530461D01*
X268625Y530467D01*
X268602Y530479D01*
X268590Y530485D01*
X268584D01*
X268432Y530549D01*
X268297Y530626D01*
X268179Y530708D01*
X268080Y530784D01*
X267997Y530854D01*
X267939Y530913D01*
X267921Y530937D01*
X267904Y530954D01*
X267898Y530960D01*
X267892Y530966D01*
X267815Y531060D01*
X267757Y531160D01*
X267704Y531259D01*
X267663Y531353D01*
X267634Y531435D01*
X267616Y531500D01*
X267604Y531523D01*
Y531541D01*
X267598Y531553D01*
Y531559D01*
X267581Y531658D01*
X267563Y531776D01*
X267551Y531893D01*
X267546Y532010D01*
X267540Y532116D01*
Y533677D01*
X271600D01*
Y532216D01*
D02*
G37*
G36*
Y527164D02*
X271119D01*
Y529165D01*
X271019Y529094D01*
X270978Y529059D01*
X270937Y529030D01*
X270902Y529000D01*
X270878Y528977D01*
X270861Y528959D01*
X270855Y528953D01*
X270826Y528924D01*
X270796Y528889D01*
X270720Y528807D01*
X270632Y528713D01*
X270544Y528613D01*
X270468Y528519D01*
X270432Y528478D01*
X270397Y528443D01*
X270374Y528414D01*
X270356Y528390D01*
X270344Y528378D01*
X270338Y528373D01*
X270256Y528279D01*
X270180Y528185D01*
X270104Y528103D01*
X270039Y528026D01*
X269975Y527956D01*
X269916Y527897D01*
X269863Y527839D01*
X269816Y527792D01*
X269769Y527745D01*
X269734Y527710D01*
X269705Y527680D01*
X269676Y527651D01*
X269640Y527621D01*
X269629Y527610D01*
X269529Y527528D01*
X269441Y527457D01*
X269353Y527399D01*
X269282Y527352D01*
X269218Y527316D01*
X269171Y527293D01*
X269142Y527281D01*
X269130Y527275D01*
X269042Y527240D01*
X268954Y527217D01*
X268872Y527193D01*
X268801Y527182D01*
X268737Y527176D01*
X268690Y527170D01*
X268660D01*
X268649D01*
X268561Y527176D01*
X268479Y527187D01*
X268396Y527199D01*
X268326Y527223D01*
X268185Y527281D01*
X268074Y527340D01*
X268021Y527375D01*
X267980Y527404D01*
X267939Y527434D01*
X267909Y527463D01*
X267886Y527487D01*
X267862Y527498D01*
X267857Y527510D01*
X267851Y527516D01*
X267792Y527580D01*
X267739Y527651D01*
X267698Y527727D01*
X267663Y527803D01*
X267604Y527956D01*
X267563Y528108D01*
X267551Y528173D01*
X267540Y528238D01*
X267534Y528296D01*
X267528Y528343D01*
X267522Y528384D01*
Y528443D01*
X267528Y528549D01*
X267534Y528648D01*
X267551Y528742D01*
X267569Y528830D01*
X267593Y528912D01*
X267616Y528989D01*
X267645Y529059D01*
X267675Y529124D01*
X267704Y529182D01*
X267733Y529229D01*
X267757Y529270D01*
X267780Y529305D01*
X267798Y529335D01*
X267815Y529352D01*
X267821Y529364D01*
X267827Y529370D01*
X267886Y529429D01*
X267950Y529482D01*
X268021Y529534D01*
X268091Y529575D01*
X268232Y529646D01*
X268373Y529693D01*
X268438Y529710D01*
X268502Y529728D01*
X268555Y529740D01*
X268602Y529751D01*
X268643Y529757D01*
X268672D01*
X268690Y529763D01*
X268696D01*
X268748Y529253D01*
X268613Y529241D01*
X268496Y529217D01*
X268391Y529182D01*
X268308Y529141D01*
X268238Y529106D01*
X268191Y529071D01*
X268162Y529047D01*
X268150Y529036D01*
X268080Y528948D01*
X268027Y528854D01*
X267986Y528754D01*
X267962Y528666D01*
X267945Y528584D01*
X267939Y528513D01*
X267933Y528490D01*
Y528455D01*
X267939Y528331D01*
X267962Y528220D01*
X267997Y528126D01*
X268033Y528044D01*
X268074Y527979D01*
X268103Y527938D01*
X268127Y527909D01*
X268138Y527897D01*
X268220Y527827D01*
X268302Y527774D01*
X268385Y527733D01*
X268467Y527710D01*
X268531Y527692D01*
X268590Y527686D01*
X268625Y527680D01*
X268631D01*
X268637D01*
X268743Y527692D01*
X268854Y527715D01*
X268954Y527757D01*
X269048Y527798D01*
X269124Y527845D01*
X269188Y527886D01*
X269212Y527897D01*
X269230Y527909D01*
X269235Y527921D01*
X269241D01*
X269306Y527968D01*
X269370Y528026D01*
X269441Y528091D01*
X269511Y528161D01*
X269652Y528308D01*
X269793Y528455D01*
X269857Y528531D01*
X269916Y528596D01*
X269969Y528660D01*
X270016Y528713D01*
X270051Y528754D01*
X270080Y528789D01*
X270098Y528813D01*
X270104Y528819D01*
X270227Y528965D01*
X270344Y529100D01*
X270450Y529212D01*
X270538Y529300D01*
X270614Y529376D01*
X270667Y529429D01*
X270702Y529458D01*
X270708Y529470D01*
X270714D01*
X270814Y529552D01*
X270908Y529616D01*
X271001Y529675D01*
X271084Y529722D01*
X271154Y529757D01*
X271207Y529781D01*
X271242Y529793D01*
X271248Y529798D01*
X271254D01*
X271318Y529822D01*
X271377Y529833D01*
X271436Y529845D01*
X271488Y529851D01*
X271535Y529857D01*
X271571D01*
X271594D01*
X271600D01*
Y527164D01*
D02*
G37*
%LPC*%
G36*
X271119Y533137D02*
X268021D01*
Y532198D01*
X268027Y532122D01*
Y532046D01*
X268033Y531975D01*
X268050Y531858D01*
X268062Y531764D01*
X268080Y531688D01*
X268097Y531635D01*
X268103Y531605D01*
X268109Y531594D01*
X268162Y531488D01*
X268226Y531388D01*
X268302Y531300D01*
X268379Y531224D01*
X268449Y531165D01*
X268508Y531119D01*
X268531Y531107D01*
X268549Y531095D01*
X268561Y531083D01*
X268567D01*
X268631Y531048D01*
X268707Y531013D01*
X268860Y530960D01*
X269024Y530925D01*
X269183Y530896D01*
X269253Y530890D01*
X269324Y530884D01*
X269382Y530878D01*
X269435D01*
X269482Y530872D01*
X269511D01*
X269535D01*
X269541D01*
X269705Y530878D01*
X269857Y530890D01*
X269992Y530907D01*
X270110Y530925D01*
X270157Y530937D01*
X270198Y530948D01*
X270239Y530960D01*
X270268Y530966D01*
X270292Y530972D01*
X270309Y530978D01*
X270321Y530984D01*
X270327D01*
X270438Y531025D01*
X270538Y531072D01*
X270626Y531124D01*
X270702Y531171D01*
X270761Y531212D01*
X270802Y531248D01*
X270826Y531271D01*
X270837Y531277D01*
X270884Y531336D01*
X270925Y531394D01*
X270961Y531453D01*
X270996Y531512D01*
X271019Y531564D01*
X271037Y531605D01*
X271043Y531635D01*
X271049Y531647D01*
X271072Y531735D01*
X271090Y531840D01*
X271101Y531946D01*
X271107Y532046D01*
X271113Y532134D01*
X271119Y532175D01*
Y533137D01*
D02*
G37*
%LPD*%
D13*
X469118Y273000D02*
G03*
X469118Y273000I-1118J0D01*
G01*
X225000Y450524D02*
X220768D01*
X222884Y452640D02*
Y448408D01*
X115000Y105476D02*
X119232D01*
X117116Y103360D02*
Y107592D01*
X481972Y258174D02*
Y251826D01*
X479856Y253942D01*
X477740Y251826D01*
Y258174D01*
X474566Y256058D02*
X472450D01*
X471392Y255000D01*
Y251826D01*
X474566D01*
X475624Y252884D01*
X474566Y253942D01*
X471392D01*
X468218Y257116D02*
Y256058D01*
X469276D01*
X467160D01*
X468218D01*
Y252884D01*
X467160Y251826D01*
X462928Y257116D02*
Y256058D01*
X463986D01*
X461870D01*
X462928D01*
Y252884D01*
X461870Y251826D01*
X455522D02*
X457638D01*
X458696Y252884D01*
Y255000D01*
X457638Y256058D01*
X455522D01*
X454464Y255000D01*
Y253942D01*
X458696D01*
X452348Y256058D02*
Y251826D01*
Y253942D01*
X451290Y255000D01*
X450232Y256058D01*
X449174D01*
X439652Y258174D02*
Y251826D01*
X435420D01*
X430130D02*
X432246D01*
X433304Y252884D01*
Y255000D01*
X432246Y256058D01*
X430130D01*
X429072Y255000D01*
Y253942D01*
X433304D01*
X425898Y256058D02*
X423782D01*
X422724Y255000D01*
Y251826D01*
X425898D01*
X426956Y252884D01*
X425898Y253942D01*
X422724D01*
X416376Y258174D02*
Y251826D01*
X419550D01*
X420608Y252884D01*
Y255000D01*
X419550Y256058D01*
X416376D01*
X414260Y251826D02*
X411086D01*
X410028Y252884D01*
X411086Y253942D01*
X413202D01*
X414260Y255000D01*
X413202Y256058D01*
X410028D01*
X300360Y499724D02*
X302476D01*
X303534Y498666D01*
Y494434D01*
X302476Y493376D01*
X300360D01*
X299302Y494434D01*
Y498666D01*
X300360Y499724D01*
X292954Y493376D02*
X297186D01*
X292954Y497608D01*
Y498666D01*
X294012Y499724D01*
X296128D01*
X297186Y498666D01*
X136656Y558652D02*
Y552304D01*
X133482D01*
X132424Y553362D01*
Y554420D01*
X133482Y555478D01*
X136656D01*
X133482D01*
X132424Y556536D01*
Y557594D01*
X133482Y558652D01*
X136656D01*
X130308D02*
X126076D01*
X128192D01*
Y552304D01*
X123960Y555478D02*
X119728D01*
X131830Y138536D02*
Y132188D01*
X128656D01*
X127598Y133246D01*
Y134304D01*
X128656Y135362D01*
X131830D01*
X128656D01*
X127598Y136420D01*
Y137478D01*
X128656Y138536D01*
X131830D01*
X125482D02*
X121250D01*
X123366D01*
Y132188D01*
X119134Y135362D02*
X114902D01*
X117018Y137478D02*
Y133246D01*
D14*
X278500Y527849D02*
X379100D01*
X278500D02*
Y548200D01*
X379100Y527849D02*
Y548200D01*
X278500D02*
X379100D01*
D18*
X491000Y385000D02*
G03*
X491000Y385000I-100000J0D01*
G01*
X376121Y328000D02*
G03*
X376121Y328000I-10521J0D01*
G01*
X393000Y268500D02*
X493000D01*
Y193500D02*
Y268500D01*
X393000Y193500D02*
Y268500D01*
Y193500D02*
X493000D01*
X131900Y447350D02*
X153300D01*
X131900D02*
Y541850D01*
X208100D01*
Y447350D02*
Y541850D01*
X186700Y447350D02*
X208100D01*
X186700Y108650D02*
X208100D01*
Y14150D02*
Y108650D01*
X131900Y14150D02*
X208100D01*
X131900D02*
Y108650D01*
X153300D01*
D19*
X344026Y290258D02*
G03*
X344026Y290258I-2048J0D01*
G01*
M02*
