G04*
G04 #@! TF.GenerationSoftware,Altium Limited,Altium Designer,21.6.1 (37)*
G04*
G04 Layer_Color=16711935*
%FSLAX44Y44*%
%MOMM*%
G71*
G04*
G04 #@! TF.SameCoordinates,4F178BE9-AC55-4CEC-B3A2-6D2310684F74*
G04*
G04*
G04 #@! TF.FilePolarity,Positive*
G04*
G01*
G75*
%ADD13C,0.2540*%
%ADD14C,0.2000*%
%ADD15C,0.1000*%
G36*
X349049Y539572D02*
X349148Y539566D01*
X349242Y539548D01*
X349330Y539531D01*
X349412Y539507D01*
X349489Y539484D01*
X349559Y539455D01*
X349624Y539425D01*
X349682Y539396D01*
X349729Y539367D01*
X349770Y539343D01*
X349805Y539320D01*
X349835Y539302D01*
X349852Y539285D01*
X349864Y539279D01*
X349870Y539273D01*
X349929Y539214D01*
X349981Y539150D01*
X350034Y539079D01*
X350075Y539009D01*
X350146Y538868D01*
X350193Y538727D01*
X350210Y538662D01*
X350228Y538598D01*
X350240Y538545D01*
X350251Y538498D01*
X350257Y538457D01*
Y538428D01*
X350263Y538410D01*
Y538404D01*
X349753Y538352D01*
X349741Y538487D01*
X349717Y538604D01*
X349682Y538709D01*
X349641Y538792D01*
X349606Y538862D01*
X349571Y538909D01*
X349547Y538938D01*
X349536Y538950D01*
X349448Y539020D01*
X349354Y539073D01*
X349254Y539114D01*
X349166Y539138D01*
X349084Y539155D01*
X349013Y539161D01*
X348990Y539167D01*
X348955D01*
X348831Y539161D01*
X348720Y539138D01*
X348626Y539103D01*
X348544Y539067D01*
X348479Y539026D01*
X348438Y538997D01*
X348409Y538974D01*
X348397Y538962D01*
X348327Y538880D01*
X348274Y538797D01*
X348233Y538715D01*
X348210Y538633D01*
X348192Y538569D01*
X348186Y538510D01*
X348180Y538475D01*
Y538469D01*
Y538463D01*
X348192Y538357D01*
X348215Y538246D01*
X348256Y538146D01*
X348298Y538052D01*
X348344Y537976D01*
X348386Y537911D01*
X348397Y537888D01*
X348409Y537870D01*
X348421Y537865D01*
Y537859D01*
X348468Y537794D01*
X348526Y537730D01*
X348591Y537659D01*
X348661Y537589D01*
X348808Y537448D01*
X348955Y537307D01*
X349031Y537243D01*
X349095Y537184D01*
X349160Y537131D01*
X349213Y537084D01*
X349254Y537049D01*
X349289Y537020D01*
X349313Y537002D01*
X349319Y536996D01*
X349465Y536873D01*
X349600Y536756D01*
X349712Y536650D01*
X349800Y536562D01*
X349876Y536486D01*
X349929Y536433D01*
X349958Y536398D01*
X349970Y536392D01*
Y536386D01*
X350052Y536286D01*
X350117Y536192D01*
X350175Y536099D01*
X350222Y536016D01*
X350257Y535946D01*
X350281Y535893D01*
X350293Y535858D01*
X350298Y535852D01*
Y535846D01*
X350322Y535782D01*
X350334Y535723D01*
X350345Y535664D01*
X350351Y535611D01*
X350357Y535564D01*
Y535529D01*
Y535506D01*
Y535500D01*
X347664D01*
Y535981D01*
X349665D01*
X349594Y536081D01*
X349559Y536122D01*
X349530Y536163D01*
X349500Y536198D01*
X349477Y536222D01*
X349459Y536239D01*
X349454Y536245D01*
X349424Y536274D01*
X349389Y536304D01*
X349307Y536380D01*
X349213Y536468D01*
X349113Y536556D01*
X349019Y536632D01*
X348978Y536668D01*
X348943Y536703D01*
X348914Y536726D01*
X348890Y536744D01*
X348878Y536756D01*
X348873Y536762D01*
X348779Y536844D01*
X348685Y536920D01*
X348603Y536996D01*
X348526Y537061D01*
X348456Y537125D01*
X348397Y537184D01*
X348339Y537237D01*
X348292Y537284D01*
X348245Y537331D01*
X348210Y537366D01*
X348180Y537395D01*
X348151Y537425D01*
X348122Y537460D01*
X348110Y537471D01*
X348028Y537571D01*
X347957Y537659D01*
X347899Y537747D01*
X347852Y537818D01*
X347816Y537882D01*
X347793Y537929D01*
X347781Y537958D01*
X347775Y537970D01*
X347740Y538058D01*
X347717Y538146D01*
X347693Y538228D01*
X347682Y538299D01*
X347676Y538363D01*
X347670Y538410D01*
Y538440D01*
Y538451D01*
X347676Y538539D01*
X347687Y538621D01*
X347699Y538704D01*
X347723Y538774D01*
X347781Y538915D01*
X347840Y539026D01*
X347875Y539079D01*
X347905Y539120D01*
X347934Y539161D01*
X347963Y539191D01*
X347987Y539214D01*
X347998Y539238D01*
X348010Y539243D01*
X348016Y539249D01*
X348080Y539308D01*
X348151Y539361D01*
X348227Y539402D01*
X348303Y539437D01*
X348456Y539496D01*
X348609Y539537D01*
X348673Y539548D01*
X348738Y539560D01*
X348796Y539566D01*
X348843Y539572D01*
X348884Y539578D01*
X348943D01*
X349049Y539572D01*
D02*
G37*
G36*
X358847Y535500D02*
X358284D01*
X357427Y538592D01*
X357404Y538668D01*
X357386Y538750D01*
X357363Y538833D01*
X357345Y538903D01*
X357327Y538968D01*
X357316Y539020D01*
X357310Y539056D01*
X357304Y539062D01*
Y539067D01*
X357298Y539050D01*
X357292Y539020D01*
X357275Y538956D01*
X357251Y538880D01*
X357228Y538797D01*
X357210Y538721D01*
X357193Y538657D01*
X357187Y538627D01*
X357181Y538610D01*
X357175Y538598D01*
Y538592D01*
X356324Y535500D01*
X355796D01*
X354681Y539560D01*
X355227D01*
X355861Y536949D01*
X355908Y536767D01*
X355943Y536603D01*
X355978Y536451D01*
X356007Y536321D01*
X356025Y536263D01*
X356031Y536210D01*
X356043Y536169D01*
X356048Y536134D01*
X356060Y536104D01*
Y536081D01*
X356066Y536069D01*
Y536063D01*
X356107Y536321D01*
X356160Y536574D01*
X356213Y536814D01*
X356236Y536926D01*
X356265Y537037D01*
X356289Y537137D01*
X356312Y537225D01*
X356336Y537301D01*
X356353Y537372D01*
X356365Y537425D01*
X356377Y537466D01*
X356389Y537495D01*
Y537501D01*
X356964Y539560D01*
X357615D01*
X358384Y536814D01*
X358390Y536791D01*
X358401Y536756D01*
X358413Y536709D01*
X358425Y536656D01*
X358442Y536597D01*
X358454Y536533D01*
X358489Y536404D01*
X358519Y536274D01*
X358536Y536216D01*
X358548Y536169D01*
X358554Y536122D01*
X358565Y536093D01*
X358571Y536069D01*
Y536063D01*
X358601Y536216D01*
X358630Y536368D01*
X358659Y536509D01*
X358689Y536632D01*
X358700Y536691D01*
X358712Y536744D01*
X358724Y536785D01*
X358730Y536826D01*
X358736Y536855D01*
X358741Y536879D01*
X358747Y536891D01*
Y536896D01*
X359352Y539560D01*
X359909D01*
X358847Y535500D01*
D02*
G37*
G36*
X354177D02*
X352716D01*
X352581Y535506D01*
X352458Y535512D01*
X352346Y535523D01*
X352252Y535535D01*
X352170Y535547D01*
X352111Y535553D01*
X352094Y535559D01*
X352076Y535564D01*
X352064D01*
X351959Y535594D01*
X351865Y535629D01*
X351783Y535658D01*
X351712Y535694D01*
X351654Y535723D01*
X351613Y535746D01*
X351589Y535764D01*
X351577Y535770D01*
X351501Y535823D01*
X351437Y535887D01*
X351372Y535946D01*
X351319Y536005D01*
X351272Y536057D01*
X351237Y536099D01*
X351214Y536128D01*
X351208Y536139D01*
X351149Y536233D01*
X351091Y536333D01*
X351044Y536427D01*
X351008Y536521D01*
X350973Y536603D01*
X350950Y536668D01*
X350944Y536691D01*
X350938Y536709D01*
X350932Y536720D01*
Y536726D01*
X350897Y536867D01*
X350868Y537008D01*
X350850Y537143D01*
X350832Y537272D01*
X350826Y537383D01*
Y537430D01*
X350821Y537471D01*
Y537501D01*
Y537530D01*
Y537542D01*
Y537548D01*
X350826Y537747D01*
X350844Y537929D01*
X350873Y538093D01*
X350885Y538170D01*
X350903Y538234D01*
X350920Y538299D01*
X350932Y538352D01*
X350944Y538399D01*
X350961Y538440D01*
X350967Y538475D01*
X350979Y538498D01*
X350985Y538510D01*
Y538516D01*
X351049Y538668D01*
X351126Y538803D01*
X351208Y538921D01*
X351284Y539020D01*
X351354Y539103D01*
X351413Y539161D01*
X351437Y539179D01*
X351454Y539197D01*
X351460Y539202D01*
X351466Y539208D01*
X351560Y539285D01*
X351660Y539343D01*
X351759Y539396D01*
X351853Y539437D01*
X351935Y539466D01*
X352000Y539484D01*
X352023Y539496D01*
X352041D01*
X352053Y539502D01*
X352059D01*
X352158Y539519D01*
X352276Y539537D01*
X352393Y539548D01*
X352510Y539554D01*
X352616Y539560D01*
X354177D01*
Y535500D01*
D02*
G37*
G36*
X362074Y539625D02*
X362209Y539607D01*
X362338Y539584D01*
X362450Y539560D01*
X362538Y539537D01*
X362579Y539525D01*
X362608Y539513D01*
X362632Y539502D01*
X362649Y539496D01*
X362661Y539490D01*
X362667D01*
X362784Y539431D01*
X362890Y539367D01*
X362978Y539296D01*
X363048Y539232D01*
X363101Y539173D01*
X363142Y539126D01*
X363171Y539091D01*
X363177Y539085D01*
Y539079D01*
X363236Y538979D01*
X363277Y538880D01*
X363306Y538780D01*
X363324Y538692D01*
X363336Y538616D01*
X363348Y538557D01*
Y538533D01*
Y538516D01*
Y538510D01*
Y538504D01*
X363342Y538404D01*
X363324Y538311D01*
X363301Y538223D01*
X363277Y538146D01*
X363254Y538088D01*
X363230Y538041D01*
X363213Y538011D01*
X363207Y537999D01*
X363148Y537917D01*
X363078Y537841D01*
X363007Y537776D01*
X362937Y537724D01*
X362878Y537677D01*
X362825Y537648D01*
X362790Y537624D01*
X362784Y537618D01*
X362778D01*
X362731Y537595D01*
X362679Y537571D01*
X362561Y537530D01*
X362426Y537489D01*
X362297Y537448D01*
X362180Y537413D01*
X362127Y537401D01*
X362080Y537389D01*
X362045Y537378D01*
X362016Y537372D01*
X361998Y537366D01*
X361992D01*
X361892Y537342D01*
X361799Y537319D01*
X361716Y537295D01*
X361646Y537278D01*
X361576Y537260D01*
X361517Y537243D01*
X361464Y537231D01*
X361423Y537213D01*
X361382Y537201D01*
X361353Y537196D01*
X361306Y537178D01*
X361276Y537172D01*
X361270Y537166D01*
X361182Y537131D01*
X361106Y537090D01*
X361042Y537049D01*
X360995Y537014D01*
X360954Y536979D01*
X360930Y536955D01*
X360913Y536937D01*
X360907Y536932D01*
X360866Y536879D01*
X360836Y536820D01*
X360819Y536762D01*
X360801Y536715D01*
X360795Y536668D01*
X360789Y536632D01*
Y536603D01*
Y536597D01*
X360795Y536527D01*
X360807Y536462D01*
X360825Y536404D01*
X360848Y536357D01*
X360871Y536310D01*
X360889Y536280D01*
X360901Y536257D01*
X360907Y536251D01*
X360954Y536192D01*
X361012Y536145D01*
X361071Y536104D01*
X361124Y536063D01*
X361176Y536040D01*
X361218Y536016D01*
X361247Y536005D01*
X361259Y535999D01*
X361347Y535969D01*
X361441Y535946D01*
X361534Y535934D01*
X361617Y535922D01*
X361687Y535917D01*
X361746Y535911D01*
X361799D01*
X361927Y535917D01*
X362045Y535928D01*
X362150Y535946D01*
X362244Y535969D01*
X362321Y535993D01*
X362379Y536011D01*
X362397Y536016D01*
X362415Y536022D01*
X362420Y536028D01*
X362426D01*
X362520Y536075D01*
X362608Y536128D01*
X362673Y536181D01*
X362731Y536233D01*
X362778Y536274D01*
X362808Y536316D01*
X362825Y536339D01*
X362831Y536345D01*
X362872Y536421D01*
X362913Y536503D01*
X362937Y536591D01*
X362960Y536668D01*
X362978Y536744D01*
X362990Y536797D01*
Y536820D01*
X362995Y536838D01*
Y536844D01*
Y536850D01*
X363500Y536803D01*
X363488Y536656D01*
X363465Y536515D01*
X363430Y536392D01*
X363388Y536280D01*
X363348Y536192D01*
X363330Y536157D01*
X363318Y536128D01*
X363301Y536104D01*
X363295Y536087D01*
X363283Y536075D01*
Y536069D01*
X363195Y535958D01*
X363101Y535858D01*
X363001Y535776D01*
X362907Y535705D01*
X362825Y535653D01*
X362755Y535617D01*
X362731Y535606D01*
X362714Y535594D01*
X362702Y535588D01*
X362696D01*
X362550Y535535D01*
X362397Y535494D01*
X362244Y535471D01*
X362098Y535447D01*
X362027Y535441D01*
X361969Y535435D01*
X361916D01*
X361869Y535430D01*
X361775D01*
X361617Y535435D01*
X361470Y535453D01*
X361335Y535482D01*
X361223Y535512D01*
X361130Y535535D01*
X361088Y535553D01*
X361053Y535564D01*
X361030Y535576D01*
X361012Y535582D01*
X361001Y535588D01*
X360995D01*
X360871Y535653D01*
X360766Y535723D01*
X360672Y535799D01*
X360596Y535870D01*
X360537Y535928D01*
X360496Y535981D01*
X360467Y536016D01*
X360461Y536022D01*
Y536028D01*
X360396Y536139D01*
X360349Y536245D01*
X360320Y536345D01*
X360296Y536439D01*
X360285Y536521D01*
X360273Y536586D01*
Y536609D01*
Y536627D01*
Y536632D01*
Y536638D01*
X360279Y536756D01*
X360296Y536867D01*
X360326Y536967D01*
X360355Y537049D01*
X360390Y537119D01*
X360414Y537172D01*
X360437Y537201D01*
X360443Y537213D01*
X360513Y537301D01*
X360596Y537383D01*
X360684Y537454D01*
X360772Y537518D01*
X360848Y537565D01*
X360913Y537601D01*
X360936Y537612D01*
X360954Y537624D01*
X360965Y537630D01*
X360971D01*
X361018Y537653D01*
X361077Y537671D01*
X361141Y537694D01*
X361212Y537718D01*
X361358Y537759D01*
X361511Y537800D01*
X361581Y537818D01*
X361646Y537835D01*
X361711Y537853D01*
X361763Y537865D01*
X361804Y537876D01*
X361839Y537882D01*
X361863Y537888D01*
X361869D01*
X361986Y537917D01*
X362092Y537941D01*
X362186Y537970D01*
X362268Y537994D01*
X362344Y538023D01*
X362409Y538046D01*
X362467Y538070D01*
X362520Y538088D01*
X362561Y538111D01*
X362596Y538129D01*
X362620Y538140D01*
X362643Y538158D01*
X362673Y538176D01*
X362679Y538181D01*
X362731Y538240D01*
X362767Y538299D01*
X362796Y538357D01*
X362813Y538416D01*
X362825Y538463D01*
X362831Y538504D01*
Y538528D01*
Y538539D01*
X362819Y538633D01*
X362796Y538715D01*
X362761Y538786D01*
X362720Y538850D01*
X362684Y538897D01*
X362649Y538938D01*
X362626Y538962D01*
X362614Y538968D01*
X362567Y538997D01*
X362520Y539026D01*
X362409Y539073D01*
X362291Y539103D01*
X362174Y539126D01*
X362068Y539138D01*
X362021Y539144D01*
X361986Y539150D01*
X361904D01*
X361740Y539144D01*
X361593Y539120D01*
X361476Y539085D01*
X361376Y539050D01*
X361300Y539015D01*
X361241Y538979D01*
X361212Y538956D01*
X361200Y538950D01*
X361118Y538868D01*
X361053Y538780D01*
X361001Y538686D01*
X360965Y538592D01*
X360942Y538504D01*
X360924Y538440D01*
X360918Y538410D01*
X360913Y538393D01*
Y538381D01*
Y538375D01*
X360396Y538416D01*
X360408Y538545D01*
X360437Y538662D01*
X360467Y538774D01*
X360508Y538868D01*
X360543Y538944D01*
X360572Y539003D01*
X360584Y539020D01*
X360596Y539038D01*
X360602Y539044D01*
Y539050D01*
X360678Y539150D01*
X360760Y539238D01*
X360848Y539314D01*
X360936Y539372D01*
X361012Y539425D01*
X361071Y539455D01*
X361094Y539466D01*
X361112Y539478D01*
X361124Y539484D01*
X361130D01*
X361259Y539531D01*
X361399Y539566D01*
X361529Y539595D01*
X361652Y539613D01*
X361763Y539625D01*
X361804D01*
X361845Y539631D01*
X361922D01*
X362074Y539625D01*
D02*
G37*
G36*
X125500Y312940D02*
X123617D01*
X123570Y312946D01*
X123517D01*
X123394Y312952D01*
X123265Y312969D01*
X123124Y312987D01*
X122995Y313016D01*
X122930Y313034D01*
X122877Y313051D01*
X122871D01*
X122865Y313057D01*
X122830Y313075D01*
X122778Y313098D01*
X122713Y313139D01*
X122643Y313192D01*
X122566Y313262D01*
X122496Y313345D01*
X122425Y313438D01*
Y313444D01*
X122420Y313450D01*
X122396Y313485D01*
X122373Y313544D01*
X122338Y313620D01*
X122308Y313708D01*
X122279Y313814D01*
X122261Y313925D01*
X122255Y314049D01*
Y314055D01*
Y314066D01*
Y314090D01*
X122261Y314119D01*
Y314160D01*
X122267Y314201D01*
X122290Y314301D01*
X122326Y314418D01*
X122373Y314541D01*
X122443Y314665D01*
X122490Y314723D01*
X122537Y314782D01*
X122543Y314788D01*
X122549Y314794D01*
X122566Y314811D01*
X122590Y314829D01*
X122619Y314853D01*
X122654Y314876D01*
X122701Y314905D01*
X122748Y314940D01*
X122807Y314970D01*
X122871Y314999D01*
X122942Y315034D01*
X123018Y315064D01*
X123106Y315087D01*
X123194Y315117D01*
X123294Y315134D01*
X123399Y315152D01*
X123388Y315158D01*
X123364Y315169D01*
X123329Y315193D01*
X123282Y315216D01*
X123176Y315281D01*
X123124Y315322D01*
X123077Y315357D01*
X123065Y315369D01*
X123036Y315398D01*
X122989Y315445D01*
X122930Y315504D01*
X122865Y315586D01*
X122789Y315674D01*
X122713Y315780D01*
X122631Y315897D01*
X121933Y317000D01*
X122601D01*
X123135Y316155D01*
Y316149D01*
X123147Y316138D01*
X123159Y316120D01*
X123176Y316096D01*
X123218Y316032D01*
X123270Y315950D01*
X123335Y315862D01*
X123399Y315768D01*
X123464Y315680D01*
X123523Y315598D01*
X123529Y315592D01*
X123546Y315568D01*
X123575Y315533D01*
X123617Y315492D01*
X123705Y315404D01*
X123751Y315363D01*
X123799Y315328D01*
X123804Y315322D01*
X123816Y315316D01*
X123840Y315304D01*
X123875Y315287D01*
X123910Y315269D01*
X123951Y315252D01*
X124045Y315222D01*
X124051D01*
X124062Y315216D01*
X124086D01*
X124115Y315210D01*
X124156Y315205D01*
X124203D01*
X124268Y315199D01*
X124960D01*
Y317000D01*
X125500D01*
Y312940D01*
D02*
G37*
G36*
X120290Y317064D02*
X120337D01*
X120389Y317059D01*
X120448Y317047D01*
X120519Y317029D01*
X120589Y317012D01*
X120671Y316988D01*
X120753Y316959D01*
X120835Y316924D01*
X120923Y316877D01*
X121006Y316824D01*
X121088Y316765D01*
X121170Y316695D01*
X121246Y316613D01*
X121252Y316607D01*
X121264Y316589D01*
X121281Y316566D01*
X121305Y316525D01*
X121340Y316472D01*
X121369Y316413D01*
X121405Y316337D01*
X121440Y316255D01*
X121481Y316155D01*
X121516Y316044D01*
X121545Y315920D01*
X121575Y315785D01*
X121604Y315633D01*
X121622Y315469D01*
X121633Y315293D01*
X121639Y315105D01*
Y315099D01*
Y315093D01*
Y315075D01*
Y315052D01*
X121633Y314993D01*
Y314911D01*
X121628Y314817D01*
X121616Y314706D01*
X121604Y314583D01*
X121586Y314448D01*
X121563Y314313D01*
X121534Y314166D01*
X121498Y314025D01*
X121457Y313884D01*
X121405Y313749D01*
X121346Y313620D01*
X121281Y313497D01*
X121205Y313391D01*
X121199Y313386D01*
X121187Y313374D01*
X121164Y313351D01*
X121135Y313315D01*
X121100Y313280D01*
X121053Y313245D01*
X120994Y313198D01*
X120935Y313157D01*
X120865Y313116D01*
X120788Y313069D01*
X120701Y313034D01*
X120612Y312992D01*
X120513Y312963D01*
X120407Y312940D01*
X120296Y312928D01*
X120178Y312922D01*
X120131D01*
X120096Y312928D01*
X120055D01*
X120008Y312934D01*
X119897Y312957D01*
X119773Y312987D01*
X119644Y313034D01*
X119515Y313104D01*
X119451Y313145D01*
X119392Y313192D01*
X119386Y313198D01*
X119380Y313204D01*
X119363Y313221D01*
X119345Y313239D01*
X119316Y313268D01*
X119292Y313304D01*
X119228Y313386D01*
X119163Y313491D01*
X119104Y313620D01*
X119052Y313767D01*
X119017Y313931D01*
X119515Y313972D01*
Y313967D01*
X119521Y313961D01*
X119527Y313925D01*
X119545Y313873D01*
X119568Y313808D01*
X119592Y313738D01*
X119627Y313667D01*
X119668Y313603D01*
X119709Y313550D01*
X119721Y313538D01*
X119744Y313515D01*
X119785Y313479D01*
X119844Y313438D01*
X119920Y313403D01*
X120002Y313368D01*
X120102Y313345D01*
X120208Y313333D01*
X120249D01*
X120296Y313339D01*
X120348Y313351D01*
X120419Y313368D01*
X120489Y313391D01*
X120560Y313421D01*
X120630Y313468D01*
X120642Y313474D01*
X120671Y313497D01*
X120712Y313538D01*
X120765Y313597D01*
X120824Y313667D01*
X120888Y313749D01*
X120947Y313855D01*
X121006Y313972D01*
Y313978D01*
X121011Y313990D01*
X121017Y314008D01*
X121029Y314031D01*
X121035Y314066D01*
X121047Y314107D01*
X121058Y314154D01*
X121070Y314213D01*
X121088Y314277D01*
X121100Y314348D01*
X121111Y314424D01*
X121117Y314506D01*
X121129Y314600D01*
X121135Y314694D01*
X121140Y314800D01*
Y314905D01*
X121135Y314899D01*
X121111Y314864D01*
X121070Y314817D01*
X121017Y314759D01*
X120959Y314688D01*
X120882Y314624D01*
X120800Y314559D01*
X120706Y314501D01*
X120701D01*
X120695Y314495D01*
X120659Y314477D01*
X120607Y314459D01*
X120536Y314430D01*
X120454Y314407D01*
X120360Y314389D01*
X120260Y314371D01*
X120155Y314366D01*
X120108D01*
X120073Y314371D01*
X120026Y314377D01*
X119979Y314383D01*
X119920Y314395D01*
X119861Y314412D01*
X119726Y314454D01*
X119656Y314483D01*
X119586Y314524D01*
X119515Y314565D01*
X119439Y314612D01*
X119369Y314671D01*
X119304Y314735D01*
X119298Y314741D01*
X119286Y314753D01*
X119269Y314770D01*
X119251Y314800D01*
X119222Y314841D01*
X119192Y314882D01*
X119163Y314935D01*
X119128Y314993D01*
X119093Y315058D01*
X119064Y315128D01*
X119034Y315210D01*
X119005Y315293D01*
X118987Y315381D01*
X118970Y315480D01*
X118958Y315580D01*
X118952Y315686D01*
Y315692D01*
Y315703D01*
Y315721D01*
Y315750D01*
X118958Y315785D01*
Y315821D01*
X118975Y315914D01*
X118993Y316026D01*
X119022Y316143D01*
X119064Y316272D01*
X119122Y316396D01*
Y316402D01*
X119128Y316407D01*
X119140Y316425D01*
X119151Y316448D01*
X119187Y316507D01*
X119240Y316583D01*
X119304Y316665D01*
X119380Y316748D01*
X119474Y316830D01*
X119574Y316900D01*
X119580D01*
X119586Y316906D01*
X119603Y316918D01*
X119627Y316924D01*
X119685Y316953D01*
X119762Y316982D01*
X119861Y317018D01*
X119973Y317041D01*
X120096Y317064D01*
X120231Y317070D01*
X120260D01*
X120290Y317064D01*
D02*
G37*
G36*
X244060Y501617D02*
X244054Y501570D01*
Y501517D01*
X244049Y501394D01*
X244031Y501264D01*
X244013Y501124D01*
X243984Y500995D01*
X243966Y500930D01*
X243949Y500877D01*
Y500871D01*
X243943Y500866D01*
X243925Y500830D01*
X243902Y500778D01*
X243861Y500713D01*
X243808Y500643D01*
X243738Y500566D01*
X243655Y500496D01*
X243561Y500425D01*
X243556D01*
X243550Y500420D01*
X243515Y500396D01*
X243456Y500373D01*
X243380Y500337D01*
X243292Y500308D01*
X243186Y500279D01*
X243074Y500261D01*
X242951Y500255D01*
X242945D01*
X242934D01*
X242910D01*
X242881Y500261D01*
X242840D01*
X242799Y500267D01*
X242699Y500290D01*
X242582Y500326D01*
X242458Y500373D01*
X242335Y500443D01*
X242277Y500490D01*
X242218Y500537D01*
X242212Y500543D01*
X242206Y500549D01*
X242188Y500566D01*
X242171Y500590D01*
X242148Y500619D01*
X242124Y500654D01*
X242095Y500701D01*
X242059Y500748D01*
X242030Y500807D01*
X242001Y500871D01*
X241966Y500942D01*
X241936Y501018D01*
X241913Y501106D01*
X241883Y501194D01*
X241866Y501294D01*
X241848Y501399D01*
X241842Y501388D01*
X241831Y501364D01*
X241807Y501329D01*
X241784Y501282D01*
X241719Y501176D01*
X241678Y501124D01*
X241643Y501077D01*
X241631Y501065D01*
X241602Y501036D01*
X241555Y500989D01*
X241496Y500930D01*
X241414Y500866D01*
X241326Y500789D01*
X241220Y500713D01*
X241103Y500631D01*
X240000Y499933D01*
Y500602D01*
X240845Y501135D01*
X240851D01*
X240863Y501147D01*
X240880Y501159D01*
X240904Y501176D01*
X240968Y501218D01*
X241050Y501270D01*
X241138Y501335D01*
X241232Y501399D01*
X241320Y501464D01*
X241402Y501523D01*
X241408Y501529D01*
X241432Y501546D01*
X241467Y501576D01*
X241508Y501617D01*
X241596Y501705D01*
X241637Y501752D01*
X241672Y501799D01*
X241678Y501804D01*
X241684Y501816D01*
X241696Y501839D01*
X241713Y501875D01*
X241731Y501910D01*
X241749Y501951D01*
X241778Y502045D01*
Y502051D01*
X241784Y502062D01*
Y502086D01*
X241790Y502115D01*
X241795Y502156D01*
Y502203D01*
X241801Y502268D01*
Y502960D01*
X240000D01*
Y503500D01*
X244060D01*
Y501617D01*
D02*
G37*
G36*
X244007Y496952D02*
X243614D01*
X243608Y496958D01*
X243597Y496970D01*
X243573Y496993D01*
X243538Y497016D01*
X243497Y497052D01*
X243450Y497099D01*
X243391Y497146D01*
X243321Y497198D01*
X243251Y497251D01*
X243168Y497316D01*
X243074Y497380D01*
X242981Y497445D01*
X242875Y497515D01*
X242764Y497586D01*
X242640Y497656D01*
X242517Y497727D01*
X242511Y497732D01*
X242488Y497744D01*
X242453Y497762D01*
X242400Y497791D01*
X242335Y497820D01*
X242265Y497856D01*
X242183Y497897D01*
X242089Y497938D01*
X241983Y497985D01*
X241878Y498037D01*
X241760Y498084D01*
X241637Y498131D01*
X241385Y498225D01*
X241115Y498313D01*
X241109D01*
X241091Y498319D01*
X241062Y498325D01*
X241027Y498337D01*
X240980Y498348D01*
X240921Y498360D01*
X240857Y498378D01*
X240786Y498390D01*
X240704Y498407D01*
X240616Y498425D01*
X240428Y498454D01*
X240223Y498483D01*
X240000Y498501D01*
Y499011D01*
X240006D01*
X240023D01*
X240047D01*
X240082Y499006D01*
X240129D01*
X240188Y499000D01*
X240252Y498994D01*
X240323Y498988D01*
X240405Y498976D01*
X240487Y498965D01*
X240587Y498947D01*
X240686Y498929D01*
X240792Y498912D01*
X240909Y498888D01*
X241150Y498830D01*
X241156D01*
X241179Y498824D01*
X241215Y498812D01*
X241267Y498794D01*
X241326Y498777D01*
X241396Y498753D01*
X241479Y498730D01*
X241567Y498695D01*
X241666Y498659D01*
X241766Y498624D01*
X241989Y498536D01*
X242224Y498431D01*
X242458Y498313D01*
X242464Y498307D01*
X242488Y498296D01*
X242517Y498278D01*
X242564Y498255D01*
X242617Y498225D01*
X242681Y498184D01*
X242752Y498143D01*
X242828Y498096D01*
X242998Y497985D01*
X243174Y497867D01*
X243356Y497732D01*
X243526Y497592D01*
Y499581D01*
X244007D01*
Y496952D01*
D02*
G37*
G36*
X106012Y267875D02*
X106065Y267869D01*
X106130Y267863D01*
X106194Y267857D01*
X106271Y267840D01*
X106429Y267804D01*
X106605Y267752D01*
X106693Y267716D01*
X106775Y267675D01*
X106857Y267623D01*
X106940Y267570D01*
X106945Y267564D01*
X106957Y267558D01*
X106981Y267540D01*
X107010Y267511D01*
X107039Y267482D01*
X107080Y267441D01*
X107121Y267394D01*
X107168Y267347D01*
X107215Y267288D01*
X107262Y267218D01*
X107315Y267147D01*
X107362Y267071D01*
X107403Y266983D01*
X107450Y266895D01*
X107485Y266801D01*
X107520Y266695D01*
X106992Y266572D01*
Y266578D01*
X106987Y266590D01*
X106975Y266613D01*
X106963Y266643D01*
X106951Y266678D01*
X106934Y266725D01*
X106887Y266819D01*
X106828Y266924D01*
X106758Y267030D01*
X106670Y267130D01*
X106576Y267218D01*
X106564Y267229D01*
X106529Y267253D01*
X106470Y267282D01*
X106394Y267323D01*
X106294Y267358D01*
X106183Y267394D01*
X106048Y267417D01*
X105901Y267423D01*
X105854D01*
X105825Y267417D01*
X105784D01*
X105737Y267411D01*
X105625Y267394D01*
X105502Y267370D01*
X105373Y267329D01*
X105238Y267270D01*
X105115Y267194D01*
X105109D01*
X105103Y267182D01*
X105062Y267153D01*
X105009Y267106D01*
X104945Y267036D01*
X104868Y266948D01*
X104798Y266848D01*
X104733Y266725D01*
X104675Y266590D01*
Y266584D01*
X104669Y266572D01*
X104663Y266555D01*
X104657Y266525D01*
X104645Y266490D01*
X104634Y266449D01*
X104616Y266349D01*
X104593Y266232D01*
X104569Y266103D01*
X104557Y265962D01*
X104551Y265809D01*
Y265804D01*
Y265786D01*
Y265757D01*
Y265721D01*
X104557Y265680D01*
Y265628D01*
X104563Y265569D01*
X104569Y265504D01*
X104587Y265364D01*
X104616Y265211D01*
X104651Y265058D01*
X104698Y264906D01*
Y264900D01*
X104704Y264888D01*
X104716Y264871D01*
X104728Y264841D01*
X104763Y264771D01*
X104816Y264689D01*
X104880Y264595D01*
X104962Y264495D01*
X105056Y264407D01*
X105168Y264325D01*
X105174D01*
X105185Y264319D01*
X105203Y264307D01*
X105226Y264296D01*
X105256Y264284D01*
X105291Y264266D01*
X105373Y264231D01*
X105479Y264196D01*
X105596Y264167D01*
X105725Y264143D01*
X105860Y264137D01*
X105901D01*
X105936Y264143D01*
X105977D01*
X106018Y264149D01*
X106124Y264172D01*
X106247Y264202D01*
X106370Y264249D01*
X106500Y264313D01*
X106564Y264349D01*
X106623Y264395D01*
X106629Y264401D01*
X106635Y264407D01*
X106652Y264425D01*
X106676Y264442D01*
X106699Y264472D01*
X106728Y264507D01*
X106763Y264542D01*
X106793Y264589D01*
X106828Y264642D01*
X106869Y264701D01*
X106904Y264759D01*
X106940Y264830D01*
X106969Y264906D01*
X106998Y264988D01*
X107028Y265076D01*
X107051Y265170D01*
X107591Y265035D01*
Y265029D01*
X107585Y265006D01*
X107573Y264970D01*
X107556Y264923D01*
X107538Y264871D01*
X107515Y264806D01*
X107485Y264736D01*
X107450Y264659D01*
X107368Y264495D01*
X107262Y264331D01*
X107198Y264249D01*
X107133Y264167D01*
X107063Y264096D01*
X106981Y264026D01*
X106975Y264020D01*
X106963Y264008D01*
X106934Y263996D01*
X106904Y263973D01*
X106857Y263944D01*
X106811Y263914D01*
X106746Y263885D01*
X106681Y263856D01*
X106605Y263820D01*
X106523Y263791D01*
X106435Y263762D01*
X106341Y263732D01*
X106241Y263709D01*
X106136Y263697D01*
X106024Y263685D01*
X105907Y263680D01*
X105842D01*
X105795Y263685D01*
X105743D01*
X105678Y263691D01*
X105608Y263703D01*
X105526Y263715D01*
X105355Y263744D01*
X105179Y263791D01*
X105003Y263856D01*
X104921Y263897D01*
X104839Y263944D01*
X104833Y263950D01*
X104821Y263955D01*
X104798Y263973D01*
X104775Y263996D01*
X104739Y264020D01*
X104698Y264055D01*
X104651Y264096D01*
X104604Y264143D01*
X104557Y264196D01*
X104505Y264249D01*
X104399Y264384D01*
X104299Y264542D01*
X104211Y264718D01*
Y264724D01*
X104199Y264742D01*
X104194Y264771D01*
X104176Y264806D01*
X104164Y264853D01*
X104147Y264912D01*
X104123Y264976D01*
X104106Y265047D01*
X104088Y265123D01*
X104065Y265211D01*
X104035Y265393D01*
X104012Y265598D01*
X104000Y265809D01*
Y265815D01*
Y265839D01*
Y265874D01*
X104006Y265915D01*
Y265974D01*
X104012Y266032D01*
X104018Y266109D01*
X104029Y266185D01*
X104059Y266355D01*
X104100Y266543D01*
X104158Y266731D01*
X104241Y266912D01*
X104246Y266918D01*
X104252Y266936D01*
X104264Y266959D01*
X104288Y266989D01*
X104311Y267030D01*
X104340Y267077D01*
X104417Y267182D01*
X104516Y267300D01*
X104634Y267417D01*
X104769Y267535D01*
X104927Y267634D01*
X104933Y267640D01*
X104951Y267646D01*
X104974Y267658D01*
X105003Y267675D01*
X105050Y267693D01*
X105097Y267710D01*
X105156Y267734D01*
X105220Y267757D01*
X105291Y267781D01*
X105367Y267804D01*
X105531Y267840D01*
X105719Y267869D01*
X105913Y267881D01*
X105971D01*
X106012Y267875D01*
D02*
G37*
G36*
X112648Y267822D02*
X112696Y267816D01*
X112754Y267810D01*
X112819Y267799D01*
X112883Y267787D01*
X113036Y267746D01*
X113188Y267687D01*
X113265Y267652D01*
X113341Y267611D01*
X113411Y267558D01*
X113476Y267499D01*
X113482Y267493D01*
X113493Y267488D01*
X113505Y267464D01*
X113529Y267441D01*
X113558Y267411D01*
X113587Y267370D01*
X113617Y267329D01*
X113652Y267276D01*
X113710Y267165D01*
X113769Y267024D01*
X113793Y266954D01*
X113804Y266871D01*
X113816Y266789D01*
X113822Y266701D01*
Y266690D01*
Y266660D01*
X113816Y266613D01*
X113810Y266549D01*
X113799Y266478D01*
X113775Y266396D01*
X113752Y266308D01*
X113716Y266220D01*
X113710Y266208D01*
X113699Y266179D01*
X113675Y266132D01*
X113640Y266068D01*
X113593Y265997D01*
X113534Y265909D01*
X113464Y265821D01*
X113382Y265721D01*
X113370Y265710D01*
X113341Y265674D01*
X113312Y265645D01*
X113282Y265616D01*
X113247Y265581D01*
X113200Y265534D01*
X113153Y265487D01*
X113095Y265434D01*
X113036Y265375D01*
X112965Y265311D01*
X112889Y265246D01*
X112807Y265170D01*
X112713Y265094D01*
X112619Y265012D01*
X112613Y265006D01*
X112602Y264994D01*
X112578Y264976D01*
X112549Y264953D01*
X112514Y264918D01*
X112472Y264882D01*
X112379Y264806D01*
X112279Y264718D01*
X112185Y264630D01*
X112103Y264554D01*
X112068Y264524D01*
X112038Y264495D01*
X112032Y264489D01*
X112015Y264472D01*
X111991Y264448D01*
X111962Y264413D01*
X111933Y264372D01*
X111897Y264331D01*
X111827Y264231D01*
X113828D01*
Y263750D01*
X111135D01*
Y263756D01*
Y263779D01*
Y263815D01*
X111141Y263862D01*
X111146Y263914D01*
X111158Y263973D01*
X111170Y264032D01*
X111193Y264096D01*
Y264102D01*
X111199Y264108D01*
X111211Y264143D01*
X111235Y264196D01*
X111270Y264266D01*
X111317Y264349D01*
X111375Y264442D01*
X111440Y264536D01*
X111522Y264636D01*
Y264642D01*
X111534Y264648D01*
X111563Y264683D01*
X111616Y264736D01*
X111692Y264812D01*
X111780Y264900D01*
X111892Y265006D01*
X112027Y265123D01*
X112173Y265246D01*
X112179Y265252D01*
X112203Y265270D01*
X112238Y265299D01*
X112279Y265334D01*
X112332Y265381D01*
X112396Y265434D01*
X112461Y265493D01*
X112537Y265557D01*
X112684Y265698D01*
X112830Y265839D01*
X112901Y265909D01*
X112965Y265980D01*
X113024Y266044D01*
X113071Y266109D01*
Y266115D01*
X113083Y266120D01*
X113095Y266138D01*
X113106Y266161D01*
X113147Y266226D01*
X113194Y266302D01*
X113235Y266396D01*
X113276Y266496D01*
X113300Y266607D01*
X113312Y266713D01*
Y266719D01*
Y266725D01*
X113306Y266760D01*
X113300Y266819D01*
X113282Y266883D01*
X113259Y266965D01*
X113218Y267048D01*
X113165Y267130D01*
X113095Y267212D01*
X113083Y267223D01*
X113053Y267247D01*
X113012Y267276D01*
X112948Y267317D01*
X112866Y267353D01*
X112772Y267388D01*
X112660Y267411D01*
X112537Y267417D01*
X112502D01*
X112478Y267411D01*
X112408Y267405D01*
X112326Y267388D01*
X112238Y267364D01*
X112138Y267323D01*
X112044Y267270D01*
X111956Y267200D01*
X111945Y267188D01*
X111921Y267159D01*
X111886Y267112D01*
X111851Y267042D01*
X111810Y266959D01*
X111774Y266854D01*
X111751Y266737D01*
X111739Y266602D01*
X111229Y266654D01*
Y266660D01*
X111235Y266678D01*
Y266707D01*
X111240Y266748D01*
X111252Y266795D01*
X111264Y266848D01*
X111281Y266912D01*
X111299Y266977D01*
X111346Y267118D01*
X111416Y267259D01*
X111458Y267329D01*
X111510Y267400D01*
X111563Y267464D01*
X111622Y267523D01*
X111628Y267529D01*
X111639Y267535D01*
X111657Y267552D01*
X111686Y267570D01*
X111721Y267593D01*
X111763Y267617D01*
X111810Y267646D01*
X111868Y267675D01*
X111933Y267705D01*
X112003Y267734D01*
X112079Y267757D01*
X112162Y267781D01*
X112250Y267799D01*
X112343Y267816D01*
X112443Y267822D01*
X112549Y267828D01*
X112607D01*
X112648Y267822D01*
D02*
G37*
G36*
X109926Y263750D02*
X109427D01*
Y266924D01*
X109422Y266918D01*
X109392Y266895D01*
X109357Y266860D01*
X109298Y266819D01*
X109234Y266766D01*
X109152Y266707D01*
X109058Y266643D01*
X108952Y266578D01*
X108946D01*
X108940Y266572D01*
X108905Y266549D01*
X108847Y266519D01*
X108776Y266484D01*
X108694Y266443D01*
X108606Y266402D01*
X108518Y266361D01*
X108430Y266326D01*
Y266807D01*
X108436D01*
X108448Y266819D01*
X108471Y266824D01*
X108500Y266842D01*
X108535Y266860D01*
X108577Y266883D01*
X108676Y266942D01*
X108794Y267006D01*
X108911Y267089D01*
X109034Y267182D01*
X109157Y267282D01*
X109163Y267288D01*
X109169Y267294D01*
X109187Y267311D01*
X109210Y267329D01*
X109263Y267388D01*
X109333Y267458D01*
X109404Y267540D01*
X109480Y267634D01*
X109545Y267728D01*
X109603Y267828D01*
X109926D01*
Y263750D01*
D02*
G37*
%LPC*%
G36*
X353637Y539079D02*
X352698D01*
X352622Y539073D01*
X352546D01*
X352475Y539067D01*
X352358Y539050D01*
X352264Y539038D01*
X352188Y539020D01*
X352135Y539003D01*
X352105Y538997D01*
X352094Y538991D01*
X351988Y538938D01*
X351888Y538874D01*
X351800Y538797D01*
X351724Y538721D01*
X351665Y538651D01*
X351618Y538592D01*
X351607Y538569D01*
X351595Y538551D01*
X351583Y538539D01*
Y538533D01*
X351548Y538469D01*
X351513Y538393D01*
X351460Y538240D01*
X351425Y538076D01*
X351396Y537917D01*
X351390Y537847D01*
X351384Y537776D01*
X351378Y537718D01*
Y537665D01*
X351372Y537618D01*
Y537589D01*
Y537565D01*
Y537560D01*
X351378Y537395D01*
X351390Y537243D01*
X351407Y537108D01*
X351425Y536990D01*
X351437Y536943D01*
X351448Y536902D01*
X351460Y536861D01*
X351466Y536832D01*
X351472Y536808D01*
X351478Y536791D01*
X351484Y536779D01*
Y536773D01*
X351525Y536662D01*
X351572Y536562D01*
X351624Y536474D01*
X351671Y536398D01*
X351712Y536339D01*
X351748Y536298D01*
X351771Y536274D01*
X351777Y536263D01*
X351836Y536216D01*
X351894Y536175D01*
X351953Y536139D01*
X352012Y536104D01*
X352064Y536081D01*
X352105Y536063D01*
X352135Y536057D01*
X352147Y536051D01*
X352235Y536028D01*
X352340Y536011D01*
X352446Y535999D01*
X352546Y535993D01*
X352634Y535987D01*
X352675Y535981D01*
X353637D01*
Y539079D01*
D02*
G37*
G36*
X124960Y314735D02*
X123751D01*
X123681Y314729D01*
X123599Y314723D01*
X123505Y314718D01*
X123411Y314706D01*
X123317Y314688D01*
X123235Y314665D01*
X123223Y314659D01*
X123200Y314647D01*
X123165Y314629D01*
X123118Y314606D01*
X123065Y314571D01*
X123012Y314530D01*
X122959Y314477D01*
X122918Y314418D01*
X122913Y314412D01*
X122901Y314389D01*
X122883Y314354D01*
X122860Y314307D01*
X122842Y314254D01*
X122824Y314195D01*
X122813Y314125D01*
X122807Y314055D01*
Y314049D01*
Y314043D01*
X122813Y314008D01*
X122819Y313955D01*
X122830Y313884D01*
X122860Y313814D01*
X122895Y313732D01*
X122948Y313656D01*
X123018Y313579D01*
X123030Y313573D01*
X123059Y313550D01*
X123106Y313521D01*
X123182Y313485D01*
X123270Y313450D01*
X123388Y313421D01*
X123523Y313397D01*
X123681Y313391D01*
X124960D01*
Y314735D01*
D02*
G37*
G36*
X120237Y316660D02*
X120208D01*
X120184Y316654D01*
X120126Y316648D01*
X120049Y316630D01*
X119967Y316595D01*
X119873Y316554D01*
X119779Y316490D01*
X119732Y316454D01*
X119691Y316407D01*
Y316402D01*
X119679Y316396D01*
X119656Y316360D01*
X119621Y316302D01*
X119574Y316225D01*
X119533Y316126D01*
X119498Y316008D01*
X119474Y315873D01*
X119462Y315715D01*
Y315709D01*
Y315697D01*
Y315674D01*
X119468Y315645D01*
Y315609D01*
X119474Y315568D01*
X119492Y315474D01*
X119515Y315369D01*
X119556Y315257D01*
X119615Y315152D01*
X119691Y315052D01*
X119703Y315040D01*
X119732Y315011D01*
X119779Y314976D01*
X119844Y314929D01*
X119926Y314882D01*
X120020Y314847D01*
X120131Y314817D01*
X120254Y314806D01*
X120290D01*
X120313Y314811D01*
X120372Y314817D01*
X120454Y314835D01*
X120542Y314864D01*
X120642Y314911D01*
X120736Y314970D01*
X120830Y315052D01*
X120841Y315064D01*
X120865Y315093D01*
X120906Y315146D01*
X120947Y315222D01*
X120988Y315310D01*
X121029Y315422D01*
X121053Y315545D01*
X121064Y315686D01*
Y315697D01*
Y315727D01*
X121058Y315780D01*
X121053Y315844D01*
X121041Y315920D01*
X121017Y316003D01*
X120994Y316091D01*
X120959Y316178D01*
X120953Y316190D01*
X120935Y316220D01*
X120912Y316261D01*
X120877Y316313D01*
X120835Y316366D01*
X120783Y316431D01*
X120724Y316484D01*
X120653Y316537D01*
X120642Y316542D01*
X120618Y316554D01*
X120577Y316577D01*
X120524Y316595D01*
X120466Y316619D01*
X120395Y316642D01*
X120319Y316654D01*
X120237Y316660D01*
D02*
G37*
G36*
X243608Y502960D02*
X242265D01*
Y501752D01*
X242271Y501681D01*
X242277Y501599D01*
X242282Y501505D01*
X242294Y501411D01*
X242312Y501317D01*
X242335Y501235D01*
X242341Y501223D01*
X242353Y501200D01*
X242370Y501165D01*
X242394Y501118D01*
X242429Y501065D01*
X242470Y501012D01*
X242523Y500959D01*
X242582Y500918D01*
X242588Y500913D01*
X242611Y500901D01*
X242646Y500883D01*
X242693Y500860D01*
X242746Y500842D01*
X242805Y500825D01*
X242875Y500813D01*
X242945Y500807D01*
X242951D01*
X242957D01*
X242992Y500813D01*
X243045Y500819D01*
X243116Y500830D01*
X243186Y500860D01*
X243268Y500895D01*
X243344Y500948D01*
X243421Y501018D01*
X243427Y501030D01*
X243450Y501059D01*
X243479Y501106D01*
X243515Y501182D01*
X243550Y501270D01*
X243579Y501388D01*
X243603Y501523D01*
X243608Y501681D01*
Y502960D01*
D02*
G37*
%LPD*%
D13*
X152000Y-102000D02*
Y558000D01*
X382000D01*
X381000Y-102000D02*
Y558000D01*
X152000Y-102000D02*
X382000D01*
D14*
X379100Y527849D02*
Y548200D01*
X278500Y527849D02*
X379100D01*
X278500D02*
Y548200D01*
X379100D01*
X104000Y260250D02*
Y272000D01*
Y260250D02*
X126000D01*
Y272000D01*
X104000D02*
X126000D01*
D15*
X104500Y309000D02*
X125500D01*
X104500D02*
Y321000D01*
X125500D01*
Y309000D02*
Y321000D01*
X236000Y503500D02*
X248000D01*
X236000Y482500D02*
Y503500D01*
Y482500D02*
X248000D01*
Y503500D01*
M02*
