G04*
G04 #@! TF.GenerationSoftware,Altium Limited,Altium Designer,21.6.1 (37)*
G04*
G04 Layer_Color=8388736*
%FSLAX44Y44*%
%MOMM*%
G71*
G04*
G04 #@! TF.SameCoordinates,4F178BE9-AC55-4CEC-B3A2-6D2310684F74*
G04*
G04*
G04 #@! TF.FilePolarity,Negative*
G04*
G01*
G75*
%ADD44R,0.6500X1.0500*%
%ADD54R,0.6032X1.9532*%
%ADD55R,1.6282X2.7032*%
G04:AMPARAMS|DCode=56|XSize=0.7032mm|YSize=1.0032mm|CornerRadius=0.2016mm|HoleSize=0mm|Usage=FLASHONLY|Rotation=270.000|XOffset=0mm|YOffset=0mm|HoleType=Round|Shape=RoundedRectangle|*
%AMROUNDEDRECTD56*
21,1,0.7032,0.6000,0,0,270.0*
21,1,0.3000,1.0032,0,0,270.0*
1,1,0.4032,-0.3000,-0.1500*
1,1,0.4032,-0.3000,0.1500*
1,1,0.4032,0.3000,0.1500*
1,1,0.4032,0.3000,-0.1500*
%
%ADD56ROUNDEDRECTD56*%
G04:AMPARAMS|DCode=57|XSize=0.7032mm|YSize=1.0032mm|CornerRadius=0.2016mm|HoleSize=0mm|Usage=FLASHONLY|Rotation=0.000|XOffset=0mm|YOffset=0mm|HoleType=Round|Shape=RoundedRectangle|*
%AMROUNDEDRECTD57*
21,1,0.7032,0.6000,0,0,0.0*
21,1,0.3000,1.0032,0,0,0.0*
1,1,0.4032,0.1500,-0.3000*
1,1,0.4032,-0.1500,-0.3000*
1,1,0.4032,-0.1500,0.3000*
1,1,0.4032,0.1500,0.3000*
%
%ADD57ROUNDEDRECTD57*%
G04:AMPARAMS|DCode=58|XSize=1.7032mm|YSize=1.7032mm|CornerRadius=0.1766mm|HoleSize=0mm|Usage=FLASHONLY|Rotation=270.000|XOffset=0mm|YOffset=0mm|HoleType=Round|Shape=RoundedRectangle|*
%AMROUNDEDRECTD58*
21,1,1.7032,1.3500,0,0,270.0*
21,1,1.3500,1.7032,0,0,270.0*
1,1,0.3532,-0.6750,-0.6750*
1,1,0.3532,-0.6750,0.6750*
1,1,0.3532,0.6750,0.6750*
1,1,0.3532,0.6750,-0.6750*
%
%ADD58ROUNDEDRECTD58*%
%ADD59R,1.2532X1.2532*%
%ADD60R,0.9144X1.9812*%
%ADD61R,1.3532X0.8032*%
%ADD62R,1.0922X1.2192*%
G04:AMPARAMS|DCode=63|XSize=0.9632mm|YSize=0.8636mm|CornerRadius=0.1842mm|HoleSize=0mm|Usage=FLASHONLY|Rotation=270.000|XOffset=0mm|YOffset=0mm|HoleType=Round|Shape=RoundedRectangle|*
%AMROUNDEDRECTD63*
21,1,0.9632,0.4953,0,0,270.0*
21,1,0.5949,0.8636,0,0,270.0*
1,1,0.3683,-0.2477,-0.2975*
1,1,0.3683,-0.2477,0.2975*
1,1,0.3683,0.2477,0.2975*
1,1,0.3683,0.2477,-0.2975*
%
%ADD63ROUNDEDRECTD63*%
%ADD64R,0.8128X1.9304*%
%ADD65R,0.9144X1.9304*%
%ADD66R,1.4732X0.5588*%
%ADD67R,0.6032X1.1032*%
%ADD68R,1.0032X0.9588*%
%ADD69R,0.9588X1.0032*%
%ADD70R,0.9906X0.5588*%
%ADD71R,1.2532X1.2532*%
%ADD72R,0.8032X1.0532*%
%ADD73R,0.6532X1.0032*%
%ADD74R,0.8032X1.4032*%
%ADD75R,0.4832X0.6132*%
%ADD76R,0.6132X0.4832*%
%ADD77R,1.1430X1.1684*%
%ADD78R,1.2532X2.4031*%
%ADD79R,1.2032X1.2532*%
%ADD80R,1.1684X1.1430*%
%ADD81R,1.4032X2.4032*%
%ADD82R,0.9032X0.7032*%
%ADD83R,1.0532X0.8032*%
%ADD84R,0.7032X0.9032*%
%ADD85R,1.0032X1.1032*%
%ADD86R,2.2032X1.6632*%
%ADD87O,1.4032X1.9032*%
%ADD88O,1.2032X1.6032*%
%ADD89C,1.7272*%
%ADD90R,2.7032X2.7032*%
%ADD91C,2.7032*%
%ADD92C,1.7032*%
%ADD93R,1.7032X1.7032*%
%ADD94C,3.1532*%
%ADD95C,4.7752*%
%ADD96C,0.6096*%
G36*
X229383Y51610D02*
X229513Y51583D01*
X229640Y51541D01*
X229759Y51482D01*
X229870Y51408D01*
X229970Y51320D01*
X230058Y51220D01*
X230132Y51109D01*
X230191Y50990D01*
X230233Y50863D01*
X230259Y50733D01*
X230268Y50600D01*
Y43600D01*
Y23100D01*
Y22880D01*
X230267Y22857D01*
X230267Y22834D01*
X230257Y22614D01*
X230257Y22608D01*
X230257Y22602D01*
X230249Y22541D01*
X230242Y22481D01*
X230241Y22476D01*
X230240Y22469D01*
X230200Y22259D01*
X230199Y22255D01*
X230198Y22250D01*
X230158Y22050D01*
X230154Y22034D01*
X230151Y22017D01*
X230111Y21847D01*
X230103Y21820D01*
X230097Y21793D01*
X230047Y21623D01*
X230034Y21588D01*
X230023Y21553D01*
X229903Y21233D01*
X229891Y21205D01*
X229880Y21177D01*
X229720Y20817D01*
X229718Y20811D01*
X229715Y20805D01*
X229687Y20752D01*
X229659Y20699D01*
X229655Y20694D01*
X229652Y20688D01*
X229432Y20338D01*
X229417Y20318D01*
X229404Y20296D01*
X229194Y19996D01*
X229192Y19993D01*
X229190Y19991D01*
X229151Y19942D01*
X229111Y19892D01*
X229108Y19890D01*
X229106Y19887D01*
X228846Y19607D01*
X228832Y19594D01*
X228820Y19580D01*
X228555Y19315D01*
X228552Y19312D01*
X228549Y19309D01*
X228502Y19268D01*
X228455Y19227D01*
X228451Y19225D01*
X228448Y19222D01*
X228123Y18977D01*
X228072Y18943D01*
X228021Y18909D01*
X227711Y18729D01*
X227694Y18721D01*
X227678Y18711D01*
X227358Y18541D01*
X227302Y18516D01*
X227246Y18490D01*
X226856Y18340D01*
X226803Y18323D01*
X226752Y18306D01*
X226357Y18201D01*
X226304Y18191D01*
X226253Y18179D01*
X225838Y18114D01*
X225783Y18109D01*
X225727Y18103D01*
X225297Y18083D01*
X225274Y18083D01*
X225250Y18082D01*
X220250D01*
X220223Y18084D01*
X220195Y18083D01*
X219825Y18103D01*
X219784Y18108D01*
X219744Y18111D01*
X219374Y18161D01*
X219345Y18167D01*
X219317Y18170D01*
X219007Y18230D01*
X218949Y18246D01*
X218892Y18259D01*
X218482Y18389D01*
X218475Y18392D01*
X218468Y18394D01*
X218413Y18417D01*
X218358Y18438D01*
X218352Y18442D01*
X218345Y18444D01*
X217975Y18624D01*
X217950Y18638D01*
X217925Y18650D01*
X217565Y18850D01*
X217561Y18853D01*
X217556Y18855D01*
X217505Y18889D01*
X217454Y18922D01*
X217450Y18925D01*
X217445Y18928D01*
X217115Y19178D01*
X217089Y19201D01*
X217061Y19222D01*
X216751Y19492D01*
X216748Y19496D01*
X216744Y19498D01*
X216701Y19543D01*
X216657Y19586D01*
X216654Y19590D01*
X216651Y19593D01*
X216391Y19893D01*
X216369Y19922D01*
X216346Y19949D01*
X216105Y20269D01*
X216077Y20313D01*
X216047Y20356D01*
X215837Y20706D01*
X215819Y20741D01*
X215799Y20775D01*
X215609Y21155D01*
X215602Y21172D01*
X215593Y21188D01*
X215576Y21233D01*
X215558Y21277D01*
X215553Y21295D01*
X215546Y21312D01*
X215436Y21672D01*
X215436Y21672D01*
X215381Y21854D01*
X215375Y21880D01*
X215367Y21905D01*
X215322Y22084D01*
X215321Y22088D01*
X215320Y22092D01*
X215309Y22154D01*
X215298Y22215D01*
X215298Y22219D01*
X215297Y22223D01*
X215257Y22603D01*
X215256Y22631D01*
X215253Y22658D01*
X215233Y23048D01*
X215233Y23074D01*
X215232Y23100D01*
Y42582D01*
X211000D01*
X210867Y42590D01*
X210737Y42617D01*
X210610Y42659D01*
X210491Y42718D01*
X210380Y42792D01*
X210280Y42880D01*
X210192Y42980D01*
X210118Y43091D01*
X210059Y43210D01*
X210017Y43337D01*
X209991Y43467D01*
X209982Y43600D01*
Y50600D01*
X209991Y50733D01*
X210017Y50863D01*
X210059Y50990D01*
X210118Y51109D01*
X210192Y51220D01*
X210280Y51320D01*
X210380Y51408D01*
X210491Y51482D01*
X210610Y51541D01*
X210737Y51583D01*
X210867Y51610D01*
X211000Y51618D01*
X229250D01*
X229383Y51610D01*
D02*
G37*
G36*
X289133Y51610D02*
X289263Y51583D01*
X289390Y51541D01*
X289509Y51482D01*
X289620Y51408D01*
X289720Y51320D01*
X289808Y51220D01*
X289882Y51109D01*
X289941Y50990D01*
X289983Y50864D01*
X290009Y50733D01*
X290018Y50600D01*
Y43600D01*
X290009Y43467D01*
X289983Y43337D01*
X289941Y43210D01*
X289882Y43091D01*
X289808Y42980D01*
X289720Y42880D01*
X289620Y42792D01*
X289509Y42718D01*
X289390Y42659D01*
X289263Y42617D01*
X289133Y42590D01*
X289000Y42582D01*
X284768D01*
Y23100D01*
X284767Y23074D01*
X284767Y23048D01*
X284747Y22658D01*
X284744Y22631D01*
X284743Y22603D01*
X284703Y22223D01*
X284702Y22219D01*
X284702Y22215D01*
X284691Y22154D01*
X284680Y22092D01*
X284679Y22088D01*
X284678Y22084D01*
X284633Y21905D01*
X284625Y21880D01*
X284619Y21854D01*
X284564Y21672D01*
X284564Y21672D01*
X284454Y21312D01*
X284447Y21295D01*
X284442Y21277D01*
X284424Y21233D01*
X284407Y21188D01*
X284398Y21172D01*
X284391Y21155D01*
X284201Y20775D01*
X284181Y20741D01*
X284163Y20706D01*
X283953Y20356D01*
X283923Y20313D01*
X283895Y20269D01*
X283655Y19949D01*
X283631Y19922D01*
X283609Y19893D01*
X283349Y19593D01*
X283346Y19590D01*
X283343Y19586D01*
X283300Y19543D01*
X283256Y19498D01*
X283252Y19496D01*
X283249Y19492D01*
X282939Y19222D01*
X282911Y19201D01*
X282885Y19178D01*
X282555Y18928D01*
X282550Y18925D01*
X282546Y18922D01*
X282495Y18889D01*
X282444Y18855D01*
X282439Y18853D01*
X282435Y18850D01*
X282075Y18650D01*
X282050Y18638D01*
X282025Y18624D01*
X281655Y18444D01*
X281649Y18442D01*
X281642Y18438D01*
X281587Y18417D01*
X281532Y18394D01*
X281525Y18392D01*
X281518Y18389D01*
X281108Y18260D01*
X281051Y18246D01*
X280993Y18230D01*
X280683Y18170D01*
X280655Y18167D01*
X280626Y18161D01*
X280256Y18111D01*
X280216Y18108D01*
X280175Y18103D01*
X279805Y18083D01*
X279777Y18084D01*
X279750Y18082D01*
X274750D01*
X274726Y18083D01*
X274703Y18083D01*
X274273Y18103D01*
X274217Y18109D01*
X274162Y18114D01*
X273748Y18179D01*
X273696Y18191D01*
X273643Y18201D01*
X273248Y18306D01*
X273197Y18323D01*
X273144Y18340D01*
X272754Y18490D01*
X272698Y18516D01*
X272642Y18541D01*
X272322Y18711D01*
X272306Y18721D01*
X272289Y18729D01*
X271979Y18909D01*
X271928Y18944D01*
X271877Y18977D01*
X271552Y19222D01*
X271549Y19225D01*
X271545Y19227D01*
X271498Y19268D01*
X271451Y19309D01*
X271448Y19312D01*
X271445Y19315D01*
X271180Y19580D01*
X271168Y19594D01*
X271154Y19607D01*
X270894Y19887D01*
X270892Y19890D01*
X270889Y19892D01*
X270849Y19942D01*
X270810Y19991D01*
X270808Y19993D01*
X270806Y19996D01*
X270596Y20296D01*
X270583Y20318D01*
X270568Y20338D01*
X270348Y20688D01*
X270345Y20694D01*
X270341Y20699D01*
X270313Y20752D01*
X270285Y20805D01*
X270282Y20811D01*
X270280Y20817D01*
X270120Y21177D01*
X270109Y21205D01*
X270097Y21233D01*
X269977Y21553D01*
X269966Y21588D01*
X269953Y21623D01*
X269903Y21793D01*
X269897Y21820D01*
X269889Y21847D01*
X269849Y22017D01*
X269846Y22034D01*
X269842Y22050D01*
X269802Y22250D01*
X269801Y22255D01*
X269800Y22260D01*
X269760Y22469D01*
X269759Y22476D01*
X269758Y22481D01*
X269751Y22541D01*
X269743Y22602D01*
X269744Y22608D01*
X269743Y22614D01*
X269733Y22834D01*
X269733Y22857D01*
X269732Y22880D01*
Y23100D01*
Y43600D01*
Y50600D01*
X269741Y50733D01*
X269767Y50864D01*
X269809Y50990D01*
X269868Y51109D01*
X269942Y51220D01*
X270030Y51320D01*
X270130Y51408D01*
X270241Y51482D01*
X270360Y51541D01*
X270487Y51583D01*
X270617Y51610D01*
X270750Y51618D01*
X289000D01*
X289133Y51610D01*
D02*
G37*
D44*
X201250Y496250D02*
D03*
Y537750D02*
D03*
X222750Y496250D02*
D03*
Y537750D02*
D03*
X118250Y496250D02*
D03*
Y537750D02*
D03*
X139750Y496250D02*
D03*
Y537750D02*
D03*
D54*
X250000Y58350D02*
D03*
X243500D02*
D03*
X237000D02*
D03*
X256500D02*
D03*
X263000D02*
D03*
D55*
X240375Y27600D02*
D03*
X259625D02*
D03*
D56*
X257500Y236000D02*
D03*
Y244000D02*
D03*
Y252000D02*
D03*
Y260000D02*
D03*
Y268000D02*
D03*
Y276000D02*
D03*
Y284000D02*
D03*
Y292000D02*
D03*
Y300000D02*
D03*
Y308000D02*
D03*
Y316000D02*
D03*
Y324000D02*
D03*
X144500D02*
D03*
Y316000D02*
D03*
Y308000D02*
D03*
Y300000D02*
D03*
Y292000D02*
D03*
Y284000D02*
D03*
Y276000D02*
D03*
Y268000D02*
D03*
Y260000D02*
D03*
Y252000D02*
D03*
Y244000D02*
D03*
Y236000D02*
D03*
D57*
X157000Y332000D02*
D03*
X165000D02*
D03*
X173000D02*
D03*
X181000D02*
D03*
X189000D02*
D03*
X197000D02*
D03*
X205000D02*
D03*
X213000D02*
D03*
X221000D02*
D03*
X229000D02*
D03*
X237000D02*
D03*
X245000D02*
D03*
X243750Y228000D02*
D03*
X235750D02*
D03*
X227750D02*
D03*
X219750D02*
D03*
X211750D02*
D03*
X203750D02*
D03*
X195750D02*
D03*
X187750D02*
D03*
X179750D02*
D03*
X171750D02*
D03*
X163750D02*
D03*
X155750D02*
D03*
D58*
X226000Y255000D02*
D03*
X201000D02*
D03*
X176000D02*
D03*
X226000Y280000D02*
D03*
X201000D02*
D03*
X176000D02*
D03*
X226000Y305000D02*
D03*
X201000D02*
D03*
X176000D02*
D03*
D59*
X281250Y260000D02*
D03*
X294750D02*
D03*
Y275000D02*
D03*
X281250D02*
D03*
X475750Y456000D02*
D03*
X462250D02*
D03*
X100250Y157000D02*
D03*
X113750D02*
D03*
X293750Y308000D02*
D03*
X280250D02*
D03*
X293750Y325000D02*
D03*
X280250D02*
D03*
X357250Y305000D02*
D03*
X370750D02*
D03*
X227750Y447000D02*
D03*
X214250D02*
D03*
X280730Y453000D02*
D03*
X294230D02*
D03*
X108250Y250000D02*
D03*
X121750D02*
D03*
D60*
X379050Y278160D02*
D03*
X340950D02*
D03*
X353650D02*
D03*
X366350D02*
D03*
D61*
X462500Y440500D02*
D03*
Y421500D02*
D03*
X487500Y431000D02*
D03*
D62*
X160000Y189112D02*
D03*
Y174888D02*
D03*
D63*
X294000Y341000D02*
D03*
X280000D02*
D03*
X281000Y243000D02*
D03*
X295000D02*
D03*
X280000Y290000D02*
D03*
X294000D02*
D03*
D64*
X442000Y312664D02*
D03*
X472000D02*
D03*
D65*
X457000D02*
D03*
D66*
X354940Y163250D02*
D03*
Y169750D02*
D03*
Y176250D02*
D03*
Y182750D02*
D03*
X383060D02*
D03*
Y176250D02*
D03*
Y169750D02*
D03*
Y163250D02*
D03*
D67*
X206500Y138500D02*
D03*
X219500D02*
D03*
Y119500D02*
D03*
X213000D02*
D03*
X206500D02*
D03*
D68*
X418000Y264222D02*
D03*
Y279778D02*
D03*
X489000Y327778D02*
D03*
Y312222D02*
D03*
X144000Y196778D02*
D03*
Y181222D02*
D03*
X101000Y197778D02*
D03*
Y182222D02*
D03*
D69*
X449222Y257000D02*
D03*
X464778D02*
D03*
X214778Y178000D02*
D03*
X199222D02*
D03*
X143778Y210000D02*
D03*
X128222D02*
D03*
X199222Y192000D02*
D03*
X214778D02*
D03*
D70*
X470668Y273754D02*
D03*
Y280254D02*
D03*
Y286754D02*
D03*
X449332D02*
D03*
Y280254D02*
D03*
Y273754D02*
D03*
D71*
X331000Y165250D02*
D03*
Y178750D02*
D03*
X404000Y165250D02*
D03*
Y178750D02*
D03*
X100000Y62250D02*
D03*
Y75750D02*
D03*
X157000Y499750D02*
D03*
Y486250D02*
D03*
D72*
X108500Y315000D02*
D03*
X121500D02*
D03*
D73*
X254000Y83000D02*
D03*
X246000D02*
D03*
Y99000D02*
D03*
X254000D02*
D03*
D74*
X259500Y113500D02*
D03*
X250000D02*
D03*
X240500D02*
D03*
Y138500D02*
D03*
X250000D02*
D03*
X259500D02*
D03*
X99500Y141500D02*
D03*
X118500D02*
D03*
Y116500D02*
D03*
X109000D02*
D03*
X99500D02*
D03*
D75*
X249000Y457000D02*
D03*
X254000D02*
D03*
Y440700D02*
D03*
X249000D02*
D03*
D76*
X259650Y456350D02*
D03*
Y451350D02*
D03*
Y446350D02*
D03*
Y441350D02*
D03*
X243350D02*
D03*
Y446350D02*
D03*
Y451350D02*
D03*
Y456350D02*
D03*
D77*
X128000Y182507D02*
D03*
Y197493D02*
D03*
X115000Y182507D02*
D03*
Y197493D02*
D03*
X198000Y40493D02*
D03*
Y25507D02*
D03*
D78*
X122750Y380000D02*
D03*
X93250D02*
D03*
D79*
X108000Y364750D02*
D03*
D80*
X107507Y233000D02*
D03*
X122493D02*
D03*
X121493Y335000D02*
D03*
X106507D02*
D03*
Y295000D02*
D03*
X121493D02*
D03*
D81*
X11500Y316000D02*
D03*
X78500D02*
D03*
D82*
X145000Y128250D02*
D03*
Y135750D02*
D03*
D83*
X242000Y499500D02*
D03*
Y486500D02*
D03*
D84*
X106750Y94000D02*
D03*
X99250D02*
D03*
D85*
X121250Y266000D02*
D03*
X108750D02*
D03*
D86*
X279000Y60400D02*
D03*
X221000D02*
D03*
D87*
X277250Y30100D02*
D03*
X222750D02*
D03*
D88*
X274250Y60400D02*
D03*
X225750D02*
D03*
D89*
X416400Y328000D02*
D03*
X365600D02*
D03*
X391000Y455000D02*
D03*
X416400D02*
D03*
D90*
X468000Y231000D02*
D03*
D91*
X418000D02*
D03*
D92*
X290200Y538000D02*
D03*
X341000D02*
D03*
X315600D02*
D03*
D93*
X366400D02*
D03*
D94*
X170000Y447350D02*
D03*
Y523550D02*
D03*
X170000Y108650D02*
D03*
Y32450D02*
D03*
D95*
X251300Y181500D02*
D03*
Y381500D02*
D03*
D96*
X254000Y126412D02*
D03*
X247000Y125000D02*
D03*
X232000Y77000D02*
D03*
X281000Y469000D02*
D03*
X241221Y469221D02*
D03*
X233213Y214421D02*
D03*
X226571Y456571D02*
D03*
X254559Y428582D02*
D03*
X280000Y353000D02*
D03*
X203000Y207000D02*
D03*
X213000D02*
D03*
X162291Y209291D02*
D03*
X192280Y207202D02*
D03*
X172619Y213375D02*
D03*
X189000Y347000D02*
D03*
X197666D02*
D03*
X319000Y355000D02*
D03*
X122971Y163115D02*
D03*
X96204Y169986D02*
D03*
X226000Y136000D02*
D03*
X266000Y459000D02*
D03*
X386000Y318000D02*
D03*
X330000Y196000D02*
D03*
X223000Y476000D02*
D03*
X133000Y252000D02*
D03*
X156000Y470000D02*
D03*
X449000Y244000D02*
D03*
X245000Y429000D02*
D03*
X144000Y218000D02*
D03*
X187000Y185000D02*
D03*
X358000Y197000D02*
D03*
X386000Y305000D02*
D03*
X341000Y306000D02*
D03*
X189000Y548000D02*
D03*
X253500Y468000D02*
D03*
X128000Y170000D02*
D03*
X344000Y197000D02*
D03*
X108000Y219000D02*
D03*
X309000Y298000D02*
D03*
X281000Y230000D02*
D03*
X457000Y298000D02*
D03*
X439000Y280000D02*
D03*
X446000Y455000D02*
D03*
M02*
