G04*
G04 #@! TF.GenerationSoftware,Altium Limited,Altium Designer,21.6.1 (37)*
G04*
G04 Layer_Physical_Order=4*
G04 Layer_Color=16711680*
%FSLAX44Y44*%
%MOMM*%
G71*
G04*
G04 #@! TF.SameCoordinates,95F62E22-250C-47DA-B756-0B2C72E373F4*
G04*
G04*
G04 #@! TF.FilePolarity,Positive*
G04*
G01*
G75*
%ADD18C,0.2032*%
%ADD91C,0.2540*%
%ADD94C,0.2958*%
%ADD95C,0.9000*%
%ADD98C,1.0160*%
%ADD99C,2.3700*%
%ADD100C,1.7550*%
%ADD101O,1.7000X1.2000*%
%ADD102O,1.4000X1.0000*%
%ADD103C,0.4064*%
%ADD104C,0.4572*%
%ADD105C,1.2700*%
%ADD106C,5.1200*%
G36*
X64732Y563000D02*
X65743Y561730D01*
X65597Y561000D01*
X65933Y559315D01*
X66887Y557887D01*
X68315Y556933D01*
X70000Y556597D01*
X71685Y556933D01*
X73113Y557887D01*
X74068Y559315D01*
X74403Y561000D01*
X74257Y561730D01*
X75268Y563000D01*
X84732D01*
X85743Y561730D01*
X85597Y561000D01*
X85933Y559315D01*
X86887Y557887D01*
X88315Y556933D01*
X90000Y556597D01*
X91685Y556933D01*
X93113Y557887D01*
X94067Y559315D01*
X94403Y561000D01*
X94257Y561730D01*
X95268Y563000D01*
X237626Y563000D01*
Y1374D01*
X1374D01*
Y563000D01*
X64732D01*
D02*
G37*
%LPC*%
G36*
X84602Y553442D02*
X35125D01*
X33935Y553205D01*
X32927Y552532D01*
X13398Y533002D01*
X12724Y531994D01*
X12487Y530805D01*
Y300405D01*
X12724Y299216D01*
X13398Y298207D01*
X24599Y287006D01*
Y260008D01*
X24602Y259991D01*
X24599Y259973D01*
X25851Y150319D01*
X25716Y149059D01*
X25707Y149033D01*
X25707Y149033D01*
X25738Y148957D01*
X25828Y147690D01*
Y126348D01*
X25828Y125855D01*
X25810Y125833D01*
X25796Y125833D01*
X25825Y125069D01*
X25887Y124591D01*
X25977Y123904D01*
X25978D01*
X25981Y123901D01*
X25981Y123892D01*
X25981Y119911D01*
X26218Y118722D01*
X26892Y117713D01*
X67476Y77129D01*
X67691Y76985D01*
X70380Y74296D01*
X70523Y74082D01*
X79599Y65006D01*
X79597Y65000D01*
X79933Y63315D01*
X80887Y61887D01*
X82315Y60932D01*
X84000Y60597D01*
X85685Y60932D01*
X87113Y61887D01*
X88068Y63315D01*
X88403Y65000D01*
X88068Y66685D01*
X87113Y68113D01*
X85685Y69068D01*
X84000Y69403D01*
X83994Y69401D01*
X75061Y78333D01*
X74918Y78548D01*
X71943Y81524D01*
X71728Y81667D01*
X32197Y121198D01*
Y122649D01*
X32252Y123897D01*
X32254Y123913D01*
X32163Y124608D01*
X32201Y125878D01*
X32132Y126045D01*
X32044Y126122D01*
Y147694D01*
X32108Y148955D01*
X32124Y149033D01*
X32068Y150211D01*
X32065Y150489D01*
X30814Y260026D01*
Y288294D01*
X30577Y289483D01*
X29904Y290491D01*
X18703Y301692D01*
Y529517D01*
X36412Y547226D01*
X50883D01*
X51788Y545956D01*
X51597Y545000D01*
X51933Y543315D01*
X52633Y542267D01*
Y526860D01*
X45352Y519579D01*
X44622Y518487D01*
X44366Y517198D01*
Y465993D01*
X44622Y464705D01*
X45352Y463612D01*
X50986Y457978D01*
X50913Y456849D01*
X49815Y456024D01*
X49177Y456151D01*
X47492Y455816D01*
X46064Y454862D01*
X45109Y453434D01*
X44774Y451749D01*
X44776Y451742D01*
X26057Y433024D01*
X25384Y432016D01*
X25147Y430827D01*
Y354934D01*
X25384Y353744D01*
X26057Y352736D01*
X45204Y333589D01*
X44997Y332000D01*
X44402Y331602D01*
X43504Y330258D01*
X43188Y328672D01*
X43504Y327087D01*
X44402Y325742D01*
X45746Y324844D01*
X47332Y324529D01*
X48917Y324844D01*
X50262Y325742D01*
X50660Y326338D01*
X52249Y326545D01*
X65306Y313487D01*
Y245917D01*
X64133Y245431D01*
X51922Y257643D01*
X51760Y258458D01*
X50861Y259802D01*
X49517Y260700D01*
X47931Y261016D01*
X46346Y260700D01*
X45001Y259802D01*
X44103Y258458D01*
X43788Y256872D01*
X44103Y255286D01*
X45001Y253942D01*
X46346Y253044D01*
X47160Y252882D01*
X60049Y239993D01*
Y222290D01*
X58876Y221804D01*
X51846Y228834D01*
X51684Y229649D01*
X50786Y230993D01*
X49441Y231891D01*
X47856Y232207D01*
X46270Y231891D01*
X44926Y230993D01*
X44028Y229649D01*
X43712Y228063D01*
X44028Y226477D01*
X44926Y225133D01*
X46270Y224235D01*
X47085Y224073D01*
X55477Y215680D01*
Y104814D01*
X55734Y103526D01*
X56463Y102434D01*
X99377Y59520D01*
X100469Y58790D01*
X101758Y58534D01*
X132209D01*
X133497Y58790D01*
X134589Y59520D01*
X146359Y71289D01*
X147529Y70664D01*
X147347Y69750D01*
X147683Y68065D01*
X148637Y66637D01*
X150065Y65683D01*
X151750Y65347D01*
X153435Y65683D01*
X154863Y66637D01*
X155817Y68065D01*
X156153Y69750D01*
X155817Y71435D01*
X154863Y72863D01*
X153435Y73818D01*
X151750Y74153D01*
X150836Y73971D01*
X150211Y75141D01*
X159333Y84263D01*
X160062Y85356D01*
X160319Y86644D01*
Y104194D01*
X161589Y104821D01*
X162377Y104216D01*
X164416Y103371D01*
X166604Y103083D01*
X168792Y103371D01*
X170831Y104216D01*
X172582Y105560D01*
X173926Y107311D01*
X174770Y109350D01*
X175058Y111538D01*
X174770Y113726D01*
X173926Y115765D01*
X172582Y117516D01*
X170831Y118859D01*
X168792Y119704D01*
X166604Y119992D01*
X164416Y119704D01*
X162377Y118859D01*
X161589Y118255D01*
X160319Y118881D01*
Y125273D01*
X169679Y134632D01*
X170408Y135725D01*
X170665Y137013D01*
Y142238D01*
X171804Y142799D01*
X172054Y142608D01*
X173764Y141899D01*
X175600Y141657D01*
X179600D01*
X181436Y141899D01*
X183146Y142608D01*
X184615Y143735D01*
X184928Y144142D01*
X197510D01*
X197575Y143653D01*
X198384Y141699D01*
X199671Y140021D01*
X201349Y138734D01*
X203303Y137925D01*
X205400Y137649D01*
X210400D01*
X212497Y137925D01*
X214451Y138734D01*
X216129Y140021D01*
X217416Y141699D01*
X218225Y143653D01*
X218501Y145750D01*
X218225Y147847D01*
X217416Y149801D01*
X216129Y151479D01*
X214451Y152766D01*
X212497Y153575D01*
X210400Y153851D01*
X205400D01*
X203303Y153575D01*
X201349Y152766D01*
X199671Y151479D01*
X198811Y150358D01*
X186481D01*
X186451Y150586D01*
X185742Y152296D01*
X184615Y153765D01*
X183146Y154893D01*
X181436Y155601D01*
X179600Y155843D01*
X175600D01*
X173764Y155601D01*
X172054Y154893D01*
X171804Y154701D01*
X170665Y155262D01*
Y165203D01*
X198479Y193017D01*
X198858Y193584D01*
X200253Y193946D01*
X200464Y193913D01*
X201349Y193234D01*
X203303Y192425D01*
X205400Y192149D01*
X210400D01*
X212497Y192425D01*
X214451Y193234D01*
X216129Y194522D01*
X217416Y196199D01*
X218225Y198153D01*
X218501Y200250D01*
X218225Y202347D01*
X217416Y204301D01*
X216129Y205979D01*
X214451Y207266D01*
X212497Y208075D01*
X210400Y208351D01*
X205400D01*
X203303Y208075D01*
X201349Y207266D01*
X200735Y206794D01*
X199465Y207421D01*
Y221452D01*
X208559Y230547D01*
X209289Y231639D01*
X209545Y232927D01*
Y461822D01*
X209289Y463110D01*
X208559Y464202D01*
X200990Y471771D01*
X200828Y472586D01*
X199930Y473930D01*
X198586Y474828D01*
X197000Y475144D01*
X195414Y474828D01*
X194070Y473930D01*
X193172Y472586D01*
X192856Y471000D01*
X193172Y469414D01*
X194070Y468070D01*
X194690Y467656D01*
X194730Y467528D01*
X194603Y466187D01*
X193712Y465592D01*
X192814Y464247D01*
X192499Y462662D01*
X192814Y461076D01*
X193712Y459732D01*
X193570Y458299D01*
X193343Y458147D01*
X192444Y456803D01*
X192282Y455988D01*
X157047Y420753D01*
X156318Y419661D01*
X156061Y418372D01*
Y400351D01*
X154791Y399444D01*
X153840Y399633D01*
X152155Y399298D01*
X150727Y398344D01*
X149773Y396916D01*
X149437Y395231D01*
X149773Y393546D01*
X150727Y392118D01*
X152155Y391163D01*
X153840Y390828D01*
X154791Y391017D01*
X156061Y390111D01*
Y289046D01*
X146629Y279614D01*
X145900Y278521D01*
X145643Y277233D01*
Y227407D01*
X144398Y227159D01*
X144063Y227966D01*
X141791Y231675D01*
X138966Y234982D01*
X135659Y237807D01*
X131950Y240079D01*
X127932Y241744D01*
X123703Y242759D01*
X119367Y243100D01*
X115031Y242759D01*
X110802Y241744D01*
X106783Y240079D01*
X103075Y237807D01*
X99768Y234982D01*
X96943Y231675D01*
X94670Y227966D01*
X93006Y223948D01*
X91991Y219719D01*
X91649Y215383D01*
X91991Y211047D01*
X93006Y206818D01*
X94670Y202799D01*
X94797Y202592D01*
X93793Y201800D01*
X81833Y213760D01*
Y320471D01*
X85456Y324094D01*
X85456Y324094D01*
X86232Y325255D01*
X86505Y326625D01*
X86505Y326625D01*
Y333027D01*
X87678Y333513D01*
X95904Y325287D01*
X95905Y325282D01*
X96635Y324190D01*
X100145Y320680D01*
Y311579D01*
X100401Y310291D01*
X100800Y309694D01*
Y304009D01*
X100338Y303319D01*
X100023Y301733D01*
X100338Y300147D01*
X101237Y298803D01*
X102581Y297905D01*
X104167Y297589D01*
X105752Y297905D01*
X107097Y298803D01*
X107995Y300147D01*
X108310Y301733D01*
X107995Y303319D01*
X107533Y304009D01*
Y310924D01*
X107277Y312213D01*
X106879Y312809D01*
Y322074D01*
X106622Y323362D01*
X105892Y324455D01*
X105148Y325199D01*
X105940Y326203D01*
X106783Y325686D01*
X110802Y324022D01*
X115031Y323007D01*
X119367Y322665D01*
X123703Y323007D01*
X127932Y324022D01*
X131950Y325686D01*
X135659Y327959D01*
X138966Y330784D01*
X141791Y334091D01*
X144063Y337799D01*
X145728Y341818D01*
X146743Y346047D01*
X146806Y346844D01*
X148076Y346794D01*
Y330886D01*
X143933Y326744D01*
X143929Y326743D01*
X142836Y326013D01*
X139407Y322584D01*
X138677Y321492D01*
X138421Y320203D01*
Y304824D01*
X138677Y303535D01*
X139076Y302939D01*
Y297356D01*
X138614Y296666D01*
X138299Y295080D01*
X138556Y293789D01*
X138301Y293027D01*
X137849Y292353D01*
X137297Y292244D01*
X135869Y291290D01*
X134915Y289861D01*
X134579Y288176D01*
X134915Y286492D01*
X135869Y285063D01*
X137297Y284109D01*
X138982Y283774D01*
X140667Y284109D01*
X142095Y285063D01*
X143050Y286492D01*
X143385Y288176D01*
X143050Y289861D01*
X143692Y291185D01*
X144028Y291252D01*
X145372Y292150D01*
X146271Y293494D01*
X146586Y295080D01*
X146271Y296666D01*
X145809Y297356D01*
Y304169D01*
X145553Y305457D01*
X145154Y306054D01*
Y318809D01*
X147598Y321252D01*
X148328Y322344D01*
X148328Y322349D01*
X153381Y327402D01*
X154055Y328410D01*
X154291Y329599D01*
Y375158D01*
X154055Y376347D01*
X153381Y377356D01*
X94624Y436113D01*
Y467222D01*
X94387Y468412D01*
X93714Y469420D01*
X67633Y495500D01*
X66625Y496174D01*
X65436Y496410D01*
X62132D01*
X61960Y497273D01*
X61006Y498701D01*
X59577Y499655D01*
X57892Y499991D01*
X56941Y499801D01*
X55671Y500708D01*
Y513910D01*
X76863Y535102D01*
X77678Y535264D01*
X79022Y536162D01*
X79920Y537506D01*
X80236Y539092D01*
X79920Y540678D01*
X79022Y542022D01*
X77678Y542920D01*
X76092Y543236D01*
X74507Y542920D01*
X73162Y542022D01*
X72264Y540678D01*
X72102Y539863D01*
X60540Y528301D01*
X59367Y528787D01*
Y542267D01*
X60067Y543315D01*
X60403Y545000D01*
X60212Y545956D01*
X61117Y547226D01*
X83315D01*
X94919Y535622D01*
X95172Y534350D01*
X96070Y533006D01*
X97414Y532108D01*
X99000Y531792D01*
X100586Y532108D01*
X101930Y533006D01*
X102828Y534350D01*
X103144Y535936D01*
X102828Y537522D01*
X101930Y538866D01*
X100586Y539764D01*
X99314Y540017D01*
X86800Y552532D01*
X85791Y553205D01*
X84602Y553442D01*
D02*
G37*
G36*
X95165Y287454D02*
X93480Y287119D01*
X92052Y286164D01*
X91098Y284736D01*
X90763Y283051D01*
X91098Y281367D01*
X92052Y279938D01*
X93480Y278984D01*
X95165Y278649D01*
X96850Y278984D01*
X98278Y279938D01*
X99233Y281367D01*
X99568Y283051D01*
X99233Y284736D01*
X98278Y286164D01*
X96850Y287119D01*
X95165Y287454D01*
D02*
G37*
G36*
X12000Y226144D02*
X10414Y225828D01*
X9070Y224930D01*
X8172Y223586D01*
X7856Y222000D01*
X8172Y220414D01*
X8633Y219724D01*
Y120635D01*
X8890Y119347D01*
X9619Y118254D01*
X64499Y63374D01*
X63906Y62172D01*
X62568Y62348D01*
X59747Y61976D01*
X57118Y60887D01*
X54860Y59155D01*
X53128Y56898D01*
X52039Y54269D01*
X51668Y51448D01*
X52039Y48626D01*
X53128Y45997D01*
X54860Y43740D01*
X57118Y42008D01*
X59747Y40919D01*
X62568Y40547D01*
X65389Y40919D01*
X68018Y42008D01*
X70276Y43740D01*
X72008Y45997D01*
X73097Y48626D01*
X73468Y51448D01*
X73292Y52786D01*
X74495Y53379D01*
X78807Y49067D01*
X79899Y48337D01*
X81187Y48081D01*
X166065D01*
X166928Y45997D01*
X168660Y43740D01*
X170918Y42008D01*
X173547Y40919D01*
X176368Y40547D01*
X179189Y40919D01*
X181818Y42008D01*
X184076Y43740D01*
X185808Y45997D01*
X186897Y48626D01*
X187268Y51448D01*
X186897Y54269D01*
X185808Y56898D01*
X184076Y59155D01*
X181818Y60887D01*
X179189Y61976D01*
X176368Y62348D01*
X173547Y61976D01*
X170918Y60887D01*
X168660Y59155D01*
X166928Y56898D01*
X166065Y54814D01*
X82582D01*
X15367Y122029D01*
Y219724D01*
X15828Y220414D01*
X16144Y222000D01*
X15828Y223586D01*
X14930Y224930D01*
X13586Y225828D01*
X12000Y226144D01*
D02*
G37*
%LPD*%
G36*
X57892Y491185D02*
X58045Y491216D01*
X58155Y491105D01*
X59164Y490431D01*
X60353Y490195D01*
X64149D01*
X68347Y485996D01*
X67821Y484726D01*
X67545D01*
X66355Y484490D01*
X66343Y484482D01*
X65620D01*
X64911Y484955D01*
X63226Y485290D01*
X61542Y484955D01*
X60113Y484001D01*
X59159Y482573D01*
X58824Y480888D01*
X59159Y479203D01*
X60113Y477775D01*
X61542Y476820D01*
X63226Y476485D01*
X64911Y476820D01*
X66340Y477775D01*
X66668Y478266D01*
X67300D01*
X68329Y478471D01*
X84344Y462456D01*
Y351378D01*
X83171Y350892D01*
X63391Y370671D01*
Y389013D01*
X64661Y389994D01*
X65355Y389856D01*
X66940Y390172D01*
X68285Y391070D01*
X69183Y392414D01*
X69498Y394000D01*
X69183Y395586D01*
X68285Y396930D01*
X66940Y397828D01*
X65355Y398144D01*
X64661Y398006D01*
X63391Y398987D01*
Y412503D01*
X63119Y413873D01*
X62343Y415034D01*
X61264Y416113D01*
X62067Y417315D01*
X62403Y419000D01*
X62067Y420685D01*
X61113Y422113D01*
X59685Y423068D01*
X58000Y423403D01*
X56315Y423068D01*
X54887Y422113D01*
X53933Y420685D01*
X53597Y419000D01*
X53903Y417463D01*
X53873Y417312D01*
X53873Y417312D01*
Y416965D01*
X52891Y416159D01*
X52625Y416212D01*
X52625Y416212D01*
X51425D01*
X50709Y416691D01*
X49024Y417026D01*
X47339Y416691D01*
X45911Y415736D01*
X44957Y414308D01*
X44622Y412623D01*
X44957Y410938D01*
X45911Y409510D01*
X47339Y408556D01*
X49024Y408221D01*
X49971Y408409D01*
X51241Y407500D01*
Y367122D01*
X51241Y367122D01*
X51514Y365752D01*
X52290Y364590D01*
X74355Y342525D01*
Y330175D01*
X70732Y326552D01*
X69956Y325390D01*
X69683Y324020D01*
X69683Y324020D01*
Y319559D01*
X68510Y319073D01*
X31363Y356221D01*
Y358282D01*
X32536Y358769D01*
X33317Y357988D01*
X34409Y357258D01*
X35697Y357001D01*
X41816D01*
X42506Y356540D01*
X44092Y356225D01*
X45678Y356540D01*
X47022Y357438D01*
X47920Y358782D01*
X48236Y360368D01*
X47920Y361954D01*
X47022Y363298D01*
X45678Y364196D01*
X44092Y364512D01*
X43068Y364308D01*
X42011Y365198D01*
X41968Y365285D01*
X42050Y365702D01*
X41735Y367288D01*
X41565Y367542D01*
Y423238D01*
X61717Y443391D01*
X62447Y444483D01*
X62703Y445771D01*
Y460854D01*
X62447Y462143D01*
X61717Y463235D01*
X55671Y469281D01*
Y490468D01*
X56941Y491375D01*
X57892Y491185D01*
D02*
G37*
G36*
X148076Y373871D02*
Y353972D01*
X146806Y353922D01*
X146743Y354719D01*
X145728Y358948D01*
X144063Y362966D01*
X141791Y366675D01*
X138966Y369982D01*
X135659Y372807D01*
X131950Y375079D01*
X127932Y376744D01*
X123703Y377759D01*
X119367Y378100D01*
X115031Y377759D01*
X110802Y376744D01*
X106783Y375079D01*
X103075Y372807D01*
X99768Y369982D01*
X96943Y366675D01*
X94670Y362966D01*
X93006Y358948D01*
X91991Y354719D01*
X91830Y352676D01*
X90560Y352725D01*
Y429727D01*
X91733Y430213D01*
X148076Y373871D01*
D02*
G37*
G36*
X192690Y437184D02*
X192906Y436861D01*
Y237347D01*
X188797Y233239D01*
X187627Y233864D01*
X187760Y234533D01*
X187444Y236118D01*
X186546Y237463D01*
X185202Y238361D01*
X183616Y238676D01*
X182030Y238361D01*
X180686Y237463D01*
X179788Y236118D01*
X179473Y234533D01*
X179788Y232947D01*
X180686Y231603D01*
X182030Y230704D01*
X183616Y230389D01*
X184284Y230522D01*
X184910Y229352D01*
X158122Y202563D01*
X156949Y203050D01*
Y272866D01*
X166381Y282298D01*
X167110Y283390D01*
X167367Y284678D01*
Y412606D01*
X181892Y427131D01*
X182622Y428223D01*
X182793Y429083D01*
X191250Y437540D01*
X192690Y437184D01*
D02*
G37*
G36*
X86144Y192267D02*
Y182620D01*
X84874Y181941D01*
X84685Y182068D01*
X83000Y182403D01*
X81315Y182068D01*
X79887Y181113D01*
X78933Y179685D01*
X78597Y178000D01*
X78933Y176315D01*
X79887Y174887D01*
X81315Y173932D01*
X81631Y173870D01*
X83314Y172187D01*
X83537Y171066D01*
X84313Y169905D01*
X85680Y168538D01*
X85900Y166963D01*
X82176Y163239D01*
X81315Y163067D01*
X79887Y162113D01*
X78933Y160685D01*
X78597Y159000D01*
X78933Y157315D01*
X79887Y155887D01*
X81315Y154933D01*
X83000Y154597D01*
X84685Y154933D01*
X86113Y155887D01*
X87067Y157315D01*
X87239Y158176D01*
X91196Y162134D01*
X93095D01*
X93095Y162134D01*
X94465Y162406D01*
X95626Y163182D01*
X100282Y167838D01*
X101058Y169000D01*
X101331Y170369D01*
X101331Y170370D01*
Y178237D01*
X101058Y179607D01*
X100282Y180768D01*
X100282Y180768D01*
X98293Y182757D01*
Y195554D01*
X98936Y195940D01*
X99537Y196054D01*
X99768Y195784D01*
X103075Y192959D01*
X106783Y190686D01*
X110802Y189022D01*
X115031Y188007D01*
X119367Y187665D01*
X123703Y188007D01*
X127932Y189022D01*
X131950Y190686D01*
X135659Y192959D01*
X138966Y195784D01*
X141791Y199091D01*
X144063Y202799D01*
X144398Y203607D01*
X145643Y203359D01*
Y149307D01*
X140938Y144601D01*
X102647D01*
X101359Y144345D01*
X100267Y143615D01*
X84807Y128155D01*
X82750D01*
X82496Y128325D01*
X80910Y128641D01*
X79324Y128325D01*
X77980Y127427D01*
X77082Y126083D01*
X76767Y124497D01*
X77082Y122911D01*
X77980Y121567D01*
X79324Y120669D01*
X80910Y120353D01*
X82496Y120669D01*
X83623Y121422D01*
X86201D01*
X87490Y121678D01*
X88582Y122408D01*
X104042Y137868D01*
X131552D01*
X132478Y136598D01*
X132316Y135785D01*
X132631Y134200D01*
X133530Y132855D01*
X134874Y131957D01*
X136460Y131642D01*
X138045Y131957D01*
X138736Y132419D01*
X142182D01*
X142668Y131245D01*
X128736Y117313D01*
X127499Y117067D01*
X126071Y116113D01*
X125117Y114685D01*
X124782Y113000D01*
X125117Y111315D01*
X126071Y109887D01*
X127499Y108933D01*
X129184Y108597D01*
X130869Y108933D01*
X132297Y109887D01*
X133252Y111315D01*
X133498Y112552D01*
X147840Y126895D01*
X149013Y126409D01*
Y89932D01*
X128920Y69839D01*
X120236D01*
X119710Y71109D01*
X130921Y82320D01*
X132243Y82583D01*
X133672Y83538D01*
X134626Y84966D01*
X134961Y86651D01*
X134626Y88336D01*
X133672Y89764D01*
X132243Y90718D01*
X130559Y91053D01*
X128874Y90718D01*
X127446Y89764D01*
X126491Y88336D01*
X126156Y86651D01*
X126207Y86396D01*
X115014Y75203D01*
X105423D01*
X70842Y109784D01*
Y131703D01*
X71115Y131913D01*
X72112Y132265D01*
X73169Y131559D01*
X74754Y131244D01*
X76340Y131559D01*
X77684Y132458D01*
X78583Y133802D01*
X78898Y135387D01*
X78583Y136973D01*
X77684Y138317D01*
X76340Y139216D01*
X74754Y139531D01*
X73169Y139216D01*
X72112Y138510D01*
X71115Y138862D01*
X70842Y139072D01*
Y203413D01*
X71285Y204077D01*
X71493Y205122D01*
X72187Y205541D01*
X72670Y205741D01*
X86144Y192267D01*
D02*
G37*
%LPC*%
G36*
X98771Y396566D02*
X97186Y396251D01*
X95841Y395353D01*
X94943Y394008D01*
X94628Y392422D01*
X94943Y390837D01*
X95841Y389492D01*
X97186Y388594D01*
X98771Y388279D01*
X100357Y388594D01*
X101701Y389492D01*
X102599Y390837D01*
X102915Y392422D01*
X102599Y394008D01*
X101701Y395353D01*
X100357Y396251D01*
X98771Y396566D01*
D02*
G37*
G36*
X169246Y238839D02*
X167561Y238504D01*
X166133Y237550D01*
X165178Y236122D01*
X164843Y234437D01*
X165178Y232752D01*
X166133Y231324D01*
X167561Y230369D01*
X169246Y230034D01*
X170931Y230369D01*
X172359Y231324D01*
X173313Y232752D01*
X173648Y234437D01*
X173313Y236122D01*
X172359Y237550D01*
X170931Y238504D01*
X169246Y238839D01*
D02*
G37*
G36*
X131000Y173403D02*
X129315Y173067D01*
X127887Y172113D01*
X126933Y170685D01*
X126597Y169000D01*
X126933Y167315D01*
X127633Y166266D01*
Y157995D01*
X127890Y156706D01*
X128619Y155614D01*
X132863Y151370D01*
X133109Y150133D01*
X134064Y148705D01*
X135492Y147751D01*
X137177Y147415D01*
X138862Y147751D01*
X140290Y148705D01*
X141244Y150133D01*
X141580Y151818D01*
X141244Y153503D01*
X140290Y154931D01*
X138862Y155885D01*
X137625Y156131D01*
X134367Y159389D01*
Y166266D01*
X135068Y167315D01*
X135403Y169000D01*
X135068Y170685D01*
X134113Y172113D01*
X132685Y173067D01*
X131000Y173403D01*
D02*
G37*
G36*
X89084Y154739D02*
X87399Y154404D01*
X85971Y153450D01*
X85017Y152021D01*
X84681Y150337D01*
X85017Y148652D01*
X85971Y147224D01*
X87399Y146269D01*
X89084Y145934D01*
X90769Y146269D01*
X92197Y147224D01*
X93152Y148652D01*
X93487Y150337D01*
X93152Y152021D01*
X92197Y153450D01*
X90769Y154404D01*
X89084Y154739D01*
D02*
G37*
%LPD*%
D18*
X28936Y125855D02*
G03*
X28959Y125567I2032J14D01*
G01*
X29089Y123900D02*
G03*
X28959Y125567I-10548J13D01*
G01*
X28936Y148630D02*
G03*
X28972Y148755I-1039J370D01*
G01*
X28976Y149002D02*
G03*
X28972Y149160I-2032J31D01*
G01*
X28255Y430827D02*
X49177Y451749D01*
X28255Y354934D02*
X68414Y314774D01*
X28255Y354934D02*
Y430827D01*
X58067Y495588D02*
X60353Y493303D01*
X65436D01*
X57892Y495588D02*
X58067D01*
X65436Y493303D02*
X91516Y467222D01*
Y434825D02*
Y467222D01*
X67545Y481618D02*
X69577D01*
X63713Y481374D02*
X67300D01*
X63226Y480888D02*
X63713Y481374D01*
X69577Y481618D02*
X87452Y463743D01*
X67300Y481374D02*
X67545Y481618D01*
X84602Y550334D02*
X99000Y535936D01*
X35125Y550334D02*
X84602D01*
X15595Y300405D02*
X27706Y288294D01*
X15595Y300405D02*
Y530805D01*
X35125Y550334D01*
X130559Y86353D02*
Y86651D01*
X116301Y72095D02*
X130559Y86353D01*
X104136Y72095D02*
X116301D01*
X67734Y108497D02*
Y204586D01*
Y108497D02*
X104136Y72095D01*
X67734Y204586D02*
X68414Y205266D01*
Y314774D01*
X29089Y119911D02*
X69674Y79326D01*
X72721Y76279D02*
Y76350D01*
X69674Y79326D02*
X69745D01*
X72721Y76350D01*
Y76279D02*
X84000Y65000D01*
X84000D01*
X27706Y260008D02*
X28972Y149160D01*
X145217Y323633D02*
X151184Y329599D01*
X87452Y338134D02*
X99015Y326571D01*
X151184Y329599D02*
Y375158D01*
X91516Y434825D02*
X151184Y375158D01*
X87452Y338134D02*
Y463743D01*
X184100Y147250D02*
X211400D01*
X29089Y123900D02*
X29089Y119911D01*
X28936Y125855D02*
Y148630D01*
X28972Y148755D02*
X28976Y149002D01*
X27706Y260008D02*
Y288294D01*
X211400Y147250D02*
X212900Y145750D01*
X182600Y148750D02*
X184100Y147250D01*
D91*
X159428Y287651D02*
Y418372D01*
X196273Y455217D01*
X59337Y445771D02*
Y460854D01*
X38198Y365994D02*
Y424633D01*
X59337Y445771D01*
X32573Y426465D02*
X54765Y448657D01*
X32573Y363493D02*
Y426465D01*
X54765Y448657D02*
Y458961D01*
X37907Y365702D02*
X38198Y365994D01*
X35697Y360368D02*
X44092D01*
X32573Y363493D02*
X35697Y360368D01*
X47733Y465993D02*
X54765Y458961D01*
X47733Y465993D02*
Y517198D01*
X56000Y525466D02*
Y545000D01*
X47733Y517198D02*
X56000Y525466D01*
X52305Y467887D02*
X59337Y460854D01*
X52305Y467887D02*
Y515304D01*
X76092Y539092D01*
X196098Y222847D02*
X206179Y232927D01*
X201607Y234821D02*
Y457568D01*
X206179Y232927D02*
Y461822D01*
X196098Y195398D02*
Y222847D01*
X158154Y197834D02*
X196273Y235953D01*
Y439137D01*
X191526Y224740D02*
X201607Y234821D01*
X191526Y197435D02*
Y224740D01*
X196642Y462532D02*
Y462662D01*
Y462532D02*
X201607Y457568D01*
X179511Y430562D02*
X195977Y447028D01*
X196273D01*
X179511Y429511D02*
Y430562D01*
X197000Y471000D02*
X206179Y461822D01*
X156952Y126667D02*
X167298Y137013D01*
Y166598D01*
X156952Y86644D02*
Y126667D01*
X152380Y129730D02*
X162726Y140076D01*
X132209Y61901D02*
X156952Y86644D01*
X101758Y61901D02*
X132209D01*
X130315Y66473D02*
X152380Y88538D01*
Y129730D01*
X149010Y277233D02*
X159428Y287651D01*
X153582Y274260D02*
X164000Y284678D01*
X12000Y120635D02*
X81187Y51448D01*
X162726Y168635D02*
X191526Y197435D01*
X81187Y51448D02*
X172553D01*
X173000Y51000D01*
X58844Y104814D02*
Y217075D01*
X47856Y228063D02*
X58844Y217075D01*
X162726Y140076D02*
Y168635D01*
X103652Y66473D02*
X130315D01*
X63416Y106708D02*
X103652Y66473D01*
X63416Y106708D02*
Y241387D01*
X47931Y256872D02*
X63416Y241387D01*
X58844Y104814D02*
X101758Y61901D01*
X148541Y139898D02*
X153582Y144939D01*
X129184Y113000D02*
X158154Y141970D01*
Y197834D01*
X153582Y144939D02*
Y274260D01*
X149010Y147913D02*
Y277233D01*
X142332Y141235D02*
X149010Y147913D01*
X167298Y166598D02*
X196098Y195398D01*
X102647Y141235D02*
X142332D01*
X148539Y139898D02*
X148541D01*
X144426Y135785D02*
X148539Y139898D01*
X136460Y135785D02*
X144426D01*
X80910Y124497D02*
X81202Y124789D01*
X86201D01*
X102647Y141235D01*
X197000Y471000D02*
X197000D01*
X164000Y414000D02*
X179511Y429511D01*
X131000Y157995D02*
Y169000D01*
Y157995D02*
X137177Y151818D01*
X141788Y304824D02*
Y320203D01*
Y304824D02*
X142442Y304169D01*
Y295080D02*
Y304169D01*
X103512Y311579D02*
Y322074D01*
Y311579D02*
X104167Y310924D01*
Y301733D02*
Y310924D01*
X141788Y320203D02*
X145217Y323633D01*
X99015Y326571D02*
X103512Y322074D01*
X164000Y284678D02*
Y414000D01*
X12000Y120635D02*
Y222000D01*
D94*
X57453Y417312D02*
X57691Y417550D01*
X57453Y414861D02*
Y417312D01*
Y414861D02*
X59812Y412503D01*
Y369188D02*
Y412503D01*
X54821Y367122D02*
Y410436D01*
X57691Y418691D02*
X58000Y419000D01*
X57691Y417550D02*
Y418691D01*
X52625Y412632D02*
X54821Y410436D01*
X49033Y412632D02*
X52625D01*
X49024Y412623D02*
X49033Y412632D01*
X73263Y210210D02*
X89723Y193750D01*
X73263Y210210D02*
Y324020D01*
X82925Y326625D02*
Y346075D01*
X78253Y321953D02*
X82925Y326625D01*
X78253Y212278D02*
X94714Y195817D01*
X78253Y212278D02*
Y321953D01*
X77935Y328692D02*
Y344008D01*
X73263Y324020D02*
X77935Y328692D01*
X54821Y367122D02*
X77935Y344008D01*
X59812Y369188D02*
X82925Y346075D01*
X89723Y179207D02*
Y193750D01*
X94714Y181274D02*
Y195817D01*
X83000Y177563D02*
Y178000D01*
X89713Y165713D02*
X93095D01*
X92760Y172437D02*
Y176170D01*
X86844Y172437D02*
X88577Y170704D01*
X83000Y177563D02*
X86844Y173719D01*
X83000Y159000D02*
X89713Y165713D01*
X88577Y170704D02*
X91028D01*
X92760Y172437D01*
X93095Y165713D02*
X97751Y170369D01*
X86844Y172437D02*
Y173719D01*
X94714Y181274D02*
X97751Y178237D01*
Y170369D02*
Y178237D01*
X89723Y179207D02*
X92760Y176170D01*
D95*
X178000Y644000D02*
X187000Y653000D01*
X178000Y592444D02*
Y644000D01*
X168556Y583000D02*
X178000Y592444D01*
X159556Y644000D02*
X168556Y653000D01*
X159556Y592444D02*
Y644000D01*
X150111Y583000D02*
X159556Y592444D01*
X141111Y644000D02*
X150111Y653000D01*
X141111Y592444D02*
Y644000D01*
X131667Y583000D02*
X141111Y592444D01*
X122667Y644000D02*
X131667Y653000D01*
X122667Y592444D02*
Y644000D01*
X113222Y583000D02*
X122667Y592444D01*
X104222Y644000D02*
X113222Y653000D01*
X104222Y592444D02*
Y644000D01*
X94778Y583000D02*
X104222Y592444D01*
X85778Y644000D02*
X94778Y653000D01*
X85778Y592444D02*
Y644000D01*
X76333Y583000D02*
X85778Y592444D01*
X67333Y644000D02*
X76333Y653000D01*
X67333Y592444D02*
Y644000D01*
X57889Y583000D02*
X67333Y592444D01*
X48889Y644000D02*
X57889Y653000D01*
X48889Y592444D02*
Y644000D01*
X39444Y583000D02*
X48889Y592444D01*
X30445Y644000D02*
X39444Y653000D01*
X30445Y592444D02*
Y644000D01*
X21000Y583000D02*
X30445Y592444D01*
D98*
X212627Y611171D02*
D03*
D99*
X119468Y216047D02*
D03*
Y351048D02*
D03*
D100*
X62568Y51448D02*
D03*
X176368D02*
D03*
D101*
X207900Y200250D02*
D03*
Y145750D02*
D03*
D102*
X177600Y197250D02*
D03*
Y148750D02*
D03*
D103*
X106239Y276597D02*
D03*
X148522Y287975D02*
D03*
X37907Y365702D02*
D03*
X131110Y262847D02*
D03*
X65355Y394000D02*
D03*
X44092Y360368D02*
D03*
X196642Y462662D02*
D03*
X196273Y439137D02*
D03*
Y447028D02*
D03*
Y455217D02*
D03*
X183616Y234533D02*
D03*
X80910Y124497D02*
D03*
X74754Y135387D02*
D03*
X197000Y471000D02*
D03*
X47856Y228063D02*
D03*
X47678Y217767D02*
D03*
X66722Y327227D02*
D03*
X47332Y328672D02*
D03*
X47931Y256872D02*
D03*
X104167Y301733D02*
D03*
X136460Y135785D02*
D03*
X98771Y392422D02*
D03*
X142442Y295080D02*
D03*
X132622Y287678D02*
D03*
X187000Y653000D02*
D03*
X168556Y583000D02*
D03*
Y653000D02*
D03*
X150111Y583000D02*
D03*
Y653000D02*
D03*
X131667Y583000D02*
D03*
Y653000D02*
D03*
X113222Y583000D02*
D03*
Y653000D02*
D03*
X94778Y583000D02*
D03*
Y653000D02*
D03*
X76333Y583000D02*
D03*
Y653000D02*
D03*
X57889Y583000D02*
D03*
Y653000D02*
D03*
X39444Y583000D02*
D03*
Y653000D02*
D03*
X21000Y583000D02*
D03*
X76092Y539092D02*
D03*
X99000Y535936D02*
D03*
X33000Y525253D02*
D03*
X12000Y222000D02*
D03*
X83000Y167000D02*
D03*
D104*
X95165Y283051D02*
D03*
X49024Y412623D02*
D03*
X224860Y507000D02*
D03*
X217240Y491760D02*
D03*
X224860Y476520D02*
D03*
X217240Y461280D02*
D03*
X224860Y446040D02*
D03*
X217240Y430800D02*
D03*
X224860Y415560D02*
D03*
X217240Y400320D02*
D03*
X224860Y385080D02*
D03*
X217240Y369840D02*
D03*
X224860Y354600D02*
D03*
X217240Y339360D02*
D03*
X224860Y324120D02*
D03*
X217240Y308880D02*
D03*
X224860Y293640D02*
D03*
X217240Y278400D02*
D03*
X224860Y263160D02*
D03*
X217240Y247920D02*
D03*
X224860Y232680D02*
D03*
Y202200D02*
D03*
Y141240D02*
D03*
X217240Y34560D02*
D03*
X224860Y19320D02*
D03*
X209620Y507000D02*
D03*
X202000Y491760D02*
D03*
X209620Y476520D02*
D03*
Y19320D02*
D03*
X186760Y552720D02*
D03*
Y522240D02*
D03*
X194380Y507000D02*
D03*
X186760Y400320D02*
D03*
Y369840D02*
D03*
Y339360D02*
D03*
Y308880D02*
D03*
Y278400D02*
D03*
X171520Y552720D02*
D03*
X179140Y415560D02*
D03*
X171520Y400320D02*
D03*
X179140Y385080D02*
D03*
X171520Y369840D02*
D03*
X179140Y354600D02*
D03*
X171520Y339360D02*
D03*
X179140Y324120D02*
D03*
X171520Y308880D02*
D03*
X179140Y293640D02*
D03*
X171520Y278400D02*
D03*
X179140Y263160D02*
D03*
X171520Y126000D02*
D03*
X179140Y80280D02*
D03*
X171520Y65040D02*
D03*
X163900Y507000D02*
D03*
Y80280D02*
D03*
Y19320D02*
D03*
X141040Y552720D02*
D03*
X148660Y507000D02*
D03*
X141040Y186960D02*
D03*
Y95520D02*
D03*
Y34560D02*
D03*
X125800Y552720D02*
D03*
X133420Y537480D02*
D03*
Y507000D02*
D03*
X125800Y95520D02*
D03*
X118180Y507000D02*
D03*
X110560Y95520D02*
D03*
Y34560D02*
D03*
X118180Y19320D02*
D03*
X102940Y507000D02*
D03*
X95320Y369840D02*
D03*
Y95520D02*
D03*
Y34560D02*
D03*
X87700Y507000D02*
D03*
X80080Y369840D02*
D03*
X87700Y293640D02*
D03*
X64840Y34560D02*
D03*
X57220Y354600D02*
D03*
X49600Y156480D02*
D03*
Y126000D02*
D03*
Y65040D02*
D03*
Y34560D02*
D03*
X57220Y19320D02*
D03*
X41980Y537480D02*
D03*
X34360Y461280D02*
D03*
X41980Y263160D02*
D03*
X34360Y247920D02*
D03*
X41980Y171720D02*
D03*
Y49800D02*
D03*
X34360Y34560D02*
D03*
X41980Y19320D02*
D03*
X19120Y552720D02*
D03*
X26740Y476520D02*
D03*
Y446040D02*
D03*
Y324120D02*
D03*
X19120Y278400D02*
D03*
Y247920D02*
D03*
Y156480D02*
D03*
Y126000D02*
D03*
Y95520D02*
D03*
Y65040D02*
D03*
X26740Y49800D02*
D03*
X19120Y34560D02*
D03*
X26740Y19320D02*
D03*
X11500Y537480D02*
D03*
Y293640D02*
D03*
Y263160D02*
D03*
Y232680D02*
D03*
Y110760D02*
D03*
Y80280D02*
D03*
Y49800D02*
D03*
Y19320D02*
D03*
X49177Y451749D02*
D03*
X57892Y495588D02*
D03*
X58000Y419000D02*
D03*
X63226Y480888D02*
D03*
X130559Y86651D02*
D03*
X151750Y69750D02*
D03*
X137177Y151818D02*
D03*
X89084Y150337D02*
D03*
X138982Y288176D02*
D03*
X169246Y234437D02*
D03*
X83000Y178000D02*
D03*
X153840Y395231D02*
D03*
X129184Y113000D02*
D03*
X84000Y65000D02*
D03*
X56000Y545000D02*
D03*
X90000Y561000D02*
D03*
X70000D02*
D03*
X83000Y159000D02*
D03*
X131000Y169000D02*
D03*
D105*
X166604Y111538D02*
D03*
D106*
X119367Y350383D02*
D03*
Y215383D02*
D03*
M02*
