G04*
G04 #@! TF.GenerationSoftware,Altium Limited,Altium Designer,21.6.1 (37)*
G04*
G04 Layer_Color=8421504*
%FSLAX44Y44*%
%MOMM*%
G71*
G04*
G04 #@! TF.SameCoordinates,92C9E3DA-2EC7-41D8-9103-AA549F60DB15*
G04*
G04*
G04 #@! TF.FilePolarity,Positive*
G04*
G01*
G75*
%ADD20R,0.8000X0.7556*%
%ADD21R,1.0500X1.0500*%
%ADD22R,0.7556X0.8000*%
%ADD23R,0.7874X0.3556*%
%ADD24R,0.6000X0.8500*%
%ADD25R,0.4000X0.9000*%
%ADD26R,2.6416X1.1938*%
%ADD27R,1.4250X2.5000*%
%ADD28R,0.4000X1.7500*%
%ADD29R,1.4750X0.4500*%
%ADD30R,1.0500X1.0500*%
G04:AMPARAMS|DCode=31|XSize=0.5mm|YSize=0.8mm|CornerRadius=0.1mm|HoleSize=0mm|Usage=FLASHONLY|Rotation=270.000|XOffset=0mm|YOffset=0mm|HoleType=Round|Shape=RoundedRectangle|*
%AMROUNDEDRECTD31*
21,1,0.5000,0.6000,0,0,270.0*
21,1,0.3000,0.8000,0,0,270.0*
1,1,0.2000,-0.3000,-0.1500*
1,1,0.2000,-0.3000,0.1500*
1,1,0.2000,0.3000,0.1500*
1,1,0.2000,0.3000,-0.1500*
%
%ADD31ROUNDEDRECTD31*%
G04:AMPARAMS|DCode=32|XSize=0.5mm|YSize=0.8mm|CornerRadius=0.1mm|HoleSize=0mm|Usage=FLASHONLY|Rotation=0.000|XOffset=0mm|YOffset=0mm|HoleType=Round|Shape=RoundedRectangle|*
%AMROUNDEDRECTD32*
21,1,0.5000,0.6000,0,0,0.0*
21,1,0.3000,0.8000,0,0,0.0*
1,1,0.2000,0.1500,-0.3000*
1,1,0.2000,-0.1500,-0.3000*
1,1,0.2000,-0.1500,0.3000*
1,1,0.2000,0.1500,0.3000*
%
%ADD32ROUNDEDRECTD32*%
G04:AMPARAMS|DCode=33|XSize=1.5mm|YSize=1.5mm|CornerRadius=0.075mm|HoleSize=0mm|Usage=FLASHONLY|Rotation=270.000|XOffset=0mm|YOffset=0mm|HoleType=Round|Shape=RoundedRectangle|*
%AMROUNDEDRECTD33*
21,1,1.5000,1.3500,0,0,270.0*
21,1,1.3500,1.5000,0,0,270.0*
1,1,0.1500,-0.6750,-0.6750*
1,1,0.1500,-0.6750,0.6750*
1,1,0.1500,0.6750,0.6750*
1,1,0.1500,0.6750,-0.6750*
%
%ADD33ROUNDEDRECTD33*%
%ADD34R,0.7112X1.7780*%
%ADD35R,1.1500X0.6000*%
%ADD36R,0.8890X1.0160*%
G04:AMPARAMS|DCode=37|XSize=0.76mm|YSize=0.6604mm|CornerRadius=0.0825mm|HoleSize=0mm|Usage=FLASHONLY|Rotation=270.000|XOffset=0mm|YOffset=0mm|HoleType=Round|Shape=RoundedRectangle|*
%AMROUNDEDRECTD37*
21,1,0.7600,0.4953,0,0,270.0*
21,1,0.5949,0.6604,0,0,270.0*
1,1,0.1651,-0.2477,-0.2975*
1,1,0.1651,-0.2477,0.2975*
1,1,0.1651,0.2477,0.2975*
1,1,0.1651,0.2477,-0.2975*
%
%ADD37ROUNDEDRECTD37*%
%ADD38R,0.6096X1.7272*%
%ADD39R,0.7112X1.7272*%
%ADD40R,1.2700X0.3556*%
%ADD41R,0.4500X0.8000*%
%ADD42R,0.6000X1.2000*%
%ADD43R,0.2800X0.4100*%
%ADD44R,0.4100X0.2800*%
%ADD45R,0.9398X0.9652*%
%ADD46R,0.6500X1.0500*%
%ADD47R,1.0500X2.1999*%
%ADD48R,1.0000X1.0500*%
%ADD49R,0.9652X0.9398*%
%ADD50R,1.2000X2.2000*%
%ADD51R,0.7000X0.5000*%
%ADD52R,0.5000X0.7000*%
%ADD53R,0.8000X0.9000*%
%ADD54R,2.0000X1.4600*%
G36*
X336250Y48600D02*
Y28100D01*
Y27880D01*
X336240Y27660D01*
X336200Y27450D01*
X336160Y27250D01*
X336120Y27080D01*
X336070Y26910D01*
X335950Y26590D01*
X335790Y26230D01*
X335570Y25880D01*
X335360Y25580D01*
X335100Y25300D01*
X334835Y25035D01*
X334510Y24790D01*
X334200Y24610D01*
X333880Y24440D01*
X333490Y24290D01*
X333095Y24185D01*
X332680Y24120D01*
X332250Y24100D01*
X327250D01*
X326880Y24120D01*
X326510Y24170D01*
X326200Y24230D01*
X325790Y24360D01*
X325420Y24540D01*
X325060Y24740D01*
X324730Y24990D01*
X324420Y25260D01*
X324160Y25560D01*
X323920Y25880D01*
X323710Y26230D01*
X323520Y26610D01*
X323410Y26970D01*
X323354Y27151D01*
X323310Y27330D01*
X323270Y27710D01*
X323250Y28100D01*
Y48600D01*
X318000D01*
Y55600D01*
X336250D01*
Y48600D01*
D02*
G37*
G36*
X396000Y48600D02*
X390750D01*
Y28100D01*
X390730Y27710D01*
X390690Y27330D01*
X390645Y27151D01*
X390590Y26970D01*
X390480Y26610D01*
X390290Y26230D01*
X390080Y25880D01*
X389840Y25560D01*
X389580Y25260D01*
X389270Y24990D01*
X388940Y24740D01*
X388580Y24540D01*
X388210Y24360D01*
X387800Y24230D01*
X387490Y24170D01*
X387120Y24120D01*
X386750Y24100D01*
X381750D01*
X381320Y24120D01*
X380905Y24185D01*
X380510Y24290D01*
X380120Y24440D01*
X379800Y24610D01*
X379490Y24790D01*
X379165Y25035D01*
X378900Y25300D01*
X378640Y25580D01*
X378430Y25880D01*
X378210Y26230D01*
X378050Y26590D01*
X377930Y26910D01*
X377880Y27080D01*
X377840Y27250D01*
X377800Y27450D01*
X377760Y27660D01*
X377750Y27880D01*
Y28100D01*
Y48600D01*
Y55600D01*
X396000D01*
Y48600D01*
D02*
G37*
D20*
X180000Y70222D02*
D03*
Y85778D02*
D03*
X296000Y43222D02*
D03*
Y58778D02*
D03*
X297000Y89778D02*
D03*
Y74222D02*
D03*
X416730Y232026D02*
D03*
Y216470D02*
D03*
X487730Y264470D02*
D03*
Y280026D02*
D03*
X242000Y500778D02*
D03*
Y485222D02*
D03*
X144000Y196778D02*
D03*
Y181222D02*
D03*
X101000Y197778D02*
D03*
Y182222D02*
D03*
D21*
X161000Y72250D02*
D03*
Y85750D02*
D03*
X196000Y63250D02*
D03*
Y76750D02*
D03*
X276000Y119750D02*
D03*
Y106250D02*
D03*
X322000Y199250D02*
D03*
Y212750D02*
D03*
X395000Y199250D02*
D03*
Y212750D02*
D03*
X100000Y62250D02*
D03*
Y75750D02*
D03*
X157000Y499750D02*
D03*
Y486250D02*
D03*
D22*
X131222Y109000D02*
D03*
X146778D02*
D03*
X179778Y60000D02*
D03*
X164222D02*
D03*
X463508Y209248D02*
D03*
X447952D02*
D03*
X122778Y315000D02*
D03*
X107222D02*
D03*
X214778Y178000D02*
D03*
X199222D02*
D03*
X143778Y210000D02*
D03*
X128222D02*
D03*
X199222Y192000D02*
D03*
X214778D02*
D03*
D23*
X448062Y226002D02*
D03*
Y232502D02*
D03*
Y239002D02*
D03*
X469398D02*
D03*
Y232502D02*
D03*
Y226002D02*
D03*
D24*
X240500Y113000D02*
D03*
X253500D02*
D03*
D25*
X214500Y138500D02*
D03*
X221000D02*
D03*
X227500D02*
D03*
Y157500D02*
D03*
X214500D02*
D03*
D26*
X130000Y45632D02*
D03*
Y92368D02*
D03*
D27*
X366625Y32600D02*
D03*
X347375D02*
D03*
D28*
X370000Y63350D02*
D03*
X363500D02*
D03*
X344000D02*
D03*
X350500D02*
D03*
X357000D02*
D03*
D29*
X217620Y51500D02*
D03*
Y58000D02*
D03*
Y64500D02*
D03*
Y71000D02*
D03*
Y77500D02*
D03*
Y84000D02*
D03*
Y90500D02*
D03*
X276380D02*
D03*
Y84000D02*
D03*
Y77500D02*
D03*
Y71000D02*
D03*
Y64500D02*
D03*
Y58000D02*
D03*
Y51500D02*
D03*
D30*
X137750Y27000D02*
D03*
X124250D02*
D03*
X281250Y260000D02*
D03*
X294750D02*
D03*
Y275000D02*
D03*
X281250D02*
D03*
X475750Y456000D02*
D03*
X462250D02*
D03*
X99250Y162000D02*
D03*
X112750D02*
D03*
X293750Y308000D02*
D03*
X280250D02*
D03*
X293750Y325000D02*
D03*
X280250D02*
D03*
X357250Y305000D02*
D03*
X370750D02*
D03*
X229750Y432000D02*
D03*
X216250D02*
D03*
X282730Y438000D02*
D03*
X296230D02*
D03*
X108250Y250000D02*
D03*
X121750D02*
D03*
D31*
X257500Y236000D02*
D03*
Y244000D02*
D03*
Y252000D02*
D03*
Y260000D02*
D03*
Y268000D02*
D03*
Y276000D02*
D03*
Y284000D02*
D03*
Y292000D02*
D03*
Y300000D02*
D03*
Y308000D02*
D03*
Y316000D02*
D03*
Y324000D02*
D03*
X144500D02*
D03*
Y316000D02*
D03*
Y308000D02*
D03*
Y300000D02*
D03*
Y292000D02*
D03*
Y284000D02*
D03*
Y276000D02*
D03*
Y268000D02*
D03*
Y260000D02*
D03*
Y252000D02*
D03*
Y244000D02*
D03*
Y236000D02*
D03*
D32*
X157000Y332000D02*
D03*
X165000D02*
D03*
X173000D02*
D03*
X181000D02*
D03*
X189000D02*
D03*
X197000D02*
D03*
X205000D02*
D03*
X213000D02*
D03*
X221000D02*
D03*
X229000D02*
D03*
X237000D02*
D03*
X245000D02*
D03*
X243750Y228000D02*
D03*
X235750D02*
D03*
X227750D02*
D03*
X219750D02*
D03*
X211750D02*
D03*
X203750D02*
D03*
X195750D02*
D03*
X187750D02*
D03*
X179750D02*
D03*
X171750D02*
D03*
X163750D02*
D03*
X155750D02*
D03*
D33*
X226000Y255000D02*
D03*
X201000D02*
D03*
X176000D02*
D03*
X226000Y280000D02*
D03*
X201000D02*
D03*
X176000D02*
D03*
X226000Y305000D02*
D03*
X201000D02*
D03*
X176000D02*
D03*
D34*
X379050Y278160D02*
D03*
X340950D02*
D03*
X353650D02*
D03*
X366350D02*
D03*
D35*
X462500Y440500D02*
D03*
Y421500D02*
D03*
X487500Y431000D02*
D03*
D36*
X160000Y189112D02*
D03*
Y174888D02*
D03*
D37*
X294000Y341000D02*
D03*
X280000D02*
D03*
X281000Y243000D02*
D03*
X295000D02*
D03*
X280000Y290000D02*
D03*
X294000D02*
D03*
D38*
X440730Y264912D02*
D03*
X470730D02*
D03*
D39*
X455730D02*
D03*
D40*
X345940Y197250D02*
D03*
Y203750D02*
D03*
Y210250D02*
D03*
Y216750D02*
D03*
X374060D02*
D03*
Y210250D02*
D03*
Y203750D02*
D03*
Y197250D02*
D03*
D41*
X353000Y90000D02*
D03*
X345000D02*
D03*
Y106000D02*
D03*
X353000D02*
D03*
D42*
X360000Y123000D02*
D03*
X350500D02*
D03*
X341000D02*
D03*
Y148000D02*
D03*
X350500D02*
D03*
X360000D02*
D03*
X99500Y141500D02*
D03*
X118500D02*
D03*
Y116500D02*
D03*
X109000D02*
D03*
X99500D02*
D03*
D43*
X251000Y442000D02*
D03*
X256000D02*
D03*
Y425700D02*
D03*
X251000D02*
D03*
D44*
X261650Y441350D02*
D03*
Y436350D02*
D03*
Y431350D02*
D03*
Y426350D02*
D03*
X245350D02*
D03*
Y431350D02*
D03*
Y436350D02*
D03*
Y441350D02*
D03*
D45*
X128000Y182507D02*
D03*
Y197493D02*
D03*
X115000Y182507D02*
D03*
Y197493D02*
D03*
X391000Y104493D02*
D03*
Y89507D02*
D03*
D46*
X201250Y496250D02*
D03*
Y537750D02*
D03*
X222750Y496250D02*
D03*
Y537750D02*
D03*
X118250Y496250D02*
D03*
Y537750D02*
D03*
X139750Y496250D02*
D03*
Y537750D02*
D03*
D47*
X122750Y380000D02*
D03*
X93250D02*
D03*
D48*
X108000Y364750D02*
D03*
D49*
X107507Y233000D02*
D03*
X122493D02*
D03*
X121493Y335000D02*
D03*
X106507D02*
D03*
Y295000D02*
D03*
X121493D02*
D03*
D50*
X11500Y316000D02*
D03*
X78500D02*
D03*
D51*
X145000Y128250D02*
D03*
Y135750D02*
D03*
D52*
X106750Y94000D02*
D03*
X99250D02*
D03*
D53*
X121250Y266000D02*
D03*
X108750D02*
D03*
D54*
X328001Y65401D02*
D03*
X386001D02*
D03*
M02*
