M48
;Layer_Color=9474304
;FILE_FORMAT=4:4
METRIC,LZ
T10F00S00C5.0800
%
G90
G05
T10
G00X00386265Y-00024828
M15
G01X00386265Y-00024718
G01X00388745Y-00024807
G01X0039285Y-00024403
G01X00397734Y-00023431
G01X00401681Y-00022234
G01X00406281Y-00020329
G01X00409918Y-00018384
G01X00414059Y-00015618
G01X00417247Y-00013001
G01X00420768Y-0000948
G01X00423385Y-00006292
G01X00426151Y-00002152
G01X00428095Y00001486
G01X00430001Y00006086
G01X00431198Y00010033
G01X0043217Y00014917
G01X00432696Y0002154
G01X00432595Y0011154
G01X00432546Y00112016
G01X00432825Y00116968
G01X0043374Y00122356
G01X00435253Y00127608
G01X00437345Y00132657
G01X00439988Y00137441
G01X00443151Y00141898
G01X00446793Y00145974
G01X00450868Y00149616
G01X00455326Y00152778
G01X00460109Y00155422
G01X00465159Y00157514
G01X0047041Y00159027
G01X00475799Y00159942
G01X00481625Y00160269
G01X00483745Y00160193
G01X0048785Y00160597
G01X00492734Y00161569
G01X00496681Y00162766
G01X00501281Y00164671
G01X00504918Y00166616
G01X00509059Y00169382
G01X00512247Y00171999
G01X00515768Y0017552
G01X00518385Y00178708
G01X00521151Y00182848
G01X00523095Y00186486
G01X00525001Y00191086
G01X00526198Y00195033
G01X0052717Y00199917
G01X00527696Y00206522
G01X00527595Y00451522
G01X00527484Y00451522
G01X00527574Y00454001
G01X0052717Y00458106
G01X00526198Y00462989
G01X00525001Y00466936
G01X00523095Y00471536
G01X00521151Y00475174
G01X00518385Y00479314
G01X00515768Y00482503
G01X00512247Y00486023
G01X00509059Y0048864
G01X00504918Y00491407
G01X00501281Y00493351
G01X00496681Y00495256
G01X00492734Y00496454
G01X0048785Y00497425
G01X00483745Y00497829
G01X00480512Y00497823
G01X00476359Y00498057
G01X00471525Y00498878
G01X00466813Y00500236
G01X00462282Y00502112
G01X0045799Y00504484
G01X0045399Y00507322
G01X00450334Y0051059
G01X00447067Y00514246
G01X00444229Y00518246
G01X00441857Y00522538
G01X0043998Y00527068
G01X00438622Y0053178
G01X00437801Y00536615
G01X004375Y00541966
G01X00437574Y00544001
G01X0043717Y00548106
G01X00436198Y00552989
G01X00435001Y00556936
G01X00433095Y00561536
G01X00431151Y00565174
G01X00428385Y00569314
G01X00425768Y00572503
G01X00422247Y00576023
G01X00419059Y0057864
G01X00414918Y00581406
G01X00411281Y00583351
G01X00406681Y00585256
G01X00402734Y00586454
G01X0039785Y00587425
G01X00391246Y00587952
G01X00116246Y0058785
G01X00116246Y0058774
G01X00113766Y00587829
G01X00109661Y00587425
G01X00104777Y00586454
G01X0010083Y00585256
G01X0009623Y00583351
G01X00092593Y00581406
G01X00088452Y0057864
G01X00085264Y00576023
G01X00081743Y00572503
G01X00079127Y00569314
G01X0007636Y00565174
G01X00074416Y00561536
G01X0007251Y00556936
G01X00071313Y00552989
G01X00070342Y00548106
G01X00069815Y00541482
G01X00069916Y00451482
G01X00069965Y00451007
G01X00069687Y00446054
G01X00068771Y00440666
G01X00067258Y00435414
G01X00065166Y00430365
G01X00062523Y00425581
G01X0005936Y00421124
G01X00055718Y00417049
G01X00051643Y00413407
G01X00047186Y00410244
G01X00042402Y004076
G01X00037352Y00405509
G01X00032101Y00403996
G01X00026712Y0040308
G01X00020886Y00402753
G01X00018766Y00402829
G01X00014661Y00402425
G01X00009778Y00401454
G01X0000583Y00400256
G01X0000123Y00398351
G01X-00002407Y00396407
G01X-00006548Y0039364
G01X-00009736Y00391023
G01X-00013257Y00387503
G01X-00015873Y00384314
G01X-0001864Y00380174
G01X-00020584Y00376536
G01X-0002249Y00371936
G01X-00023687Y00367989
G01X-00024658Y00363106
G01X-00025185Y00356501
G01X-00025084Y00111501
G01X-00024973Y00111501
G01X-00025063Y00109021
G01X-00024658Y00104917
G01X-00023687Y00100033
G01X-0002249Y00096086
G01X-00020584Y00091486
G01X-0001864Y00087848
G01X-00015873Y00083708
G01X-00013257Y0008052
G01X-00009736Y00076999
G01X-00006548Y00074382
G01X-00002407Y00071616
G01X0000123Y00069671
G01X0000583Y00067766
G01X00009778Y00066569
G01X00014661Y00065597
G01X00018766Y00065193
G01X00021999Y00065199
G01X00026152Y00064966
G01X00030986Y00064144
G01X00035698Y00062787
G01X00040229Y0006091
G01X00044521Y00058538
G01X00048521Y000557
G01X00052177Y00052433
G01X00055445Y00048776
G01X00058282Y00044777
G01X00060654Y00040485
G01X00062531Y00035954
G01X00063889Y00031242
G01X0006471Y00026407
G01X00065011Y00021056
G01X00064937Y00019021
G01X00065342Y00014917
G01X00066313Y00010033
G01X0006751Y00006086
G01X00069416Y00001486
G01X0007136Y-00002152
G01X00074127Y-00006292
G01X00076743Y-0000948
G01X00080264Y-00013001
G01X00083452Y-00015618
G01X00087593Y-00018384
G01X0009123Y-00020329
G01X0009583Y-00022234
G01X00099778Y-00023431
G01X00104661Y-00024403
G01X00111265Y-00024929
G01X00386265Y-00024828
M16
M17
M30
