G04*
G04 #@! TF.GenerationSoftware,Altium Limited,Altium Designer,21.6.1 (37)*
G04*
G04 Layer_Color=32768*
%FSLAX44Y44*%
%MOMM*%
G71*
G04*
G04 #@! TF.SameCoordinates,95F62E22-250C-47DA-B756-0B2C72E373F4*
G04*
G04*
G04 #@! TF.FilePolarity,Positive*
G04*
G01*
G75*
%ADD10C,0.2000*%
%ADD11C,0.1000*%
%ADD118C,0.0500*%
%ADD119C,0.1016*%
D10*
X78000Y58000D02*
X112000D01*
X78000Y4000D02*
Y58000D01*
Y4000D02*
X112000D01*
Y58000D01*
X158000Y4000D02*
Y58000D01*
X124000Y4000D02*
X158000D01*
X124000D02*
Y58000D01*
X158000D01*
D11*
X163244Y544069D02*
Y549569D01*
X160494Y546819D02*
X165994D01*
X62772Y77794D02*
X71772D01*
X67272Y73294D02*
Y82294D01*
X97992Y258214D02*
X141692D01*
X97992D02*
Y298614D01*
X141692D01*
Y258214D02*
Y298614D01*
X83182Y127244D02*
Y132744D01*
X80432Y129994D02*
X85932D01*
X156000Y560000D02*
X162000D01*
X159000Y557000D02*
Y563000D01*
X147000Y542000D02*
X153000D01*
X150000Y539000D02*
Y545000D01*
X144599Y125089D02*
X150099D01*
X147349Y122339D02*
Y127839D01*
X56000Y461000D02*
Y467000D01*
X53000Y464000D02*
X59000D01*
X72000Y225250D02*
Y230750D01*
X69250Y228000D02*
X74750D01*
X48000Y241250D02*
Y246750D01*
X45250Y244000D02*
X50750D01*
X57651Y225473D02*
Y230973D01*
X54901Y228223D02*
X60401D01*
X115000Y546000D02*
Y552000D01*
X112000Y549000D02*
X118000D01*
X189000Y173000D02*
X199000D01*
X194000Y168000D02*
Y178000D01*
X166000Y156000D02*
Y182000D01*
X126000Y156000D02*
X166000D01*
X126000D02*
Y182000D01*
X166000D01*
D118*
X157744Y536319D02*
X168744D01*
X157744Y557319D02*
X168744D01*
X157744Y536319D02*
Y557319D01*
X168744Y536319D02*
Y557319D01*
X217848Y413022D02*
Y542547D01*
Y24448D02*
Y153973D01*
X17868Y24448D02*
X217258D01*
X217848Y153973D02*
Y413022D01*
X17868Y542547D02*
X218528D01*
X17868Y24448D02*
Y542547D01*
X130990Y134763D02*
X141990D01*
X130990Y115763D02*
X141990D01*
X130990D02*
Y134763D01*
X141990Y115763D02*
Y134763D01*
X123450Y102900D02*
X127050D01*
Y135100D01*
X123450D02*
X127050D01*
X123450D02*
Y141500D01*
X91450D02*
X123450D01*
X91450Y135100D02*
Y141500D01*
X87850Y135100D02*
X91450D01*
X87850Y102900D02*
Y135100D01*
Y102900D02*
X91450D01*
Y96500D02*
Y102900D01*
Y96500D02*
X123450D01*
Y102900D01*
X100009Y289050D02*
Y300050D01*
X119010Y289050D02*
Y300050D01*
X100009Y289050D02*
X119010D01*
X100009Y300050D02*
X119010D01*
X138215Y289419D02*
Y300419D01*
X119214Y289419D02*
Y300419D01*
X138215D01*
X119214Y289419D02*
X138215D01*
X50772Y67794D02*
Y87794D01*
X83772Y67794D02*
Y87794D01*
X50772D02*
X83772D01*
X50772Y67794D02*
X83772D01*
X177846Y237484D02*
Y268484D01*
X146846D02*
X177846D01*
X146846Y237484D02*
Y268484D01*
Y237484D02*
X177846D01*
X77682Y119494D02*
X88682D01*
X77682Y140494D02*
X88682D01*
X77682Y119494D02*
Y140494D01*
X88682Y119494D02*
Y140494D01*
X167000Y556000D02*
Y564000D01*
X151000D02*
X167000D01*
X151000Y556000D02*
Y564000D01*
Y556000D02*
X167000D01*
X158000Y538000D02*
Y546000D01*
X142000D02*
X158000D01*
X142000Y538000D02*
Y546000D01*
Y538000D02*
X158000D01*
X152849Y114589D02*
Y135589D01*
X141849Y114589D02*
Y135589D01*
X152849D01*
X141849Y114589D02*
X152849D01*
X202500Y216500D02*
X221500D01*
X202500Y227500D02*
X221500D01*
X202500Y216500D02*
Y227500D01*
X221500Y216500D02*
Y227500D01*
X29609Y334900D02*
Y353900D01*
X40609Y334900D02*
Y353900D01*
X29609D02*
X40609D01*
X29609Y334900D02*
X40609D01*
X38386Y335484D02*
Y354484D01*
X49386Y335484D02*
Y354484D01*
X38386D02*
X49386D01*
X38386Y335484D02*
X49386D01*
X84500Y540500D02*
Y559500D01*
X95500Y540500D02*
Y559500D01*
X84500D02*
X95500D01*
X84500Y540500D02*
X95500D01*
X29089Y229260D02*
X34589D01*
X31839Y226510D02*
Y232010D01*
X36339Y220760D02*
Y237760D01*
X27339Y220760D02*
Y237760D01*
X36339D01*
X27339Y220760D02*
X36339D01*
X29250Y98500D02*
X34750D01*
X32000Y95750D02*
Y101250D01*
X36500Y90000D02*
Y107000D01*
X27500Y90000D02*
Y107000D01*
X36500D01*
X27500Y90000D02*
X36500D01*
X38750Y98250D02*
X44250D01*
X41500Y95500D02*
Y101000D01*
X46000Y89750D02*
Y106750D01*
X37000Y89750D02*
Y106750D01*
X46000D01*
X37000Y89750D02*
X46000D01*
X48500Y460000D02*
X63500D01*
X48500Y468000D02*
X63500D01*
Y460000D02*
Y468000D01*
X48500Y460000D02*
Y468000D01*
X66500Y238500D02*
X77500D01*
X66500Y217500D02*
X77500D01*
Y238500D01*
X66500Y217500D02*
Y238500D01*
X42500Y233500D02*
X53500D01*
X42500Y254500D02*
X53500D01*
X42500Y233500D02*
Y254500D01*
X53500Y233500D02*
Y254500D01*
X52151Y238723D02*
X63151D01*
X52151Y217723D02*
X63151D01*
Y238723D01*
X52151Y217723D02*
Y238723D01*
X111000Y557000D02*
X119000D01*
X111000Y541000D02*
Y557000D01*
Y541000D02*
X119000D01*
Y557000D01*
X169300Y131800D02*
X237100D01*
X169300D02*
Y214200D01*
X237100D01*
Y131800D02*
Y214200D01*
X86000Y186750D02*
X128000D01*
Y151250D02*
Y186750D01*
X86000Y151250D02*
X128000D01*
X86000D02*
Y186750D01*
X19000Y213250D02*
X75000D01*
X19000Y134750D02*
Y213250D01*
Y134750D02*
X75000D01*
Y213250D01*
X55080Y67170D02*
Y86830D01*
X20920Y67170D02*
Y86830D01*
X55080D01*
X20920Y67170D02*
X55080D01*
D119*
X26380Y490760D02*
X41620D01*
Y521240D01*
X26380Y490760D02*
Y521240D01*
X41620D01*
M02*
