G04*
G04 #@! TF.GenerationSoftware,Altium Limited,Altium Designer,21.6.1 (37)*
G04*
G04 Layer_Color=32768*
%FSLAX44Y44*%
%MOMM*%
G71*
G04*
G04 #@! TF.SameCoordinates,E93D91D5-E775-412F-AFD9-E5FE798DA7EF*
G04*
G04*
G04 #@! TF.FilePolarity,Positive*
G04*
G01*
G75*
%ADD10C,0.2000*%
%ADD15C,0.1270*%
%ADD16C,0.1524*%
%ADD118C,0.0127*%
%ADD120C,0.0500*%
G36*
X-940280Y-1016203D02*
X-940288Y-1016198D01*
X-940267Y-1016172D01*
X-940280Y-1016203D01*
D02*
G37*
G36*
X-940272Y-1016085D02*
X-940298Y-1016105D01*
X-940279Y-1016078D01*
X-940272Y-1016085D01*
D02*
G37*
G36*
X-940284Y-1015810D02*
X-940292Y-1015816D01*
X-940306Y-1015786D01*
X-940284Y-1015810D01*
D02*
G37*
G36*
X-940078Y-1015762D02*
X-940105Y-1015782D01*
X-940085Y-1015755D01*
X-940078Y-1015762D01*
D02*
G37*
G36*
X-939815Y-1015177D02*
X-939825D01*
X-939820Y-1015144D01*
X-939815Y-1015177D01*
D02*
G37*
G36*
X-939820Y-1015128D02*
X-939825Y-1015095D01*
X-939815D01*
X-939820Y-1015128D01*
D02*
G37*
D10*
X185433Y47940D02*
Y80981D01*
Y47940D02*
X232474D01*
Y80981D01*
X185433D02*
X232474D01*
X185479Y127521D02*
X232521D01*
Y94479D02*
Y127521D01*
X185479Y94479D02*
X232521D01*
X185479D02*
Y127521D01*
D15*
X227000Y531000D02*
Y557000D01*
X201000Y531000D02*
X227000D01*
X201000D02*
Y557000D01*
X227000D01*
D16*
X-939766Y-1015189D02*
Y-1014131D01*
X-938708D01*
Y-1015189D01*
X-939766D01*
X-934476Y-1009899D02*
X-933418Y-1008841D01*
X-931302D01*
X-930244Y-1009899D01*
Y-1014131D01*
X-931302Y-1015189D01*
X-933418D01*
X-934476Y-1014131D01*
Y-1009899D01*
X-923896Y-1008841D02*
X-926012Y-1009899D01*
X-928128Y-1012015D01*
Y-1014131D01*
X-927070Y-1015189D01*
X-924954D01*
X-923896Y-1014131D01*
Y-1013073D01*
X-924954Y-1012015D01*
X-928128D01*
X-921780Y-1009899D02*
X-920722Y-1008841D01*
X-918606D01*
X-917548Y-1009899D01*
Y-1010957D01*
X-918606Y-1012015D01*
X-919664D01*
X-918606D01*
X-917548Y-1013073D01*
Y-1014131D01*
X-918606Y-1015189D01*
X-920722D01*
X-921780Y-1014131D01*
X-940621Y-1015499D02*
Y-1014441D01*
X-939563D01*
Y-1015499D01*
X-940621D01*
X-931099D02*
X-935331D01*
X-931099Y-1011267D01*
Y-1010209D01*
X-932157Y-1009151D01*
X-934273D01*
X-935331Y-1010209D01*
X-928983Y-1014441D02*
X-927925Y-1015499D01*
X-925809D01*
X-924751Y-1014441D01*
Y-1010209D01*
X-925809Y-1009151D01*
X-927925D01*
X-928983Y-1010209D01*
Y-1011267D01*
X-927925Y-1012325D01*
X-924751D01*
X-918403Y-1015499D02*
X-922635D01*
X-918403Y-1011267D01*
Y-1010209D01*
X-919461Y-1009151D01*
X-921577D01*
X-922635Y-1010209D01*
X-936475Y-1015499D02*
X-940707D01*
X-936475Y-1011267D01*
Y-1010209D01*
X-937533Y-1009151D01*
X-939649D01*
X-940707Y-1010209D01*
X-934359Y-1009151D02*
X-930127Y-1015499D01*
Y-1009151D02*
X-934359Y-1015499D01*
X-921664D02*
Y-1009151D01*
X-918490D01*
X-917432Y-1010209D01*
Y-1012325D01*
X-918490Y-1013383D01*
X-921664D01*
X-919548D02*
X-917432Y-1015499D01*
X-940534Y-1016190D02*
Y-1015132D01*
X-939476D01*
Y-1016190D01*
X-940534D01*
X-931012D02*
X-935244D01*
X-931012Y-1011958D01*
Y-1010900D01*
X-932070Y-1009842D01*
X-934186D01*
X-935244Y-1010900D01*
X-928896Y-1009842D02*
X-924664D01*
Y-1010900D01*
X-928896Y-1015132D01*
Y-1016190D01*
X-918316D02*
X-922548D01*
X-918316Y-1011958D01*
Y-1010900D01*
X-919374Y-1009842D01*
X-921490D01*
X-922548Y-1010900D01*
X-936388Y-1016190D02*
X-940620D01*
X-936388Y-1011958D01*
Y-1010900D01*
X-937446Y-1009842D01*
X-939562D01*
X-940620Y-1010900D01*
X-934272Y-1009842D02*
X-930040Y-1016190D01*
Y-1009842D02*
X-934272Y-1016190D01*
X-921577D02*
Y-1009842D01*
X-918402D01*
X-917345Y-1010900D01*
Y-1013016D01*
X-918402Y-1014074D01*
X-921577D01*
X-919461D02*
X-917345Y-1016190D01*
X-940472Y-1016274D02*
Y-1015217D01*
X-939414D01*
Y-1016274D01*
X-940472D01*
X-935182Y-1010984D02*
X-934124Y-1009927D01*
X-932008D01*
X-930950Y-1010984D01*
Y-1015217D01*
X-932008Y-1016274D01*
X-934124D01*
X-935182Y-1015217D01*
Y-1010984D01*
X-928834D02*
X-927776Y-1009927D01*
X-925660D01*
X-924602Y-1010984D01*
Y-1012042D01*
X-925660Y-1013101D01*
X-924602Y-1014158D01*
Y-1015217D01*
X-925660Y-1016274D01*
X-927776D01*
X-928834Y-1015217D01*
Y-1014158D01*
X-927776Y-1013101D01*
X-928834Y-1012042D01*
Y-1010984D01*
X-927776Y-1013101D02*
X-925660D01*
X-918254Y-1016274D02*
X-922486D01*
X-918254Y-1012042D01*
Y-1010984D01*
X-919312Y-1009927D01*
X-921428D01*
X-922486Y-1010984D01*
X-940559D02*
X-939501Y-1009927D01*
X-937385D01*
X-936327Y-1010984D01*
Y-1012042D01*
X-937385Y-1013101D01*
X-936327Y-1014158D01*
Y-1015217D01*
X-937385Y-1016274D01*
X-939501D01*
X-940559Y-1015217D01*
Y-1014158D01*
X-939501Y-1013101D01*
X-940559Y-1012042D01*
Y-1010984D01*
X-939501Y-1013101D02*
X-937385D01*
X-934211Y-1009927D02*
X-929979Y-1016274D01*
Y-1009927D02*
X-934211Y-1016274D01*
X-921515D02*
Y-1009927D01*
X-918341D01*
X-917283Y-1010984D01*
Y-1013101D01*
X-918341Y-1014158D01*
X-921515D01*
X-919399D02*
X-917283Y-1016274D01*
X-939753Y-1015966D02*
Y-1014909D01*
X-938695D01*
Y-1015966D01*
X-939753D01*
X-934463Y-1010677D02*
X-933405Y-1009619D01*
X-931289D01*
X-930231Y-1010677D01*
Y-1011735D01*
X-931289Y-1012793D01*
X-932347D01*
X-931289D01*
X-930231Y-1013851D01*
Y-1014909D01*
X-931289Y-1015966D01*
X-933405D01*
X-934463Y-1014909D01*
X-928115Y-1009619D02*
X-923883D01*
Y-1010677D01*
X-928115Y-1014909D01*
Y-1015966D01*
X-921767Y-1010677D02*
X-920710Y-1009619D01*
X-918594D01*
X-917535Y-1010677D01*
Y-1011735D01*
X-918594Y-1012793D01*
X-917535Y-1013851D01*
Y-1014909D01*
X-918594Y-1015966D01*
X-920710D01*
X-921767Y-1014909D01*
Y-1013851D01*
X-920710Y-1012793D01*
X-921767Y-1011735D01*
Y-1010677D01*
X-920710Y-1012793D02*
X-918594D01*
X-939753Y-1015687D02*
Y-1014630D01*
X-938695D01*
Y-1015687D01*
X-939753D01*
X-934463Y-1009340D02*
X-930231D01*
Y-1010397D01*
X-934463Y-1014630D01*
Y-1015687D01*
X-923883Y-1009340D02*
X-928115D01*
Y-1012514D01*
X-925999Y-1011456D01*
X-924941D01*
X-923883Y-1012514D01*
Y-1014630D01*
X-924941Y-1015687D01*
X-927057D01*
X-928115Y-1014630D01*
X-917535Y-1015687D02*
X-921767D01*
X-917535Y-1011456D01*
Y-1010397D01*
X-918594Y-1009340D01*
X-920710D01*
X-921767Y-1010397D01*
X-939753Y-1016069D02*
Y-1015011D01*
X-938695D01*
Y-1016069D01*
X-939753D01*
X-934463Y-1009721D02*
X-930231D01*
Y-1010779D01*
X-934463Y-1015011D01*
Y-1016069D01*
X-923883Y-1009721D02*
X-928115D01*
Y-1012895D01*
X-925999Y-1011837D01*
X-924941D01*
X-923883Y-1012895D01*
Y-1015011D01*
X-924941Y-1016069D01*
X-927057D01*
X-928115Y-1015011D01*
X-917535Y-1016069D02*
X-921767D01*
X-917535Y-1011837D01*
Y-1010779D01*
X-918594Y-1009721D01*
X-920710D01*
X-921767Y-1010779D01*
X-939753Y-1015807D02*
Y-1014749D01*
X-938695D01*
Y-1015807D01*
X-939753D01*
X-934463Y-1010517D02*
X-933405Y-1009459D01*
X-931289D01*
X-930231Y-1010517D01*
Y-1011575D01*
X-931289Y-1012633D01*
X-932347D01*
X-931289D01*
X-930231Y-1013691D01*
Y-1014749D01*
X-931289Y-1015807D01*
X-933405D01*
X-934463Y-1014749D01*
X-928115Y-1009459D02*
X-923883D01*
Y-1010517D01*
X-928115Y-1014749D01*
Y-1015807D01*
X-921767Y-1010517D02*
X-920710Y-1009459D01*
X-918594D01*
X-917535Y-1010517D01*
Y-1011575D01*
X-918594Y-1012633D01*
X-917535Y-1013691D01*
Y-1014749D01*
X-918594Y-1015807D01*
X-920710D01*
X-921767Y-1014749D01*
Y-1013691D01*
X-920710Y-1012633D01*
X-921767Y-1011575D01*
Y-1010517D01*
X-920710Y-1012633D02*
X-918594D01*
X-939737Y-1016159D02*
X-937621D01*
X-938679D01*
Y-1009811D01*
X-939737Y-1010869D01*
X-934447Y-1016159D02*
Y-1015101D01*
X-933390D01*
Y-1016159D01*
X-934447D01*
X-929157D02*
X-927041D01*
X-928100D01*
Y-1009811D01*
X-929157Y-1010869D01*
X-923867D02*
X-922810Y-1009811D01*
X-920694D01*
X-919636Y-1010869D01*
Y-1015101D01*
X-920694Y-1016159D01*
X-922810D01*
X-923867Y-1015101D01*
Y-1010869D01*
X-913288Y-1009811D02*
X-915404Y-1010869D01*
X-917520Y-1012985D01*
Y-1015101D01*
X-916462Y-1016159D01*
X-914346D01*
X-913288Y-1015101D01*
Y-1014043D01*
X-914346Y-1012985D01*
X-917520D01*
X-939737Y-1015598D02*
X-937621D01*
X-938679D01*
Y-1009249D01*
X-939737Y-1010307D01*
X-934447Y-1015598D02*
Y-1014539D01*
X-933390D01*
Y-1015598D01*
X-934447D01*
X-929157D02*
X-927041D01*
X-928100D01*
Y-1009249D01*
X-929157Y-1010307D01*
X-923867D02*
X-922810Y-1009249D01*
X-920694D01*
X-919636Y-1010307D01*
Y-1014539D01*
X-920694Y-1015598D01*
X-922810D01*
X-923867Y-1014539D01*
Y-1010307D01*
X-913288Y-1009249D02*
X-915404Y-1010307D01*
X-917520Y-1012423D01*
Y-1014539D01*
X-916462Y-1015598D01*
X-914346D01*
X-913288Y-1014539D01*
Y-1013482D01*
X-914346Y-1012423D01*
X-917520D01*
X-939737Y-1016014D02*
Y-1014956D01*
X-938679D01*
Y-1016014D01*
X-939737D01*
X-934447Y-1010724D02*
X-933390Y-1009667D01*
X-931273D01*
X-930216Y-1010724D01*
Y-1011783D01*
X-931273Y-1012840D01*
X-932331D01*
X-931273D01*
X-930216Y-1013898D01*
Y-1014956D01*
X-931273Y-1016014D01*
X-933390D01*
X-934447Y-1014956D01*
X-928100D02*
X-927041Y-1016014D01*
X-924926D01*
X-923867Y-1014956D01*
Y-1010724D01*
X-924926Y-1009667D01*
X-927041D01*
X-928100Y-1010724D01*
Y-1011783D01*
X-927041Y-1012840D01*
X-923867D01*
X-918578Y-1016014D02*
Y-1009667D01*
X-921752Y-1012840D01*
X-917520D01*
X-939737Y-1015732D02*
Y-1014674D01*
X-938679D01*
Y-1015732D01*
X-939737D01*
X-934447Y-1010442D02*
X-933390Y-1009384D01*
X-931273D01*
X-930216Y-1010442D01*
Y-1011500D01*
X-931273Y-1012558D01*
X-932331D01*
X-931273D01*
X-930216Y-1013616D01*
Y-1014674D01*
X-931273Y-1015732D01*
X-933390D01*
X-934447Y-1014674D01*
X-928100D02*
X-927041Y-1015732D01*
X-924926D01*
X-923867Y-1014674D01*
Y-1010442D01*
X-924926Y-1009384D01*
X-927041D01*
X-928100Y-1010442D01*
Y-1011500D01*
X-927041Y-1012558D01*
X-923867D01*
X-918578Y-1015732D02*
Y-1009384D01*
X-921752Y-1012558D01*
X-917520D01*
X-939737Y-1010589D02*
X-938679Y-1009530D01*
X-936563D01*
X-935505Y-1010589D01*
Y-1014820D01*
X-936563Y-1015878D01*
X-938679D01*
X-939737Y-1014820D01*
Y-1010589D01*
X-939943Y-1015499D02*
X-941001D01*
Y-1014441D01*
X-939943D01*
Y-1015499D01*
X-946291Y-1005977D02*
X-945233Y-1008093D01*
X-943117Y-1010209D01*
X-941001D01*
X-939943Y-1009151D01*
Y-1007035D01*
X-941001Y-1005977D01*
X-942059D01*
X-943117Y-1007035D01*
Y-1010209D01*
X-945233Y-1003861D02*
X-946291Y-1002803D01*
Y-1000687D01*
X-945233Y-999629D01*
X-944175D01*
X-943117Y-1000687D01*
Y-1001745D01*
Y-1000687D01*
X-942059Y-999629D01*
X-941001D01*
X-939943Y-1000687D01*
Y-1002803D01*
X-941001Y-1003861D01*
X-939943Y-994339D02*
X-946291D01*
X-943117Y-997513D01*
Y-993281D01*
X-940336Y-1015499D02*
X-941394D01*
Y-1014441D01*
X-940336D01*
Y-1015499D01*
X-946684Y-1005977D02*
X-945626Y-1008093D01*
X-943510Y-1010209D01*
X-941394D01*
X-940336Y-1009151D01*
Y-1007035D01*
X-941394Y-1005977D01*
X-942452D01*
X-943510Y-1007035D01*
Y-1010209D01*
X-945626Y-1003861D02*
X-946684Y-1002803D01*
Y-1000687D01*
X-945626Y-999629D01*
X-944568D01*
X-943510Y-1000687D01*
Y-1001745D01*
Y-1000687D01*
X-942452Y-999629D01*
X-941394D01*
X-940336Y-1000687D01*
Y-1002803D01*
X-941394Y-1003861D01*
X-940336Y-994339D02*
X-946684D01*
X-943510Y-997513D01*
Y-993281D01*
X-940009Y-1015483D02*
X-941067D01*
Y-1014425D01*
X-940009D01*
Y-1015483D01*
X-946357Y-1005961D02*
X-945299Y-1008077D01*
X-943183Y-1010193D01*
X-941067D01*
X-940009Y-1009135D01*
Y-1007019D01*
X-941067Y-1005961D01*
X-942125D01*
X-943183Y-1007019D01*
Y-1010193D01*
X-940009Y-1003845D02*
Y-1001729D01*
Y-1002787D01*
X-946357D01*
X-945299Y-1003845D01*
X-940009Y-995381D02*
X-946357D01*
X-943183Y-998555D01*
Y-994324D01*
X-939881Y-1015483D02*
X-940939D01*
Y-1014425D01*
X-939881D01*
Y-1015483D01*
X-940939Y-1010193D02*
X-939881Y-1009135D01*
Y-1007019D01*
X-940939Y-1005961D01*
X-945171D01*
X-946229Y-1007019D01*
Y-1009135D01*
X-945171Y-1010193D01*
X-944113D01*
X-943055Y-1009135D01*
Y-1005961D01*
X-945171Y-1003845D02*
X-946229Y-1002787D01*
Y-1000671D01*
X-945171Y-999613D01*
X-944113D01*
X-943055Y-1000671D01*
X-941997Y-999613D01*
X-940939D01*
X-939881Y-1000671D01*
Y-1002787D01*
X-940939Y-1003845D01*
X-941997D01*
X-943055Y-1002787D01*
X-944113Y-1003845D01*
X-945171D01*
X-943055Y-1002787D02*
Y-1000671D01*
X-945171Y-997497D02*
X-946229Y-996440D01*
Y-994324D01*
X-945171Y-993266D01*
X-944113D01*
X-943055Y-994324D01*
X-941997Y-993266D01*
X-940939D01*
X-939881Y-994324D01*
Y-996440D01*
X-940939Y-997497D01*
X-941997D01*
X-943055Y-996440D01*
X-944113Y-997497D01*
X-945171D01*
X-943055Y-996440D02*
Y-994324D01*
X-940288Y-1015483D02*
X-941346D01*
Y-1014425D01*
X-940288D01*
Y-1015483D01*
X-946636Y-1005961D02*
X-945578Y-1008077D01*
X-943462Y-1010193D01*
X-941346D01*
X-940288Y-1009135D01*
Y-1007019D01*
X-941346Y-1005961D01*
X-942404D01*
X-943462Y-1007019D01*
Y-1010193D01*
X-940288Y-1003845D02*
Y-1001729D01*
Y-1002787D01*
X-946636D01*
X-945578Y-1003845D01*
X-940288Y-995381D02*
X-946636D01*
X-943462Y-998555D01*
Y-994324D01*
X-940383Y-1015483D02*
X-941441D01*
Y-1014425D01*
X-940383D01*
Y-1015483D01*
X-941441Y-1010193D02*
X-940383Y-1009135D01*
Y-1007019D01*
X-941441Y-1005961D01*
X-945673D01*
X-946731Y-1007019D01*
Y-1009135D01*
X-945673Y-1010193D01*
X-944615D01*
X-943557Y-1009135D01*
Y-1005961D01*
X-945673Y-1003845D02*
X-946731Y-1002787D01*
Y-1000671D01*
X-945673Y-999613D01*
X-944615D01*
X-943557Y-1000671D01*
X-942499Y-999613D01*
X-941441D01*
X-940383Y-1000671D01*
Y-1002787D01*
X-941441Y-1003845D01*
X-942499D01*
X-943557Y-1002787D01*
X-944615Y-1003845D01*
X-945673D01*
X-943557Y-1002787D02*
Y-1000671D01*
X-945673Y-997497D02*
X-946731Y-996440D01*
Y-994324D01*
X-945673Y-993266D01*
X-944615D01*
X-943557Y-994324D01*
X-942499Y-993266D01*
X-941441D01*
X-940383Y-994324D01*
Y-996440D01*
X-941441Y-997497D01*
X-942499D01*
X-943557Y-996440D01*
X-944615Y-997497D01*
X-945673D01*
X-943557Y-996440D02*
Y-994324D01*
X-945422Y-1015483D02*
X-946480Y-1014425D01*
Y-1012309D01*
X-945422Y-1011251D01*
X-941190D01*
X-940132Y-1012309D01*
Y-1014425D01*
X-941190Y-1015483D01*
X-945422D01*
X-939675Y-1015499D02*
Y-1014441D01*
X-938617D01*
Y-1015499D01*
X-939675D01*
X-934385D02*
X-932269D01*
X-933327D01*
Y-1009151D01*
X-934385Y-1010209D01*
X-929095D02*
X-928037Y-1009151D01*
X-925921D01*
X-924863Y-1010209D01*
Y-1011267D01*
X-925921Y-1012325D01*
X-926979D01*
X-925921D01*
X-924863Y-1013383D01*
Y-1014441D01*
X-925921Y-1015499D01*
X-928037D01*
X-929095Y-1014441D01*
X-918515Y-1009151D02*
X-922747D01*
Y-1012325D01*
X-920631Y-1011267D01*
X-919573D01*
X-918515Y-1012325D01*
Y-1014441D01*
X-919573Y-1015499D01*
X-921689D01*
X-922747Y-1014441D01*
X-935552Y-1015499D02*
X-939783D01*
X-935552Y-1011266D01*
Y-1010209D01*
X-936610Y-1009150D01*
X-938726D01*
X-939783Y-1010209D01*
X-933436Y-1009150D02*
X-929204Y-1015499D01*
Y-1009150D02*
X-933436Y-1015499D01*
X-940379Y-1016823D02*
Y-1010475D01*
X-937205D01*
X-936147Y-1011533D01*
Y-1013649D01*
X-937205Y-1014707D01*
X-940379D01*
X-938263D02*
X-936147Y-1016823D01*
X-929799Y-1010475D02*
X-934031D01*
Y-1016823D01*
X-929799D01*
X-934031Y-1013649D02*
X-931915D01*
X-927683Y-1010475D02*
Y-1014707D01*
X-925567Y-1016823D01*
X-923451Y-1014707D01*
Y-1010475D01*
X-921335D02*
X-919219D01*
X-920277D01*
Y-1016823D01*
X-921335D01*
X-919219D01*
X-911813Y-1011533D02*
X-912871Y-1010475D01*
X-914987D01*
X-916045Y-1011533D01*
Y-1012591D01*
X-914987Y-1013649D01*
X-912871D01*
X-911813Y-1014707D01*
Y-1015765D01*
X-912871Y-1016823D01*
X-914987D01*
X-916045Y-1015765D01*
X-909697Y-1010475D02*
X-907581D01*
X-908640D01*
Y-1016823D01*
X-909697D01*
X-907581D01*
X-901234Y-1010475D02*
X-903350D01*
X-904408Y-1011533D01*
Y-1015765D01*
X-903350Y-1016823D01*
X-901234D01*
X-900175Y-1015765D01*
Y-1011533D01*
X-901234Y-1010475D01*
X-898059Y-1016823D02*
Y-1010475D01*
X-893828Y-1016823D01*
Y-1010475D01*
X-887480Y-1011533D02*
X-888538Y-1010475D01*
X-890654D01*
X-891712Y-1011533D01*
Y-1012591D01*
X-890654Y-1013649D01*
X-888538D01*
X-887480Y-1014707D01*
Y-1015765D01*
X-888538Y-1016823D01*
X-890654D01*
X-891712Y-1015765D01*
X-939860Y-1010443D02*
Y-1016791D01*
X-936686D01*
X-935628Y-1015733D01*
Y-1011501D01*
X-936686Y-1010443D01*
X-939860D01*
X-933512Y-1016791D02*
Y-1012559D01*
X-931396Y-1010443D01*
X-929280Y-1012559D01*
Y-1016791D01*
Y-1013617D01*
X-933512D01*
X-927164Y-1010443D02*
X-922932D01*
X-925048D01*
Y-1016791D01*
X-916584Y-1010443D02*
X-920816D01*
Y-1016791D01*
X-916584D01*
X-920816Y-1013617D02*
X-918700D01*
X-940012Y-1016791D02*
Y-1012559D01*
X-937896Y-1010443D01*
X-935780Y-1012559D01*
Y-1016791D01*
Y-1013617D01*
X-940012D01*
X-933664Y-1016791D02*
Y-1010443D01*
X-930490D01*
X-929433Y-1011501D01*
Y-1013617D01*
X-930490Y-1014675D01*
X-933664D01*
X-927317Y-1016791D02*
Y-1010443D01*
X-924143D01*
X-923084Y-1011501D01*
Y-1013617D01*
X-924143Y-1014675D01*
X-927317D01*
X-920969Y-1016791D02*
Y-1010443D01*
X-917795D01*
X-916737Y-1011501D01*
Y-1013617D01*
X-917795Y-1014675D01*
X-920969D01*
X-918853D02*
X-916737Y-1016791D01*
X-913563Y-1009385D02*
Y-1011501D01*
X-914621Y-1012559D01*
X-910389Y-1010443D02*
Y-1016791D01*
X-907215D01*
X-906157Y-1015733D01*
Y-1011501D01*
X-907215Y-1010443D01*
X-910389D01*
X-940081D02*
Y-1016791D01*
X-936908D01*
X-935850Y-1015733D01*
Y-1014675D01*
X-936908Y-1013617D01*
X-940081D01*
X-936908D01*
X-935850Y-1012559D01*
Y-1011501D01*
X-936908Y-1010443D01*
X-940081D01*
X-933734D02*
Y-1011501D01*
X-931618Y-1013617D01*
X-929502Y-1011501D01*
Y-1010443D01*
X-931618Y-1013617D02*
Y-1016791D01*
X-940192Y-1010443D02*
X-935960D01*
Y-1011501D01*
X-940192Y-1015733D01*
Y-1016791D01*
X-935960D01*
X-930670Y-1010443D02*
X-932786D01*
X-933844Y-1011501D01*
Y-1015733D01*
X-932786Y-1016791D01*
X-930670D01*
X-929613Y-1015733D01*
Y-1011501D01*
X-930670Y-1010443D01*
X-927496Y-1016791D02*
Y-1010443D01*
X-923264Y-1016791D01*
Y-1010443D01*
X-916917D02*
X-921149D01*
Y-1016791D01*
X-916917D01*
X-921149Y-1013617D02*
X-919033D01*
X-940592Y-1010443D02*
Y-1016791D01*
X-937418D01*
X-936360Y-1015733D01*
Y-1011501D01*
X-937418Y-1010443D01*
X-940592D01*
X-930012D02*
X-934244D01*
Y-1016791D01*
X-930012D01*
X-934244Y-1013617D02*
X-932128D01*
X-923664Y-1011501D02*
X-924722Y-1010443D01*
X-926838D01*
X-927896Y-1011501D01*
Y-1012559D01*
X-926838Y-1013617D01*
X-924722D01*
X-923664Y-1014675D01*
Y-1015733D01*
X-924722Y-1016791D01*
X-926838D01*
X-927896Y-1015733D01*
X-917316Y-1011501D02*
X-918374Y-1010443D01*
X-920490D01*
X-921548Y-1011501D01*
Y-1015733D01*
X-920490Y-1016791D01*
X-918374D01*
X-917316Y-1015733D01*
X-915200Y-1016791D02*
Y-1010443D01*
X-912026D01*
X-910968Y-1011501D01*
Y-1013617D01*
X-912026Y-1014675D01*
X-915200D01*
X-913084D02*
X-910968Y-1016791D01*
X-908852Y-1010443D02*
X-906736D01*
X-907794D01*
Y-1016791D01*
X-908852D01*
X-906736D01*
X-903562D02*
Y-1010443D01*
X-900388D01*
X-899330Y-1011501D01*
Y-1013617D01*
X-900388Y-1014675D01*
X-903562D01*
X-897214Y-1010443D02*
X-892982D01*
X-895098D01*
Y-1016791D01*
X-890866Y-1010443D02*
X-888750D01*
X-889808D01*
Y-1016791D01*
X-890866D01*
X-888750D01*
X-882402Y-1010443D02*
X-884518D01*
X-885576Y-1011501D01*
Y-1015733D01*
X-884518Y-1016791D01*
X-882402D01*
X-881344Y-1015733D01*
Y-1011501D01*
X-882402Y-1010443D01*
X-879228Y-1016791D02*
Y-1010443D01*
X-874996Y-1016791D01*
Y-1010443D01*
X-940873Y-1016791D02*
Y-1010443D01*
X-937699D01*
X-936641Y-1011501D01*
Y-1013617D01*
X-937699Y-1014675D01*
X-940873D01*
X-938757D02*
X-936641Y-1016791D01*
X-930293Y-1010443D02*
X-934525D01*
Y-1016791D01*
X-930293D01*
X-934525Y-1013617D02*
X-932409D01*
X-928177Y-1010443D02*
Y-1014675D01*
X-926061Y-1016791D01*
X-923945Y-1014675D01*
Y-1010443D01*
X-921829Y-1016791D02*
Y-1015733D01*
X-920771D01*
Y-1016791D01*
X-921829D01*
X-939723Y-1016432D02*
X-937607D01*
X-938665D01*
Y-1010084D01*
X-939723Y-1011142D01*
X-934433Y-1016432D02*
Y-1015374D01*
X-933375D01*
Y-1016432D01*
X-934433D01*
X-935130Y-1011142D02*
X-936188Y-1010084D01*
X-938304D01*
X-939362Y-1011142D01*
Y-1015374D01*
X-938304Y-1016432D01*
X-936188D01*
X-935130Y-1015374D01*
X-933014Y-1010084D02*
Y-1016432D01*
X-928782D01*
X-922434Y-1010084D02*
X-926666D01*
Y-1016432D01*
X-922434D01*
X-926666Y-1013258D02*
X-924550D01*
X-920318Y-1016432D02*
Y-1012200D01*
X-918202Y-1010084D01*
X-916086Y-1012200D01*
Y-1016432D01*
Y-1013258D01*
X-920318D01*
X-913970Y-1016432D02*
Y-1010084D01*
X-910796D01*
X-909738Y-1011142D01*
Y-1013258D01*
X-910796Y-1014316D01*
X-913970D01*
X-911854D02*
X-909738Y-1016432D01*
X-907622D02*
Y-1012200D01*
X-905506Y-1010084D01*
X-903390Y-1012200D01*
Y-1016432D01*
Y-1013258D01*
X-907622D01*
X-901274Y-1016432D02*
Y-1010084D01*
X-897042Y-1016432D01*
Y-1010084D01*
X-890694Y-1011142D02*
X-891752Y-1010084D01*
X-893868D01*
X-894926Y-1011142D01*
Y-1015374D01*
X-893868Y-1016432D01*
X-891752D01*
X-890694Y-1015374D01*
X-884346Y-1010084D02*
X-888578D01*
Y-1016432D01*
X-884346D01*
X-888578Y-1013258D02*
X-886462D01*
X-871650Y-1010084D02*
X-875882D01*
Y-1013258D01*
X-873766D01*
X-875882D01*
Y-1016432D01*
X-869534D02*
Y-1010084D01*
X-866360D01*
X-865302Y-1011142D01*
Y-1013258D01*
X-866360Y-1014316D01*
X-869534D01*
X-867418D02*
X-865302Y-1016432D01*
X-860012Y-1010084D02*
X-862128D01*
X-863186Y-1011142D01*
Y-1015374D01*
X-862128Y-1016432D01*
X-860012D01*
X-858954Y-1015374D01*
Y-1011142D01*
X-860012Y-1010084D01*
X-856838Y-1016432D02*
Y-1010084D01*
X-854722Y-1012200D01*
X-852606Y-1010084D01*
Y-1016432D01*
X-844142Y-1010084D02*
X-842027D01*
X-843084D01*
Y-1016432D01*
X-844142D01*
X-842027D01*
X-838852D02*
Y-1010084D01*
X-834621Y-1016432D01*
Y-1010084D01*
X-832505D02*
X-828273D01*
X-830389D01*
Y-1016432D01*
X-821925Y-1010084D02*
X-826157D01*
Y-1016432D01*
X-821925D01*
X-826157Y-1013258D02*
X-824041D01*
X-819809Y-1016432D02*
Y-1010084D01*
X-816635D01*
X-815577Y-1011142D01*
Y-1013258D01*
X-816635Y-1014316D01*
X-819809D01*
X-817693D02*
X-815577Y-1016432D01*
X-813461Y-1010084D02*
X-811345D01*
X-812403D01*
Y-1016432D01*
X-813461D01*
X-811345D01*
X-804997Y-1010084D02*
X-807113D01*
X-808171Y-1011142D01*
Y-1015374D01*
X-807113Y-1016432D01*
X-804997D01*
X-803939Y-1015374D01*
Y-1011142D01*
X-804997Y-1010084D01*
X-801823Y-1016432D02*
Y-1010084D01*
X-798649D01*
X-797591Y-1011142D01*
Y-1013258D01*
X-798649Y-1014316D01*
X-801823D01*
X-799707D02*
X-797591Y-1016432D01*
X-785953Y-1010084D02*
X-788069D01*
X-789127Y-1011142D01*
Y-1015374D01*
X-788069Y-1016432D01*
X-785953D01*
X-784895Y-1015374D01*
Y-1011142D01*
X-785953Y-1010084D01*
X-778547D02*
X-782779D01*
Y-1013258D01*
X-780663D01*
X-782779D01*
Y-1016432D01*
X-770083Y-1010084D02*
Y-1016432D01*
X-767967Y-1014316D01*
X-765851Y-1016432D01*
Y-1010084D01*
X-763735Y-1016432D02*
Y-1010084D01*
X-760561D01*
X-759503Y-1011142D01*
Y-1013258D01*
X-760561Y-1014316D01*
X-763735D01*
X-757387Y-1013258D02*
X-753155D01*
X-746807Y-1016432D02*
X-751039D01*
X-746807Y-1012200D01*
Y-1011142D01*
X-747865Y-1010084D01*
X-749981D01*
X-751039Y-1011142D01*
X-744691D02*
X-743633Y-1010084D01*
X-741517D01*
X-740459Y-1011142D01*
Y-1015374D01*
X-741517Y-1016432D01*
X-743633D01*
X-744691Y-1015374D01*
Y-1011142D01*
X-738343Y-1010084D02*
Y-1016432D01*
X-735169D01*
X-734111Y-1015374D01*
Y-1014316D01*
X-735169Y-1013258D01*
X-738343D01*
X-735169D01*
X-734111Y-1012200D01*
Y-1011142D01*
X-735169Y-1010084D01*
X-738343D01*
X-727764D02*
X-731995D01*
Y-1013258D01*
X-729880D01*
X-731995D01*
Y-1016432D01*
X-725648Y-1011142D02*
X-721415Y-1015374D01*
X-725648D02*
X-721415Y-1011142D01*
X-725648Y-1013258D02*
X-721415D01*
X-723531Y-1015374D02*
Y-1011142D01*
X-719300Y-1016432D02*
X-717184D01*
X-718242D01*
Y-1010084D01*
X-719300Y-1011142D01*
X-709778Y-1010084D02*
X-714010D01*
Y-1013258D01*
X-711894Y-1012200D01*
X-710836D01*
X-709778Y-1013258D01*
Y-1015374D01*
X-710836Y-1016432D01*
X-712952D01*
X-714010Y-1015374D01*
X-707662Y-1016432D02*
Y-1015374D01*
X-706604D01*
Y-1016432D01*
X-707662D01*
X-939460Y-1016432D02*
Y-1015374D01*
X-938402D01*
Y-1016432D01*
X-939460D01*
X-934170Y-1011142D02*
X-933112Y-1010084D01*
X-930996D01*
X-929938Y-1011142D01*
Y-1015374D01*
X-930996Y-1016432D01*
X-933112D01*
X-934170Y-1015374D01*
Y-1011142D01*
X-927822D02*
X-926764Y-1010084D01*
X-924648D01*
X-923590Y-1011142D01*
Y-1012200D01*
X-924648Y-1013258D01*
X-925706D01*
X-924648D01*
X-923590Y-1014316D01*
Y-1015374D01*
X-924648Y-1016432D01*
X-926764D01*
X-927822Y-1015374D01*
X-921474Y-1011142D02*
X-920416Y-1010084D01*
X-918300D01*
X-917242Y-1011142D01*
Y-1015374D01*
X-918300Y-1016432D01*
X-920416D01*
X-921474Y-1015374D01*
Y-1011142D01*
X-939673Y-1010084D02*
X-937557D01*
X-938615D01*
Y-1016432D01*
X-939673D01*
X-937557D01*
X-934383D02*
Y-1010084D01*
X-930151Y-1016432D01*
Y-1010084D01*
X-923803Y-1011142D02*
X-924861Y-1010084D01*
X-926977D01*
X-928035Y-1011142D01*
Y-1015374D01*
X-926977Y-1016432D01*
X-924861D01*
X-923803Y-1015374D01*
X-921687Y-1010084D02*
Y-1016432D01*
X-917455D01*
X-915339Y-1010084D02*
Y-1015374D01*
X-914281Y-1016432D01*
X-912166D01*
X-911107Y-1015374D01*
Y-1010084D01*
X-908991D02*
Y-1016432D01*
X-905817D01*
X-904760Y-1015374D01*
Y-1011142D01*
X-905817Y-1010084D01*
X-908991D01*
X-898412D02*
X-902644D01*
Y-1016432D01*
X-898412D01*
X-902644Y-1013258D02*
X-900528D01*
X-892064Y-1011142D02*
X-893122Y-1010084D01*
X-895238D01*
X-896296Y-1011142D01*
Y-1012200D01*
X-895238Y-1013258D01*
X-893122D01*
X-892064Y-1014316D01*
Y-1015374D01*
X-893122Y-1016432D01*
X-895238D01*
X-896296Y-1015374D01*
X-939723Y-1016381D02*
Y-1010033D01*
X-935491Y-1016381D01*
Y-1010033D01*
X-930201D02*
X-932317D01*
X-933375Y-1011092D01*
Y-1015323D01*
X-932317Y-1016381D01*
X-930201D01*
X-929143Y-1015323D01*
Y-1011092D01*
X-930201Y-1010033D01*
X-927027D02*
X-922795D01*
X-924911D01*
Y-1016381D01*
X-916447Y-1010033D02*
X-920679D01*
Y-1016381D01*
X-916447D01*
X-920679Y-1013207D02*
X-918563D01*
X-910099Y-1011092D02*
X-911158Y-1010033D01*
X-913273D01*
X-914332Y-1011092D01*
Y-1012150D01*
X-913273Y-1013207D01*
X-911158D01*
X-910099Y-1014266D01*
Y-1015323D01*
X-911158Y-1016381D01*
X-913273D01*
X-914332Y-1015323D01*
X-907983Y-1012150D02*
X-906926D01*
Y-1013207D01*
X-907983D01*
Y-1012150D01*
Y-1015323D02*
X-906926D01*
Y-1016381D01*
X-907983D01*
Y-1015323D01*
D118*
X-939820Y-1015128D02*
Y-1015064D01*
Y-1015204D02*
Y-1015144D01*
Y-1015204D02*
X-939782D01*
X-939853Y-1015144D02*
X-939788D01*
X-939853Y-1015128D02*
X-939788D01*
X-940410Y-1015894D02*
X-939827D01*
X-940117Y-1016211D02*
Y-1015582D01*
Y-1015794D02*
X-940108D01*
X-940117Y-1015803D02*
Y-1015794D01*
X-940126D02*
X-940117D01*
Y-1015785D01*
Y-1015994D02*
X-940108D01*
X-940117Y-1016003D02*
Y-1015994D01*
X-940126D02*
X-940117D01*
Y-1015985D01*
X-940347Y-1016064D02*
X-940338D01*
X-940347Y-1016073D02*
Y-1016064D01*
X-940356D02*
X-940347D01*
Y-1016055D01*
Y-1015819D02*
X-940338D01*
X-940347Y-1015828D02*
Y-1015819D01*
X-940356D02*
X-940347D01*
Y-1015810D01*
Y-1015724D02*
X-940338D01*
X-940347Y-1015733D02*
Y-1015724D01*
X-940356D02*
X-940347D01*
Y-1015715D01*
X-940252Y-1015634D02*
X-940243D01*
X-940252Y-1015643D02*
Y-1015634D01*
X-940261D02*
X-940252D01*
Y-1015625D01*
X-939977Y-1015634D02*
X-939968D01*
X-939977Y-1015643D02*
Y-1015634D01*
X-939986D02*
X-939977D01*
Y-1015625D01*
X-939887Y-1015724D02*
X-939878D01*
X-939887Y-1015733D02*
Y-1015724D01*
X-939896D02*
X-939887D01*
Y-1015715D01*
Y-1015969D02*
X-939878D01*
X-939887Y-1015978D02*
Y-1015969D01*
X-939896D02*
X-939887D01*
Y-1015960D01*
Y-1016064D02*
X-939878D01*
X-939887Y-1016073D02*
Y-1016064D01*
X-939896D02*
X-939887D01*
Y-1016055D01*
X-939982Y-1016154D02*
X-939973D01*
X-939982Y-1016163D02*
Y-1016154D01*
X-939991D02*
X-939982D01*
Y-1016145D01*
X-940257Y-1016154D02*
X-940248D01*
X-940257Y-1016163D02*
Y-1016154D01*
X-940266D02*
X-940257D01*
Y-1016145D01*
X-940347Y-1016154D02*
X-940338D01*
X-940347Y-1016163D02*
Y-1016154D01*
X-940356D02*
X-940347D01*
Y-1016145D01*
X-940523Y-1015514D02*
X-940485D01*
X-940306Y-1015786D02*
X-940271Y-1015839D01*
X-940485Y-1015514D02*
X-940306Y-1015786D01*
X-940436Y-1016205D02*
X-940398D01*
X-940298Y-1016105D02*
X-940254Y-1016060D01*
X-940398Y-1016205D02*
X-940298Y-1016105D01*
X-940374Y-1016290D02*
X-940336D01*
X-940267Y-1016172D01*
X-939874Y-1015990D02*
X-939853D01*
X-939803Y-1015982D01*
X-939753D01*
X-939874Y-1015703D02*
X-939753D01*
X-940334Y-1016085D02*
X-939753D01*
X-940334Y-1015798D02*
X-940198D01*
X-940148Y-1015822D01*
X-939753D01*
X-939969Y-1016175D02*
X-939753D01*
X-939964Y-1015613D02*
X-939753D01*
X-940104Y-1015994D02*
X-940031D01*
X-940001Y-1016030D01*
X-939753D01*
X-940104Y-1015794D02*
X-939853D01*
X-939803Y-1015748D01*
X-939753D01*
X-939814Y-1015894D02*
X-939753D01*
X-939956Y-1015621D02*
Y-1015564D01*
X-939928Y-1015545D01*
Y-1015499D01*
X-940278Y-1016141D02*
Y-1015571D01*
X-940321Y-1015543D02*
X-940278Y-1015571D01*
X-940321Y-1015543D02*
Y-1015499D01*
X-939961Y-1016051D02*
Y-1015591D01*
X-939993Y-1015541D02*
X-939961Y-1015591D01*
X-939993Y-1015541D02*
Y-1015499D01*
X-939866Y-1015711D02*
Y-1015499D01*
X-940273Y-1015621D02*
Y-1015499D01*
X-940368Y-1015806D02*
Y-1015499D01*
X-940117Y-1015570D02*
Y-1015499D01*
X-939837Y-1015514D02*
X-939799D01*
X-940105Y-1015782D02*
X-939837Y-1015514D01*
X-940878Y-1016817D02*
X-939742D01*
X-939909D02*
Y-1016785D01*
X-940018Y-1016817D02*
Y-1016785D01*
X-940112Y-1016817D02*
Y-1016785D01*
X-940198Y-1016817D02*
Y-1016785D01*
X-940808Y-1016817D02*
Y-1016785D01*
X-940878D02*
X-939742D01*
Y-1016850D02*
Y-1016785D01*
X-940878Y-1016850D02*
X-939742D01*
X-940878D02*
Y-1016785D01*
X-940355Y-1016879D02*
Y-1016850D01*
X-939832Y-1016879D02*
Y-1016850D01*
X-939309Y-1016879D02*
Y-1016850D01*
X-938785Y-1016879D02*
Y-1016850D01*
X-938262Y-1015364D02*
X-938230D01*
X-938262Y-1015859D02*
X-938230D01*
X-938262Y-1016354D02*
X-938230D01*
X-938963Y-1016850D02*
Y-1016685D01*
X-939354D02*
X-938963D01*
X-939354Y-1016602D02*
X-938862D01*
X-939204Y-1016850D02*
Y-1016766D01*
X-939099Y-1016850D02*
Y-1016766D01*
X-939354Y-1016792D02*
X-938963D01*
X-939354Y-1016766D02*
X-938963D01*
X-939742Y-1016822D02*
X-938963D01*
X-939742Y-1016675D02*
X-939354D01*
X-938507Y-1016850D02*
Y-1016796D01*
X-938434D02*
Y-1016685D01*
X-938754Y-1016850D02*
Y-1016796D01*
X-938862D02*
Y-1016685D01*
X-939354Y-1016850D02*
X-938963D01*
Y-1016685D02*
X-938262D01*
X-938963Y-1016796D02*
X-938262D01*
X-938862Y-1016685D02*
Y-1016524D01*
X-939354Y-1016850D02*
Y-1016524D01*
X-939742D02*
X-938262D01*
X-939742Y-1016850D02*
Y-1016524D01*
X-938262Y-1016850D02*
Y-1014868D01*
X-940878Y-1016850D02*
X-938262D01*
X-940878D02*
Y-1014868D01*
X-938262D01*
D120*
X76479Y140906D02*
Y152906D01*
X100479Y140906D02*
Y152906D01*
X76479D02*
X100479D01*
X76479Y140906D02*
X100479D01*
X83729Y146905D02*
X93229D01*
X88479Y142156D02*
Y151656D01*
X73250Y551000D02*
X78750D01*
X76000Y548250D02*
Y553750D01*
X80500Y542500D02*
Y559500D01*
X71500Y542500D02*
Y559500D01*
X80500D01*
X71500Y542500D02*
X80500D01*
X60250Y551000D02*
X65750D01*
X63000Y548250D02*
Y553750D01*
X67500Y542500D02*
Y559500D01*
X58500Y542500D02*
Y559500D01*
X67500D01*
X58500Y542500D02*
X67500D01*
X39000Y481250D02*
Y486750D01*
X36250Y484000D02*
X41750D01*
X30500Y479500D02*
X47500D01*
X30500Y488500D02*
X47500D01*
Y479500D02*
Y488500D01*
X30500Y479500D02*
Y488500D01*
X144250Y391169D02*
X149750D01*
X147000Y388419D02*
Y393918D01*
X142500Y382169D02*
X151500D01*
X142500Y400168D02*
X151500D01*
X142500Y382169D02*
Y400168D01*
X151500Y382169D02*
Y400168D01*
X102021Y390423D02*
X107521D01*
X104771Y387673D02*
Y393172D01*
X100271Y381423D02*
X109271D01*
X100271Y399422D02*
X109271D01*
X100271Y381423D02*
Y399422D01*
X109271Y381423D02*
Y399422D01*
X68250Y389000D02*
X73750D01*
X71000Y386250D02*
Y391750D01*
X66500Y380000D02*
X75500D01*
X66500Y398000D02*
X75500D01*
X66500Y380000D02*
Y398000D01*
X75500Y380000D02*
Y398000D01*
X10250Y196000D02*
X15750D01*
X13000Y193250D02*
Y198750D01*
X8500Y205000D02*
X17500D01*
X8500Y187000D02*
X17500D01*
Y205000D01*
X8500Y187000D02*
Y205000D01*
X169579Y93652D02*
Y99152D01*
X166829Y96402D02*
X172329D01*
X160579Y91902D02*
Y100902D01*
X178579Y91902D02*
Y100902D01*
X160579D02*
X178579D01*
X160579Y91902D02*
X178579D01*
X99356Y550390D02*
X104856D01*
X102106Y547640D02*
Y553140D01*
X97606Y541390D02*
X106606D01*
X97606Y559390D02*
X106606D01*
X97606Y541390D02*
Y559390D01*
X106606Y541390D02*
Y559390D01*
X134250Y391169D02*
X139750D01*
X137000Y388419D02*
Y393918D01*
X132500Y382169D02*
X141500D01*
X132500Y400168D02*
X141500D01*
X132500Y382169D02*
Y400168D01*
X141500Y382169D02*
Y400168D01*
X51191Y318324D02*
Y323824D01*
X48441Y321074D02*
X53941D01*
X60191Y316574D02*
Y325574D01*
X42191Y316574D02*
Y325574D01*
Y316574D02*
X60191D01*
X42191Y325574D02*
X60191D01*
X28000Y111250D02*
Y116750D01*
X25250Y114000D02*
X30750D01*
X19000Y109500D02*
Y118500D01*
X37000Y109500D02*
Y118500D01*
X19000D02*
X37000D01*
X19000Y109500D02*
X37000D01*
Y123250D02*
Y128750D01*
X34250Y126000D02*
X39750D01*
X28000Y121500D02*
Y130500D01*
X46000Y121500D02*
Y130500D01*
X28000D02*
X46000D01*
X28000Y121500D02*
X46000D01*
Y111250D02*
Y116750D01*
X43250Y114000D02*
X48750D01*
X37000Y109500D02*
Y118500D01*
X55000Y109500D02*
Y118500D01*
X37000D02*
X55000D01*
X37000Y109500D02*
X55000D01*
X19250Y229000D02*
X24750D01*
X22000Y226250D02*
Y231750D01*
X17500Y238000D02*
X26500D01*
X17500Y220000D02*
X26500D01*
Y238000D01*
X17500Y220000D02*
Y238000D01*
X144115Y277672D02*
Y283172D01*
X141365Y280422D02*
X146865D01*
X153115Y275922D02*
Y284922D01*
X135115Y275922D02*
Y284922D01*
Y275922D02*
X153115D01*
X135115Y284922D02*
X153115D01*
X92759Y268669D02*
X98259D01*
X95509Y265919D02*
Y271419D01*
X91009Y259669D02*
X100009D01*
X91009Y277669D02*
X100009D01*
X91009Y259669D02*
Y277669D01*
X100009Y259669D02*
Y277669D01*
X65250Y19000D02*
X70750D01*
X68000Y16250D02*
Y21750D01*
X63500Y28000D02*
X72500D01*
X63500Y10000D02*
X72500D01*
Y28000D01*
X63500Y10000D02*
Y28000D01*
X158485Y230420D02*
X163985D01*
X161235Y227670D02*
Y233170D01*
X156735Y221420D02*
X165735D01*
X156735Y239420D02*
X165735D01*
X156735Y221420D02*
Y239420D01*
X165735Y221420D02*
Y239420D01*
X187381Y240296D02*
Y245796D01*
X184631Y243046D02*
X190131D01*
X196381Y238546D02*
Y247546D01*
X178381Y238546D02*
Y247546D01*
Y238546D02*
X196381D01*
X178381Y247546D02*
X196381D01*
X125250Y390919D02*
X130750D01*
X128000Y388169D02*
Y393669D01*
X123500Y381918D02*
X132500D01*
X123500Y399919D02*
X132500D01*
X123500Y381918D02*
Y399919D01*
X132500Y381918D02*
Y399919D01*
X111260Y390611D02*
X116760D01*
X114010Y387861D02*
Y393361D01*
X109510Y381611D02*
X118510D01*
X109510Y399611D02*
X118510D01*
X109510Y381611D02*
Y399611D01*
X118510Y381611D02*
Y399611D01*
X77250Y389000D02*
X82750D01*
X80000Y386250D02*
Y391750D01*
X75500Y380000D02*
X84500D01*
X75500Y398000D02*
X84500D01*
X75500Y380000D02*
Y398000D01*
X84500Y380000D02*
Y398000D01*
M02*
