G04*
G04 #@! TF.GenerationSoftware,Altium Limited,Altium Designer,21.6.1 (37)*
G04*
G04 Layer_Color=16711935*
%FSLAX44Y44*%
%MOMM*%
G71*
G04*
G04 #@! TF.SameCoordinates,92C9E3DA-2EC7-41D8-9103-AA549F60DB15*
G04*
G04*
G04 #@! TF.FilePolarity,Positive*
G04*
G01*
G75*
%ADD14C,0.2000*%
%ADD15C,0.1000*%
%ADD19C,0.1270*%
G36*
X226573Y449585D02*
X227676D01*
Y449122D01*
X226573D01*
Y448007D01*
X226103D01*
Y449122D01*
X225000D01*
Y449585D01*
X226103D01*
Y450689D01*
X226573D01*
Y449585D01*
D02*
G37*
G36*
X113897Y106878D02*
X115000D01*
Y106414D01*
X113897D01*
Y105311D01*
X113427D01*
Y106414D01*
X112324D01*
Y106878D01*
X113427D01*
Y107993D01*
X113897D01*
Y106878D01*
D02*
G37*
D14*
X357000Y90000D02*
Y106000D01*
X341000D02*
X357000D01*
X341000Y90000D02*
Y106000D01*
Y90000D02*
X357000D01*
X243500Y423850D02*
Y443850D01*
Y423850D02*
X263500D01*
Y443850D01*
X243500D02*
X263500D01*
X196000Y496000D02*
Y538000D01*
X228000D01*
Y496000D02*
Y538000D01*
X196000Y496000D02*
X228000D01*
X113000D02*
Y538000D01*
X145000D01*
Y496000D02*
Y538000D01*
X113000Y496000D02*
X145000D01*
X142000Y137000D02*
X148000D01*
X142000Y127000D02*
Y137000D01*
Y127000D02*
X148000D01*
Y137000D01*
X98000Y91000D02*
Y97000D01*
Y91000D02*
X108000D01*
Y97000D01*
X98000D02*
X108000D01*
D15*
X156500Y70500D02*
Y87500D01*
X165500Y70500D02*
Y87500D01*
X156500Y70500D02*
X165500D01*
X156500Y87500D02*
X165500D01*
X191500Y61500D02*
Y78500D01*
X200500Y61500D02*
Y78500D01*
X191500Y61500D02*
X200500D01*
X191500Y78500D02*
X200500D01*
X280500Y104500D02*
Y121500D01*
X271500Y104500D02*
Y121500D01*
X280500D01*
X271500Y104500D02*
X280500D01*
X238500Y108250D02*
Y117750D01*
X255500Y108250D02*
Y117750D01*
X238500D02*
X255500D01*
X238500Y108250D02*
X255500D01*
X397200Y6900D02*
Y63100D01*
X316800Y6900D02*
X397200D01*
X316800D02*
Y63100D01*
X397200D01*
X262500Y46000D02*
X269000Y52500D01*
Y46000D02*
Y96000D01*
X225000D02*
X269000D01*
X225000Y46000D02*
Y96000D01*
Y46000D02*
X269000D01*
X139500Y22500D02*
Y31500D01*
X122500Y22500D02*
Y31500D01*
Y22500D02*
X139500D01*
X122500Y31500D02*
X139500D01*
X279500Y264500D02*
X296500D01*
X279500Y255500D02*
X296500D01*
X279500D02*
Y264500D01*
X296500Y255500D02*
Y264500D01*
Y270500D02*
Y279500D01*
X279500Y270500D02*
Y279500D01*
Y270500D02*
X296500D01*
X279500Y279500D02*
X296500D01*
X460500Y451500D02*
Y460500D01*
X477500Y451500D02*
Y460500D01*
X460500D02*
X477500D01*
X460500Y451500D02*
X477500D01*
X467000Y445500D02*
X483000D01*
Y416500D02*
Y445500D01*
X467000Y416500D02*
X483000D01*
X467000D02*
Y445500D01*
Y436000D02*
X476500Y445500D01*
X97500Y157500D02*
Y166500D01*
X114500Y157500D02*
Y166500D01*
X97500D02*
X114500D01*
X97500Y157500D02*
X114500D01*
X295500Y303500D02*
Y312500D01*
X278500Y303500D02*
Y312500D01*
Y303500D02*
X295500D01*
X278500Y312500D02*
X295500D01*
Y320500D02*
Y329500D01*
X278500Y320500D02*
Y329500D01*
Y320500D02*
X295500D01*
X278500Y329500D02*
X295500D01*
X355500Y300500D02*
Y309500D01*
X372500Y300500D02*
Y309500D01*
X355500D02*
X372500D01*
X355500Y300500D02*
X372500D01*
X317500Y197500D02*
X326500D01*
X317500Y214500D02*
X326500D01*
X317500Y197500D02*
Y214500D01*
X326500Y197500D02*
Y214500D01*
X390500Y197500D02*
X399500D01*
X390500Y214500D02*
X399500D01*
X390500Y197500D02*
Y214500D01*
X399500Y197500D02*
Y214500D01*
X355620Y143620D02*
X365120Y134120D01*
X335880Y143620D02*
X365120D01*
X335880Y127380D02*
Y143620D01*
Y127380D02*
X365120D01*
Y143620D01*
X94500Y130500D02*
X104000Y121000D01*
X94500D02*
X123500D01*
Y137000D01*
X94500D02*
X123500D01*
X94500Y121000D02*
Y137000D01*
X95500Y60500D02*
Y77500D01*
X104500Y60500D02*
Y77500D01*
X95500Y60500D02*
X104500D01*
X95500Y77500D02*
X104500D01*
X214500Y427500D02*
X231500D01*
X214500Y436500D02*
X231500D01*
Y427500D02*
Y436500D01*
X214500Y427500D02*
Y436500D01*
X280980Y442500D02*
X297980D01*
X280980Y433500D02*
X297980D01*
X280980D02*
Y442500D01*
X297980Y433500D02*
Y442500D01*
X74000Y306000D02*
X80000Y312000D01*
Y306000D02*
Y326000D01*
X10000D02*
X80000D01*
X10000Y306000D02*
Y326000D01*
Y306000D02*
X80000D01*
X161500Y484500D02*
Y501500D01*
X152500Y484500D02*
Y501500D01*
X161500D01*
X152500Y484500D02*
X161500D01*
X106500Y254500D02*
X123500D01*
X106500Y245500D02*
X123500D01*
X106500D02*
Y254500D01*
X123500Y245500D02*
Y254500D01*
X106250Y261250D02*
X123750D01*
X106250Y270750D02*
X123750D01*
Y261250D02*
Y270750D01*
X106250Y261250D02*
Y270750D01*
D19*
X208100Y447350D02*
Y541850D01*
X131900Y447350D02*
X208100D01*
X131900D02*
Y541850D01*
X208100D01*
X131900Y14150D02*
Y108650D01*
X208100D01*
Y14150D02*
Y108650D01*
X131900Y14150D02*
X208100D01*
M02*
