G04*
G04 #@! TF.GenerationSoftware,Altium Limited,Altium Designer,21.6.1 (37)*
G04*
G04 Layer_Color=16711935*
%FSLAX44Y44*%
%MOMM*%
G71*
G04*
G04 #@! TF.SameCoordinates,92C9E3DA-2EC7-41D8-9103-AA549F60DB15*
G04*
G04*
G04 #@! TF.FilePolarity,Positive*
G04*
G01*
G75*
%ADD14C,0.2000*%
%ADD15C,0.1000*%
G36*
X353899Y541746D02*
X353353D01*
X352719Y544357D01*
X352672Y544539D01*
X352637Y544703D01*
X352602Y544855D01*
X352573Y544985D01*
X352555Y545043D01*
X352549Y545096D01*
X352537Y545137D01*
X352532Y545172D01*
X352520Y545202D01*
Y545225D01*
X352514Y545237D01*
Y545243D01*
X352473Y544985D01*
X352420Y544732D01*
X352367Y544492D01*
X352344Y544380D01*
X352314Y544269D01*
X352291Y544169D01*
X352268Y544081D01*
X352244Y544005D01*
X352226Y543934D01*
X352215Y543881D01*
X352203Y543840D01*
X352191Y543811D01*
Y543805D01*
X351616Y541746D01*
X350965D01*
X350196Y544492D01*
X350191Y544515D01*
X350179Y544550D01*
X350167Y544597D01*
X350155Y544650D01*
X350138Y544709D01*
X350126Y544773D01*
X350091Y544902D01*
X350061Y545032D01*
X350044Y545090D01*
X350032Y545137D01*
X350026Y545184D01*
X350014Y545213D01*
X350009Y545237D01*
Y545243D01*
X349979Y545090D01*
X349950Y544938D01*
X349921Y544797D01*
X349891Y544674D01*
X349879Y544615D01*
X349868Y544562D01*
X349856Y544521D01*
X349850Y544480D01*
X349844Y544451D01*
X349838Y544427D01*
X349833Y544415D01*
Y544410D01*
X349228Y541746D01*
X348671D01*
X349733Y545806D01*
X350296D01*
X351153Y542714D01*
X351176Y542638D01*
X351194Y542556D01*
X351217Y542473D01*
X351235Y542403D01*
X351253Y542338D01*
X351264Y542286D01*
X351270Y542250D01*
X351276Y542244D01*
Y542239D01*
X351282Y542256D01*
X351288Y542286D01*
X351305Y542350D01*
X351329Y542426D01*
X351352Y542509D01*
X351370Y542585D01*
X351387Y542649D01*
X351393Y542679D01*
X351399Y542696D01*
X351405Y542708D01*
Y542714D01*
X352256Y545806D01*
X352784D01*
X353899Y541746D01*
D02*
G37*
G36*
X360916Y545325D02*
X358915D01*
X358986Y545225D01*
X359021Y545184D01*
X359050Y545143D01*
X359080Y545108D01*
X359103Y545084D01*
X359121Y545067D01*
X359127Y545061D01*
X359156Y545032D01*
X359191Y545002D01*
X359273Y544926D01*
X359367Y544838D01*
X359467Y544750D01*
X359561Y544674D01*
X359602Y544638D01*
X359637Y544603D01*
X359666Y544580D01*
X359690Y544562D01*
X359702Y544550D01*
X359707Y544544D01*
X359801Y544462D01*
X359895Y544386D01*
X359977Y544310D01*
X360054Y544245D01*
X360124Y544181D01*
X360183Y544122D01*
X360241Y544069D01*
X360288Y544022D01*
X360335Y543975D01*
X360370Y543940D01*
X360400Y543911D01*
X360429Y543881D01*
X360458Y543846D01*
X360470Y543834D01*
X360552Y543735D01*
X360623Y543647D01*
X360681Y543559D01*
X360728Y543488D01*
X360764Y543424D01*
X360787Y543377D01*
X360799Y543348D01*
X360805Y543336D01*
X360840Y543248D01*
X360863Y543160D01*
X360887Y543078D01*
X360899Y543007D01*
X360904Y542943D01*
X360910Y542896D01*
Y542866D01*
Y542855D01*
X360904Y542767D01*
X360893Y542685D01*
X360881Y542602D01*
X360857Y542532D01*
X360799Y542391D01*
X360740Y542280D01*
X360705Y542227D01*
X360676Y542186D01*
X360646Y542145D01*
X360617Y542115D01*
X360593Y542092D01*
X360582Y542068D01*
X360570Y542063D01*
X360564Y542057D01*
X360499Y541998D01*
X360429Y541945D01*
X360353Y541904D01*
X360277Y541869D01*
X360124Y541810D01*
X359972Y541769D01*
X359907Y541758D01*
X359842Y541746D01*
X359784Y541740D01*
X359737Y541734D01*
X359696Y541728D01*
X359637D01*
X359531Y541734D01*
X359432Y541740D01*
X359338Y541758D01*
X359250Y541775D01*
X359168Y541799D01*
X359091Y541822D01*
X359021Y541851D01*
X358956Y541881D01*
X358898Y541910D01*
X358851Y541939D01*
X358810Y541963D01*
X358774Y541986D01*
X358745Y542004D01*
X358728Y542021D01*
X358716Y542027D01*
X358710Y542033D01*
X358651Y542092D01*
X358599Y542156D01*
X358546Y542227D01*
X358505Y542297D01*
X358434Y542438D01*
X358387Y542579D01*
X358370Y542644D01*
X358352Y542708D01*
X358340Y542761D01*
X358329Y542808D01*
X358323Y542849D01*
Y542878D01*
X358317Y542896D01*
Y542902D01*
X358827Y542954D01*
X358839Y542820D01*
X358862Y542702D01*
X358898Y542597D01*
X358939Y542514D01*
X358974Y542444D01*
X359009Y542397D01*
X359033Y542368D01*
X359044Y542356D01*
X359132Y542286D01*
X359226Y542233D01*
X359326Y542192D01*
X359414Y542168D01*
X359496Y542151D01*
X359567Y542145D01*
X359590Y542139D01*
X359625D01*
X359748Y542145D01*
X359860Y542168D01*
X359954Y542203D01*
X360036Y542239D01*
X360101Y542280D01*
X360142Y542309D01*
X360171Y542332D01*
X360183Y542344D01*
X360253Y542426D01*
X360306Y542509D01*
X360347Y542591D01*
X360370Y542673D01*
X360388Y542737D01*
X360394Y542796D01*
X360400Y542831D01*
Y542837D01*
Y542843D01*
X360388Y542949D01*
X360365Y543060D01*
X360323Y543160D01*
X360282Y543254D01*
X360235Y543330D01*
X360194Y543395D01*
X360183Y543418D01*
X360171Y543436D01*
X360159Y543441D01*
Y543447D01*
X360112Y543512D01*
X360054Y543576D01*
X359989Y543647D01*
X359919Y543717D01*
X359772Y543858D01*
X359625Y543999D01*
X359549Y544063D01*
X359484Y544122D01*
X359420Y544175D01*
X359367Y544222D01*
X359326Y544257D01*
X359291Y544286D01*
X359267Y544304D01*
X359262Y544310D01*
X359115Y544433D01*
X358980Y544550D01*
X358868Y544656D01*
X358780Y544744D01*
X358704Y544820D01*
X358651Y544873D01*
X358622Y544908D01*
X358610Y544914D01*
Y544920D01*
X358528Y545020D01*
X358464Y545114D01*
X358405Y545207D01*
X358358Y545290D01*
X358323Y545360D01*
X358299Y545413D01*
X358288Y545448D01*
X358282Y545454D01*
Y545460D01*
X358258Y545524D01*
X358246Y545583D01*
X358235Y545642D01*
X358229Y545695D01*
X358223Y545742D01*
Y545777D01*
Y545800D01*
Y545806D01*
X360916D01*
Y545325D01*
D02*
G37*
G36*
X355999Y545800D02*
X356123Y545794D01*
X356234Y545783D01*
X356328Y545771D01*
X356410Y545759D01*
X356469Y545753D01*
X356486Y545747D01*
X356504Y545742D01*
X356516D01*
X356621Y545712D01*
X356715Y545677D01*
X356797Y545648D01*
X356868Y545612D01*
X356926Y545583D01*
X356967Y545560D01*
X356991Y545542D01*
X357003Y545536D01*
X357079Y545483D01*
X357143Y545419D01*
X357208Y545360D01*
X357261Y545301D01*
X357308Y545249D01*
X357343Y545207D01*
X357366Y545178D01*
X357372Y545166D01*
X357431Y545073D01*
X357490Y544973D01*
X357537Y544879D01*
X357572Y544785D01*
X357607Y544703D01*
X357630Y544638D01*
X357636Y544615D01*
X357642Y544597D01*
X357648Y544586D01*
Y544580D01*
X357683Y544439D01*
X357713Y544298D01*
X357730Y544163D01*
X357748Y544034D01*
X357754Y543923D01*
Y543876D01*
X357760Y543834D01*
Y543805D01*
Y543776D01*
Y543764D01*
Y543758D01*
X357754Y543559D01*
X357736Y543377D01*
X357707Y543213D01*
X357695Y543136D01*
X357677Y543072D01*
X357660Y543007D01*
X357648Y542954D01*
X357636Y542907D01*
X357619Y542866D01*
X357613Y542831D01*
X357601Y542808D01*
X357595Y542796D01*
Y542790D01*
X357531Y542638D01*
X357454Y542503D01*
X357372Y542385D01*
X357296Y542286D01*
X357225Y542203D01*
X357167Y542145D01*
X357143Y542127D01*
X357126Y542109D01*
X357120Y542104D01*
X357114Y542098D01*
X357020Y542021D01*
X356920Y541963D01*
X356821Y541910D01*
X356727Y541869D01*
X356645Y541840D01*
X356580Y541822D01*
X356557Y541810D01*
X356539D01*
X356527Y541804D01*
X356521D01*
X356422Y541787D01*
X356304Y541769D01*
X356187Y541758D01*
X356070Y541752D01*
X355964Y541746D01*
X354403D01*
Y545806D01*
X355864D01*
X355999Y545800D01*
D02*
G37*
G36*
X346963Y545871D02*
X347110Y545853D01*
X347245Y545824D01*
X347357Y545794D01*
X347450Y545771D01*
X347491Y545753D01*
X347527Y545742D01*
X347550Y545730D01*
X347568Y545724D01*
X347579Y545718D01*
X347585D01*
X347709Y545653D01*
X347814Y545583D01*
X347908Y545507D01*
X347984Y545436D01*
X348043Y545378D01*
X348084Y545325D01*
X348114Y545290D01*
X348119Y545284D01*
Y545278D01*
X348184Y545166D01*
X348231Y545061D01*
X348260Y544961D01*
X348284Y544867D01*
X348295Y544785D01*
X348307Y544720D01*
Y544697D01*
Y544679D01*
Y544674D01*
Y544668D01*
X348301Y544550D01*
X348284Y544439D01*
X348254Y544339D01*
X348225Y544257D01*
X348190Y544187D01*
X348166Y544134D01*
X348143Y544104D01*
X348137Y544093D01*
X348066Y544005D01*
X347984Y543923D01*
X347896Y543852D01*
X347808Y543788D01*
X347732Y543741D01*
X347668Y543705D01*
X347644Y543694D01*
X347626Y543682D01*
X347615Y543676D01*
X347609D01*
X347562Y543653D01*
X347503Y543635D01*
X347439Y543612D01*
X347368Y543588D01*
X347222Y543547D01*
X347069Y543506D01*
X346999Y543488D01*
X346934Y543471D01*
X346870Y543453D01*
X346817Y543441D01*
X346776Y543430D01*
X346740Y543424D01*
X346717Y543418D01*
X346711D01*
X346594Y543389D01*
X346488Y543365D01*
X346394Y543336D01*
X346312Y543312D01*
X346236Y543283D01*
X346171Y543260D01*
X346113Y543236D01*
X346060Y543218D01*
X346019Y543195D01*
X345984Y543177D01*
X345960Y543166D01*
X345937Y543148D01*
X345907Y543130D01*
X345901Y543125D01*
X345849Y543066D01*
X345813Y543007D01*
X345784Y542949D01*
X345766Y542890D01*
X345755Y542843D01*
X345749Y542802D01*
Y542778D01*
Y542767D01*
X345761Y542673D01*
X345784Y542591D01*
X345819Y542520D01*
X345860Y542456D01*
X345896Y542409D01*
X345931Y542368D01*
X345954Y542344D01*
X345966Y542338D01*
X346013Y542309D01*
X346060Y542280D01*
X346171Y542233D01*
X346289Y542203D01*
X346406Y542180D01*
X346512Y542168D01*
X346559Y542162D01*
X346594Y542156D01*
X346676D01*
X346840Y542162D01*
X346987Y542186D01*
X347104Y542221D01*
X347204Y542256D01*
X347280Y542291D01*
X347339Y542327D01*
X347368Y542350D01*
X347380Y542356D01*
X347462Y542438D01*
X347527Y542526D01*
X347579Y542620D01*
X347615Y542714D01*
X347638Y542802D01*
X347656Y542866D01*
X347662Y542896D01*
X347668Y542913D01*
Y542925D01*
Y542931D01*
X348184Y542890D01*
X348172Y542761D01*
X348143Y542644D01*
X348114Y542532D01*
X348072Y542438D01*
X348037Y542362D01*
X348008Y542303D01*
X347996Y542286D01*
X347984Y542268D01*
X347979Y542262D01*
Y542256D01*
X347902Y542156D01*
X347820Y542068D01*
X347732Y541992D01*
X347644Y541934D01*
X347568Y541881D01*
X347509Y541851D01*
X347486Y541840D01*
X347468Y541828D01*
X347456Y541822D01*
X347450D01*
X347321Y541775D01*
X347180Y541740D01*
X347052Y541711D01*
X346928Y541693D01*
X346817Y541681D01*
X346776D01*
X346735Y541675D01*
X346658D01*
X346506Y541681D01*
X346371Y541699D01*
X346242Y541722D01*
X346130Y541746D01*
X346042Y541769D01*
X346001Y541781D01*
X345972Y541793D01*
X345948Y541804D01*
X345931Y541810D01*
X345919Y541816D01*
X345913D01*
X345796Y541875D01*
X345690Y541939D01*
X345602Y542010D01*
X345532Y542074D01*
X345479Y542133D01*
X345438Y542180D01*
X345409Y542215D01*
X345403Y542221D01*
Y542227D01*
X345344Y542327D01*
X345303Y542426D01*
X345274Y542526D01*
X345256Y542614D01*
X345244Y542690D01*
X345233Y542749D01*
Y542772D01*
Y542790D01*
Y542796D01*
Y542802D01*
X345238Y542902D01*
X345256Y542995D01*
X345280Y543083D01*
X345303Y543160D01*
X345326Y543218D01*
X345350Y543265D01*
X345368Y543295D01*
X345373Y543307D01*
X345432Y543389D01*
X345503Y543465D01*
X345573Y543529D01*
X345643Y543582D01*
X345702Y543629D01*
X345755Y543658D01*
X345790Y543682D01*
X345796Y543688D01*
X345802D01*
X345849Y543711D01*
X345901Y543735D01*
X346019Y543776D01*
X346154Y543817D01*
X346283Y543858D01*
X346400Y543893D01*
X346453Y543905D01*
X346500Y543917D01*
X346535Y543928D01*
X346564Y543934D01*
X346582Y543940D01*
X346588D01*
X346688Y543964D01*
X346782Y543987D01*
X346864Y544011D01*
X346934Y544028D01*
X347005Y544046D01*
X347063Y544063D01*
X347116Y544075D01*
X347157Y544093D01*
X347198Y544104D01*
X347228Y544110D01*
X347274Y544128D01*
X347304Y544134D01*
X347310Y544140D01*
X347398Y544175D01*
X347474Y544216D01*
X347538Y544257D01*
X347585Y544292D01*
X347626Y544327D01*
X347650Y544351D01*
X347668Y544369D01*
X347673Y544374D01*
X347715Y544427D01*
X347744Y544486D01*
X347761Y544544D01*
X347779Y544591D01*
X347785Y544638D01*
X347791Y544674D01*
Y544703D01*
Y544709D01*
X347785Y544779D01*
X347773Y544844D01*
X347756Y544902D01*
X347732Y544949D01*
X347709Y544996D01*
X347691Y545026D01*
X347679Y545049D01*
X347673Y545055D01*
X347626Y545114D01*
X347568Y545161D01*
X347509Y545202D01*
X347456Y545243D01*
X347403Y545266D01*
X347362Y545290D01*
X347333Y545301D01*
X347321Y545307D01*
X347233Y545337D01*
X347140Y545360D01*
X347046Y545372D01*
X346963Y545383D01*
X346893Y545389D01*
X346834Y545395D01*
X346782D01*
X346652Y545389D01*
X346535Y545378D01*
X346429Y545360D01*
X346336Y545337D01*
X346259Y545313D01*
X346201Y545295D01*
X346183Y545290D01*
X346166Y545284D01*
X346160Y545278D01*
X346154D01*
X346060Y545231D01*
X345972Y545178D01*
X345907Y545125D01*
X345849Y545073D01*
X345802Y545032D01*
X345772Y544990D01*
X345755Y544967D01*
X345749Y544961D01*
X345708Y544885D01*
X345667Y544803D01*
X345643Y544715D01*
X345620Y544638D01*
X345602Y544562D01*
X345591Y544509D01*
Y544486D01*
X345585Y544468D01*
Y544462D01*
Y544456D01*
X345080Y544503D01*
X345092Y544650D01*
X345115Y544791D01*
X345150Y544914D01*
X345191Y545026D01*
X345233Y545114D01*
X345250Y545149D01*
X345262Y545178D01*
X345280Y545202D01*
X345285Y545219D01*
X345297Y545231D01*
Y545237D01*
X345385Y545348D01*
X345479Y545448D01*
X345579Y545530D01*
X345673Y545601D01*
X345755Y545653D01*
X345825Y545689D01*
X345849Y545700D01*
X345866Y545712D01*
X345878Y545718D01*
X345884D01*
X346031Y545771D01*
X346183Y545812D01*
X346336Y545835D01*
X346482Y545859D01*
X346553Y545865D01*
X346611Y545871D01*
X346664D01*
X346711Y545876D01*
X346805D01*
X346963Y545871D01*
D02*
G37*
G36*
X245729Y111000D02*
X245231D01*
Y114174D01*
X245225Y114168D01*
X245196Y114145D01*
X245160Y114110D01*
X245102Y114069D01*
X245037Y114016D01*
X244955Y113957D01*
X244861Y113893D01*
X244755Y113828D01*
X244750D01*
X244744Y113822D01*
X244708Y113799D01*
X244650Y113769D01*
X244579Y113734D01*
X244497Y113693D01*
X244409Y113652D01*
X244321Y113611D01*
X244233Y113576D01*
Y114057D01*
X244239D01*
X244251Y114069D01*
X244274Y114074D01*
X244304Y114092D01*
X244339Y114110D01*
X244380Y114133D01*
X244480Y114192D01*
X244597Y114256D01*
X244714Y114339D01*
X244838Y114432D01*
X244961Y114532D01*
X244967Y114538D01*
X244972Y114544D01*
X244990Y114562D01*
X245014Y114579D01*
X245066Y114638D01*
X245137Y114708D01*
X245207Y114790D01*
X245284Y114884D01*
X245348Y114978D01*
X245407Y115078D01*
X245729D01*
Y111000D01*
D02*
G37*
G36*
X243500Y114579D02*
X242162D01*
Y111000D01*
X241622D01*
Y114579D01*
X240285D01*
Y115060D01*
X243500D01*
Y114579D01*
D02*
G37*
G36*
X238430Y115054D02*
X238483D01*
X238606Y115049D01*
X238736Y115031D01*
X238876Y115013D01*
X239005Y114984D01*
X239070Y114966D01*
X239123Y114949D01*
X239129D01*
X239134Y114943D01*
X239170Y114925D01*
X239223Y114902D01*
X239287Y114861D01*
X239357Y114808D01*
X239434Y114738D01*
X239504Y114655D01*
X239575Y114562D01*
Y114556D01*
X239580Y114550D01*
X239604Y114515D01*
X239627Y114456D01*
X239662Y114380D01*
X239692Y114292D01*
X239721Y114186D01*
X239739Y114074D01*
X239745Y113951D01*
Y113945D01*
Y113934D01*
Y113910D01*
X239739Y113881D01*
Y113840D01*
X239733Y113799D01*
X239709Y113699D01*
X239674Y113582D01*
X239627Y113458D01*
X239557Y113335D01*
X239510Y113277D01*
X239463Y113218D01*
X239457Y113212D01*
X239451Y113206D01*
X239434Y113188D01*
X239410Y113171D01*
X239381Y113147D01*
X239346Y113124D01*
X239299Y113095D01*
X239252Y113060D01*
X239193Y113030D01*
X239129Y113001D01*
X239058Y112966D01*
X238982Y112936D01*
X238894Y112913D01*
X238806Y112883D01*
X238706Y112866D01*
X238601Y112848D01*
X238612Y112842D01*
X238636Y112831D01*
X238671Y112807D01*
X238718Y112784D01*
X238824Y112719D01*
X238876Y112678D01*
X238923Y112643D01*
X238935Y112631D01*
X238964Y112602D01*
X239011Y112555D01*
X239070Y112496D01*
X239134Y112414D01*
X239211Y112326D01*
X239287Y112220D01*
X239369Y112103D01*
X240067Y111000D01*
X239398D01*
X238864Y111845D01*
Y111851D01*
X238853Y111862D01*
X238841Y111880D01*
X238824Y111904D01*
X238782Y111968D01*
X238730Y112050D01*
X238665Y112138D01*
X238601Y112232D01*
X238536Y112320D01*
X238477Y112402D01*
X238471Y112408D01*
X238454Y112432D01*
X238424Y112467D01*
X238383Y112508D01*
X238295Y112596D01*
X238249Y112637D01*
X238202Y112672D01*
X238196Y112678D01*
X238184Y112684D01*
X238160Y112696D01*
X238125Y112713D01*
X238090Y112731D01*
X238049Y112748D01*
X237955Y112778D01*
X237949D01*
X237938Y112784D01*
X237914D01*
X237885Y112790D01*
X237844Y112795D01*
X237797D01*
X237732Y112801D01*
X237040D01*
Y111000D01*
X236500D01*
Y115060D01*
X238383D01*
X238430Y115054D01*
D02*
G37*
G36*
X106012Y267875D02*
X106065Y267869D01*
X106130Y267863D01*
X106194Y267857D01*
X106271Y267840D01*
X106429Y267804D01*
X106605Y267752D01*
X106693Y267716D01*
X106775Y267675D01*
X106857Y267623D01*
X106940Y267570D01*
X106945Y267564D01*
X106957Y267558D01*
X106981Y267540D01*
X107010Y267511D01*
X107039Y267482D01*
X107080Y267441D01*
X107121Y267394D01*
X107168Y267347D01*
X107215Y267288D01*
X107262Y267218D01*
X107315Y267147D01*
X107362Y267071D01*
X107403Y266983D01*
X107450Y266895D01*
X107485Y266801D01*
X107520Y266695D01*
X106992Y266572D01*
Y266578D01*
X106987Y266590D01*
X106975Y266613D01*
X106963Y266643D01*
X106951Y266678D01*
X106934Y266725D01*
X106887Y266819D01*
X106828Y266924D01*
X106758Y267030D01*
X106670Y267130D01*
X106576Y267218D01*
X106564Y267229D01*
X106529Y267253D01*
X106470Y267282D01*
X106394Y267323D01*
X106294Y267358D01*
X106183Y267394D01*
X106048Y267417D01*
X105901Y267423D01*
X105854D01*
X105825Y267417D01*
X105784D01*
X105737Y267411D01*
X105625Y267394D01*
X105502Y267370D01*
X105373Y267329D01*
X105238Y267270D01*
X105115Y267194D01*
X105109D01*
X105103Y267182D01*
X105062Y267153D01*
X105009Y267106D01*
X104945Y267036D01*
X104868Y266948D01*
X104798Y266848D01*
X104733Y266725D01*
X104675Y266590D01*
Y266584D01*
X104669Y266572D01*
X104663Y266555D01*
X104657Y266525D01*
X104645Y266490D01*
X104634Y266449D01*
X104616Y266349D01*
X104593Y266232D01*
X104569Y266103D01*
X104557Y265962D01*
X104551Y265809D01*
Y265804D01*
Y265786D01*
Y265757D01*
Y265721D01*
X104557Y265680D01*
Y265628D01*
X104563Y265569D01*
X104569Y265504D01*
X104587Y265364D01*
X104616Y265211D01*
X104651Y265058D01*
X104698Y264906D01*
Y264900D01*
X104704Y264888D01*
X104716Y264871D01*
X104728Y264841D01*
X104763Y264771D01*
X104816Y264689D01*
X104880Y264595D01*
X104962Y264495D01*
X105056Y264407D01*
X105168Y264325D01*
X105174D01*
X105185Y264319D01*
X105203Y264307D01*
X105226Y264296D01*
X105256Y264284D01*
X105291Y264266D01*
X105373Y264231D01*
X105479Y264196D01*
X105596Y264167D01*
X105725Y264143D01*
X105860Y264137D01*
X105901D01*
X105936Y264143D01*
X105977D01*
X106018Y264149D01*
X106124Y264172D01*
X106247Y264202D01*
X106370Y264249D01*
X106500Y264313D01*
X106564Y264349D01*
X106623Y264395D01*
X106629Y264401D01*
X106635Y264407D01*
X106652Y264425D01*
X106676Y264442D01*
X106699Y264472D01*
X106728Y264507D01*
X106763Y264542D01*
X106793Y264589D01*
X106828Y264642D01*
X106869Y264701D01*
X106904Y264759D01*
X106940Y264830D01*
X106969Y264906D01*
X106998Y264988D01*
X107028Y265076D01*
X107051Y265170D01*
X107591Y265035D01*
Y265029D01*
X107585Y265006D01*
X107573Y264970D01*
X107556Y264923D01*
X107538Y264871D01*
X107515Y264806D01*
X107485Y264736D01*
X107450Y264659D01*
X107368Y264495D01*
X107262Y264331D01*
X107198Y264249D01*
X107133Y264167D01*
X107063Y264096D01*
X106981Y264026D01*
X106975Y264020D01*
X106963Y264008D01*
X106934Y263996D01*
X106904Y263973D01*
X106857Y263944D01*
X106811Y263914D01*
X106746Y263885D01*
X106681Y263856D01*
X106605Y263820D01*
X106523Y263791D01*
X106435Y263762D01*
X106341Y263732D01*
X106241Y263709D01*
X106136Y263697D01*
X106024Y263685D01*
X105907Y263680D01*
X105842D01*
X105795Y263685D01*
X105743D01*
X105678Y263691D01*
X105608Y263703D01*
X105526Y263715D01*
X105355Y263744D01*
X105179Y263791D01*
X105003Y263856D01*
X104921Y263897D01*
X104839Y263944D01*
X104833Y263950D01*
X104821Y263955D01*
X104798Y263973D01*
X104775Y263996D01*
X104739Y264020D01*
X104698Y264055D01*
X104651Y264096D01*
X104604Y264143D01*
X104557Y264196D01*
X104505Y264249D01*
X104399Y264384D01*
X104299Y264542D01*
X104211Y264718D01*
Y264724D01*
X104199Y264742D01*
X104194Y264771D01*
X104176Y264806D01*
X104164Y264853D01*
X104147Y264912D01*
X104123Y264976D01*
X104106Y265047D01*
X104088Y265123D01*
X104065Y265211D01*
X104035Y265393D01*
X104012Y265598D01*
X104000Y265809D01*
Y265815D01*
Y265839D01*
Y265874D01*
X104006Y265915D01*
Y265974D01*
X104012Y266032D01*
X104018Y266109D01*
X104029Y266185D01*
X104059Y266355D01*
X104100Y266543D01*
X104158Y266731D01*
X104241Y266912D01*
X104246Y266918D01*
X104252Y266936D01*
X104264Y266959D01*
X104288Y266989D01*
X104311Y267030D01*
X104340Y267077D01*
X104417Y267182D01*
X104516Y267300D01*
X104634Y267417D01*
X104769Y267535D01*
X104927Y267634D01*
X104933Y267640D01*
X104951Y267646D01*
X104974Y267658D01*
X105003Y267675D01*
X105050Y267693D01*
X105097Y267710D01*
X105156Y267734D01*
X105220Y267757D01*
X105291Y267781D01*
X105367Y267804D01*
X105531Y267840D01*
X105719Y267869D01*
X105913Y267881D01*
X105971D01*
X106012Y267875D01*
D02*
G37*
G36*
X112648Y267822D02*
X112696Y267816D01*
X112754Y267810D01*
X112819Y267799D01*
X112883Y267787D01*
X113036Y267746D01*
X113188Y267687D01*
X113265Y267652D01*
X113341Y267611D01*
X113411Y267558D01*
X113476Y267499D01*
X113482Y267493D01*
X113493Y267488D01*
X113505Y267464D01*
X113529Y267441D01*
X113558Y267411D01*
X113587Y267370D01*
X113617Y267329D01*
X113652Y267276D01*
X113710Y267165D01*
X113769Y267024D01*
X113793Y266954D01*
X113804Y266871D01*
X113816Y266789D01*
X113822Y266701D01*
Y266690D01*
Y266660D01*
X113816Y266613D01*
X113810Y266549D01*
X113799Y266478D01*
X113775Y266396D01*
X113752Y266308D01*
X113716Y266220D01*
X113710Y266208D01*
X113699Y266179D01*
X113675Y266132D01*
X113640Y266068D01*
X113593Y265997D01*
X113534Y265909D01*
X113464Y265821D01*
X113382Y265721D01*
X113370Y265710D01*
X113341Y265674D01*
X113312Y265645D01*
X113282Y265616D01*
X113247Y265581D01*
X113200Y265534D01*
X113153Y265487D01*
X113095Y265434D01*
X113036Y265375D01*
X112965Y265311D01*
X112889Y265246D01*
X112807Y265170D01*
X112713Y265094D01*
X112619Y265012D01*
X112613Y265006D01*
X112602Y264994D01*
X112578Y264976D01*
X112549Y264953D01*
X112514Y264918D01*
X112472Y264882D01*
X112379Y264806D01*
X112279Y264718D01*
X112185Y264630D01*
X112103Y264554D01*
X112068Y264524D01*
X112038Y264495D01*
X112032Y264489D01*
X112015Y264472D01*
X111991Y264448D01*
X111962Y264413D01*
X111933Y264372D01*
X111897Y264331D01*
X111827Y264231D01*
X113828D01*
Y263750D01*
X111135D01*
Y263756D01*
Y263779D01*
Y263815D01*
X111141Y263862D01*
X111146Y263914D01*
X111158Y263973D01*
X111170Y264032D01*
X111193Y264096D01*
Y264102D01*
X111199Y264108D01*
X111211Y264143D01*
X111235Y264196D01*
X111270Y264266D01*
X111317Y264349D01*
X111375Y264442D01*
X111440Y264536D01*
X111522Y264636D01*
Y264642D01*
X111534Y264648D01*
X111563Y264683D01*
X111616Y264736D01*
X111692Y264812D01*
X111780Y264900D01*
X111892Y265006D01*
X112027Y265123D01*
X112173Y265246D01*
X112179Y265252D01*
X112203Y265270D01*
X112238Y265299D01*
X112279Y265334D01*
X112332Y265381D01*
X112396Y265434D01*
X112461Y265493D01*
X112537Y265557D01*
X112684Y265698D01*
X112830Y265839D01*
X112901Y265909D01*
X112965Y265980D01*
X113024Y266044D01*
X113071Y266109D01*
Y266115D01*
X113083Y266120D01*
X113095Y266138D01*
X113106Y266161D01*
X113147Y266226D01*
X113194Y266302D01*
X113235Y266396D01*
X113276Y266496D01*
X113300Y266607D01*
X113312Y266713D01*
Y266719D01*
Y266725D01*
X113306Y266760D01*
X113300Y266819D01*
X113282Y266883D01*
X113259Y266965D01*
X113218Y267048D01*
X113165Y267130D01*
X113095Y267212D01*
X113083Y267223D01*
X113053Y267247D01*
X113012Y267276D01*
X112948Y267317D01*
X112866Y267353D01*
X112772Y267388D01*
X112660Y267411D01*
X112537Y267417D01*
X112502D01*
X112478Y267411D01*
X112408Y267405D01*
X112326Y267388D01*
X112238Y267364D01*
X112138Y267323D01*
X112044Y267270D01*
X111956Y267200D01*
X111945Y267188D01*
X111921Y267159D01*
X111886Y267112D01*
X111851Y267042D01*
X111810Y266959D01*
X111774Y266854D01*
X111751Y266737D01*
X111739Y266602D01*
X111229Y266654D01*
Y266660D01*
X111235Y266678D01*
Y266707D01*
X111240Y266748D01*
X111252Y266795D01*
X111264Y266848D01*
X111281Y266912D01*
X111299Y266977D01*
X111346Y267118D01*
X111416Y267259D01*
X111458Y267329D01*
X111510Y267400D01*
X111563Y267464D01*
X111622Y267523D01*
X111628Y267529D01*
X111639Y267535D01*
X111657Y267552D01*
X111686Y267570D01*
X111721Y267593D01*
X111763Y267617D01*
X111810Y267646D01*
X111868Y267675D01*
X111933Y267705D01*
X112003Y267734D01*
X112079Y267757D01*
X112162Y267781D01*
X112250Y267799D01*
X112343Y267816D01*
X112443Y267822D01*
X112549Y267828D01*
X112607D01*
X112648Y267822D01*
D02*
G37*
G36*
X109926Y263750D02*
X109427D01*
Y266924D01*
X109422Y266918D01*
X109392Y266895D01*
X109357Y266860D01*
X109298Y266819D01*
X109234Y266766D01*
X109152Y266707D01*
X109058Y266643D01*
X108952Y266578D01*
X108946D01*
X108940Y266572D01*
X108905Y266549D01*
X108847Y266519D01*
X108776Y266484D01*
X108694Y266443D01*
X108606Y266402D01*
X108518Y266361D01*
X108430Y266326D01*
Y266807D01*
X108436D01*
X108448Y266819D01*
X108471Y266824D01*
X108500Y266842D01*
X108535Y266860D01*
X108577Y266883D01*
X108676Y266942D01*
X108794Y267006D01*
X108911Y267089D01*
X109034Y267182D01*
X109157Y267282D01*
X109163Y267288D01*
X109169Y267294D01*
X109187Y267311D01*
X109210Y267329D01*
X109263Y267388D01*
X109333Y267458D01*
X109404Y267540D01*
X109480Y267634D01*
X109545Y267728D01*
X109603Y267828D01*
X109926D01*
Y263750D01*
D02*
G37*
%LPC*%
G36*
X355905Y545325D02*
X354943D01*
Y542227D01*
X355882D01*
X355958Y542233D01*
X356034D01*
X356105Y542239D01*
X356222Y542256D01*
X356316Y542268D01*
X356392Y542286D01*
X356445Y542303D01*
X356474Y542309D01*
X356486Y542315D01*
X356592Y542368D01*
X356692Y542432D01*
X356780Y542509D01*
X356856Y542585D01*
X356915Y542655D01*
X356962Y542714D01*
X356973Y542737D01*
X356985Y542755D01*
X356997Y542767D01*
Y542772D01*
X357032Y542837D01*
X357067Y542913D01*
X357120Y543066D01*
X357155Y543230D01*
X357184Y543389D01*
X357190Y543459D01*
X357196Y543529D01*
X357202Y543588D01*
Y543641D01*
X357208Y543688D01*
Y543717D01*
Y543741D01*
Y543746D01*
X357202Y543911D01*
X357190Y544063D01*
X357173Y544198D01*
X357155Y544316D01*
X357143Y544363D01*
X357132Y544404D01*
X357120Y544445D01*
X357114Y544474D01*
X357108Y544498D01*
X357102Y544515D01*
X357096Y544527D01*
Y544533D01*
X357055Y544644D01*
X357008Y544744D01*
X356956Y544832D01*
X356909Y544908D01*
X356868Y544967D01*
X356832Y545008D01*
X356809Y545032D01*
X356803Y545043D01*
X356744Y545090D01*
X356686Y545131D01*
X356627Y545166D01*
X356568Y545202D01*
X356516Y545225D01*
X356474Y545243D01*
X356445Y545249D01*
X356433Y545255D01*
X356345Y545278D01*
X356240Y545295D01*
X356134Y545307D01*
X356034Y545313D01*
X355946Y545319D01*
X355905Y545325D01*
D02*
G37*
G36*
X238319Y114608D02*
X237040D01*
Y113265D01*
X238249D01*
X238319Y113271D01*
X238401Y113277D01*
X238495Y113282D01*
X238589Y113294D01*
X238683Y113312D01*
X238765Y113335D01*
X238776Y113341D01*
X238800Y113353D01*
X238835Y113370D01*
X238882Y113394D01*
X238935Y113429D01*
X238988Y113470D01*
X239041Y113523D01*
X239082Y113582D01*
X239088Y113588D01*
X239099Y113611D01*
X239117Y113646D01*
X239140Y113693D01*
X239158Y113746D01*
X239175Y113805D01*
X239187Y113875D01*
X239193Y113945D01*
Y113951D01*
Y113957D01*
X239187Y113992D01*
X239181Y114045D01*
X239170Y114116D01*
X239140Y114186D01*
X239105Y114268D01*
X239052Y114344D01*
X238982Y114421D01*
X238970Y114427D01*
X238941Y114450D01*
X238894Y114479D01*
X238818Y114515D01*
X238730Y114550D01*
X238612Y114579D01*
X238477Y114603D01*
X238319Y114608D01*
D02*
G37*
%LPD*%
D14*
X260080Y533106D02*
X360680D01*
X260080D02*
Y553457D01*
X360680D01*
Y533106D02*
Y553457D01*
X104000Y260250D02*
Y272000D01*
Y260250D02*
X126000D01*
Y272000D01*
X104000D02*
X126000D01*
D15*
X236500Y107000D02*
Y119000D01*
Y107000D02*
X257500D01*
Y119000D01*
X236500D02*
X257500D01*
M02*
